<?xml version="1.0" encoding="UTF-8"?><svg id="Layer_2" xmlns="http://www.w3.org/2000/svg" viewBox="0 0 85.62 85.47"><defs><style>.cls-1{fill:#5d2f05;}.cls-2{fill:#251c14;}.cls-3{fill:#9b6a3c;}.cls-4{fill:#ae753f;}.cls-5{fill:#78624c;}.cls-6{fill:#aa7543;}.cls-7{fill:#7f4108;}.cls-8{fill:#5c2f05;}.cls-9{fill:#b77c41;}.cls-10{fill:#a87341;}.cls-11{fill:#ac7540;}.cls-12{fill:#a07146;}.cls-13{fill:#a37e5b;}.cls-14{fill:#7e5d3f;}.cls-15{fill:#865e3a;}.cls-16{fill:#8f643c;}.cls-17{fill:#6b3909;}.cls-18{fill:#fcfcfc;}.cls-19{fill:#9e7c5c;}.cls-20{fill:#9a7959;}.cls-21{fill:#845f3d;}.cls-22{fill:#ad743e;}.cls-23{fill:#8c6643;}.cls-24{fill:#a17042;}.cls-25{fill:#ad8661;}.cls-26{fill:#b48151;}.cls-27{fill:#b26720;}.cls-28{fill:#ae753e;}.cls-29{fill:#93663b;}.cls-30{fill:#a46e3c;}.cls-31{fill:#876340;}.cls-32{fill:#8a623b;}.cls-33{fill:#ad5f12;}.cls-34{fill:#b18155;}.cls-35{fill:#4f4f4e;}.cls-36{fill:#956c46;}.cls-37{fill:#7c5a3a;}.cls-38{fill:#855f3c;}.cls-39{fill:#805c3b;}.cls-40{fill:#a96728;}.cls-41{fill:#76573a;}.cls-42{fill:#623206;}.cls-43{fill:#6c5b4a;}.cls-44{fill:#9d6b3c;}.cls-45{fill:#a36f3e;}.cls-46{fill:#a97f57;}.cls-47{fill:#864709;}.cls-48{fill:#ac7746;}.cls-49{fill:#ad7643;}.cls-50{fill:#b2763d;}.cls-51{fill:#997f67;}.cls-52{fill:#ab733e;}.cls-53{fill:#786451;}.cls-54{fill:#773c06;}.cls-55{fill:#5e3005;}.cls-56{fill:#5f3105;}.cls-57{fill:#998069;}.cls-58{fill:#aa7f54;}.cls-59{fill:#6a3606;}.cls-60{fill:#845d3a;}.cls-61{fill:#9e6f44;}.cls-62{fill:#373636;}.cls-63{fill:#804108;}.cls-64{fill:#a77342;}.cls-65{fill:#a97545;}.cls-66{fill:#ab7e51;}.cls-67{fill:#b6793f;}.cls-68{fill:#a57f5b;}.cls-69{fill:#835c38;}.cls-70{fill:#af7944;}.cls-71{fill:#aa713c;}.cls-72{fill:#946842;}.cls-73{fill:#926840;}.cls-74{fill:#683506;}.cls-75{fill:#b5783e;}.cls-76{fill:#a46f3e;}.cls-77{fill:#a66b31;}.cls-78{fill:#98673a;}.cls-79{fill:#b3763c;}.cls-80{fill:#b6773b;}.cls-81{fill:#ae7e4d;}.cls-82{fill:#b47840;}.cls-83{fill:#9f6f40;}.cls-84{fill:#804208;}.cls-85{fill:#8a643e;}.cls-86{fill:#8f6843;}.cls-87{fill:#aa723d;}.cls-88{fill:#7e420b;}.cls-89{fill:#8b633f;}.cls-90{fill:#b47941;}.cls-91{fill:#845c36;}.cls-92{fill:#7e5b3a;}.cls-93{fill:#363636;}.cls-94{fill:#906238;}.cls-95{fill:#987f6a;}.cls-96{fill:#86562a;}.cls-97{fill:#a8703b;}.cls-98{fill:#875e38;}.cls-99{fill:#a16e3e;}.cls-100{fill:#914d0a;}.cls-101{fill:#7b440f;}.cls-102{fill:#a7560a;}.cls-103{fill:#9a744f;}.cls-104{fill:#b18052;}.cls-105{fill:#b27c48;}.cls-106{fill:#867361;}.cls-107{fill:#956c45;}.cls-108{fill:#865120;}.cls-109{fill:#a8560a;}.cls-110{fill:#603206;}.cls-111{fill:#ae6929;}.cls-112{fill:#94693f;}.cls-113{fill:#a87443;}.cls-114{fill:#9b693c;}.cls-115{fill:#b2753d;}.cls-116{fill:#9d510a;}.cls-117{fill:#8b5f37;}.cls-118{fill:#aa6f37;}.cls-119{fill:#b68c64;}.cls-120{fill:#ae7642;}.cls-121{fill:#3a3939;}.cls-122{fill:#a77547;}.cls-123{fill:#ab8158;}.cls-124{fill:#b07843;}.cls-125{fill:#b4875e;}.cls-126{fill:#333;}.cls-127{fill:#977f69;}.cls-128{fill:#373634;}.cls-129{fill:#af855c;}.cls-130{fill:#ae5d11;}.cls-131{fill:#6a3607;}.cls-132{fill:#5d2f06;}.cls-133{fill:#aa7442;}.cls-134{fill:#3b3835;}.cls-135{fill:#8d6540;}.cls-136{fill:#3a3836;}.cls-137{fill:#7e5a39;}.cls-138{fill:#a16f3f;}.cls-139{fill:#9b6c3f;}.cls-140{fill:#623106;}.cls-141{fill:#4f453c;}.cls-142{fill:#713a06;}.cls-143{fill:#7b3f07;}.cls-144{fill:#87603c;}.cls-145{fill:#6d5c4c;}.cls-146{fill:#9c8066;}.cls-147{fill:#2e2d2b;}.cls-148{fill:#363331;}.cls-149{fill:#845e3b;}.cls-150{fill:#8b6440;}.cls-151{fill:#79583a;}.cls-152{fill:#aa7846;}.cls-153{fill:#b2753b;}.cls-154{fill:#773b07;}.cls-155{fill:#b48253;}.cls-156{fill:#3a3736;}.cls-157{fill:#927b66;}.cls-158{fill:#353535;}.cls-159{fill:#924d0a;}.cls-160{fill:#ac733f;}.cls-161{fill:#6a3707;}.cls-162{fill:#b4783f;}.cls-163{fill:#8a633d;}.cls-164{fill:#654e39;}.cls-165{fill:#92663c;}.cls-166{fill:#936f4c;}.cls-167{fill:#77583c;}.cls-168{fill:#9d5109;}.cls-169{fill:#a67b52;}.cls-170{fill:#763d06;}.cls-171{fill:#8f633b;}.cls-172{fill:#8d653f;}.cls-173{fill:#874709;}.cls-174{fill:#7b400a;}.cls-175{fill:#9b6c40;}.cls-176{fill:#865e39;}.cls-177{fill:#383431;}.cls-178{fill:#806042;}.cls-179{fill:#6c3707;}.cls-180{fill:#9e6d3f;}.cls-181{fill:#986b40;}.cls-182{fill:#733a06;}.cls-183{fill:#723a07;}.cls-184{fill:#a77444;}.cls-185{fill:#89623e;}.cls-186{fill:#8e643d;}.cls-187{fill:#af753e;}.cls-188{fill:#957c66;}.cls-189{fill:#71563c;}.cls-190{fill:#b7773b;}.cls-191{fill:#90663e;}.cls-192{fill:#403d3a;}.cls-193{fill:#ae5b0c;}</style></defs><g id="Layer_2-2"><path d="M18.4.27c.07.02.98.59,1.2.72.52.28.93.66,1.2,1.2.32.46.99,1.27,1.2,1.68.17.48.12.95,0,1.44,0,.03-.18.34-.24.48l-.48.96c-1.86,2.54-3.16,5.2-2.87,8.51.07.75.67,3.47,1.55,3.48.58.01,8.53-5.15,9.95-5.89,7.51-3.91,14.78-6.88,23.28-7.78,1.76-.11,3.51-.14,5.28,0,4.29.56,8.32,2.14,9.95,6.48,1.19,3.16.46,3.72-1.08,6.23-.02.32.14.56.48.72.08.07.16.16.24.24.38.21.7.53.96.96.91,1.19,2.41,2.19,3.48,3.35,5.13,5.57,11.41,15.25,12.59,22.78,0,.5.07.98.24,1.44.02.24,0,.48,0,.72.19,1.03.19,2.07,0,3.12-.36,2.79-.76,5.62-1.2,8.39-.17.37-.25.77-.24,1.2-.21,1.34-.58,2.67-.72,4.08-.25,1.65-.2,3.37,0,5.04.12,2.89.78,3.99-.48,6.95-.18.3-.4.56-.72.72-.48.39-.93.85-1.44,1.2l-1.68.72c-.41.12-1,.17-1.44.24l-2.88.24c-6,.97-10.69,4.19-17.27,5.04l-1.2.24c-.71.05-1.45-.01-2.16,0-1.11.22-2.25.23-3.36,0-2.12-.12-4.16-.57-6.24-.96-.37-.17-.77-.25-1.2-.24-8.39-1.77-15.49-7.37-21.11-13.67l-.72-.96c-2.56-2.68-4.79-6.78-6.49-10.06-1.2.09-1.94,1.45-3.24,1.65-4.46.7-8.95-2.56-10.35-6.65-3.35-9.79.71-18.59,7.61-25.47l.72-.96c.87-.96,1.68-1.76,2.64-2.64l.96-.72c1.29-1.44,2.67-2.43,4.04-3.75.07-.35-1.1-1.83-1.4-2.24l-.96-1.68c-1.35-1.9-1.79-2.9-2.16-5.28l-.24-1.2c-.13-2.28.49-7.25,2.16-8.87.82-1.2,2.48-1.65,3.84-1.2Z"/><path class="cls-18" d="M58.46,5.07h-5.28c2.12-.22,3.15-.28,5.28,0Z"/><path class="cls-18" d="M83.16,69.82c-.35-1.17-.35-2.99-.26-4.22.03-.43.25-.73.26-.81.05,1.67-.07,3.37,0,5.04Z"/><path class="cls-18" d="M53.9,85.16c-.8.4-2.5.41-3.36,0,1.08.06,2.27.02,3.36,0Z"/><path class="cls-18" d="M85.32,51.11c-.03-1.04.04-2.08,0-3.12.62.85.11,2.23,0,3.12Z"/><path class="cls-18" d="M77.41,79.65c-.06,0-.26.21-.58.25-.72.09-1.56-.08-2.3-.01.93-.15,1.86-.39,2.88-.24Z"/><path class="cls-18" d="M15.76,18.5c-.34-.48-.96-.87-.96-1.68.34.47.96.87.96,1.68Z"/><path class="cls-18" d="M20.8,2.19l-1.2-1.2c.25.15.51.08.86.46.27.29.24.6.34.74Z"/><path class="cls-18" d="M80.52,78.69c-.8.54-.81.47-1.68.72.42-.47,1.06-.72,1.68-.72Z"/><path class="cls-18" d="M18.4.27c-1.37-.33-2.86.25-3.84,1.2.4-1.34,2.72-1.83,3.84-1.2Z"/><path class="cls-18" d="M69.01,19.7c-.49-.15-.68-.7-.96-.96.83-.05.75.68.96.96Z"/><path class="cls-18" d="M8.8,28.81c-.03-.6.48-.7.72-.96.04.61-.45.69-.72.96Z"/><path class="cls-18" d="M22,70.3c-.23-.26-.75-.36-.72-.96.25.26.77.35.72.96Z"/><path class="cls-18" d="M85.32,47.27c-.42-.27-.21-.99-.24-1.44.07.47.19.78.24,1.44Z"/><path class="cls-18" d="M13.12,24.49c-.28.31-.36.74-.96.72.26-.24.35-.77.96-.72Z"/><path class="cls-18" d="M22,5.31v-1.44c.46.9.19.74,0,1.44Z"/><path class="cls-18" d="M67.81,18.5c-.26-.23-.98.09-.48-.72l.48.72Z"/><path class="cls-18" d="M12.64,11.54c-.06-.37-.21-.59-.24-1.2.39.2.23.81.24,1.2Z"/><path class="cls-18" d="M83.88,60.7c.01-.38-.15-.99.24-1.2-.07.45-.19.87-.24,1.2Z"/><path class="cls-18" d="M21.28,6.75l.48-.96c-.22.49-.04.36-.48.96Z"/><path class="cls-18" d="M81.96,77.49l.72-.72c-.39.93-.39.45-.72.72Z"/><path class="cls-18" d="M44.3,84.2c-.42-.08-.79-.15-1.2-.24.38.01.99-.15,1.2.24Z"/><path class="cls-18" d="M57.26,84.92c-.32.04-.62.2-1.2.24.2-.39.82-.23,1.2-.24Z"/><path class="cls-193" d="M72.13,27.37c.27.03.5.19.72.48l.72,1.2c.32.22.67.61.72.96.34.18.58.6.72.96l.48.72.72,1.2c.41.69.89,1.33,1.44,1.92.35.47.59.95.72,1.44.16.3.32.62.48.96.33.48.57.96.72,1.44.35.47.59,1.03.72,1.68.07.16.16.31.24.48.08.43.2.86.48,1.2.1.25.16.47.24.72.06.51.18,1.01.48,1.44.11.46.14,1.16.24,1.68l.24,1.2c0,.05.23.16.24.24-.17.54-.21,1.14,0,1.68,0,.08,0,.16,0,.24l.24,3.36c0,.08-.23.19-.24.24l-.24,1.2c-.08.36-.14.6-.24.96-.18.51-.18.99,0,1.44-.01.08-.23.19-.24.24-.16.37-.24.77-.24,1.2l-.48,1.92-.24,1.44c.02.5-.06.98-.24,1.44-.01.08.01.16,0,.24l-.31.5c-4.71,1.28-3.48,6.91-2.62,10.43-.58,1.12-1.28,2.11-2.1,2.98-.37.12-.89.19-1.2,0-.43.15-.91.23-1.44.24-.43-.01-.83.07-1.2.24-.2.06-.71.33-1.2.48-.59.03-1.15.19-1.68.48l-1.68.72c-.48.01-.8.17-.96.48-.45.2-1.1.32-1.44.48-.37.06-.71.19-.96.48-.37.16-.75.46-1.44.72-.5.08-1.01.2-1.44.48-.08.02-.16-.01-.24,0-.58.11-1.14.27-1.68.48-.16.01-.32,0-.48,0-1.37.09-2.21-.2-2.51-.89-.72,1.66-4.17,1.03-5.37-.08l-3.17-2.56c-6.17-1.97-11.36-6.21-14.99-11.49-1.06-1.53-1.62-1.55-3.35-1.48-2.15-.68-7.46-7.98-8.05-10.18-.48-1.8-.01-2.46,1.47-3.42-.76-1.24-1.02-2.52-.77-3.86l-.44-1.05v-.24c.08-.08.16-.16.24-.24.4-.69,1-1.26,1.68-1.68l1.68-1.92c.36-.59.84-1.09,1.44-1.44l1.2-.96,1.2-.96c.3-.33.62-.57.96-.72.31-.23.63-.47.96-.72.24-.16.47-.33.72-.48l1.44-1.2c.23-.17.49-.31.72-.48.42-.22.82-.46,1.2-.72.23-.32.55-.56.96-.72.09-.07.15-.17.24-.24.44-.19.84-.43,1.2-.72.39-.22.79-.46,1.2-.72.16-.08.32-.16.48-.24,1-.62,2.04-1.18,3.12-1.68.42-.37.9-.61,1.44-.72.3-.16.53-.38.72-.48.45-.21.85-.29,1.2-.24l.52.06c.58,1.27,2.45.92,3.58.56,4.91-2,9.73-4.08,14.46-6.24,1.78.45,3.48,1.16,5.11,2.11,1,.66,2.05,1.12,3.2,1.35Z"/><path d="M56.54,7.71c.24.26.09.43-.13.63l-2.02,1.55c.31.27.47.58.48.94.43-.39.83-.15,1.2.72l.58-.16,2.59,2.34c.23-1.11,1.63-4.51,2.81-4.43.09,0,.18.05.26.1.7-.29,1.9.67,2.16,1.44l-.02.7c-1.31,1.35-2.03,3.11-1.94,4.99l-.44.54c.21.07.21.15,0,.24-.84.55-1.72.95-2.64,1.2l-.7-.14c-1.19-1.61-2.71-2.91-4.4-3.97l-.18-.69c-.63.23-.87.07-.72-.48-.37.4-.61.24-.72-.48l-.37.15c-.42,2.97-.47,5.98-.15,9.03l-.2.42c-.6.51-1.96,1.64-2.64,1.2l-.55-.03c-2.14-2.71-6.01-3.86-9.3-4.5l-.23-.51c-.58-.1-1.14-.18-1.68-.24l-.25.26c.18-.4-.29-.41-.53-.25-1.56,1.08-.32,9.56.32,11.19l-.26.31c.21.08.21.16,0,.24-.76.55-1.77,1.25-2.64,1.44-2.38-.85-4.51-1.46-7.07-1.8-.59-.08-3.89-.43-4.08-.35-.24.1-.81,4.23-.37,5.03.55.59.84,1.45.89,2.57.56,1.01.66,1.83.31,2.47.22.07.22.15,0,.24-.54.9-1.34,1.7-2.4,2.4-.05.21-.13.2-.24,0l-.8.28c-2.09-.6-4.19-.84-6.29-.72.44.48.49.87.13,1.15.61-.09.77.39.48,1.44.97.47,1.79,2.78,1.68,3.84.33.02.25.31,0,.48-.32.84-1.01,1.78-1.68,2.4l-.65.46c-3.06.02-7.06.38-9.11,2.87l-.55.03c-.43-.85-1.12-2.36-.72-3.12-.07-.2-.03-.7.12-.83,1.71-1.59,6.62-2.43,8.97-2.6-.27-.74-.61-1.45-1.03-2.14l.34-.43c-.67-.15-.71-.17-.24-.72-.7,0-.82-.32-.24-.72-.45-.04-.77-.48-.94-1.33-.61-.47-6.14,3.05-6.98,3.74l-.48-.25c-.11-1.44.19-2.96.72-4.32.05-.04.19.04.24,0,1.08-1.49,2.76-2.42,5.05-2.77,0-1.36.08-2.75.23-4.19-.77-.44.31-2.06.72-2.64.03-.07-.03-.17,0-.24,1.19-1.51,2.59-2.88,4.08-4.08.06-.24.3-.41.48-.24.59-.49.99-.57,1.2-.24.76-.58,1.32-.66,1.68-.24.71-.43,1.46-.71,2.27-.84.14-.74.43-1.42.84-2.04-.39-.37-.23-.93.48-1.68-.36-.08-.28-.24.24-.48-.16-.24-.02-.38.24-.48,2.73-1.86,5.56-3.59,8.46-5.18l-.31-.09,1.5-1.27c.6-.23,1.24-.28,1.86-.41.03.23-.13.39-.48.48-.49.22-.73.46-.72.72.64-.31,1.33-.47,2.08-.48.23-.55.57-.87,1.04-.96-.07-.23,0-.31.24-.24,1.09-.97,2.7-1.69,4.08-2.16.34-.32.46-.18.24.24-.09.72-.45,1.43-1.09,2.14-.49.55-.45,1.04.13,1.46.37-.61.85-.53,1.44.24.19-.08.38-.15.58-.18,1.48-.27,7.07,2.1,8.05,3.54-.72-.71-.81-3.38,0-3.96l-.3-.24c.09-1.03.3-2.08.65-3.15l-6.75-.54-.31-.51c1.86-1.15,4.51-1.97,6.72-2.16.77-.16,1.57-.24,2.4-.24.59-.55,2.41-.78,3.36-.72.52-.24,1.38-.2,1.92,0Z"/><path class="cls-33" d="M21.28,47.03c1.49.3.72,1.99.79,2.73.05.55.91,1.5.89,2.2-.03.83-2.16.8-1.56,2.99.67,2.45,5.02,8.16,7.08,9.71,1.45,1.09,1.77.08,2.64.47,1.19.54,3.56,4.19,4.68,5.4,2.76,2.98,5.94,4.99,9.55,6.75.71.35,1.66.44,2.3.81,1.28.75,3.4,3.09,4.83,3.57.52.18,1.99.26,2.47.09.69-.24.33-1.45,1.24-1.16.24.08.23.87.59,1.09.49.29,1.3-.14,1.68.35-.08,0-.16,0-.24,0-1.03.17-2.07.25-3.12.24-.4.04-.71.21-.96.24l-2.4-.24c-.08,0-.16,0-.24,0-.62-.17-1.26-.25-1.92-.24-.55.02-1.03-.06-1.44-.24-.35.08-.75,0-1.2-.24-.21-.07-.21-.15,0-.24-2.09-.72-4.16-1.54-6.19-2.44-5.89-3.7-13.09-9.53-16.22-15.78-2.01-1.88-3.47-3.69-3.97-6.48-.62-.17-1.36-1.9-1.62-2.66-.45-1.32-.68-2.24-.06-3.58.31-.77.73-1.48,1.2-2.16l1.2-1.2Z"/><path class="cls-84" d="M39.27,18.5c2.72.24,8.95,2.44,10.07,5.04.21.07.21.15,0,.24-.71.48-1.51.88-2.4,1.2-.16.08-.31.16-.48.24-.27.25-.58.53-.96.48-2.21,1.16-4.45,2.28-6.72,3.36h-.24c-1.1-.48-.95-10.18-.46-10.41l.46-.14c.16-.18.4-.18.72,0Z"/><path class="cls-77" d="M20.8,58.31c.5.77,1,1.59,1.51,2.47l2.26,2.38c2.85,5.88,9.22,10.89,14.57,14.62,2.03,1.41,3.46,2.26,5.96,2.76.47.2.55.42.17.8-.47-.04-.97-.15-1.44-.24-.43-.24-.91-.4-1.44-.48-.83-.13-1.11-.34-1.68-.48-2.99-1.79-6.03-3.62-9.11-5.52-.39.07-.72-.19-.96-.48-.18-.09-.3-.13-.48-.24-.16-.28-.4-.52-.72-.72-.55-.3-.68-.34-1.2-.72-.26-.44-.66-.84-1.2-1.2-.72-.53-1.39-.92-1.92-1.68.04-.34-.12-.66-.48-.96-.46-.71-.86-1.11-1.2-1.2-.4-.47-.53-.96-.72-1.2-.22-.3-.22-.46,0-.48.29-.26.52-.33.77-.05-1.36-2.33-2.47-4.81-3.34-7.42l.17-.44c.13-.28.29-.12.48.48Z"/><path class="cls-173" d="M64.21,19.7l.96.48c1.34.87,2.48,1.99,3.6,3.12.55.52.95,1.08,1.2,1.68l-.3.23c-2.04-1.44-4.13-2.33-6.29-2.68-4.32,1.83-8.64,3.75-12.94,5.75-.31.11-3.48,1.24-3,.12.05-.11.13-.21.22-.3l4.8-2.4c.26-.25.6-.47.96-.48.31-.3.71-.54,1.2-.72,1.87-1.13,3.79-2.17,5.76-3.12.09-.06.15-.18.24-.24.5-.18.98-.42,1.44-.72.47-.55,1.46-1.04,2.16-.72Z"/><path class="cls-84" d="M54.14,13.7c2.27,1.44,3.66,2.58,5.28,4.8.2.07.19.15,0,.24-.07.03-.17-.03-.24,0l-1.68.96c-.68.28-1.24.68-1.68,1.2-.12.05-.36-.05-.48,0l-1.68.72c-.19.11-.35.11-.48,0-.07-2.67,0-5.45.36-8.05l.6.13Z"/><path class="cls-40" d="M46.94,81.33c-.38.2-.82.18-1.2,0-.16,0-.32.01-.48,0-.24-1.13-2.23-.92-3.18-1.26-1.29-.47-7.91-5.67-9.41-6.9-1.95-1.59-5.69-5.1-7.08-7.07-.57-.81-.83-1.99-1.33-2.75-1.29-1.94-2.83-2.09-3.47-5.05-.5-.73-.58-1.29-.24-1.68.43.96,1.42,3.12,1.96,3.92.64.94,1.91,1.7,2.47,2.57.99,1.53,1.23,2.67,2.65,4.31,2.45,2.84,10.81,9.92,14.05,11.61,1.88.98,3.37.66,5.26,2.29Z"/><path class="cls-84" d="M58.7,7.71c.23.03.51-.04.72,0,.9.55,1.86,1.03,2.88,1.44.21.08.21.16,0,.24-.13.16-.49.3-.71.6-.95,1.27-1.85,2.82-1.93,4.44-.36.1-.4-.1-.6-.24-.88-.61-1.97-1.91-3-2.64l-.73-.69c.83-1.02,1.56-2.07,2.17-3.15.28-.26.83-.14,1.2,0Z"/><path class="cls-84" d="M14.08,52.79c-.11.85-.44,1.93-.96,2.64-.28.83-.84,1.55-1.68,2.16-.29.15-.52.41-.91.44-.37.03-.49-.2-.53-.2-.32-.15-.72-.23-1.2-.24-.32-.08-.45-.14-.72-.24-.96-.33-1.6-.8-1.92-1.44.5-1.28,2.57-2.27,3.92-2.78,1.13-.43,3.09-1.15,3.99-.34Z"/><path class="cls-159" d="M69.97,24.97c.25-.18.57.19.72.48.26.18.49.5.24.72l-.22.21c-2.29-1.48-4.63-2.55-7.04-3.2-4.63,2-9.29,4.03-13.96,6.07-.93.39-3.26.71-2.76-.68-.17-.07-.17-.15,0-.24.16-.08.32-.16.48-.24h.24c.19.57.5.46.97.39.41-.06,2.43-.75,2.92-.94,3.27-1.24,6.56-3.54,9.78-4.85,3.98-1.62,5.19,1.05,8.64,2.28Z"/><path class="cls-118" d="M17.2,53.51c1.53-1.54,3.16,3.08,3.12,4.32.96,2.33,1.75,4.87,3.16,7.04.65,1,2.8,2.97,3.08,3.88.09.3-.06.48-.35.35-.7-.3-2.04-2.52-3.48-3.36-.3-.02-.62-.18-.96-.48-.06-.08-.12-.29-.24-.48-.17-.26-.17-.42,0-.48-.22-1.44-.79-2.84-1.69-4.2-.25-1.64-.83-2.98-1.72-4.02-.34.56-.72.75-1.14.55-.44-1.25-.07-1.94.24-3.12Z"/><path class="cls-7" d="M20.08,43.2c.13.15.05.39-.24.72l-1.2,1.44-.72.96c-.15.24-.34.47-.48.72-.29.5-.61.82-.96.96-.78-1.14-1.17-2.57-1.68-3.84l-.15-1.03c.17-.48,4.8-.31,5.43.07Z"/><path class="cls-109" d="M80.52,62.86c-.05.38-.21.73-.24.96-.07.21-.15.21-.24,0l-.38.56c-2.52,1.39-2.19,4.32-1.79,6.77.99,2.55.14,4.02-1.9,5.63h-.48c.31-1.47,1.59-1.72,1.69-3.48.07-1.26-.56-1.37-.72-2.16-.62-3.09.18-8.07,4.07-8.26Z"/><path class="cls-160" d="M21.52,64.3c-.29-.09-.53-.33-.72-.72-.36-.37-.45-.59-.72-.96-.32-.66-.64-1.3-.96-1.92-.3-.32-.54-.72-.72-1.2-.42-.67-.74-1.39-.96-2.16-.11-.21-.35-.36-.48-.72l1.08-1.2c1.65.76,1.66,3.08,2.22,4.49.4,1,2.02,3.19,1.62,4.15-.07.16-.34.19-.37.23Z"/><path class="cls-47" d="M79.8,67.18c.18.76.15,1.64,0,2.4.22.55.39,1.33.24,1.92.49,1.22.55,2.81,0,4.08-.23.2-.33.16-.48.24-.42.44-.98.68-1.68.72h-.72c1.13-1.07,1.71-2.3,1.74-3.67l-.48-3.32c-.14-1.32-.14-3.86,1.38-4.05.23.47.19,1.18,0,1.68Z"/><path class="cls-88" d="M9.52,34.57c-.2,1.58.28,3.02.48,4.56-1.86.23-4.26,1.28-5.76,2.4-.38-.38-.03-.56,0-.72.15-.53.39-1.01.72-1.44.16-.31.37-.66.72-.72,2.08-.47,3.01-1.26,3.6-3.36-.61-.36-.45-.7.24-.72Z"/><path class="cls-97" d="M40.71,80.13c-.71-.18-.94-.2-1.68-.48-.36-.36-.92-.57-1.44-.48-1.03-.48-2.18-1.27-3.12-1.92-.86-.91-1.82-1.71-2.88-2.4-.18-.07-.18-.15,0-.24,2.42,1.02,5.07,2.4,7.35,4.04.64.46,1.55.45,1.76,1.48Z"/><path class="cls-1" d="M64.93,11.06c.15.23.15.39,0,.48.24,1.15-.11,2.32-1.05,3.51-.1.65-.31,1.16-.63,1.53-.25.33-.82.66-1.2.48-.25-2.49.62-4.55,2.4-6.23.07-.11.15-.11.24,0,.07.08.18.15.24.24Z"/><path class="cls-89" d="M10.24,31.93c-.27.73-.52,1.84-.72,2.64-.04.17-.16.38-.24.72-.47,1.79-1.65,3.38-3.6,2.88.44-.76.58-1.29,1.2-2.16.31-.04.6-.44.48-.72.28-.36.52-.49.72-.72.16-.37.4-.69.72-.96.33-.27.57-.59.72-.96.14-.18.01-.82.72-.72Z"/><path class="cls-111" d="M20.56,56.63c.14.53.13,1.18.24,1.68l-.48-.48c-.43-1.05-1.38-3.23-2.07-4.03-.38-.44-.51-.32-1.04-.29.04-.14-.04-.36,0-.48.29-.25.53-.57.72-.96.16-.27.32-.59.48-.96.16-.24.32-.48.48-.72-.4,1.71.96,4.59,1.68,6.23Z"/><path class="cls-130" d="M19.12,4.83c-.07.09-.16.16-.24.24-.17.42-.41.74-.72.96,0,.29-.21.6-.48.72-.65,1.24-1.21,2.52-1.68,3.84-.06.25-.2.54-.24.72-.24.22-.3.08-.24-.24-.22-.39-.3-.87-.24-1.44,0-.16-.02-.33,0-.48l.24-1.44c.07-.21.15-.21.24,0,.82-1.14,1.58-2.31,2.28-3.51l.35-.09c.37-.23.8.31.72.72Z"/><path class="cls-150" d="M21.52,21.86c-.08.15-.19.32-.24.48-1.15,1.96-3.17,3.91-5.28,4.8-.34.06-.75.37-1.2.24.2-.47.36-.79.48-.96.21-.16.41-.18.48-.24l1.68-1.44,1.2-.96,1.92-1.68c.41-.3.73-.38.96-.24Z"/><path class="cls-190" d="M18.16,3.39c.61.44,1.36.88.96,1.44-.11-.4-.48-.5-.72-.72-.96,1.08-1.84,2.28-2.64,3.6-.04.04-.2-.04-.24,0,.11-1.56.34-2.77,1.2-4.08.29-.69.93-.75,1.44-.24Z"/><path class="cls-158" d="M29.91,16.1c.53-.3,1.15-.8.96,0l-9.11,5.28c-.07.14-.15.14-.24,0,2.7-1.99,5.48-3.63,8.4-5.28Z"/><path class="cls-143" d="M65.89,12.98c.08.16.17.32.24.48.18.41.18.73,0,.96-.26.91-1.28,1.68-2.16,1.68-.18-.04-.31-.08-.32-.14-.1-.69,1.3-2.97,1.76-3.46.2-.21.36-.05.48.48Z"/><path class="cls-126" d="M48.86,8.67c-1.66.2-5.11,1.45-6.72,2.16-.04.69-.33.81-.72.24-.22.12-.38.12-.48,0,2.26-1.23,5.38-2.22,7.92-2.64.21.07.21.15,0,.24Z"/><path class="cls-174" d="M34.47,14.18c.26-.19.56-.29.72,0-.29.36-.38,1.24-.88,1.4-.45.15-1.67.06-2.24.04.03-.3.27-.54.72-.72.77-.21,1.09-.37.96-.48.11-.02.34-.19.72-.24Z"/><path class="cls-60" d="M45.5,25.69c.2.07.19.15,0,.24-2.24,1.03-4.44,2.17-6.72,3.12,2.26-1.34,4.37-2.25,6.72-3.36Z"/><path class="cls-191" d="M60.37,21.38c-1.96,1.25-3.71,2.09-5.76,3.12,1.26-.74,2.59-1.7,3.92-2.44.57-.32,1.15-.68,1.84-.68Z"/><path class="cls-62" d="M14.32,27.61l-4.08,4.08c.49-1.19,2.81-3.15,3.84-4.08h.24Z"/><path class="cls-165" d="M52.46,25.69c-1.51.84-3.07,1.87-4.8,2.4h-.24c1.6-.8,3.2-1.6,4.8-2.4h.24Z"/><path class="cls-32" d="M68.77,23.29c-1.12-1-2.43-2.05-3.6-3.12,1.51.65,2.54,1.92,3.6,3.12Z"/><path class="cls-94" d="M27.27,36.72c-1.08.96-2.07,2.12-3.12,3.12-.34.32-.46.18-.24-.24.02-.05,0-.17,0-.24-.17-.75,2.38-2.97,2.94-3.01l.42.37Z"/><path class="cls-144" d="M5.69,55.43c.61-.29.74-.14.48.48.63.52,1.11,1.01,1.92,1.44-1.88-.67-2.59-1.05-3.6-2.88.5-.49,1.54.34,1.2.96Z"/><path class="cls-121" d="M39.51,11.54c.21.07.21.15,0,.24-1.13.73-3.11,1.3-4.08,2.16-.21-.07-.21-.15,0-.24,1.48-.85,2.4-1.49,4.08-2.16Z"/><path class="cls-149" d="M13.36,55.43c-.07.14-.15.14-.24,0,.3-.62.53-1.75.96-2.64-.59-.42-.48-.83.24-.96-.57-.44-.17-.85.48-.72.07-.21.15-.21.24,0-.66,1.29-1.07,3.06-1.68,4.32Z"/><path class="cls-52" d="M17.68,6.99l-1.68,3.6c.49-1.94.66-2.2,1.68-3.84v.24Z"/><path class="cls-93" d="M3.29,45.84c.21.08.21.16,0,.24-.07.21-.15.21-.24,0,.04-.99.23-3.97.96-4.56-.29,1.43-.6,2.86-.72,4.32Z"/><path class="cls-117" d="M34.23,31.69c.14.07.13.15,0,.24-1.02.65-2.12,1.26-3.12,1.92.26-1.18,1.46-2.08,2.64-2.16-.02-.38.27-.28.48,0Z"/><path class="cls-98" d="M30.15,34.57h.24c-1.07.88-2.03,1.41-3.12,2.16-.1-.97,1.98-2.51,2.88-2.16Z"/><path class="cls-147" d="M24.15,39.84c-.78.75-1.75,1.53-2.4,2.16h-.24c.48-.64,2.17-1.69,2.4-2.4l.24.24Z"/><path class="cls-13" d="M34.47,77.25c-.99-.69-2.07-1.5-2.88-2.4,1,.51,2.48,1.29,2.88,2.4Z"/><path class="cls-85" d="M80.04,75.57l.25-2.04c.08-.7-.2-1.36-.25-2.04.07-.21.15-.21.24,0,.09,1.11.75,3.21-.24,4.08Z"/><path class="cls-192" d="M54.62,7.47c.21.07.21.15,0,.24-.89.09-2.53.4-3.36.72h-.24c-.14-.75.37-.41.82-.48.86-.14,1.96-.41,2.78-.47Z"/><path class="cls-148" d="M3.77,51.11c.1.89.37,2.32.72,3.12.21.07.21.15,0,.24-.49-.89-1.08-2.37-1.2-3.36.07-.21.15-.21.24,0,.08-.21.16-.2.24,0Z"/><path class="cls-52" d="M41.91,30.97c-1.22.87-1.85,1.05-3.12,1.68.72-.92,2.14-1.19,3.12-1.68Z"/><path class="cls-177" d="M62.05,17.3c.07-.17.15-.16.24,0-.97.49-1.86,1-2.88,1.44v-.24l2.64-1.2Z"/><path class="cls-136" d="M16.72,48.47c-.47.8-1.36,2-1.68,2.64h-.24c-.21-.07-.2-.15,0-.24.33-.63,1.26-1.67,1.68-2.4.07-.21.15-.21.24,0Z"/><path class="cls-114" d="M72.85,27.85c-.14-.17-.57-.31-.72-.48-.57-.02-.73-.18-.48-.48-.58-.14-.82-.38-.72-.72-.15-.19-.2-.48-.24-.72h.24c.73.77,1.31,1.62,1.92,2.4Z"/><path class="cls-128" d="M36.87,30.01c.14.07.14.15,0,.24-.89.54-1.76,1.12-2.64,1.68v-.24c-.21-.05-.2-.14,0-.24.48-.46,1.97-1.1,2.64-1.44Z"/><path class="cls-144" d="M62.29,8.91c.14.07.14.15,0,.24-.78-.07-1.52-.47-2.22-.79-.35-.16-.79-.03-.66-.65.46.09,2.33.93,2.88,1.2Z"/><path class="cls-163" d="M70.93,25.45h-.24c-.22-.17-.52-.3-.72-.48-.51-.47-.91-1.35-1.2-1.68.81.73,1.42,1.37,2.16,2.16Z"/><path class="cls-45" d="M46.94,28.33v.24c.19.61-.18.83-.72.48.21.67-.52,1.02-.96.48-.36.14-.81.2-1.2.24.96-.5,1.92-.95,2.88-1.44Z"/><path class="cls-134" d="M64.69,10.82h-.24c-.44-.79-1.29-1.26-2.16-1.44.03-.04-.02-.16,0-.24v-.24c1.59.77,1.37.67,2.4,1.92Z"/><path class="cls-156" d="M51.98,22.58c-.76.43-1.45.99-2.4,1.44-.35.09-.42.09-.24-.24-.02-.08.03-.18,0-.24.99-.03,1.83-.7,2.64-1.2.16.07.15.15,0,.24Z"/><path class="cls-21" d="M66.13,14.66c-.22,1.1-1.12,1.2-1.92,1.68h-.24c-.21-.07-.21-.15,0-.24.94-.35,1.58-.87,2.16-1.68.11.07.11.15,0,.24Z"/><path class="cls-37" d="M51.02,8.43h.24c-1.52.58-1.11.08-2.4.24v-.24c.72-.12,1.44-.19,2.16,0Z"/><path class="cls-92" d="M13.36,55.43c-.54,1.12-.82,1.59-1.92,2.16.42-.68,1.35-1.48,1.68-2.16h.24Z"/><path class="cls-144" d="M49.34,23.77c.02.06.19.15.24.24-.82.38-1.74.8-2.64.96.74-.36,1.49-1.1,2.4-1.2Z"/><path class="cls-107" d="M80.04,67.18c-.07.21-.15.21-.24,0,0-.56-.03-1.12,0-1.68-.54-.05-.35-.38,0-.72-.39-.18-.31-.5.24-.96h.24c-.15,1.19-.21,2.15-.24,3.36Z"/><path class="cls-2" d="M40.95,11.06c.16-.02.32.01.48,0,.31.63-.39,1.1-.96.72.15.61-.04.69-.48.24-.08.21-.16.21-.24,0l-.24-.24v-.24c.52-.21.82-.41,1.44-.48Z"/><path class="cls-91" d="M21.76,42c-.64.62-1.28,1.29-1.92,1.92.08-.12.08-.47.24-.72-.2-.21-.04-.37.48-.48-.31-.61.19-.69.72-.72.07.02.16-.01.24,0h.24Z"/><path class="cls-157" d="M20.56,22.1c-.46.3-1.13,1.13-1.92,1.68.81-.85,1.08-1.02,1.92-1.68Z"/><path class="cls-99" d="M77.65,34.81c-.33-.48-1.51-.93-1.44-1.92-.14-.07-.13-.15,0-.24.52.71.97,1.41,1.44,2.16Z"/><path class="cls-28" d="M23.2,44.88v-.24c.57-.57,1.08-1.12,1.68-1.68-.68.98-.91,1.1-1.68,1.92Z"/><path class="cls-181" d="M23.2,44.88c-.55.59-1.13,1.11-1.68,1.68.13-.88,1.12-1.35,1.68-1.92v.24Z"/><path class="cls-105" d="M82.68,52.55c-.47-.92-.21-2.28-.24-3.36.37.83.33,2.41.24,3.36Z"/><path class="cls-178" d="M64.45,19.7c-.07.13-.15.12-.24,0-.83,0-1.44.32-2.16.72h-.24c.65-.66,1.83-1.41,2.64-.72Z"/><path class="cls-70" d="M58.22,82.05c-.81.53-2.13.12-3.12.24,1.01-.1,2.05-.18,3.12-.24Z"/><path class="cls-145" d="M3.29,46.32c.63.29.67.46,0,.72.59.29.59.53,0,.72.67.39.66,1.05,0,1.44-.2-1.13-.29-1.9-.24-3.12h.24c.21.08.21.16,0,.24Z"/><path class="cls-152" d="M18.88,50.39c.26-1.09.65-1.37,1.2-2.16-.39.6-.68,1.37-1.2,2.16Z"/><path class="cls-164" d="M63.97,16.34h.24c-.75.45-1.21.61-1.92.96h-.24v-.24c.46-.02.8-.32,1.2-.48.2-.6.31-.85.72-.24Z"/><path class="cls-41" d="M38.79,29.05c-.59.35-1.29.81-1.92,1.2v-.24c-.01-.08.02-.16,0-.24-.03-.65.28-.69.72-.24.13-.53.29-.61.48-.24.11-.43.16-.6.48-.24.07-.03.17.03.24,0Z"/><path class="cls-125" d="M18.4,59.5c-.41-.67-1-1.3-.96-2.16.41.81.63,1.47.96,2.16Z"/><path class="cls-19" d="M20.08,62.62c-.44-.6-.89-1.24-1.2-1.92.07-.15.15-.14.24,0,.36.59,1.08,1.05.96,1.92Z"/><path class="cls-51" d="M17.44,24.73c-.75.78-.88.84-1.68,1.44.35-.82,1.13-1.05,1.68-1.44Z"/><path class="cls-39" d="M57.5,19.7c-.47.32-1.09.98-1.68,1.2.02-.89,1.07-.93,1.68-1.2Z"/><path class="cls-14" d="M65.89,12.98c-.08-.15-.38-.31-.48-.48-.24.12-.4-.2-.48-.96,0-.16,0-.32,0-.48.38.55,1.08.99.96,1.92Z"/><path class="cls-24" d="M26.31,41.52c-.5.51-.91.95-1.44,1.44.19-.27.12-.55.59-.97.39-.36.64-.32.85-.47Z"/><path class="cls-124" d="M21.28,47.03c-.12.53-1.02.93-1.2,1.2.52-.75.56-.78,1.2-1.44v.24Z"/><path class="cls-38" d="M59.18,18.74c-.31.68-1.12.71-1.68.96.74-.51.75-.57,1.68-.96Z"/><path class="cls-155" d="M24.63,68.62c-.48-.45-.75-.68-1.2-1.2l.12-.24c.64.38.78.94,1.08,1.43Z"/><path class="cls-43" d="M80.04,69.58c-.07.21-.15.21-.24,0-.05-.78-.01-1.61,0-2.4h.24c-.02.77-.05,1.63,0,2.4Z"/><path class="cls-167" d="M53.66,21.62c-.65.41-1.04.6-1.68.96v-.24c-.1-.65-.02-.68.48-.24.11-.41.22-.63.48-.24.02-.18.1-.26.24-.24.16,0,.32.01.48,0Z"/><path class="cls-26" d="M28.23,72.45c-.47-.34-.92-.67-1.2-1.2.37.27,1.13.45,1.44,1.08l-.24.12Z"/><path class="cls-11" d="M32.79,36.48c-.31.76-.91.88-1.44,1.2.25-.76,1.02-.9,1.44-1.2Z"/><path class="cls-66" d="M54.14,82.53c-.64.08-1.92.13-2.4-.24.76.02,1.84-.21,2.4.24Z"/><path class="cls-78" d="M79.8,38.64c-.07.2-.15.2-.24,0-.17-.38-.76-.83-.72-1.44-.14-.07-.14-.15,0-.24.27.54.69,1.04.96,1.68Z"/><path class="cls-98" d="M18.64,45.36c.51-.89.52-.77,1.2-1.44-.53.82-.65.81-1.2,1.44Z"/><path class="cls-127" d="M14.8,27.37c-.09.09-.35.14-.48.24h-.24c.41-.36.65-.77,1.2-1.2l.24.12c-.31.21-.49.61-.72.84Z"/><path class="cls-119" d="M18.16,3.39c-.6-.27-.97-.21-1.44.24.14-.22-.07-.68.6-.74s.64.35.84.5Z"/><path class="cls-31" d="M80.28,71.49h-.24c-.05-.58-.2-1.2-.24-1.92h.24c.04.71.19,1.31.24,1.92Z"/><path class="cls-35" d="M56.78,7.47c.21.07.21.15,0,.24-.04.21-.13.21-.24,0-.63.02-1.31-.06-1.92,0v-.24c.69-.05,1.46,0,2.16,0Z"/><path class="cls-29" d="M79.56,75.81c-.33.96-1.08.58-1.68.72.31-.08,1.36-.54,1.68-.72Z"/><path class="cls-69" d="M16.72,48.47h-.24c.05-.09-.05-.39,0-.48.19-.33.61-.76.96-.96-.24.41-.46.99-.72,1.44Z"/><path class="cls-44" d="M78.6,36.24c-.07.21-.15.21-.24,0-.13-.27-.65-1.34-.72-1.44.29.47.63.84.96,1.44Z"/><path class="cls-5" d="M75.49,76.77c.16,0,.32.02.48,0,.23-.35.43-.45.48,0-.69.08-1.35.21-2.16.24-.21-.07-.21-.15,0-.24.4-.03.8.02,1.2,0Z"/><path class="cls-15" d="M55.34,20.9c-.44.51-1.03.66-1.68.72.82-.52.93-.43,1.68-.72Z"/><path class="cls-129" d="M37.59,79.17c.41-.61,1.13.25,1.68.24l-.24.24c-.44-.17-1.04-.29-1.44-.48Z"/><path class="cls-65" d="M81,59.74c.13-1.13.23-1.09.48-1.92-.15.62-.35,1.31-.48,1.92Z"/><path class="cls-184" d="M68.77,78.21c-.71.35-.67.54-1.68.72.68-.3.81-.45,1.68-.72Z"/><path class="cls-153" d="M80.28,40.32c-.29-.61-.47-1.12-.72-1.68h.24c.21.5.44,1.13.48,1.68Z"/><path class="cls-137" d="M4.97,39.36l-.72,1.44c.21-.98.33-.94.72-1.68.12.07.12.15,0,.24Z"/><path class="cls-53" d="M58.7,7.71c-.38-.04-.81.02-1.2,0-.07.45-.26.43-.48,0-.04.21-.13.2-.24,0v-.24c.6,0,1.52-.19,1.92.24Z"/><path class="cls-76" d="M34.71,35.28c-.31.22-.53.79-1.2.72.37-.27.71-.65,1.2-.96.13.07.12.15,0,.24Z"/><path class="cls-71" d="M28.71,39.6c-.58.54-.51.52-1.2.96.6-.6.54-.52,1.2-.96Z"/><path class="cls-135" d="M3.53,51.11h-.24c-.07-.59.03-1.3,0-1.92.92.03.95,1.4.24,1.92Z"/><path class="cls-175" d="M37.11,33.61c-.24.15-.44.95-1.2.72.41-.31.75-.7,1.2-.96.21.07.21.15,0,.24Z"/><path class="cls-10" d="M43.34,30.25c-.49.25-.95.48-1.44.72.4-.28.62-.87,1.44-.72Z"/><path class="cls-57" d="M18.64,23.77c-.6.63-.59.54-1.2.96.6-.63.59-.54,1.2-.96Z"/><path class="cls-61" d="M70.45,77.73c-.56.17-1.13.31-1.68.48.53-.26.85-.7,1.68-.48Z"/><path class="cls-64" d="M27.51,40.56c-.6.6-.56.53-1.2.96.6-.62.52-.52,1.2-.96Z"/><path class="cls-3" d="M74.53,30.01c-.07.12-.15.11-.24,0-.23-.29-.5-.68-.72-.96v-.24c.3.41.68.76.96,1.2Z"/><path class="cls-72" d="M60.61,81.57c-.43.37-1.13.43-1.68.48.4-.65,1.12-.39,1.68-.48Z"/><path class="cls-81" d="M51.5,82.29c-.83-.04-1.2-.12-1.92-.24.61.02,1.51-.2,1.92.24Z"/><path class="cls-112" d="M62.05,20.42c-.31.17-.66.93-1.44.72.39-.26.73-.59,1.2-.72h.24Z"/><path class="cls-106" d="M21.76,21.38c-.08.16-.16.32-.24.48-.25.11-.77.12-.96.24.33-.26.62-.47.96-.72h.24Z"/><path class="cls-115" d="M38.31,32.89c-.16.61-.9.53-1.2.72v-.24c.42-.25.85-.31,1.2-.48Z"/><path class="cls-75" d="M82.44,48.95c-.4-.3-.4-1.38,0-1.68.06.52-.03,1.13,0,1.68Z"/><path class="cls-23" d="M5.69,38.64c-.18.27-.44.55-.72.72v-.24c.25-.49.59-.73.72-.96.64.05.58.24,0,.48Z"/><path class="cls-30" d="M29.67,38.88c-.31.22-.52.43-.96.72.34-.32.46-.6.96-.96.21.07.21.15,0,.24Z"/><path class="cls-187" d="M76.21,32.65v.24c-.59-.21-.54-.78-.72-1.2.23.32.48.63.72.96Z"/><path class="cls-73" d="M54.62,24.49c-.36.21-.82.49-1.2.72-.16-.07-.16-.15,0-.24.41-.21.87-.32,1.2-.48Z"/><path class="cls-113" d="M15.52,11.06c-.07.21-.15.21-.24,0-.19-.93-.03-.86,0-1.44l.24,1.44Z"/><path class="cls-25" d="M19.12,60.7h-.24c-.18-.4-.32-.86-.48-1.2.23.38.49.81.72,1.2Z"/><path class="cls-68" d="M21.52,64.3c-.05.08.03.34,0,.48-.25-.37-.69-.65-.72-1.2.21.21.63.31.72.72Z"/><path class="cls-87" d="M73.57,28.81v.24c-.39-.49-.58-1.03-.72-1.2.26.33.47.62.72.96Z"/><path class="cls-86" d="M15.76,11.3c-.02.09.17.66,0,.96h-.23c0-.41-.16-.8-.24-1.2h.24l.24.24Z"/><path class="cls-189" d="M53.42,25.21c-.39.24-.67.32-.96.48h-.24c.34-.17.76-.5,1.2-.72v.24Z"/><path class="cls-46" d="M22.72,65.74v.48c-.21-.27-.62-.49-.96-.96.4.01.65.3.96.48Z"/><path class="cls-20" d="M43.82,81.09c-.47-.09-1.08-.15-1.44-.48.5.08,1.23-.22,1.44.48Z"/><path class="cls-76" d="M62.29,81.09c-.58.21-.72.33-1.44.48.31-.48.92-.51,1.44-.48Z"/><path class="cls-48" d="M81.72,44.16c-.48-.31-.51-.92-.48-1.44.14.47.33.82.48,1.44Z"/><path class="cls-4" d="M81,42c-.41-.26-.49-.75-.48-1.2.22.48.3.73.48,1.2Z"/><path class="cls-79" d="M75.01,30.73v.24c-.22-.29-.5-.68-.72-.96h.24c.15.24.33.47.48.72Z"/><path class="cls-185" d="M33.75,14.42l.24.24c-.36.15-.88.14-1.2.24.16-.16.32-.32.48-.48.14-.03.33.03.48,0Z"/><path class="cls-188" d="M8.08,34.57c-.04-.6.44-.69.72-.96-.33.49-.31.49-.72.96Z"/><path class="cls-171" d="M31.11,33.85c-.21.18-.39.45-.72.72h-.24c-.2-.69.39-1.22.96-.72Z"/><path class="cls-34" d="M25.11,69.58c-.25-.37-.32-.71-.48-.96.25.23,1.14.63.48.96Z"/><path class="cls-176" d="M17.92,46.32c.07-.11.04-.39.23-.61.15-.18.41-.25.49-.35-.18.31-.12.81-.72.96Z"/><path class="cls-104" d="M30.15,73.89c-.32-.19-.57-.36-.72-.72.3.16.74.14.95.6l-.24.12Z"/><path class="cls-151" d="M46.46,25.21c-.18.42-.59.55-.96.72v-.24c.32-.15.63-.32.96-.48Z"/><path class="cls-123" d="M31.59,74.61v.24c-.35-.18-.79-.13-.96-.72.32.15.69.36.96.48Z"/><path class="cls-22" d="M35.67,34.57c-.4.33-.53.42-.96.72v-.24c.31-.2.56-.46.96-.48Z"/><path class="cls-103" d="M17.92,52.07c-.07.21-.15.21-.24,0,.19-.39.51-.64.72-.96.22.6-.4.8-.48.96Z"/><path class="cls-36" d="M77.17,76.53c.22,0,.55.04.72,0-.62.15-.82.17-1.44.24-.25-.3-.12-.42.24-.24.29-.22.45-.22.48,0Z"/><path class="cls-90" d="M74.29,76.77v.24c-.48.02-.96-.01-1.44,0,.59-.14.75-.19,1.44-.24Z"/><path class="cls-169" d="M17.92,52.07c-.21.39,0,1.14-.72.96.1-.31.33-.65.48-.96h.24Z"/><path class="cls-146" d="M6.88,36c.17-.23.3-.49.48-.72l.24.12c-.02.38-.35.59-.6.83l-.12-.24Z"/><path class="cls-82" d="M81.96,56.39c-.62-.44-.1-1.07,0-1.44-.04.46.06.99,0,1.44Z"/><path class="cls-16" d="M8.8,57.59h1.44s-.24.24-.24.24c-.58-.06-.69-.11-1.2-.24Z"/><path class="cls-83" d="M18.4,6.03c-.07.11-.15.11-.24,0,.29-.39.27-.48.72-.96-.02.39-.28.65-.48.96Z"/><path class="cls-180" d="M18.4,6.03c-.22.34-.41.69-.72.96v-.24c.2-.32.24-.4.48-.72h.24Z"/><path class="cls-12" d="M80.76,61.18c.05-.69.12-.88.24-1.44-.07.6-.16.96-.24,1.44Z"/><path class="cls-166" d="M48.14,81.81c.21.07.21.15,0,.24-.28-.04-1.02-.26-1.2-.48.57.05.79.17,1.2.24Z"/><path class="cls-49" d="M15.28,9.15c.06-.45-.17-1.04.24-1.44-.03.45.18,1.18-.24,1.44Z"/><path class="cls-9" d="M49.58,82.05c-.46-.01-1.01.06-1.44,0v-.24c.47.08,1.01.17,1.44.24Z"/><path class="cls-162" d="M80.52,62.62c.07-.5.17-1,.24-1.44-.03.45.18,1.17-.24,1.44Z"/><path class="cls-95" d="M8.8,33.61c.32-.48.4-.55.72-.96.04.6-.44.69-.72.96Z"/><path class="cls-50" d="M30.63,38.16c-.12.59-.72.55-.96.72v-.24c.36-.26.73-.33.96-.48Z"/><path class="cls-133" d="M72.85,77.01c-.41.1-.94.17-1.2.24.29-.38.79-.23,1.2-.24Z"/><path class="cls-122" d="M81.48,57.83c.09-.31-.2-.92.24-1.2-.09.46-.12.72-.24,1.2Z"/><path class="cls-6" d="M82.2,47.03c-.36-.29-.25-.78-.24-1.2.08.4.17.69.24,1.2Z"/><path class="cls-141" d="M66.13,14.66c.02-.07,0-.16,0-.24.02-.32-.01-.64,0-.96.14.35.58.83,0,1.2Z"/><path class="cls-120" d="M64.69,79.89c-.29.13-.56.31-.96.48.14-.44.52-.52.96-.48Z"/><path class="cls-138" d="M75.49,31.69c-.19-.26-.37-.57-.48-.72v-.24c.24.42.29.53.48.96Z"/><path class="cls-67" d="M82.2,53.99c0-.41-.12-.91.24-1.2-.07.53-.13.73-.24,1.2Z"/><path class="cls-58" d="M46.94,81.33s-.04.19,0,.24c-.38-.04-.99.17-1.2-.24.4,0,.8,0,1.2,0Z"/><path class="cls-172" d="M65.17,20.18c-.31-.13-.75-.06-.96-.48.08,0,.17-.01.24,0,.59.11.43.22.72.48Z"/><path class="cls-185" d="M35.43,13.7v.24c-.09.08-.17.15-.24.24-.23.02-.49-.03-.72,0,.19-.43.72-.34.96-.48Z"/><path class="cls-80" d="M78.84,36.96v.24c-.57-.14-.37-.73-.48-.96h.24c.08.15.11.47.24.72Z"/><path class="cls-139" d="M67.09,78.93c-.29.13-.63.33-.96.48-.15-.78.4-.38.96-.48Z"/><path class="cls-102" d="M71.65,26.89c.16.16.3.27.48.48-1.57.4-2.18-.65-3.3-1.14-.64-.28-4.45-1.97-4.7-1.97-1.31.02-1.69.93-2.72,1.37-1.12.49-2.27.77-3.5,1.3-2.72,1.17-5.99,2.86-8.75,3.72-1.35.42-3.45.6-3.89-1.14.12-.05.81-.4.96-.48l.48-.08c.79.76,1.83.85,3.1.25,4.66-2.06,9.34-4.08,14.04-6.06,2.67.92,5.27,2.17,7.8,3.73Z"/><path class="cls-84" d="M33.51,18.74c-.8,3.07-.55,6.26,0,9.35-3.13-1.71-6.87-1.47-10.31-1.92l1.25-5.47c1.06-.77,8.5-2.45,9.07-1.96Z"/><path class="cls-84" d="M42.14,10.82l7.45.59c.32.22.18.34.13.61-.16.84-.86,2.43-.86,3.23v3.96c-2.7-1.49-5.63-2.63-8.64-3.36-1.02-.36-1.03-.52-.73-1.47.69-.85.89-1.62.97-2.61.29-.2.68-.58.96-.72.17-.08.47-.13.72-.24Z"/><path class="cls-63" d="M33.75,31.69c-.87.74-1.77,1.41-2.64,2.16-.41.27-.7.55-.96.72-1.1.74-1.85,1.24-2.88,2.16-.07.05-.36.07-.6.23-.97.63-1.81,1.74-2.76,2.41-.04-.49-.65-1.71-.8-2.44-.19-.91-.34-1.65-.4-2.6-.23-1.15-.21-2.46,0-3.6,0-.18.04-.47.16-.48,1.53-.18,5.84-.19,7.35,0l.28.48c.01-.12.04-.23.1-.31.18-.26,3.02.74,3.14,1.27Z"/><path class="cls-84" d="M19.84,31.69c.1,2.52.4,5.02,1.2,7.43-2.77-.58-5.52-.84-8.36-.75-.82-2.1-.83-3.57-.27-5.72.5-.08.75.22.75.91,1.23-.24,2.42-.8,3.55-1.68.81-.46,2.7-1.26,3.14-.19Z"/><path class="cls-63" d="M12.16,45.12c.38.98,1.31,1.96,1.2,3.12-3.12-.15-6.51.91-9.2,2.44-.22.13-.31.39-.39.44-.05.03-.16-.02-.24,0,.19-.74-.14-1.39-.24-1.92-.02-.48,0-.96,0-1.44.13-.26.45-.35.95-.28,1.91-.76,3.81-1.57,5.7-2.43.98-.4,1.72-.38,2.23.07Z"/><path class="cls-56" d="M34.23,31.45s.02.16,0,.24c-.16-.02-.33.02-.48,0-.83-.14-2.87-.96-3.24-.96h-7.8c.06,1.19-.08,2.41,0,3.6-.4-.25-.24-.91-.24-1.32,0-.67-.18-4.07.4-4.21,3.96.39,7.99.26,11.35,2.65Z"/><path class="cls-140" d="M14.8,50.87c-.03.06.03.18,0,.24-.15.29-.4.55-.48.72l-.62.51c-2.82.15-5.36,1.37-7.56,3.09h-.46c-.21-.21-1.14-.84-1.2-.96-.03-.06.03-.17,0-.24.75-1.73,3.37-2.53,5.09-2.95s3.38-.49,5.22-.41Z"/><path class="cls-42" d="M11.68,43.68l-.16.37c-2.44.42-4.69,1.31-6.76,2.69-.6.18-1.39.32-1.48-.42,0-.08,0-.16,0-.24s0-.16,0-.24c1.58-1.1,5.6-3.92,7.42-3.98.67-.02.8,1.33.97,1.82Z"/><path class="cls-154" d="M19.84,30.97c0,.24,0,.48,0,.72-2.04-.74-4.72,2.19-6.18,2.35-1.32.15-.81-.61-1.26-1.39.18-.68.11-.59.48-1.2.48-.21,1.08-.27,1.81-.17l2.78-.79c1.31-.43,2.1-.26,2.36.49Z"/><path class="cls-110" d="M37.59,18.26c-1.4,2.78-.55,7.58.25,10.67.05.25-.02.46-.25.6-.23.11-.45.22-.72.24-.31-1.57-1.01-3-1.17-4.71-.13-1.4-.08-5.39.58-6.55.54-.93,1-.27,1.31-.25Z"/><path class="cls-17" d="M12.88,31.45c.13-.21.18-.53.37-.7.65-.61,5.14-1.39,6.23-1.46.63-.04.34,1.18.36,1.68-2.27-.9-4.81,1.73-6.96.48Z"/><path class="cls-8" d="M21.28,42c-.1.4-.5.51-.72.72-1.31.28-2.71.31-4.2.11-.85.2-1.53.16-2.04-.11-.16-.42-.82-1.02-.72-1.68,2.63-.22,5.15.3,7.67.96Z"/><path class="cls-55" d="M52.7,12.74l.33.44c-.25,2.87-.36,5.75-.33,8.64l-.24.28c-.14.1-.33.15-.48.24-.84-3.18-.64-6.68.24-9.83.45-.13.39.19.48.24Z"/><path class="cls-161" d="M37.59,18.26c.53.03,1.34-.2,1.68.24-.23-.02-.49-.01-.72,0-.17.31-.36.47-.58.46-.41-.32-.39,8.77.31,9.96l-.22.38c-.16.06-.32.17-.48.24.11-.54-.05-.86-.23-1.33-.56-1.46-.98-6.21-.87-7.93.03-.54.15-2.36,1.1-2.01Z"/><path class="cls-179" d="M11.68,43.68c.09.24.14.47.24.72l-.24.34c-2.38.49-4.66,1.36-6.86,2.61-.87.32-1.38.22-1.54-.31,0-.24-.01-.48,0-.72,1.67.75,2.99-1.1,4.43-1.68,1.27-.51,2.66-.6,3.96-.95Z"/><path class="cls-54" d="M11.92,44.4c.11.29.16.53.24.72-3.29-.35-5.64,2.84-8.88,2.64,0-.24,0-.48,0-.72.4.3.75.24,1.21.14,1.12-.24,2.69-1.55,4-2.01,1.11-.39,2.24-.71,3.43-.77Z"/><path class="cls-96" d="M20.8,24.01c-.49,1.44-1.7,2.4-3.12,2.88-.58.11-1.12.15-1.68.24l5.28-4.8c-.17.51-.34,1.15-.48,1.68Z"/><path class="cls-131" d="M53.42,13.22l.22.4c-.34,2.71-.57,5.46-.7,8.23-.09.09-.34.14-.48.24l.24-9.35c.25.15.47.33.72.48Z"/><path class="cls-59" d="M20.56,42.72c-.1.1-.46.45-.48.48-1.3.06-2.64-.1-3.93.03-.59.06-1.64.04-1.35.93-.22-.55-.31-1-.48-1.44,2.01-.73,4.18.23,6.24,0Z"/><path class="cls-170" d="M54.14,13.7c-.73-.13-.46.37-.48.83-.11,2.36-.23,4.74-.48,7.09-.03.13-.17.17-.24.24.05-2.88-.21-5.81.48-8.63.34.2.48.33.72.48Z"/><path class="cls-8" d="M57.02,7.71c.73.86-1.37,2.58-2.16,3.12-.45-.3-1.07-.39-1.43-.84l3.11-2.28c.08,0,.16,0,.24,0s.16,0,.24,0Z"/><path class="cls-101" d="M17.68,26.89l3.12-2.88c-.16.61-.07,2.03-.57,2.42-.79.35-1.71.29-2.54.45Z"/><path class="cls-183" d="M40.47,11.78c1.14,1.62-1.71,2.97-.24,4.08-.37-.09-1.02-.17-1.44-.24-.36-.1-.63-.26-.54-.62l1.74-2.98c.18-.14.37-.16.48-.24Z"/><path class="cls-132" d="M38.79,15.62c-.37-.06-1.37.26-1.19-.35.13-.45,1.78-2.92,2.15-3.25.05-.04.19.04.24,0,.4,1.47-1.7,2.18-1.2,3.6Z"/><path class="cls-142" d="M57.5,7.71c.6,1.66-2.62,2.44-1.44,3.84-.26-.19-.8-.46-1.2-.72.26-1.28,2.16-1.73,2.16-3.12.16,0,.32,0,.48,0Z"/><path class="cls-186" d="M32.79,14.9c-.23.25-.43.53-.72.72-.24,0-.48.01-.72,0-.34-.18,1.17-.63,1.44-.72Z"/><path class="cls-54" d="M38.55,18.5c-.75,1.34-.18,2.67-.22,3.96-.02.52-.27,1.01-.27,1.45,0,1.75-.1,3.48.49,5.14-.16.07-.32.18-.48.24.11-1.02-.69-1.78-.73-2.77-.02-.43.22-.84.21-1.19-.11-2.24-.5-4.59.08-6.81.3-.09.62,0,.93-.03Z"/><path class="cls-182" d="M14.32,51.83c-.13.26-.11.7-.24.96-3.09,0-5.51,1.35-7.92,3.12-.22-.18-.31-.31-.48-.48,2.42-2.36,5.29-3.38,8.64-3.6Z"/><path class="cls-168" d="M70.93,26.17c.09.12.53.53.72.72-.46.05-.81-.17-1.2-.35-1.58-.71-5.16-3.1-6.58-3.01-.51.03-1.2.29-1.69.48-3.14,1.24-6.35,3.13-9.5,4.41-1.89.77-5.01,2.53-6.44.63.21-.12.41-.43.72-.48.17.38.41.66.85.72,1.68.26,10.64-4.29,12.99-5.23.88-.36,1.84-1.14,2.85-1.24,2.11-.22,5.21,2.8,7.29,3.35Z"/><path class="cls-116" d="M80.04,63.82c.09.35-.21.72-.24.96-1.62,2.24-1.92,4.94-.9,8.1.12,1.51-.89,3.01-2.22,3.65-.08.07-.2.23-.24.24-.11.04-.33-.02-.48,0,.34-1.28,1.97-1.69,2.11-3.05-.64-3.36-2.2-8.27,1.97-9.9Z"/><path class="cls-100" d="M79.8,65.5c-2.97,3.29,1.87,8.24-2.64,11.03h-.48c.45-.38,1.74-2.02,1.87-2.57.28-1.26-.29-2.01-.4-3.09-.23-2.23-.69-4.88,1.65-6.09-.03.23.01.48,0,.72Z"/><path class="cls-108" d="M5.69,38.64c.06-.08-.06-.4,0-.48.33-.48,1.3-.41,1.81-.71.8-.46.92-1.76,1.79-2.17-.09.41.1.99-.05,1.5-.31,1.04-2.4,2.65-3.55,1.85Z"/><path class="cls-74" d="M65.41,12.5c-.04,1.38-1.52,2.15-1.44,3.6v.24c-.27,0-.48.14-.72.24-.01-2.08,1.67-2.99,1.68-5.04.43.18.34.73.48.96Z"/><path class="cls-27" d="M18.4,4.11c-.51,1.66-1.47,2.48-2.64,3.6.05-1.5,1.78-2.61,2.16-4.08.18-.12.37.39.48.48Z"/></g></svg>