<?xml version="1.0" encoding="UTF-8"?><svg id="Layer_2" xmlns="http://www.w3.org/2000/svg" viewBox="0 0 68.69 69.22"><defs><style>.cls-1{fill:#010101;}.cls-2{fill:#f2c9c5;}.cls-3{fill:#eed8d6;}.cls-4{fill:#f7aaa2;}.cls-5{fill:#f0d2cf;}.cls-6{fill:#f2eeed;}.cls-7{fill:#eedad8;}.cls-8{fill:#f4c3be;}.cls-9{fill:#f6bbb6;}.cls-10{fill:#efcfcc;}.cls-11{fill:#f2cbc7;}.cls-12{fill:#f0d1ce;}.cls-13{fill:#f0d4d1;}.cls-14{fill:#f7b0a9;}.cls-15{fill:#f4c1bc;}.cls-16{fill:#f4c2be;}.cls-17{fill:#f0d0cd;}.cls-18{fill:#010000;}.cls-19{fill:#f6bab4;}.cls-20{fill:#f1ccc9;}.cls-21{fill:#fcf9f9;}.cls-22{fill:#f5bcb7;}.cls-23{fill:#f1cfcb;}.cls-24{fill:#f2cac6;}.cls-25{fill:#fdfdfd;}.cls-26{fill:#f3c7c2;}.cls-27{fill:#f2ccc8;}</style></defs><g id="Layer_2-2"><path d="M13.57,26.72c.36-1.29,1.12-2.41,1.59-3.65.25-.66.39-1.38.47-2.08.09-.82.39-1.56.77-2.27.18-.34.13-.56-.1-.81-.94-1.04-1.72-2.18-2.43-3.38-.91-1.53-1.59-3.18-2.22-4.84-.72-1.9-1.03-3.87-1.05-5.9-.01-1.09.4-2.03,1.05-2.88.71-.93,2.7-1.37,4.05-.17,1.18,1.05,2.17,2.27,3.1,3.55.97,1.34,1.86,2.72,2.59,4.2.63,1.28,1.07,2.64,1.36,4.04.15.73.17.71.91.55.91-.2,1.83-.36,2.77-.36,1.26,0,2.53-.13,3.79-.1,1.92.05,3.84.21,5.68.82.39.13.42-.14.47-.34.19-.77.6-1.45.87-2.18.46-1.3,1.28-2.38,2.04-3.5.81-1.19,1.53-2.46,2.54-3.5,1.17-1.21,2.51-2.21,3.92-3.08.88-.54,1.6-.31,2.18.64.27.45.34.94.42,1.46.38,2.72.42,5.42-.3,8.11-.63,2.35-1.49,4.61-2.35,6.88-.23.61-.43,1.24-.73,1.83-.1.19-.12.35,0,.56.79,1.29,1.12,2.73,1.34,4.2.03.24.08.46.14.7.15.64.14.64.76.38,1.74-.73,3.5-1.41,5.36-1.78.11-.02.22-.04.32-.06.27-.05.5.02.55.31.05.29-.13.43-.41.48-1.39.25-2.73.69-4.05,1.2-.68.27-1.35.57-2.03.83-.3.12-.43.31-.42.62.01.53,0,1.06.01,1.6,0,.07-.02.17.02.22.52.66.73,1.46,1.03,2.22.08.2.23.23.44.21,1.55-.17,3.1-.32,4.65-.48.07,0,.15,0,.22-.02.28-.03.49.09.52.37.03.29-.17.42-.44.44-.99.09-1.97.18-2.96.27-.57.05-1.13.16-1.7.18-.43.02-.58.15-.59.6,0,.76-.36,1.45-.66,2.13-.21.48-.42.97-.67,1.43-.22.4-.12.9-.02,1.34.36,1.58,1.1,3.02,1.74,4.48.61,1.38,1.21,2.78,2.04,4.05,1.57,2.39,3.37,4.6,5.32,6.69.4.43.74.91,1.23,1.29.6-1.39,1.85-1.78,3.16-2.03,2.13-.41,3.33.57,3.88,2.44.07.25.23.38.44.52.77.48,1.58.94,2.02,1.8.07.13.19.25.2.39.09,1.07.79,1.75,1.43,2.52,1.03,1.22,1.13,2.88.36,4.14-.44.72-1.06,1.2-1.94,1.26-1.81.13-3.59.16-5.19-.92-.24-.16-.42-.06-.57.12-1.71,2.14-4.1,3.06-6.67,3.55-2.1.4-4.19.9-6.32,1.08-1.11.09-2.22.3-3.33-.05-.07-.02-.16-.01-.21-.06-.52-.47-1.1-.35-1.68-.17-.7.22-1.42.16-2.12.14-2.81-.07-5.61.05-8.41.07-4.14.02-8.29.03-12.43-.02-1.81-.02-3.62.09-5.43.09-.55,0-1.11,0-1.64-.1-.98-.2-1.74-1.23-1.84-2.41-.07-.8.04-1.61.53-2.25.39-.51.4-1.03.36-1.59-.18-2.54.53-4.81,1.98-6.9,1.15-1.66,2.35-3.31,2.76-5.36.01-.07.05-.14.05-.21.03-.8.01-1.61.09-2.41.13-1.35-.48-2.51-.83-3.75-.58-2.02-.85-4.08-.53-6.18.06-.42.23-.82.48-1.15.38-.5-.18-.62-.34-.87-.17-.27-.33.06-.46.16-3.08,2.59-5.88,5.48-8.56,8.48-.12.14-.25.27-.37.41-.2.22-.42.4-.69.14-.25-.24-.11-.46.08-.67.49-.54.98-1.1,1.47-1.64,2.4-2.61,4.89-5.12,7.61-7.4.29-.25.35-.47.15-.8-.3-.51-.47-1.08-.63-1.63-.15-.49-.35-.64-.87-.44-1.46.55-2.89,1.15-4.28,1.86-.28.14-.55.28-.83.43-.24.13-.47.16-.62-.11-.16-.28,0-.48.26-.62,1.28-.68,2.58-1.3,3.93-1.84.51-.2,1.03-.39,1.54-.57.25-.09.41-.22.42-.51.02-.55.05-1.1.09-1.65.04-.44-.12-.58-.58-.6-3.11-.16-6.15.23-9.16.95-.93.22-1.85.46-2.77.69-.27.07-.58.15-.69-.22-.11-.4.19-.49.49-.57,3.73-.98,7.49-1.8,11.38-1.7.02,0,.03.02.05.02.45,0,1.01.21,1.3-.08.28-.27.2-.84.32-1.27Z"/><path class="cls-7" d="M44.3,32.78c.61-.12,1.22-.23,1.83-.35.41-.08.26.21.22.36-.2.93-.53,1.82-1.04,2.63-.4.63-.81,1.27-1.21,1.9-.1.16-.23.33-.07.5.18.2.34-.02.48-.1.58-.32.57-.33.71.34.27,1.24.76,2.4,1.29,3.55.63,1.36,1.26,2.72,1.88,4.08.24.54.54,1.04.87,1.52,1.93,2.89,4.13,5.56,6.63,7.97.83.8,1.63,1.62,2.32,2.54.96,1.28,1.17,2.77,1.34,4.32.17,1.55-.6,2.39-1.73,3.12-1.24.8-2.65,1.11-4.06,1.44-2.43.56-4.89.91-7.35,1.29-.49.07-.99.05-1.48.03-.37-.01-.63-.18-.75-.59-.19-.64.03-1.45.5-1.91.5-.49,1.13-.81,1.63-1.3.63-.62.87-1.36.67-2.24-.05-.23-.16-.36-.41-.34-.27.02-.31.21-.31.43.01.89-.45,1.47-1.2,1.88-.21.11-.4.26-.62.36-1.14.5-1.54,1.47-1.55,2.62,0,.43-.17.59-.53.65-.92.17-1.85.27-2.78.24-1.87-.07-3.73-.06-5.6-.02-2.04.04-4.08-.05-6.11.03-3.98.14-7.96.06-11.93.07-.95,0-1.9.12-2.86.04-.94-.07-1.42-.5-1.46-1.47-.04-1.09.53-1.87,1.32-2.52.6-.49,1.31-.8,1.96-1.2.17-.1.45-.18.36-.47-.09-.27-.36-.23-.57-.21-.59.06-1.14.26-1.65.55-.43.24-.56.17-.57-.32-.02-2.12.66-4,1.87-5.72,1.33-1.89,2.7-3.77,3.04-6.17.08-.55-.03-1.1.05-1.64.03-.19-.07-.47.14-.55.23-.09.31.2.43.35,1.69,2.24,3.48,4.4,5.32,6.51,1.46,1.68,3.07,3.21,4.96,4.39,1.21.76,2.59.9,3.94.35,1.12-.46,1.56-1.44,1.62-2.59.03-.49-.03-.99-.17-1.47-.06-.21-.13-.44-.43-.4-.27.04-.34.26-.37.48-.05.36-.07.73-.11,1.09-.02.16-.05.33-.11.48-.56,1.4-.96,1.52-2.59,1.3-1.28-.17-2.18-1.07-3.12-1.85-2.15-1.77-3.79-4.01-5.54-6.15-1-1.22-1.99-2.44-2.98-3.67-1.69-2.08-2.39-4.49-2.42-7.13,0-.58-.05-1.17.11-1.75.11-.4.4-.55.75-.36,1.17.63,2.48.84,3.73,1.22.38.12.73.33,1.16.46-.03-.33-.27-.45-.46-.59-.55-.41-1.18-.66-1.8-.93-1.3-.56-2.37-1.4-3.24-2.53-.29-.37-.13-.55.07-.77.14-.16.35-.26.53-.38.31-.14.43.11.56.3.29.43.6.83.99,1.18.19.17.41.32.64.21.79-.37,1.39.1,2,.43,1,.55,1.67.35,2.07-.74.26-.69.44-1.4.27-2.15-.08-.34-.09-.71-.02-1.04.15-.76-.03-1.44-.34-2.11-.1-.21-.24-.36-.38-.53-.28-.34-.46-.7-.27-1.15.23-.09.37.1.54.19.56.3,1.01.21,1.37-.34.65-1.01.79-2.15.69-3.32-.06-.76-.21-1.52-.65-2.18-.49-.74-1.24-.75-1.72-.02-.6.91-.69,1.95-.71,3,0,.15,0,.29,0,.44-.11.6-.31.67-.78.29-.11-.09-.21-.2-.31-.31-.44-.48-.59-.48-1.05,0-.48.5-.76.52-1.22,0-.21-.24-.39-.35-.7-.16-.3.18-.56.04-.78-.19-.15-.16-.29-.37-.55-.2-.24.15-.33.38-.3.66.03.22.13.42.15.64.05.53-.25.8-.77.68-.2-.05-.38-.13-.58-.18-.25-.07-.31-.23-.2-.46.11-.62.38-1.18.68-1.72.77-1.34,1.13-2.81,1.39-4.31.28-1.6,1.03-2.95,2.2-4.07,1.26-1.2,2.79-1.94,4.35-2.62.79-.34,1.67-.36,2.53-.42,2.32-.15,4.64-.29,6.97.03,1.78.24,3.52.58,5.2,1.22.09.03.18.13.28,0,.07-.1.07-.2.04-.31-.09-.28-.3-.46-.52-.62-.29-.21-.36-.42-.26-.79.48-1.88,1.28-3.61,2.41-5.19.71-1,1.35-2.05,2.11-3.01,1.12-1.43,2.63-2.42,4.13-3.41.31-.2.49-.09.55.24.32,1.86.66,3.71.44,5.61-.14,1.22-.24,2.46-.61,3.61-.49,1.5-.95,3.02-1.62,4.47-.56,1.19-1.08,2.4-1.6,3.62-.18.42-.2.82.13,1.22.91,1.11,1.12,2.46,1.26,3.83.06.56.05,1.13.09,1.7.02.27-.03.43-.31.55-.42.17-.81.41-1.22.62-.24.13-.33-.07-.43-.21-.15-.21-.32-.4-.51-.57-.47-.41-.75-.45-1.28-.11-.31.2-.63.29-.98.26-.66-.05-1.31.1-1.97.04-.56-.04-1.05.22-1.5.56-.36.28-.73.64-1.27.48-.16-.52.12-1,.16-1.5.09-1.17,0-2.31-.62-3.34-.5-.84-1.28-.82-1.81.01-.31.49-.47,1.03-.53,1.6-.03.26-.06.51-.15.75-.1.28-.14.56.02.84.18.41.14.86.28,1.28.24.76.61,1.37,1.43,1.59.16.28-.04.44-.22.59-.26.21-.49.44-.64.74-.16,1.3-.13,2.54.82,3.61.53.6.77,1.42,1.42,1.94.2.16.39.34.64.4.32.08.55.03.54-.38,0-.17.03-.33.11-.48.15-.31.43-.42.66-.18.39.4,1.01.34,1.37.77.13.16.31.05.41-.11.23-.36.49-.33.84-.15.59.31.78.24,1.18-.33.21-.29.44-.55.77-.68,1-.4,1.75-1.04,2.14-2.07Z"/><path class="cls-7" d="M16.66,3.57c.29.35.59.69.88,1.04,1.3,1.54,2.21,3.3,2.9,5.18.44,1.22.81,2.46,1.23,3.69.1.28.04.37-.21.49-1.42.7-2.77,1.5-3.81,2.72-.32.38-.58.28-.84-.06-1.64-2.17-2.89-4.54-3.81-7.1-.46-1.28-.89-2.55-1.02-3.9-.1-.99-.31-1.99.03-2.99.4-1.14,1.42-1.75,2.3-1.27.67.36,1.3.81,1.68,1.51.15.29.36.52.66.68Z"/><path class="cls-7" d="M65,64.06c-1.01-.03-2.02-.12-2.9-.67-.63-.39-1.05-.87-1.17-1.71-.35-2.4-1.17-4.63-2.98-6.36-.22-.21-.23-.38-.1-.61.11-.19.2-.4.4-.51,1.07-.59,2.17-.94,3.38-.43.46.2.78.54.86.99.15.85.77,1.28,1.37,1.75.13.1.26.2.41.27.77.38,1.1,1.02,1.17,1.84.05.54.24.98.76,1.3.9.55,1.25,1.44,1.23,2.48-.02.8-.8,1.51-1.78,1.63-.22.03-.44,0-.66,0Z"/><path class="cls-26" d="M41.23,28.95c-.12.14-.23.27-.35.41-.55-.13-1.13-.14-1.38-.85-.13-.36-.53-.49-.93-.27-.19.1-.39.2-.6.27-.26.09-.51.1-.69-.16-.22-.31-.44-.24-.7-.05-.48.36-.86.79-1.14,1.31-.17.31-.17.59.09.85.36.37.52.83.54,1.34.01.33.12.62.46.74.34.12.5-.17.68-.36.36-.39.66-.82,1.1-1.13.35-.25.66-.34.91.11.09.15.22.25.4.25.34,0,.58.17.72.48.6-.4.88-.96,1.08-1.58.24-.38.29-.89.77-1.09.46.41.46,1.19.08,1.85-.46.78-1.03,1.47-1.64,2.12-.47.51-1.32.6-1.89.19-.53-.38-.76-.4-1.18.04-.34.36-.67.41-1.07.17-.31-.18-.52-.09-.67.21-.02.03-.04.06-.06.09-.19.24-.33.58-.72.49-.4-.09-.54-.42-.58-.79-.03-.35-.15-.63-.49-.79-.28-.14-.43-.39-.5-.69-.12-.49-.15-.98-.11-1.47.02-.3.11-.62.41-.73.4-.15.51-.43.57-.79.08-.3.34-.34.58-.4.44-.04.7-.38,1-.63.41-.34.86-.62,1.3-.91.28-.18.54-.16.68.17.17.39.43.4.75.24.53-.26,1.09-.29,1.66-.25.33.02.59.13.48.54-.06.23.04.38.18.54.13.14.32.26.24.51Z"/><path class="cls-23" d="M34.37,29.14c-.02.37.23.86-.49.86-.23,0-.33.29-.36.51-.06.58-.04,1.17.13,1.74.06.22.22.44.47.5.41.1.49.4.49.75,0,.17.02.33.1.48.22.42.47.44.78.08.05-.06.12-.1.14-.16.22-.66.59-.71,1.13-.32.21.16.46.15.6-.13.17-.33.5-.4.81-.51.22-.08.4-.04.51.18.12.23.33.28.58.34.65.16,1.05-.05,1.49-.56.55-.63,1.06-1.29,1.47-2,.28-.5.36-1.12-.02-1.67.29-.29.64-.52,1-.71.25.15.24.39.21.63-.02.18-.02.36.02.54.2.83.22.84,1.04.61.22-.06.44-.08.6.12.15.19.06.37,0,.57-.16.48-.65.61-.97.92-.19.13-.42.1-.63.14-.42.08-.63.27-.46.72-.17.54-.47.99-.95,1.3-.2.13-.39.28-.54.47-.4.53-.84.94-1.58.63-.07-.03-.15-.03-.22,0-.53.24-.91.06-1.23-.39-.1-.14-.26-.2-.44-.2-.41,0-.8-.05-1.19-.17-.38-.11-.57.15-.71.45-.14.29-.18.7-.58.73-.45.03-.63-.38-.84-.7-.27-.41-.52-.84-.82-1.24-.74-1-.74-2.14-.63-3.3.15-.55.8-.69.99-1.2.03-.03.06-.04.09-.02Z"/><path class="cls-15" d="M41.42,30.32c.09.94-.64,1.35-1.28,2.04.1-.64-.12-.84-.57-.79-.22.02-.38-.05-.46-.29-.13-.41-.35-.35-.66-.15-.54.34-.84.9-1.28,1.32-.19.18-.32.42-.63.31-.34-.12-.59-.36-.59-.72,0-.64-.17-1.18-.66-1.62-.2-.18-.18-.46-.07-.67.34-.68.82-1.25,1.46-1.67.22-.14.49-.27.64.09.14.35.37.35.66.21.18-.08.37-.16.55-.25.52-.25,1.07-.07,1.24.47.1.33.17.54.57.45.25-.06.35.24.55.32-.17.83-.09.98.54.96Z"/><path class="cls-12" d="M22.39,28.57c-.02.52.24.89.52,1.32.33.51.75,1.09.65,1.76-.1.7-.06,1.37,0,2.07.08.98-.11,1.95-.81,2.7-.53.57-1,.55-1.65.12-.39-.26-.83-.45-1.26-.65-.19-.09-.39,0-.58.1-.37.18-.69.12-.98-.19-.39-.41-.79-.82-1.05-1.32-.09-.16-.2-.26-.38-.27.22-.24.49-.42.78-.55.3-.03.24.22.27.37.08.35.23.66.42.95.25.39.48.43.8.13.36-.33.68-.69,1.24-.42.08.04.22-.01.24-.09.12-.59.86-.88.76-1.59-.05-.36.25-.53.55-.67.61-.29.67-.48.26-1.04-.2-.28-.24-.54-.15-.87.17-.57-.04-1.15.04-1.73.02-.14-.03-.29.08-.42.25-.03.32.08.25.31Z"/><path class="cls-20" d="M22.17,28.24c.13.59.07,1.2.04,1.77-.03.62-.06,1.1.33,1.63.25.35-.06.66-.43.78-.46.14-.77.33-.61.89.07.26-.1.46-.3.6-.17.12-.32.25-.35.47-.06.51-.32.62-.76.4-.19-.1-.32-.09-.49.06-.3.26-.51.81-.99.61-.58-.25-.72-.87-.85-1.45-.03-.12,0-.26-.13-.34.19-.18.48-.34.28-.66-.22-.35-.48-.15-.75-.04-.4.17-.68.48-1.03.72-.18.06-.29.23-.46.31-.46-.03-.62-.34-.67-.74-.11-.26,0-.6-.31-.79-.19-.76-.19-.75.61-.77.25,0,.61.08.58-.36-.03-.38-.36-.36-.62-.35-.82.04-.82.06-.82-.78,0-.16.02-.33.03-.49.11-.16-.03-.37.1-.53.62.1,1.25.21,1.87.31.05.03.08.07.11.12.34.73.22,1.43-.16,2.1-.14.25-.36.42-.63.51-.2.07-.4.13-.34.4.04.18.04.4.26.45.23.06.39-.12.49-.29.48-.8,1.18-.75,1.93-.55.57.15.69.44.42.97-.05.1-.11.19-.13.3-.01.09-.01.19.07.25.11.08.21.02.3-.04.13-.1.2-.26.3-.39.28-.34.57-.63,1.09-.61.58.01.73-.54.96-.94.16-.27.16-.6.28-.89.45-.57.48-1.24.46-1.93.11-.26-.03-.58.23-.79.07,0,.1.02.09.1Z"/><path class="cls-13" d="M33.29,30.36c0,.62.02,1.24.1,1.86.11.87.77,1.44,1.13,2.17.18.36.42.68.72.96.28.26.47.23.62-.12.05-.12.08-.24.13-.36.28-.67.44-.75,1.13-.53.19.06.39.12.59.1.47-.05.87.01,1.1.5.04.09.15.2.24.21.43.05.81-.26,1.31-.03.44.2.75-.29,1.01-.64.01-.01.02-.03.03-.04.61-.48,1.19-.99,1.61-1.66.43.31.86-.08,1.29,0,0,.78-.52,1.22-1.06,1.62-.28.21-.58.41-.95.52-.36.11-.63.41-.84.75-.38.61-.81.71-1.4.27-.31-.23-.48-.15-.58.14-.18.51-.49.35-.69.11-.2-.23-.39-.36-.69-.34-.18.01-.28-.15-.4-.26-.13-.12-.23-.32-.45-.25-.26.08-.23.35-.3.54-.07.21.18.54-.21.64-.38.1-.72,0-1.01-.27-.49-.45-.93-.92-1.22-1.53-.15-.33-.42-.59-.63-.89-.76-1.05-.83-2.25-.59-3.48Z"/><path class="cls-16" d="M16.43,29.59s0-.08,0-.11c.41-.46.34-.71-.24-.86-.29-.08-.59-.15-.88-.23.23-.35.55-.38.91-.23.31.11.64.12.96.24.33.13.59-.09.83-.3.51-.43.45-.28,1.04-.05.58.23.8.68,1.16,1.06.26.27.63.37.97.49.57.2.67.54.38,1.07-.38.7-.7,1.45-1.46,1.85-.73.49-1.29.29-1.82-.35-.22-.26-.44-.46-.42-.84.02-.45-.2-.76-.6-.96-.35-.17-.63-.44-.83-.78Z"/><path class="cls-3" d="M44.1,31.91c-.16-.25.1-.25.2-.34.14-.12.35-.17.44-.31.15-.23.45-.49.24-.78-.22-.3-.5-.04-.74.07-.51.23-.63.13-.84-.38-.23-.55-.01-1.12-.21-1.65.6-.42,1.24-.76,1.92-1.09.13.29-.03.55,0,.81.06.49.09.98.38,1.41.13.19.22.42.33.63.6,1.26.55,1.37-.81,1.52-.31.03-.61.07-.92.11Z"/><path class="cls-5" d="M14.78,27.15c.09.27.85.64,1.14.53.45-.17.32-.51.21-.82-.16-.42-.21-.83.18-1.15.24-.19.48-.33.72.06.22.37.51.57.92.17.25-.25.42,0,.57.19.48.64.62.64,1.15.06.45-.49.76-.49,1.17,0,.12.14.25.28.39.39.11.09.27.2.38.18.21-.04.09-.28.15-.42.32.18.24.46.18.73-.41.24-.86.26-1.29.1-.29-.11-.45-.12-.6.2-.23.48-.34.49-.8.2-.19-.12-.42-.19-.54-.37-.39-.57-.91-.31-1.39-.25-.21.02-.21.21-.21.39.03.69-.19.9-.89.87-.48-.24-1.02-.12-1.51-.28-.02-.27-.09-.54.09-.79Z"/><path class="cls-5" d="M35.49,27.82c.47-.08.86-.31,1.21-.6.6-.48,1.25-.58,2.03-.55.64.03,1.31-.04,1.96-.07.07,0,.14-.04.2-.08,1.02-.59,1.55-.46,2.19.53.09.13.12.32.33.32-.3.18-.6.36-.9.54-.38.02-.57-.3-.82-.48-.24-.17-.47-.21-.76-.22-.73-.02-1.45.06-2.16.24-.27.07-.49-.04-.7-.22-.25-.22-.53-.22-.8-.03-.4.28-.85.5-1.22.83-.2.18-.42.29-.69.13-.1-.16-.05-.28.12-.36Z"/><path class="cls-11" d="M35.36,28.15c.27.04.52-.02.72-.2.35-.33.79-.53,1.19-.78.35-.22.71-.41,1.03.08.11.17.31.15.5.08.78-.28,1.6-.19,2.4-.28.45-.05.62.4.96.56.14.07.25.21.38.31-.43.34-.87.68-1.3,1.02-.15-.18-.3-.36-.47-.53-.14-.15-.28-.29-.12-.52.22-.31.01-.39-.25-.4-.58-.02-1.16-.04-1.71.26-.4.22-.76.27-.9-.33-.1-.4-.35-.2-.55-.08-.65.4-1.25.88-1.83,1.38-.15.13-.29.33-.49.07-.06-.35.1-.55.43-.64Z"/><path class="cls-24" d="M14.69,27.93c.55-.23,1.04.03,1.53.22.01.02.03.04.04.06-.01.02-.03.04-.04.06-.33-.21-.61.03-.9.12-.29-.03-.7.1-.63-.45Z"/><path class="cls-6" d="M16.66,3.57c-.39-.06-.59-.31-.66-.68.22.23.44.45.66.68Z"/><path class="cls-20" d="M14.69,32.45c.49.11.26.5.31.79-.17-.23-.21-.52-.31-.79Z"/><path class="cls-2" d="M15.66,33.98c.11-.17.23-.32.46-.31-.14.12-.24.3-.46.31Z"/><path class="cls-20" d="M14.56,29.16c-.02.18.07.38-.1.53.03-.18-.11-.39.1-.53Z"/><path d="M38.92,59.99c-.83.02-1.6-.6-1.95-1.5-.34-.86-.32-1.76-.29-2.65,0-.27.18-.36.44-.39.29-.03.3.19.33.34.13.64.2,1.29.35,1.93.19.78.62,1.05,1.41.93.84-.14,1.57-.53,2.18-1.08,1.28-1.16,2.29-2.55,3.21-4,.76-1.19,1.49-2.39,2.24-3.57.16-.25.34-.48.55-.68.19-.19.41-.43.71-.23.27.18.24.46.16.74-.17.63-.55,1.16-.9,1.68-.93,1.37-1.68,2.87-2.69,4.19-1.28,1.68-2.64,3.28-4.7,4.07-.36.14-.72.26-1.07.24Z"/><path class="cls-18" d="M21.85,27.16c-.04-.27,0-.55-.11-.8-.03-.92,0-1.83.31-2.71.06-.17.12-.35.21-.5.75-1.25,1.66-1.29,2.3,0,.81,1.64.8,3.39,0,5.04-.57,1.19-1.14,1.23-2.19.38.03-.18-.11-.24-.22-.33.01-.03,0-.06-.02-.08-.25-.12-.27-.38-.33-.61-.02-.13-.01-.26.03-.39Z"/><path class="cls-1" d="M35.36,28.15c-.21.17-.34.39-.43.64-.19.12-.37.23-.56.35,0,0-.05-.01-.05-.01l-.04.03c-.91,0-1.24-.66-1.5-1.35-.18-.49-.24-1.01-.36-1.52-.12-.29-.08-.58-.02-.88.14-.9.2-1.81.76-2.59.56-.79,1.37-.8,1.91,0,.7,1.04.78,2.21.72,3.41-.03.55-.19,1.07-.29,1.6-.05.11-.09.22-.14.32Z"/><path d="M30.53,34.33c-.58,0-1.04-.24-1.36-.7-.2-.28-.28-.1-.38.05-.24.36-.53.64-.93.82-.59.26-1.44.06-1.86-.43-.17-.21-.19-.4,0-.58.17-.17.33-.13.52.04.45.38,1.02.35,1.43-.05.55-.54.65-1.1.22-1.59-.34-.39-.26-.75.01-1.09.36-.46.8-.56,1.21-.33.38.22.61.74.47,1.13-.03.08-.09.17-.16.21-.25.15-.46.28-.29.64.24.5.51.95,1.12.98.37.02.77-.03.9-.47.12-.42.39-.39.68-.28.38.15.34.44.16.72-.41.63-1.01.91-1.74.93Z"/><path class="cls-1" d="M40.46,15.9c-.11-1.17-.12-2.32.18-3.47.17-.65.58-1.17.95-1.71.64-.94,1.18-1.95,2-2.75.12-.12.22-.45.51-.2.03.04.04.09.03.15-.07.22-.2.42-.32.63-.53.97-1.03,1.95-1.69,2.84-.61.82-.83,1.79-.97,2.78-.04.26-.08.51-.14.76-.08.26-.16.51-.25.76-.04.1-.09.19-.18.27-.06.03-.1.01-.12-.04Z"/><path class="cls-24" d="M40.53,15.91c.05-.07.09-.14.14-.21.04-.04.08-.08.12-.12.27-.22.6-.3.92-.32.61-.05,1.06-.33,1.46-.77.71-.76,1.25-1.57,1.25-2.66,0-.48.22-.92.33-1.39.11-.5.12-.95-.33-1.35-.28-.25-.44-.62-.18-1.02.35.12.61.4.94.56.18.09.24.27.22.47-.08.74-.01,1.51-.36,2.2-.23.46-.07.98-.29,1.43-.33,1.02-.79,1.97-1.54,2.75-.37.23-.64.59-1.07.75-.61.23-1.15.18-1.6-.32Z"/><path class="cls-23" d="M44.74,12.73c-.03-.62,0-1.23.29-1.81.3-.59.05-1.26.25-1.88.05-.16-.06-.3-.22-.33-.38-.08-.6-.39-.88-.61-.05.03-.09.04-.14,0-.03-.08-.03-.15.02-.22,0-.04,0-.07.02-.11,1.42.39,1.41.39,1.42,1.84,0,1.04-.52,1.96-.62,2.97,0,.05-.1.09-.16.14Z"/><path class="cls-5" d="M40.53,15.91c.82.51,1.58.35,2.29-.24.11-.09.22-.2.38-.19-.33.47-.76.82-1.29,1.03-.6.23-1.12.01-1.45-.62.03,0,.05,0,.07.01Z"/><path class="cls-21" d="M32.4,25.4c0,.29.02.58.02.88-.2-.29-.17-.58-.02-.88Z"/><path class="cls-1" d="M14.12,5.79c1.69.98,3.01,2.36,4.15,3.92.51.7.46,1.55.49,2.37.06.35.15.7.05,1.05-.06.1-.14.11-.25.09-.18-.1-.21-.28-.26-.46-.05-.33-.13-.65-.22-.96-.19-1.53-1.21-2.57-2.18-3.63-.44-.47-.77-1.08-1.43-1.31-.16-.09-.29-.23-.41-.38-.09-.14-.19-.26-.27-.4-.11-.34.03-.41.33-.31Z"/><path class="cls-2" d="M18.55,13.16c.06,0,.13,0,.19.01-.37.84-.9.79-1.54.64-.15-.04-.3-.12-.44-.21-.45-.43-.95-.81-1.32-1.32-.79-.94-1.36-2.02-1.9-3.09-.51-1.01-.23-2.12.37-3.1.14.07.23.17.22.34.22.29.21.56.07.91-.26.64-.15,1.35.19,1.9.6.95.95,2.01,1.59,2.93.68.99,1.11,1.19,2.31.94.09-.02.18-.01.26.04Z"/><path class="cls-17" d="M13.91,6.1c-.25.63-.35,1.29-.44,1.96-.09.62.1,1.18.47,1.69.35.5.81.93.92,1.58.06.39.51.57.59.96-.65-.35-.84-1.05-1.19-1.61-.54-.86-1.17-1.68-1.31-2.74-.07-.52.02-.99.37-1.38.17-.2.33-.39.38-.65.06-.3.24-.27.44-.12-.1,0-.25-.02-.3.04-.1.1.06.18.09.28Z"/><path class="cls-10" d="M16.76,13.61s.08-.01.11,0c.76.44,1.36.15,1.88-.44,0-.37.01-.74.02-1.1.25.46.26,1,.57,1.45.22.31-.14.48-.39.58-.39.17-1.85-.18-2.18-.49Z"/><path class="cls-2" d="M16.43,29.59c.36.28.7.58,1.12.78.38.18.5.58.46.93-.04.36.06.55.35.71.08.04.13.12.2.19.34.35.65.81,1.2.28.06-.06.21-.02.32-.02.47-.33,1-.6,1.11-1.26.02-.13.08-.34.32-.28-.1.62-.32,1.19-.75,1.67-.15.16-.29.38-.54.29-.56-.2-.78.22-1.06.53-.05.05-.06.14-.1.19-.18.22-.37.55-.7.32-.31-.21-.14-.53.01-.78.31-.5.22-.66-.37-.81-.71-.18-1.32-.2-1.74.56-.13.23-.38.53-.7.35-.31-.18-.27-.57-.31-.89-.02-.2.15-.2.3-.23.58-.14.93-.57,1.01-1.15.06-.47.07-.93-.11-1.38Z"/><path class="cls-26" d="M21.5,30.91c-.41.36-.39,1.01-.91,1.31-.17.1-.3.26-.52.23.08-.1.14-.24.25-.29.73-.33.81-1.13,1.22-1.69.24-.32.07-.66-.33-.75-.72-.17-1.23-.52-1.59-1.2-.15-.29-.78-.2-.98-.65-.02-.05-.32.11-.44.25-.38.43-.8.64-1.35.3-.19-.11-.45.05-.62-.15,0,0,0,0,0,0,.12-.09.28-.03.4-.09.52-.01.97-.24,1.42-.47.21-.11.43-.19.67-.2.05,0,.11.01.16.02.2.07.4.13.59.22.09.05.19.1.25.19.16.35.46.55.78.74.3.18.48.09.59-.21.06-.15.11-.31.2-.45.09-.14.2-.27.4-.23.2.04.33.19.32.39-.01.25.06.51-.05.75.14.72.05,1.4-.44,1.98Z"/><path class="cls-24" d="M21.94,28.93c0-.22,0-.44,0-.66,0-.2-.11-.37-.31-.4-.18-.03-.21.16-.29.28-.18.29-.1.91-.55.8-.48-.12-1.07-.35-1.16-1.02.13-.06.25,0,.37.03.42.1.77.04,1.05-.34.23-.31.53-.51.89-.13.07.22.15.44.22.66-.25.21.03.56-.22.77Z"/><path class="cls-9" d="M21.07,30.66c.06.57-.42.95-.85,1.34-.18.17-.33.11-.43-.1-.33-.71-.18-1.42.02-2.13.03-.11.12-.17.25-.18.35-.03,1.04.62,1.01,1.07Z"/><path class="cls-27" d="M21.94,27.49c-.31-.12-.57-.11-.8.2-.44.58-.89.64-1.51.25-.07-.04-.15-.07-.22-.11-.15-.16-.37-.15-.55-.22-.48-.24-.89-.22-1.24.25-.23.31-.62.34-.97.41h-.44v-.11c.72-.12.75-.19.7-.86-.02-.27.02-.63.48-.49.02,0,.04.02.05.01.9-.55,1.3.37,1.88.69.35.19.49.18.59-.16.12-.44.28-.65.73-.29.36.28.82-.1,1.21.1.1.09.11.21.09.34Z"/><path class="cls-25" d="M24.48,25.67c-.09.86-.1,1.75-.66,2.5-.3.4-.5.4-.79,0-.48-.67-.44-.87-.05-1.56.5-.89.58-1.85-.03-2.74-.32-.47.06-.68.28-.89.3-.27.47.05.63.28.51.73.51,1.58.61,2.42Z"/><path class="cls-25" d="M35.16,25.7c-.1.86-.11,1.71-.63,2.43-.32.44-.51.44-.82.02-.19-.25-.31-.54-.4-.83-.12-.37.25-.48.38-.72.46-.93.52-1.87-.05-2.76-.31-.48.09-.68.31-.88.26-.24.44.04.59.26.54.76.54,1.65.63,2.49Z"/><path class="cls-22" d="M44.08,7.88c0,.07,0,.15,0,.22.12.55.18,1.11.5,1.6.05.08.07.18.05.27-.13.92-.19,1.88-.67,2.7-.36.63-.87,1.18-1.33,1.75-.13.16-.3.29-.5.33-.61.11-.99.51-1.36.96-.04,0-.07,0-.11,0,0-.28.06-.54.24-.77.16-.56.42-1.08.69-1.59.25-.47.25-1.05.47-1.56.41-.96,1.07-1.78,1.45-2.75.08-.2.16-.41.22-.61.1-.18.16-.4.33-.54Z"/><path class="cls-4" d="M43.74,8.42c-.04.61-.29,1.15-.6,1.67-.55.94-1.18,1.84-1.27,2.98,0,.09-.04.18-.08.26-.29.54-.59,1.07-.89,1.6.14-1.61.58-3.1,1.61-4.41.5-.63.82-1.4,1.23-2.1Z"/><path class="cls-8" d="M40.78,15.71c.2-.55.52-.95,1.15-1.03.21-.03.41-.12.57-.3.95-1.09,1.79-2.23,1.93-3.76.05-.53.06-.98-.27-1.44-.21-.3-.05-.71-.08-1.08.04,0,.07,0,.11,0,.09.46.18.89.64,1.2.31.21.17.7.09,1.04-.18.74-.34,1.48-.43,2.24-.15,1.25-1.55,2.58-2.78,2.81-.32.06-.65.13-.93.31Z"/><path class="cls-19" d="M18.18,11.74c.13.32.22.64.22.99-.63.32-1.24.15-1.64-.33-.97-1.19-1.91-2.41-2.4-3.9-.17-.52.02-1.05.13-1.56.36-.12.49.17.66.38.66.79,1.1,1.71,1.61,2.6.16.28.34.52.63.66.48.24.5.79.79,1.15Z"/><path class="cls-15" d="M14.56,6.9c0,.31,0,.61-.09.92-.13.51.11.96.32,1.41.47,1.01,1.19,1.86,1.78,2.8.41.65,1.1.79,1.83.71.05.14.1.29.15.43-1.19.52-2.08.08-2.74-.96-.56-.88-.89-1.85-1.46-2.73-.46-.7-.68-1.57-.17-2.41.13-.22-.07-.42-.06-.63.11.11.22.21.33.32.02.05.09.08.1.14Z"/><path class="cls-14" d="M14.56,6.9s-.07-.09-.1-.14c.3-.04.47.17.65.35.94.94,1.8,1.95,2.58,3.04.34.47.37,1.06.5,1.6-.19-.1-.3-.26-.38-.45-.12-.3-.3-.51-.61-.66-.49-.25-.65-.78-.88-1.22-.39-.78-.92-1.47-1.37-2.21-.08-.13-.26-.2-.39-.29Z"/><path class="cls-24" d="M16.65,28.26c.44-.16.82-.39,1.13-.77.35-.43.74-.21,1.07.11-.43.02-.8.22-1.16.42-.33.18-.67.28-1.04.24Z"/><path class="cls-24" d="M18.86,27.6c.21,0,.44-.04.55.22-.19-.05-.4-.07-.55-.22Z"/></g></svg>