<?xml version="1.0" encoding="UTF-8"?><svg id="Layer_2" xmlns="http://www.w3.org/2000/svg" viewBox="0 0 161.43 199.57"><defs><style>.cls-1{fill:#f7c1d2;}.cls-2{fill:#f6d8e1;}.cls-3{fill:#ed9658;}.cls-4{fill:#ea9254;}.cls-5{fill:#e2894a;}.cls-6{fill:#d77d40;}.cls-7{fill:#f4d5b9;}.cls-8{fill:#ef9e64;}.cls-9{fill:#ef9d61;}.cls-10{fill:#e48c4d;}.cls-11{fill:#f3c39f;}.cls-12{fill:#dc8344;}.cls-13{fill:#e48b4d;}.cls-14{fill:#ef9f65;}.cls-15{fill:#dc7d40;}.cls-16{fill:#f5cca9;}.cls-17{fill:#e38a4b;}.cls-18{fill:#f1a56e;}.cls-19{fill:#fefefe;}.cls-20{fill:#f7ceda;}.cls-21{fill:#f4d3b7;}.cls-22{fill:#f5d9c0;}.cls-23{fill:#e28547;}.cls-24{fill:#ea9152;}.cls-25{fill:#f4d2b4;}.cls-26{fill:#efa26b;}.cls-27{fill:#f6e1e8;}.cls-28{fill:#453439;}.cls-29{fill:#fff;}.cls-30{fill:#db8244;}.cls-31{fill:#d77d3f;}.cls-32{fill:#df8647;}.cls-33{fill:#f5cead;}.cls-34{fill:#dc8244;}.cls-35{fill:#f5cba9;}.cls-36{fill:#e88f50;}.cls-37{fill:#4e2e18;}.cls-38{fill:#f3c29d;}.cls-39{fill:#d98042;}.cls-40{fill:#f2a771;}.cls-41{fill:#eab09b;}.cls-42{fill:#f4d7bc;}.cls-43{fill:#ea9153;}.cls-44{fill:#eeced4;}.cls-45{fill:#de8546;}.cls-46{fill:#d87e40;}.cls-47{fill:#f2c29d;}.cls-48{fill:#e78e4f;}.cls-49{fill:#dd8445;}.cls-50{fill:#efa066;}.cls-51{fill:#f0a269;}.cls-52{fill:#f5c7a2;}.cls-53{fill:#e89051;}.cls-54{fill:#f4d1b4;}.cls-55{fill:#f5e0cd;}.cls-56{fill:#ea9253;}.cls-57{fill:#e38b4c;}.cls-58{fill:#e99052;}.cls-59{fill:#f4571e;}.cls-60{fill:#eb9354;}.cls-61{fill:#f5d1b3;}.cls-62{fill:#ee9658;}.cls-63{fill:#19120e;}.cls-64{fill:#f2bf98;}.cls-65{fill:#de8446;}.cls-66{fill:#dd8345;}.cls-67{fill:#372112;}.cls-68{fill:#f0a46d;}.cls-69{fill:#f2ad7c;}.cls-70{fill:#efbc98;}.cls-71{fill:#f1a773;}.cls-72{fill:#f3c4a0;}.cls-73{fill:#f5cba8;}.cls-74{fill:#e78f50;}.cls-75{fill:#f2a873;}.cls-76{fill:#f4c5a1;}.cls-77{fill:#e58c4e;}.cls-78{fill:#f5dac1;}.cls-79{fill:#e08648;}.cls-80{fill:#f45d26;}.cls-81{fill:#f5e7eb;}.cls-82{fill:#f4b88c;}.cls-83{fill:#e68e4f;}.cls-84{fill:#070606;}.cls-85{fill:#f7cfdc;}.cls-86{fill:#ef9e63;}.cls-87{fill:#ef9759;}.cls-88{fill:#110f0f;}.cls-89{fill:#070707;}.cls-90{fill:#f3b181;}.cls-91{fill:#f96833;}.cls-92{fill:#e99152;}.cls-93{fill:#f5d0b1;}.cls-94{fill:#f0995b;}.cls-95{fill:#efa169;}.cls-96{fill:#e08748;}.cls-97{fill:#e28a4b;}.cls-98{fill:#d87f41;}.cls-99{fill:#f3ac78;}.cls-100{fill:#f0a169;}.cls-101{fill:#db8344;}.cls-102{fill:#e38a4c;}.cls-103{fill:#f5ccaa;}.cls-104{fill:#f7c1d1;}.cls-105{fill:#f7602a;}.cls-106{fill:#f4d2b5;}.cls-107{fill:#d57c3e;}.cls-108{fill:#d67c3e;}.cls-109{fill:#dd8446;}.cls-110{fill:#f4d0b2;}.cls-111{fill:#e89052;}.cls-112{fill:#e48b4c;}.cls-113{fill:#e39663;}.cls-114{fill:#e78e50;}.cls-115{fill:#f5e4e9;}.cls-116{fill:#f2ae7c;}.cls-117{fill:#eb9253;}.cls-118{fill:#d98041;}.cls-119{fill:#e18849;}.cls-120{fill:#1d1617;}.cls-121{fill:#f0a56f;}.cls-122{fill:#d47a3c;}.cls-123{fill:#ec9557;}.cls-124{fill:#f5d0b0;}</style></defs><g id="Layer_1-2"><path class="cls-84" d="M117.61,198.89c-4.07.25-7.61-.87-10.98-3.06-3.1-2.01-3.96-3.47-5.13-6.93-.05-.16-.03-.36-.25-.4-.1,1.75-.26,2.99-1.22,4.46-5.55,8.52-22.67,9.03-27.94.16-.29-.5-1-2.28-1.38-2.47-.77-.37-1.6-.24-2.35-.37-3.91-.72-7.84-2.59-10.88-5.11-.59.47-1.08,1.08-1.67,1.54-6.49,5.05-22.6,7.92-30.69,7.41-12.19-.77-23.37-10.86-25-23.01-.82-6.11,2.73-13.44,6.29-18.28,3.21-4.37,8.36-6.76,12.31-1.63,4.56,5.94-2.22,11.37-.4,17.6.87,2.97,6.68,5.52,9.43,6.45,7.47,2.52,15.54,1.03,23.11-.24-1.81-5.32-.72-11.04.4-16.38.6-2.87,1.33-5.99,2.2-8.79,2.26-7.28,6.69-13.25,11.24-19.23-.91-7.19-.04-14.05,2.32-20.84,1.75-5.04,3.82-10.05,7.01-14.36-1.71-.62-3.47-1.09-5.16-1.76-2.66-1.04-5.51-2.45-7.82-4.13-.78-.56-1.46-1.23-2.24-1.78-5.07,3.59-10.06,7.62-14.33,12.14-.5.52-.99,1.22-1.49,1.74-.16.17-.34.43-.6.41-.12-.12,1.23-2.1,1.41-2.35,3.62-5.19,8.85-9.1,14.04-12.59l.19-.27c-.51-.25-1.25-1.74-1.55-1.92-.09-.06-.17-.07-.27-.04l-14.42,8.17c4.62-3.09,9.37-6.03,14.33-8.54-.17-.94-.72-.5-1.36-.22-4.63,2.03-9.8,5.04-14.04,7.82-1.53,1-3.24,2.5-4.77,3.35-.17.09-.28.21-.5.16-.14-.12.66-.85.77-.96,5.45-5.19,12.14-8.84,19.05-11.7l-.78-1.79-9.49,4.18c-.07-.32.08-.21.24-.3.96-.57,2.16-1.1,3.18-1.6,1.93-.94,3.89-1.86,5.89-2.65l-.24-1.06c-.16-.14-3.04.94-3.49,1.1-2.41.88-4.97,1.91-7.3,2.97-1.33.61-2.9,1.65-4.22,2.11-.19.07-.19.24-.39-.04l1.75-1.47c3.96-2.91,8.54-4.9,13.29-6.11.03-.04-.09-.47-.19-.48-.22-.02-2.99.92-3.45,1.07-4.28,1.45-8.45,3.23-12.63,4.92l-.44-.09c5.13-3.04,10.67-5.41,16.48-6.87-.2-2.01-1.57-3.7-2.2-5.61-.2-.62-.36-1.36-.51-2-1.34-5.79-2.58-12.28-3.58-18.15-2.13-12.54-1.91-24.01-.51-36.63.54-4.89,1.57-13.01,7.4-14.34,3.12-.71,6.25,2.95,8.19,5.08,3.58,3.94,5.41,7.64,8.08,12.1,2.28,3.8,4.9,7.43,6.61,11.55,4.6-3.4,10.11-4.44,15.66-5.24,4.49-.64,9.42-1.15,13.94-.6,3.19.38,6.25,1.37,9.19,2.58,3.75-2.7,7.81-5.26,11.36-8.21,4.97-4.14,7.6-8.21,14.25-10.23,11.6-3.53,13.84,11.16,13.64,19.38-.28,11.57-1.07,20.38-8.03,29.95-2.04,2.8-4.28,4.99-6.9,7.25,1.92,1.2,3.41,3.12,3.46,5.5l3.64-.24c3.55-.12,7.07.23,10.57.72.4.33-1.34.47-1.49.48-1.03.07-2.08.06-3.1.12-3.12.17-6.25.26-9.37.48l-.12,3.35c6,.19,12.28.52,17.79,3.05l-18.26-1.84c.06.37-.67,1.25-.17,1.4,5.39.67,10.96,1.65,16.13,3.33.24.08.49.15.72.24.18.07.32-.07.26.27l-17.79-2.98c-.1.7-.8,1.51-.91,2.14-.02.14-.09.2.07.31,3.12.52,6.23,1.13,9.32,1.79,2.36.5,5.35,1,7.6,1.72.16.05.36.04.4.26l-17.62-3.12c-.21-.02-.28.05-.4.2-.15.19-1.08,1.98-.97,2.08,5.73.76,11.55,1.97,17.03,3.81.19.06.34-.11.28.25l-17.62-3.66c-1.75,2.82-3.81,5.42-6.26,7.66-2.15,1.98-4.71,4.08-7.52,4.96l.99.62c8.26,6.45,11.72,18.77,10.71,28.94-.13,1.27-.9,3.76-.83,4.76.09,1.23,1,4.01,1.39,5.3.75,2.47,1.76,4.86,2.54,7.31.75.97,1.05,2.35,1.07,3.58,1.98,7.18,2.86,16.39-.06,23.41-2.15,5.16-5.96,9.2-10.56,12.26,1.93,3.02,1.45,6.09-.03,9.17-1.9,3.94-6.28,6.11-10.37,7.12-.89.49-1.88.65-2.99.48Z"/><path class="cls-62" d="M123.34,34.67l.13.27c-.3,1.2-.14,2.43.47,3.68,1.98,4.17,2.54,8.59,3.07,13.14.46,7.43,5.25,13.24,10.52,17.86l-.1.28c-1.57.21-3.13.37-4.7.62-1.34.21-11.26,1.98-11.61,2.48-.29.43.29.87.72.73,6.45-1.27,12.96-2.35,19.53-2.75.08.84.25,1.97-.02,2.79-.1.31-1.36.22-1.72.2-4.44-.15-9.43-.16-13.85.35-1.1.13-2.21.34-3.29.6-.04.04.09.43.14.46.29.17,1.86-.19,2.31-.22,4.22-.32,8.45-.26,12.66-.12,1.14.04,2.28-.09,3.4.12l-.43,1.2c-3.72-.47-7.46-.77-11.22-.84-.94-.02-1.87-.15-2.85,0-.4.06-.59.19-.49.59.12.51,1.27.13,1.68.14,3.67.06,8.19.36,11.81.95.2.03.71.03.67.28-.02.13-.76,1.93-.82,2.02-.06.07-.09.1-.19.09-4.34-.64-8.69-1.33-13.08-1.45-.04.24.09.31.3.35,1.27.26,2.92.21,4.28.38,2.78.35,5.55.9,8.32,1.36l-1.27,2.32-9.83-1.18c-.1.33.57.3.8.34,2.81.5,5.78.68,8.57,1.22.14.03.22.05.3.18-1.66,2.98-3.9,5.62-6.38,7.95-2.6,2.44-5.87,4.83-9.59,5.1-.27.02-1.55-.36-1.16.39.25.48,2.06.17,2.57.12.13.41-.09,1.46-.48,1.67l-1.67,5.49.09.28-1.09,4.86c-.85,3.38-.81,6.78.15,10.07.15.67.24,1.37-.09,1.99-.4,1.77-.6,3.56-.6,5.37.32.03.38.16.12.36.03,1.8,1.21,5.73,3.58,3.82-.2-.29.26-.96.6-.96,1.65-4.12,1.08-9.06.03-13.28-.63-5.93.23-11.72,1.24-17.44.08-.95.05-1.31-.36-2.11-.04-.08-.01-.17.05-.25,1.8.4,3.6,2.5,4.7,3.95,6.18,8.09,7.37,21.21,4.79,30.8-3.71,13.78-10.19,25.76-9.25,40.67.34,5.33,2.65,7.19,4.99,11.37,1.6,2.86.91,5.15-.46,7.92-.2.03-.11-.16-.12-.3-.02-.35.05-.68-.05-1.02-.21-.7-1.45-1.77-2.19-1.88-.59-.09-1.82.26-1.11.88.48.43.99.13,1.61.9.21.26,1.06,1.65,1.17,1.94.05.12.12.21.08.36-.03.12-1,1.06-1.18,1.22-1.47,1.28-3.41,2.21-5.26,2.8.34-1.31.04-2.59-1.02-3.46-.22-.18-.75-.6-1.01-.43-.53.53.21,1.11.42,1.62.17.42.27.88.42,1.31l-.51.17c-2.41-.24-4.73-.79-6.93-1.63-3.98-1.06-7.52-4.84-9.86-8.15-.91-1.29-1.58-2.59-2.16-3.88-.47-4.74-.54-9.5-.83-14.26-.04-.66-.4-1.82-.36-2.39.22-3.09.53-6.29.48-9.45-.07-3.84,1.27-7.12,2.62-10.68.12.01.26.03.34.12.33.36.46,1.61.51,2.13-.04,1.85.07,3.35.69,5.11.47,1.33,2.24,5.68,3.34,6.38.18.11.32.08.48-.04,1.36-1.02-.56-6.44-1.08-7.89-.64-1.34-1.11-2.72-1.41-4.14-.43-.08-.66-1.15-.36-1.43-.13-1.01-.38-1.95-.75-2.83-.28-.08-.47-.22-.56-.4.13-.28.2-.53.36-.84.97-1.15,1.75-2.45,2.1-3.93.43-2.19,1.13-4.24,2.08-6.15,1.39-.68,2.66-2.23,2.02-3.84l.27-2.66c.36-2.06-1.21-3.06-2.81-1.71-.86.12-1.27.51-1.23,1.16-.82,1-1.75,1.93-2.8,2.79-.33.91-.71,1.78-1.15,2.61-.91.66-1.55,1.62-1.93,2.9.08.84-.19,3.36-.82,3.84-.74.57-1.23-1.76-1.03-2.3-.22-.77-.34-1.54-.37-2.33-.58-.93-1.09-1.9-1.53-2.91-1.65-2.56-2.34.67-2.05,2.27l.16,3.2c-.15,1.98.16,3.94.95,5.86.18.02.17.19,0,.24-.05,2.11.71,4.15,1.75,5.97.2.93.41,1.85.64,2.75.75,6.34-.39,12.06-1.31,18.27-.12.22-.34.38-.66.5-.87,2.78-1.86,5.5-2.95,8.18l-.33.28-.49,3.15c-.06.41,0,.77.14,1.15.39.37.07.95-.24,1.31.21.18.24.45.09.81l-1.24,2.79c-1.61,3.37,2.43,2.04,2.83.06l.47-2.34c-.3-.17-.21-.32.12-.36.16-.51.39-.98.68-1.42l.27-.02.29-.56c.12-.37.34-1,.78-.88.71,2.34,2.23,4.43,2.39,6.87.34,5.24-3.64,9.04-8.33,10.53-1.15.36-2.41.64-3.61.63-.1-.1.09-2.46.13-2.79.1-.7.99-2.36-.29-1.96-.61.19-1,2.67-1.04,3.27-.04.55.19,1.12,0,1.73-.65-.14-1.32-.06-1.98-.12-.16-.01-.27-.12-.29-.12-.27-.21-.52-.5-.76-.88-1.02-.83-1.9-1.57-2.42-2.8-.29-.24-.47-.48-.52-.73.46-.58,2.47-1.7,1.98-2.4-.44-.62-2.44.69-2.81,1.08-.62.27-1.35-.94-1.51-1.52.06-.8-.25-1.17-.8-1.72-.19-.31-.45-1-.19-1.3.21-.06.59-.84.43-1.08-.15-.22-.87-.24-1.14-.23-.25-.27-.11-1.17,0-1.56.21-.75.43-1.49.71-2.23.72-1.7,1.37-3.44,1.96-5.17.3-.88.51-2.29-.65-2.6l-.1-.27c.3-3.13-.48-7.37-1.35-10.42-1.59-5.61-4.29-11.6-6.18-17.23-1.91-5.71-3.67-11.45-4.18-17.5l.32.15c2.44,2.78,4.28,5.9,5.77,9.17.28-.17.34-.06.24.24.91,1.14,1.47,2.65,1.79,4.09.78,4.71,2.44,10.19,5.62,13.82.95,1.08,1.23-1.08.7-1.69-.64-3-1.44-6.02-2.74-8.82-.35.03-.77-.7-.48-.96-.53-.29-.95-1.07-.84-1.67-.24-.2-.44-.43-.6-.69-2.43-4.32-4.19-8.91-5.92-13.5-2.23-3.46-4.24-6.7-3.63-11.04.11-.59.14-1.18.12-1.77.14-.93.39-1.83.6-2.75.22.04.29.17.37.34.13-.32.29-.52.64-.33l.98-3.26c1.21-2.44,2.18-4.94,2.92-7.49-.19.02-.32-.04-.43-.19-.28-.38,1.02-3.12,1.3-3.66.08-.1.13-.49-.04-.37-.18.38-.63.81-.84.27.56-1.16,1.14-2.3,1.79-3.41.26-.3.7-.09,1.08-.05l2.42.7c2.44.51,4.78,1.11,6.94,2.37.1.2.28.37.55.52.65.16,1.31.36,1.99.58,1.16.19,1.93-.52,1.95-1.66-.16-.68-.49-1.26-.99-1.74l.03-.29c-.69-.62-1.49-1.14-2.38-1.55-.96-.9-2.33-1.7-3.62-1.1-1.13-.12-2.24-.27-3.32-.46l-.1.11c-4.7-1.07-9.55-2.31-13.85-4.87-.15.02-.28.03-.39-.02-1.17-.59-2.6-1.47-3.34-2.5,2.32-1.5,4.75-2.8,7.17-4.11.18-.3.23-.65-.22-.58-.5.08-1.58.64-2.1.89-1.84.85-3.8,1.96-5.57,2.97-.7-.25-1.4-1.1-1.67-1.79,2.71-1.47,5.49-2.85,8.27-4.18l1.04-.96c-.56.42-1.14.38-1.76.57-2.76.83-5.82,1.86-8.51,2.9-.4.09-1.07-1.22-.84-1.55,2.87-1.15,6.22-1.95,8.93-3.19.17-.08.33.07.26-.27-3.15.98-6.34,1.85-9.43,2.99-.32.15-.63-.49-.36-.72.93-.29,1.87-.58,2.82-.83,2.36-.62,5.34-1.01,7.55-1.77.36-.13.78-.26.61-.79-.15-.47-1.25,0-1.58-.07-.1-.02-.09-.2-.16-.24-.81-.47-5.34.2-6.51.39-1.59.26-3.15.7-4.75.92-.18-1.84-.14-3.66,0-5.49l.18-.28c1.7-.32,2.2-1.91,2.48-3.42.24-1.96.55-3.87.95-5.75.14-.7.45-1.2,1.14-.7.29.05,1.53-1.68,1.74-2.01-.99,1.13-2.09,1.04-1.72-.77.12-.58.45-1.25.72-1.78,2.49-4.95,5.84-9.85,9.13-14.31.71-.48,1.5-.85,2.36-1.12.38-.5.79-.95,1.22-1.37,4.87-2.33,10.42-2.97,15.8-3.54.48-.13.46-.37.37-.8l.14-.21-.09-.25c.7-1.28-1.44-1.44-2.3-1.25l-2.82.4-.17-.21c-.58.05-1.15.14-1.71.27-.96.12-.76-.52-.34-1.1.06-.2.05-.39-.17-.44-2.03-.22-.36-1.71.5-2.42.75-.45,1.44-.98,2.08-1.57-.19-.14-.19-.34,0-.6,4.46-1.35,11.12-2.11,15.82-2.27,9.11-.32,16.75,2.81,22.99,9.32Z"/><path class="cls-2" d="M140.3,9.83c-.22.66-1.1,1.49-1.79,1.55-.63.47-3.57,3.86-.98,2.53,1.78-1.32,3.67-2.43,5.67-3.32,3.03-1.27,6.63,1.9,6.77,4.91.42.05,1.01.09,1.29-.31l.26.02c2.15,6.45,1.47,15.06.72,21.8-.93,8.23-4.82,17.9-11.58,22.99l-.33-.22c-.84-1.84-1.92-3.55-3.25-5.13-.49-.68-.82-1.48-.85-2.32-1.1-1.76-1.77-3.64-2.01-5.64-.33-.86-2.64-6.72-3.02-6.85l-.21-.14c-1.38-2.38-3.57-4.5-4.42-7.1-.77-2.38.16-4.85,1.06-7.07,2.5-6.16,6.99-12.19,12.68-15.68Z"/><path class="cls-87" d="M70.56,185.04l-.55.03-4.31-1.45c-3.35-1.52-6.86-2.92-10.38-4.17-.14.13-.3.2-.48.2-.2-.37-.41-.64-.64-.81-1.83-3.23-2.62-6.41-2.63-10.15l.24-.09c.51.49.95,1.04,1.31,1.65l.43.28c2,3.3,5.07,5.74,8.07,8.08l.22.47c.79.41,1.54.87,2.27,1.39,1.14.61,2.31,1.15,3.22-.08.5-1.06-.32-2.39-1.12-3.17l-1.86-1.73h-.34c-.96-.58-2-1.4-2.74-2.25-1.51-2.44-3.41-3.89-5.79-5.33l-.09-.3c-.09.05-.19.07-.3.05-.67-.15-2.5-5.15-2.69-6.14,1.41-8.23,2.77-14.61,7.05-21.86l.18.31c-.03,2.65.4,5.27,1.3,7.84l-.17.33.5,1.79c.79,1.68,1.7,3.56,2.96,4.89l.36.28c.9,1.83,1.87,3.63,2.92,5.39l-.06.43.29.08c.29.82.62,1.63,1,2.42,1.48,2.7,1.63-2.03.85-2.83-.98-1.25-1.53-2.55-1.87-4.11-.77-1.43-1.6-2.82-2.49-4.19-.29-.59-.42-1.08-.17-1.7-.05-.71-.11-1.44-.16-2.19l.16-.08-.16-.09-.44-2.24-.32-.22c-.5-1.95-.84-3.93-1.01-5.94l-.93-2.43c-.31-.63-.35-1.22-.12-1.8.31-.46.55-1.08.93-1.52l1.82-2.54c.73,5.41,2.46,10.58,4.33,15.67,2.69,7.31,6.95,15.75,7.73,23.44.19,1.91.06,5.76-1.25,7.23-.52.59-1.49,1.21-2.03,1.79-1.12,1.2-2.58,3.8-3.05,5.37Z"/><path class="cls-2" d="M71.28,22.97c0,.35-.06.72-.16,1.12l.53,1.16c.41,1.88.94,3.69,1.67,5.46.13.46.21.84-.12,1.23-5.74,5.5-10.93,12.7-14.21,19.95-.41.16-.89-.8-.6-1.07-.1-.06-.19-.13-.28-.2s-.16-.15-.21-.24c-1.5-2.94-2.76-6.26-3.73-9.42-.03-.1-.02-.2-.02-.31s.03-.23.06-.34c-.66-1.07-1.13-2.45-1.07-3.7-.07-.3-.11-.57-.12-.84.17-.41.16-1.05.12-1.53-.77-5.33-.83-11.01.02-16.43.87-4.22,1.57-8.44,2.11-12.67l.59-2.38.26-.21c1.11.47,3.05,2.45,3.94,3.4,4.55,4.87,7.89,11.25,11.22,17.02Z"/><path class="cls-87" d="M5,161.63c.6-.34,1.05-.78,1.42-1.37.78-.92,2.06-.95,2.51.24.55.16,1.13.23,1.76.18,1.31.45.25-.4-.32-.7-.98-1.24-.43-2.67,1.29-2.19,1.13-.84,2.23-.85,2.47.76.96.2,2.06,1.13,2.44,2-.93,3.42-1.73,5.75-.26,9.28,1.76,4.21,8.85,6.96,13.04,7.92,1.11.49,2.23.94,3.45,1.1,3.55.61,7.07,1.37,10.57,2.27.9.36,5.55,2.19,6.13,1.38.51-.72-.8-1.5-1.4-1.59-2.34-.64-4.71-1.64-6.86-2.75l-.06-.29c3.01-.4,5.78-1.23,8.72-1.79.1.03.18.08.22.18.33,1.05.92,2.48,1.37,3.53.61,1.44,1.41,2.78,2.44,3.96l.03.44c-7.53,4.42-21.97,7.68-30.61,6.67-8.31-.97-14.95-6.28-18.47-13.72.11-.1.23-.14.37-.09,1.68.56,3.25,1.61,4.65,2.69,2.47,2.34,5.18,4.3,8.12,5.88.03-.1.07-.1.12,0l.6.24c.23-.22.27-.2.24.12l.46.09c2.25.84,4.8,1.75,7.2,1.49,2.04-.98,3.78-.87,5.86.03,1.26.51,6.41.49,6.99-.67.18-.36-.02-.87-.4-1l-7.84-.61c-4.11-.52-8.15-2.02-11.79-3.98-.1-.04-.1-.08,0-.12-.64-.64-1.36-1.2-2.15-1.67-.17.17-.27.12-.24-.12-1.46-1.04-3.01-1.92-4.66-2.63l-1.21-.62c-2.16-.15-3.8-1.57-5.24-3.08l-.38-.03c-.92-.99-1.74-2.1-2.49-3.19-.1-3.12.75-5.39,1.91-8.24Z"/><path class="cls-94" d="M51.93,4.93c-.23.28-.35.55-.36.84l.04.45c-.6,1.25-1.19,2.58-1.44,3.95-1.5,8.15-.73,16.91,1.29,24.96,1.36,5.44,3.29,10,5.53,15.09.13.3.17.62.2.94.28.05.37.22.24.48-.04.26-1.03,1.62-1.27,1.59-.06,0-.11,0-.17,0-.65-1.15-1.09-1.5-1.33-1.05-.73,1.75-1.32,2.02-1.78.82-.65-.35-.98-.99-.98-1.94-.05-.7-.36-4.31-.9-4.64-.02,0-.33.06-.34.1.94,1.38-.55,2.19-.61.37l-.39.03-1.31-1.57c.04.42-.29.75-.48.31-.84-8.16-.58-15.44.12-23.59.44-5.15.74-15.18,4.78-18.69.28.43-.34,1.51-.84,1.55Z"/><path class="cls-87" d="M130.03,178.11l-.22-.28c.41-2.42.55-4.84.42-7.27l.28-.09-.05-.19c.86-.83,1.46-1.8,1.77-3.05.55-2.9,1.52-5.04,3.88-6.85.61-.64,1.03-1.42,1.33-2.25.68-2.42,1.42-4.59,2.95-6.56l.27-.09c1.09,8.79.5,17.74-6.45,24.07-1.47,1.34-2.33,1.9-4.18,2.57Z"/><path class="cls-87" d="M139.34,144.79c-2.04,3.89-3.68,8.16-5.13,12.3.19.41-.26,1.56-.72,1.67-.16,1.21-.59,2.55-1.43,3.46.2.14.13.25-.12.24-.62.89-1.18,1.8-1.67,2.75.02.22-.04.61-.24.72l-.46,1.6c-.06.08-.15.1-.26.07-.05-.1-.05-.26,0-.48-.27-.23-.23-.36.12-.36l.72-2.7c-.29-1-.3-2.05,0-3.13-.36-5.47.66-11.06,2.98-15.99l.25-.87.05-.58c1-2.88,1.98-5.74,2.96-8.57l.21-.16c.81,3.37,1.91,6.67,2.75,10.03Z"/><path class="cls-16" d="M3.33,172.26l.25-.13c3.46,3.23,7.17,5.71,11.52,7.59,4.3,3.29,9.26,5.51,14.54,6.67.1.06,1.59-.19,1.52-.22-3.83-1.06-7.77-2.44-11.4-4.19-.29-.17-.53-.33-.3-.64,1.54.67,3.13,1.48,4.71,2.03,1.96.68,4.65,1.43,6.69,1.67,2.71.32,5.47.33,8.19.65.63.07.95,1,.59,1.44-1,1.2-5.06,1.14-6.49.88-1.28-.23-2.31-.9-3.71-.94-1.24-.04-1.96.67-3.14.81-1.88.22-5.51-1.11-7.31-1.88.04-.28.25-.35.63-.22,1.08.48,2.23.77,3.38,1.04l.1.26c.11-.4,1.61-.37,1.79,0,.07-.49-.38-.81-1.35-.96-4.25-.76-7.73-3.22-11.19-5.68-1.22-1.08-2.51-1.93-3.88-2.56l-.21.15c-.56-.45-1.16-.84-1.78-1.19-.33.43-1.46-.13-1.83-.39-.59-1.42-1.03-2.64-1.31-4.18Z"/><path class="cls-117" d="M105.07,141.09c.12-.22.22-.47.36-.72.63-1.25,1.23-2.49,1.67-3.82.28-.99.51-2.01.84-2.99-.06-.05-.1-.1-.09-.14.45-1.47.94-2.77,1.95-3.95.64-.45-.17-3.2-.49-3.48-.35-.31-1.71.7-1.41,1.33l-.16.28c-1.99,1.22-3.11,3.07-4.16,5.11l-1.3,1.82c-.22.57-1.51,3.71-1.84,3.89-.38.2-.65-.52-.71-.81l-.36-1.53c-.1-1.77-.42-2.97-1.32-4.49-.59-1-1.09-1.72-1.37-.16-.13,1.36-.31,2.69-.55,3.99.29,1.45.61,2.89.96,4.33l-.12.13c-.26-.33-.41-.67-.54-1.07-.49-1.51-.63-2.94-.65-4.48-.02-1.63-.3-3.85-.13-5.38.06-.58.36-1.5,1.03-1.57,1.22-.13,1.73,1.81,2.17,2.67.27.53.88,1.02.86,1.76-.02,1.08.14.95.3,1.86.13.75-.27,1.91.7,2.27.54-1.22.74-2.4.69-3.73.49-.87.67-1.84,1.29-2.53.2-.22.57-.27.81-.62.43-.61.53-1.65.92-2.31.57-.97,2.4-1.83,2.86-2.87.11-.25-.02-.58.18-.78s.88-.37,1.16-.51c.26-.13.4-.35.72-.48,1.13-.43,2.23,0,2.42,1.24s-.23,2.65-.24,3.81c0,.72.39.78.1,1.64-.16.46-.97,1.55-1.33,1.89-.28.26-.55.24-.78.41-.98.73-1.89,5.96-2.55,7.49-.39.91-1.03,1.95-1.87,2.48Z"/><path class="cls-16" d="M77.6,143.6c-.04.18-.14.25-.31.23,1.18,3.07,2.3,6.22,3.24,9.47.02.62.16,1.17.41,1.64l.27-.14c.26-.37-2-7.2-2.29-7.92v-.66c1.5,2.66,2.15,5.75,2.95,8.69.2.75.51.8.2,1.69-.42,1.22-1.05.59-1.65-.12-1.98-2.36-3.8-6.88-4.6-9.85-.4-1.51-.53-3.11-.93-4.56-.31-1.13-.99-2.13-1.35-3.25.13-.13.32-.11.58.07.31-.53-1.8-4.21-2.19-4.88-1.17-2-2.6-4.2-4.27-5.78-.32-.02-.49-.04-.57-.39-.16-3.58-.05-7.69.48-11.23.31.47,0,1.09,0,1.61-.03,1.54.14,3.62.52,5.11.59,2.3,2.3,4.01,3.29,6.14s1.56,4.43,2.5,6.57c1.12,2.54,2.52,5.03,3.72,7.56Z"/><path class="cls-88" d="M54.08,2.54c.12.11.21.24.13.38-1.56,2.56-2.19,5.45-2.47,8.43l-.29.39c-.63,6.81-.92,13.74.18,20.53.46,2.84,1.06,5.66,2.57,8.01,1.26,3.9,2.34,6.84,4.18,10.51-.41.24-.8.36-1.19.36-5.97-11.91-9.39-26.21-7.51-39.58.32-2.3.86-3.77,1.89-5.81,0-.27.12-.55.36-.84.31-.48.65-1.01.84-1.55.46-.4.72-.62,1.31-.84Z"/><path class="cls-16" d="M60.77,137.5c.09-.02.24-.04.26.02.55,1.3,1.52,3.62,1.82,4.93.62,2.72,1.2,5.45,1.75,8.18.16.78.13-.4.11-.73-.2-1.25-.36-2.5-.49-3.74l.25-.18c.22.69.6,1.57.6,2.33v2.27c0,1.9,1.79,3.57,2.57,5.07.52.99.58,2.01.99,2.95s1.23,1.61,1.52,2.66c.19.68.42,3.35-.71,3.23-.82-.08-1.65-2.88-1.98-3.59.29-.35.22-.93-.23-1.74-1.71-3.44-3.33-6.98-4.83-10.62-1.06-1.64-1.73-2.89-2.16-4.78-.33-1.47-.67-3.23-.42-4.71.32-.52.63-1.04.96-1.55Z"/><path class="cls-87" d="M126.56,19.14c1.21-.95,2.42-1.93,3.58-2.92,2.46-2.1,4.65-4.6,7.72-5.89.11-.05.3-.26.4-.08-4.59,3.16-8.43,7.53-11.13,12.4-1.45,2.63-2.75,5.42-3.09,8.44l-2.86-2.39c.15-1.74.82-3.43,1.94-4.84l2.6-3.41-.09-.27.92-1.04Z"/><path class="cls-1" d="M55.27,2.3c.41.26.47,1.08.14,1.47-.19,1.52-.43,3.04-.72,4.54-2.05,6.7-2.22,13.65-2.12,20.62-.4.58-.7.38-.89-.6l-.2-.38c-.39-5.12-.4-10.25-.03-15.39-.05-.26-.05-.54,0-.84.34-2.67.52-4.71,1.65-7.25.31-.69.78-1.21.98-1.95.42-.15.74-.25,1.19-.24Z"/><path class="cls-16" d="M55.39,167.6l.5.91c3.56,4.04,7.2,8.01,10.92,11.88.21-.13.39-.13.52-.02-.83,2.51-4.35-.43-5.49-1.31.15-.31.85,0,1.14.12,1.37,1.31,2.78,1.1.69-.4-4.66-1.98-7.8-6.16-10.56-10.25-.08-.57-.34-.87-.79-.88-.28-.55-.48-1.13-.63-1.73.15-1.44.47-2.99.72-4.42.21.1.31.39.39.6.56,1.43,1.45,4.53,2.6,5.49Z"/><path class="cls-12" d="M73.78,34.19c.93.05,1.27-.28,1.45-1.19.79-.9,5.51-4.19,6.38-4.05,1.06.17.24.98-.18,1.36-.4.35-.82.7-1.23,1.03-1.01.82-2.03,1.64-3.05,2.44-3.63,2.13-6.09,4.99-8.29,8.48l-.2.05c-2.81,3.56-5.57,7.6-7.66,11.66-2.3,4.49-3.35,9.06-4.01,13.9-.18.76-1.45,1.45-1.71.6.52-3.46,1.62-6.96,2.99-10.15,1.44-4.1,3.78-7.79,6.16-11.41l4.25-6.18c-.63.5-1.22,1.07-1.78,1.71-.22.1-.33,0-.27-.24,2.19-3.02,4.46-5.44,7.16-8Z"/><path class="cls-47" d="M5.95,173.1c1.33,1.35,2.89,2.84,4.89,2.99.46.07.74.27.84.59,1.01.28,2,.59,2.79,1.31.66.03,1.27.36,1.85.98l.73.45c.08.04.16.08.24.12.8.47,1.51,1.02,2.15,1.67.01.03-.01.08,0,.12.11.32.47.47.85.64,3.3,1.5,6.11,2.55,9.57,3.57.27.08,1.81.5,1.88.57.21.19-.05.2-.17.24-.28.09-.63.09-.92.15-.85.17-1.01.17-1.92-.07-3.01-.8-6.76-2.14-9.49-3.65-1.33-.74-2.73-1.94-4.06-2.74-1.93-1.16-4.04-1.83-5.9-3.06s-3.81-2.96-5.53-4.45c-.13-.11-.28-.2-.43-.29-.16-.91-.21-1.47-.24-2.39.06-.23.38.19.42.24.79.95,1.55,2.19,2.45,2.99Z"/><path class="cls-4" d="M47.87,45.66c.42.09.15-.3.26-.46.03-.05.39-.17.44-.13l1.03,1.56c.12.2.59-.08.66-.01.04.04.11.91.12,1.08.94.06-.07-.89,0-1.43.22.07.63-.17.77,0,.24.26.63,1.61.7,2.02.14.8.2,3.87.73,4.33.1.09.29.07.43.2.16.15.45.87.53.87,1.1-1.58,1.08-3.24,2.51-.6.59-.35.76-1.22,1.37-1.43.17-.15.23-.09.12.12.36-.05.41.28.12.48l-.04.25c-1.24,1.13-2.16,2.73-2.91,4.24l-.15.04c-.45,1.18-1.01-.56-1.03-1.14l-.13-.42c-.44.2-.74-.03-.91-.7-.7-.65-.95-.71-.77-.15l-.25.25c.28.88.28,1.7,0,2.45.35.77-.57,1.27-.74.55-.49-2.71-1.14-5.33-1.95-7.84l-.42-.51c-.15-1.17-.35-2.38-.48-3.58Z"/><path class="cls-92" d="M89.55,34.79c.31.66.15,1.16-.59,1.27-.36.05-.59.03-1.02.1-2.48.42-6.17.52-8.32,1.29-1.07.38-1.41.37-2.48.62-.66.16-3.8,1.32-4.13,1.73-.36.45-.24.74-.96,1.19-.56.35-1.18.34-1.59.56-1.33.72-2.37,2.86-3.19,4.08-1.96,2.92-4.01,5.92-5.66,9.03-.47.88-1.95,3.34-1.57,4.22.43.99,1.03-.32,1.3-.43.12-.05.6-.12.52.16-.07.23-1.49,2.08-1.72,2.22-.51.3-.62-.14-.83-.11-.55.08-.71,2.14-.8,2.67-.24,1.38-.33,2.88-.65,4.25-.4,1.69-.9,2.87-2.8,3.22.04-.5.06-1.07.12-1.55.15-.12.31-.11.49.04.46.28,1.25-.94,1.32-1.18.73-5.26,1.83-10.31,4.45-14.98,1.34-2.39,2.84-4.7,4.35-6.99l.37-.3c1.32-1.71,2.6-3.44,3.84-5.2.47-.72,1.15-.97,1.94-1.2.61-1.08,1.81-1.52,2.97-1.79l.21.18c.04-.33.13-.37.36-.12.99-.46,2.07-.77,3.25-.92.66-.61,1.55-.89,2.66-.84l6.51-.51c.13-.18.36-.3.7-.35.34-.25.66-.37.97-.36Z"/><path class="cls-58" d="M124.42,35.87c.13.51.23,1.03.3,1.57.28.65.53,1.26.71,1.97s.31,1.35.44,2.04c.82,4.1,1.65,8.24,2.5,12.42,1.26,6.28,5.5,11.83,10.36,15.65l-.1.15c-.36.04-.82.19-1.19.24-.36-.61-1.07-.9-1.61-1.43-2.12-2.07-5.93-6.6-7.13-9.23-2.06-4.53-2.02-10.28-3.06-15.09-.43-1.99-1.32-3.76-1.99-5.66-.42-1.18-.95-2.68-.3-3.82.37.39.72.79,1.07,1.19Z"/><path class="cls-66" d="M136.6,134.52c-1.84,5.07-3.71,10.21-5.61,15.41-1.12,4.22-1.94,7.94-1.9,12.33.22,1.26.22,2.57-.03,3.91l-.62,4.65c-.27,2.61-.15,5.25.75,7.65-.18.04-.36.2-.58.1-2.06-3.36-2.21-7.3-2.04-11.15.09-2.21.36-4.57.72-6.75.22-.49.52.06.57.38,1.53-8.71,4.48-17.68,7.84-26.06.08-.19.18-.37.29-.55s.24-.35.37-.52c.1.17.19.4.24.6Z"/><path class="cls-20" d="M130.98,39.69c.21-.15.31-.16.46.07.48.73.81,1.94,1.19,2.76.59,1.26,1.36,2.43,1.75,3.86.25.88.23,1.82.53,2.69.28.8,1,2.07,1.4,2.89.28.58.08.25.21.87.25,1.26.96,1.92,1.66,2.9.43.61.62.92,1.1,1.52.66.83,1.04,1.75,1.37,2.75-.28.21-.55.41-.84.6-.32,0-1.04-.53-1.31-.79-2.82-2.79-4.63-6.02-5.38-9.84-.11-4.42.15-6.31-2.15-10.27Z"/><path class="cls-73" d="M30.55,177.99c1.23.5,2.76.65,4.09.72.08-.2.27-.32.56-.36,1.96-.02,4.03-.22,5.97-.48l4.3,1.97c.91.49,4.02.86,4.27,1.94.26,1.15-.41,1.18-1.35,1.11-1.66-.11-3.1-.83-4.6-1.37-2.97-1.07-6.6-1.36-9.85-2.33-1.44-.43-3.4-.43-4.59-1.44.39.09.8.17,1.19.24Z"/><path class="cls-16" d="M140.66,151.48c-.17.73-.82,1.24-1.2,1.85-1.13,1.83-1.31,4.26-2.37,6.11s-2.87,2.43-3.66,4.46c-.68,1.75-.91,4.16-2.04,5.72-.25.35-.7.55-.89.84-.09.26-.18.24-.4.19-1.1-.27-1.11-2.2-.79-3.06l.72-1.67c-.04.81-.12,1.63-.24,2.46-.07.2.49.79.54.77.55-.22,2.72-5.59,2.53-6.26-.28-.22-.55-.45-.79-.67.51-1.14.93-2.32,1.43-3.46.17.07.27.24.27.49,1.26-1.35,2.54-2.79,3.63-4.32.67-1.49,1.42-2.94,2.25-4.34.1-.8.36-1.14.78-1.03.11.64.16,1.27.24,1.91Z"/><path class="cls-16" d="M106.03,145.15c-.21.14-.31.05-.4-.15-.14-2.08-1.46-3.01-1.05-.24.9,3.16,1.89,6.34,2.91,9.49.39,1.21,1.09,2.94.65.69-.79-2.6-1.49-5.26-2.08-7.97-.05-.31,0-.49.33-.39.58,1.62,1.37,3.17,1.91,4.83s1.94,5.73.93,7.15c-.75,1.06-1.63-.31-2.03-1.03-1-1.8-2.67-5.33-2.95-7.32-.26-1.79.21-3.71-.73-5.3.39-1.03.73-1.99,1.19-2.99,1.53-.08,1.08,2.21,1.31,3.22Z"/><path class="cls-9" d="M5.24,161.03l.21-.1c.46-.8.99-1.56,1.59-2.26.62-1.15,1.39-2.53,2.56-3.19,1.52-.86,3.04-.36,1.27,1.04.55-.31,1.09-.4,1.62-.27l.89-.75c1.04-.8,3.37.58,2.23,1.77.67.46,1.45,1.48,1.21,2.33,0,.32-.15.64-.24.96-.38-.06-.48-.47-.78-.72-.16-.13-1.1-.88-1.17-.92-.17-.1-.51-.04-.66-.18-.18-.17-.09-.77-.44-1.05-.81-.67-1.27.23-1.82.34-.66.13-1.56-.63-1.56.91,0,1.33,1.51.93,1.41,2.09-.34.18-.59-.08-.9-.11-.51-.05-1.29.05-1.76-.15-.28-.12-.21-.39-.36-.54-1.24-1.28-2.22.67-3.07,1.33-.1.08-.4.31-.47.07.08-.2.15-.39.24-.6Z"/><path class="cls-39" d="M57.3,182.77c-.16-.55.61-.37.98-.28,1.27.34,2.51.77,3.78,1.22,2.69,1.06,5.45,2.13,8.14,2.86v.26c-.05.88.09,1.76.24,2.63-.94-.02-1.71-.55-2.56-.84-4.4-1.48-7.17-2.57-10.57-5.85Z"/><path class="cls-43" d="M96.95,139.89c-.06-1.51-1.05-3.37-.96-4.96.02-.38.22-.58.24-.84.07-.7-.08-3.69.92-3.87.18-.03.96,1.05,1.1,1.27,1.42,2.28.88,3.95,1.67,6.22.05.14.25.56.44.51.39-.1,1.41-3.25,1.71-3.79.2-.36.61-.81.86-1.17,1.17-1.62,1.72-3.36,3.26-4.79.29-.27,1.28-.88,1.4-1.05.16-.23.11-.58.22-.85.22-.57,1.02-.92,1.6-.77.25.06.93,2.41.91,2.79-.07,1.14-1.04,1.82-1.51,2.67-.35.63-.63,1.6-.87,2.3l-.24-.12c.18-1.12.53-2.3.95-3.4.01-.13-.12-.75-.16-.77-.4-.18-2.59.99-3.03,1.25-.06.04-.15.05-.22.03-1.18,2.73-2.37,5.36-4.33,7.61-.11.43-.34,1.28-.89,1.05-.64-.26-1.25-4.42-1.31-5.2-.12-.82-.86-2.11-1.76-1.41-.48-.32-.32.48-.24.84,0,.58,0,1.2-.05,1.74-.02.19-.06.29-.2.43.51,2.59.95,5.16,1.39,7.77.02.12-.05.19-.18.21-.09,0-.16,0-.16-.03-.34-1.03-.6-2.35-.55-3.44-.01-.14,0-.19,0-.24Z"/><path class="cls-10" d="M84.53,27.62c.25.14.07.41,0,.6-2.58,1.9-5.01,3.93-7.3,6.09.74-.19,1.56-.47,2.45-.83.36,0,.5.28.51.6l1.8-.48c.13.11.29.19.5.23l-.32.33c-2.19.59-4.37,1.36-6.29,2.57-.56.35-.64.58-.79,1.17-.55.18-1.61.47-2.15.79-.4.23-.65.83-.89,1-.22.16-.75.22-1.04.37-.8.4-2.55,3-3.14,3.77-.54.71-1.05,1.49-1.74,2.07l.02-.32c.76-1.14,1.6-2.22,2.49-3.26.93-1.33,2.05-3.25,3.04-4.42,2.44-2.88,7-4.98,9.58-7.56.36-.36,1.11-1.22.11-1.15-.75.05-5.39,3-5.92,3.64s-.19,1.67-1.68,1.37c.04-.04.08-.08.12-.12.61-.17.95-.5,1.19-1.07,3.06-2.69,5.48-4.18,9.43-5.37Z"/><path class="cls-118" d="M102.2,184.08c1.68,2.59,3.63,5.06,5.64,7.37,1.68,1.92,3.42,2.97,5.83,3.8l.23.29c.05.22.29,1.53.05,1.55-2.09-.38-3.83-1.04-5.65-2.1-.32-.19-.59-.48-.85-.65-1.35-2.11-2.81-4.14-4.37-6.1l-.53-1.07c-.38-1.45-.64-2.55-.84-4.06.27.18.51.63.48.96Z"/><path class="cls-76" d="M67.45,160.91c-1.04-2.25-2.26-3.52-3.22-6.09l-.38-.35c-.39-1.38-1.06-2.53-2.07-3.54-.48-.85-.81-1.78-1.01-2.79-.42-1.91-.95-2.9-1.2-5.07-.13-1.18-.39-2.18-.12-3.4.12-.2.24-.4.36-.6.13.84.14,1.7.27,2.53.16,1.03.48,2.88.83,3.83.37,1.02,1.26,2.07,1.75,3.14,1.35,2.96,2.63,5.98,3.94,8.96.24.54.68,1.13.88,1.63.08.2.43,1.34.44,1.48.02.27-.27.29-.46.27Z"/><path class="cls-82" d="M73.07,99.17c.79.17.31-.73,1.19-.48.1.6-.34,1.04-.54,1.55s-.84,1.99-.9,2.45c-.05.36.39.09.48.18.07.07-.05.65-.09.81-.51,2.27-2.29,5.29-3.08,7.67-.15.44-.64,2.86-.96,2.86-.06,0-.22-.28-.3-.23-.2.72-.62.55-.72-.12,1.1-4.84,2.74-10.23,4.9-14.69Z"/><path class="cls-85" d="M56.11,2.54c-.05.8-.41,1.57-.57,2.36-.31,1.59-.41,3.3-.68,4.93-.53,3.19-1.25,6.32-1.72,9.51-.56,3.83-.45,8.3-.14,12.16.11,1.34.54,2.52.3,3.89-.04.2-.01.42-.3.35-.66-2.21-1.2-4.58-1.41-6.88-.02-.17.03-.34.1-.52.21.25.32,1.06.67.54.11-3.78-.06-7.57.29-11.35.26-2.73.76-5.3,1.47-7.86.58-2.08.75-3.87,1.07-5.96.02-.12.18-.24.21-.4.04-.3-.2-.67-.12-1.01.45,0,.49.09.84.24Z"/><path class="cls-38" d="M124.53,96.54c.02.5,0,.89-.16,1.51-1.36,4.42-2.45,8.91-3.26,13.47-.36,1.75-2.3,2.01-1.77-.1.56-2.74,1.14-5.47,1.72-8.19.44-1.64.91-3.27,1.43-4.9.1-.57.17-1.17.48-1.67.67-.07.89-.27,1.55-.12Z"/><path class="cls-27" d="M138.51,11.38c.07.08.13.2.07.29-.6.97-.56,1.02.51.44,2.75-2.12,6.48-3.51,9.6-1.32.27.42.46.46.57.12,1.2,1.52,1.66,2.47,2.27,4.3-.4.78-1.23.45-1.72.61-.17.06-.16.33-.27.35-.72.13-1.72-1.68-1.59-2.21.1-.41.75.11.9.28.38.45.18,1.33.89,1.44.07-.08-.33-1.79-.43-2.02-.46-1.01-2.83-3.03-3.93-3.12-2.38-.21-4.45,1.47-6.33,2.63-.68.42-1.36,1.06-2.18,1.28-.92.25-.61-.74-.29-1.25.59-.96,1.16-1.21,1.94-1.82Z"/><path class="cls-11" d="M51.69,165.93c.35.37.46,1.21.78,1.56.16.18.45-.08.53,0,.04.03.18.71.31.95,1.19,2.1,5.08,6.72,6.99,8.18,1.22.93,3.53,1.79,4.33,2.59.25.24.15.48.31.65.12.13.44.14.48.18.34.34-.5.17-.54.18-.13.02-.21.2-.45.17-.41-.05-1.16-.73-1.56-.96l-1.04-.34c-3.07-2.37-6.87-5.38-8.72-8.84-.84-1.01-1.29-2.29-1.43-3.58.02-.23-.02-.48,0-.72Z"/><path class="cls-122" d="M130.86,54.86c-.07.08-.2.17-.26.11-.61-.55-1.63-4.35-1.82-5.35-.37-3.2-1.08-6.51-1.98-9.58l-.21-.11-.38-1.21c-.45,0-.86-1.05-.48-1.31,1.61,2.02,4.32,5.69,4.54,8.3.28,3.2-.06,5.8.59,9.14Z"/><path class="cls-17" d="M107.58,133.44c-.08.23-.45.49-.6.72-.29,0-.3-.19-.3-.44.29-.56.62-1.91-.32-1.19-.42,1.02-1.05,1.85-1.9,2.49-.32.42-1.04,1.53-.42,1.81-.51,1.04-1.2,1.98-2.06,2.82-1.35,3.03-2.32,3.4-2.9,1.12l-.58-2.42c-.36-1.75-.58-3.07-1.19-4.78.28-.63,1.19.03,1.31.59.43,2.02.82,4.05,1.16,6.07l.16-.1c1.47-2.56,3.1-4.98,4.9-7.27.33-1,.83-2.28,2.13-2.22.49.02,1.01.17,1.17.68.1.31-.4,1.78-.55,2.13Z"/><path class="cls-107" d="M136.36,133.92c-2.55,6.76-5.17,13.5-6.87,20.54-.38,1.57-.76,3.18-1.1,4.75-.03.16-.22,2.79-.75,2.29-.09-.2.04-.91-.36-.84.61-3.79,1.93-7.88,3.07-11.56,1.77-5.7,3.98-11.25,5.65-16.99l.36,1.79Z"/><path class="cls-100" d="M17.06,158.88c-.07.22,0,.54-.24.72.01-.46-.64-1.47-.95-1.85-.19-.23-.61-.2-.46-.69.05-.16.29-.26.33-.41.13-.49-1.2-1.27-1.7-1.2-.61.1-1.27.97-1.48,1.02-.18.04-.4-.12-.66-.08-.15.02-2.06.94-1.28.05.17-.2,1.62-1.24.31-1.14-1.43.11-2.39,1.34-3.08,2.42-.64,1-1.34,1.86-1.89,2.89-.08.15-.49.8-.72.42.32-.75.59-1.3.96-2.03.25-.11.45-.35.58-.59.53-1.37,1.31-2.63,2.37-3.66-.15-.11-.22-.25-.2-.41.34-.47.55-.76.96-1.19.26.07.54.21.84.43,1.5-.24,2.99-.04,4.12,1.07,1.22-.49,2.93,1.42,1.99,2.45.05.59.12,1.18.21,1.78Z"/><path class="cls-104" d="M139.82,60.59c-.31.2-1.8,1.19-2.04,1.14-1.58-1.22-2.68-2.64-3.37-4.51-.89-2.42-1.22-4.69-1.28-7.26.33.29.28.83.46,1.27.37.94.61,1.27.91,2.31.58,1.98,2.64,4.62,4.12,6.03.36.35.94.54,1.2,1.01Z"/><path class="cls-36" d="M77.01,186.23c-.35.01-.85.15-1.19.24-.12-.03-.21-.09-.28-.19-.57-.81.81-4.24,1.25-5.13.32-.59.14-1.11-.53-1.57l.15-.28c1.87-1.69,2.26-2.34,2.51-4.9,1.73.38,1.23,2.16.84,3.41-.67,2.16-1.85,4.41-2.46,6.62-.15.53-.13,1.24-.29,1.8Z"/><path class="cls-101" d="M57.66,55.21c-.17.43-.32.88-.48,1.31-.24.18-.59.3-1.03.35-.55.79-1.14,1.54-1.76,2.26.19,1.5.38,3.04.28,4.55-.16.59-.35,1.32-.48,1.91-.35-.03-.51-.33-.49-.89.1-2.34-.27-2.5-1.14-.47l-.53.48c-.05.64-.46,1.93-1.07,1.01-.51-2.9-.97-5.81-1.43-8.72-.03-.3.05-.37.34-.27.46.17,1.37,5.38,1.46,6.22.24,1.52.83-.73.72-1.28l.19-.37c-.12-.6-.02-1.06.31-1.4.8.15,1.13-.78,1.18-1.45.21-.14.42-.28.63-.43.49-1.09,1.01-2.17,1.73-3.12.44-.86,1.56-.62,1.56.3Z"/><path class="cls-114" d="M96.95,132.61c.07-.64.71-.52,1.12-.22,1.08.81.92,2.45,1.11,3.58.08.51.63,3.09,1.06,3.08.39-.24.31-.72.49-1.06.39-.76,1.39-1.51,1.8-2.38.34-.72.32-.81.78-1.49.64-.95,1.12-2.73,1.79-3.76.9-.16,1.61-.91,2.48-1.17.14-.04,1.03-.2,1.07-.17.05.03.32.94.22,1.1l-1.17,3.32h-.12c.07-.19.33-1.78.33-2,0-.45-.73-.62-1.1-.57-1.64.25-1.32,1.79-2.18,2.78-.61.69-.66.65-1.23,1.5-.82,1.23-1.82,2.6-2.61,3.87-.31.5-.43,1.45-1.15,1.48-.17,0-.49-2.99-.55-3.27-.1-.5-.32-1-.44-1.47-.2-.82.01-2.36-1.34-2.18-.11-.31-.4-.59-.36-.96Z"/><path class="cls-122" d="M50.97,65.72c.85.45.68-.86.9-1.19.13-.19.37-.25.52-.44.22-.3.89-1.99,1.3-1.45.45.59.01,2.28.5,2.96-.55,2.47-.84,5.12-.96,7.64l-.57-1.16c-.84-2.13-1.31-4.13-1.7-6.36Z"/><path class="cls-106" d="M64.47,145.98c-.1,1.07.79,4.2.42,5.01-.07.14-.25.27-.42.24-.52-2.92-1.21-5.82-1.85-8.72l-1.85-5.01c.42-.66.88-1.27,1.31-1.91,0,1.69,1.21,3.2,1.4,4.75.3,2.4.21,3.22.99,5.64Z"/><path class="cls-81" d="M146.51,8.75c.76.51,1.52,1.03,2.27,1.55.22.24.3.37.48.6,0,.55.55.84.72,1.31-.32.25-1.2-1.07-1.44-1.25-.6-.46-1.92-.98-2.68-1.02-1.76-.09-3.03.17-4.59,1.02-.73.4-2.18,1.6-2.95,1.71-.14.02-.27.01-.41,0-.11-.61.26-.89.6-1.31.63-.49,1.17-1.07,1.79-1.55,1.73-1.37,4.1-1.84,6.21-1.07Z"/><path class="cls-11" d="M98.02,167.12c-.22,1.47-.55,2.94-.72,4.42-.46,2.39-1.28,4.59-2.33,6.86l-.21.7c-.03.69-.57,2.63-1.04,1.28-.05-.09-.09-.18-.12-.27-.03-.09-.04-.18-.03-.26.15-1.26.31-2.51.51-3.77.52-1.92,1.19-3.09,1.88-4.87.47-1.21.77-2.48,1.19-3.7.15-.28.58-.29.87-.39Z"/><path class="cls-108" d="M58.26,58.32c1.76-5.81,4.81-11.24,8.36-16.12.04.24.32-.13.36-.18.25-.27,1.48-1.62,1.73-1.61.09,0,.24.28.18.41-1.43,2.23-3.07,4.36-4.51,6.6-2.21,3.42-4.53,7.19-6.11,10.91Z"/><path class="cls-124" d="M79.4,93.31c-.16-.16-.09-.2.12-.12.51-.13,1.05-.07,1.61.16,1.76.1,3.48.29,5.09,1.08.29.14,2,1.15,2.07,1.25.05.07.06.16.08.25.36.27.68.73.1.95-.92.35-5.82-1.4-6.98-1.86-.03-.24-.12-.25-.29-.16-2.27-.64-4.53-1.29-6.81-1.91l-.32-.23c-.32-.05-1.41-.49-.8-.81.3-.15,4.84,1.34,5.62,1.65.49.13.66.05.52-.24Z"/><path class="cls-72" d="M140.3,148.73c.05.27.07.56.12.84-.47.21-.39.76-.58,1.16-.67,1.48-1.73,2.77-2.24,4.33-1.07,1.57-2.39,2.94-3.63,4.37-.46.25-.54-.3-.48-.66.22-.51.46-1.2.72-1.67.04-.44.2-.72.48-.84l1.08-1.86.23-.05c1.18-1.9,2.41-3.81,3.68-5.73.25-.12.52-.2.62.11Z"/><path class="cls-79" d="M106.98,134.16c-.24,1.02-.7,2.07-1.19,2.99-.26-.09-.34-.35-.22-.8,1.51-4.07-.68-.28-1.11,1.14-.73,1.23-1.57,2.39-2.51,3.49l-1.02,2.39c-.16.47-.63,1.16-1.11.82-.41-1.95-.91-3.89-1.31-5.85.42.78.31,1.64.66,2.51.04.11.6,1.1.65,1.14.67.5,1.67-1.98,1.92-2.4.35-.57.74-.81,1.15-1.29.38-.45.63-.99,1-1.45l-.48-.18c-.07-.07.74-1.61.83-1.73.23-.31.95-.77,1.18-1.09.3-.42.65-1.88,1.39-1.8.07,0,.45.37.48.44.08.17-.32,1.07-.36,1.26-.02.11.09.31.06.41Z"/><path class="cls-97" d="M130.98,150.52l.1.23c-1.02,4.3-1.99,8.43-1.29,12.86.12,1.1,0,2.11-.37,3.15-.02.09-.09.18-.12.36-.25,1.26-.25,2.35.28,3.56.07,1.36-.12,2.72-.6,4.09-.24,1.05-.1,2.01.44,2.91.19.36.15.62-.12.78-.04.01-.08,0-.12,0-.4-.69-.63-1.47-.8-2.24-1-4.57.68-8.75.62-13.22,0-.25-.16-.49-.17-.72-.09-4.41.85-8.13,2.14-12.35.09.13.09.33,0,.6Z"/><path class="cls-24" d="M70.56,185.04c-.07.24-.19.72-.24.96-4.83-1.85-9.64-3.64-14.43-5.38-.21.27-.42.27-.62,0-.43-.58-.73-1.18-1.07-1.79.06-.24.3.13.35.18.1.1.2.39.31.41.14.03.32-.3.53-.19,2.44.97,4.92,1.85,7.37,2.8.92.36,1.85.91,2.79,1.27,1.64.63,3.39,1.03,5.01,1.73Z"/><path class="cls-12" d="M105.79,137.15c-.19,1.19-2.91,5.58-3.6,7.2-.61,1.43-1.2,2.99-1.53,4.5-.25-.1-.2-.62-.24-.84.4-1.86,1.09-3.66,2.07-5.38l.31-1.28c-.83,1.27-1.64,2.55-2.43,3.84l-.31.07c-.07-.34-.16-.72-.24-1.07l.6-.33c.57-1.01.88-2.39,1.52-3.34.56-.83,1.32-1.41,1.91-2.39.64-1.06,1.01-2.61,1.7-3.44.18-.22.69-.66.82-.11.02.09-.48,1.4-.55,1.69-.08.36-.02.77-.04.86Z"/><path class="cls-16" d="M79.51,93.07c.1.03.1.07,0,.12l-.12.12-.66.04c-2.5-.73-5.01-1.37-7.53-1.92.3.21.44.44.43.68-3.03-.94-6.16-2.28-8.83-4.01-.3-.2-1.99-1.36-2.04-1.55-.06-.27.86-.63,1.07-.77,3.89,3.03,8.72,4.99,13.47,6.3,1.14.31,3.1.99,4.21.99Z"/><path class="cls-65" d="M125.73,37.42c.07.49.26.88.48,1.31,1.04,3.46,1.71,7.05,2.25,10.68.04.23,0,.46-.1.67.77,4.6,1.97,8.3,4.67,12.11,1.6,2.26,3.51,4.75,5.85,6.14.39.3.87.75.94,1.22-.16.02-.32.1-.48.12-.58-.56-1.23-1.06-1.92-1.5-4.78-4.51-8.58-9.99-9.34-16.78-.58-4.55-1.52-8.97-2.83-13.25-.49-.05-.73-1.37-.12-1.43.2.24.4.47.6.72Z"/><path class="cls-32" d="M48.82,52.71c.41-.23.54.11.64.48.45,2.33,1.06,4.62,1.83,6.86.12,1.53.38,1.06.76-1.41.55-.44,1.14-.87,1.84-.98.23.34.51-.12.66-.41-.1-.03-.1-.07,0-.12.3-.77,1.71-3.51,2.31-3.83.41-.22,1.4-.1,1.27.49-.16.42-.3.97-.48,1.43-.3-.25-.49-.73-.99-.58-.1.03-1.05,1.09-1.14,1.26-.41.77-.77,1.72-1.21,2.47-.08.14-.3.04-.34.09-.06.07.01.34-.05.49-.05.13-.53,1.11-.58,1.15-.02.02-.15-.1-.2-.07-.03.02-.02.21-.09.21-.11,0-.33-.18-.41-.12-.31.22-.13,1.03-.16,1.23-.01.1-.17.22-.2.38-.1.58.05,1.06-.31,1.6-.41.62-.68.67-.84-.11-.33-1.68-.51-4.65-1.3-6.11-.12-.23-.02-.3-.31-.1-.23-1.43-.5-2.86-.72-4.3Z"/><path class="cls-43" d="M101.61,181.7c.32-.03.31-.05.42.24.77,2.05,1.92,3.64,3.29,5.31.97,1.19,2.31,2.59,3.46,3.59,3.45,2.98,7.91,3.73,12.3,4.36.05.15.07.32.12.48,0,.09-.04.23-.1.24-1.45.16-5.59-.08-6.4-.85-.07-.07-.13-.15-.19-.23-.09-.25-.37-.78-.6-.89-.18-.09-.55-.2-.48.18l-.36.14c-2.95-.97-5.14-3.31-7.14-5.59-1.62-1.84-3.38-3.9-4.32-6.13-.03-.27.03-.57,0-.84Z"/><path class="cls-57" d="M125.13,36.7c-.27.46,0,.97.12,1.43,1.3,4.3,2.23,8.69,2.81,13.18.85,4.44,1.65,7.36,4.26,10.98,1.8,2.5,3.84,5.1,6.38,6.78.17.15.5.47.28.59-.12.01-.24-.01-.36,0-.29-.51-.91-.63-1.29-.92-1.52-1.19-4.99-5.43-5.96-7.09-.66-1.12-1.2-1.83-1.72-3.13-1.63-4.12-2.48-9.23-3.29-13.91-.17-.98-.33-1.52-.57-2.56-.15-.65-.19-1.07-.19-1.59,0-.07-.2-.06-.23-.16-.11-.31-.03-.64-.09-.87-.05-.18-.29-.41-.35-.71-.04-.18.1-.39.05-.46-.03-.05-.22-.05-.29-.19-.32-.67-.47-1.49-.29-2.22.25.28.48.55.72.84Z"/><path class="cls-112" d="M68.65,42.31c-.86,1.22-1.71,2.31-2.51,3.58-1.43,2.28-3.04,4.69-4.45,7.08-2.68,4.53-3.75,10.17-4.52,15.28-.37.3-.42.87-.79,1.14-.44.33-.83.27-1.22-.09.03-.27.08-.57.12-.84.98.45,1.44-.31,1.64-1.17.37-1.59.37-3.44.81-5.17,1.47-5.84,4.24-10.51,7.49-15.44,1-1.53,2.12-3.13,3.44-4.38Z"/><path class="cls-11" d="M67.1,127.83c.17.15.59.12.71.19.88.47,3.39,4.33,4.05,5.39.59.95,2.48,4.28,2.52,5.25.03.77-.38.5-.83.17-.08-.06-.16-.16-.24-.24-1.53-3.39-3.52-6.6-5.98-9.45l-.11-.34c-.02-.33-.11-.69-.12-.96Z"/><path class="cls-115" d="M73.19,31.92c.13-1.33-.7-2.45-1.05-3.67-.25-.87-.44-2.02-.71-2.88-.31-.98-1.02-1.17-.16-2.41.97,1.68,1.99,3.39,2.77,5.17.32.72.45,1.55.92,2.19l-.04.16c-.51.47-1.26.97-1.74,1.43Z"/><path class="cls-43" d="M77.72,187.55c.15.3.21.87.35,1.11.13.21.68.69.79,1.03.1.31,0,.62.12.96.18.56.74,1.14,1.25,1.44-.47.49-.8,1.38-.96,2.03-.08.03-.14.05-.19.03-.77-.48-1.47-1.31-2.04-2-.48-1.35-.82-2.72-1-4.12.32-.14.55-.31.95-.42.26-.08.54,0,.72-.05Z"/><path class="cls-112" d="M48.35,49.24c.52-.32.94,1.12,1.04,1.52.07.28.01.58.08.88.47,1.95.95,3.93,1.37,5.9l.19.18c.49-.07.16-.38.18-.65s.25-.44.24-.83c0-.32-.27-1.69-.25-1.78.02-.12.26-.11.31-.19.06-.11-.11-.32-.01-.48.03-.05.35-.24.37-.24.13.01.14.36.22.44.03.04.44.16.6.4.15.21.15.69.5.71.06,0,.23-.76.56.4.13.47.06,2,.82,1.27.12.06.12.17,0,.36,0,.04,0,.08,0,.12-.59,1.25-.9.25-1.15-.62-.78-.45-1.38,1.76-1.52,2.29,0,.57-.03,1.3-.77.89l-.62-2.25c-.38-2.31-1.01-4.49-1.9-6.53-.08-.6-.16-1.2-.24-1.79Z"/><path class="cls-56" d="M129.31,167.6c0,1.01-.25,2.87,1.19,2.87-.17.27.02,2.27,0,2.81-.03.76-.06,1.76-.13,2.5-.07.79-.33,1.54-.36,2.33-.18.06-.43.27-.72.36.1-.64-.44-1.18-.57-1.76-.45-1.97.81-3.84.67-5.57-.06-.75-.44-1.49-.45-2.3,0-.61.25-1.22.35-1.72v.48Z"/><path class="cls-46" d="M74.38,188.98l.25.03c.35,2.09,2.15,4.08,3.7,5.46.41.18.69.42.82.72-.06.34-.25.72-.3,1.07-1.94-1.04-4.57-2.99-5.42-5.09-.48-1.18.04-1.47.94-2.19Z"/><path class="cls-98" d="M126.8,40.05c.97,3.54,1.72,7.12,2.26,10.74l1.64,5.14c.21,1.2.66,2.28,1.36,3.23.14.35.28.72.48,1.07,1.44,3.06,4.22,5.59,6.85,7.7.44.4,1.16,1.1,1.27,1.62-.15.02-.33-.02-.48,0-.4-.24-.75-.59-1.06-1.03-2.45-1.46-4.27-3.81-5.94-6.1-2.82-3.86-4.02-7.64-4.83-12.34-.32-2.02-.46-4.11-.87-6.12-.36-1.76-1.13-3.43-1.28-5.23.26.52.5.54.6,1.31Z"/><path class="cls-35" d="M81.19,94.87s.12-.13.19-.11c2.38.62,4.69,2.01,7.21,1.9l-.24-.72c.17-.22.35.04.48.24.77.68.97,1,.96,2.03-.02.08-.06.12-.12.12h-.29c-.04-.77-.57-.84-1.02-.29-.77-.03-1.53-.23-2.29-.59-.81-.02-5.57-1.29-5.64-1.85l.17-.25c.24-.05.47.03.71-.18s.17-.35-.12-.29Z"/><path class="cls-70" d="M79.75,95.46c.47-.04.66.12.98.4,1.27.58,2.59,1.03,3.96,1.35.79.2,2.11,1.01,1.24,1.71l.03.24c.16.16.1.16-.12.12-1.14-.5-2.34-1.22-3.47-1.61-1.5-.52-3.23-.78-4.75-1.23-.6-.18-1.17-.42-1.7-.75,1.49.15,2.37,0,3.82-.24Z"/><path class="cls-11" d="M80.59,95.34c-.03.3.62.56.84.65,1.58.64,2.78.93,4.43,1.17.66.09,1.75.71,2.32.69.26,0,.2-.58,1.04-.33.41.12.22.56.44.81.34,1.99-2.67,1.58-3.7.84-.9-.3-.8-.5.12-.48-.1-.23-.5-.1,0-.3-.2-.15-.4-.49-.6-.59-1.44-.71-3.46-1-4.98-1.83-.24-.13-.31-.46-.74-.51.3-.05.5-.05.84-.12Z"/><path class="cls-35" d="M97.19,177.04c.04.54-.08.82-.36.84-.34.49-2.76,3.84-3.03,3.9-.11.03-.22-.03-.32-.08.09-.4.18-.91.24-1.31.09.07.39.32.48.24.22-.62.23-1.28.42-1.91.51-1.64,1.42-3.12,1.93-4.88.2-.7.24-1.73.75-2.29-.21,1.86-.38,3.63-.12,5.49Z"/><path class="cls-87" d="M123.34,21.41l-.1.4c-1.83,1.37-2.89,3.27-3.6,5.42l-.36.27c-.95-.57-1.98-1.06-2.87-1.67l6.93-4.42Z"/><path class="cls-107" d="M132.54,60.23c1.86,3.35,4.47,4.44,7.1,6.81.78.7,1.27,1.26,1.49,2.33,0,.03-.41.17-.48.18-.71-.53-1.26-1.4-1.97-1.91-2.14-1.55-4.32-3.9-5.72-6.22-.22-.36-.52-.72-.43-1.18Z"/><path class="cls-17" d="M76.41,179.31c.12.56.86.6.79,1.19-.12.99-1.09,2.54-1.33,3.7-.15.7-.21,1.57-.05,2.28-.37.1-.61.2-.96.36-.41-.43-.35-1.55-.31-2.2s.17-1.03.44-1.6c-.21-.59-.22-1.06-.04-1.42-.13-.47-.18-.84.15-1.23.44-.43.94-.73,1.31-1.07Z"/><path class="cls-98" d="M57.18,56.53c-.84,2.29-1.86,4.84-2.51,7.17-.33-1.5-.29-3.08-.49-4.61.39-.35.54-.78.86-1.18.2-.26.49-.47.71-.72.11-.12.12-.35.24-.48.27-.27.84-.17,1.19-.18Z"/><path class="cls-9" d="M139.58,145.98c-.3.81-.7,1.64-1.2,2.49-1.08,2.68-2.31,5.27-3.7,7.78-.17.27-.33.56-.48.84-.02-.24,0-.47.08-.7,1.27-3.84,2.63-7.65,4.67-11.21.1-.17.18-.32.38-.39.1.4.15.82.24,1.19Z"/><path class="cls-32" d="M70.32,186.35c-.02.18-.12.45-.12.48-.18-.19-.27-.16-.48-.18-.46-.05-1.41-.39-2.03-.59-2.43-.8-4.8-1.86-7.26-2.65-.69-.22-1.71-.59-2.38-.72-.21-.04-.6-.12-.75.09-.27-.26-.55-.53-.84-.84-.14-.4-.07-.67.19-.8,4.4,1.78,8.87,3.45,13.39,5.01l.27.21Z"/><path class="cls-110" d="M124.89,20.34l.06.29c-1.18,1.44-2.33,3.07-3.25,4.69-.49.86-.82,1.68-1.04,2.65l-.3.14c-.28-.19-.76-.4-1.07-.6.49-1.3.96-2.64,1.76-3.79.62-.88,1.48-1.61,2.3-2.3.47-.4.93-.87,1.55-1.07Z"/><path class="cls-57" d="M125.25,38.13c.29.2.39.66.51.98,2.2,5.97,1.74,13.89,4.48,19.64,1.21,2.53,4.76,7.12,6.84,9.05.44.41,1.2.71,1.54.98.2.16.49.67.72.88-.12.01-.24-.01-.36,0,0-.25-.42-.51-.61-.65-1.52-1.11-2.27-1.96-3.45-3.35-3.31-3.9-5.05-6.18-6.27-11.28-1.3-5.43-1.96-10.8-3.4-16.25Z"/><path class="cls-107" d="M130.86,54.86c.28,1.42.65,2.93,1.19,4.3-1.2-.68-1.25-2.22-1.67-3.41-1.19-3.37-1.67-5.83-2.26-9.2-.38-2.17-1.07-4.37-1.33-6.5.3.32.44.98.56,1.41.55,1.88,1.04,4.03,1.33,5.95.11.74.04,1.68.2,2.44.25,1.16,1.12,3.32,1.58,4.5.08.2.18.42.38.51Z"/><path class="cls-22" d="M4.64,176.44l1.55.48c.02-.09-.03-.33,0-.36.26-.25,1.93,1.09,2.27,1.31.45.15.91.33,1.3.61,2.89,2.08,5.79,4.16,8.66,6.16.34.25.28.6-.14.7-.56.15-3.01-1.87-3.49-2.33-.25-.02-.49-.08-.71-.2-2.43-1.99-5-3.75-7.69-5.28-.65-.21-1.24-.5-1.76-.85-.02-.06.02-.18,0-.24Z"/><path class="cls-90" d="M17.54,154.11c.09.4.24,1.14-.36,1.05-1.48-1.35-3.14-2.61-4.98-3.44l-.15-.25c.21-.1.35-.27.65-.36,2.26-.74,4.23.91,4.84,2.99Z"/><path class="cls-79" d="M102.56,187.19l3.16,4.07c.44,1.09,1.51,1.96,1.74,3.1-3.46-2.26-3.85-3.16-4.9-7.17Z"/><path class="cls-33" d="M14.79,183.01c.97.95,2.06,1.72,3.27,2.3.11.09.04.21-.04.33-3.99-1.23-6.71-4.89-10.11-7.02-.95-.59-1.93-1.17-3.02-1.46-.08-.16-.17-.31-.24-.48,2.12.58,3.95,1.8,5.72,3.05,1.49,1.06,2.89,2.24,4.43,3.28Z"/><path class="cls-96" d="M102.2,184.08c1.17,1.45,2.35,2.9,3.53,4.36,2.17,2.47,4.49,5.01,7.67,6l.27.27c.11.27.18.55.24.84-.67-.11-1.1-.4-1.68-.65-3.3-1.39-3.98-2.55-6.15-5.31-1.39-1.78-2.93-3.46-3.87-5.51Z"/><path class="cls-112" d="M48.59,51.03c.51.15.77,1.15.92,1.65.48,1.61.69,3.45,1.12,5.08.16.61.41,1.31.58,1.93.65.11.36-.52.4-.7.09-.35.79-2.35,1-2.48.17-.1.84-.18.98-.09.12.08.25,1.15.55,1.29l.42-.48c-.03.14-.32.81-.36.84-.08.05-.18-.2-.29-.2-.04,0-.66.22-.69.23-.09.05-.99.65-1.03.7-.02.04.08.18.06.26-.13.46-.25.87-.3,1.35-.02.14.11.36.1.39s-.49.34-.52.34c-.49.04-.29-.47-.35-.68-.59-2.07-1.03-4.19-1.66-6.21-.16-.52-.04-1.27-.68-1.55-.08-.56-.16-1.11-.24-1.67Z"/><path class="cls-99" d="M12.04,151.48c.23-.02.4.08.6.17,1.18.57,3,1.82,4,2.69.16.14.26.47.42.54.48.24.56-.43.48-.78.23.79.32,1.3.24,2.15-.22.33-.47.11-.77-.66-.81-.79-1.99-1.58-3.06-2.03-1,.07-1.95-.05-2.83-.36-.61.14-.94.04-.98-.3.78-.79.89-.94,1.91-1.43Z"/><path class="cls-74" d="M52.41,179.19c.03.15-.03.29-.19.43-.22.7,1.65,3.57,2.34,4.09l-.12.25c-.17.1-.34.16-.48.24-.82-1.12-1.68-2.12-2.29-3.38-.54-1.11-.85-2.32-1.33-3.45-.18-.43-.56-.74-.44-1.29.4-.08.81-.11,1.19-.24.41,1.11.77,2.3,1.31,3.35Z"/><path class="cls-40" d="M10.13,152.91c.35.24.68,0,1.05.07s.59.34.92.4c.54.09.99-.14,1.41-.11,1.25.09,1.67.75,2.59,1.37s.75.12,1.35,1.29c.08.17,0,.4.32.33-.08.9-.45,1.78-.72,2.63-.19-.62-.66-1.08-.45-1.82.08-.28.42-.4.31-.84-.04-.15-.83-1.28-.93-1.34-.36-.22-.97.07-1.2,0-.13-.05-.65-.52-.89-.65-.43-.24-1.31-.56-1.79-.57-.83-.03-1.55.66-2.21-.5.08-.09.16-.16.24-.24Z"/><path class="cls-55" d="M79.4,93.31c.12.04.59.23.59.3-.82.62-1.97-.16-2.89-.45-.98-.3-2.67-.94-3.62-1.04-.28-.03-.3,0-.03.15.31.16.89.26.93.69-.91-.25-1.92-.37-2.75-.84-.47-.26-.6-.58-.91-.82-.25-.19-3.86-2.06-4.09-2.1s-.49.15-.73,0c-.35-.44.52.15.48-.18-.27-.14-1.09-.29-1.19-.54-.06-.15.02-.22.18-.18,1.84.79,3.8,2.19,5.68,2.8,2.65.86,5.72,1.36,8.35,2.21Z"/><path class="cls-30" d="M121.31,196.51c-2.01.79-4.43,1-6.56.71.05-.58-.04-1.1-.13-1.67l.15-.21c2.01.59,4.02.68,6.14.7.28.02.54.2.39.46Z"/><path class="cls-111" d="M84.77,197.82c-.81-.07-1.43-.06-2.27-.24l-.14-.09c-.23-.89-.84-1.55-1.83-1.99l-.07-.31c.17-.88-.02-1,.6-1.79.89.4.95,1.24,1.49,1.91.66.82,2.03,1.38,2.21,2.5Z"/><path class="cls-6" d="M100.41,148.01c-.13-.88-.2-1.89-.36-2.75.12-.24.26-.5.42-.71.84-1.09,1.03-1.97,1.96-3.08.1-.12.47-1.01.6-.21.02.12-.27,1.28-.34,1.45-.47,1.16-1.39,2.7-1.75,3.86-.18.56.04,1.02-.54,1.43Z"/><path class="cls-57" d="M76.05,188.03c.55.27.31.66.38.98.16.64.57,2.62.84,3.05.03.04.49.58.61.71.38.45,1,.88,1.39,1.35-.03.13-.1.26-.12.36-1.23-.34-2.43-1.63-3.2-2.67-.49-.67-1.14-1.72-.96-2.51-.33-.26-.38-.48-.13-.68.4-.27.76-.41,1.19-.6Z"/><path class="cls-31" d="M74.02,187.31c-.47.35-1.01.86-1.2,1.43-.16.04-.14-.12-.18-.24-.08-.27-.16-.67-.18-.96.41-.92.47-1.77.24-2.75.34-1.54.59-2.23,1.55-3.46l.23.12c-.07,1.85-.15,3.7-.23,5.55l-.24.3Z"/><path class="cls-71" d="M139.82,146.82c.14.63.36,1.28.48,1.91l-.48.05c-.95,1.64-2.06,3.2-3.13,4.76-.19.29-.55.59-.69.8v-.45c1.02-2.41,2.12-4.76,3.32-7.05.17-.27.36-.34.5-.02Z"/><path class="cls-64" d="M125.73,20.46l-2.56,3.35c-1.22,1.44-1.68,3.02-2.06,4.76h-.15c-.21-.14-.46-.38-.6-.47.27-.72.34-1.39.71-2.09.74-1.4,2.75-4.6,3.82-5.67.52-.52,1.14-.78,1.67-1.19-.12.5-.52.92-.84,1.31Z"/><path class="cls-65" d="M52.41,179.19c.71,1.35,1.67,2.43,2.63,3.55.68.79.02.86-.6,1.22-.22-.4-.7-.66-.95-1.02-.19-.26-.26-.61-.43-.88-.39-.63-1.83-2.47-.64-2.88Z"/><path class="cls-45" d="M75.1,180.38c-.19.29.14,1.27.1,1.37-.02.06-.19.05-.22.14-.04.17.26.69.25,1.06-.01.52-.3.62-.36.96-.18.88-.03,2.02,0,2.92-.29.14-.57.28-.84.48l.24-5.97c.3-.39.48-.61.84-.96Z"/><path class="cls-53" d="M101.61,182.53c.37.18.3.59.48.9,1.7,3.01,6.24,8.08,9.21,9.78.65.37,1.42.7,2.13.91,0,.23.16.4.24.6-1.68-.31-3.24-1.37-4.53-2.46-.96-.8-1.78-1.75-2.58-2.67-1.54-1.77-2.93-3.64-4.35-5.5-.15-.32-.3-.65-.48-.96-.02-.17-.09-.36-.12-.6Z"/><path class="cls-48" d="M136.6,134.52c.02.07-.02.17,0,.24-.31.78-.53,1.59-.78,2.38-.72,2.32-1.57,4.64-2.44,6.93l-.23.84c-.86,1.71-1.45,3.53-1.94,5.39l-.22.23c.03-.18-.02-.41,0-.6,1.49-4.91,3.4-9.89,5.17-14.72.07-.2.15-.75.45-.69Z"/><path class="cls-49" d="M98.86,144.67c-.47.24-.89-.71-1.01-1.13-.3-2.24-.71-4.47-1.22-6.68-.1-.5-.1-1.89.56-1.75.66,3,1.15,6.47,1.67,9.55Z"/><path class="cls-112" d="M55.27,180.62c.32.13.35-.21.44-.23.49-.13,1.09.46,1.51.61,3.63,1.28,7.02,2.59,10.62,3.94.84.31,1.68.66,2.47,1.05,0,.04,0,.08,0,.12l-.06.1c-4.66-1.66-9.28-3.36-13.87-5.1-.05.26-.18.38-.4.34-.24-.28-.5-.54-.72-.84Z"/><path class="cls-112" d="M97.19,135.12c-.51.52-.41,1.81-.27,2.48.23,1.13.45,2.12.65,3.29.21,1.25.22,3,1.3,3.78.19,1.11.27,2.24.48,3.34-.12,0-.22-.05-.25-.16-.39-1.62-.7-2.66-1.54-4.11l.12-.15c.14-1.03-.3-1.96-.47-2.94-.07-.41.04-.88-.02-1.29-.17-1.1-1.04-2.75-.95-3.94,0-.08.23-.05.23-.12,0-.07-.12-.2-.09-.35.08-.51.19-1.02.35-1.51.12.53.34,1.07.48,1.67Z"/><path class="cls-26" d="M139.82,146.82c-.32-.02-.3.19-.39.38-1.2,2.37-2.44,4.71-3.43,7.14-.43.62-.92,1.28-1.31,1.91,1.62-3.04,2.62-6.39,4.25-9.42.14-.27.38-.69.64-.85.06.25.17.53.24.84Z"/><path class="cls-109" d="M74.86,188.62c-.05.25.35.53.36.56.07.33-.1.53-.11.7,0,.06.22.03.23.12.08,1.09,1.76,2.88,2.79,3.71.26.21.82.38,1.03.76-.04.2.04.5,0,.72-.45-.14-1.01-.54-1.37-.84-1.07-.9-2.43-2.96-3.11-4.06-.08-.14-.23-1.06-.3-1.31.15-.12.31-.25.48-.36Z"/><path class="cls-112" d="M70.32,186.11c-.01.07,0,.16,0,.24-1.62-.55-3.32-.98-4.92-1.58-2.7-1.01-5.15-2.14-7.97-3.04-.26-.08-.49-.32-.66-.39-.33-.13.1.6-.3.6-.15-.16-.3-.27-.48-.48l.24-.6h.18s13.91,5.26,13.91,5.26Z"/><path class="cls-16" d="M61.12,84.95c-.22.13-1.09.82-1.26.81-.26-.2-1.89-1.79-1.73-2,.45-.13.9-.37,1.31-.6.28-.02.3.19.43.34.41.48.81.98,1.24,1.45Z"/><path class="cls-112" d="M121.19,195.67c.07.21.35.53.36.77,0,.13-.17.04-.24.06-.12-.21-.32-.22-.53-.24-1.12-.13-2.48.06-3.69-.16l-2.47-.55c-.04-.25-.03-.46-.12-.72,1.33.45,2.71.77,4.12.89l2.57-.05Z"/><path class="cls-117" d="M97.67,143.6c.25.92.91,1.43,1.16,2.12.23.65.29,1.57.51,2.3.06.18-.03.6,0,.84-.22-.08-.24-.28-.3-.47-.2-.65-.3-1.32-.47-1.92-.26-.92-.99-1.69-1.23-2.96-.12-.61-.13-.64-.3-1.24s-.33-1.55-.08-2.13c.07.8.5,2.65.72,3.46Z"/><path class="cls-45" d="M82.5,197.58c-.82-.17-1.58-.49-2.39-.72.2-.54.25-1.11.36-1.67.74.39,2.39,1.4,2.03,2.39Z"/><path class="cls-35" d="M57.66,79.94l.84,1.55c-.2.08-1.48.77-1.55.72,0-.36-.88-1.56-.72-1.79.46-.16.98-.3,1.43-.48Z"/><path class="cls-8" d="M73.31,138.58c-.64-.67-1.13-2.21-1.63-3.09-.38-.67-.95-1.55-1.38-2.2-.94-1.39-2.04-2.71-3.08-4.02-.01-.16.01-.32,0-.48,1.82,2.02,3.43,4.4,4.72,6.81.5.93,1.05,1.99,1.37,2.99Z"/><path class="cls-68" d="M121.19,28.7c-.1-.01-.16-.07-.24-.12.31-.53.17-1.05.27-1.58.35-1.86,3.28-4.99,4.51-6.54-1.02,1.88-2.71,3.34-3.55,5.34-.4.94-.57,1.97-.98,2.9Z"/><path class="cls-62" d="M64.23,75.64c-1.39.34-2.79.58-4.18.89-.59.14-4.6,1.31-4.78,1.14-.03-.03-.03-.3.07-.37.17-.12,1.72-.44,2.08-.53,2.05-.49,4.72-1.07,6.81-1.13Z"/><path class="cls-112" d="M58.14,53.06c.14.1.18.26.12.48-.04.09-.09.17-.12.24-.16-.32-.79-.39-1.08-.31-.82.24-1.85,2.99-2.5,3.65.03-.1-.02-.25,0-.36.22-.96,1.31-2.36,1.87-3.15.35-.49.54-1.27,1.24-1.39.03-.11.07-.11.12,0,.37.28.49.56.36.84Z"/><path class="cls-49" d="M128.36,50.08c.54,1.15.55,2.4.87,3.61.34,1.28.84,2.95,1.32,4.17.41,1.06.87,1.42,1.4,2.3,1.83,3.03,3.77,5.83,6.72,7.85.59.4,1.12.94,1.51,1.54-.12.01-.24-.01-.36,0-.36-.2-.54-.72-.75-.92-.26-.25-1.02-.52-1.34-.75-.74-.54-1.42-1.47-2.03-2.15-4.7-5.22-6.23-8.68-7.35-15.64Z"/><path class="cls-9" d="M97.79,179.78l-1.07,1.43c-.12-.23-.13-.53,0-.92-.17-.31-.25-.6-.24-.87-.38-.45.06-1.12.36-1.55.06-.21.27-.6.36-.84.11.81.36,1.96.6,2.75Z"/><path class="cls-75" d="M8.94,154.34c.15.07.52.19.47.41-.06.26-1.06,1.13-1.29,1.46-.18.26-.58.94-.73,1.21-.3.57-.15.99-.76,1.49-.09.07-.39.34-.45.09.82-1.63,1.67-3.18,2.75-4.66Z"/><path class="cls-70" d="M35.21,178.35c-.57.5-.12.65-1.01.6-1.04-.06-2.21-.3-3.19-.63-.19-.06-.37-.11-.45-.33,1.56.27,3.08.37,4.66.36Z"/><path class="cls-51" d="M53.12,170.23l-1.55-1.55c0-.72.07-1.36.12-2.03.53,1.16.83,2.46,1.43,3.58Z"/><path class="cls-3" d="M58.98,82.44c1.32-.58,2.65-1.21,4.06-1.55l-3.7,1.91c-.33.1-.53-.02-.36-.36Z"/><path class="cls-63" d="M58.38,50.79c.18.36.33.77.6,1.07-.08.17-.18.35-.24.48l-.26.05c-.23-.4-.52-.53-.93-.64-.02-.04-.1-.08-.12-.12-.08-.16-.16-.32-.24-.48.43-.29.64-.57,1.19-.36Z"/><path class="cls-52" d="M57.06,78.74l.36.72c-.48.18-.97.38-1.43.6,0-.22-.34-.8-.24-.95.06-.09,1.1-.3,1.31-.37Z"/><path class="cls-119" d="M72.47,187.55c-.08-1.06.02-1.75.24-2.75.61.56.47,2.35-.24,2.75Z"/><path class="cls-16" d="M58.98,82.44l.36.36c-.25.08-1.42.8-1.54.71-.02-.02-.23-.42-.2-.47.17-.23,1.07-.46,1.38-.6Z"/><path class="cls-43" d="M105.43,140.37l1.67-3.82c-.52,1.88-.78,2.15-1.67,3.82Z"/><path class="cls-27" d="M148.78,10.31c-1.07,0-1.41-1.07-2.27-1.55,1.16.42,1.43.66,2.27,1.55Z"/><path class="cls-67" d="M58.74,52.35c-.06.14-.06.34-.12.48-.24.13-.52-.07-.84-.6-.04,0-.08,0-.12,0-.05-.15-.06-.35-.12-.48.46-.41.93.23,1.19.6Z"/><path class="cls-113" d="M75.1,33c.04.73-.45,1.22-1.19,1.07.4-.38.8-.73,1.19-1.07Z"/><path class="cls-37" d="M58.62,52.82c-.07.16-.21.29-.24.36-.03.18-.11.14-.24-.12-.11-.28-.32-.52-.36-.84.38.03.51.44.84.6Z"/><path class="cls-41" d="M58.38,53.18c-.04.09-.06.22-.12.36-.05-.15-.06-.33-.12-.48l.24.12Z"/><path class="cls-123" d="M64.23,75.64c.13-.03.34-.23.6-.12v.12c-.2,0-.4,0-.6,0Z"/><path class="cls-89" d="M105.43,61.3c-.57-1-.7-4.28-.72-5.55-.08-4.49.02-12.04,5.47-13.17,4.87-1.01,7.97,3,9.61,7.02,1.86,4.54,1.59,9.9.33,14.57l2.91,1.18.08.61c-.08.33-.37.34-.48,0-.49.2-1.01.08-1.55-.36-.24.24-.53.19-.88-.15l-.55-.21c-.2.14-.47.12-.81-.08-2.03-.38-4.04-.85-6.03-1.4l-.2-.3c-.12.03-.24.06-.36.07-.67.05-3.39-.75-4.26-1.01-.24-.07-.44-.22-.63-.37-.64.36-2.19-.02-1.91-.84Z"/><path class="cls-89" d="M88.35,62.5l-.13.27c-1.07.12-2.02.03-2.85-.27-.34.14-.7.28-1.07.32-3.71.38-7.44.7-11.15.98l-.56-.1c-.26.39-1,.47-1.31.12-.24,0-.48,0-.72,0,.03-.15-.05-.51.01-.59.11-.13,2.81-.55,3.21-.73-.1-.47-.22-1.14-.24-1.61-.23-5.74,1.78-13.02,6.7-16.47,3.08-2.16,8.43-2.05,10,1.8s.24,10.7-.9,14.71c-.13.47-.47,1.44-.99,1.58Z"/><path class="cls-89" d="M103.64,70.38c.04.12.03.23,0,.35-.12.54-1.9,2.58-2.63,2.27-.71.6-1.56,1.01-2.55,1.21.03.89-.02,1.8-.15,2.71.13.06.23.19.31.38.12-.07.23-.08.34,0,.93.58,1.74.95,2.78,1.29,1.59.51,2.88.58,4.51.63,1.27-.33,3.29-1.48,4.36-2.27.62-.46,1.14-1.3,1.85-1.73-.34-.23-.76-.82-.24-1.08.3-.15,2.23.93,1.91,1.62-.2,0-.4.02-.6,0-.04.2-.19.24-.46.12-1.23,1.66-2.52,3.13-4.37,4.04l-.31-.11c-.53.73-1.73.91-2.61,1-2.98.31-6.13-1.28-8.43-3.03-3.89,4.06-10.32,4.96-13.95.17-1.52,1.47-1.32-1.17-.21-1.37.2-.25.71-.94,1.07-.78.85.36-.38.97-.35,1.5.45.16.93.45,1.31.72.51.12.79.31.84.6.95.4,1.91.77,2.88,1.12l2.86.19.16-.28c.78-.15,1.49-.51,2.18-.91l.3.11c.06-.4.95-1.03,1.31-.84-.04-.4.6-.76.96-.72.03-1.01.18-2.02.45-3.03-.3.01-.44-.09-.45-.31-.38.1-.61.15-.72-.36-.23.28-.85.15-.84-.24l-.22.16c-.56-.23-3.06-1.55-3.08-2.05,0-.05.03-.1.07-.14-.76-.94-.44-2.96.29-3.83,1.7-2,7.28-1.43,9.68-1.67.64.03,1.56.4,1.95.92.66.88.22,2.69-.22,3.63Z"/><path class="cls-16" d="M124.53,96.54s.38.49.42.59c.59,1.54-.69,6.1-.9,7.95-.37,3.3-.54,7.81-.23,11.09.09.97.5,2.06.67,3.04.43,2.55.45,6.2-.16,8.72-.14.59-.37,1.21-.76,1.69l-.19-.19c.92-2.78.75-5.84.25-8.71-.11.17-.25.35-.46.39-.09.02-1.41-.48-1.34-.71-.48-.05-.77-.36-.88-.93-.28.46-.52.96-.7,1.5l-.27.05c-.03.1-.07.1-.12,0,.21-1.45-.69-3.76-.83-5.32-.37-3.88.82-8.15,1.79-11.88l.24-.6c.16.28-.02.97-.09,1.29-.43,2-.79,3.77-1.14,5.78-.09.52-.85,2.24-.02,2.37.67.1.99-.88,1.12-1.39.79-3.12,1-6.13,2.04-9.31.53-1.61,1.03-3.16,1.36-4.85.04-.21-.17-.77.2-.58Z"/><path class="cls-17" d="M83.22,76.59c-.29.37-1.32,2.01-.24,1.49.21-.1.31-.48.6-.41.64,1.29,2.36,2.35,3.67,2.84,3.97,1.49,7.16-.45,10.12-2.92,3.29,2.23,7.14,4.18,11.05,2.23.28.09.1.59-.04.75-2.21,2.62-8.36,1.58-11.35.91-.69.11-1.38.27-1.95.62-.98-.02-1.94-.14-2.89-.36-.58.22-1.01.2-1.63.14-2.81-.24-5.1-.91-7.49-2.4-.82-.51-1.3-1.24-.92-2.17.22-.51.38-1.09,1.07-.72Z"/><path class="cls-93" d="M120,121.02c.03-.17.75-1.85.84-1.91.3-.23.5.81.62.93.14.12.39.08.53.18.1.07.11.3.27.38.08.04.26-.04.37,0,.18.07.37.31.52.29.26-.04.54-.9.74-.59.24,2.31.64,4.64.27,6.96-.09.58-.37,1.82-.57,2.36-.13.37-.37.65-.6.96-.81.87-1.76.6-2.43-.28-.32-.41-1.01-1.61-.67-1.99v-.12l.24-.14c.32.38.65.74.99,1.05.16-.49.97-4.02.86-4.23-.87-.25-1.09-.94-.68-2.06l-.66-1.52c-.22.29-.44.4-.63.33-.26-.01-.11-.4,0-.6Z"/><path class="cls-92" d="M113.55,75.76c.06.19.28.3.13.54-.27.42-1.82,1.87-2.28,2.27-.37.32-.95.55-1.26.89-.74.8-.82,1.37-1.93,2.01-1.81,1.06-4.58,1.33-6.67,1.34-.61,0-1.37-.32-2.02-.37-1.6-.11-3.46.14-5.02.19-3.46.09-8.53-.43-11.31-2.7-.19-.16-1.25-1.23-1.3-1.36-.17-.48.09-.89.25-1.26.23.27-.11.65-.06.84.12.42,1.15,1.21,1.55,1.44,2.49,1.44,4.83,1.91,7.61,2.12.37.03.73-.25.99-.19.6.12,2.39.46,2.97.34.09-.02.07-.19.14-.21.3-.08,1.46-.4,1.67-.4.08,0,1.24.27,1.51.32,2.82.47,7.38,1.11,9.62-1.06.09-.09.2-.53.27-.68.52-.26,1.84-1.11,2.27-1.49.79-.71,1.54-1.83,2.27-2.63.2-.13.41.05.6.07Z"/><path class="cls-89" d="M84.17,33.48c.97-.18,3.6-.61,4.45-.45s1.73.94.92,1.76c-.34.35-1.2.85-1.67.72-4.21-.26-8.68.29-12.42,2.27-.12.04-.24.08-.36.12-.44-.73.46-1.25.99-1.57,1.81-1.11,4.36-1.98,6.41-2.49.48-.27,1.11-.32,1.67-.36Z"/><path class="cls-60" d="M95.16,73.37l.17.2c-.63,1.12-1.09,2.23-1.36,3.48.78.29.95,1.21.48,1.81-1.03.56-1.43.83-2.63,1.07l-2.1-.43c-1.36-.08-2.44-.38-3.63-.88-.36-.23-.54-.39-.84-.6,1.36.23,2.74.68,4.12.72.53.01,2.14-.04,2.6-.14.21-.04.73-.43.69-.63-.04-.17-.47-.23-.57-.33-.31-.31-.1-4.48-.14-5.29-.02-.42-.43-.63,0-1.01.53.66,2.41,1.67,3.22,2.03Z"/><path class="cls-89" d="M114.86,33.12c.26.19.2.27-.12.24-.1.38-.46.51-1.1.36-2.76-.53-5.76-.31-8.57.11,0,.06-.01.12-.04.17-.06.12-2.26.82-2.6.82-.67,0-.88-.2-.59-.86.34-.81.24-.95,1.11-1.33,2.38-1.06,9.71-.89,11.9.5Z"/><path class="cls-43" d="M105.43,61.3c.48.84,1.15.69,1.91.84.06.39-.49.81-.88.85,2.23.68,4.49,1.32,6.77,1.92l.2.21c1.09.23,2.17.51,3.22.84.03-.1.07-.1.12,0l2.27.36c.15-.16.53-.1.6.12.94.22,1.89.24,2.85.08-.28-.31-.36-.56.14-.55.13.04.37-.04.48,0,.18.07.99.86.96,1.13-.09.99-2.07.01-2.46-.05-2.83-.45-5.65-1.02-8.51-1.52-1.71-.3-6.91-.7-8.03-1.52-.19-.14-1.4-1.58-1.42-1.69-.11-.63,1.28-1.05,1.78-1Z"/><path class="cls-47" d="M106.03,145.15c.13.42.19.97.36,1.43-.2.18-.08.37-.04.58.22,1.33.6,2.68.94,3.96.24.89,1.41,4.34,1.23,4.93-.23.77-.58.06-.73-.3-.78-1.89-1.34-4.23-1.96-6.18-.56-1.75-1.38-3.48-1.55-5.35-.04-.46-.12-1.35.5-1.41.88-.07.84,1.3,1.05,2.01.05.17.2.29.21.32Z"/><path class="cls-56" d="M84.53,28.22c-.07.2-.14.45-.29.6-.38.38-1.55.86-2.05,1.35-.18.18-.97,1.28-1,1.45-.04.25.05.15.17.19.48.18,1.17.06,1.01.86-.05.26-.62.71-.22.99.19.14,1.64-.37,2.03-.19-.53.1-1.15.23-1.67.36-.63-.14-1.88.52-2.33.48s0-.57-.47-.6c-.36.08-2.38.98-2.51.96-.16-.03-.24-.36-.16-.52.37-.23.71-.77.98-1,1.89-1.6,4.02-3.2,5.99-4.7.17-.13.32-.22.54-.24Z"/><path class="cls-61" d="M96.23,179.9c.3.84-.12,1.93-.48,2.75-.03.14-.08.24-.12.36-.15.99-.43,1.93-.84,2.81-.86.83-2.1,1.72-2.37-.14-.14-.94,2.01-5.06,2.86-5.68.26-.2.84-.52.96-.09Z"/><path class="cls-16" d="M96.47,179.43c.18.3.13.53-.24.48-.64-.01-1.18.55-1.53,1.03-.46.65-1.96,3.71-2.04,4.41-.05.43.09,1.07.55,1.22.32.11.26-.15.32-.18,1.48-.64,1.24-1.15,1.72-2.53.1-.3.32-.62.39-.86.02,1.24-.09,3.35-1.31,4-.35.19-1.71.74-2.03.6-1.56-.71.64-3.79.96-4.77.12-.37.15-.76.23-1.14.91-.55,1.37-1.63,2.03-2.45.37-.46.86-.99,1.31-1.37-.13.46-.22,1.07-.36,1.55Z"/><path class="cls-83" d="M103.64,70.38c.45.62-.21.89-.47,1.26-.33.47-.77,1.29-1.19,1.64-.53.44-1.67.82-2.21,1.41-.26.28-.23.6-.37.83-.11.18-.33.18-.41.33-.58,1.05.34,1.66,1.22,1.97,1.21.43,2.62.44,3.85.56.81.08,1.5.46,2.21.83-2.49.65-5.57-.55-7.64-1.91-.6-.4-.21-2.14.17-2.66.75-.53,1.49-1.08,2.22-1.64,1.13-.58,2.07-1.46,2.63-2.63Z"/><path class="cls-13" d="M88.35,62.5c.21.71.1.63-.59.78-4.86,1.06-9.84.8-14.76,1-.68.03-2.25.68-1.73-.47.44,0,.87-.08,1.31-.12.46.33,13.17-.13,12.85-.7-.31-.14-.44-.38-.08-.49.78-.05,2.38.16,2.99,0Z"/><path class="cls-58" d="M114.86,33.12c.41.26.77.34.6.99-.03.12-.94.66-1.15.68-.25.02-.46-.1-.71-.12-.54-.03-1.44.04-1.9,0-.32-.03-1-.33-1.33-.36-.5-.06-1.15.09-1.53,0-.09-.02-.07-.21-.16-.23-.62-.15-3.79.59-4.65.7-.36.05-2.23.24-2.38.02-.3-.43.13-.71.19-.84-.09,1.68,1.83.18,2.65-.04.22-.06.37-.05.57-.08,1-.22,2.03-.32,3.05-.32,2.2.44,4.38.56,6.57.36-.11-.19-.09-.36.05-.52.04-.04.07-.18.12-.24Z"/><path class="cls-78" d="M78.44,145.27c.15.33.32.57.48.96.87,2.12,1.44,4.12,1.97,6.33.21.87.7,1.67.54,2.63-.21.04-.32-.14-.48-.24-.27-.58-.43-1.25-.48-2.01-.84-2.61-1.72-5.19-2.65-7.74.23-.35.41-.22.62.07Z"/><path class="cls-25" d="M77.6,143.6c.27.57.57,1.09.84,1.67-.92-.38-.05.89.06,1.2.33.93.52,1.94.84,2.86.37,1.07,1.05,2.25,1.32,3.34.17.69.16,1.57.29,2.28-.03-.02-.14.03-.2-.03-.27-.24-.3-1.16-.43-1.55-.59-1.77-.96-3.61-1.56-5.37-.19-.56-1.97-4.31-1.75-4.52l.6.12Z"/><path class="cls-9" d="M88.83,96.18c-.16-.14-.39-.17-.48-.24-2.69-2.02-5.58-2.33-8.84-2.75v-.12c.12,0,.36-.15.65-.13.4.03.66.34.97.37.18.02,1.58.08,1.66.07.15-.02.34-.27.71-.31.72-.08,1.94.4,2.49.86.32.27.4.54.85.82.62.39,1.82.64,1.97,1.43Z"/><path class="cls-86" d="M119.88,128.31c.47,1.4,1.32,3.42,3.1,2.27-.11.15-.02.33-.39.51-2.38,1.09-3.53-2.53-3.19-4.33l.18.07c.1.49.2.99.3,1.48Z"/><path class="cls-121" d="M85.84,99.29l.12-.12c.83.28,3.04.72,3.59-.17.17-.27.08-.42.11-.66,0-.06.06-.11.12-.12,0,.69-.01,1.26-.66,1.67-1.09.7-2.3-.17-3.28-.6Z"/><path class="cls-116" d="M119.88,128.19v.12c-.16-.47-.37-1.05-.48-1.55-.02-.1-.1-.2-.12-.36-.07-1.44.08-2.87.45-4.3l.27-.12.15.25c-.09,1.82-.11,3.64-.08,5.47l-.19.49Z"/><path class="cls-18" d="M96.47,179.43c.59.62.59.99.24,1.79-.19.44-.71.98-.96,1.43.2-.85.25-1.85.48-2.75.03-.14.2-.34.24-.48Z"/><path class="cls-95" d="M93.73,180.38c-.12-.1-.28-.13-.33-.32-.26-.91.43-3.03.69-3.98.03,1.45-.14,2.88-.36,4.3Z"/><path class="cls-51" d="M120,121.62c.34.1.29.18,0,.36l-.7,3.3c0,.35-.06.78-.01,1.12-.2-.12-.12-.45-.12-.66-.01-1.02.06-2.56.27-3.56.09-.42.39-.77.45-1.16h.12c-.03.17.01.41,0,.6Z"/><path class="cls-50" d="M121.07,103.23c-.07.2-.05.45-.24.6.48-1.86.84-3.75,1.67-5.49-.36,2.01-.77,3.01-1.43,4.9Z"/><path class="cls-54" d="M64.35,175.48c1.1.99,1.99,2.2,2.67,3.62.53.45.63.88.31,1.28-.76.64-.95-.1-1.31-.51-1.8-2.01-3.76-3.74-5.5-5.88-1.27-1.57-3.05-3.05-4.3-4.66-.31-.4-1.1-1.24-.84-1.73.91.76,2.38,1.39,3.35,2.21,1.29,1.09,2.11,2.72,3.28,3.89.7.7,1.67,1.12,2.33,1.79Z"/><path class="cls-14" d="M64.23,154.82c-.92-.21-.9-.69-1.27-1.3-.73-1.22-1.77-2.66-2.05-4.04-.08-.41-.05-.88-.15-1.35.49.68.58,1.59.98,2.31.31.56.87,1,1.22,1.52.7,1.02.85,1.78,1.26,2.86Z"/><path class="cls-103" d="M64.35,175.48c1.35.75,3.8,2.79,3.26,4.52-.07.22-.12.24-.28.37.27-.83-.01-.45-.3-.84-.83-1.15-1.7-3.07-2.69-4.06Z"/><path class="cls-120" d="M51.45,12.58c-.44,7.97-.63,16.17,1.67,24.01.39,1.23.68,2.49,1.07,3.7-.87-.7-1.38-2.07-1.71-3.13-2.27-7.26-2-17.92-1.04-25.42v.84Z"/><path class="cls-28" d="M51.69,28.34c.3,2.51.76,4.94,1.31,7.4.06.28.16.54.12.84-2.3-7.22-2.25-12.59-1.91-20.12.06-1.29-.12-2.62.23-3.89,0,5.5-.43,10.22.24,15.77Z"/><path class="cls-7" d="M8.46,177.87c1.19-.21,2.01,1.07,2.86,1.73,2.58,2,6.38,4.32,9.25,5.44,1.29.5,2.89.64,4.22,1.28.53.26.36.74.09.74h-1.79c-.2,0-2.12-.53-2.48-.63-.53-.15-1-.59-1.64-.45-.1-.04-.15-.08-.24-.12l-.6-.24s-.08.01-.12,0c-.42-.64-1.26-.69-1.85-1.2-.47-.41-.81-1.06-1.38-1.43.67.45,2.21,1.63,2.82,1.9.18.08.88.4.83.01-1.06-.62-1.95-1.5-2.93-2.2-2.31-1.65-4.68-3.29-7.04-4.84Z"/><path class="cls-73" d="M12.4,176.8c1.73.48,3.4,1.34,4.66,2.63-.23-.11-.53-.13-.82-.31-.32-.19-.85-.81-1.12-.92s-.48.08-.71.02c-.18-.05-.95-.83-1.32-.97-.58-.23-.75-.25-1.39-.57.13-.23.37-.19.72.12Z"/><path class="cls-8" d="M12.4,176.8c-.22-.06-.49-.08-.72-.12-1-.48-2.22-.69-3.22-1.26-.85-.49-2.01-1.48-2.51-2.32.46.41,3.19,2.55,3.59,2.68.51.17,1.08-.02,1.65.14.38.11,1.01.53,1.21.88Z"/><path class="cls-95" d="M19.45,181.22c-.79-.39-1.6-.99-2.15-1.67.99.47,1.71.52,2.15,1.67Z"/><path class="cls-33" d="M18.73,185.88c-.23,0-.47-.03-.6-.24.09.03.26-.03.4.02.15.06.18.21.2.22Z"/><path class="cls-44" d="M51.57,5.77l-.11-.07c-.07-.35.35-.57.47-.76-.06.3-.22.57-.36.84Z"/><path class="cls-56" d="M129.43,166.77c.44-1.89-.11-5.17-.11-7.23,0-3.5,1.12-5.82,1.67-9.01.38-1.16.68-2.35,1.11-3.49.37-1.01.9-1.96,1.28-2.96.04,1.01-.61,1.77-.92,2.6-.95,2.62-1.58,5.33-1.96,8.07-.28,2.03-.07,4.07-.11,6.1-.01.6-.24,1.34-.25,1.91s.26.89.25,1.31c-.01.6-.73,2.07-.96,2.69Z"/><path class="cls-93" d="M132.06,162.23c.33-.12.9.35,1.02.6.17.37-.69,2.72-.91,3.26-.29.73-.95,2.34-1.38,2.93-.61.85-.77,0-.82.01l-.42.36c.16-1.13.22-2.35.48-3.46.06-.24.16-.48.24-.72.03-.1.07-.1.12,0l.2.16c-.19.86-.32,1.72-.38,2.58.54-1.4,1.1-2.79,1.67-4.17.07-.21.01-.41-.18-.61-.17-.15-.09-.39.24-.72.04-.08.08-.15.12-.24Z"/><path class="cls-69" d="M131.7,163.18c.07.07.12.15.13.25.01.1-1.1,1.68-1.18,1.75l-.27.03h-.12c.31-.98.81-2.14,1.67-2.75-.09.2-.14.53-.24.72Z"/><path class="cls-77" d="M87.87,35.51c-.18.11-.34.19-.55.23-1.23.24-2.53.25-3.69.36-1.05.1-3.61.13-4.45.58-.2.11-.22.32-.36.38-.6.27-2.42.43-3.37.72.13-.44,1-.76,1.4-.93,2.84-1.17,8.13-2.18,11.02-1.34Z"/><path class="cls-54" d="M45.36,181.22c-.06-.28.04-.19.15-.27.43-.29.72-.2,1.16.03l.06-.36c.31.15,2.75,1.36,1.65,1.65-.58.15-2.33-.97-3.02-1.06Z"/><path class="cls-29" d="M115.66,46.18c1.42,1.49,2.83,4.95,3.23,6.98.59,3,.12,5.39-.06,8.34-.02.33.14,1.9-.02,2.07-.32-.06-2.12-.62-2.16-.8.06-.87.5-1.69.69-2.52.46-2.05.59-4.43.24-6.5-.39-2.26-1.75-6.78-4.68-6.55-4.45.36-6.57,5.68-6.23,9.58.1,1.21.42,2.38.67,3.56l-1.8-.31c.08-1.39-.11-2.79-.08-4.17.06-2.91.6-9.35,3.32-10.98,2-1.2,5.32-.35,6.87,1.28Z"/><path class="cls-5" d="M107.34,62.14c1.83.35,3.55.87,5.25,1.31.53.3-.15.66-.61.53.42.26,8.34,2.29,8.16,1.91-.31-.2-.48-.42-.51-.65.5.04.95.25,1.43.36,2.04,1.06-.41,1.24-1.43.84-.26-.04-.36-.07-.6-.12l-2.27-.36s-.08,0-.12,0c-1.05-.33-2.13-.61-3.22-.84-2.1-.48-4.6-1.04-6.57-1.83-.13-.05-.8,0-.72-.38.04-.18.45-.16.59-.25.11-.07.34-.44.6-.53Z"/><path class="cls-30" d="M119.64,65.25c.43.26.97.42.65.96-1.36-.04-2.65-.51-3.96-.81-1.15-.26-2.12-.44-3.25-.81-.2-.07-1.72-.38-1.43-.77.18-.25.99.24.95-.36.61.16,1.28.42,1.88.57,1.36.33,4.14.62,5.17,1.22Z"/><path class="cls-19" d="M109.34,52.25c1.78-.25.68,3.07-.27,3.07-1.22,0-1.28-2.85.27-3.07Z"/><path class="cls-83" d="M122.62,65.96l-.23.17c.18.05.37.31.34.49-.07.43-2.76.04-3.1-.18.88.13,2.96.32,1.43-.84.52.12,1.03.21,1.55.36Z"/><path class="cls-29" d="M88.57,60.81c-.06.04-1.31.05-1.48.02-.6-.1.03-.56.2-.87,1.96-3.62,1.77-9.54-2.02-11.88-4.93-3.05-7.89,4.93-8.16,8.64-.12,1.72.19,3.36.22,5.06l-2.25.37c.49-2.12.4-4.33.75-6.47.8-4.91,4.65-12.16,10.67-10.62,4.5,1.15,3.47,9.01,2.87,12.46-.07.41-.63,3.18-.81,3.31Z"/><path class="cls-34" d="M85.37,62.5c-.1.38.32.19.36.24.1.11-.07.46-.24.54-.27.13-2.11.36-2.57.4-3,.3-6.8.47-9.79.26-.22-.02-.45.03-.53-.25,4.16-.4,8.64-.92,12.78-1.19Z"/><path class="cls-19" d="M79.43,55.06c-1.08-1.08,1.06-4.01,2.05-2.35.82,1.38-1.01,3.38-2.05,2.35Z"/><path class="cls-91" d="M100.65,66.92c.16.38-.77,1.2-1.14,1.27-.97-.38-1.46,1.51-1.08,2.16.69.42-.41,1.17-.88,1.47.22.38-.05.66-.48.48-.9-.33-3.62-1.32-3.97-2.18-.29-.71,0-1.64.71-1.97,1.45-.68,5.15-1.1,6.84-1.22Z"/><path class="cls-59" d="M101.01,66.92c.48-.02.67-.14,1.22.03,1.04.32.83.91.69,1.76-.81,1.06-1.68,2.06-2.62,3.01l-1.56.81c-.19.06-.28.26-.63.22-.28-.04-.76-.35-1.04-.45.26.05.25-.23.48-.48,1.15-.67,1.82-2.13,2.08-3.4.25-.53.95-1.13,1.39-1.5Z"/><path class="cls-83" d="M95.99,73.61l.24.26c-.31,1.03-.54,2.04-.69,3.04.28.32.57.75.21,1.11-.52.36-.75.53-1.31.84-.15-.5.26-1.07-.3-1.44-.13-.09-.39-.11-.41-.12-.17-.18.47-1.54.4-1.9l1.02-2.03c.18.08.59.14.84.24Z"/><path class="cls-105" d="M101.01,66.92c-.11.55-.71.85-.96,1.16-.34.43-.25,1.07-.5,1.51-.21.36-.43.74-.66,1.12s-.86,1.02-1.34,1.1c.2-.22,1.09-.94.94-1.18,0-.01-.17,0-.26-.16-.37-.65-.12-1.58.3-2.16.56-.78.8-.25,1.18-.38.17-.06.78-.81.95-1.01.12,0,.24,0,.36,0Z"/><path class="cls-102" d="M91.81,79.94c-2.43.5-3.74-.05-5.73-1.31.45-.29,1.03.31,1.38.35,1.12.13,2.3.23,3.46.55.26.07.76.18.9.41Z"/><path class="cls-80" d="M98.74,72.53c.49-.52,1.19-.75,1.75-1.24.72-.62,1.17-1.65,1.78-2.22.19-.18.42-.26.65-.37-.41,2.37-2.05,3.2-4.18,3.82Z"/><path class="cls-23" d="M96.71,73.96l-.31,3.01c.23.02.36.06.31.33-.44.45-.51.41-.96.72-.16-.11-.03-.36-.11-.54-.11-.28-.37-.35-.38-.71-.03-.91.8-2.2.72-3.17.23.1.5.28.72.36Z"/><path class="cls-34" d="M98.62,77.31c-.1-.06-.54-.19-.59-.25.25-.97.22-1.96.25-2.95.89-.44,1.84-.64,2.73-1.09-.25.95-1.85,1.29-2.2,2.04-.26.55-.41,1.67-.18,2.26Z"/><path class="cls-15" d="M96.71,73.96c.14.05.71.06.72.19-.16.8-.34,1.59-.47,2.39-.04.23.03.51,0,.69-.03.14-.23.06-.24.07-.14-.09-.4-.07-.49-.2-.17-.23.18-2.3.24-2.73.03-.23-.12-.48.25-.41Z"/><path class="cls-21" d="M120,121.62c.26-.25.4-.68.83-.59.03.5.65,1.38.7,1.75.07.51-.55,1.28.1,1.69.15.1.48.11.51.14.37.42-.72,3.88-.82,4.59-.42.58-1.03-.88-1.44-1.02-.25-2.04.02-4.15.12-6.21,0-.12,0-.24,0-.36Z"/><path class="cls-112" d="M114.74,33.36l.36.72c-1.27.15-2.59.28-3.87.11-2.25-.3-3.84-.69-6.16-.35,2.2-.65,4.81-.74,7.1-.6.68.04,2.07.52,2.57.12Z"/><path class="cls-83" d="M119.04,66.32c-.77.04-1.53-.18-2.27-.36.84.13,1.36.15,2.27.36Z"/><path class="cls-83" d="M116.65,65.96c-1.06-.16-2.2-.51-3.22-.84.84.19,1.8.28,2.66.51.21.06.42.15.57.33Z"/><path class="cls-42" d="M131.7,163.18c1.01.03.06,1.34-.1,1.76-.32.85-.61,1.93-.97,2.73-.13.3-.41.81-.72.89-.1-.14.36-2.98.48-3.34.2-.6,1-1.43,1.31-2.03Z"/></g></svg>