<?xml version="1.0" encoding="UTF-8"?><svg id="Layer_2" xmlns="http://www.w3.org/2000/svg" viewBox="0 0 330.09 852.02"><defs><style>.cls-1{fill:#605e52;}.cls-2{fill:#bb9e50;}.cls-3{fill:#546854;}.cls-4{fill:#e9e3e2;}.cls-5{fill:#bacad6;}.cls-6{fill:#463e2e;}.cls-7{fill:#2f2613;}.cls-8{fill:#dfdace;}.cls-9{fill:#b0aea0;}.cls-10{fill:#f9d6b6;}.cls-11{fill:#bebbad;}.cls-12{fill:#deac80;}.cls-13{fill:#d2cbb4;}.cls-14{fill:#eed0b5;}.cls-15{fill:#887c6f;}.cls-16{fill:#766454;}.cls-17{fill:#24211e;}.cls-18{fill:#9d917f;}.cls-19{fill:#dabaa0;}.cls-20{fill:#6d7f6e;}.cls-21{fill:#d9aa7f;}.cls-22{fill:#b8b8b5;}.cls-23{fill:#506551;}.cls-24{fill:#8a958a;}.cls-25{fill:#466146;}.cls-26{fill:#000911;}.cls-27{fill:#6d6043;}.cls-28{fill:#3e351a;}.cls-29{fill:#c4beab;}.cls-30{fill:#252117;}.cls-31{fill:#362b15;}.cls-32{fill:#b4a394;}.cls-33{fill:#65543c;}.cls-34{fill:#462a18;}.cls-35{fill:#bea483;}.cls-36{fill:#deb189;}.cls-37{fill:#ccc8b6;}.cls-38{fill:#827259;}.cls-39{fill:#bab7a9;}.cls-40{fill:#8d8c86;}.cls-41{fill:#b6c1cb;}.cls-42{fill:#3a321b;}.cls-43{fill:#2f260d;}.cls-44{fill:#ded9ce;}.cls-45{fill:#8a968b;}.cls-46{fill:#3f361e;}.cls-47{fill:#dddacb;}.cls-48{fill:#080403;}.cls-49{fill:#596e59;}.cls-50{fill:#f8c89f;}.cls-51{fill:#242219;}.cls-52{fill:#d9a476;}.cls-53{fill:#edc5a2;}.cls-54{fill:#433a1e;}.cls-55{fill:#f0d0b3;}.cls-56{fill:#c5a68e;}.cls-57{fill:#6f7e6e;}.cls-58{fill:#b49e8a;}.cls-59{fill:#869285;}.cls-60{fill:#242117;}.cls-61{fill:#88877f;}.cls-62{fill:#e3b288;}.cls-63{fill:#436673;}.cls-64{fill:#a6a08b;}.cls-65{fill:#554b2b;}.cls-66{fill:#d8d4c6;}.cls-67{fill:#b7c8d3;}.cls-68{fill:#859286;}.cls-69{fill:#f0d0b4;}.cls-70{fill:#1b1608;}.cls-71{fill:#f2b3a0;}.cls-72{fill:#cbcabf;}.cls-73{fill:#c2c1bc;}.cls-74{fill:#4b5a4d;}.cls-75{fill:#ddb18d;}.cls-76{fill:#b1b1a5;}.cls-77{fill:#6f816e;}.cls-78{fill:#c1bdad;}.cls-79{fill:#9e9c8e;}.cls-80{fill:#456046;}.cls-81{fill:#e0dccd;}.cls-82{fill:#456045;}.cls-83{fill:#a58e7b;}.cls-84{fill:#aeaaa1;}.cls-85{fill:#50452d;}.cls-86{fill:#0f1714;}.cls-87{fill:#838f84;}.cls-88{fill:#849084;}.cls-89{fill:#0e0805;}.cls-90{fill:#edaf98;}.cls-91{fill:#c5c5c5;}.cls-92{fill:#a19887;}.cls-93{fill:#4a604a;}.cls-94{fill:#d6d5ce;}.cls-95{fill:#3f3516;}.cls-96{fill:#d3cfbe;}.cls-97{fill:#6f7f6e;}.cls-98{fill:#ddab80;}.cls-99{fill:#352e1e;}.cls-100{fill:#576f57;}.cls-101{fill:#060402;}.cls-102{fill:#010100;}.cls-103{fill:#c8a88c;}.cls-104{fill:#808e7f;}.cls-105{fill:#c5c1b4;}.cls-106{fill:#426572;}.cls-107{fill:#463f2e;}.cls-108{fill:#141005;}.cls-109{fill:#1f110a;}.cls-110{fill:#a7a69e;}.cls-111{fill:#170a06;}.cls-112{fill:#a1afba;}.cls-113{fill:#e8b68b;}.cls-114{fill:#cbc8b9;}.cls-115{fill:#c2c2b4;}.cls-116{fill:#302a1b;}.cls-117{fill:#24221b;}.cls-118{fill:#efc6a3;}.cls-119{fill:#b4c0c8;}.cls-120{fill:#dddbd2;}.cls-121{fill:#3a2812;}.cls-122{fill:#4f604f;}.cls-123{fill:#c6c6c6;}.cls-124{fill:#e6b48b;}.cls-125{fill:#796747;}.cls-126{fill:#aea283;}.cls-127{fill:#b8b4a5;}.cls-128{fill:#f0c8a5;}.cls-129{fill:#d8d5c5;}.cls-130{fill:#565650;}.cls-131{fill:#bab7b3;}.cls-132{fill:#f6d4b7;}.cls-133{fill:#1c1509;}.cls-134{fill:#242017;}.cls-135{fill:#200e08;}.cls-136{fill:#171610;}.cls-137{fill:#dedcd0;}.cls-138{fill:#000c13;}.cls-139{fill:#f0cfb3;}.cls-140{fill:#726f64;}.cls-141{fill:#cb9c74;}.cls-142{fill:#1b1a16;}.cls-143{fill:#5f5d54;}.cls-144{fill:#6c7e6c;}.cls-145{fill:#c5c3be;}</style></defs><g id="Layer_1-2"><g id="Layer_2-2"><g id="Layer_2-2"><g id="Layer_2-3"><g id="Layer_1-2"><path class="cls-102" d="M214.05,114.69v.9c1,6.3.1,12.7.5,19.1,0,1.9-.5,3.8.5,5.6,3.4,7.6,10.7,10.5,18.7,11,13,.8,26,.8,39.1,1.1,9.9.3,18.7,3,24.5,10.8,4.8,6.6,8.3,14.1,10.1,21.9,5.2,21.6,7.9,43.4,9.9,65.5,1.6,17.9,2.8,35.9,4,53.9.5,6.7,1.3,13.4,2,20,1.1,6,.9,12.1,1.4,18,1,10.8-1,21.4-5.4,31.5-4.1,9.5-8,19.3-13.3,28.4-1.8,3.2-3.6,6.8-2.4,10.7,1.5,10.9,4.1,21.6,7.6,32,4.3,12.8,6,26,7.9,39.1,3.6,23.7,5.1,47.6,5.4,71.7,0,3.8.3,7.5.7,11.2,2.3,22.6.6,45.1,1.5,67.7,1.1,27.3,2.5,54.5,3.2,81.7.5,18.3-.5,36.6-.7,55,0,1.9,0,3.8.1,5.7-1,7.8-3.3,14.9-11.2,19.4-2.1,1.2-1.7,3.7-3.3,5.1.7,9,1.1,18,5.1,26.5,1,2.3,1.6,4.8,1.3,7.3-.6,4.9-4.1,7.7-8.6,9.5-5.2,2.1-10.8,3-16.4,3.2-11.3.2-22.5,0-33.8,0s-4.7-.3-7.1-.9c-5.6-1.5-9.8-4.4-11-9.9-.9-5.3,2-10.4,1.1-15.7.8-5,.6-10,.2-15-.2-3.7-2.2-6.8-6.2-8.6-6.6-2.8-9.8-7.5-9.1-14.4.3-3.8-.3-7.5.3-11.2,0-8.5-.2-16.9,0-25.4.8-18.2-1.1-36.3-2.3-54.3-.7-10.6-.3-21.3-1-31.9-.6-9.7-1.8-19.3-2.8-29-.7-7.7-1.6-15.3-1.7-23-.5-23.9-3.9-47.7-4.3-71.7,1-5.9.2-11.7.5-17.6,0-1.6-.9-2.9-1.8-4.3-.9-1.5-2.2-2.4-4.1-2.3-2,0-3,1.3-3.7,2.8-1,2.4-1,4.8-.3,7.2,0,7.2.5,14.5,0,21.6-1.4,23.8.3,47.5,0,71.3-.2,16.3,1.4,32.5,2.6,48.8.6,7.2.2,14.4.7,21.6,1.3,24.5,2.4,49.1,3.7,73.7.2,4.1,0,8.2.1,12.2-.8,1.5-.5,3-.3,4.6.2,5.1-.9,10.2-4.7,14-5.3,5.2-5.1,11.2-4.1,17.5.1,7.5,2.1,14.7,5.3,21.5,1.4,8.1-1.1,12.1-9.3,14.8-3.1,1-6.2,1.8-9.5,2-15.8.8-31.5,1.5-47.1-.5-4.9-.6-9.3-2.5-10.1-7.8-1.5-5.8,2.4-11.1,2.1-16.8,1.4-6.4,0-12.7-1.3-19-.5-2.3-2.5-3.7-4.4-4.9-2.2-1.5-4.5-2.8-6.8-4.2-5.1-3-5.7-7.8-6.1-12.7-2-20.2-1.7-40.7-2.9-61.1-1.6-29.3-2.2-58.5-3.6-87.8-.8-16.5-.2-33-1.1-49.3-1-19.5-3-39-4.6-58.5-.2-3.5-.6-6.8-.6-10.3-.2-16-.5-32-.7-48,.5-1,.3-2.1.3-3.1,0-5.1-2.6-7.9-8.2-8-2.5,0-5.2,0-6.7-2.4-2-2.4-2.1-5.1-2.1-8,.5-24,4-47.7,7.5-71.5.9-6.3,1.8-12.7,2.8-19,1.5-10.2.9-20.4.2-30.6-.6-9.8-2.3-19.5-2.5-29.3-.1-6.8-2.1-13.5-3.1-20.4-.6-3.5-1.4-6.9-1.3-9.4.6,2.3-.7,5.5-1.4,8.7-.7,2.3-1,4.8-1.4,7.2-.7,1.7-.6,3.4-.9,5-2,7.8-3.9,15.4-6.3,23-8.7,11.7-20.5,20.6-34.3,27-5.2,2.4-10.9,1.1-15.4-2.4-4.8-3.8-9.8-7.5-13.3-12.3-2.5-3.4-5.9-6.2-9.1-8.9-4.8-4.2-8.4-9.1-10.2-15-1.5-3.9-1.3-7.8,0-11.5,9.3-31.5,19.4-62.7,24.7-95.1,1.3-8,2.8-15.8,4.1-23.8.8-4.7-1.4-8.8-4-12.6-7-9.9-12-20.8-18.9-30.6-2.5-3.7-4.5-7.7-4.8-12.2,1-5.6,2.8-6.9,9.1-7.3,4.4.4,5.7,4,7.9,6.6,1.3,1.5,2.5,2.9,3.4,4.6.2.6.8-.3.3,0,0,0-.2,0-.3-.3-2.3-5.1-4.8-10.3-7.7-15.2-1-1.7-1.1-3.5-1.4-5.3.1-3.2-.9-7.1,3.7-8.4,5.6-1.6,8.7,2,11.6,5.7,2,.7,2,2.7,2.8,3.8-.8-5-2.4-10.5-.6-16,.5-1.2.9-2.3,1.4-3.5,1-2.2,3.1-3.4,5.6-3.7,2.5-.2,4,1.3,5.4,3,2.8,3.9,3.4,8.4,5.2,12.6,3.1,4.2,1.3,9.2,3.1,14.5-1.5-6.5-1.7-12.4,0-18.3.8-2.3,1.3-4.8,3-6.9,3.1-3.9,8.9-3.5,11.3.7,2.2,3.7,2,7.8,2.3,11.7.9,7.8-.2,15.5-.9,22.1.3-.8.8-2.9,2.9-4.3,2.2-2.5,4-5.2,6.9-7.3,7-5.3,12.5-3.8,14.8,4.4,0,2.7-1.1,5-2.4,7.4-3.8,7.1-5.4,14.5-4.9,22.6.5,8.3-1.5,16.5-8.2,23.8,2.5-1.1,4.5-1.7,6.4-1.9,14.5-2.8,29.2-2.7,43.9-2.8,5.2,0,10.1-.7,14.9-2.8,10.3-4.4,11.4-6.9,12.1-17.9-.9-4.3-.3-8.7-.3-13s-1.1-7.3-3.8-10.4c-8-9.1-12.8-19.5-14.8-31.1-.8-4.2-2-8.3-3.7-12.2-1.3-3.2-2-6.3-.9-9.5.3-1.6.7-3.2,1-4.7.9-.9.5-2.5,1.7-3.4,1.1-.8,1.3-2.6,3.2-3.2.8,2,3.6,2.5,4.6,4.5.6.6-2.1,1-.2,1.8,2,.7,1,2.4,1.6,3.7.5,1.2,1.4,1.3,2.5,1,4.9-1.2,10.1-.5,15.2-.7,4.5,0,9,0,13.3.9,6.3,1.6,12.5.7,18.9-.7,7.8,0,15.6-.5,23.5-.2,5.1,1.6,5.3-1.4,5.3-4.6s.2-1.9.8-2.6c2.2-2,4.4-1.4,6.4.2,2.8,1,4.4,3.2,5.3,5.7.9,3,.9,6.3-.2,9.2-2.5,6.2-3.7,12.6-4.1,19.1-.7,7.9-4.4,15-8.7,21.8-2.3,3.6-4,7.2-5.4,11.1h0l-.6-.4h0l-.3.3Z"/><path class="cls-65" d="M192.35,1.89c2.3,0,4.5.2,6.2,1.6.2,2.3,2.2.8,3.1.9,4.1.3,8,.3,8.7,5.6.3,2.4,2.2,4.8,3.4,7.1,1,1.9,4.3,3.2,7.2,2.4,6.1,3.7,6.6,9.3,6.3,15.2,0,1.6-.2,3-.2,4.6-2.6,0-1.6-2.2-2.2-3.5-.9-1.9-2.4-2.5-3.7-.5-1.1,1.8-3,2.8-4,4.7-2.4,4.8-6.9,5.3-10.9,1.3-.1-.4-.1-.8,0-1.3.1-2.2,3.1-1.4,3.9-3.7,2.2-6.4-3.1-9.6-6.1-13.5-2.5-3.2-2.3-5.1,1-7.2-2-1.6-3.3,1.3-5.1.6-.3-.1-.6-.3-.8-.5.2.3.6.4.8.6,1.1,1.7-.1,1.9-1.4,1.9-1.8,0-3.6-1-5.7-.7,1.1,2.3,3.2,3.2,5.2,4.4,1.5.9,2.2,2.5,1.5,4.2-.6,1.5-1.8,1.8-3.3.3.7,3.5.7,6.4-.8,9.9-.9,2.3.7,5.8-2,8.2-.8.5-1.8.6-2.8.5-1.1-.2-2.5,0-3.4-.6-4.6-3.5-4.7.8-6.2,2.8-4.1.2-4.6,0-6.9-5.5-.5.8-1,1.6-2.1,1.9h-1.4c-3.6-1.5-2.8-3.7-1.3-6.1,3-5,6.6-2.1,10.1-.5-3.9-3.2-3.7-7.5-5.1-11.4-.5.9.2,1.8.5,2.6.6,1.9.8,4.2-1.7,4.7-2.4.5-3.2-1.8-4-3.6-.7-1.5-.6-3,0-4.6.7-2.1,1.1-4.4-1.1-6-2.4-1.6,1.4-3.9-.5-5.2-1,2.5.2,4.7,1.4,7.2,2,4.2-2,8.3-7.9,9.3,1.6-.1,3.2,1.8,4.8-.4.8-1.1,2.9-.5,2.8.6-.2,2.7,2,6-2,8h-1.5c-1.6-.8-3.2-.8-4.7.2-3.6,2.2-7.8,2.9-11.4,5.1-3.2,2-6.8.8-9.3-2.4-1.5-1.9-2.8-3.9-4.5-5.7-3.3-3.8-3.7-6.4-.8-10.7,3.6-5.5,4.7-11.9,8.2-17.4.5-1.2.9-2.2,2.5-2.4,5.1.5,5.4,1.3,2.5,4.8-.3.4-.7.6-1,1.1-.5.7-1.7,1.5-.6,2.4.6.5,1.5.9,2.3.7,1-.2.9-1.1,1.1-1.9,1.5-6,7.6-8.3,14-6.5,6.8,1.9,9.8,6.1,11.6,12,2.2-1.5,3.9-2.8,5.3-4.5.7-.9,1.7-.9,2.8-.5,1.3.5,2.1,1.8,1.1,2.6-2.8,2.7,1.4,6.3-1.6,9.1-.8.8.7,2.5,2.5,2.7,1.7.2,3.6.4,2.8,3.8,2.3-3,1-4.7-.5-5.8-2.4-1.8-2.6-3.6-2-6.2,1.5-5.8-1.3-8.4-8.9-8.3-1.8,0-3.6.4-4-1.7-.3-1.9,0-3.8,2.2-4.8,3.7-1.9,7.2-3.9,11.6-1,1.6,1,4.6,2.5,5.9-.9h-.2c0-.1,0,0,0,0l.3-.1Z"/><path class="cls-54" d="M191.55,37.59c5.9-2.9,4.1-7.8,3.8-12.1,1.5-.9,2.4,2.6,3.4.3.5-1.1,0-4-1.8-3.7-3.8.6-3-4-6-3.7,0,0-.5-1.1-.3-1.7.3-1.1,1.6-1.1,2.5-.9,1.8.3,3.6.9,5.4,1.4,2.1.5,1.3-.6,1-1.5h0c2.4-.4,4-4.6,7.2-1.3,1,1.1,2.1,2.1-.9,2.4-3,.4-3.8,2.3-1.1,4.4,3.8,3,5.3,7.5,8.2,11.1,1,1.4-2.6,2.1-1.5,4.6,1.3,2.6-1.7,2.2-3.6,2.2s-.7.6-1,.9c-.3-4-4.3-4.8-6.9-6,1,5.5,1.3,5.7,6.9,6,3.9,4.1,6.7,3.6,9.2-1,1.3-2.3,4.1-3.8,5.2-6.6.5-1.1,4.9.7,5.2,2.2s-.6,3.2,1,4.4c.9,2.8-1.1,5.7,0,8.5-2,.7-3.8-1-5.7,0-1.4,1-1,2.7-1.7,4.1-.5.8-1,1.6-2,1.9-3-.8-6.1-1.3-8.2-3.8.5-1.7.8-2.9-2.3-2.2-2.6.6-5.6,1-8.5.9-.5,0-.9-.2-1.4-.3-2.1-.9-3.7-2.2-4.1-4.4"/><path class="cls-42" d="M192.35,1.89c.3.8.7,1.7,1,2.5-2.3-.3-5.2,2.1-6.8.3-4.4-5-8.2-.5-12,.4-1.3.3-1.7,2.8-.9,4.2.9,1.6,2,0,2.8-.5,2.9-2.1,2.4,2,4.5,2s6.8-.2,7,1.6c.3,1.9-.6,4.7-1.5,7-.8,1.9-.9,2.8,1.3,4.1,2.4,1.5,3.9,3.9,2.4,6.9-.3.7-1.1,1.8-1.6.9-1.6-2.9-5.9-2.6-7.4-5.5-.3-.5-.7-1.6-.5-1.7,3.4-2.5-.9-6.3,1.8-8.8.7-.7,1.6-1.4.1-2.2-1.5-.7-1.5.3-1.8,1.3-.9,2.3-4.6,2-5.2,4.8-1.1-1.5-2.5-2.5-2.8-3.7-1-5.2-5.2-7.3-10.1-9.1-5.7-2-11.2.6-12,6.1-.2,1.4-.2,6-4.3,2-.6-.6-2.2-.3-3.4-.4.3-1.9,1.1-3.7,2.9-4.7,3.9-2.4,2-3.6-1-4.6,8.7-.4,16.8-4.7,25.9-3.2,1.8.3,4-.5,6-.8,2.1-1.1,4.3-1,6.4,0,3,.4,6.1.8,9.1,1.4h0v-.3h.1Z"/><path class="cls-46" d="M142.55,7.09c.3.4,1.1,1.3,1,1.4-4.5,5-3.8,12.2-8.5,17.1-1.1,1.1-1.8,2.8-1.3,4.4,2,5,5.9,8.9,9.8,12.7,1,.9,3.6.9,4.4,0,3.6-3.7,9.5-3.2,13.3-6.5,2.2-1.9,3.3-.6,4.4,1.2.7,1.2.9,2.7-.2,3.4-3.2,1.7-2.3,4.3-2.5,6.7-2.4,2.7-5.1,2.6-7.8.6-.3-.2-.7-.5-1-.8-1.4-1.2-2.8-1.6-4,0-.9.9-1.5,2.2-2.9,2.6-.5,0-1,0-1.5-.2-1-.3-2.1-3-3.3,0-.2.6-1.5.5-2.3,0-.6-2.1-4.4-.5-4.5-3.5,0-.9-.6.3-.6.5,0,1.3-.3,2.1-2.1,1.9-.9-.4-2-1.3-1.8-2.1.8-5.6-2-11-1.3-16.6,0-.8.5-1.5,1-2.1.2-4.1,2.3-7.7,4-11.3,2.4-2.3,3.2-5.7,6.1-7.8.6-.6,1.3-1.3,1.8-1.9h0l-.2.2h0v.1Z"/><path class="cls-123" d="M135.75,838.79c3.9,6.3,10.8,7.1,17.7,7.5,14.1.5,28.4.7,42.4-.8,4.6-.5,9.1-1.8,12.6-4.7,3.4-2.8,3.8-6.4,3.4-10.3,3.9,8.3-2.4,14.8-8.6,17.5-4.4,1.9-9.4,1.2-13.7,2-6.9,1.5-13.6.7-20.2,1-7.4.4-14.6,0-22-.8-5.3-.7-9.3-2.8-11.8-7.1-.9-1.5-1.6-2.8.2-4.2h-.1l.1-.1Z"/><path class="cls-91" d="M243.95,837.69c3.7,6.1,9.5,9.3,17,9.4,14.4.3,28.7.9,43.1-.8,7.5-.9,13.6-4,17-10.6.1,5.7-3.6,10.3-9.3,12.6-6.6,2.6-13.7,2.8-20.6,3.2-12.2.6-24.6,1.3-36.7-1.6-6.7-1.6-10.7-6.5-10.6-12.4h0v.1l.1.1Z"/><path class="cls-116" d="M221.15,19.49c-.6,1.5-1,4.2-3.3,1.5-1.8-2.2-3.6-1.6-6.2-.9,1.5-3.4-.9-5.6-1.4-8.1-1.4-8.7-8.6-6.1-15.5-6.4,2.1-1.2,2.9-1.6,3.7-2.1h0c2.3,1.3,5.1,0,7.4.8,4,.3,6.9,2.5,8.3,5.6,1.7,3.7,4.9,6.2,6.9,9.6h.2-.1Z"/><path class="cls-65" d="M140.75,8.99c-1.7,2.7-2.4,6.3-6.1,7.8,1.3-3,2.1-6.5,6.1-7.8Z"/><path class="cls-65" d="M206.05,4.29c-2.5,0-5.2,1.1-7.4-.8,2.4.4,5.1-.5,7.4.8Z"/><path class="cls-99" d="M206.65,705.89c3,22.9,3.4,45.7,3.2,68.7-.1,12.7-11.5,22.8-25.5,23.8-6.4.5-12.9.7-19.4.7s-9.2.2-13.7-.9c-7.7-8.6-15.9-16.8-20.6-27.3-1.1-2.5-1.3-5.1-1.4-7.9-.3-5-.5-10.1-5.1-13.8-1.6-1.4-1.1-3.2-1.1-4.8-.3-8.4.6-16.9-.5-25.3-.3-13.1-.2-26.3-1.4-39.3-.9-11.1-.1-22.2-.9-33.4-1.5-23-1-46-2.4-68.9-.9-16.8-1.4-33.7-4.6-50.3-.8-4,0-8.2-.2-12.2-.7-17.8,0-35.7,0-53.4s.5-8.9,9-11.5c7.5-2.3,14.7-4.9,22.1-7.3,2.9-.9,5.9-2.3,6.8-4.7,2.1-4.9,6.6-5.2,11-5.9h2.1c19-.3,38.1-.6,57-1,8-.8,16.1-1.5,22.9,4,1.4,1.1,3.3,1.8,5.2,1.9,17,1.4,30.9,9.5,45.3,16.7,2.4,1.3,4.5,2.9,5.3,5.6,2.4,8,5.3,15.7,6.7,24.1,1.3,8.5,3,17.1,6.4,25.1,1.6,3.7,4,7.1,4.1,11.2,1.3,16,2.3,32,2.4,48.2,0,4.6.8,9.3.8,14,.9,7.8.6,15.6.2,23.4-.1,2.6-1.5,5-3,7.5-3.1,5-4,10.4-3.6,16.3.8,9.2,1.4,18.5,1.7,27.6,0,2.3,0,4.7.7,7,2.2,6.9,1.4,14,.2,21-.6,3.2-1.1,6.5-.3,9.8.5,2,.5,4.1.5,6.1v52.7c0,6.1-1.1,12.2-1.5,18.3-.2,6-4.5,10.7-9,15-4.3,4.1-9.1,7.7-11.7,12.9-18.7,2.3-36.6-.4-53.5-8.4-.9-.4-1.5-1.2-2.3-1.8,6.8-12,2.9-24,.2-36-.9,4.9-.6,9.9-.8,14.9,0,1.9.7,4.2-2.3,5,.2-12.7-.7-25.4.7-38,1.3-12.1-2-23.9-2.4-36,0-2.3-.5-4.6-.5-7,0-16.8.6-33.6-1.3-50.3-.9-8.4-2.9-16.6-3.4-25,0-1-.5-2.2-.5-3.2,0-14.6-.8-29.1-2.2-43.5-1.7-17.3-1.6-34.7-2-52.2,0-5.8-3.7-10.3-9.4-12.1-4.9-1.5-12.1,4-12.2,9.5-.1,10.8.8,21.7-.2,32.4-1.3,12.3-.3,24.5.5,36.5,1.3,18.4.2,36.6.8,55-4.6,1.8-6.1,4.8-5.9,9.3.5,9.2-.6,18.5-.5,27.7,0,10.6,2.2,20.9,9.3,29.8h0v-.1l.2-.2Z"/><path class="cls-77" d="M87.25,161.69c2-1.3,4-1.1,6.2-.8,3.7,3.4,7.9,5.1,13.3,4.4,2.2-.3,4.9-.1,5.7-2.3,1-2.7-3.2-1.5-3.9-3.2,9.9-1.9,14.3.1,19.8,9.3,3.1,5,4.7,10.6,6.3,16.2,3.2,1.7,6.1.9,8.9-1.1,1-.7,1.7-2.1,3.3-1.6,1.5,20.8,6.4,40.9,10.9,61.2.2.9.2,1.9.3,2.7-2.5,6.6-.9,13.3-.1,19.9,1.1,10.9,5.6,21.3,7.9,32,.2.9.7,1.7,1.1,2.3-.7-1.3-.9-2.6.6-3.7,2.4,12.7,2.5,25.6,1.6,38.4-1.8,23.5-5.3,46.7-10.9,69.7-2.1,8.6-4.6,17-8.6,25.1-1.7,3.5-4,6.1-8,7.3-10.2,2.3-20.2,2.1-29.9-2-10.8-4.5-15.3-11.2-14.6-21.8.2-2.7-.9-5.6,0-8.3.9-10.4,2.6-20.7,4.4-31,4.4-2.7,6.7-6.7,7.7-11.2,2.1-8.9,7.2-17.2,6.4-26.9-.5-5.8-3.6-10-6.6-14.5-.8-1.3-1.7-.2-2.6.1-1.8-3.8-.9-7.9-1.5-11.9-1-6.7-1-13.5-1.5-20.4,2.3-5.4.8-10.8,0-16.2-1.1-9.3-3.8-18.5-3.6-27.9,0-2.6.7-5.2.7-8s-.5-3.5-3.2-2.7c1-3.9-1.7-5.9-4.6-7.9-.9-.6-1.8-.8-2.9-.4-1,.5-1.3,1.5-1.1,2.4.3,1.7.7,3.4,1.1,5,3.1,9.6-.8,18.6-2.9,27.7-1.5,6.4-3.4,12.8-4.4,19.3-.3,2.4-1.5,4.1-4.1,4.7-.7.3-1.1.2-1.5-.3-1.3-6.9-1.5-14,.7-20.8.9-2.7,1.7-5.5,1.5-8.3-.5-5,.9-10,1.1-14.9.8-16.1-1.6-31.8-5.5-47.4-1.6-6.4-1.1-13.1-.3-19.6.8-6.6,6.6-10,12.4-12.8h.2l.2.2Z"/><path class="cls-77" d="M304.55,204.09c5.1,17.8,5.9,36.2,7.4,54.5.9,2.2-.2,4.5.7,6.7,0,.6.1,1.3.2,1.9.7,1.6.7,3.1,0,4.8v.8c-1.6,2.6.3,5.2-.1,7.8-2.8,14.9-7.5,29.2-14.6,42.8-3.7.7-5.5-1.8-7.9-3.5-2.1-3.6-1.6-7.5-1.8-11.3-1.3-20.5-1.3-40.9-1.4-61.3,0-5-.6-10-.8-14.9,1.8-2.7-.2-4.2-2.4-5-2.8-1.1-4.3.9-4.8,2.9-1.4,4.5-2.3,9.1-1.4,13.9,1,5.6.2,11.2.3,16.8.3,10-.9,20.2,4.3,29.7.3,6.4.8,12.7,1,19.1.2,8.7.7,17.5.5,26.2-.3,15.5,3.3,30.4,6.7,45.4,3,13.4,8.4,26.4,8.4,40.4s.5,1.8.8,2.6c-2.3,1.5-3.9-.2-5.5-1-16.9-9.2-31.4-20.8-43.5-35.1-8.7-10.4-14.9-22-21.2-33.6-.8-1.6-1.8-3-2.5-4.5v-1.9c9.7-13.1,4.3-26.3,0-39.5v-8.6c4.6-5,2.4-11.1,3.1-16.7,1.6-13.2,1-26.4,2-39.8.3-4.7-2.3-8.8-1.4-13.6-1.1,2.7,1.4,6.2-2.6,8-.2-16.1,0-32,.8-48.1,1.8-3.8.8-8.5,4.6-11.5,1.8-1.5,2.8-3.5,3.8-5.5,4.5-4.1,7.8-9.2,13.5-12.2,11.4-1.7,21.2,2,30.4,7.3,3.4,3,7.5,5.4,11.3,8.1,3,2.2,5.4,4.8,6.3,8.3,1.6,6.7,4.3,13.1,6.7,19.5h-.6l-.3.1Z"/><path class="cls-8" d="M205.75,162.69c2.9-.4,4.9-2.3,7.2-3.8,1.4-.9,2.1-.7,2.1.8.7,2.9,1.7,5.7,2.9,8.4,1.8,4.1,3.2,8.4,3,12.7-.5,8,2,15.7,1.7,23.6,0,1.3.2,2.5-.3,3.7,0,14.7,0,29.4-.2,44.1-.2,17.2-.7,34.4-1,51.6-.9,7.7-.2,15.2-.3,22.9,0,2.4-.7,4.4-1.7,6.7-3.1,6.8-5.9,13.9-.7,21,1.4,1.9,1,4.2,1.4,6.4,1.5,9.1,5.7,16.6,15.8,20.4,4.5,6.9,9.1,13.9,13.6,20.8,1.4,2.2-.7,3.1-2,4.1-3.7,2.6-7.6,5.2-12.4,6.1-18.5.6-37,1.4-55.6,2.1-3,1.5-6.3.5-9.4.8-2.5.2-5.1-.5-7.4.8-.7-1.3-.9-2.6-.5-4.1,5.9-20.5,9.2-41.3,11.4-62.3,0-.4.3-.8.6-1.3,2.4-4.5,2.2-9.4,2.2-14.2,0-12.4-.9-24.7-1.4-36.9-.5-10.9-5.3-21-4.7-31.9.1-2.7-.1-6-3.2-8-6.7-27.8-14.5-55.4-14.3-84.3,0-4.7,3.3-8.4,4.5-12.9,2.5.6,4.1,2.7,6.6,2.8,5.4,3.5,7.9,9.2,12.5,13.4,2.9,2.6,5.6,5.4,5.9,9.6,0,1.5,1.4,2.5,3.1,2.7,1.8.2,2.9-.8,3.6-2.2,1-2.4,2-5,3.9-7,.2-.4.5-.7.8-1.1,1.4-1.7,2.6-3.4,4.1-5,3.2-3.2,4.3-8.2,8.9-10.5h-.3v-.1l-.4.1Z"/><path class="cls-50" d="M32.85,152.29c-7-8.1-11.4-17.7-17.2-26.4-2.8-4.1-6-8.1-7.5-12.8-.5-1.6-2.2-3.9.5-5,2.4-1.1,3.6,1.2,4.7,2.7,2.8,3.8,5.4,7.7,9.4,10.4,1.5,1.1,3.1,2.8,5.4,1.4,2.2-1.4,1.1-3.4.8-5.1-1.6-7.6-6.3-13.7-10-20.5,2.6-1.9,4.4,0,6.2,1.3,1.7,1.3,2.4,3.5,4.6,4.3,2,3.2,3.8,6.3,5.7,9.3,1,1.6,2.2,3.5,4.8,2.3,2.3-1.1,1.6-2.9,1.1-4.6-1.8-6.5-4.5-12.8-6-19.4-.7-2.9-.8-5.9-.7-8.8,0-1.8,0-3.9,2.3-4.2,2.6-.4,3.3,2,3.8,3.7,2,6.5,3.6,13.3,5.2,20,.6,2.3,1,4.6,2,6.8.7,1.7,1.5,3.9,4.1,3.4,2.2-.4,2.4-2.5,2.5-4.2.2-4.1.3-8.2.5-12.2,0-4.2,0-8.5,1.1-12.6.3-1.4.7-2.9,2.6-2.9s3,1.6,3.1,3.2c.3,4.5.6,9.1.3,13.6-.3,7.9-1.1,15.6-1.7,23.5,0,1.6-.2,3.2.1,4.6.5,2,2,3.6,4.1,3.7,2,0,2.8-1.7,3.3-3.2,1.8-4.2,3.3-8.5,5.3-12.7,1.5-3.4,4.1-6.1,7.2-8.5,1-.8,2.4-2.2,4-.8,1.3.9.8,2.3.2,3.5-1.5,3.2-3,6.3-4.5,9.4-2.1,4.3-3.2,8.7-3,13.5.5,9.4-.8,18.8-7.6,26.6-.9,1.1-1.5,2.4-2.1,3.8-6.9,18.1-9.3,36.8-6.1,55.9.8,4.8,1.1,9.6,1.7,14.5-1,1.4-.6,3-1.3,4.6,0,.4-.2.8-.3,1.1-.6,2.2,0,4.3.6,6.3.6,12.4,1.4,24.7-4.1,36.5-.2.5-.5,1.1-.6,1.8-1.5,10.6-6.1,20-12.4,29-.3.5-.7,1-.6,1.7-.8,1.8-3,1.8-4.3,2.9-1.3,1.1-2.4,2.6-1.3,4.1,1,1.5,2.8.7,4.1.2,7.9-2.8,11.6-9.2,15.5-15.4.5-.8.9-1.6,1.4-2.4,8.2-1.6,13.8,1.9,14.3,8.6-6.2,7-13.9,12.4-22.3,17-5.9.1-11.7,2.1-17.7,0-4-4.2-8.2-8.3-12.2-12.5-3.1-7.5-4-15.4-7.4-22.8-1.1-2.4-1.3-5.1-.7-7.9.8-3.8-.6-7.5-1.4-11-.5-1.9-.7-3.7,0-5.6,2.9-14.7,8.5-28.6,11.6-43.2,2-9.3,4-18.7,6.1-28,2.6-8.2,4-16.8,8.4-24.6,3.9-6.8,2.3-11.3-6.3-17.8h0l.2-.2h0l.5.1Z"/><path class="cls-50" d="M221.95,71.29c.7,17.2-7.1,31.3-20.5,42.8-9.1,7.9-23.7,5.9-32.9,1.8-2.6-1.3-4.9-3.2-7.4-4.9-2.5-6.3-6.4-12-10.7-17.5-1-1.4-2.3-2.7-2.2-4.6,4.5-4.5,8.3-10.2,16.4-9.4,2.6.2,4.9-.6,6.7-2.6,1.7-.7,2.2-2.4,3.3-3.7,3.7-5.9,6.6-6.2,10.1-.2,2.5,4.4,6.7,5.3,11.3,6,3.4.5,6.2,1.8,8.9,4.1,5.6,5,9.5,3.9,11.8-3.2,1-3.2,2.1-6.4,5.1-8.6h.1Z"/><path class="cls-30" d="M294.35,799.09c-.6-3.2.9-5.2,3.4-7.3,3.8-3.2,7.7-6.4,10.7-10.2,4.1-5,4.6-11,5.3-17.4,2.5-21.6,1-43.1.9-64.7,0-9.1,1.4-18.2,1.5-27.2,0-4.1-2.2-7.7-2.1-11.4.3-9.3-1.4-18.7-1.4-28s-1.3-11.4,1.1-17c.1-.3,0-.7.1-.9,8.9-10.1,5.4-22,6.1-33.4.2.4.8.7.8,1.2,0,13.6.5,27.2-.3,40.8-.6,9.1.6,18.4,1,27.5,0,1,.6,2.1.6,3.2-.7,14.1,1.7,28.1,1,42.2-.6,10,1.1,19.9,1,29.9,0,14.1-.1,28,0,42.1,0,7.9-2.3,14.9-7.7,20.8-4,4.4-10.6,5.2-16,8-1.8.9-4.1,1.3-6.3,1.8h0v.2h.1l.2-.2Z"/><path class="cls-50" d="M207.65,121.29v3.8c-2.9,6-3,12.5-3.1,18.9,0,4.4-1.3,7.9-4.9,10.7-2.5,1.9-4.7,4.1-6.7,6.5-.7.4-1.5.8-2.4.8-8.3-.2-16.6,0-24.6-2.3-3.3-3.1-4.9-6.9-4.9-11.3,1.3-1.5,1.3-3,.8-4.8-1.4-4.7-.9-9.6-.7-14.5.2-4.5,2.5-5.8,7.2-4.1,6,2.2,12,3.5,18.4,3.6,6.3.1,11.7-1.7,16.4-5.3,1.3-.9,2.4-2.3,4.5-1.9h0v-.1Z"/><path class="cls-134" d="M316.95,519.59c-6.2-10.6-9.7-22.1-11.5-33.9-1.4-8.9-4-17.3-6.8-25.9-.6-2-1.5-3.4-3.4-4.3-9-4.4-17.7-9.5-27.1-13-5.3-1.9-10.9-4.5-17.1-3.9-2.4.2-5.1-.4-6.8-1.9-6.7-5.7-14.6-6.2-22.9-5.7,15.2-2,30.6-.1,45.9-1.7,2.9-.3,4.3,3.4,6.9,4.6,5.4,2.7,11.3,4.9,17.1,6.1,14.5,2.8,14.9,7.8,17.6,19.7,2.8,12.1,4.6,24.2,5.7,36.4.8,7.8,3,15.4,2.4,23.2h0v.2h0v.1Z"/><path class="cls-25" d="M78.15,285.89h.8c-4.6,4.7-8-.2-11.7-1.4-3-.9-1-3.1-.6-4.8,4-15.8,5.4-31.8,4-47.9-1-11.3-2.6-22.7-3-34-.2-8,.3-15.9,3.3-23.5,1.4-3.6,3.1-7,7.1-8.7,1,1.1.7,2.3-.2,3.4-2.8,3.1-2.8,6.8-3,10.6-.9,13.9,3.2,27.3,5.1,40.8,1.4,10.6,1.1,21.1.1,31.7-.9,9.9-3.7,19.7-2.5,29.7.1,1.4-.5,2.8.6,4.1h0q0,.07,0,0h0Z"/><path class="cls-82" d="M226.55,349.99c3.7,3.2,5.5,7.5,7.6,11.4,8.5,16.7,20.2,31.4,35,43.9,9,7.5,18.9,14.6,30.2,19.1,1.6,1.9,1.1,4.2,1.8,6.3,2.2,7.8,1.7,8.1-6.9,5.8-.1,0-.3-.1-.5-.1-12.9-2.1-22-8.6-27.8-19.2-5.7-10.4-13.9-19.3-20.3-29.3-7.7-12.1-14.1-24.5-19-37.9h-.1,0Z"/><path class="cls-50" d="M309.85,375.59c-1.7,7-6.2,13-9.3,19.8-3.6-11.6-7.5-23.1-9.1-35,.7-4.4,0-9,1.3-13.3,1.4-4.7,3.4-9,7.7-12.3,5.6,1.3,9.4,4.8,11.8,9.2,2.5,4.6,3.4,9.9,1.8,15-1.7,5.6-3.4,11-4.4,16.7h.1c0-.1,0,0,0,0l.1-.1Z"/><path class="cls-82" d="M97.45,405.39c.2,4.7.9,9.3,1.4,14,.7,8,7.1,12,14.3,15.2,9.2,4.2,19.1,2.7,28.7,2.9-13.7,5.4-27.8,9-42.5,11.2-2.3.3-4.7.2-4.7-2.8-.2-13.5.2-27.1,2.9-40.5h-.1Z"/><path class="cls-107" d="M206.65,705.89c-6.3-3.8-7.6-10-9.2-16-3.7-14.7,0-29.4-.9-44.1-.3-5.5,1.1-6.5,7.1-6.6v1.8c1.3,5.3-.3,10.7.9,16,1.3,12.5,1.4,25.1,1.1,37.6,1.1,2.1-.2,4.5.9,6.6v4.6h0l.1.1Z"/><path class="cls-13" d="M309.85,832.19c-19.9,6.2-40,5.5-60.6.6,7.4-6.3,16-7.1,24.8-5.8,5.5.8,10.5,1.3,16.1-.3,6.9-2,14.1-1.8,20.9,1.6,1.3,1.7.7,2.9-1.1,3.9h-.1Z"/><path class="cls-13" d="M200.65,831.99c-19.8,6-39.6,5-60,.4,6.9-6.5,15.3-6.8,23.5-6,6.2.6,11.8,1.3,18.2-.3,6.3-1.6,13.2-1.5,19.5,1.5,1.3,1.8,1.4,3.4-1,4.5h-.1l-.1-.1Z"/><path class="cls-60" d="M122.35,719.19c1.7,1.6.9,3.6.9,5.3v16c0,3.6-.5,6.8,3.7,9.9,3.6,2.5,3.4,7.7,3.4,11.9,0,9,4.8,15.7,10.9,22.3,3.8,4.1,7.5,8.4,9.8,13.5-5.5-.6-10.3-3-15.3-5-8-3.4-11-9.4-11.5-16.9-1-19-3-38-2.1-57.1h.1l.1.1Z"/><path class="cls-45" d="M106.75,321.99c.6-1.1-.7-3.2,1.5-3.5,1.5-.1,1.6,1.8,2.5,2.7,5.9,6.7,7.9,14.5,6.3,22.8-1.3,6.5-3.8,12.8-6,19.1-.8,2.5-1.8,5-3.1,7.3-1.1,2.3-2.9,4.3-6.2,4.1.2-7.9,1.8-15.5,3.6-23.2,2.2-9.8,2.1-19.5,1.3-29.4h.1v.1Z"/><path class="cls-80" d="M297.25,323.59c4.7-10.8,8.5-21.9,12.1-33,1.5-4.5,2-9.1,2.4-13.7.1-1.4-.5-2.8,1-3.9,1.1,14.8,2.3,29.6,3.7,44.4.3,4.3-4,3-5.7,4.7-3.2,4.7-9.3,5.5-13.6,1.6h.1v-.1Z"/><path class="cls-73" d="M235.35,381.19c-3.8,2.4-6-1-7.7-2.6-5.6-5.1-9.4-11.3-9.5-18.9,0-2.2-.5-4.2-1.8-6.2-3.1-4.3-2.1-18.4,2.1-22,1.7-1.5,1.8-2.8,1.8-4.4v-18.8c0-1.5-.5-3.1.9-4.4,0,12.6,0,25.1-.2,37.7,0,5.9,1.1,11.5,3.6,16.9,3.4,7.7,6.7,15.4,11,22.7h-.1v.1l-.1-.1Z"/><path class="cls-124" d="M207.65,121.29c-11.4,11.3-24.8,10.1-38.9,5.1-5.7-2-6.4-1.7-6.2,4.1.2,4.9-1.1,10,1.6,14.7,1.1,2-.5,3.1-2.8,3.4-1.8.3-1.3-1.3-1.8-2-1.1-9.1-.5-18.4,0-27.5.1-2.7,2.3-1.2,3.3-.5,8.9,5.1,18.5,6.1,28.6,5.2,6.3-.5,10.8-4.3,16-7.1,1,1.7.6,3.2.5,4.6h-.3Z"/><path class="cls-24" d="M227.55,237.99c2.2-4-.2-8.5,2.1-12.6,1.3,6.1,4.3,11.7,3.2,18.1-.5,2.7-.2,5.7-.2,8.4-.1,9.3,0,18.7-1.4,28-.6,3.8-1.3,8-.3,11.9.9,4,0,6.7-4.3,8.3-.5-20.7.7-41.3,1-62.1h-.1Z"/><path class="cls-47" d="M247.25,834.89c12,1.4,23.1,4.9,34.8,4.2,11.6-.7,22.9-3,34.1-6.5-1.4,5.2-6,8.8-12.1,9.8-8.6,1.4-17.4,1.3-26.1.8-4.6-.2-9.2-.3-13.8,0-8.3.6-14.3-2.3-17.1-8.3h.2Z"/><path class="cls-80" d="M279.95,169.19c-7.5-4.4-15.3-7.6-24.4-7.6s-3.7-.5-5.5-.8c2.3-2.5,5.2-3.2,8.6-2.9,6.8.6,13.6,1.1,20.3,1.6,7.5.6,12.8,4,15.8,10.4,1.5,3.2,4,6.2,4.5,9.9-2.3,1.6-3.7-.2-5.3-1.3-4.7-3-8.3-7.6-14-9.1h0v-.2Z"/><path class="cls-88" d="M282.05,290.59c-3-.8-3.7-3.6-3.9-5.6-1-8.7-2.4-17.5-1.5-26.3.5-4.6.7-9.3-.6-14-1.3-4.9,0-10,1.3-14.8.5-2.3,2.3-4.7,5.1-4.8,2.9-.1,4.8,2.2,6.1,4.4.8,1.5,1.1,3.7-2.2,2.8-1.3-.7-1-3.6-3.4-2.5-1.7.8-1.8,2.7-1.7,4.5.5,18.8.8,37.5,1.1,56.2h-.2l-.1.1Z"/><path class="cls-100" d="M78.15,285.89c-2.3-6.7-1-13.5-.8-20.2.6-14.7,4.9-29.2,1-44.2-1.7-6.6-1.5-14.1-3-20.8-1.5-7.3-1-14.5-1.6-21.7-.3-3.9.1-7.4,3.2-10.4.9-.8.9-2,.9-3,2.8-2,5.5-3.8,9.2-3.9,0,.1,0,.3-.2.4-15.6,9.1-12.5,23-9.4,35.8,3.7,15.4,5.5,30.9,4.3,46.4-.7,8-.2,16-3.3,24-2.1,5.2-.5,11.7-.5,17.6h.2,0Z"/><path class="cls-81" d="M201.65,839.69c-4.5,2.8-9.9,2.2-14.8,2.4-11.6.5-23.2.4-34.8.3-7,0-11.3-2.9-13.2-8.5,21.5,6,42.8,6.5,63.8,0,2.2,0,1.8,1.3,1.4,2.3-.6,1.2-1.3,2.4-2.2,3.5h-.2Z"/><path class="cls-5" d="M132.65,158.89c7.4-.9,14.3-3.1,20.5-7.3-2,10.2-4.5,19.9-14.9,26-2-4.1-3.8-8-5.6-12-1-2.2-2-4.5,0-6.7h.1-.1Z"/><path class="cls-68" d="M167.75,297.09c-.1,1.4-.2,2.7-.5,4.2-3.1-.6-3.2-3-3.6-4.8-1.4-9.8-6-18.8-7-28.5-.7-5.7-1.1-11.3-1.4-17.1,0-1.6,0-3.9,2.8-4.4,4.6,16.7,7.8,33.5,9.5,50.6h.2Z"/><path class="cls-133" d="M245.25,425.39c-4.9,0-9.9-.1-14.8,0-3.3.1-4-1.1-4-3.9s.7-3.7,3.7-3.8c9.1-.2,18.1.9,27.1-.7,2-.4,7,5,6.8,6.8-.3,1.7-2,1.5-3.2,1.6h-15.6Z"/><path class="cls-90" d="M171.65,76.79c-.1,2.8-1.7,4.5-4.8,3.9-8.6-1.7-12.3,4.8-17.7,8.5-2.4.8-3.7-.7-5.2-1.9-4.3-7.3-3.8-15.3-4.4-23.9,3.4,2.3,4.6,5,5.6,7.8,1.7,4.5,4.9,6.5,10.1,6.2,5.5-.3,10.9-.3,16.4-.5h-.1l.1-.1Z"/><path class="cls-70" d="M174.85,427.19h-12.9c-1.6,0-4.6.9-4.3-1.7.2-2.3.3-5.8,4.6-5.8h27.7c2.9,0,3.3,1.3,3.3,3.6s-.7,4.1-3.7,4h-14.9.1v-.1h.1Z"/><path class="cls-6" d="M235.75,772.89c2-4.8.5-9.9.9-14.8.2-2.6,0-5.2,0-8.5,5.6,2.1,5.5,6.8,6,10.3,1,7.5,1,15,1.1,22.6,0,3-2.4,5-5.1,6.6-3.9-2.2-3.4-5.8-3.6-9.1,0-2.3.5-4.6.7-6.9h-.1l.1-.2Z"/><path class="cls-132" d="M44.95,310.49c-1.7-2.9.5-5.9,2.1-7.3,6.7-6.3,7.4-14.5,9.1-22.1,1-4.7,4.1-8.6,4.8-13.6,1-8.9.2-17.7.7-26.6-.8-2.2-.8-4.4,0-6.6h0c.6-.5.8-1.5,1.8-.9.2,2.7,2.8,5,1.3,8,.6,2.5.6,5,0,7.6.7,2.4,0,4.7-.2,7.1-1.1,2.5.2,5.3-.8,7.9-2,9.2-3.3,18.5-6.4,27.4-2.5,7.3-5.7,14.3-12.4,19.3h.1l-.1-.2Z"/><path class="cls-87" d="M97.85,235.09c.6-1.1,1-2.2,1.6-3.5,3.3,1.9,3.6,5.1,3,7.8-2.4,11.7,1.3,23.1,2.9,34.5.6,3.8.9,7.7.9,11.5s-.5,3.5-2.6,4.2c-1.6-10.7-2.8-21.4-5.5-31.9-2-7.6-2.3-15.1-.5-22.8h.2v.2Z"/><path class="cls-118" d="M155.45,59.79c-.3,2-3.4,2.2-3.4,4.8,2.4-.5,3.1-2.7,4.8-3.7,4.3-2.3,8.7-.3,13.1-.8,2.9-.3,4.1,4.1,3.8,7.2-.5,2.8-.6,6.3-4.7,6.9-5.3.8-10.6.8-15.9,0-3.9-.5-5.9-4.9-5.1-10.4.5-3.2,2.5-4.4,7.4-4.1h0v-.1.2Z"/><path class="cls-53" d="M207.85,63.79c2.6-2.3-1.8-2.4-1.5-4.1,5.4-.6,7.5.7,7.4,5.5,0,3.5-.8,6.7-3.9,9-6.2.5-12.3.6-18.5,0-4.5-2.7-4.5-6.7-3.4-10.8.9-3.6,3.7-4.5,7.4-4.2.2,1.7,1.7,1.2,2.9,1.3,1,0,1.8.3,1.7,1.5-.7,1.2-2.1,2-2.5,3.4-.6,1.9-.6,4.1.6,5.2,1.3,1.4,3.8.4,5.7.3,2.6-.2,1.4-2.3,1.8-3.7.2-.8.2-1.9.6-2.7.5-.6.9-1,1.8-.8h0v.2h0l-.1-.1Z"/><path class="cls-67" d="M245.25,157.39c-4.7,4.6-8.7,8.4-12.5,12.4-1.7,1.8-2.8,2.2-4.6,0-4.1-4.6-6.9-9.9-9.2-17.2,8.5,5.6,17.2,4.3,26.3,4.8h0Z"/><path class="cls-4" d="M166.45,256.99c.2-.7.1-1.9.6-2.2,1-.5,1.3.5,1.5,1.3.9,2.5,2.2,4.8,2.4,7.5.7,8.5,3.1,16.8,4.1,25.1,1,7.7,1.6,15.8,1.3,23.9-.3,8.4.3,17.1.3,25.7s.5,7.1-3.2,9.6c.1-1.3.2-2.5.3-3.7,1-2.6-.1-5.5.8-8.1,0-2.3.1-4.7.2-7,.7-3.5.7-6.9,0-10.4-1.1-19.7-3.9-39.2-8.4-58.6-.2-1-.1-2.2-.1-3.2h.1v.1h.1Z"/><path class="cls-126" d="M210.25,418.39c3.4,0,6.9.2,10.2,0,3.3-.3,4,1,4.1,3.7,0,2.5-.2,4.2-3.7,4.1-7.1,0-14.4,0-21.5.3-3.6.2-3.8-1.4-3.9-3.9-.2-2.9.9-4,4-3.8,3.6.2,7.1,0,10.8,0v-.5h-.1l.1.1Z"/><path class="cls-97" d="M247.85,800.79c2.4-.3,4,.7,5.7,1.4.7.3,1.8,1.4,1.8,1.4-4,4.6,4.3,6.3,3.1,10.2-1.3.7-2.6-1.4-3.7.2.5,2.3,5.4,1.8,4.1,5-.9,2.4-3.3-.5-4.8.6,3.2,3.2,2.4,5.9-2.3,8.3-1.4.7-4.1,2.9-3.4-.8,1.6-8.8-.3-17.4-.5-26.4h0v.2c-.07,0-.1,0-.1,0l.1-.1Z"/><path class="cls-71" d="M221.95,71.29c-.6,4.1-3.8,7.2-4.5,11.4-.7,4.3-7.5,5.6-11.3,2.7-3-2.2-5.6-5.2-9.8-5.7,3.9-2.1,8.7-1.1,12.6-2.9.9-.3,2.1-.2,2.9-.7,3.2-2,3.6-5.7,5.6-8.4s1.6-3,4.5-4.4v8.2h0v-.2h-.1.1Z"/><path class="cls-20" d="M203.45,805.79c.9,6.1.8,12.2,2.8,18,.9,2.9-.5,3-2.8,2.2-2.6-.9-5.9-1-6.8-4.2-.1-.4-.7-1.2-.6-1.3,2.5-2.5,1.7-2.9-1.6-4.2-2.8-1,1.6-2.6,1.7-4.3.2-1.9-5.1.5-2.9-2.9.5-.7,1.5-1.3,2.2-1.9.6-.5,1.4-1,1-1.9-.9-2-.3-3.5,1.7-4.4,3.8-.2,4.3,2.5,5.1,4.8h.1l.1.1Z"/><path class="cls-59" d="M226.45,308.69c2.2,0,3,1.5,3.2,3,.5,5.2,3.2,10.1,3,15.4-.1,3.2.1,6.5.6,9.8.7,4.8-2.4,8.5-6.8,11.2-.8-13.1-.2-26.3,0-39.5h0v.1Z"/><path class="cls-119" d="M312.25,323.89c2,.3,2.8-3.1,4-1.8,1.8,2.1,1.3,5.2,1,8-.2,2-2.4,1.1-3.8,1.3-6,.2-12,0-17.8.5-4.7.3-7.2-.5-6.3-5.4.1-.6-.1-1.3-.2-1.9-.9-2.8.8-4.7,3.1-2.9,6.4,4.9,13,4.3,20.1,2.2h-.1Z"/><path class="cls-10" d="M193.55,159.89c0-3.5,3.3-4.6,5.4-6.4,3.2-2.7,4.4-5.5,4.1-9.8-.3-5.4,1-10.7,2-16.1.2-1.3,1.5-2.1,2.8-2.6.2,7.5,2.1,14.9,1,22.5-.5,4.7-2.2,9-6.3,12.2-3,.9-5.9,2.2-8.9.2h-.1Z"/><path class="cls-98" d="M32.85,152.29c6.6,1.5,11.6,10.1,9,15.4-2.4,4.8-5.5,9.6-6.1,15-.5,4.4-4.5,7.6-4.9,12,0-6.9,1.1-13.6,3.1-20.1,2.3-7.6,2.8-14.9-1-22.1h0c0-.1,0,0,0,0l-.1-.2Z"/><path class="cls-144" d="M307.65,824.69c-1.6-1.6-5.1-2.8-.7-5.1,1-.5,1.1-1.6,0-2.2-2.8-1.3-3.4-2.9-1.7-4.9-3.6-.9-5.4-2.2-1-4.6.7-.4,2.2-1.5.5-1.9-2.5-.7-2.8-2.1-1.5-3.4,2.1-1.9,4.9-3,7.8-3s1.5,2.3,1.6,3.7c.2,2.2.1,4.4.2,6.5-1.5,4.1-.2,8.6-2.1,12.8-.6,1.3-.3,3.5-3.1,2.4h0v-.2h0v-.1Z"/><path class="cls-113" d="M12.95,265.99c-.6,3.2,1.5,6.1,2.4,8.9,1.7,5.1-1.8,10.4.9,15.1,3.2,5.7,3.2,12.1,6,17.7.9,1.8.8,3.6.1,5.4-2.2-2.1-4.3-4.1-6.4-6.1-.8-1.9-1-3.9-1.4-5.9-.8-6-.8-12.3-5.1-17.4-.8-.9-1.1-2.2-.8-3.6.7-4.8,2.1-9.5,4.1-14.1h.1c0-.1,0,0,0,0h.1Z"/><path class="cls-62" d="M309.85,375.59c-2.2-6.7,2.6-12.4,3.2-18.6.6-7,.1-14.2-7.6-18.3-2-1-2.3-3.6-4.9-3.8-.9.4-1,0-1-.7h4.1c7,.8,11.8,5.1,13.2,12.2.8,3.8,1,7.7.3,11.5-1.7,6.2-3.7,12.2-7.4,17.7h.1Z"/><path class="cls-57" d="M141.75,823.69c-.3-6.4-.8-12.8-1.1-19.1,0-1.2-1.3-2.9.7-3.2,1.5-.2,3.2.8,4.7,1.6,1.3.6,1.5,1.6,0,2.5-2,1.3-.7,2.2.7,2.7,2.5.8,2.8,2.9,3.4,4.7-1.3,1.5-2.5-.7-3.8.3-.1,2.5,4.5,1.7,3.9,4.6-.8,4.2-3.3.3-4.9.7-1.4,3.2,8.4,2.5,2.8,6.9-2.6.6-4.6-.5-6.4-1.9h.1l-.1.2Z"/><path class="cls-129" d="M194.85,823.19c-6.2.3-12.5-.2-18.5,2.1-1.8.7-4.5.4-6.6,0-5.1-1.2-10-2-15.2-.8-.9.2-2.6.7-2.8-1,0-1.6,1.3-1.4,2.5-1.3,10,.6,19.8-.9,29.4-2.8,7-1.4,8.9-.8,10.9,3.9h.1l.2-.1Z"/><path class="cls-7" d="M193.85,178.99c-1.4,2.5-4.4,4.2-4.3,7.7,0,2.1-2.1,3.2-4.3,3.2s-4.9-1.3-4.8-3.4c.2-5.1-3.9-7.7-6.8-10.9-3.6-4.1-7.4-8.2-10.2-12.8.5,0,1,0,1.5-.1.9-.4,1.8,0,2.6.4,1.1.7,2.6.8,3.8,1.5,1.7,2.7,5.3,4.5,5.1,8.3-.5.5-1,.3-1.6.4.8.5,1.3-.3,2-.4,1.6.2,2.9,1.1,3.7,2.2,2.1,2.5,4.8,3.7,8.2,3.9,1.1.8,2.2,2.3,3.3-.1.2-.5,1.4-.7,2,.2h-.1v-.1h-.1Z"/><path class="cls-52" d="M8.85,280.09c6.7,8,7.9,17.3,7.2,27-7.9-7.8-10.7-16.7-7.2-27Z"/><path class="cls-41" d="M80.65,288.09c.2.5.5.8.3,1-.7,6.1-4.4,8.4-10.7,6.7-1.6-.4-3.2-.8-4.8-1.4-1.1-.3-3.2,0-3-1.7.2-2,.5-4.2,2.2-5.6,1.3-.9,3,0,4.1.8,4,2.9,7.9,3.4,12,0h-.1v.2Z"/><path class="cls-128" d="M191.25,56.19c-6.1,2-12.3,2.8-18.6,1-4.7-1.4-9.5-.5-14.3-1.2.6-2.4,2.9-1.8,4.6-2.1,3-.3,6.8,1.3,7.8-3.2.7-1.8,2.3-1.5,3.9-1.3,3.9.4,7.7,1.6,11.7.7,2.3-.5,2.8,1.4,3.7,2.6.6.6,1.1,1.3,1.6,2.1.1.4,0,.8-.3,1.2h-.1v.2Z"/><path class="cls-49" d="M279.95,169.19c3.6,0,6.3,1.3,8.7,3.7,2.9,2.9,6,5.9,10.6,6.7,3.2,7.9,4.6,16.1,5.3,24.4-3.7-4.4-6-9.6-6.7-14.8-1-8.3-7-12.4-13.3-16.6-1.6-1.1-3.8-1.6-4.6-3.5h0v.1Z"/><path class="cls-66" d="M273.75,822.69c8-1.2,16.2-2.3,24.3-3.5,3.6-.5,4.8,1.5,5.5,4.4-6.4,0-12.6.3-18.7,2.4-3.8,1.3-8.2,0-12-1.5-.6-1,.5-1.3,1-1.8h-.1v-.1.1Z"/><path class="cls-139" d="M299.45,334.19c.3.2.7.5,1,.7-3.3,5.5-7.6,10.6-7.2,17.4.1,2.8,0,5.6-1.8,8-1.6-2.3-1.3-4.8-1.3-7.3-1-5.2-.2-10.6-.5-15.8-.2-4.2,3.8-1.8,5.5-2.9h4.3v-.1Z"/><path class="cls-104" d="M108.65,159.69c2,1.1,6.2-1.5,6.2,2.2s-3.7,4.5-7.1,4.5c-5.6.1-11.6.9-14.1-5.7,4.9-1.3,10.1-1.1,15.2-1.1h-.1l-.1.1Z"/><path class="cls-85" d="M193.85,178.99c-2-.5-3.4,3.7-5.7.5,0-2.6,2.2-4.1,3.7-6,2.3-2.9,4.4-5.9,6-9.2,3.9-.2,3.4-3.6,4.8-5.6,2.9-3.4,3.6-7.8,6.2-11.3.9,1.1,2.6,1.5,2.2,3.2,1,.6,1,1.7,1,2.6-4.8,2.3-6.7,5.1-6.2,9.3-2.8,3.8-5.5,7.6-8.2,11.3-2.5.7-3.1,2.9-3.9,4.8h.1v.2h0v.2Z"/><path class="cls-12" d="M143.95,87.39c2,0,3.4,1.3,5.2,1.9,3.6,5,7.1,10.1,10.7,15.1,1.5,2.1,1.8,4.3,1.6,6.6-8.7-6.1-13.9-14.4-17.5-23.6h0Z"/><path class="cls-145" d="M222.35,208.19c-1.4-11.7-1.7-23.7-4.3-35.5-.9-4.3-3.9-8.3-3-13,5.9,8.1,8.9,16.7,7.7,26.6-.8,7.2.7,14.6-.5,21.8h0q0,.07,0,0l.1.1Z"/><path class="cls-75" d="M209.95,77.09c-3.9,2.9-8.6,2.9-13.3,2.7-5.2.3-9-1.4-11.8-5.7-4-6-4.7-5.9-9.7-.9,1.3-3,1.3-7.6,5.5-7.9,3.9-.2,3.4,4.5,5.4,6.8,1.3,1.5,1,4.1,4.1,3.9,4.7.9,9.5.2,14.3.4,1.8,0,3.8-.5,5.5.5h0v.2Z"/><path class="cls-22" d="M234.65,412.09c4.7-3.5,11.3-4.8,14.4-10.2,2.8,2.7,4.8,6,7.5,10.2h-21.9Z"/><path class="cls-141" d="M317.15,357.89c.2-6.1-.9-11.7-4.1-17-2.1-3.4-5.2-5.7-9.3-6.6,14.4-.7,14.5-.7,14.5,12.2s.9,7.8-.9,11.5h-.1l-.1-.1Z"/><path class="cls-136" d="M271.65,806.69v-.8c1.3-1.2,2.6-.3,4-.2,2.4.2,4.8,0,7.1-.8h3.3c1.8,1.4,3.9.8,5.9.7,1.8,0,3.7-.9,5.4.3v.6c0,.7-.6,1.3-1.3,1.6-4.4,1-9.4,0-12.2,4,.5.2,2.2-1.2,3.1.4-1.5,1.4-3.4.6-5.3.9-1,.2-3.2,0-1.6,2-.8,1.7-2,1.7-3.4.7-.7-.3-1.5-.6-2.2-.9,0-2.1,2.1-.8,2.9-1.7,1-.5,1.6-1,.6-2-1,0,.6-1.4-.7-1.3-3,.2-4.5-1.4-5.6-3.5h0Z"/><path class="cls-69" d="M74.55,308.59c-2.1-6.6-7.7-8.2-14.3-8.6,0-2.4.8-3.6,3.7-2.7,2.6.7,5.3,1.1,7.9,1.9,7.4,2.1,7.8,3.7,2.6,9.4h.1Z"/><path class="cls-51" d="M171.85,812.29c-1.3-.2-1.1-1.3-1.3-2.1-2.4-.3-5.5.5-5.7-3.2.5-2.2,2.4-1.9,4.1-2.3,1.1-.3,3,1.7,3.6-.7h5.6c.2.2.5.5.7.7,1.7.2,3.4,0,5.2,0,2.4.5,4.9-1.7,7.4,0,0,.6,0,1.4-.1,2-6.8.8-13,3.2-19.3,5.5h-.1v.1h-.1Z"/><path class="cls-14" d="M29.75,102.39c-2.5,0-3.7-1.9-5.2-3.2-1.6-1.5-3.1-2.8-5.6-2.3-1.1-2.5-3-6,0-7.4,3.4-1.6,5.1,2.1,6.4,4.5,1.6,2.7,3,5.6,4.4,8.4h0Z"/><path class="cls-96" d="M276.85,816.09c1.3,0,2.4.2,3.4-.7,6-.8,12.1-.7,18.4-.8-1.6,2-3.6,3-5.7,3-5.6.2-11.3.5-16.8-.4-.1,0-1.6.3-.7-.7.2-.3.9-.3,1.4-.4h0Z"/><path class="cls-3" d="M307.65,824.69c2-2.9,3.3-6.1,3.2-9.5,0-2.1.1-4.1,2-5.6,1.1,5.7-.7,11.7,3.9,17.8-4-.6-6.7-1.4-9.1-2.6h0v-.1Z"/><path class="cls-39" d="M271.65,806.69c2.8.5,3.9,4.3,7.7,2.9.1,0-1.3.9-1.3,1.8-6.7.7-12.4-1.9-18.5-3.6,4-1.8,8.2-.6,12.2-1.3h-.1v.2Z"/><path class="cls-36" d="M34.55,325.59c5.9.1,11.7-2.3,17.7,0-8.4,5.8-11.5,5.8-17.7,0Z"/><path class="cls-79" d="M164.65,816.29c8.3-1.7,16.6-2.8,26.4-1.8-9.1,5-17.9,2.3-26.4,2.5-.3-.2-.5-.3-.3-.5.1-.2.2-.2.3-.2h0Z"/><path class="cls-114" d="M165.05,806.89c.6,2.8,3.6,2.4,5.5,3.4-6.9,2.5-13-1-19.3-2.5-1.3-.3.2-.9.9-1.3,3.7-1.9,7.7-1.2,11.6-.7.6.2,1,.5,1.4,1h-.1v.1Z"/><path class="cls-86" d="M312.25,323.89c-7.1,4.2-14,3.7-20.6-1.3-1.8-1.5-2-1.4-2.6,2-2.1-2.1-.3-3.4,1.1-4.7,2.9.4,5.2,1.8,7.1,3.6,4.8,2.1,9.4,1.5,13.6-1.6,0,.9.5,1.6,1.4,2h0Z"/><path class="cls-56" d="M191.25,56.19v-.9c8.4-3.6,17-3.9,25.9-1.5,1.5,1.3,1.4,1.5-1.1,2.2h-24.8.1l-.1.2Z"/><path class="cls-93" d="M146.95,182.39c-5.9,5.6-7.4,5.9-12.2,2.7,2,.4,3.4,0,4.8-1.7,1.5-1.9,3.6-3.4,5.5-4.9.3-.3.9-.3,1.4-.5,1.3,1.5.7,3,.6,4.5h-.1v-.1Z"/><path class="cls-103" d="M163.75,55.19c-1.7.5-3.8-.4-5.3.9-5.2.5-10.5-.8-15.4,1.5-1.8.8-2.3,0-3-3.2,1-1.8,2.2-3.2,4.7-1.8,4.5,1.2,9.1,0,13.6.5,2.1.2,4.5-.5,5.5,2h-.1s0,.1,0,.1Z"/><path class="cls-127" d="M277.55,813.49c-.9.5-2,1-2.9,1.7-3.6,0-7.1,0-10.7.2-2.8,0-3.9-1.6-3.4-3.6.5-2.6,2.4-.5,3.6-.3,4.5.5,8.9,2.1,13.6,2.1h-.1l-.1-.1Z"/><path class="cls-23" d="M236.55,172.99c0,1.6.1,3-1.1,4.3-3,2.8-5.1,6.1-5.1,10.2s-.9,2-2.1,2.4c0-2.6,0-5.2-.1-7.9-.1-2.4-.2-4.4,3.6-4.7,2.4-.2,2.6-3.5,4.8-4.4h0v.1Z"/><path class="cls-9" d="M168.25,813.39c-5.5-.7-12.9,5.5-16.7-3.2,5.5,1,11,2.2,16.7,3.2Z"/><path class="cls-105" d="M171.85,812.29c2.8-1.6,5.3-3.8,8.3-4.5,3.6-.8,7.4-1.5,11.2-.9-6.1,2.7-12.2,5.8-19.3,5.5h-.1l-.1-.1Z"/><path class="cls-115" d="M287.15,812.49c-2.3,0-4.6.4-7.2-.5,5.7-1.8,10.2-5.5,16.3-4.5.9,0,2.2-.8,2.2.9-3.7,1.4-7.5,2.7-11.2,4.1h-.1Z"/><path class="cls-11" d="M171.85,819.49c-5.7.5-11.2,2-16.7,1.3-1.5-.2-3.4-.2-2.9-2.3s2.2-.6,3.3-.5c5.3.5,10.6,1,16.2,1.6l.1-.1Z"/><path class="cls-38" d="M143.95,53.39c-2-1.8-2.6.5-3.9,1,1.6-4-4.6-1.2-4.3-4.1,1.1-1.5,3,.4,4.1-.6,3.3,0,3.3-4,6.4-4.2,1.5,1.3-3.8,3.2.6,4,.8.8.3,1.7,0,2.5-.7.8-1.4,2-3,1.4h.1Z"/><path class="cls-51" d="M165.15,806.89c-4.4,0-8.7-.2-13.1-.3-.8-.9-2.6-.3-3-1.8,3-1,6.1.3,9.1-.7h10.7c0,1.7-1.6,1.3-2.5,1.3-1.7,0-1.3.8-1.1,1.6h0l-.1-.1Z"/><path class="cls-17" d="M162.25,415.79c1.4-2.6,4.1-1.4,6.2-1.6,3.4-.2,7,0,10.6,0-.3,1.7-1.6,1.8-3.1,1.7-4.6,0-9.2,0-13.8-.1h.1Z"/><path class="cls-37" d="M273.65,820.69c-3.6.2-7.1.7-10.7,0-1.6-.2-2.1-.9-1.8-2.2.3-1.5,1.5-.7,2.4-.6,2.6.3,5.4.7,8,1,.6.7,2.6-.2,2.1,1.7h0v.1Z"/><path class="cls-78" d="M273.75,822.69c-.3.6-.7,1.2-1,1.8-3.2.2-6.4.3-9.8.5-1,0-2.5,1-2.5-.9s1.4-1.5,2.5-1.4h10.8Z"/><path class="cls-121" d="M159.45,146.59c.7.6,1.3,1.4,1.8,2,1.4,3.2,2.9,6.5,4.3,9.9.3.4.5.8.2,1.3-4.1-1.1-3.4-5-5.5-7.4-2.5-1.6-2.8-3.5-.9-5.7h.1v-.1Z"/><path class="cls-58" d="M227.85,61.19c-.6-3.4-2.1-6.5-.9-10.8,3.6,4,3,7.3.9,10.8Z"/><path class="cls-29" d="M201.65,839.69c-1.3-2.1,3.1-3.6.9-5.8,1.6-1.2,4-2.1,5.2-.7s-1,3-2.4,4.1c-1.1.8-1.8,2.3-3.6,2.4h-.1,0Z"/><path class="cls-62" d="M295.25,334.29c-4.5.4-5.5,2.7-5.1,6.6.5,4,0,8.1,0,12.2-1.6-5.7-.5-11.4-.6-17.1,0-3.2,3.6-1.5,5.6-1.7h.1Z"/><path class="cls-110" d="M297.45,805.89c-2.5.2-5.1.5-7.6.6-1.5,0-3.7,1-3.7-1.7,3.8,0,7.5.2,11.2-.9.9-.2,2.6-1.3,3,.3.5,2-2,1-2.9,1.7h0Z"/><path class="cls-74" d="M203.45,805.79c-1.5-1.8-2.8-3.8-5.1-4.8,1-1.4,2.1-2.8,4.3-3.2,1.5,2.6.9,5.3.8,8.1h0v-.1Z"/><path class="cls-122" d="M141.75,823.69c2.8-.9,4.3,1.4,6.4,1.9-2.3.9-4.6,1.9-7.4,2.9-.1-1.9-.2-3.5.9-4.9h0l.1.1Z"/><path class="cls-112" d="M132.65,158.89v6.7c-1.8-2-3.8-4-6.3-6.7h6.4-.1Z"/><path class="cls-111" d="M209.95,77.09c-6.6-.5-13.2,1.2-19.8-.9h22c-.7.3-1.5.6-2.2.9h0Z"/><path class="cls-32" d="M134.35,51.19c.6,4.4.3,7.5-.8,10.8-1.5-3.2-2-6.5.8-10.8Z"/><path class="cls-137" d="M191.25,804.89c-2.8.2-5.5.5-8.3.7-1.6-.8-3.6.3-5.2-.8,0-.3,0-.5.2-.8,3.9,0,7.8.2,11.7-.7,1.4-.3,2.5-.2,1.5,1.6h.1Z"/><path class="cls-40" d="M275.65,806.49c-1.3-.4-2.5-1-4-.6-3.4,0-6.9,0-10.3-.2-.6-.5-.6-1,0-1.7,5.7,1,11.6.7,17.5.9.2,2.5-2.3.5-3.1,1.6h-.1Z"/><path class="cls-19" d="M216.15,56.09c.7-.5,1.4-1,2.1-1.7-.3-.2-.5-.3-.5-.5s0-.4.2-.4c0-.8.1-1.6,1-2.1.7-.2,1-1.4,2.2-.7.5,6-.5,6.9-4.9,5.5h-.1v-.1Z"/><path class="cls-111" d="M191.25,74.29h18.5c-6.2,1.5-12.3,1.5-18.5,0Z"/><path class="cls-72" d="M165.15,806.89c-1-3.5,3-1.5,3.7-2.9h3.7c.5.6,2.1.5,1.6,1.4-.3.6-1.3,1.3-2.6.8-2.2-.6-4.5-1.8-6.4.5h0v.2h.1-.1Z"/><path class="cls-99" d="M204.65,656.99c-2.1-5.2-.5-10.7-.9-16,2.1,5.2.3,10.7.9,16Z"/><path class="cls-83" d="M199.45,61.59l-2.2-.8c-.2-.3-.1-.5.2-.7,4.1-.6,7.9,0,10.2,3.7-.3.3-.7.6-1,1.1-2.6-.6-5.2-1.5-7.4-3.2h.1l.1-.1Z"/><path class="cls-1" d="M273.65,820.69c-.7-.5-1.4-1-2.1-1.7,3.8-.5,7.6,0,11.4.4-3.2-.3-6,1.9-9.3,1.3h0Z"/><path class="cls-76" d="M292.95,812.99c1.6-2.2,3.8-2.3,6.1-2.4.1,0,.6,1,.3,1.2-1.8,1.8-4.1,1.2-6.4,1.2h0v.1-.1Z"/><path class="cls-64" d="M200.65,831.99c1-1.4,1.1-2.9,1-4.5,1.8.4,4.1,1,3.7,2.9-.5,1.6-2.9,1.5-4.7,1.6h0Z"/><path class="cls-84" d="M184.25,812.09c2.6-1.6,4.5-2.3,6.6-2.1.1,0,.5,1.4.1,1.7-1.7,1.5-3.7.8-6.7.4h0Z"/><path class="cls-92" d="M309.85,832.19c.7-1.3,1.3-2.5,1.1-3.9,2.3-.3,2.2,2,3.8,2.4-1.5,1.6-3.2,1.6-4.9,1.5h0Z"/><path class="cls-8" d="M174.95,318.99c1.4,3.5,1.5,6.9,0,10.4v-10.4Z"/><path class="cls-130" d="M275.65,806.49l3.1-1.6h4.1c-1.8,2.6-4.6,1.6-7.1,1.6h-.1Z"/><path class="cls-131" d="M158.15,803.89c-2.9,1.5-6,1.4-9.1.7,2.8-2.2,6.1,0,9.1-.7Z"/><path class="cls-55" d="M63.65,263.79c.2-2.6-1-5.4.8-7.9.2,2.6.3,5.4-.8,7.9Z"/><path class="cls-8" d="M174.75,336.39c0,2.7,1,5.5-.8,8.1,0-2.7-.3-5.5.8-8.1Z"/><path class="cls-99" d="M206.65,701.19c-1.7-2.1-.6-4.4-.9-6.6,1.7,2.1.7,4.4.9,6.6Z"/><path class="cls-55" d="M64.75,248.79v-7.4c1.1,2.5.9,5,0,7.4Z"/><path class="cls-34" d="M197.65,60.09c0,.2-.2.4-.2.7-1.5,0-2.3,1.5-3.6,2.1-.7-1.9,1.3-2.4,1.5-3.7.8.3,1.6.5,2.3.8h0v.1Z"/><path class="cls-80" d="M312.75,265.29c-1.6-2.1-.6-4.5-.7-6.7,1.6,2.1.8,4.4.7,6.7Z"/><path class="cls-94" d="M261.35,803.99v1.7c-1.3,0-3.2.7-3.1-1,.1-1.9,2-.4,3.1-.5h0v-.2Z"/><path class="cls-15" d="M211.95,153.39c-1.8-.4-.8-1.7-1-2.6,2.9,0,2.1,1.3,1,2.6Z"/><path class="cls-55" d="M63.45,233.29c-.6.3-1.3.6-1.8.9.5-1.7.6-3.5,2.2-4.7.7,1.3.2,2.5-.2,3.8h-.2Z"/><path class="cls-18" d="M221.05,50.69c-.7.2-1.4.5-2.2.7.5-1.4.8-2.9,2.5-3.7-.1.9-.2,1.9-.5,2.9h.1l.1.1Z"/><path class="cls-140" d="M164.65,816.29v.7c-1.5.2-2.9.2-4.4-.3,1.5-.5,2.9-.5,4.4-.3h0v-.1Z"/><path class="cls-61" d="M298.35,808.39c-.7-.3-1.4-.6-2.2-.9.5-.3.9-.6,1.3-.9.8.3,2.2-.5,2.3.9,0,.5-.7.9-1.5.8h.1s0,0,0,0v.1Z"/><path class="cls-80" d="M312.95,271.99v-4.8c1.3,1.6,1.1,3.1,0,4.8Z"/><path class="cls-28" d="M166.55,37.19c1.4-2.4.7-5.1,1-8.1-1.6,4.4-5.5,1.1-7.9,2.4-.7.3-1.8-.5-1.5-1.4.3-1.3,1.6-2.3,3-2.1,4.9.8,6-1.7,6.8-5.5.6-2.9.3-4.5-3.9-4.8,3.6-2.5,4.1-4.5-.7-5.8,4.1-.8,7.5,1.8,5.9,3.8-1.3,1.6-.9,2.2.1,2.6,3.2,1.5,2.5,4.3,1.5,5.9-1.4,2.3-.2,3.9.3,5.8.3.9.9,2.4,2.4,1.7,1-.5,1.6-1.8.8-2.8-1.7-2.4-.8-4.5.1-7.1,2.2,2,1.8,4.4,2.2,6.4.6,3.4,2,6,4.5,8.2.9.7,2.2,1.3.7,2.5-.6.4-5.7-.9-5.9-1.6-.7-3.4-2.8-2.4-4.4-.9-2,1.8-1.7,3.2,0,5,.2.2-.3,1.2-.6,1.7,0,2.6-2.1,3.4-4.3,3.8-1.6.3-1.7-1-1.8-2.2.2-2.5,1.3-4.9,1.7-7.5h-.1.1Z"/><path class="cls-21" d="M189.25,54.29c-1-2.1-2-3.4-5.3-2.5-4,.9-8.2-1.6-12.4-.9-.5.2-1,.2-1.5.2s-1,0-1.5-.2c-1.5-.2-3.6,0-3.9-1.5-.5-1.8,1.7-2,3-2.5,2-.8,3-2.4,4.3-3.8.8-1,1.7-2.2,2.6-3.4,1.8,2.9,1.8,6.7,6.3,7.3,1-.3,2-.2,3,.2,2.5,1.5,5.2.4,7.8.2,2.1-.2,4-.4,6,0,.2.2.5.3.8.4,1,.4,2,.8,1,2.1-3.3,1.5-8.2,0-10.1,4.3h-.1v.1Z"/><path class="cls-95" d="M159.95,19.09c2.3,3.9-3.4,5.6-2.3,8.9.1.4-1.3.9-2.2.4-1-.6-2-1.3-2-2.5s2.1-1.6.7-2.8c-2.3-.5-1.6,2.7-3.7,2.4-1.5-1.6,2-3.7-.8-5.6-1.3-.8,1.4-2.4,2.6-2.5,3.1-.5,0,1.1.6,1.8,2.3,2.8,4.7,2.1,7,0h0c0-.07,0-.1,0-.1h.1Z"/><path class="cls-43" d="M157.85,36.59c-7.6,2.2-11.7-.8-15.4-5.4-2.1-2.6,1.5-3.4,1.4-5.4,2.2,2.7.3,7.2,5.4,8.4.7-.8-.2-2.6,1.4-3.4.7-.3.7-1.7,1.8-1,.5.2.9,1.4.7,1.6-4,5.1,2,3.6,4.7,5.1h0v.1Z"/><path class="cls-33" d="M171.85,43.09c-.6,3.4-3.2,4.7-7,5.8,2.2,1.4,4.6,0,5.9,1.8-2.6,2-5.9,1.4-8.7,1s-5.7.4-8.6-.2c-1.6-.6-2.4-2.1-2.1-3.4.5-1.8,2.6-.5,3.9-1.2,2.5,2.3,4.9,2.3,7.5,0,.8-1,.6-3,3-2.7.5.7-.6,3.2,2,1.4,1.1-.8,2.8-1,3.3-2.4h1-.1l-.1-.1Z"/><path class="cls-125" d="M197.65,47.49c-4.8.4-9.7,3.7-14.7.5,1.8-2.3,4.1-3.8,7.4-4.1h3.2c1.4,1.2,2.8,2.3,4.1,3.6h0Z"/><path class="cls-31" d="M190.25,43.99c-2.6,1-4.1,3.8-7.4,4.1-.7-.3-1.4-.6-2.1-.8,1.1-.9-5.5-6.1,2.2-3.2,1.1-1.6-2.5-2.2-.8-3.4,1.3-.8,3.3-.2,3.7,1.3.6,2.4,3.2.9,4.4,2.2h0v-.2Z"/><path class="cls-108" d="M165.45,44.19c-1.4.5-.9,2.8-3,2.7-1.4-2.3-3.7-4.7,1.4-5.9,2-.4.7-2.5,1.7-3.6.3,0,.7,0,.9-.2.8,2.4-.2,4.7-1,6.9h0v.1Z"/><path class="cls-54" d="M199.55,15.69c-2,.1-1.5-1.1-1.4-2.2,0-.1.6-.4.7-.3,1,.6.7,1.6.8,2.4h-.1v.1Z"/><path class="cls-89" d="M189.25,54.29c-.8-3.5.5-5.1,4.5-4.7,1.8.2,3.8,0,5.6,0,3.4-1.5,6.9-1.9,10.3.2,2.6,1.3,5.9,1.6,8,3.7,0,.3.1.6.2.9-9-.7-17.9-.8-26.8.8-.7-.3-1.4-.6-2.1-.9h.3Z"/><path class="cls-65" d="M206.85,40.29c-1.8.3-3.7,2.9-5.4.8-2.1-2.6-4.1-5.7-2.5-9.3,2.1.2,2.2,5.2,5.9,1.9s1.6.8,1.7,1.6c.3,1.7.2,3.4.3,5h0Z"/><path class="cls-27" d="M209.85,49.69c-3.4,0-6.9,0-10.3-.2-.3-.5-.7-1-1-1.7,3.1-.5,6.2-1.2,9.4-1.7,2.1-.3,3.9,1.2,4.5,2.3.7,1.5-1.5.8-2.4,1.3h-.2Z"/><path class="cls-65" d="M205.65,25.39c0,1.1-.3,2.1-1.6,2-1.4-.1-2.9-.6-3-2.1-.1-1.3.9-2.2,2.1-2.3,1.5,0,2.2,1.3,2.5,2.4h0Z"/><path class="cls-65" d="M219.85,46.59c-.7-3.2-2.8-4.7-1-6.7.6-.6,1.5,0,2.2.7,2.2,2,.1,3.2-1.1,6h-.1Z"/><path class="cls-65" d="M208.35,37.09c-.6-1.6-.9-2.7.2-3.9,1.5,1.4.2,2.4-.2,3.9Z"/><path class="cls-35" d="M155.05,46.99c-1.7.6-2.9,1.8-3,3.6-1.6,1.7-3.8,2-6.1,1.7.2-.8.6-1.8.8-2.6.7-.8,1.5-1.8,2.2-2.6,1.7-1.2,3.4-1.2,5.2,0,.2,0,.6,0,.8.2h0v-.2h.1v-.1Z"/><path class="cls-16" d="M154.25,46.79h-5.2c1.7-3,3.4-2.6,5.2,0Z"/><path class="cls-7" d="M193.55,178.89c.7-3.9.9-4.2,3.9-4.8-1.4,1.6-2,3.7-3.9,4.8Z"/><path class="cls-55" d="M61.45,234.19v6.6c-1.6-2.2-1.6-4.4,0-6.6Z"/><path class="cls-109" d="M198.95,96.79c-2.2-.7-3.8-.6-4.9,1.1-.5.6-1.1,1.2-1.8,1.6-2.4,1.3-5.9,4.6-7.2,2.4-1.8-2.7,3.3-2.5,5.2-4.1s5.1-2,3.8-5.6c-.5-1.4,1.5-1.9,2.2-.7.9,1.6,3.1,2.5,3,5.2h-.1l-.2.1Z"/><path class="cls-135" d="M177.15,76.19c.7,5,3.7,7.4,9,7-1.7,2.7-2.2,2.8-6.2,2.6-2.2,0-4-.5-4.8-2.6-1-2.7-.6-5,2.1-7h-.1Z"/><path class="cls-101" d="M167.25,163.89c-.6-1.3-1.3-2.5-1.8-3.9,0-.5.1-1.1.2-1.6,9.2,1.7,18.5,3.1,27.9,1.6,3.1.3,6-.6,9-1.1,1.8,3.1-1.8,4.4-2.6,6.7-.6-.2,0-1.9-1.4-.9-9.2,3.2-18.4,3.7-27.7,0-1.4.4-2.9,1.1-3.6-.8h0c0,.1,0,0,0,0Z"/><path class="cls-117" d="M161.45,71.69c-5.4,1.7-6.1-1.7-6.3-5s2.1-5.5,5.5-5.5,6.1,2,5.7,5.2c-.2,2.5,1.4,7.6-5.1,5.2h.1l.1.1Z"/><path class="cls-142" d="M199.45,61.59c3.1-.3,5.6.7,7.4,3.2-.1,1.9-.3,3.9-.2,5.8,0,1.2-.3,1.3-1.4,1.3h-2.5c-2.3-.2-5.9,1.9-6.4-.6-.9-3.2-2.2-7.8,3.3-9.7h-.2Z"/><path class="cls-44" d="M170.85,164.59c9.2.8,18.5,1.3,27.7,0-1.7,6-6.7,10.2-10.5,14.9-3.6.8-6.1-.4-8.3-3-1-1.3-1.8-3-3.9-3.6h0c-.7-3.2-4.8-4.8-5.1-8.3h.1Z"/><path class="cls-2" d="M188.15,184.59c0,1.9-.7,3.5-3.2,3.4-2.4,0-3-1.6-3.1-3.5,0-1.8.5-3,2.8-3s3.6.9,3.4,3.1h.1Z"/><path class="cls-48" d="M145.95,52.09c1.8-1,3.9-1.6,6.1-1.7,6.2-.6,12.4.2,18.6,0,.2.2.6.2.9.3,1.1,7.2-4.7,3.6-7.8,4.3-6.3-1.8-12.8-.9-19.2-.4-.2,0-.7-.3-.8-.5,0-.2,0-.5.1-.8.7-.4,1.4-.8,2.1-1.3h0v.1Z"/><path class="cls-120" d="M177.85,804.79c1.7.2,3.7-.5,5.2.8-1.8,0-3.6.7-5.4,0-.1,0-.2-.2-.3-.2.2-.2.3-.3.6-.5h0l-.1-.1Z"/><path class="cls-143" d="M167.65,807.59c.6-.4.9-.7,1.3-.7s.6.4.9.6c-.3.3-.6.7-1,.8-.2,0-.7-.3-1.1-.6h0v-.1h-.1Z"/><path class="cls-106" d="M160.45,70.09c-2.5-.3-3.9-1.7-3.7-3.8.2-2,1.5-3.6,4-3.2,2.3.3,3.7,1.6,3.6,3.8,0,2.4-2.2,2.8-3.9,3.4h0v-.2Z"/><path class="cls-63" d="M201.45,69.99c-2.5-.4-4.4-1.4-4.1-4,.2-2.1,1.7-3.2,3.7-3,2.5,0,3.9,1.4,3.8,4-.1,2.2-1.5,2.9-3.4,3h.1-.1Z"/><path class="cls-138" d="M160.85,68.59c-1.4,0-2.3-.4-2.3-1.9s.8-2,2.2-2,2.4.5,2.4,1.9-.9,1.9-2.3,2h0Z"/><path class="cls-26" d="M203.55,66.59c-.1,1.3-1,1.9-2.3,2-1.4,0-2.3-.7-2.2-2,0-1.3,1-1.9,2.4-1.9s2.2.5,2.2,1.9h-.1,0Z"/></g></g></g></g></g></svg>