<?xml version="1.0" encoding="UTF-8"?><svg id="Layer_2" xmlns="http://www.w3.org/2000/svg" viewBox="0 0 21.75 14.17"><defs><style>.cls-1{fill:#562c0d;}.cls-2{fill:#3f4b4f;}.cls-3{fill:#475458;}.cls-4{fill:#67330d;}.cls-5{fill:#7a9097;}.cls-6{fill:#6f8086;}.cls-7{fill:#71868c;}.cls-8{fill:#59686d;}.cls-9{fill:#879ea6;}.cls-10{fill:#505e62;}.cls-11{fill:#3f4b4e;}.cls-12{fill:#607075;}.cls-13{fill:#7b9198;}.cls-14{fill:#6a7b81;}.cls-15{fill:#72878e;}.cls-16{fill:#59676c;}.cls-17{fill:#6b340c;}.cls-18{fill:#64757a;}.cls-19{fill:#5e6d73;}.cls-20{fill:#582d0d;}.cls-21{fill:#6f360c;}.cls-22{fill:#343e41;}.cls-23{fill:#7c3b0b;}.cls-24{fill:#7e949c;}.cls-25{fill:#31393c;}.cls-26{fill:#7a8d94;}.cls-27{fill:#6a7e85;}.cls-28{fill:#8599a1;}.cls-29{fill:#3b4649;}.cls-30{fill:#859ca4;}.cls-31{fill:#96abb4;}.cls-32{fill:#697a80;}.cls-33{fill:#58666b;}.cls-34{fill:#5a696d;}.cls-35{fill:#74868d;}.cls-36{fill:#8299a0;}.cls-37{fill:#71868d;}.cls-38{fill:#556368;}.cls-39{fill:#687c83;}.cls-40{fill:#697d84;}.cls-41{fill:#70848b;}.cls-42{fill:#57656a;}.cls-43{fill:#869ea5;}.cls-44{fill:#515e63;}.cls-45{fill:#526064;}.cls-46{fill:#4b585c;}.cls-47{fill:#7c9299;}.cls-48{fill:#8ea3ab;}.cls-49{fill:#4c595d;}.cls-50{fill:#6a7d84;}.cls-51{fill:#627278;}.cls-52{fill:#72868e;}.cls-53{fill:#7d939a;}.cls-54{fill:#60300d;}.cls-55{fill:#70858c;}.cls-56{fill:#81979e;}.cls-57{fill:#8ca4ac;}.cls-58{fill:#6b7e85;}.cls-59{fill:#546469;}</style></defs><g id="Layer_1-2"><path d="M15.79,1.12s.04.02.06.03c.17.06.34.16.5.25.51.31,1.19.69,1.65,1.06.21.1.34.28.47.47.22.39.17.54.29.9.05.15.27.45.36.62.01.06.03.11.06.16.59,1.29.95,2.54,1.18,3.94,0,.05,0,.11.03.16,0,.02,0,.04,0,.06.05.18.09.35.13.52.96-.19,1.46.71,1.15,1.56-.06.13-.14.31-.22.43l-.09.12s-.04.04-.06.06c-1.34,1.45-3.41,2.07-5.32,2.41-1,.17-2.09.29-3.1.29-1.08,0-2.2-.02-3.29-.06-1.99-.06-3.97-.23-5.93-.56-.01,0-.02,0-.03,0l-.31-.06s-.02,0-.03,0l-.34-.06c-1.03-.15-1.68-.47-2.42-1.18-.15-.16-.3-.33-.4-.53,0,0,0-.02,0-.03-.07-.09-.14-.22-.09-.34.03-.26.12-.41.34-.56.21-.1.43-.15.65-.19.05,0,.1,0,.16,0l.29.02c0-.59.06-1.18.18-1.76.1-.62.27-1.21.47-1.8,0-.08.03-.15.06-.22.02-.08.03-.11.06-.19.21-.57.44-1.14.68-1.71.01-.02.02-.04.03-.06l.12-.28s.02-.04.03-.06l.06-.16s.03-.07.06-.12l.09-.22c.14-.28.32-.51.47-.78.07-.15.14-.29.22-.43.03-.05.06-.11.09-.16.07-.1.14-.19.22-.28C5.32,1.02,7.12.32,8.77.1c1.44-.23,2.91-.01,4.33.26.91.18,1.84.38,2.69.76Z"/><path class="cls-57" d="M18.77,4.54c.67,1.32,1.31,2.96,1.42,4.46.01.14.04.45-.06.56-1.25,1.02-2.73,1.43-4.29,1.74-1.11.22-2.41.36-3.54.39-.14.03-.29.03-.43,0-.08-.09.1-.28.18-.34.3-.22.62-.42.94-.61.52-.38.84-.86.56-1.5.13-.68-.31-1.09-.97-1.06-.12.09-.22.08-.32-.03-.15.02-.26,0-.33-.09l-.08.02c-.16-.17-.29-.17-.47-.05l-.06-.03c-.11.03-.19.07-.26.13-.03.17-.17.21-.42.12-.12.1-.26.15-.41.16,0,.09-.19.28-.28.28-.04.21-.1.41-.18.61h-.07c-.44.28-.28.72-.06,1.08.09.56.49,1.01,1,1.24v.05c-.27.04-.55.02-.82,0-1.49,0-2.98-.09-4.46-.28-1.22-.15-2.43-.39-3.61-.71.1-1.3.39-2.58.83-3.81.23-.66.54-1.31.78-1.97.08-.08.14-.01.19.07.78,1.4,2.11,2.09,3.64,2.38l.05.04c.38.1.76.19,1.15.28.04-.05.11-.03.12.03.73.23,1.55.2,2.33.13,1.95-.17,3.81-.65,5.69-1.2.07-.02.14-.06.21-.1.17-.11.21-.13.14-.32.75-.41,1.36-.89,1.77-1.68.03-.06.07-.05.11.03Z"/><path class="cls-6" d="M9.36,11.99c1.13-.01,2.27.07,3.4,0,2-.13,4.81-.54,6.59-1.49.31-.16,1.26-.86,1.52-.85.41.02.52.59.48.91-.11,1-2.12,2.05-2.99,2.33-1.38.44-3.29.88-4.73.86-.7,0-1.41-.06-2.11-.06-.85,0-1.7.06-2.55.03-.52-.02-1.19-.04-1.69-.13-.18,0-.33-.04-.45-.14-.58-.14-1.17-.25-1.76-.35-.43-.08-.85-.21-1.23-.41-.42-.18-.86-.26-1.32-.33-.18.04-.76-.4-.75-.53,0-.02,0-.03.02-.05.16-.21,2.97.25,3.33.35.94.14,1.96.29,2.89.15.32-.19.62-.28,1-.31.12-.03.25-.03.37,0Z"/><path class="cls-6" d="M4.83,2.3c.09-.02.14-.06.21-.13.82-.42,1.73-.79,2.65-1.01,1.33-.32,2.44-.36,3.79-.39.04,0,.07-.02.11-.04.72,0,1.43.04,2.12.14v-.03c1.11.18,2.19.56,3.14,1.14,1.18.71,2.2,1.44,1.03,2.79-1.25,1.45-4.9,2.29-6.75,2.38-1.86.09-4.48-.27-5.93-1.52-.48-.42-1.28-1.32-1.23-2,.03-.42.58-1.03.87-1.32Z"/><path class="cls-27" d="M3.52,4.42c.04-.11.06-.25.12-.36.02-.03.02-.08.07-.04.02.02.1.37.13.44,1.04,2.56,5.56,3.14,7.92,2.85,1.38-.17,2.75-.57,4.06-1.02.06.04.03.06-.03.09l-.5.25c0,.05-.1.09-.12.03-1.59.64-3.31.81-5.02.93-1.18.12-2.34-.24-3.46-.62-.03.04-.09.02-.09-.03l-.5-.19s-.05.02-.06.01c-1.18-.52-1.88-1.23-2.52-2.34Z"/><path class="cls-46" d="M6.82,11.87c-.83.08-1.7-.02-2.53-.12-.77-.15-1.52-.26-2.29-.21l-.11-.04c-.44-.28-1.03-.45-1.43-.02h-.07s-.08-.05-.06-.18c.12-.6,1.25-.35,1.65-.26,1.61.36,2.89.58,4.54.77.09.01.22.02.3.06Z"/><path class="cls-9" d="M18.77,4.54c-.06-.05-.07-.01-.11.03-.11.17-.22.39-.35.55-.17.21-.57.62-.78.74-.04.02-.1.02-.14.04-.08.05-.4.21-.43.26-.06.09.04.09.03.18-.01.12-.33.29-.43.32-.99.29-2.01.55-3.02.77-1.14.25-2.18.4-3.36.43-.33,0-.85.04-1.15,0-.06,0-.41-.16-.51-.19,0-.04.05-.04.12,0,.07-.04.27,0,.31.06.26.06.52.08.78.06,0-.03.02-.02.03,0,.78-.01,1.56-.07,2.33-.16l.05-.04c1.74-.3,3.6-.77,5.11-1.73.38-.24.74-.52.99-.89.11-.21.25-.48.46-.58.02.04.04.08.06.12Z"/><path class="cls-10" d="M.39,11.5c.01-.15.46-.34.57-.34.12,0,.37.03.49.07.19.05.43.24.58.26.09.02.25-.03.34-.02.31.02.77.02,1.04.08,1.2.25,2.2.27,3.41.32.42.02.84.06,1.26.06.05,0,.14-.02.17.03-.46.03-.92.03-1.38,0-.54.15-1.09.1-1.66,0l-2.33-.35h-.35c-.29.03-.58.03-.88.02l-.11-.06c-.26-.33-.61-.29-.9-.03.21,0,.46.34.59.51v.08c.21.09.43.18.65.25.05-.04.12,0,.09.06l.12.06c.05-.06.27.02.28.09.03,0,.03.02,0,.03-.02,0-.05.02-.07.02-.15.02-.97-.29-1.19-.41-.26-.14-.43-.29-.58-.56l-.11-.11s-.02-.06-.03-.09Z"/><path class="cls-5" d="M3.49,4.48s.05-.03.07,0c.52.87.96,1.48,1.88,1.99.68.38,1.43.61,2.17.84.54.14,1.09.26,1.64.35,1.42.02,2.9-.13,4.31-.45h.1s.08,0,.12.01l-.08.07c-1.17.33-2.38.44-3.58.49-.55.02-1.06,0-1.58-.15-.14,0-.29-.04-.45-.09-.98-.19-1.96-.42-2.86-.89-.62-.32-1.05-.75-1.41-1.35-.14-.22-.32-.53-.34-.78,0,0,0-.02,0-.03Z"/><path class="cls-46" d="M.42,11.59c.2.02.26.28.36.37.12.12.52.33.67.38.31.1.64.21.92.3.54.15,1.09.29,1.65.41.15.02.26.08.32.18l.37.05.05.07c-.6-.05-1.21-.14-1.81-.26-.88-.18-2.14-.63-2.54-1.51Z"/><path class="cls-31" d="M10.26.35l.82.05c.09.04-.01.14-.09.14-1.27.09-2.53.19-3.81.44-.18.1-.28.1-.29-.01,1.17-.49,2.11-.64,3.39-.62Z"/><path class="cls-30" d="M8.56,7.61c.07,0,.1.03.09.06-.04,0-.08,0-.12,0-.04-.01-.08-.02-.12-.03-.38-.09-.77-.18-1.15-.28-.79-.18-1.59-.33-2.26-.8-.52-.36-1.02-.9-1.38-1.41-.07-.1-.09-.26-.24-.28.04-.12.08-.25.12-.37.06.13.14.25.2.38.24.5.51.91.95,1.29.61.53,1.99.98,2.79,1.19.36.09.77.12,1.13.26Z"/><path class="cls-38" d="M8.24,11.96c.32,0,.63,0,.95,0,.05,0,.14-.02.17.03-.12,0-.25,0-.37,0-.15.06-.28.06-.37,0l-1.53.22c-.48.05-.97-.02-1.46-.09-.88-.16-1.76-.3-2.64-.4l-.05-.04c-.13-.02-.27-.03-.4-.03v-.03c.44-.1.84.07,1.26.12.78.1,1.77.26,2.54.25.17,0,.37-.09.53-.1.41-.02.94.06,1.38.06Z"/><path class="cls-37" d="M18.03,5.04c-.26.39-.65.64-1.05.87-.99.58-2.17,1.07-3.3,1.3-1.24.29-2.22.38-3.5.43-.18,0-.44.07-.62.06-.56,0-1.38-.26-1.94-.4.03-.01.07-.01.12,0,.69.19,1.4.3,2.11.31.63-.07,1.27-.13,1.9-.18.05,0,.1.02.14.05l.16-.03c.02-.08.09-.07.12,0,.03-.03.08-.06.12-.03l.06-.05c.97-.17,1.91-.36,2.79-.72.05-.01.09-.02.12-.03.42-.22.85-.44,1.27-.65.19-.11.39-.2.57-.32.25-.16.5-.41.74-.55.06-.06.11-.08.16-.06Z"/><path class="cls-35" d="M5.14,2.02c1.88-.98,4.04-1.33,6.16-1.31.38-.09.75-.07,1.15,0,.28-.01.57,0,.85.07v-.03c.14.03.28.05.41.09.03.01.13.03.12.06-.33.04-.66-.1-.98-.11-.68-.03-1.42,0-2.11.02-1.23.04-2.36.16-3.54.53-.64.2-1.58.55-2.14.87-.05.03-.11.17-.24.09.12-.11.18-.18.31-.28Z"/><path class="cls-56" d="M18.71,4.38s0,.02,0,.03c-.22.19-.31.47-.5.7-1.2,1.45-4.31,2.25-6.12,2.53-.77.09-1.56.14-2.33.16-.01,0-.02,0-.03,0-.26.01-.52,0-.78-.06-.1-.02-.22-.05-.31-.06-.03-.02-.06-.05-.09-.06.32,0,.63.13.95.14.87.03,2.2-.1,3.06-.25.42-.07.83-.17,1.24-.3.02-.03.04-.02.06,0l.16-.03c.17-.07.41-.16.59-.16l.87-.34c.07-.09.17-.13.28-.12l.19-.06c.03-.08.08-.1.16-.06.24-.1.47-.23.68-.37,0-.06.11-.11.16-.06.5-.29,1.01-.64,1.3-1.15-.04-.05.03-.15.09-.12.02-.06.06-.11.12-.16-.04-.05,0-.1.06-.06.04-.06.12-.17.19-.12Z"/><path class="cls-26" d="M12.66.63c.22.04.43.07.65.12l.09.06s-.09,0-.14,0c-.44-.03-1.28-.18-1.68-.13-.06,0-.03.06-.09.07-.5.06-1.16,0-1.68.03-1.36.07-2.81.48-4.04.99-.17.07-.33.17-.49.25-.04.02-.11.06-.14,0,.13-.11.24-.18.37-.28.47-.17.96-.36,1.44-.56.69-.21,1.4-.32,2.11-.4.93-.11,1.87-.17,2.79-.21.27.04.54.06.8.05Z"/><path class="cls-48" d="M11.54.44c.07,0,.13,0,.19.03.01,0,.02,0,.03,0,.28.07.17.11-.33.11-.77.08-1.55.15-2.31.17l-.41.07c-.58,0-1.15.13-1.7.3,0,.07-.06.09-.09.03-.26.12-.54.23-.83.28l-.04-.04c.25-.2.55-.31.84-.43.1.08.2-.04.3-.06.82-.15,1.73-.29,2.57-.35.39-.03.62.02,1.03-.06.11-.02.24.05.29-.09l-.81-.06c.45,0,.83.04,1.27.09Z"/><path class="cls-24" d="M13.46,10.13s.07.02.06.06c-.04.27-.94.81-1.2.95-.13.08-.26.18-.36.29-.06.06-.18.22-.08.25.14,0,.29,0,.43,0-.03.05-.12.03-.17.03-.72,0-1.43-.02-2.14-.03-.05,0-.14.02-.17-.03.27,0,.54,0,.81,0l.02-.04c-.41-.21-.69-.43-.88-.84-.06-.12-.23-.56-.07-.61.07-.06.17.01.16.09.04,0,.06.04.08.07.08.53.18.78.68,1.05.32.17.83.31,1.11.02l.83-.64c.07-.06.13-.07.19-.03.26-.15.47-.36.66-.59h.06Z"/><path class="cls-28" d="M12.66.63c-.18.16-.46.02-.64,0-.34-.03-.68,0-1.02.03-1.73.11-3.2.21-4.83.85-.14.06-.28.14-.43.19-.05.02-.18.09-.23.04.06-.04.12-.08.19-.12l.26-.13c.34-.08.66-.2.95-.34.03,0,.06-.02.09-.03.4-.12.81-.22,1.23-.28.16-.02.32-.02.47,0,.12-.05.28-.08.42-.09.51-.08.86-.06,1.35-.09.47-.03.95-.19,1.44-.13l-.16-.06c.31.04.6.1.9.16Z"/><path class="cls-37" d="M3.52,4.42c.22.2.37.48.55.71.66.86,1.05,1.14,2.03,1.62l.5.19s.06.02.09.03c.35.13.7.24,1.06.34h-.12c-1.05-.27-2.47-.72-3.23-1.54-.28-.3-.6-.84-.81-1.21-.02-.04,0-.1-.09-.08,0-.03.03-.05.03-.06Z"/><path class="cls-32" d="M3.83,12.71c.24.05.46.17.68.23.76.22,1.57.28,2.33.47.19.13.2.16.43.2-.13,0-.26,0-.39,0-.05,0-.09-.03-.11-.03-.91-.17-1.79-.39-2.65-.66l-.02-.02c-.06,0-.36-.12-.37-.14,0-.01,0-.03,0-.05.02-.02.05-.02.09,0Z"/><path class="cls-44" d="M4.27,13.08s.07-.03.11-.01c.31.1.63.19.94.29.04.01.06.03.08.07-.21,0-.42-.03-.62-.06-.11-.02-.35-.04-.44-.06-.03,0-.04-.07-.07-.09-.29-.18-.99-.25-1.35-.36-.17-.05-.37-.16-.52-.21v-.03s.07-.02.1-.01c.6.13,1.21.28,1.79.48Z"/><path class="cls-34" d="M3.62,12.77c.12-.05.28.04.37.12.68.21,1.38.39,2.09.53l.12.09-.76-.06s-.04-.03-.05-.03c-.35-.07-.75-.23-1.12-.34-.53-.19-1.08-.33-1.65-.44l-.06-.06c.34.03.69.1,1.06.19Z"/><path class="cls-12" d="M4.11,12.9c.15,0,.25.1.4.15.65.18,1.42.23,2.08.44.07.02.14.05.2.1-.23-.02-.36-.02-.59-.06-.69-.13-1.53-.4-2.21-.62.03-.02.07-.02.12,0Z"/><path class="cls-55" d="M16.57,5.97c-.41.25-.8.5-1.27.65.14-.1.31-.18.46-.27.04-.02.06-.07.06-.07.22-.12.51-.19.75-.31Z"/><path class="cls-28" d="M6.91,1.15c-.06.07-.19.12-.27.15-.25.1-.52.19-.77.28-.06.02-.1.05-.17.03.1-.07.21-.2.34-.22.32-.04.55-.16.87-.25Z"/><path class="cls-39" d="M18.68,4.32c-.04.06-.1.12-.16.19-.01,0-.03.04-.06.06-.06.04-.1.09-.12.16-.04.04-.06.08-.09.12,0,.05-.03.07-.06.06-.05.04-.11.09-.16.12-.04.02-.12.04-.16.06.29-.26.55-.56.71-.92.04-.03.08.11.09.14Z"/><path class="cls-5" d="M18.71,4.38c-.08.01-.13.08-.19.12,0-.09.09-.14.16-.19.01.02.02.04.03.06Z"/><path class="cls-28" d="M11.72.47c-.06,0-.14-.03-.19-.03.06,0,.15-.02.19.03Z"/><path d="M10.61,8.39c.28.08.35.15.43.42.03.09.08.3,0,.35.03.26-.26.41-.5.37s-.61-.3-.59-.56c-.07-.06-.07-.16,0-.31.09-.13.15-.2.28-.28l.19-.03c.09-.06.15-.05.18.03Z"/><path d="M11.94,8.05c.06.04.09.09.09.12.11.08.14.16.09.22.17.52-.47,1.02-.81.5l-.08-.02c-.13-.21-.11-.4-.08-.63-.08-.07.05-.26.16-.25.02-.02.19-.1.22-.11.2-.05.26.09.4.17Z"/><path class="cls-43" d="M11.94,8.05c.16.1.2,0,.35.04.05.01.07.08.13.09.07,0,.1-.06.15-.06.11-.01.6.1.71.16.13.07.34.41.35.54.01.13-.03.36-.01.48.03.27.16.44.05.74-.07.2-.44.6-.62.72-.29.2-.8.4-1.04.67-.06.06-.09.18-.14.25-.09,0-.18,0-.26,0-.04,0-.12.02-.11-.03.27.05.31-.17.45-.28.46-.39,1.09-.62,1.45-1.1.04-.05.07-.07.06-.14l-.02-.08c.21-.26.11-.55,0-.82l-.09-.56c-.07-.24-.19-.32-.42-.4,0,.03-.02.03-.03,0-.1-.03-.24-.01-.31.05-.08.14-.19.25-.22.02-.16.04-.26-.03-.34-.17-.05-.03-.09-.05-.09-.12Z"/><path class="cls-30" d="M9.7,9.29l.02.08c-.16.12-.2.35-.17.54.08,0,.16.17.16.25-.05.21.05.33.11.5.03.08.01.14.05.23.04.1.27.35.35.42.16.13.38.23.57.31,0,.06-.12.03-.16.03-.14-.14-.34-.2-.49-.33s-.45-.54-.52-.73c-.02-.06,0-.13-.03-.19-.05-.12-.2-.38-.23-.49-.05-.27.05-.55.33-.63Z"/><path class="cls-36" d="M11.32,7.99s-.14.21-.16.25l-.02.14c.04.27-.02.27-.23.12-.11-.02-.21-.06-.3-.11-.1-.02-.26.02-.37,0,.1-.06.1-.03.19-.06.1-.04.06-.19.32-.15.05,0,.16.09.2.06,0,0,.04-.14.09-.19.08-.08.18-.1.29-.06Z"/><path class="cls-24" d="M9.95,8.98c.05.17-.07.42-.19.53-.02.07-.06.15-.13.23,0,.09-.04.15-.09.18-.05-.17-.07-.32.03-.48.03-.05.09-.07.13-.14.1-.19.09-.39.25-.62,0,.1.01.22,0,.31Z"/><path class="cls-9" d="M8.4,7.65c-.27-.07-.56-.1-.84-.17-.1-.02-.22-.05-.31-.11.38.09.78.13,1.15.28Z"/><path class="cls-14" d="M8.62,11.99c.11-.01.25,0,.37,0-.17.1-.38.1-.57.16-.13.05-.29.17-.41.21-.07.02-.54.07-.62.06-.76-.03-1.63-.1-2.38-.23-.84-.15-1.7-.35-2.52-.4-.15,0-.46-.02-.59,0-.03,0-.07.02-.08.05s.22.22.26.25c.04.03.14.11.16.13.16.1.79.15,1.01.21.07.02.12.1.24.06l.35.2s-.06,0-.09,0c-.03.03-.07.03-.1.02-.36-.09-.72-.16-1.09-.22-.28-.07-.89-.35-1.08-.55-.05-.05-.09-.11-.03-.17.08-.1,1.41-.08,1.59-.05.91.12,1.82.26,2.72.42.83.1,1.73.17,2.51-.11l.36-.05Z"/><path d="M16.6,4.6c.03.11,0,.15-.09.12-.04.05-.08.09-.12.12-.14.1-.27.19-.42.27l-.05-.02c-.16.1-.33.18-.5.25-.04.02-.08.02-.12,0-1.3.42-2.73.52-4.09.51-.32,0-.67,0-.97-.08-.02.01-.04.03-.06.02-.83-.07-1.71-.15-2.53-.32-.48-.1-.97-.22-1.36-.52-.03,0-.06,0-.07,0-.19-.15-.39-.34-.55-.52-.19-.03-.2-.37-.21-.54,0-.1,0-.2.02-.3.26-1.21,2.32-1.72,3.37-1.77,1.54-.08,3.07.11,4.6.22,1.15.08,3.86.92,3.15,2.55Z"/><path class="cls-14" d="M5.57,4.76c.07,0,.14.08.16.16l.3.38c.17.17.78.45,1.03.54.35.14.65.15,1.03.14.87-.04,1.71-.02,2.56.15,1.9.3,3.91.03,5.53-.92.06-.17.17-.33.33-.48.02-.04.08-.1.09-.12-.03.07.09.08.09.11,0,.02-.15.25-.17.29-.03.05-.09.08-.12.13-.03.05,0,.15-.08.23-.16.17-.98.36-1.25.53-.07.05-.13.14-.19.16-.44.17-1.07.12-1.52.24-.58.15-.51.09-1.09.05-.47-.03-.96,0-1.43-.05-1.06-.11-2.19-.14-3.27-.17-.47-.01-.69-.29-1.08-.47-.12-.06-.43-.12-.5-.18-.11-.09-.12-.25-.17-.35-.09-.17-.3-.26-.4-.52.06.02.11.07.16.16Z"/><path class="cls-18" d="M5.45,4.1c-.08.22.03.43.14.61l-.02.04c-.05-.05-.1-.1-.16-.16-.07-.17-.18-.47.03-.56.03.02.04.04,0,.06Z"/><path class="cls-33" d="M5.67,4.45c.17.19.36.37.56.53.05.06,0,.11-.05.15,0,.07,1.22.41,1.33.42l.03.04s-.05.05-.08.05c-.47-.03-.91-.16-1.32-.39-.32-.25-.81-.68-.68-1.15,0-.02,0-.04,0-.06,0-.17,0-.27.03-.43-.03.35,0,.54.19.84Z"/><path class="cls-55" d="M15.17,6.65l-1.12.44c-.58.06-1.16.23-1.73.33-.05-.02-.08,0-.12.03-.04,0-.08,0-.12,0l-.16.03c-1.06.05-2.12.26-3.18.05-.31-.06-.67-.16-.99-.24-.36-.09-.73-.16-1.06-.34.77.24,2.35.69,3.12.65.08,0,.26-.07.35-.08.98-.09,1.96-.15,2.94-.33.73-.13,1.36-.33,2.07-.55Z"/><path class="cls-55" d="M6.6,6.93c-.21-.07-.29-.09-.5-.19.16.05.37.09.5.19Z"/><path class="cls-30" d="M12.1,7.65c-.76.12-1.55.18-2.33.16l2.33-.16Z"/><path class="cls-30" d="M9.74,7.8c-.24.08-.54-.02-.78-.06.26.02.51.05.78.06Z"/><path class="cls-42" d="M2.53,11.62s.03.03.07.03c.1.01.25-.04.33.03l-.09.03c-.49-.03-.99-.02-1.48.06-.26-.04-.2.11,0,.18.14.04.24.1.29.19.29.18.59.32.9.43.4.13.81.18,1.21.3.16.04.37.1.5.2-.63-.19-1.27-.29-1.89-.47-.12-.03-.17-.04-.28-.09l-.12-.06s-.06-.04-.09-.06c-.22-.07-.44-.16-.65-.25-.15-.11-.39-.48-.47-.52-.04-.02-.17,0-.18-.06-.03-.14.42-.3.54-.3.32.01.37.27.57.3.22.04.58.01.85.04Z"/><path class="cls-44" d="M1.88,12.4c-.18-.05-.43-.08-.59-.17-.04-.02-.05-.06-.06-.08l.57.16c.05,0,.07.07.09.09Z"/><path class="cls-44" d="M2.1,12.52c-.07-.03-.05-.01-.12-.06l.12.06Z"/><path class="cls-5" d="M18.18,4.91c-.26.49-.78.81-1.24,1.09-.04.02-.11.04-.16.06-.22.15-.44.27-.68.37-.05.02-.1.04-.16.06l-.19.06c-.09.04-.19.08-.28.12l-.87.34c-.21.07-.37.12-.59.16l-.16.03s-.04,0-.06,0c-.04,0-.08,0-.12,0,.87-.2,1.62-.5,2.42-.89s1.32-.61,1.93-1.29c.05-.05.07-.12.16-.12Z"/><path class="cls-51" d="M2.93,11.68c.43.03.97.12,1.41.19.72.1,1.45.28,2.17.31.52.02,1.18-.13,1.71-.19.12-.01.26,0,.39,0-.29.03-.54.21-.83.24-2.01.27-3.96-.64-5.92-.49-.06,0-.33.04-.37.06-.04.02-.02.04-.02.08.31.22.61.47.99.57.42.11.86.1,1.28.26.11.04.25.14.37.19-.04,0-.08,0-.12,0-.12-.04-.25-.09-.37-.12l-1.01-.2c-.35-.07-.66-.23-.95-.42-.15-.06-.49-.17-.56-.33-.01-.03.04,0,.05-.03.11-.19.05-.07.21-.08.53-.03,1.04-.06,1.57-.03Z"/><path class="cls-37" d="M12.31,7.43s-.08.03-.12.03c.02-.05.05-.07.11-.06l.02.03Z"/><path class="cls-37" d="M12.06,7.46c-.03.05-.11.03-.16.03.03-.05.11-.03.16-.03Z"/><path class="cls-5" d="M16.94,6c.02-.06.06-.07.11-.09.52-.27.77-.56,1.13-.99.02-.03.05-.05.06-.06,0,.07-.02.12-.06.17-.31.42-.78.75-1.24.98Z"/><path class="cls-5" d="M16.79,6.06c-.15.15-.39.27-.59.36-.03.01-.07,0-.09.01.1-.13.29-.16.41-.22.1-.05.14-.09.27-.15Z"/><path class="cls-5" d="M15.48,6.68c-.29.13-.57.25-.87.34.28-.13.57-.28.87-.34Z"/><path class="cls-37" d="M18.46,4.57c-.03.07-.08.11-.12.16-.02-.13.08-.12.12-.16Z"/><path class="cls-5" d="M15.95,6.5c-.06.02-.11.08-.19.06.05-.02.09-.09.19-.06Z"/><path class="cls-5" d="M14.02,7.18c-.05,0-.08.03-.16.03.03-.05.11-.03.16-.03Z"/><path class="cls-28" d="M9.11.75c-.11.02-.32.09-.42.09h-.47c-.1,0-1.06.24-1.23.28.22-.14.52-.14.78-.2.38-.08.49-.09.88-.12.14,0,.3-.08.45-.06Z"/><path class="cls-15" d="M13.09,8.39c.14-.02.22.11.25.38l.1.49c.33.62-.19,1.16-.7,1.46-.26.13-.62.42-.87.61-.07.06-.16.18-.22.21-.53.27-1.38-.17-1.66-.63l-.14-.65s.02-.03.03,0c.22,0,.32.15.28.43l.07.02c.08.46.52.64.94.69l.04.06.26-.05c.42-.25.81-.55,1.16-.91l.2-.09v-.08c.2-.09.36-.23.45-.4l.07-.02v-.2c-.11-.33-.17-.66-.19-1.02-.11-.07-.14-.19-.09-.31Z"/><path d="M10.29,9.88c.11.3-.11.51-.4.37-.01,0-.02,0-.03,0-.04,0-.12-.07-.16-.09-.1-.08-.12-.12-.16-.25,0-.16.07-.33.22-.4.15-.29.62.15.53.37Z"/><path class="cls-53" d="M13.46,10.13c-.21.28-.41.44-.71.59.35-.25.81-.71.73-1.18-.02-.11-.08-.2-.1-.3-.05-.23-.08-.48-.16-.71-.05-.14-.07-.1-.12-.14-.07.06-.21-.04-.16-.12.57.03.49.58.57.97.02.12.1.23.12.35.03.23-.02.36-.16.54Z"/><path class="cls-12" d="M3.62,12.77l-1.06-.19c-.35-.11-.61-.2-.9-.43.24.1.44.25.68.33.41.13.85.16,1.27.3Z"/><path class="cls-7" d="M11.04,9.17c.08,0,.15.16.09.22v.08c-.21.17-.4.37-.58.58h-.08c-.12.16-.18.11-.19-.16-.09-.21-.25-.5-.53-.37.02-.17.16-.37.19-.53.21.45.82.78,1.09.19Z"/><path class="cls-13" d="M11.32,8.89c.13.1.18.21.16.31.02.1-.26.24-.34.19-.05-.06-.08-.14-.09-.22-.05-.22-.04-.47-.23-.64-.02-.02-.19-.13-.21-.14.1.05.23.03.31.04.05.01.19.14.22.11,0-.12-.01-.2.03-.31-.04.26.06.43.16.65Z"/><path class="cls-47" d="M12.03,8.17s.19.11.21.12c.1.01.21-.11.2.13.11,0,.05-.13.18-.17.07-.02.22-.04.28.02-.04.05-.11.09-.21.11-.07.07-.13.12-.2.14-.04.16,0,.33.07.48.03.13.03.22-.13.17-.03.09-.3.06-.31-.03-.11,0-.14-.07-.07-.25.07-.16.14-.32.07-.5-.03-.07-.09-.14-.09-.22Z"/><path class="cls-41" d="M12.13,8.39c.09.24.02.22-.01.43,0,.04.02.08,0,.13-.01.06-.13.12,0,.18-.09.06-.2.08-.36.06-.12.04-.22.04-.3,0-.05-.1-.11-.21-.16-.31.38.39.92,0,.81-.5Z"/><path d="M12.9,8.27s.02,0,.03,0c.04.05.1.08.16.12.04.1.07.2.09.31v.09c-.05.77-.86.29-.68-.28.08-.18.22-.24.4-.25Z"/><path class="cls-59" d="M14.7,2.74c.65.27,1.63.74,1.49,1.58l-.1-.23c-.18-.31-.54-.51-.9-.45-.22.04-.38.28-.62.21-.06-.02-.31-.52-.66-.5-.33.02-.28.35-.47.53-.08-.03-.09-.11-.18-.16-.36-.23-.61.04-.92.19-.13-.68-.8-.83-1.19-.25-.22.33.06.7-.36.82-.49.15-.4-.05-.57-.36-.2-.36-.77-.93-1.22-.82-.22.06-.44.39-.61.39-.12,0-.31-.31-.46-.41-.67-.4-1.55.49-1.69,1.12-.11-.08-.23-.21-.28-.34-.01-.07-.03-.18.06-.16.66-.93,1.98-1.2,3.07-1.28,1.86-.13,3.79-.12,5.62.1Z"/><path class="cls-23" d="M6.97,4.82c-.07-.05-.04-.09.01-.14.02-.02.49-.25.52-.25.27.09.54.16.82.23l.22-.02c.26-.18.7-.18.87.12.36.31.9.57,1.37.4.31-.12.59-.28.86-.49,1.06-.25,2.27-.2,3.36-.04l.47-.03c.12,0,.25.07.1.15-1.92,1.08-5.86.67-7.99.24-.23-.05-.39-.1-.62-.18Z"/><path class="cls-20" d="M11.35,4.6s.02-.01.03,0c.14.1-.2.3-.3.34-.7.31-1.12.1-1.56-.47-.13-.1-.65-.2-.79-.12-.31.34-.72.04-1-.18-.14-.1-.2-.11-.37-.07-.24.06-.53.37-.69.54,0,0-.02.01-.04.02-.04-.02-.16-.02-.15-.1.01-.14.51-.67.64-.76.09-.06.33-.16.43-.16.25,0,.31.27.47.4.2.16.52.13.72-.01.15-.1.25-.36.47-.28.05.02.42.32.47.37.23.27.22.74.64.82.3.05.86-.07,1.03-.33Z"/><path class="cls-54" d="M6.63,4.66c.01-.05.04-.11.07-.14.07-.08.45-.41.53-.45.06-.02.29-.06.35-.06.08,0,.46.38.75.42.33.05.29-.14.46-.17.07-.01.54.06.62.08.22.07.25.24.4.37.38.33.69.43,1.17.22.14-.06.36-.17.39-.34.24-.25.64-.25.97-.22.35-.08.72-.09,1.09-.05.33-.07.69-.12,1.01,0,.15,0,.29,0,.43,0,.21-.07.56-.09.74.07.04.04.18.29.07.27-.07,0-.15-.04-.24-.08-1.01-.05-2.06-.09-3.09-.04-.27.02-.59.05-.82.18-.43.39-.98.57-1.54.32-.01,0-.02-.02-.02-.05-.23-.11-.4-.21-.51-.45-.09-.09-.61-.18-.72-.12-.26.3-.75.13-.99-.12-.03-.02-.09-.06-.11-.06-.16-.03-.82.34-.96.44-.02-.01-.04-.02-.06-.03Z"/><path class="cls-18" d="M5.73,4.91h.04c.48.65,1.28.83,2.06.89.95,0,1.89.05,2.82.26.63.06,1.31.12,1.95.11.96-.02,1.87-.31,2.75-.65.35-.13.69-.29.93-.58.01-.04.04-.07.09-.09.04-.04.06-.1.12-.12-.06.11-.25.35-.26.37-.01.04.03.08-.01.14-.07.11-.85.41-1.02.47-.79.3-1.88.6-2.72.57-.57-.02-1.18-.06-1.74-.12-.35-.04-.76-.12-1.09-.14-.54-.03-1.11.03-1.64.01-.48-.01-.69.01-1.12-.21-.09-.05-.17-.13-.26-.17-.21-.11-.51-.13-.66-.36l-.23-.37Z"/><path class="cls-46" d="M15.29,5.35c-.03.05-.08.09-.14.11-1.62.55-3.2.67-4.89.39-.07-.02-.08-.04-.03-.06.84.04,1.99,0,2.84-.06.75-.05,1.49-.21,2.22-.37Z"/><path class="cls-20" d="M11.35,4.6c.15-.23.04-.66.29-.81s.26.28.41.43c.38.39.67-.19.9-.22.13-.01.16.18.25.25.29.21.7-.16.76-.46.21.15.23.42.5.53-.62-.01-1.21.04-1.81.07-.26.02-.79.02-1.01.1-.1.04-.14.13-.25.1h-.03Z"/><path class="cls-22" d="M13.77,2.46c-1.04.02-2.07.02-3.11,0-1.25,0-2.64.03-3.75.58-.17.12-.35.24-.53.35-.13.14-.28.24-.43.3.05-.2.17-.3.31-.43.8-.52,1.67-.85,2.64-.9,1.45-.17,2.91.06,4.36.03l.51.06Z"/><path class="cls-3" d="M14.39,2.61c.11.04.21.08.31.12-.14,0-.28,0-.42,0-1.87-.14-3.85-.25-5.71,0-.94.13-1.94.42-2.57,1.18-.02-.02-.04-.05-.03-.08.07-.49,1.8-1.19,2.3-1.16,1.8-.23,3.66-.21,5.5-.14.21,0,.41.03.62.08Z"/><path class="cls-17" d="M15.7,4.66s.03.02,0,.03c-.05.03-.09.04-.12.06.07-.07-.03-.08-.08-.09-.17-.02-.32.03-.49.03-.26-.01-.56-.11-.84-.13-.57-.02-1.2.02-1.77.03-.14,0-.63.07-.75.12s-.27.22-.4.29c-.15.08-.3.1-.46.15-.46.17-1.18-.09-1.42-.51-.14-.03-.18-.08-.14-.14.14-.11.29.1.35.23.11.11.24.2.4.27.43.18.66.21,1.1,0,.38-.19.37-.38.88-.46.84-.12,1.94-.08,2.79-.03.3.02.75-.09.95.16Z"/><path class="cls-21" d="M6.75,4.73s-.01-.03,0-.04c.02-.05.84-.43.93-.42.3.24.76.52,1.09.17.09-.04.43,0,.48.08.03.08.12.05.17.09.04.03.04.1.07.14.29.34.87.53,1.3.42-.11.03-.19.09-.33.1-.29,0-.86-.25-1.08-.44-.05-.04-.07-.14-.12-.17-.04-.03-.33-.08-.39-.08-.16,0-.25.09-.41.12-.39.06-.59-.13-.95-.2-.16.13-.47.11-.55.33-.1-.04-.13-.05-.22-.09Z"/><path class="cls-49" d="M10.23,5.78l.03.06c-.16.02-.33,0-.5-.06-.03.02-.05.03-.08.03-1.01-.06-2.13-.18-3.09-.51-.09-.03-.34-.23-.31-.33.32.14.58.28.93.36.85.2,2.15.4,3.02.44Z"/><path class="cls-29" d="M13.77,2.46s.1-.02.12.03c-.02.03-.05.05-.08.05-1.84-.08-3.68-.04-5.54.11-.44.1-.88.21-1.29.4h-.07c.18-.11.41-.22.6-.28.88-.29,1.82-.28,2.73-.31,1.17-.04,2.35-.02,3.52,0Z"/><path class="cls-45" d="M6.29,4.97c.12.09.21.22.36.28,1.03.42,2.04.42,3.12.53.11.01.19.04.25.09-.77-.06-1.54-.13-2.31-.21l-.17-.07c-.3-.12-.63-.13-.94-.23-.08-.03-.4-.15-.46-.19-.09-.07.06-.12.06-.15,0-.05-.42-.39-.48-.48-.03-.04-.03-.07-.04-.09.19.2.4.36.62.53Z"/><path class="cls-8" d="M16.38,4.85s-.05.06-.09.09c-.42.45-1.1.67-1.68.86-1.23.39-2.33.43-3.58.31l-.02-.05c.23-.02.47-.02.71,0l.08-.03c.87.05,1.72-.08,2.56-.28l.03-.05c.52-.15,1.05-.32,1.52-.6.16-.07.3-.19.47-.25Z"/><path class="cls-45" d="M15.92,5.1c-.43.36-1.02.5-1.55.65-1.41.39-2.87.33-4.32.12-.01.03-.02.03-.03,0l-.25-.09c.17.02.33.05.5.06,1.91.18,3.28.22,5.03-.5.21-.08.42-.16.62-.25Z"/><path class="cls-4" d="M9.98,5.01c-.13-.06-.23-.08-.36-.19-.19-.17-.08-.27-.39-.31-.1-.01-.36-.07-.42-.06-.08.01-.11.1-.18.13-.23.11-.57.01-.78-.11-.08-.05-.09-.16-.25-.15l-.86.4s-.04-.02-.06-.03c.01-.1.17-.18.25-.23.1-.06.64-.28.72-.27.05,0,.29.23.38.28.16.08.37.13.55.06.08-.03.1-.13.2-.15.11-.02.5.03.6.08.17.07.15.2.25.31.08.09.25.15.34.24Z"/><path class="cls-25" d="M8.9,2.37c-.51.06-1.28.28-1.77.48-.3.12-.54.37-.87.42.68-.66,1.71-.9,2.64-.9Z"/><path class="cls-2" d="M13.9,2.49c.2,0,.32.06.5.12-1.03-.05-2.06-.11-3.09-.09-.92.02-2.13.02-3.03.16-.03,0-.03-.02,0-.03,1.5-.22,3.3-.16,4.83-.12.27,0,.54-.04.79-.03Z"/><path class="cls-11" d="M8.28,2.64v.03c-.68.1-2.01.57-2.27,1.24-.02.04-.08.09-.06.16-.05-.15-.04-.22,0-.37.28-.27.61-.49.96-.65.43-.19.9-.33,1.37-.4Z"/><path class="cls-1" d="M15.7,4.69v-.03c.05-.03-.02-.15-.05-.19-.15-.18-.55-.15-.76-.16.26-.1.39-.34.65-.11.14.12.15.29.25.44-.02.04-.07.03-.09.05Z"/><path class="cls-19" d="M5.45,4.1c0,.16,0,.32.08.46s.46.57.6.69c.56.32,1.2.39,1.85.45,1.02.05,2.03.17,3.03.36.24.06.51.02.76.03.3,0,.81.1,1.09.06,1.03-.12,2.62-.55,3.43-1.21-.09.07-.15.24-.22.29-.15.12-.87.39-1.09.47-1.31.48-2.47.56-3.86.45-.72-.06-1.4-.26-2.14-.28-.83-.02-1.38.07-2.2-.22-.59-.21-.64-.31-1.05-.74-.05-.05-.1-.1-.16-.16-.08-.19-.29-.46-.12-.65Z"/><path d="M12.13,9.14c.09,0,.23.02.31.03.06.02.1,0,.11-.04.05,0,.53.14.48.26.09-.08.25.13.3.21.05.1.06.21.04.32-.1.3-.31.33-.53.5l-.2.11c-.23.02-.41.14-.55.32-.21.35-.44.61-.86.63-.32-.01-.78-.17-.95-.47-.06-.1-.07-.2-.11-.31-.02-.1-.03-.19.01-.29.05-.15.18-.32.3-.37.12-.16.5-.55.65-.65.05-.03.29-.17.34-.19.19-.07.45-.07.65-.06Z"/><path class="cls-40" d="M12.84,10.41c-.17.14-.36.34-.53.48-.31.26-.66.59-1.09.57.09-.05.18-.04.28-.08.39-.16.45-.74.94-.89.12-.04.28-.04.4-.08Z"/><path class="cls-52" d="M13.37,9.91c0-.21-.18-.42-.34-.53-.11-.1.02-.15.13-.15-.02-.15,0-.29.03-.44,0-.03,0-.06,0-.09.04.16.05.32.09.48.06.27.2.42.1.73Z"/><path class="cls-50" d="M10.48,10.04c-.06.08-.2.3-.24.39-.04.08-.07.17-.07.26-.06-.17-.06-.38-.28-.43.27.03.42-.1.4-.37.05.11.05.29.19.16Z"/><path class="cls-58" d="M13.18,8.8c0,.07.05.48.03.5-.04.02-.21-.02-.19.09-.15-.1-.41-.19-.59-.22.1,0,.09.04.08-.06-.01-.18-.08-.43-.02-.59-.1.5.54.93.68.28Z"/><path class="cls-16" d="M7.53,5.6c.82.12,1.65.2,2.48.28.01,0,.02,0,.03,0,.55.07,1.1.13,1.65.16l.02.03c-.24-.01-.48.01-.71,0-.48-.03-.95-.16-1.41-.22-1.04-.14-2.08.02-3.1-.38-.15-.06-.25-.11-.37-.21.29.09.56.24.87.3.17.03.36.02.53.05Z"/><path class="cls-45" d="M14.36,5.75c-.93.26-1.66.35-2.64.31-.18,0-.38-.06-.57-.03l-1.1-.15c1.05.09,2.1.21,3.15.09.4-.04.77-.18,1.17-.21Z"/></g></svg>