<?xml version="1.0" encoding="UTF-8"?><svg id="Layer_2" xmlns="http://www.w3.org/2000/svg" viewBox="0 0 151.61 147.75"><defs><style>.cls-1{fill:#f9b120;}.cls-2{fill:#f1a424;}.cls-3{fill:#f3c964;}.cls-4{fill:#de7812;}.cls-5{fill:#f2a421;}.cls-6{fill:#f6b115;}.cls-7{fill:#f6be31;}.cls-8{fill:#2397c3;}.cls-9{fill:#ce700e;}.cls-10{fill:#f3972c;}.cls-11{fill:#f9913d;}.cls-12{fill:#281709;}.cls-13{fill:#f5c44f;}.cls-14{fill:#f4a919;}.cls-15{fill:#f7ae10;}.cls-16{fill:#f7ba24;}.cls-17{fill:#f4c759;}.cls-18{fill:#f5a920;}.cls-19{fill:#38a5ca;}.cls-20{fill:#f5ae18;}.cls-21{fill:#f38e1b;}.cls-22{fill:#cd700f;}.cls-23{fill:#f7ae12;}.cls-24{fill:#f6b017;}.cls-25{fill:#f2cc6f;}.cls-26{fill:#f8b819;}.cls-27{fill:#f5c144;}.cls-28{fill:#f7bb24;}.cls-29{fill:#f5be34;}.cls-30{fill:#f8b111;}.cls-31{fill:#f38412;}.cls-32{fill:#f5ab1c;}.cls-33{fill:#f8a22f;}.cls-34{fill:#070707;}.cls-35{fill:#f79936;}.cls-36{fill:#f1a321;}.cls-37{fill:#f4c85f;}.cls-38{fill:#f5c143;}.cls-39{fill:#e67c13;}.cls-40{fill:#5bb3d2;}.cls-41{fill:#f4a549;}.cls-42{fill:#f3c961;}.cls-43{fill:#f0a023;}.cls-44{fill:#f08212;}.cls-45{fill:#fbab26;}</style></defs><g id="Layer_1-2"><path class="cls-34" d="M16.91,30.86c.61-.15,1.57-.09,2.02-.63.34-.41,1.1-3.78,1.48-4.74C25.14,13.52,35.97,5.53,48.09,1.84c24.74-7.53,49.67,8.79,47.49,35.67-.77,9.54-7.09,17.29-15.2,21.82-.02.92,7.2,6.32,8.42,7.13,17.53,11.65,41.29,10.14,54.54-7.01.57-.74,2.45-4.1,3.1-3.99.75.13,2.33,3.43,2.62,4.25,4.26,12.2,3.39,31.47-4.29,42.02-12.26,16.85-25.87,27.1-44.59,35.91-1.46.69-3.01,1.36-4.57,1.82,5.06,4.52-1.36,7.2-5.53,8s-8.4-.06-12.1-2.04c-2.26-1.21-2.99-2.57-5.86-2.85-5.78-.55-12.38.18-18.35-.32-2.81-.23-6.67-1.44-9.05-1.52-1.67-.06-4.88.78-6.82.9-6.85.43-16.39,1.45-21-4.82-2.44-3.32.36-6.15-.05-7.71-.05-.19-1.99-2.57-2.38-3.23-2.71-4.58-4.23-8.72-4.42-14.1l-.31-2.8c.04-16.58,6.16-30.9,17.26-42.94.56-.6,1.21-1.42,2.03-1.56-4.75-3.7-9.85-8.66-10.88-14.78-4.54.35-10.42.59-14.02-2.79-2.43-2.28-1.32-3.47-1.94-5.84-.18-.7-1.09-1.33-1.4-2.03-1.72-3.92-.93-10.06,4.44-9.73,3.03.19,6.76,1.4,9.79,1.57.58.23,1.2.23,1.87,0Z"/><path d="M10.06,111.76c-.56-.61-.31-1.93-.31-2.8.58.63.28,1.91.31,2.8Z"/><path class="cls-26" d="M117.4,123.9c-.55-.44-1-.52-1.35-.26-7.73,5.32-16.08,9.43-25.39,11.33-.83.35-1.56.81-2.19,1.38-7.98-1.16-10.02,3.57-16.34,4.04-17.2,1.29-36.07-2.16-50.65-11.57-3-1.93-6.25-6.8-7.37-10.21l.48-3.29c-.85-13.9,5.04-29.09,14.39-39.41l3.02-5.39c.87-1.73,2.07-2.81,3.58-3.25,1.32.34,3.01.7,4.36.93l.69.52c3.53,1.11.26,1.82-1.72,2.1l-.27,1,7.26.75c3.73,1.33,6.29,1.72,9.96-.02,4.39.34,8.23.14,12.5-1.19,2.62.08,4.62-.05,6.53-2.13l5.1-5.25.72.18c17.52,13.7,44.89,19.75,61.76,1.87,1.01-1.07,2.22-2.99,3.26-3.9.28-.24.5-.7.79-.15.08.14.62,2.06.7,2.42,2.32,10.25,1.41,18.45-2.1,28.24-4.38,12.23-17.26,23.88-27.69,31.27Z"/><path class="cls-26" d="M85.04,12.19c6.44,7.35,10.2,20.09,7.31,29.56-3.35,10.99-14.86,16.91-24.75,20.99-16.65,6.87-36.86,6.93-46.66-10.41.05-.82.51-.85,1.23-.7,2.14.51,5.92-.54,8.02-1.45,1.36-.59,2.72-1.36,3.61-2.58.5-.7,1.26-2.13.15-2.42-.28-1.46-.38-3-.3-4.59-1.7-4.08-1.79-7.88-.27-11.39l-.59-2.8c-.53-.71-.85-1.7-.95-2.99-.27-.37-.31-.75-.93-.62-.07.6-.54,2.72-.92,2.97-.49.32-1.58.05-2.27.21-2.41.59-4.53,2.03-6.76,3.04-.7-.86,4.82-10.64,6.53-11.51,4.94-3.38,10.88-6.11,16.52-8.29,7.69-2.97,16.12-5.77,23.6-1.51l8.94,2.02c2.89,1.05,5.72,1.88,8.5,2.49Z"/><path class="cls-6" d="M78.51,62.29c.69.63,1.44,1.29,2.18,1.87-2.2,2-5.85,6.89-8.7,7.63-1.21.32-2.37,0-3.55.18-2.24.35-4.66,1.3-6.94,1.4-1.75.08-3.98-.47-5.84-.17-1.16.18-2.2,1.1-3.76,1.22-2.62.2-3.82-.83-5.94-1.21-1.34-.24-7.17-.53-7.72-.93-.49-.35-.16-1.6.26-1.93.59-.47,2.49-.53,3.29-.6-.38-.72-1.92-.24-1.87-1.55,2.66.47,6.02.91,8.71.93.28.1.46.29.4.58,4.68-.19,9.38-.34,14.1-.44.51-.84,1.39-1.25,2.64-1.24,0,0,3.69-2.01,11.06-6.04.68-.3,1.11-.21,1.67.3Z"/><path class="cls-31" d="M14.73,33.35c1.18.62,2.35,1.99,1.94,3.41-.58,1.7-1.13,3.37-1.63,5-3.91.05-7.39.3-10.58-2.18-.5-1.14-.31-2.29.58-3.44-1.01-3.83,1.14-4.31,4.4-4.03,1.7.33,3.6.98,5.29,1.24Z"/><path class="cls-39" d="M21.26,32.72c1.79-.32,3.63,1.04,3.33,2.93,2.75-1.85,2.88-.17,1.98,2.3.93.84,1.19,1.89,1.4,3.09l.44.07c.08.27.84.64.62,1.24-.35.31-6.77-.9-7.92-.94-2.06-.09-4.03.3-6.08.32-.76-1.73,1.17-4.67,1.12-5.76-.03-.77-1.4-1.72-1.43-2.64,3.22.51,3.62.05,6.53-.62Z"/><path class="cls-32" d="M31.84,23.39c.62.87.4,1.55.72,2.09.09.16.57.2.77.61.16.32.66,2.7.67,3.1.02.98-.65,1.31-.89,2.16-1.08,3.95.85,6.14,1.21,9.63.11,1.08-.22,2.8,0,3.67.15.57,1.16-.11.73,1.71-.9,3.79-6.77,5.45-10.15,5.78-.29.03-.57.45-.98.47-.77.05-2.15-.7-2.97-.28-.12-.21-.2-.42-.31-.62-.61-1.17.82-2.54,1.87-1.87.48-.25.77-.03.87.66,1,.32,7.15-1.51,7.75-3.02l.72-.13c.29-.38,1.03-.34.94-1.38-.04-.44-.99-2.04-1.23-2.84-.43-1.46-1.09-3.85-1.23-5.31-.43-4.75,2.12-9.59,1.52-14.43Z"/><path class="cls-12" d="M93.75,143.18c-6.45,2.62-11.04,2.55-17.12-.78-.35-.19-.76.02-.61-.61,4.17-2.7,11.33-3.91,15.66-1.04.42.28,2.42,2.05,2.07,2.43Z"/><path class="cls-12" d="M38.37,138.83l-2.96.62c-5.13.24-10.44.71-14.75-2.66-2.04-1.6-2.82-4.21-1.11-6.36,5.54,4.13,12.32,6.23,18.82,8.4Z"/><path class="cls-2" d="M88.46,136.34c.1-.63.21-1.16.85-1.49,2.25-1.15,6.8-1.83,9.41-2.72,3.79-1.29,7.32-3.1,10.8-5.07,1.58-.9,5.9-4.23,7.41-4.42.84-.11.36.81.47,1.25-6.95,4.92-13,8.63-20.94,11.88-4.67,1.91-3.4,1.23-7.99.57Z"/><path class="cls-28" d="M35.57,67.26c-3.05,2.18-4.01,6.04-6.09,9-1.51,2.14-3.84,3.84-5.23,5.97-3.85,5.86-9.45,20.58-9.53,27.5-.04,2.92,1.48,6.19-.6,8.88-.16-.47-.33-1.06-.31-1.56-.25-2.47-.21-5.55.05-8.17.93-9.38,4.33-18.55,9.14-26.65.92-1.55,9.67-15.5,11.15-15.44.17,0,.34.08.51.16.36.1.7.25.93.31Z"/><path class="cls-43" d="M78.51,62.29c-2.01.18-4.38,1.41-6.13,2.43-2.89,1.69-4.63,4.28-8.5,4.11l.62.93c-4.58.57-9.24.25-13.86.3-.92,0-1.67.53-2.63.01l.62-.93c4.75.03,11.01-1.33,15.62-2.58s8.97-2.91,12.9-5.47c.63-.1.99.88,1.34,1.2Z"/><path class="cls-29" d="M34.64,66.95c-2.63,1.67-4.15,4.55-5.77,7.14-3.36,5.38-7.16,10.19-9.63,16.2-3.27,7.95-4.97,13.57-5.15,22.26-.03,1.64-.25,3.08-.3,4.5-.45-.61-.79-1.76-.93-2.49l.1-.4c-.87-6.46.83-11.92,3.1-18.11.94-2.56,1.89-5.16,3.03-7.63,2.26-5.64,5.71-10.86,9.13-16.03,1.48-2.24,3.39-4.63,5.5-6.06.45.1.8.59.93.62Z"/><path class="cls-16" d="M28.42,16.23c8.98-6,23.47-12.31,34.51-11.19,5.18,1.91,10.48,3.57,15.89,4.97l.47-.19c1.82.69,3.63,1.27,5.44,1.74.26.25.25.55.31.62-.53.42-.92.24-1.48.1-2.47-.62-4.99-1.78-7.54-2.44-2.78-.71-5.84-.99-8.54-1.73-1.57-.43-4.09-1.92-5.32-2.14-9.65-1.72-26.19,7.15-34.67,11.5.23-.48.6-.84.93-1.24Z"/><path class="cls-25" d="M76.64,6.28c.05.16.09.31.06.44-.17.76-3.8-.99-4.41-1.37-.49.62-.99.48-.93-.31-1.79-.68-3.66-1.1-5.6-1.24-9.02-.9-18.07,1.51-26.54,4.6l-.52-.24c6.78-4.25,14.82-6.35,22.86-5.91,6.24.34,9.62,1.24,15.09,4.04Z"/><path class="cls-27" d="M62.02,4.1c2.95-.11,6.13.68,8.38,2.2,4.6,1.34,9.06,2.89,13.4,4.65.27.23.69.39.93.62-.28.6-1,.13-1.41,0-1.51-.46-3.01-1.14-4.51-1.56-5.43-1.38-10.73-3.03-15.88-4.96-11.22-.92-22.75,4.49-32.52,9.7l-.44-.07c.78-1.08,1.92-2.19,3.11-2.8,6.69-4.24,20.62-9.3,28.48-8.2.17.02.31.2.45.42Z"/><path class="cls-13" d="M33.09,66.33c-5.1,5.82-9.29,12.78-12.96,19.67l-.42.24-6.75,18.55-.72.11c.12-3.02.61-5.78,1.24-8.71,1.72-2.19,2.9-4.77,3.53-7.74.49-1.07,1.06-2.15,1.63-3.2,2.21-4.08,4.89-8.94,7.46-12.74,1.03-1.54,4.33-5.7,5.85-6.35.29-.12.9-.06,1.14.16Z"/><path class="cls-17" d="M33.09,66.33c-.99.08-1.45.49-2.18,1.09-3.15,2.57-4.47,5.33-6.2,8.74s-4.72,6.9-6.34,10.47c-1.03,2.28-1.99,6.68-3.25,8.56-.47.71-.9.76-1.63,1.01.64-2.99,1.35-5.26,2.49-8.09,2.5-4.72,5.2-9.44,8.11-14.14,1.25-1.81,4.97-6.96,6.54-7.94.37-.23.78-.32,1.22-.32.31.18,1.26.15,1.24.62Z"/><path class="cls-7" d="M78.82,10.01c-5-1.43-9.82-1.98-14.67-4.08-.46-.2-.5-.77-1.74-.81-10.82-.32-19.59,4.02-29.12,8.36l-4.87,2.76c.55-.67.8-1.04,1.56-1.56,6.07-4.15,20.23-9.36,27.54-9.95,4.47-.36,4.82-.04,8.7,1.25s7.51,2.23,11.25,3.38c.5.15,1.06.13,1.36.66Z"/><path class="cls-37" d="M65.75,3.79c1.94.14,3.8.56,5.6,1.24.17.04.53.21.93.31,2.23.97,4.52,1.8,6.84,2.49,1.06.28,2.42,1.06,3.11,1.87-.17.14-.33.25-.46.21-3.91-.99-7.8-2.35-11.57-3.74l-.04-.52c-2.37-.87-5.54-1.65-8.16-1.56-8.9-.65-21.06,3.76-28.93,7.78,1.33-1.61,3.64-2.97,5.6-3.73,7.33-2.86,19.47-6.16,27.07-4.36Z"/><path class="cls-3" d="M31.84,65.71c-2.2,2.17-4.51,4.37-6.35,6.87-3.34,4.54-5.42,9.49-8.14,14.27-.11.19-1.01,1.86-1.38,1.26,1.12-2.8,2.52-5.96,3.99-8.61,2.91-5.26,7.24-9.63,10.33-14.73.52.29,1.03.64,1.55.93Z"/><path class="cls-4" d="M23.13,32.1l.67-.02c3.66-2.1,4.89-1.58,3.69,1.57-.04,2.06.34,5.5.93,7.47-.91,1.52-.88-.75-1.11-1.23-.29-.6-1.24-1.41-1.33-1.8-.18-.77.84-1.96.57-2.89-4.16,2.74-2.09.61-2.63-.61-.38-.86-1.84-1.52-2.66-1.88.68-.16,1.3-.49,1.87-.62Z"/><path class="cls-27" d="M19.09,88.42c-2.99,8.5-6.4,15.79-5.6,25.06.05.59.28,1.25-.62,1.07-.6-3.02-.75-6.57-.62-9.65l7.47-18.67c.12.63-.09,1.36-.62,2.18Z"/><path class="cls-38" d="M33.71,66.33l-2.48,2.65c-2.78,4.17-5.65,8.29-8.35,12.5-1.42,2.22-2.31,4.77-3.79,6.94.25-.71.4-1.53.62-2.18,1.28-3.83,3.24-5.71,5.24-8.92,1.11-1.79,1.92-4.12,3.16-5.86,1.32-1.85,3.38-3.53,4.98-5.13.18-.01.47-.03.62,0Z"/><path class="cls-5" d="M31.84,47.35c-.18.24-.06.57-.63,1.07-2.35,2.03-5.38,2.12-8.2,2.96l-.5-1.54c-.41-.37-.09-.68.93-.93,2.86-.45,5.13-1.22,7.77-2.35.58-.25.34.52.63.79Z"/><path class="cls-9" d="M10.69,44.86c4.83.59,9.76.13,14.62.63l-3.62.89c-1.82.14-3.57.35-5.4.35-1.7.21-8.27.64-5.6-1.87Z"/><path class="cls-13" d="M62.02,4.1c.31-.56,1.13-.3,1.62-.23,1.71.24,5.36.77,6.86,1.24.26.08.67.39.54.54l-.62.31c1.65.3,3.11,1.19,4.67,1.71,2.27.76,4.98,1.13,7.15,2.03.72.3,1.18.41,1.56,1.24l-16.49-5.29.31-.62c-1.9-.14-3.7-.8-5.6-.94Z"/><path class="cls-21" d="M9.44,32.1c-1.32.68-3.08-.19-3.88,1.56-.49,1.08.22,1.77.09,2.58s-1.58,2.07-1.19,3.33c-.12-.09-.2-.21-.31-.31-1.55-1.9-1.81-3.21-.77-5.49.41-.91,1.28-2.42,2.33-2.29,1.24.18,2.5.39,3.73.62Z"/><path class="cls-44" d="M10.69,44.86c.08.37-.21,1.51.18,1.56,1.65.23,3.74.3,5.42.3-2.23.64-5.19.36-7.4-.22-1.91-.5-4.67-1.66-5.04-3.82,1.23.42,2.2,1.25,3.48,1.65,1.11.34,2.22.39,3.36.53Z"/><path class="cls-10" d="M5.71,31.48c-1.64,1.13-2.29,2.96-2.42,4.92-.1,1.39.8,1.57.87,2.86-1.2-1.1-1.97-1.58-2.18-3.42.15-2.3,1.08-3.86,2.8-4.67.56,0,.79.29.93.31Z"/><path class="cls-22" d="M23.13,32.1c.85-.29,5.17-2.9,5.6-2.49l-1.24,4.04c.02-.79.26-1.42.31-2.18-1.79-.35-2.88.66-4.21.93-.47.09-.42-.31-.45-.3Z"/><path class="cls-42" d="M76.64,6.28c.86.44,1.96.75,2.49,1.56-2.21-.57-5.3-.43-6.84-2.49.25.06.64-.03,1,.07.96.27,2.44,1.49,3.35.86Z"/><path class="cls-15" d="M23.44,48.91c-.37.2-.66.72-.93.93-.66.51-1.47.67-1.87,1.87-.17-.32-1.47-2.3-1.24-2.49,1.25-.16,2.85-.13,4.04-.31Z"/><path class="cls-41" d="M4.77,31.17c-.37.7-1.09,1.1-1.5,1.76-.66,1.07-.41,2.21-1.3,2.9-.24-2.18.14-4.66,2.8-4.67Z"/><path class="cls-34" d="M99.97,82.51c.23.02.45.06.66.13,1.47.53,6.21,9.09,7.16,11.09l-.04,1.22.49.05c2.47,4.57,5.08,9.12,7.83,13.64.65,1.13,1.24,2.4,1.01,3.73.25.79.29,1.36.31,2.18-.49,2.08-5.02,2.4-6.97,2.45l-.5-.59c-7.56,1.92-16.85-1.12-23.18-5.5-3.4-2.36-7.54-5.84-8.87-9.75-.83.07-.89-.02-.31-.62l-.98-.36c-1.7-2.56-3.17-5.3-3.82-8.32l.45-.97c.24-.09.55-1.37,1.57-.17.52.61,1.34,3.57,1.9,4.63,4.52,8.54,13.61,15.45,23.17,16.97,4.5.72,9.04.91,13.49-.27-6.63-9.48-9.7-21.38-18.44-29.33.39-4.03,3.21-2.34,5.06-.22Z"/><path class="cls-24" d="M77.57,100.56c.15.22.22.49.31.62,2.55,9.31,19.31,18.81,28.38,16.96.94-.89,2.16-1.46,3.66-1.71,1.37-.09,4.53-.5,5.81-.88.73-.22,1.09-.54,1.66-.99.02.8-.08,3.13-.64,3.56-1.16.89-5.18,1.86-6.8,2.53-.37.15-.63.73-1.19.99-3.89,1.8-7.21-.27-10.84-1.13-1.86-.44-4.29-.5-6.09-1.06-2.13-.66-8.49-4.03-9.9-5.66s.1-2.34,0-2.79c-.04-.16-2-1.63-2.48-2.21-1.01-1.23-2.75-4.2-3.35-5.68-.24-.59-.08-1.55-.4-2.25-.07-1.01,1.33-1.02,1.87-.31Z"/><path class="cls-14" d="M111.17,97.14c.92,1.34,1.34,3.14,2.22,4.47.29.44.87.59,1.16,1.02.84,1.27,2.6,5.68,2.81,7.14.1.71.25,2.04-.28,2.62-1.09-3.46-5.57-9.93-7.52-13.48-.68-1.25-1.18-2.81-1.81-3.94,0-.17,0-.34.05-.49.45-1.49,3.06,1.93,3.37,2.67Z"/><path class="cls-30" d="M99.97,82.51c.67-.46,1.19-1.25,2.12-.87l9.08,15.5c-.56-.81-2.29-2.98-3.42-2.18-2.27-4.09-4.69-8.92-7.78-12.45Z"/><path class="cls-23" d="M73.22,90.91c.61,3.69,2.32,6.61,4.36,9.65l-1.87.31c-.62-1.38-4.77-8.56-4.02-9.62.16-.23,1.24-.22,1.53-.34Z"/><path class="cls-34" d="M55.8,23.39c1.03-.55,2.88,1.47,2.49,2.49,3.64,5.28.33,14.25-6.45,14.65-.66.04-1.34.04-1.64-.64-8.55-1.72-6.95-16.4,1.08-17.13,1.51-.14,3.22-.14,4.52.64Z"/><path class="cls-1" d="M63.89,38.33c.31.29.44,1.35,1.15,1.51.44.1.97-.29,1.46-.24,10.69,1.09,9.87,9.11,2.15,13.91-2.4,1.49-8.48,4.02-11.19,4.08-5.26.12-9.81-3.54-7.8-9.07.73-2.01,2.72-2.23,1.06-4.8-.89-1.37-3.87-2.44-1.14-3.53-.04,2.4,4.66,2.37,6.57,2.22l.59.58c1.11.89-.44,1.88-1.36,2.37-9.97,10.92,2.44,11.45,10.7,6.8,6.6-3.72,6.95-10.17-1.86-9.84l-5.09.8c-.41.04-.49-.33-.53-.75-1.81-1.04.23-2.86,1.64-3.3.43-1.39,1.02-2.16,1.78-2.3.87-.07,1.9.6,1.87,1.56Z"/><path class="cls-18" d="M58.29,25.88c1.72-.16,2.79,2.8,2.76,4.39.47.14.92.61.86,1.13l-.83,3.35c1.15.37,2.79,1.97.93,2.02-.32.59-.97,2.36-1.33,2.72-.84.85-2.45.3-2.1,2.88.29,1.04-1.37,1.63-1.87.62-2.51.2-3.97.28-6.3-.7-1.15-.48-2.01-1.11-.86-2.1.19-.08.58-.31.62-.31.7-.11,1.56.12,2.31-.03,6.25-1.21,7.89-8.71,5.78-13.98Z"/><path class="cls-20" d="M55.8,23.39c1.09-.53,1.25-2.49,2.8-1.72.86.43,2.28,4.67,2.63,5.78.25.78.33,2.64.56,3.02.15.26,1.18.42,1.42,1.23.31,1.04-.41,2.01-.25,3.02.14.91,1.52,2.09.93,3.6-.46-.44-1.41-.61-1.87-1.56-.02-.05.32-.33.23-.55-.15-.37-1.68-.88-1.75-1.17-.16-.69.74-3.3.9-4.18-1.48.29-.72-.77-1.08-1.88-.44-1.35-1.19-2.13-2.03-3.1-.61-.7-1.74-2.05-2.49-2.49Z"/><path class="cls-42" d="M71.35,5.03c-1.85-.45-3.77-.81-5.6-1.24,1.69.09,4.27.12,5.6,1.24Z"/><path class="cls-36" d="M109.93,116.43c-.57.81-1.57.86-2.3,1.29-.67.39-.28,1.02-1.89,1.14-9.45.71-22.44-6.25-27.18-14.45-.42-.73-1.24-2.44-.67-3.22,7.55,10.68,18.84,16.1,32.04,15.25Z"/><path class="cls-40" d="M49.26,26.19l.09.4c-1.36,1.62-1.55,3.76-1.62,5.8-.16.28-.33.55-.66.65-1.93-.26.02-6.13.7-6.76s.98-.26,1.48-.09Z"/><path class="cls-8" d="M48.33,32.41c-1.27-1.01-.05-5.49,1.56-5.91,1.23,1.61-.09,4.86-1.56,5.91Z"/><path class="cls-19" d="M49.89,26.5c-1.6,1.49-1.97,3.85-1.56,5.91-.38.27-.64.7-1.24.62.52-2.39.52-4.85,2.18-6.85.24.09.42.04.62.31Z"/><path class="cls-45" d="M58.6,42.37s.46.2.87.11c3.3-.74,8.57-1.83,11.12,1.13,3.23,3.74-2.02,8.18-5.29,9.66s-9.75,3.59-13,1.25.66-7.51,2.56-9.52c.57-.6,1.54-.5,1.88-2.01,1.64-.13.97-.37,1.87-.62Z"/><path class="cls-33" d="M54.97,47.14c2.03-1.93,5.6-3.94,8.44-4.16,8.15-.65,8.02,5.84,1.93,9.09-1.92,1.03-6.29,2.06-8.45,2.14-5.16.2-5.1-4.05-1.92-7.07Z"/><path class="cls-35" d="M63.52,44.62c6.01-.03,3.85,5.3-.71,6.79-10.27,3.36-6.54-6.75.71-6.79Z"/><path class="cls-11" d="M62.88,45.87c1.92-.2,3.63.63,2.25,2.57-1.21,1.69-4.17,3.43-6.09,2.05-2.99-2.17,1.89-4.41,3.84-4.61Z"/></g></svg>