<?xml version="1.0" encoding="UTF-8"?><svg id="Layer_2" xmlns="http://www.w3.org/2000/svg" viewBox="0 0 166.16 209.6"><defs><style>.cls-1{fill:#7e9a9d;}.cls-2{fill:#5c7b7f;}.cls-3{fill:#849fa2;}.cls-4{fill:#839ea1;}.cls-5{fill:#668488;}.cls-6{fill:#728b90;}.cls-7{fill:#5e7d81;}.cls-8{fill:#fefefe;}.cls-9{fill:#85a0a4;}.cls-10{fill:#cbb3c0;}.cls-11{fill:#fff;}.cls-12{fill:#78888e;}.cls-13{fill:#fdfdfd;}.cls-14{fill:#708d92;}.cls-15{fill:#f2f2ea;}.cls-16{fill:#5f7e82;}.cls-17{fill:#76898f;}.cls-18{fill:#cbb2bf;}.cls-19{fill:#5d7d80;}.cls-20{fill:#839ea2;}.cls-21{fill:#678589;}.cls-22{fill:#5a797d;}.cls-23{fill:#5d7c80;}.cls-24{fill:#d2bcc7;}.cls-25{fill:#688589;}.cls-26{fill:#f1f0e7;}.cls-27{fill:#789498;}.cls-28{fill:#edecde;}.cls-29{fill:#e0d0d8;}.cls-30{fill:#8ca6aa;}.cls-31{fill:#58777b;}.cls-32{fill:#648386;}.cls-33{fill:#8ba5a9;}.cls-34{fill:#cfb8c4;}.cls-35{fill:#6b888d;}.cls-36{fill:#69878b;}.cls-37{fill:#7a868d;}.cls-38{fill:#708e92;}.cls-39{fill:#d1bbc6;}.cls-40{fill:#6b898d;}.cls-41{fill:#67868a;}.cls-42{fill:#7a969a;}.cls-43{fill:#070707;}.cls-44{fill:#748a90;}.cls-45{fill:#dac6d0;}.cls-46{fill:#5e7b80;}.cls-47{fill:#5e7c80;}.cls-48{fill:#6a8489;}.cls-49{fill:#e0d0d7;}.cls-50{fill:#59787c;}.cls-51{fill:#edecdf;}.cls-52{fill:#6a888c;}.cls-53{fill:#ddc9d2;}.cls-54{fill:#68868a;}.cls-55{fill:#5b7a7e;}.cls-56{fill:#d8c3cc;}</style></defs><g id="Layer_1-2"><path class="cls-43" d="M46.17,29.49c.81-.64,1.59-1.73,2.4-2.49,4.18-3.93,9.17-7.07,14.35-9.5,3.55-1.66,7.35-2.81,11.21-3.46-.88-2.27-2.11-4.39-3.46-6.4-.5-.74-1.87-2.04-1.85-2.96.02-.83,1.71-.19,2.14.1.74.48,1.32,1.7,1.94,2.35l1.23,1.94c-.23-2.32-.13-4.63-.16-6.95,0-.41-.19-.77-.17-1.18.05-.91,1.58-1.32,2.01-.49.65,1.25.85,3.93,1.07,5.37l1.74-2.8c.25-.33,1.98-2.67,2.36-1.38.1.35-1.87,3.24-2.2,3.95-.46.99-1.39,3.42-1.41,4.44s.38,2.37.18,3.52c7.86-.41,15.42,1.1,21.91,5.62,2,1.39,3.53,3.03,5.29,4.67.43.16,1.26-1.86,1.52-2.25,1.99-3.06,6.56-6.88,9.63-8.9,5.25-3.46,11.09-5.14,16.9-7.37.45-.46,2.02-.95,2.57-.51.31-.2.67-.31,1.03-.17.25-.52.63-.59,1.03-.17.36,0,.7-.05,1.03-.17.19-.48.91-.35,1.2,0,4.41-.11,7.8.59,11.83,2.32,1.06.46,2.08,1.24,3.09,1.62.22-.25.5-.17.51.17,1.16.23,1.9.74,2.23,1.54.16-.05.22,0,.17.17.86.72,1.77,1.76,2.57,2.57.34-.09.53.02.34.34.86.7,1.94,1.6,2.72,2.38.36.35.71.72.54,1.23.55-.06.8.4.51.86,3.67,6.11,1.71,18.62-1.99,24.52-2.36,3.77-4.1,5.09-5.13,9.79-1.7,7.74-1,16.23-1.63,24.11-.29,3.63-1.21,7.2-1.54,10.81-.29,3.18-.13,6.37-.77,9.53-1.51,7.54-6.49,13.93-12.1,18.96-2.49,2.23-5.54,3.81-7.35,6.72-1.62,2.61-1.99,5.69-5.06,7.12-5.61,2.61-10.52-1.97-13.54-6.26-1.79-2.55-5.79-8.02-6.6-10.73-.36-1.19-.65-2.58-.74-3.81l-3.77,1.63c2.18,1.44,3.66,3.43,5.04,5.59,5.71,8.88,10.69,18.48,10.05,29.41-.18,3.03-1.12,6.01-1.37,9.01.17.1.23.28.17.51.56.51,1.03.86,1.03.86,1.18.94.75.02.69.51,8.91,7.61,22.35,22.02,17.01,34.78-1.37,3.27-3.82,4.97-6.91,6.47-3.45,1.67-5.93,1.94-9.58.45-.05,2.9-1.69,6.06-4.17,7.58-4.43,2.72-14.47,2.74-19.37,1.29-4.59-1.36-6.66-3.51-7.81-8.15-.99-3.98-.65-6.86-.9-10.77-.1-1.65-.71-5.3-2.18-6.23-1.71-1.07-5.65-.61-7.42.25s-1.6,2.15-1.57,3.94c.09,4.62,1.43,13.35-.91,17.26-2.39,3.99-9.7,6.58-14.18,6.84-.67.17-1.39.17-2.06,0-4.86-.27-11.32-2.89-14.31-6.88-1.65-2.19-.82-3.51-.1-5.82-1.74.13-3.3.6-5.07.52-13.39-.57-20.55-12.67-17.43-25.17,2.3-9.18,7.9-15.03,14.56-21.27-.31-6.34-.17-13.02,1.63-19.15,2.37-8.06,9.73-17.6,17.06-21.72.15-.08.48-.13.22-.38-.08-.08-1.69-.41-2.1-.56-3.24-1.2-6.16-2.95-8.71-5.27-.69,3.12-2.53,6.42-4.89,8.58-7.74,7.11-16.13,5.91-21.26-3.28-1.69-3.03-1.91-7.65-3.4-10.67s-5.64-6.87-7.51-10.25c-.41-.1-.55-.24-.17-.51-.76-.82-1.27-1.85-1.54-3.09-.34-.13-.57-.53-.69-1.2C2.53,76.67.49,70.26.03,62.69c-.3-4.94,1.86-14.75,3.34-19.64,2.94-9.73,11.16-18.59,20.84-21.79.24-.4.81-.64,1.2-.34.4-.1,1-.28,1.37-.34.06-.52.59-.62.86-.17,6.31-.63,12.95,3.54,16.98,8.06.49.16.89.49,1.2.99l.35.03Z"/><path class="cls-14" d="M109.82,78.22l-.32.3-3.6-1.18c-.39,0-.79.06-1.19.18-.47-.67-2.47-.86-2.92-.14-.53.25-1.21.11-1.75-.02l-.34.18c-.4-.09-2.63-.94-2.67-1.14,1.66-5.32.8-12.37-2.56-16.87-2.81-3.75-6.86-2.9-8.95,1.08-3.02,5.75-2.75,12.62.28,18.29.33.33.29.41-.17.34.28.51.9.63,1.86.37.34.31,1.02.23,1.21-.25.71-.3,2.26-.79,2.64-.11.26-.68,3.5-.4,3.64-.26.17.18.13.38,0,.58-1.81,1.64-3.22,3.54-4.24,5.7-1.15.68-1.69,2.9-1.79,4.21.11.65.17,1.32.17,2.01,1.19.03.78,1.04-.03,1.43.08,1.09.54,2.11,1.37,3.05l.38,1.96c.39.47.54.88.45,1.23-1.66.61,1.87,1.3,2.06,1.55-.74,1.74-1.75,3.48-1.89,5.4-.41,5.67,2.79,10.57,4.25,15.84,2.2,7.98,5.5,22.67,3.91,30.58-.7,3.52-1.54,7.05-4.89,8.84-5.83,3.12-11.36.1-16.42-2.98-2.18-1.33-5.5-4.55-8.02-4.3-1.63.16-4.61,1.93-4.89-.98-.11-1.14,1.5-7.26,1.95-8.64.27-.82.72-1.82,1.47-2.31.36-.23,1.35-.63,1.72-.36.19.14.41,2.07.55,2.54.95,3.27,5.78,6,9.05,5.2,8.28-2.03,8.13-14.22,4.76-20.22-4.38-7.81-10.43-14.19-15.92-21.14-1.67-2.12-3.05-4.44-4.98-6.34.49-.23,1.15-.5,1.68-.57s1.24.47,1.41-.47c.34-1.89-1.57-1.52-2.74-1.02-1.97.83-3.3,2.47-4.12,4.38l.08.6c-1.36,1.83,1.97,3.33,2.37,1.2.22-.26.42-.25.73-.19.28.06,3.58,3.62,3.42,3.83l-.59.06c-8.75-.56-16.44-2.27-21.79-9.78l.27-.33c1.37.51,2.74.82,4.12.94.73.64,1.65.47,2.56.25,5.05-1.22,10.29-5.51,11.27-10.81.75-4.04-2.64-7.82-6.08-9.33-.16-.1-.06-.28.05-.45.1-.11.19-.19.3-.2,3.1-.23,6.12-.12,9.14.2l.45-.27c1.89.41,1.89.12,0-.88,2.94-6.67,2.44-21.12-5.82-23.68-4.89-1.52-7.57,4.75-8.21,8.58-.74,4.43-.39,9.48.82,13.79-.07.19-.17.36-.37.42-1.77.21-3.4.66-4.89,1.35-.42.44-.52.79-.3,1.06l-.21.32-.15.36c-2.17,1.14-4.04,3.09-5.55,5.01-.23.18-.39.05-.48-.23.25-1.94.51-3.58,1.15-5.46,1.27-3.77,2.83-4.79,1.38-9.17-.87-2.63-2.35-5.23-3.3-7.85-4.41-12.14-1.88-22.23,6.09-31.99,3.77-4.62,7.18-7.29,12.48-9.99,1.56-.8,8.71-4.18,9.99-4.17l1.31-.22c1.73.14,11.7-.12,12.19-1.11-.05-.18-.03-.37.05-.56,13.12.61,23.61,9.07,28.51,20.99,2.86,6.97,1.92,21.07-.54,28.17-1.85,5.33-4.07,7.95-.86,13.64Z"/><path class="cls-38" d="M95.75,111.68c2.17-.16,4.31-.71,6.42-1.2,2.59,1.51,4.72,4.23,6.27,6.77,4.97,8.11,8.84,18.13,8.23,27.8-.89,14.19-8.35,30.74-1.86,44.59,1.84,3.93,5.11,6.8,2.28,11.42-1.65,2.69-3.55,3.72-6.59,4.39-3.48.76-11.38.67-14.56-1.05-3.33-1.8-5.95-8.44-6.52-12.01-.97-6.04.43-14.11-8.32-13.09-.62.07-3.28.74-3.83.97-1.56.65-2.1,3.58-2.11,5.09-.03,4.32,1.43,11.84.01,15.63-1.32,3.52-7.71,6.2-11.18,7-5.5,1.27-12.97-1.11-16.61-5.46-2.25-2.68-.86-2.95-.09-5.59.61-2.06.09-4.32.08-6.44-.02-5.44-.11-9.63-1.45-15.01-2.01-8.04-6.63-15.62-7.13-24.1-.96-16.47,3.64-29.55,16.65-39.9.13-.08.27-.11.4-.04,1.94,1,3.09,1.23,5.2,1.36,1.24.07,2.65.15,4.02.16,1.07,0,2.18-.04,3.21-.23,1.33.12,4.34,3.54,5.24,4.64,1.32,1.74,2.69,3.44,4.1,5.09.84,2.46,1.95,4.75,3.35,6.87.28,1.33.58,2.56,1.13,3.83.26,1.11.38,3.97-.49,4.77-.44,1.35-2.62,6.75-4,7.24-.49.17-3-.84-3.44-1.17-.54-.39-1.67-2.31-1.45-3.04-.23-.68-1.32-2.26-2.07-2.31-.71.24-1.22.14-1.54-.32-3.22,1.46-4.93,4.92-5.37,8.26,0,.77-.18,1.53-.94,1.85-.34,2-.79,4.98.85,6.45.58,2.01,1.9,2.82,3.87,3.26,1.26-.35,2.52-.49,3.79-.42,2.63,1.96,5.56,3.57,8.57,5.04,6.12,2.97,12.6,5.24,18.29.33,1.35-.43,3.74-1.82,4.39-3.06.38-.73.72-2.24.61-3.05,1.44-3.56,1.61-6.43,1.02-10.2-1.86-11.83-4.81-23.8-8.7-34.99l.25-.14Z"/><path class="cls-56" d="M154.25,62.27c-.51.03-.68-.46-.49-1.47-1,.12-1.6-.61-1.8-2.21-.13-.16-.51-.02-.66.1-.27.22-1.51,5.84-1.69,6.69-.79,3.72-1.54,7.32-1.85,11.12-.18,2.22-.28,4.37.48,6.43-.5,4.49-1.09,8.99-1.77,13.5-.65,3.43-1.43,6.78-4.27,9.01l-2.58,3.19c-2.58,2.61-4.78,5.51-6.61,8.69l-.38.03c-.04.48-.04.93,0,1.37-2.95,3.42-2.76,8.82-8.49,8.23-2.29-.24-5.51-3.3-6.95-5.06-.73-.89-1.28-2.06-2-2.98-2.35-3.04-4.41-4.87-5.73-8.6l.3-.5c1.07-.55,2.85-1.14,4.01-1.44.78-.89,1.51-1.81,2.17-2.8-.5-.28-.44-.7.17-1.26.3-1.33.94-2.03,1.91-2.09,1.45-5.3,2.67-10.96.16-16.25l-.84-2.97c-.19-.45-.26-.51-.68-.66-1-1.66-1.84-3.52-2.54-5.37-1.15-3.05-1.5-4.5-.75-7.73,1.58-4.81,3.16-9.63,3.47-14.68-.26.75-.61,1.09-1.04,1.02.3-2.6.21-5.35.18-7.99,0-.74-.3-2.86-.14-3.39.07-.24.39-.42.51-.69.85-1.93,1.35-3.98,2.34-5.9,2.66-5.14,7.18-11.97,12.27-14.84,5.9-3.34,13.62-5.06,19.24-.31,3.57,3.01,8.35,13.44,7.96,18.07-.09,1.08-.59,2.24-.67,3.29-.03.43.17.78.14,1.15-.04.55-1.27,3.01-1.55,3.94-1.29,4.29-1.44,8.9-1.84,13.34Z"/><path class="cls-56" d="M42.06,70.16c.97,2.07.27,4.49-.6,6.49-2.19,3.55-3.57,7.31-4.15,11.28-2.91,5.78,1.3,11.2,5.18,15.3l.42.05.3-.22,1.59.74c-.45,2.88-3.64,6.69-5.95,8.38-4.31,3.14-7.86,4.76-12.92,2.09-1.24-1.93-2.44-3.97-3.59-6.11-5.65-13.49-8.74-28-8.56-42.54.03-2.28.34-4.41,1.19-6.49-.13-1.44.26-2.63,1.18-3.57,2.87-6.97,7.01-13.39,12.33-18.66,0-.3.12-.48.37-.53,2.62-.32,4.74,1.42,6.44,3.26,4.08,4.43,1.4,7.65,1.63,12.78.15,3.46,1.06,7.56,2.23,10.81.76,2.11,2.51,4.96,2.92,6.95Z"/><path class="cls-38" d="M43.94,30.01c-.07.33-.37.58-.89.75l-1.24,1.83c-1.43,1.17-2.29,2.56-2.6,4.16-.21.48-1.44,2.02-1.97,1.84-1.29-1.63-4.16-4.01-6.17-4.55-4.48-1.21-11.33,3.52-13.87,7.07-4.01,5.6-7.85,20.73-7.93,27.59-.05,4.17,1.79,8.27,2.53,12.24.31,1.66.33,3.38.61,5.05.58,3.43,1.78,6.9,2.7,10.25-.84-1.09-1.75-2.27-2.47-3.45-2.05-3.36-3.76-6.89-5.42-10.45-3.91-10.76-4.35-23.32-1.51-34.55,2.1-8.33,6.56-14.4,12.77-20.17,1.25-.97,2.36-2.06,3.33-3.27,9.07-4.41,16.02-1.8,22.13,5.66Z"/><path class="cls-38" d="M126.97,9.93c.31,0,.42.21.34.64,9.79-.69,19.53-.36,28.87,2.91,1.2.17,2.27.53,3.21,1.09,5.74,4.09,5.16,11.53,4.27,17.74-.56,3.86-2.15,7.5-4.52,10.57,0-1.59.53-2.93.44-4.55-.51-8.56-6.31-20.87-16.05-21.52-11.82-.8-19.69,7.31-24.79,16.81-1.24-1.05-2.19-2.85-2.68-4.42-.9-1.67-2.05-3.65-3.24-5.14-.76-.95-1.2-1.26-2.41-1.53-.63-.25-.89-.56-.77-.92,4.56-5.28,10.67-9.45,17.33-11.67Z"/><path class="cls-38" d="M118.57,156.12c.24.21.6.35.86.6,5.37,5.02,10.27,10.69,13.55,17.33-1.87-.24-3.59-.11-4.97,1.29-.88-2.45-4.38-2.78-6.4-1.51s-2.38,3.31-2.17,5.54c.04.4.47,1.72.43,1.81-.1.23-1.44,1.14-1.81,1.63-.07.1-.6.72-.17.77,2.28-1.74,5.4-1.79,8.15-1.39.71.65,1.27.84,2.22.73,2.05-.2,3.49-.32,5.46.5.72.3,1.96.85,2.19,1.53-.38,4.11-1.85,6.97-5.33,9.16-3.8,2.4-6.35,2.98-10.76,1.44-.3-1.98-1.36-3.44-2.26-5.12-.76-2.45-1.43-4.92-2.03-7.42-.88-.89-1.21-3.27.25-3.68.61-7.21,1.44-14.58,2.46-22.12l.35-1.1Z"/><path class="cls-38" d="M24.56,184.77c.02-.11.05-.22.1-.3.14-.22,3.72-2.69,4.29-3.04,3.19-2.02,6.5-2.85,10.26-2.32.87-.31,1.73-.66,2.57-1.05,1.15-.48,1.65.02,1.5,1.5.87,3.48.94,6.86.56,10.41-.15,1.83.1,3.56.69,5.22l-.42.23c-8.12,1.68-16.66-2.77-19.56-10.64Z"/><path class="cls-6" d="M100.04,77.36c.46-.51,1.09-.08,1.44-.18.23-.07.21-.46.4-.51.28-.07,2.45-.03,2.63.09.13.09.12.44.26.44.56,0,.43-.5,1.61-.08.54.19.72.21,1.19.36.74.22,1.48.66,2.26.74,1.13,2,3.09,3.7,4.29,6.01l-.38.1c-2.4-2.9-5.84-6.94-10.09-5.27-2.52,1.28-5.02,2.6-7.5,3.96l-.28.91c-2.21,2.58-2.53,3.93-2.39,7.19.1,2.23.81,4.75,2.82,5.96,1,1.95,5.36,2.69,7.36,2.29,5.8-1.16,9.3-5.35,10.29-11.05-.14-.74.01-1.26.48-1.56-.31-.35-1.35-2.22-.46-2.33.16-.02.27.16.32.32,1.09,2.31,1.69,4.23,1.54,6.86-1.22,2.17-2.69,4.09-4.39,5.76l-.74.25c.2,1.19-.83,1.99-1.84,2.37-.95,1.04-2.35,2.15-3.81,2.17-2.39.6-4.74,1.04-7.18,1.01-.32-.63-.78-.72-1.44-.84.31.76.26,2.77-.84,2.32l-.24-.31c.29-.54.46-1.13.41-1.75-.39.15-.5-.03-.34-.51-.13-.35.02-.57-.07-.85-.34-1.01-1.07-1.6-2.08-1.88-.67-.19-1.63-.07-1.96-.18-.05-.02-.59-.69-.65-.81-.39-.77-.25-1.59-.5-2.24-.23-.61-1.11-1.23-1.35-2.43-.33-1.64.61-.7.78-1.9l-.68.17c-.23-.5-.02-1.04-.05-1.43-.01-.16-.28-.31-.29-.69s.78-3.57.94-3.88c.14-.28.58-.35.77-.6.81-1.06,1.16-2.52,2.08-3.58.2-.24,2.77-2.34,2.38-2.68-.26.2-1-.04-1.03,0-.04.06.07.36-.03.48-.06.07-.56.12-.82.3-.44.31-.9,1.21-1.38,1.02l1.89-1.97c-.79-.21-.82.13-1.17.33-.12.07-.4,0-.55.1-.18.13-.11.49-.2.57-.1.09-.45-.02-.74.21-.37.3-1.23,1.6-1.53,2.07-1.4,2.17-2.14,4.37-2.76,6.85,0-2.51,1.21-5.27,2.62-7.33.64-.93,1.45-1.7,2.1-2.62-.5.05-1.52.04-1.95.19-.33.12-.2.5-.32.62s-.52.07-.77.26c-.66.52-1.68,2.97-2.07,3.85-.11.25-.18.87-.21.91-.52.56-.16-.74-.12-.89.44-1.51,1.33-2.82,1.84-4.25-.73.05-1.33.33-2.06,0-.11-.29.11-.38.17-.51.55-.08,1.13-.12,1.76-.11,4.15-1.16,8.6-.66,12.78.02.46.02.59-.24.39-.77-.26.22-.34.12-.17-.17-.47.17-.55-.53-.34-.86Z"/><path class="cls-29" d="M28.85,36.36c.17,1.12-.9,1.47-1.44,2.08-3.19,3.58-6.62,8.09-8.71,12.39-.83,1.72-1.44,3.51-2.4,5.15-.27.46-.95.77-.92,1.4.11,2.22-.23,2.03-.77,3.94-.46,1.62-.53,5.27-.51,7.05.18,13.22,3.19,25.97,7.94,38.21.79,2.04,1.97,3.83,3.05,5.7.33.58,1.05.94.86,1.97-.24-.13-.38-.15-.69-.34-.35-.38-1.09-1.06-1.03-.69-1.47-1.17-3.95-4.1-4.51-5.87-.19-.59-.2-1.26-.38-1.85-1.68-5.58-3.86-11.64-5.01-17.3-.54-2.64-.42-4.91-.76-7.48-.3-2.26-1.1-4.64-1.47-6.93-.99-6.06.4-12.54,2.06-18.43,2.07-7.37,5.86-17.92,14.7-19.01Z"/><path class="cls-38" d="M41.89,175.16c-1.22-.33-2.5-.7-3.77-.69.73-1.66-1.88-3.65-3.35-3.78s-3.76.97-4.03,2.58c-2.21-1.93-4.81-1.55-6.86.34,1.52-7.17,5.24-13.56,10.29-18.79.44-.45.96-.72,1.38-1.11l.2.06c.35,2.71.77,5.45,1.97,8.08,1.39,3.71,2.79,7.43,4.01,11.19.2.61.52,1.61.17,2.13Z"/><path class="cls-17" d="M56.64,80.11c.48.64,1.56.73,2.05,1.12,1.43,1.14,3.45,3.42,4.08,5.18,1.5,4.19-1.84,8.72-4.78,11.44-1.72,1.59-6.09,3.59-8.47,3.36-.33-.03-.51-.37-.77-.44-.28-.08-.9.04-1.45-.09-.9-.23-1.88-.86-2.85-.84-3.39-4.75-3.84-8.14-3.09-13.9.36.08.37-.2.52-.41.72-1.01,4.51-4.77,5.65-4.73l.34-.22c2.79-.21,5.58-.43,8.38-.64l.37.18Z"/><path class="cls-49" d="M144.64,107.22c-1.81,2.03-3.69,3.99-5.64,5.88-.76.69-3.61,3.18-3.72,1.06-.06-1.16,3.17-4.36,4.09-5.26,5.04-3.97,8.19-10.49,7.88-16.9,1.08-2.89,1.76-5.63,1.68-8.72-.43-2.58-.5-5.75-.38-8.41.12-2.5.75-4.72,1.56-7.07.14-1.4.28-2.58,1.86-2.99.45-.75,1.15-1.48,1.59-.27-.28,2.45-.44,4.88-.48,7.3.63,2.74.49,5.53-.41,8.37-.12,1.44-.29,2.89-.49,4.35-.17,6.86-1,13.74-4.8,19.56-1.01.83-1.85,1.84-2.51,3.02l-.23.07Z"/><path class="cls-54" d="M76.2,120.26c.14.09.27.2.17.34,1.11,1.02,1.91,1.78,2.4,3.26.34,0,.44.29.17.51,1.42,2.36,2.51,4.69,3.17,7.37,1.14,1.54,1.39,2.72.91,4.63l-1.15,5.97c.61,1.64-1.13,2.86-2.58,3.02l-.35.29c.06.13.07.25-.05.3-1.27.53-2.31.47-3.33-.49-2.11-.69-3.03-1.85-3.32-4.01-.11-.52-.83-1.51-1.31-1.71-.2-.09-2.12.16-2.5.24-2.61.52-4.64,8.43-4.98,10.62-.49,3.15,1.67,6.7,5,6.86,1.16-.4,2.28-.52,3.36-.37,5.16,3.61,11.01,7.51,17.5,8.21,4.14.45,6.21-.56,9.24-3.16,2.08-.55,2.42-1.07,3.26-2.9,1.89-4.11,2.7-9.48,1.84-13.93-1.38-6.82-2.92-13.65-4.63-20.51l-3.09-9.18c-.57-1.32-.85-2.63-.85-3.94.23,0,.46.02.69,0-.16.68.56,1.06.61,1.53.09.85.05.49.23,1,3,8.56,4.9,16.49,6.44,25.27.49,2.81,1.27,5.93,1.46,8.47.09,1.23.52,2.81.42,4.08-.11,1.41-1.06,3.45-1.41,4.9-.06.24.15.56.07.91-.1.43-.7,2.55-.86,2.76-.52.64-2.79,2.16-3.58,2.6-.27.15-.64.08-.84.19-1.94,1.01-2.83,2.13-5.24,2.65-5.23,1.13-10.89-1.62-15.43-4.04-1.23-.66-2.59-1.33-3.81-2.03-.67-.38-2.12-1.77-2.72-1.92-.1-.02-1.86-.05-2-.03-.49.07-.83.5-1.39.52-.64.03-2.64-.84-3.11-1.27-.81-.73-.85-1.59-1.28-2.24-.15-.23-.47-.27-.63-.57-.06-.11-.5-2.13-.54-2.37-.09-.53.15-3.45.38-3.8.13-.19.83-.4.95-.86s-.16-.74-.15-.98c0-.1.35-.08.36-.2.03-.21-.19-.49-.15-.8.16-1.31,2-4.87,2.96-5.79.66-.63,1.81-.9,2.44-1.68.55-.19.37.37.68.47.47.16.9-.32,1.65.06.43.21,1.75,2.02,1.79,2.47.03.3-.22.63-.1.98.08.23.48.32.65.56.2.28.22.87.41,1.05.08.08,1.8.92,2.01.99.48.17,1.07.1,1.55.35.5-.23,2.1-3.1,2.43-3.75.57-1.16.82-2.21,1.31-3.33.16-.38.78-.79.68-1.31-.13-.67-.16-1.14-.13-1.91.07-1.81-.37-1.94-.88-3.43-.15-.43.05-.75-.04-1.13-.19-.75-1.47-2.28-1.88-3.11-.73-1.47-1.1-3.68-2.16-4.88-1.21-1.37-2.33-3-3.61-4.46-.86-.98-2.15-2.64-3.1-3.42-.23-.19-1.61-1.04-1.82-1.07-.08-.01-1.4-.06-1.5-.06-1.83.14-4.17.3-6.01.18-.11,0-.09-.35-.19-.36-.18-.01-.49.21-.84.19-1.41-.1-3.34-.55-4.38-1.55.09-.07.16-.22.34-.34l.62-.13c3.44,1.53,7.99,1.73,11.71,1.3.48-.94,1.35-.19,1.91.43l1.42,1.9c1.88,1.62,3.49,3.48,4.75,5.6Z"/><path class="cls-53" d="M132.64,117.34c.29-.77,1.29-2,1.79-2.76,1.4-2.12,2.74-3.71,4.47-5.65,1.23-1.37,1.8-2.13,2.89-3.53.51-.66,1.41-1.3,1.9-1.97,2.45-3.35,2.88-10.34,3.41-14.43.24-1.82.9-4.26.8-6.04-.03-.45-.47-1.33-.52-1.91-.5-5.87,1.68-15.55,3.32-21.21.15-.53-.21-1.3.8-1.61,1.33-.41.83,1.83,1.54,2.24.11.07.85-.14,1.01.12.12.18-.03.94.02,1.28.03.22.18.39.18.41.18,3.73-.19,9.32-.52,13.12-.26,3.08-.94,6.16-1.54,9.18.03-1.04.01-2.06-.17-3.09.28-.06.16.46.51.51-.65-1.43.2-3.07.46-4.6.07-.38.41-2.15.41-2.35,0-.75-1.02-2.78-.54-3.94-.24-2.14.17-4.37.36-6.52-.3-.97-.69.22-1.05.51-.3.24-.7.23-1.03.51-.7.59-.49,1.61-.72,2.37-.85,2.76-1.68,4.87-1.5,7.93.13,2.17-.02,3.43-.01,5.5,0,.61.35,1.17.36,1.72.02.78-.15,2.63-.19,3.58-.11,2.31-1.26,3.8-1.52,5.52-.13.87.05,1.95-.03,2.88-.35,3.93-2.92,9.06-5.57,11.93-1.84,1.99-4.81,3.59-6.05,6.3-.34.75-.63,1.66.5,1.35s4.25-3.57,5.21-4.57,1.67-2.4,3.02-2.9c.04.22-.07.5-.34.86-.61.7-1.24,1.38-1.89,2.06-.25.1-.43.25-.51.51-.11.11-.23.23-.34.34-.26.09-.42.26-.51.51-1.27,1.26-2.03,1.97-3.43,3.09-.74.42-1.42.94-2.06,1.54-.83.75-1.8,1.42-2.57,2.23-.48.3-.47-.62-.34-1.03Z"/><path class="cls-44" d="M114.11,84.23c.09.18.11.38.17.51-.52-.08-.35.2-.27.53.13.49.98,1.66.96,1.79-.07.38-.66.05-.69.09-.06.07.05.99,0,1.28-.33,1.75-1.56,5.09-2.67,6.6-1.22,1.67-2.75,2.54-4.45,3.39-1.57.78-2.51,1.2-4.29,1.42-1.44.17-5.34-.8-6.42-1.8-.25-.23-.24-.57-.39-.72-.17-.17-.56-.17-.82-.47-.54-.63-1.98-3.31-2.06-4.12-.06-.67-.08-4.51.04-5.11.22-1.12,1.74-2.86,2.35-3.85.27-.44-.07-.88.75-1.29.93-.46,1.61-.96,2.51-1.43.66-.34,1.41-.51,2.07-.84,2.1-1.06,2.65-2.06,5.38-1.81,2.06.19,5.16,2.19,6.1,4.03l1.72,1.8Z"/><path class="cls-38" d="M95.41,110.31l-.41-.06c-.35-1.26-.76-3.19-.41-4.47.13-.47.46-1.42.98-1.13.08-.09.29-.15.42-.34.46-.71.18-1.67-.08-2.4.08-.07,1.51.3,1.71.43.29.19.32.55.37.58.04.03.59-.19.92-.17,2.05.08,3.25-.29,5.24-.75.96-.22.84-.19,1.77-.26.12,0,1.81-1.14,2-1.28.49-.35.2-.22.59-.64s1.18-.25,1.8-1.47c.19-.38-.06-.72.09-.92s.62-.2.85-.36c1.87-1.28,2.46-3.3,3.8-4.95.21-.26.46-.41.77-.52-.56,10.35-12,15.7-20.41,18.7Z"/><path class="cls-23" d="M77.91,121.29c.21.3.52.62.69.86.97,1.8,1.99,3.58,3.06,5.34.68,2.49,1.69,4.53,2.88,6.75.32,5.84.03,12-7.15,12.62-1.41-.16-3.11-1.17-4.27-2.06-.38-.59-.6-1.02-.78-1.71-.21-.79-.02-1.92-.77-2.49-1.27-.97-3.53-.09-4.45,1.03-1.05,1.28-2.48,7.12-2.84,9-.61,3.2.08,6.29,4.03,5.49,2.83-.72,5.65.48,7.14,2.94.37,0,.71.1,1.02.31,3.88,2.54,6.88,4.31,11.68,5.12,4.42.75,7.1.05,10.23-3.04.32-.18,1.34-.45,1.49,0,.49-.3.9-.71,1.2-1.2-.15-.06-.15-.11,0-.17,1.41-2.85,2.25-5.91,2.57-9.09-.15-.03-.15-.09,0-.17.19-1.36.29-2.76,0-4.12-.15-.03-.15-.09,0-.17-.14-.48-.14-.88,0-1.2.23.79.48,1.83.52,2.65.12,2.24-.5,6.46-1.16,8.63-.27.88-1.24,3.44-1.7,4.14-.78,1.21-1.59,1.12-2.58,1.7-1.88,1.11-3.18,2.66-5.5,3.08-6.89,1.24-14.26-3.5-19.93-6.92-.52-.32-1.22-1.04-1.69-1.23-.85-.34-2.33.45-3.4.45-2.55,0-4.97-3.39-5.19-5.75-.17-1.75,1.5-7.43,2.35-9.1.32-.63,2.05-2.97,2.61-3.23.45-.2.97-.03,1.44-.1.37-.06.73-.3,1.06-.33,1.49-.12,2.04,2.69,2.49,3.66.74,1.6,1.43,1.5,2.78,2.2.24.12.25.39.51.53.47.26,1.41.45,1.95.32.34-.08.56-.32.75-.38l.27-.26c1.45-.15,2.89-1.24,2.99-2.76,0-2.13.32-4.07,1-6.1.48-1.78,0-3.27-1.06-4.69-.69-2.7-1.74-5.08-3.2-7.46-.08-.21-.12-.37-.17-.51-.48-1.3-1.28-2.38-2.4-3.26-.05-.1-.18-.19-.17-.34v-.17l.41-.04,1.31,1.24Z"/><path class="cls-31" d="M97.81,123c.04-.43.29-.44.57-.11.39.45,1.37,4.42,1.61,5.39,1.4,6.08,2.61,12.15,3.65,18.23,0,.06,0,.11,0,.17.29,1.36.2,2.75,0,4.12,0,.06,0,.11,0,.17-.33,3.16-1.13,6.22-2.57,9.09-.02.05.02.12,0,.17-.29.49-.71.91-1.2,1.2-.47.16-.99.13-1.44.36-.81.43-2.02,1.79-2.97,2.35-3.96,2.33-11.76-.16-15.62-2.15-1.13-.58-2.81-2-3.86-2.5-.25-.12-.64-.06-.78-.16-.1-.07-.17-.52-.38-.74-.77-.8-2.49-2.03-3.56-2.28-.88-.2-2.03.14-2.97-.21.65-.13,1.41-.6,2.16-.67,2-.2,4.73,2.55,6.43,3.66,5.96,3.88,13.61,7.89,20.28,2.99,2.55-1.88,3.74-6.22,4.32-9.23,1.67-8.55-1.56-21.36-3.69-29.86Z"/><path class="cls-33" d="M18.73,26.23l-.06.37c-4.29,4.44-8.59,9.16-11.33,14.6.24.19.21.58-.1,1.16l.13.33c-.78,2.06-1.42,4.16-1.93,6.3l-.26.23c-2.05,8.45-1.96,17.24-.4,25.53.05.43-.19.76-.63.55-1.73-5.45-2.61-12.9-1.64-18.54.69-4,1.77-9.54,2.92-13.38,2.11-6.99,7.09-13.38,13.29-17.16Z"/><path class="cls-10" d="M117.02,82.86l.27.08c.94,2.57,1.69,5.21,2.24,7.9.71,3.91-1.3,10.88-4.33,13.4-1.86,1.19-3.68,2.53-5.31,4.12l-.93.41c-.08-.27-.53-.61-.26-1.03.16-.26,2.87-2.07,3.44-2.57,7.52-6.62,7.6-17.59,2.32-25.66-1.08-1.65-3.59-4.37-3.78-6.34-.21-2.24,1.74-5.11,2.6-7.18,1.23-2.96,1.7-5.37,2.2-8.52.39-.33.58.03.66.46-.2,2.62-.47,5.44-1.79,7.75-1.06,3.44-2.16,7.66-.56,11.1.93,2.02,2.03,4.33,3.24,6.09Z"/><path class="cls-18" d="M44.8,103.79l-.43.29c-.33-.41-1.16-.59-1.46-.81-.11.12-.23.16-.33.06-1.26-1.3-4.68-5.24-5.14-6.81-1.16-3.95-.13-11.18,1.54-14.95,1.89-3.02,3.11-6.18,3.63-9.47l.29-.05c.18.57.46,1.22.5,1.83.12,1.91-2.19,5.83-2.98,7.78-2.6,6.41-2.64,11.08.85,17.16,1.05,1.82,2.36,3.18,3.69,4.71,0,.15-.16.23-.17.26Z"/><path class="cls-24" d="M116.68,82.34c.53-.37.66.04.86.42.54.99.44,2.18.8,3.15.15.41.47.63.58.96,1.43,4.29,1.28,7.47.3,11.82-.13.59-.7,3.46-.91,3.72-.18.23-.65.13-.94.26-.59.27-.65,2-1.55,2.4-.06.15.64.04.44.61-.11.32-2.11,2.89-2.34,2.99-.34.15-.73.04-1.03.17s-.53.39-.85.52c-.85.35-1.74.57-2.57.95-.2-.57-.34-.93-.51-1.54,1.14-1.12,2.35-2.18,3.62-3.16,1.95-1.5,3.18-1.62,4.31-4.1s2.56-5.82,2.56-8.44-1.49-7.66-2.42-10.21c-.2-.08-.4-.28-.34-.51Z"/><path class="cls-36" d="M24.39,184.26c.31-.6.83-1.12,1.57-1.57,1.91-2.25,4.12-3.78,6.64-4.59.94.21,1.71.16,2.67.05,2.44-.29,4.92-.8,7.27-1.37.43-.07.92-.06,1.23.28.81,5.94,1.27,11.94,1.37,18.01-.49.21-.42.22-1.03.34.3-.34.05-.44-.06-.7-1.16-2.69-.2-6.98-.31-10-.07-1.95-.6-3.55-.83-5.35-.05-.37.02-.75,0-1.11-1.33-.2-3.01,1.42-4.19,1.2-2.17-.41-4.63.01-6.78.78-2.94,1.05-4.66,3.25-7.38,4.54-.06-.16-.12-.35-.17-.51Z"/><path class="cls-31" d="M107.25,24.69l.36-.08,1.11,1.51c.09-.36.21-.43.54-.51.7-.17,2.92,2.93,3.23,3.39,1.23,1.81,2.39,3.65,3.49,5.54.76.72,1,1.73.7,3.02l-1.37,3.94c-.23-.9-.17-1.77-.51-2.67-1.22-3.23-3.67-7.98-5.77-10.7-.35-.45-2.24-2.37-2.28-2.54-.14-.53.35-.69.49-.91Z"/><path class="cls-31" d="M73.11,144.79c.87.53,1.8.76,2.73,1.13.26.1.42.46.83.55,1.2.26,3.71-.71,4.73-1.37,1.42-.92,1.9-1.72,2.3-3.36s.73-5.73.53-7.3c-.1-.8-1.41-2.53-1.75-3.4-.37-.93-.6-2.29-1.04-3.24-.88-1.91-2.34-3.57-2.83-5.67,4.17,6.07,7.39,10.18,6.69,18.1-.29,3.3-3.66,7.81-7.29,7.47-1.53-.14-4.07-1.62-4.89-2.92Z"/><path class="cls-30" d="M153.74,9.59c.32.38-.04.57-.47.5l-3.14-.85-.47.2c-3.02-.85-6.19-1.21-9.31-1.36-1.04-.36-2.22-.51-3.08.31-.39.24-.71.29-.96.16-.17.16-2.86.33-2.97.23-.06-.05-.09-.14-.11-.23-.03.12-.07.22-.12.23-.68.13-2.06.25-2.54-.06-.01-.16.1-.33.34-.51,8.07-3.22,15.28-2.99,22.82,1.37Z"/><path class="cls-36" d="M123.2,180.31c3.12-.9,8.27-.87,10.39,1.91.88.16,1.65.72,2.3,1.69,0,.33.03.71,0,1.03-1.54-.74-2.78-1.72-4.55-1.84-1.14-.08-3.7.35-4.55.04-.37-.14-.59-.53-.89-.65-.98-.4-5.01-.05-6.13.3-.51.16-1.38.83-1.89.77,1.39-1.27,3.48-2.86,5.32-3.26Z"/><path class="cls-19" d="M43.6,173.28c.24,1.22.61,2.39,1.1,3.51-.3,1.87-.25,3.81.16,5.81.9,4.22,1.05,8.38.46,12.47-.05.02-.12-.02-.17,0,.07-.86-.2-1.68-.28-2.52-.21-2.41-.25-4.76-.4-7.18-.06-.99-.61-7.91-.99-8.15-.66-.42-1.87.24-2.55.33-2.01.26-5.3,1.02-7.03,1.05-.93.02-.89-.42-2.17.04-2.82,1.02-4.76,4.15-7.34,5.61-.11-.36-.14-.47-.17-.86,1.61-2.21,4.3-4.21,6.76-5.58,1.56-.42,3.2-.64,4.9-.64,1.54-.7,3.09-1.09,4.63-1.16.93-.07,1.83.17,2.75,0,.06-.2-.15-.39-.17-.51-.6-.61-.54-2.62.17-3.09.1.28.23.31.34.86Z"/><path class="cls-27" d="M128.35,9.42c.63-.13,1.33-.11,2.09.05,8.16-.79,16.09.37,23.97,2.75,1.46.12,2.78.5,3.97,1.14.35.36.96.61,1.03,1.2-4.44-.81-8.67-2.58-13.15-3.24-4.87-.72-10.73-.87-15.59-.54-1.22.08-2.46.11-3.69.17v-1.03c.45-.15.75-.52,1.37-.51Z"/><path class="cls-1" d="M157.34,12.34c.36.35.68.67,1.03,1.03-2.12-.45-4.2-1.02-6.31-1.49-4.29-.96-8.94-2.09-13.32-2.28-2.73-.12-5.61.25-8.23.17-.62-.02-1.58-.34-2.16-.34.27-.3.68-.37,1.03-.51,2.32,0,4.67-.08,7.05-.22,5.59-1.56,11.28.18,16.42,2.54,0,0,1.5.37,4.49,1.12Z"/><path class="cls-42" d="M21.81,24.35c-.22,1.62-2.27,2.62-3.43,3.69-6.69,6.16-11.24,13.13-12.98,22.19-1.57,8.17-1.99,17.32,0,25.46.55,2.23,1.72,4.33,1.84,6.66-.23-.49-.48-.74-.69-1.37-1.09-2.16-1.71-4.38-1.85-6.68-1.56-8.29-1.47-16.85.48-25.07.49-2.62,1.27-4.41,2.06-6.86.05-.72.24-1.42.56-2.07,2.83-5.18,6.89-9.55,10.97-13.76l.64-.81c.99-.79,1.36-.86,2.4-1.37Z"/><path class="cls-39" d="M42.91,72.05c-.33.48-.12,1.17-.22,1.76-.56,3.52-3.46,6.88-4.37,10.38-.79,3.03-1.57,9.84-.4,12.66.38.91,4.23,5.89,4.98,6.43l-.35.43c-.56-.7-1.19-1.5-1.79-2.16-3.39-3.7-4.72-5.51-4.73-10.9,0-1.21.92-2.24,1.17-3.64.29-1.64.31-2.36.9-4.07,1.52-4.39,4.97-7.74,3.94-12.79.5.52.65,1.23.86,1.89Z"/><path class="cls-31" d="M40.51,176.02c-1.31.09-2.12.67-3.26,1.12-1.75.68-2.85.43-4.71.59-2.69.23-6.24,4.12-8.33,5.67,0-.03-.22-.17-.1-.33.93-1.95,1.39-3.56,3.31-4.78,3.36-2.14,9.23-3.03,13.09-2.26Z"/><path class="cls-28" d="M125.26,174.65c.63.21.9.09,1.35.8.24.38.96,2.3.69,2.62-.07.09-1.81.33-2.21.45-1.69.48-3.33,1.22-4.72,2.31-.37,0-.3-2.61-.26-3.01.02-.27.13-.41.17-.59,1.29-1.12,3.16-2.7,4.97-2.57Z"/><path class="cls-7" d="M108.62,22.8l.42-.19c3.12,3.16,5.72,6.9,7.64,10.92.4.85,1,2.16.52,3-.05.39-.24.76-.51,1.03-.62-.53-.14-1.73-.27-2.07-.06-.16-.56-.5-.74-.79-1.63-2.63-2.66-4.65-4.66-7-.59-.69-.93-1.54-1.89-1.8l-.26,1.03-1.63-2.23c.48-.76.86-1.22,1.37-1.89Z"/><path class="cls-2" d="M95.07,111.68c.46,1.41.83,2.85,1.32,4.25,2.47,7.11,4.31,13.3,5.69,20.73.52,2.82,1.33,5.77,1.57,8.64.03.39-.02.8,0,1.2-.48-1.51-.56-3.13-.91-4.67-.57-2.54-1.45-4.8-1.83-7.43-.57-3.84-1.17-7.25-2.62-10.94-.11-.27-.05-.55-.47-.47-1-3.96-2.48-7.5-3.77-11.32.34-.01.69.01,1.03,0Z"/><path class="cls-34" d="M116.68,82.34s.21.14.34.51c-.48.04-.42-.29-.56-.55-.76-1.36-1.55-2.68-2.32-4.02-2.38-4.15-1.47-8.21-.15-12.62.22-.72.77-1.2.97-1.78s.84-4.98.86-5.67c0-.31-.05-.57-.33-.75.1-.63.27-1.24.34-1.89.43-.34,1.2-2.66,1.38-1.12.17,1.45-1.26,7.75-1.77,9.4-.73,2.34-2.17,5.99-2.17,8.44s2.46,7.46,3.41,10.06Z"/><path class="cls-54" d="M118.57,156.12c-.32,3-.7,6.01-1.03,9.01s-.71,5.95-1.03,8.92c-.11,1-.03,4.92-.5,5.51-.26.33-.85.14-.89.34-.07.4-.03,1.58.05,2.01.11.59.54.74.63.95.97,2.25,1.04,5.19,1.73,7.58-1.93-3.6-2.86-6.28-3.09-10.47.04-.49.28-.6.69-.34l.14-.42c.04-2.92.14-5.86.3-8.81.8-4.88,1.51-9.74,2.11-14.59l.37-.2c.16.16.38.39.51.51Z"/><path class="cls-40" d="M109.65,21.6c.42.68,1.73.75,2.39,1.13,1.02.59,3.57,4.93,4.27,6.19.19.34.18.73.34,1.04.66,1.23,1.44,2.42,2.09,3.65-.12.21-.19.57-.34.86-.53.2-.94-.24-1.22-1.31-1.1-.69-2.55-3.06-2.96-4.3.18-.63-.17-1.18-1.04-1.63-1.03-1.49-2.12-2.92-3.27-4.3-.53-.17-.79-.45-.77-.82.19-.23.38-.36.51-.51Z"/><path class="cls-3" d="M130.58,8.73c.89,0,1.93-.17,2.66-.17h3.09c.41,0,1-.77,1.49-.92,1.73-.53,2.28.2,3.68.39,1.73.23,3.49.17,5.3.45.98.15,2.29.37,3.35.77,1.05.11,1.92.64,2.79,1.18,1.3.48,2.6.95,3.9,1.39.22.19.34.35.51.51-.7-.09-1.65-.06-2.31-.18-3.63-.68-6.73-2.76-10.17-3.55-2.38-.54-5.52-.16-7.68.12-2.29.3-4.85.3-7.22.5-.33.03-.67.2-.57-.32.18-.07.37-.11.51-.17.28-.13.51-.13.69,0Z"/><path class="cls-51" d="M135.55,180.48c-1.84-1.53-4.31-2.2-6.69-2.23.06-.79-.3-1.39.27-2.05s2.08-.98,2.9-.85c1.52.23,3.43,3.63,3.53,5.14Z"/><path class="cls-31" d="M43.6,173.28c.84,1.12,1.22,2.55,1.5,3.91,1.09,5.41.77,10.99.74,16.42,0,.44-.3.97-.18,1.47-.1.03-.27-.03-.34,0,.07-1.62.29-3.26.17-4.89-.28-3.91-1.34-8.47-1.36-12.38,0-.42.27-.73.26-1.01,0-.4-.64-.96-.72-1.45-.09-.54.08-1.3-.07-2.07Z"/><path class="cls-35" d="M35.88,153.37l.36.11c-.06,1.35.34,2.39.83,3.61l.84,3.89.33.27c1.23,3.87,2.69,7.63,4.38,11.28.15.85.24,2.06-.04,2.8-.23-.06-.45-.11-.69-.17-.25-.77-.37-1.64-.6-2.4-1.49-4.86-3.57-9.6-5.19-14.37l-.56-4.68c.12-.11.22-.23.34-.34Z"/><path class="cls-32" d="M42.74,171.22c.24.48.33.68.51,1.2-.17,1.11-.36,1.96-.17,3.09-.19,0-.36-.13-.51-.17-.33-.83-.03-1.74-.25-2.58-.31-1.2-1.44-2.98-1.92-4.26-.73-1.96-1.31-4.93-2.2-6.72-.2-.4-.54-.47-.6-.64-.55-1.52-.43-3.86-1.46-5.36l-.26-2.4c.21-.2.46-.47.69-.69l.39.09c-.16,1.07-.03,2.01.39,2.82,1.22,5.38,3.02,10.68,5.4,15.62Z"/><path class="cls-16" d="M118.05,155.6l-.87,6.25c-.33,2.35-.45,5.45-1.17,7.44-.78,2.16-.16,6.12-.36,8.53-.04.54-.15,1.45-.51,1.8-.4-.4-.44-1.64-.43-2.26.16-5.35.59-10.78,1.63-16.1.23-2.13.87-4.2,1.03-6.35.33.09.48.49.68.69Z"/><path class="cls-5" d="M109.13,22.12c.31.26.73.32,1.03.6,1.07.98,2.23,3.1,3.26,4.29.28.33,1.03.77,1.12.95.16.31-.04.66.02,1,.04.25,1.9,3.28,2.14,3.53s.51.23.68.39c.39.39.36,1.35,1.02,1.59-.36.69-.79,1.4-1.2,2.06.11-.92-.23-1.05-.43-1.72-1.15-3.85-4.83-8.48-7.49-11.56-.2-.23-.37-.36-.66-.45.18-.23.3-.42.51-.69Z"/><path class="cls-2" d="M44.29,30.35c.25.28.65.22.45.86-.14.43-1.6,2.2-1.99,2.82-1.39,2.21-2.68,4.5-3.6,6.95-.78-.29-1.04-1.23-1.54-1.89l-.06-.23c1.17-1.49,2.33-3.04,3.49-4.63l.68-.38c-.14-1.37,1.19-3.5,2.58-3.51Z"/><path class="cls-52" d="M82.71,15.43c.54.48.29.93-.33,1.12-2.67.84-7.7.86-10.55.94-.94.03-1.88-.17-2.67-.18,1.38-.71,2.96-.91,4.46-1.2l.35.16c1.75-.09,3.4-.37,4.96-.84,1.2-.05,2.58-.06,3.77,0Z"/><path class="cls-7" d="M56.64,110.65l.57-.14c2.08.54,4.17,1.05,6.28,1.51l4.15-.16c-.25-.23-.31-.53-.18-.87.51,0,1.03,0,1.54,0,1.18.87,2.01,1.89,2.74,3.2,1.77,1.61,3.38,3.44,4.6,5.5l-.14.4v.17c-.93-.79-1.53-2.02-2.31-2.92-.87-1-2-1.93-2.92-2.91-.45-.47-1.46-2.01-1.97-2.17-.53-.16-.79.37-1.46.45-2.13.26-8.34-.12-10.3-.86-.5-.19-.93-.56-1.46-.69.35-.25.52-.32.86-.51Z"/><path class="cls-50" d="M60.76,104.99l1.09-1.2c.08-.78.96-1.07,1.48-1.55l5.66,7.47c.12.37-.32.19-.49.16-.31-.06-.55-.24-.88-.25l-.62-.21c-1.66-1.61-3.09-3.37-4.32-5.25l-.89,1.1c-.4.52-1.35.44-1.03-.28Z"/><path class="cls-54" d="M67.62,109.62c-.52-.01-.83.04-1.37,0,.57.04.32-.09.09-.34-.4-.44-2.87-3.21-3.09-3.26-.5-.11-.4,1.01-.88,1.17-.76.26-2.37-.03-2.59-.95-.27-1.15.14-1.32.48-2.11.11.43.22.58.51.86.13.13.29.37.52.27.47-.21.99-1.67,1.54-1.39.23.12,1.52,2.13,1.89,2.58.9,1.08,2.02,2.09,2.91,3.18Z"/><path class="cls-31" d="M67.45,110.99c.22.44.8.61.69,1.2l-4.71.17c-2.24-.75-4.58-.74-6.78-1.71.07-.04.16-.29.38-.38.84-.37,2.53.24,3.51.36,2.38.29,4.54.35,6.92.37Z"/><path class="cls-23" d="M135.9,183.91c-.91.16-1.13-.96-1.48-1.18-.29-.17-.81-.1-1.04-.24-.13-.08-.54-.78-.92-1.06-1.8-1.29-7.09-1.6-9.25-1.13,2.6-1.39,6.17-1.15,8.92-.26,1.28.42,3.65,1.96,3.88,3.35.06.39-.11.48-.11.51Z"/><path class="cls-28" d="M24.04,179.97c-.13-.03-.31-.08-.32-.18-.08-1.02-.03-2.58,1.1-2.87.73-1.46,2.31-3.5,4.02-3.64.58.21,1.93,1.4,1.47,2.07-.11.16-2.9,1.24-3.51,1.64-1.16.76-2.05,1.82-2.76,2.99Z"/><path class="cls-2" d="M42.74,171.22c-.05-.11-.26-.24-.35-.41-2.66-4.95-3.91-9.52-5.32-14.93-.11-.44-.45-.83-.5-1.22-.09-.65.28-1.28,0-1.96.2-.2.35-.6.68-.69.41,6.79,3.3,12.91,5.49,19.22Z"/><path class="cls-4" d="M6.55,80.97c-.97-1.77-1.79-3.73-2.4-5.66l.51-.57-1.19-8.61c-.21-3.69.07-7.53.53-11.3.23-1.85.58-3.84,1.18-5.6-2,10.59-2.06,21.42,1.37,31.74Z"/><path class="cls-26" d="M28.85,173.28c-.2.41-.65.32-1.04.59-.17.12-2.08,2.04-2.22,2.24-.23.32-.24.74-.51,1.04-.24.27-.8.39-.84.45-.06.1-.1,1.89-.2,2.38-.06.28-.21.93-.51,1.03-.1-1.06-.37-2.62-.14-3.65.11-.47,1.49-2.87,1.85-3.25.81-.87,2.49-1.22,3.61-.82Z"/><path class="cls-50" d="M115.14,179.62c-.19.19-.45.25-.69.34-.29-5.28.3-10.8,1.26-15.99.17-.91.36-1.83.63-2.71-.54,5.06-1.15,10.08-1.33,15.19-.04.98.27,2.14.13,3.17Z"/><path class="cls-41" d="M44.29,30.35c-.67.44-1.82,1.52-2.13,2.25-.14.32.02,1.34-.12,1.5-.03.04-.51.14-.84.45-1.05.98-1.91,2.9-2.84,4.02-.2.24-.51.35-.75.53-.14-.18-.24-.38-.34-.51l1.67-1.93c-.07-1.84,1.87-3.37,2.97-4.67.25-.3.66-1.2.93-1.47s.79-.32,1.13-.5c.07.09.23.21.34.34Z"/><path class="cls-51" d="M37.25,174.3c-1.91-.1-3.79.37-5.66.69.2-4.01,3.9-3.33,5.66-.69Z"/><path class="cls-22" d="M95.75,102.59c.1.67-.16,1.3-.47,1.88-1.27,1.55-.77,3.78-.34,5.58l-.22.43c-.38.15-.69.48-1.03.69-.54-2.46-.4-4.69-.02-7.15.08-.53-.18-.96.28-1.59.35-.47,1.23.86,1.45-.35.04.1.26.28.34.51Z"/><path class="cls-31" d="M77.91,121.29c-.53-.08-1.39-.8-1.72-1.2s-.62-1.33-.85-1.6c-.37-.44-.49-.49-.97-1.13-.93-1.25-1.73-1.77-2.74-2.75-.61-.6-.9-1.49-1.38-2.05-.42-.5-1.34-.72-1.28-1.55.3,0,.57-.1.87-.09,2.74,3.43,5.51,6.8,8.06,10.38Z"/><path class="cls-20" d="M7.23,42.36c.08-.24.1-.6.17-.86-.09-.09-.85.46-.68-.08l2.56-3.64c2.13-3.88,6.11-8.47,9.45-11.55.3-.27.45-.33.69-.51-.01.55-.6,1.15-.94,1.55-3.67,4.2-7.24,7.1-10.07,12.24-.53.96-.65,1.94-1.17,2.86Z"/><path class="cls-9" d="M153.74,9.59c1.38.8,1.9,1.17,3.09,2.23-1.17-.04-2.7-.46-3.77-.95-.98-.45-1.85-1.23-2.92-1.63.95-.09,1.85.22,2.77.39.25.04.64.31.83-.04Z"/><path class="cls-15" d="M125.26,174.65c-1.88.39-3.22,1.95-4.97,2.57.53-2.39,2.73-3.32,4.97-2.57Z"/><path class="cls-5" d="M95.58,104.65c-.64.77-.72.87-.76,1.97-.04,1.04.09,2.79.59,3.69-.28.1-.57.13-.69.17-.36-1.33-.66-2.99-.5-4.36s1.27-2.21,1.52-3.54c.32.86.15,1.22-.17,2.06Z"/><path class="cls-7" d="M78.94,15.43c.08.3-.19.44-.41.52-.86.33-3.09.44-4.13.51-.28.02-.9.17-.78-.35,1.9-.37,3.36-.61,5.32-.69Z"/><path class="cls-45" d="M147.39,104.13c-1.01,1.55-1.89,2.57-3.09,3.95.03-.32.22-.58.34-.86.45-1,1.53-2.99,2.74-3.09Z"/><path class="cls-45" d="M137.61,114.6c-.59.47-1.22,1.31-2.06,1.54.59-.53,1.09-1.67,2.06-1.54Z"/><path class="cls-56" d="M24.22,113.22l.08-.34c.24.44.99.56.94,1.03-.38-.24-.66-.39-1.03-.69Z"/><path class="cls-45" d="M132.98,118.37c-.11.12-.26.25-.34.34-.32-.53-.19-.87,0-1.37-.02.37,0,.81.34,1.03Z"/><path class="cls-1" d="M130.92,8.22l.17.34-.52.17c-.23,0-.46,0-.69,0,.33-.14.68-.37,1.03-.51Z"/><path class="cls-45" d="M141.56,110.99c-.17.17-.34.34-.51.51,0-.34.17-.53.51-.51Z"/><path class="cls-45" d="M142.41,110.14c-.17.18-.35.34-.51.51-.02-.35.17-.51.51-.51Z"/><path class="cls-43" d="M48.06,79.42s.02-.31.17-.42c.47-.34,1.28-.58,1.85-.73.49-.13,2.93-.41,2.95-.65-.43-1.01-.69-2.2-.83-3.28-.54-4.1-.72-9.86.81-13.74,1.68-4.26,4.66-7.57,9.47-4.95,6.26,3.41,6.91,14.94,5.23,21.02-.21.78-.47,1.58-.95,2.23.76.13,1.61.75,2.06,1.37-.94.03-1.82.03-2.74-.17-.83-.01-2.17-.06-2.9-.43-.17-.09-.27-.26-.36-.43l-.23.15c-4.58-.64-9.09-.59-13.55.15-.24.43-.7.61-.81.04-.24.23-.33.14-.17-.17Z"/><path class="cls-43" d="M85.8,78.91c-.6-.13-.77-.81-.99-1.33-1.77-4.22-2.26-7.69-1.33-12.23.43-2.09,1.84-6.11,3.64-7.34,6.84-4.7,10.34,5.43,11.02,10.54.36,2.73-.05,5.17-.83,7.78.09.12,2.26.63,2.74,1.04.33.28.26.71.34.86.05.4-.18.47-.53.45-4.25-1.22-8.65-.98-13.03.07.1.54-.84.63-1.03.17Z"/><path class="cls-54" d="M84.26,84.91c.28.16.8.04.86.6.21,1.76-1.72,1.02-2.67,1.11-1.52.15-3.15.56-4.63.7-.57.05-1.09-.24-1.53-.18-.37.05-1.19.63-1.65.77-1.32.42-3.64.6-5.06.62-1,.01-2.03-.76-1.36-1.73.13-.19.3-.23.42-.34.62-.23,1.07-.23,1.37,0,4.49-.46,9.11-.87,13.55-1.2-.06-.34.17-.45.69-.34Z"/><path class="cls-43" d="M84.26,84.91c-.09.41-.48.26-.69.34-2.5.12-5.01.14-7.53.05-2.02.34-4.03.73-6.02,1.15-.4.15-.97.16-1.37.51v-.51c2.58-2.37,10.96-3.88,14.11-2.53.49.21,1.01.7,1.5.99Z"/><path class="cls-43" d="M102.1,48.2c-.22-.08-.33-.2-.34-.34-1.34-1.25-2.7-2.52-4.29-3.43-1.13.17-2.73-.41-3.6-1.2-.24-.09-1.48-.59-1.03-1.03.38-.37,6.35,1.35,7.24,1.76,1.21.56,5.08,2.71,2.98,4.25-.47.35-.61.05-.95-.01Z"/><path class="cls-43" d="M65.04,41.51c.59.78-.99,1.59-1.37.86l-.85.43c-2.15.3-4.17,1.03-6.18,1.8.18.68-1.03.93-1.2.17-.25-.57-.61-.93-.25-1.71.33-.73,3.77-1.8,4.63-1.89.95-.1,4.51-.08,5.23.34Z"/><path class="cls-48" d="M66.07,80.11c-1.53.5-3.17-.11-4.71-.18s-3.18.1-4.73.18c-3.08.16-6.14.78-9.09.69-.69-1.17-.02-.91.51-1.37.03.06.18.16.17.17.18.14.29.29.14.43,4.63-.51,9.69-1,14.39-.61.02,0-.21.16.04-.16,1.19.23,2.2.63,3.26.86Z"/><path class="cls-25" d="M100.56,78.39c.05.1.53.26.35.75-.11.51-2.71-.1-3.25-.14-2.37-.18-4.96-.55-7.29-.25-1.52.19-3.29,1.28-4.74.49.05-.12.12-.23.17-.34.26.06.84-.16,1.03-.17,4.49-1.22,8.93-.93,13.37-.1l.35-.24Z"/><path class="cls-21" d="M55.44,44.76c.45.34.79.02,1.2-.17,1.66-.75,3.07-1.05,4.86-1.24l2.18-.99c.59-.07,1.51-.07,1.37-.86.43.25.42.7.09,1.04-.24.25-2.8,1.37-3.28,1.53-1.25.41-2.14.56-3.41,1.06-.46.18-2.43.62-2.78.34-.29-.22-.16-.53-.24-.7Z"/><path class="cls-5" d="M97.47,44.42l.56.3c1.21,1.06,2.45,2.11,3.73,3.13.15.08.27.18.34.34-1.63-.28-3.1-1.6-4.51-2.43-1.23-.72-3.14-1.1-3.72-2.54,1.21.44,2.35.69,3.6,1.2Z"/><path class="cls-47" d="M100.38,78.22c.05.08.15.13.17.17.14,1.18-1.62.26-2.34.19-1.44-.14-3-.28-4.43-.37-2.42-.16-4.65.4-6.95.52,3.3-1.11,7.03-1.62,10.51-.99,1.02.18,2.09.91,3.05.47Z"/><path class="cls-12" d="M55.56,82.22c.11.11.04.43.31.63.39.28,1.01.05,1.38.34.22.17.35.8.58,1.09.29.36,1.18.76,1.31,1.32.04.2-.25.38-.27.62-.03.33.2.73.17,1.19-.11,1.75-.84,4.58-1.99,5.92s-2.37,2.66-4.02,3.35c-2.42,1.01-5.75,1.53-8.05,0-.17-.11-1.55-1.34-1.61-1.45-.35-.6-1.04-3.03-.96-3.69s1.05-3.89,1.39-4.44c1.22-1.94,2.3-2.28,3.83-3.54.38-.32.39-.68.94-.95.66-.33,1.9-.12,2.3-.29.31-.13.25-.56.7-.65.63-.12,3.57.14,3.99.56Z"/><path class="cls-16" d="M78.94,124.38c.69,1.14,1.56,2.45,2.09,3.66s.74,2.63,1.22,3.75c.29.68.94,1.23,1.16,1.75.8,1.93-.2,3.93-.62,5.76-.28,1.23-.04,3.54-.52,4.45-.05.1-1.24,1.29-1.32,1.33-.34.2-1.53.42-2.01.57.12-.74.56-.4,1.01-.61.68-.31,1.58-.94,1.7-1.75.06-.38-.17-.69-.13-.97.33-2.54,1.51-6.39,1.38-8.77-.02-.41-.62-1.06-.84-1.58-.49-1.2-.66-2.56-1.21-3.77-.61-1.35-1.31-2.34-1.92-3.83Z"/><path class="cls-7" d="M76.37,120.6c.43.59,1.2.79,1.62,1.38s.54,1.25.78,1.88c-.47-.47-.57-1.19-.95-1.7-.52-.7-.99-.65-1.45-1.56Z"/><path class="cls-17" d="M111.64,93.77c-2.52,3.5-7.46,5.78-11.74,4.75-1.2-.29-2.91-1.68-3.33-2.84-.11-.3-.63-2.31-.66-2.61-.11-1.12-.02-2.57-.06-3.6s-.59-1.25.34-1.98c.19-.15.47-.17.67-.36.8-.72.78-1.95,2.33-2.32s1.38,1.85,3.17.44c1.01-.8,1.02-2.23,1.66-3.32,1.42-2.39,4.64-2.75,6.66-.89.79.73,2.38,3.46,2.57,4.47.46,2.58.02,5.99-1.6,8.25Z"/><path class="cls-2" d="M101.07,160.06c.43-1.23.68-2.53,1.42-3.64l1.15-5.46c-.15,2.99-.65,5.1-1.86,7.84-.17.38-.41,1-.72,1.26Z"/><path class="cls-2" d="M103.64,150.8c.06-1.45.05-2.67,0-4.12.55,1.31.32,2.79,0,4.12Z"/><path class="cls-2" d="M99.87,161.44l1.2-1.2c-.22.62-.57.98-1.2,1.2Z"/><path class="cls-11" d="M60.93,56.78l-1.46.68c-3.26,2.76-3.95,7.08-3.06,11.13.94,4.25,6.79,9.28,9.64,3.52l.88-2.29c.07,2.93-.05,5.88-.69,8.75-3.61-1.05-7.24-1.13-10.98-1.03,0-.3.02-.6-.04-.9-1.12-5.27-2.04-12.94.87-17.75,1.17-1.92,2.55-2.68,4.83-2.11Z"/><path class="cls-46" d="M62.81,79.25c.31.47.17.32-.25.34-4.7.23-9.42-.08-14.08.84-.93-.34-.38-.45-.25-.84.44.18.5-.29.65-.33,3.49-1.02,10.34-.7,13.94-.01Z"/><path class="cls-13" d="M60.71,58.35c2.99-.51.39,6.35-1.58,3.74-1.01-1.34.02-3.47,1.58-3.74Z"/><path class="cls-11" d="M95.57,75.81c-3.33-.3-6.91-.18-9.68,1.9l-.43-1.89c4.29-.03,6.66-1.95,7.84-5.97.89-3,1.31-5.77.22-8.79.24.16.51.72.64.99.75,1.6,1.48,4.22,1.74,5.98.37,2.53.02,5.26-.33,7.78Z"/><path class="cls-8" d="M87.47,59.73c1.01-.23,1.77.77,1.69,1.69-.06.71-1.21,2.72-1.94,2.88-2.64.58-1.95-4.06.25-4.56Z"/><path class="cls-2" d="M83.57,85.26c-1.52.61-3.17.52-4.87.71-2.62.29-5.09.52-7.74.68-.33.02-.68.05-.94-.18,2.36-.9,4.16-1.41,6.78-1.54,2.35-.12,4.46.35,6.77.34Z"/><path class="cls-2" d="M101.76,47.85c-.72-.39-1.44-.78-2.15-1.2l-2.14-2.23c.18.07.46.05.75.19,1.25.6,2.95,1.98,3.54,3.24Z"/><path class="cls-55" d="M63.67,42.36c-.6.87-1.99,1.39-3.02,1.53-.65.09-1.36-.08-2.01.05s-1.22.86-2.01.65c3.11-1.49,3.48-1.81,7.03-2.23Z"/><path class="cls-37" d="M57.02,86.07c.18.18.55.06.7.42.58,1.39-.31,3.74-1.44,4.67-1.4,1.15-3.55,1.57-4.69,2.35-.88.6-.7,1.52-2.46,1.83-5.16.89-6.12-4.23-3.82-7.77.57-.88,1.24-.99,1.83-1.52.36-.32.53-.94,1.03-1.29.93-.65,1.88-.47,2.69-.74.28-.09.3-.48.46-.58.18-.12,1.31.32,1.68.39.49.09,2.38.26,2.66.42.55.32,1.05,1.5,1.37,1.82Z"/><path class="cls-37" d="M110.28,82.92c4.22,2.86,2.15,10.04-2.05,12.16-1.63.82-3.76,1.18-5.42.57-.14-.05-.4.12-.49.05-.07-.05-.9-1.32-.94-1.4-.14-.33.22-1.57.41-1.91.38-.68.62-.46,1.17-1.74,1.26-2.94,1.97-4.37,3.88-6.93.77-1.03,2.32-1.58,3.45-.81Z"/></g></svg>