<?xml version="1.0" encoding="UTF-8"?><svg id="Layer_2" xmlns="http://www.w3.org/2000/svg" viewBox="0 0 27.52 15.49"><defs><style>.cls-1{fill:#8197a5;}.cls-2{fill:#7f95a3;}.cls-3{fill:#849cab;}.cls-4{fill:#adc5d5;}.cls-5{fill:#7c919f;}.cls-6{fill:#040405;}.cls-7{fill:#010102;}.cls-8{fill:#869ead;}.cls-9{fill:#aec6d6;}.cls-10{fill:#a4bccd;}.cls-11{fill:#040505;}.cls-12{fill:#030404;}.cls-13{fill:#fcfcfc;}.cls-14{fill:#b8d0e0;}.cls-15{fill:#8aa3b3;}.cls-16{fill:#7b8f9d;}.cls-17{fill:#d9ecf9;}.cls-18{fill:#c0d7e6;}.cls-19{fill:#839baa;}.cls-20{fill:#dff1fd;}.cls-21{fill:#a7c0d0;}.cls-22{fill:#a6becc;}.cls-23{fill:#6e828d;}.cls-24{fill:#8fa8b9;}.cls-25{fill:#788d9a;}.cls-26{fill:#d7eaf7;}.cls-27{fill:#050505;}.cls-28{fill:#8ba3b3;}.cls-29{fill:#060606;}.cls-30{fill:#d2e6f3;}.cls-31{fill:#869dac;}.cls-32{fill:#7b909e;}.cls-33{fill:#a4bccc;}.cls-34{fill:#acc5d5;}.cls-35{fill:#859cab;}.cls-36{fill:#879ead;}.cls-37{fill:#a5bdcd;}.cls-38{fill:#dbeefa;}.cls-39{fill:#c5dbea;}.cls-40{fill:#8096a4;}.cls-41{fill:#70838f;}.cls-42{fill:#d1e5f3;}.cls-43{fill:#8198a6;}.cls-44{fill:#768a97;}.cls-45{fill:#bdd4e3;}.cls-46{fill:#9ab3c3;}.cls-47{fill:#6f828e;}.cls-48{fill:#aac2d2;}.cls-49{fill:#798d9b;}.cls-50{fill:#97b0c0;}.cls-51{fill:#768b97;}.cls-52{fill:#7d93a1;}.cls-53{fill:#c8ddeb;}.cls-54{fill:#718490;}.cls-55{fill:#98b0c1;}.cls-56{fill:#c0d6e5;}.cls-57{fill:#849baa;}.cls-58{fill:#99b2c3;}.cls-59{fill:#9cb4c5;}.cls-60{fill:#d0e4f2;}.cls-61{fill:#94acbb;}.cls-62{fill:#8299a7;}.cls-63{fill:#8298a7;}.cls-64{fill:#91a9ba;}.cls-65{fill:#99b1c2;}.cls-66{fill:#a2bacb;}.cls-67{fill:#dceefb;}.cls-68{fill:#88a0af;}.cls-69{fill:#96aebf;}.cls-70{fill:#b7cfdf;}.cls-71{fill:#b3cbdb;}.cls-72{fill:#778b98;}.cls-73{fill:#9fb7c6;}.cls-74{fill:#afc7d7;}.cls-75{fill:#b1c9d9;}.cls-76{fill:#fefefe;}.cls-77{fill:#040404;}.cls-78{fill:#748894;}.cls-79{fill:#8da5b5;}.cls-80{fill:#c8ddec;}.cls-81{fill:#6f838f;}.cls-82{fill:#9bb3c4;}.cls-83{fill:#a7bfcf;}.cls-84{fill:#c6dceb;}</style></defs><g id="Layer_1-2"><path class="cls-12" d="M7.85,1.76c.09-.02.11,0,.11.09.2-.02.26.02.18.12.18,0,.35,0,.53.04l.27-.05-.26.04c-.05,0-.08,0-.1-.04-.01.07-.22.02-.16-.07.02-.01.05-.02.07-.03s.05-.01.08-.01c.59,0,1.17.02,1.76.07.02,0,.05.01.07.02s.05.02.07.04c0-.02.01-.02.02,0,.09-.03.13-.01.13.04.03-.02.04-.02.04,0,.18-.04.43-.01.59.09.15.1.3.16.46.19.1-.07.36.01.28.13-.01.04-.04.04-.07.03.27.19.45.5.51.83.01.09.02.31-.07.34-.04.22-.18.49-.37.59.01.05-.01.1-.07.14.83.22.91,1.42.44,2.02.2.08.27.31.31.5.02.01.04.02.04.04.05.22-.16.63-.34.77-.26.21-.92.25-1.12-.06-.05.03-.07.01-.04-.04h-.05c-.21-.61.17-.56.58-.39.32.11.72-.35.29-.5v-.05c-.15.03-.3.05-.44.05-.13-.01-.22-.26-.13-.33-.08,0-.05-.11,0-.14.21-.03.41-.07.57-.21l.08-.02s0-.09.04-.14c.21-.61.1-1.07-.59-1.17-.3.1-.45-.4-.13-.43v-.06c.16-.11.28-.23.38-.38l.08-.04v-.07c.12-.21.18-.41.05-.64-.47-.8-1.3-.89-2.14-.92l-.06-.05s-.03.04-.04,0c0,.04-.03.04-.04,0-.02.04-.05.05-.1.02.43.45.38,1.24-.07,1.64-.02.07-.05.12-.09.16,1.02.27.92,1.37.28,2.02,0,0,.07.05.07.05.35.16.48.23.65.63.27.64,0,1.21-.46,1.65-.24.23-.65.5-.97.27,0,.02-.01.02-.02,0-.07.02-.13-.13-.14-.19-.08-.32.22-.27.42-.19.38.06.79-.55.86-.88.13-.56-.5-1.22-1.07-.9-.26.08-.34-.36-.13-.46.51-.12,1.17-.94.75-1.42-.29-.32-.56-.22-.89-.05-.24.13-.44-.2-.24-.34.59-.12,1.27-1.35.7-1.77-.12-.09-.66-.19-.81-.21-.26-.03-.53-.02-.79-.01l-.07-.04c.02-.07.12-.15.2-.17.05-.06.11-.11.15-.15Z"/><path class="cls-29" d="M21.43,4.42s-.04.07-.04.11c-.97.11-1.94-.41-2.73-.93-.71-.46-1.39-1-2.06-1.53-.2-.13-.39-.29-.55-.46-.1,0-.22-.08-.26-.17,0,0-.02.01-.02.01-.02,0-.31-.17-.32-.21l-.37-.15-.02-.05c-.16-.05-.32-.11-.48-.17l-.03-.05c-.66-.21-1.29-.4-1.99-.45-1.01-.07-1.98.07-2.89.51h-.07s-.05.08-.05.08c-.07.05-.46.3-.5.31-.02,0-.03,0-.05,0l-.02.05c-.24.16-.47.33-.68.52.04,0,.07,0,.09.04.02-.02.04-.02.04,0,0,.03.14.07.16.07h.36l-.27.09c-.21-.06-.41-.01-.62-.04l.11-.11h-.26s.03-.09.02-.11c0,0-.06.03-.07-.02,2.38-2.4,5.89-2.2,8.51-.3,1.37,1,2.97,2.61,4.7,2.91.12.02.26.02.38.05Z"/><path class="cls-12" d="M26.46,4.12l.03.04c-.12.28-.25.56-.41.82-.1.04-.18.12-.22.25.06.11.07.26.01.37,0,0-.02.05-.02.07l-.15.2c-.29.32-.64.57-.98.83v.05c.09.03.19.07.28.1.67.19,1.89.74,2.4,1.21.09.08.15.13.11.25-.01.03-.04.05-.07.07-.81.47-1.76.85-2.71.76-.7-.06-1.46-.22-2.15-.38-.37-.09-1.24-.38-1.56-.36-.74.05-2.2.67-2.9,1-.91.43-1.72,1.04-2.56,1.59-.02-.05,0-.1.08-.15l.22-.13c.34-.27.69-.53,1.05-.77v-.03s.02-.04.04-.06c.09-.11.62-.43.78-.51.02,0,.04-.01.06-.02s.04,0,.07,0c.01-.02.03-.04.04-.06s.03-.03.05-.04c.43-.23.89-.39,1.34-.55l.05-.06c.54-.22,1.46-.56,2.04-.46.87.21,1.73.42,2.6.61,1.1.28,2.22.09,3.21-.43h.11s.05-.01.04-.02c-.07-.02-.13-.06-.19-.09-.58-.38-1.07-.7-1.71-.99-.33-.15-.71-.28-1.07-.34l-.04-.03c-.04.12-.19-.04-.07-.09-.04-.03-.03-.04.02-.04-.03-.04-.02-.07.04-.11.49-.35.99-.73,1.3-1.27l.66-1.05c.05-.06.1-.11.16-.16Z"/><path class="cls-12" d="M12.17,9.91s.04-.01.02.02c.07-.02.14.02.11.09.15.79.68,1.38,1.23,1.93.04-.05.08-.06.12-.03,0-.01.01-.01.02,0,0-.04.01-.05.04-.02.02-.04.08-.09.11-.04.03.04.01.08-.06.11-.09.03-.13.06-.11.09,0,.01,0,.02,0,.02-.06.04-.05-.02-.04,0,0,0,0,.01.01.02.26.21.53.41.79.63.1.08.41.35.44.46.11.37-.46.78-.72.96-.18.12-.85.57-1.01.63s-.23-.07-.31-.2c-.19-.31-.33-.77-.49-1.12-.11-.24-.25-.48-.35-.72-.22.06-.43.19-.66.25-.29.07-.72.12-1.02.15-.02.06-.07.06-.09,0-.03.01-.05.03-.08.03s-.06.02-.08.02c-.5.03-1.02.03-1.51-.03.08.21.06.5.03.73-.05.4-.22.81-.47,1.12,0,.04-.03.07-.09.09,0,0-.01,0-.02,0-.01.05-.07.03-.11.02-.02,0-.03,0-.04-.02-.04-.07.05-.1.12-.11.06-.14.14-.27.25-.4.02-.11.04-.21.07-.32,0-.05.02-.09.02-.13l.11-.54c.02-.15.02-.29.04-.44-.04.01-.06-.02-.09-.02-.15,0-.29-.02-.44-.04-.25-.03-.49-.06-.74-.09-.47-.09-.94-.21-1.39-.37-.01,0-.03-.01-.04-.02-.06-.04-.11-.13-.04-.17h.15c1.31.48,2.78.63,4.16.55.66-.03,1.23-.14,1.84-.39-.07-.13-.4-.78-.34-.85.04-.04.08-.04.11,0l1.5,2.72c.45-.26.88-.54,1.26-.88.18-.16.31-.35.04-.52-.77-.54-1.46-1.18-2-1.95v-.06s-.04,0-.04,0c-.1-.14-.42-.91-.38-1.07.02-.1.14-.16.18-.06Z"/><path class="cls-27" d="M7.7,1.91c-.07.07-.1.15-.2.17l-.08.03c-.81.07-1.65.15-2.41.38.25.27.5.57.69.9v.07c.26.41.49.85.68,1.3l.16.88c.21.75.4,1.48.3,2.26,0,.02-.01.03-.02.05s-.02.03-.03.05c-.02.15-.08.24-.18.26-.03.23-.08.45-.17.67-.38.98-.94,1.79-1.71,2.5h-.06s-.03-.08.03-.14c.44-.42.81-.89,1.12-1.41.04-.06.05-.11.03-.15.03-.18.17-.39.31-.52v-.12c1.06-2.1-.02-4.37-1.16-6.18l-.03-.13c-.06,0-.06,0-.02-.04-.05.01-.07,0-.04-.04-.02,0-.03,0-.02-.02-.02,0-.02-.01,0-.02-.04,0-.08-.02-.11-.04-1.11.41-2.13,1.07-2.97,1.89l-.1.03s-.05-.04-.05-.1c-.05,0-.07-.02-.08-.05.97-1.07,2.57-1.9,3.97-2.21.72-.16,1.45-.23,2.18-.23Z"/><path class="cls-12" d="M6.98,6.75s.04.05,0,.07c.13.46.06.98-.05,1.45-.04.16-.18.74-.25.82-.01.02-.03.03-.05.05v.06c-.13.36-.34.71-.56,1.03l-.05.03c.04.06-.02.15-.09.15,0,.02,0,.05,0,.07s-.01.04-.02.06c-.33.5-.76,1.01-1.22,1.39.1,0,.21.07.25.16.04.1-.05.12-.13.09-.02,0-.04-.01-.07-.02-.05-.04-.1-.09-.14-.15-.03.03-.06.04-.1.02-.07-.04-.11-.02-.17-.11-.04-.03-.08-.06-.1-.11-.1-.03-.28-.15-.25-.26.04-.06.12-.02.11.04.03-.03.05-.02.04.02.04-.02.08,0,.13.04.47-.47.91-.98,1.33-1.52,0-.04.04-.09.09-.13,0-.02.02-.05.04-.07-.01-.09.06-.16.13-.2.08,0,.08,0,.05.08-.17.45-.6.89-.92,1.24-.11.12-.27.21-.31.38.02.04,0,.08-.04.12.01,0,.26-.08.28-.12.18-.28.39-.54.61-.79.1-.2.22-.38.35-.56l.06-.02c.15-.27.3-.55.44-.83.13-.42.27-.82.42-1.22.1-.81-.01-1.35-.23-2.13-.11-.39-.13-.81-.23-1.16-.08-.28-.47-.94-.63-1.24.02.01.05.03.07.04.19.15.49.76.61,1.01.31.64.56,1.42.64,2.13,0,.02,0,.03,0,.05s-.01.04-.02.05Z"/><path class="cls-77" d="M17.66,4.22s.07-.02.07.02c.05-.03.08-.04.11.02.02-.04.08-.04.16,0h.06c.05-.1.64-.29.69-.27.11.04-.08.17-.15.19l-.34.15s-.01.03,0,.04h.17s0,.02,0,.02h.2c.65.15,1.28.28,1.95.24.27-.05.55-.09.81-.11,0-.04-.08-.03-.07-.08.03-.04.07-.03.11-.03.12,0,.31-.01.44,0,.1-.03.2.03.2.13,0,.02-.01.02-.02,0-.04.07-.35.18-.42.18-.02,0-.04-.01-.06-.03-1.03.38-2.17.19-3.21-.04l-.1-.07-.05.03c.22.21.33.51.36.81,0,.03,0,.04-.03.06,0,.25-.11.62-.39.65-.08.09-.22-.17-.13-.22-.15-.08.06-.34.17-.39-.04-.06-.02-.16.04-.2l-.04-.05c.04-.4-.38-.71-.72-.84l-.66-.18c-.06-.01-.08-.04-.08-.08l.02-.05c.06,0,.09-.03.09-.13.28.01.58.09.83.22Z"/><path class="cls-29" d="M21.87,4.42c.83-.28,1.66-.56,2.51-.77.27-.07.55-.1.82-.18.58-.16,1.29-.51,1.89-.53.09,0,.16.02.25.04.02.03-.23.18-.25.2-.25.22-.26.67-.39.96s-.36.63-.52.92c-.1.18-.17.38-.3.54,0-.04-.02-.24-.02-.29,0-.03-.04-.05-.03-.08,0-.01.14-.25.15-.26.02-.01.06,0,.08-.02.05-.03.37-.72.41-.84l-.02-.08c.06-.23.16-.54.32-.71-.04-.02-.02-.05.04-.09-.01-.02,0-.04.07-.07v-.05c-.18.03-.42.11-.63.19-.65.27-1.32.46-2.02.62-.02,0-.05,0-.07,0s-.05,0-.08-.01c-.26.14-.59.24-.89.26-.24.13-.49.21-.76.24-.07.09-.26.17-.37.13-.07-.05-.11-.12-.2-.13Z"/><path class="cls-27" d="M1.71,8.23c0-.07.25-.08.29-.07.08.03.1.11.02.14.02.06-.08.14-.11.07-.09.07-.16.08-.22.04-.04.05-.08.1-.13.04-.06.06-.11.08-.15.07-.21.13-.35.29-.41.49l-.05.03v.08c.06.02.07.15.02.18.05,0,.11.06.07.11.06-.01.07.03.02.07.06-.01.12.05.09.11.08.02.15.08.22.16.75.6,1.56,1.12,2.41,1.58l.03.07c.05-.04.1-.02.09.04.05-.03.09.01.09.07.02,0,.02.01,0,.02,0,.01.13.14.15.16.04.03.1.05.12.06.02.02.05.11.07.15-.16-.06-.3-.17-.46-.24-.04-.01-.07-.04-.09-.07-.69-.4-1.42-.82-2.06-1.28-.52-.37-1.22-.81-.89-1.55.08-.18.26-.29.42-.38-.1-.01-.2-.01-.31-.03-.02-.09.11-.09.17-.08.18.04.38.03.57,0,0,0,.02-.01.02-.03Z"/><path class="cls-29" d="M10.29,13.12l-.4,2.36-.06.02c-.26-.11-.52-.25-.8-.32-.32-.08-.7-.12-1.03-.09.01-.05.04-.07.09-.09,0-.01,0-.02,0-.03.05-.08.56-.03.67-.02.3.03.61.09.88.24.11-.66.28-1.33.49-1.98l.07-.09s.06,0,.09,0Z"/><path d="M16.92,9.89c.1-.02-.07.12-.08.13-.29.24-.64.4-.89.65-.13.14-.26.11-.38.31-.14.22-1.01.64-1.27.77-.17.08-.32.19-.49.26-.03.05-.12.08-.15.04-.06,0-.06-.02-.02-.06.05-.05.16-.07.2-.14.02-.02.04-.05.07-.07s.05-.04.07-.06c.29-.17.59-.34.88-.51.06-.03.12-.05.18-.06.01-.02.03-.04.04-.06s.03-.04.05-.05c.27-.19.55-.38.83-.56.02-.01.04-.02.07-.03s.05-.01.07-.02l.44-.31c.08-.13.24-.22.39-.24Z"/><path d="M1.68,4.51l-.03.1c-.17.2-.35.4-.53.58v.09c-.19.23-.36.47-.51.72l-.08.08c.06.04.02.11-.04.11-.04.07-.07.15-.09.23h-.07c-.11.05-.14,0-.08-.19.34-.7.79-1.3,1.31-1.87.12,0,.14.03.13.15Z"/><path class="cls-29" d="M.44,6.38l.02.08c-.08.24-.13.48-.17.72l-.02.03c.06.03.06.09.02.2.07.01.06.07.02.11l.05.03c.04.15.12.28.23.39v.06s-.04.03-.04.03c-.06-.04-.09-.05-.15-.02-.04-.04-.07-.04-.09,0-.2-.22-.27-.4-.28-.7-.02-.06-.02-.12,0-.17,0-.4.05-.54.22-.89v.17s.11-.07.11-.07l.02.07c.01-.07.04-.18.11-.22.05.04.03.18-.04.2Z"/><path d="M.31,8c-.02-.15.05-.08.12-.02,0-.08.11,0,.16.02h.06c.29.18.61.22.96.2l.09.04.09.04c-.16.02-.32.06-.48.05-.11,0-.25-.07-.37.01-.24-.05-.47-.17-.63-.35Z"/><path class="cls-27" d="M5.69,12.42l.04.17c-.33-.14-.62-.28-.94-.44.06,0,.11-.04.13-.09.03,0,.07,0,.1,0,.11.04.59.25.63.3.01.01.02.03.03.04Z"/><path class="cls-29" d="M8.27,14.25c0,.1.02.22-.01.3s-.19.24-.24.33c-.02.03-.03.12-.04.13-.02.02-.13,0-.15.07,0,0-.03,0-.03-.02-.02-.04.23-.34.27-.41.08-.13.12-.27.2-.4Z"/><path class="cls-13" d="M7.18,12.99c-.59-.08-.85-.14-1.39-.37l1.39.37Z"/><path class="cls-13" d="M25,6.84c-.08-.02-.3-.04-.35-.08-.06-.03.05-.07.07-.08l.28.15Z"/><path class="cls-27" d="M4.73,12.14c-.08-.04-.16-.09-.24-.13l.12-.09.12.22Z"/><path class="cls-13" d="M8.29,14.12c.02-.18.05-.37.11-.54-.02.18-.03.37-.11.54Z"/><path class="cls-13" d="M13.63,12.09s-.03,0-.04,0v-.02s.07-.02.07-.02c.05-.02.1-.02.15-.04,0,.1-.1.09-.17.09Z"/><path class="cls-13" d="M8.35,13.12c-.15,0-.3,0-.44-.04.14.01.31,0,.44.04Z"/><path class="cls-13" d="M25.7,5.86c.03-.07.09-.15.15-.2-.03.09-.09.13-.15.2Z"/><path class="cls-13" d="M.03,7.3s-.04-.14,0-.17c0,.06,0,.12,0,.17Z"/><path class="cls-13" d="M3.86,11.66s-.09.02-.09-.07c.03.02.07.02.09.07Z"/><path class="cls-29" d="M7.98,15.08c.01.08-.06.04-.11.02.04.01.08-.02.11-.02Z"/><path class="cls-13" d="M27.44,8.37l.07-.07c-.03.08-.02.04-.07.07Z"/><path class="cls-15" d="M7.5,2.09c.5-.02.78-.04,1.25.09.35.09.49.06.64.45.16.43-.28,1.16-.64,1.41-.08.06-.27.11-.3.14-.05.04-.01.2.03.23.13.1.36-.08.48-.11.22-.07.37-.06.56.08.59.45.06,1.25-.44,1.52-.15.08-.32.05-.3.27.03.36.26.13.45.11.48-.06.92.48.88.94-.03.34-.38.83-.69.97-.26.11-.33-.06-.54-.02-.18.04-.02.3.03.39.17.28.59.18.81.01l.04.03c.11.06-.09.15-.16.18.12.23.31.41.58.53.14.07.22.17.24.3.19.07.46.21.47.42.11.05.29.16.33.27v.11c.08.03.24.14.21.21.06-.04.09,0,.09.13l.24.19c.02.12.07.2.16.23.07.19.14.21.22.06l.24-.19h.05c.24.41.95,1.17,1.32,1.47.26.21.61.41.83.65.16.18-.19.47-.33.59-.35.3-.76.53-1.15.76l-1.53-2.77s-.03.01-.02.05c.09.29.23.56.36.83-.23.04-.46.17-.68.23-.73.21-1.76.2-2.52.16-1.03-.05-2.06-.2-3.02-.59-.25-.1-.53-.22-.76-.35-.1-.05-.19-.11-.28-.16.47-.44.93-.97,1.29-1.51.08-.04.15-.09.21-.15h.03s.03-.02.03-.02c.08-.19.19-.33.34-.44.18-.31.24-.65.29-1,.18-.53.3-1.05.28-1.61,0-.17-.02-.29-.14-.42-.03-.3-.1-.61-.18-.9-.22-.86-.6-1.67-1.11-2.39-.12-.22-.33-.49-.49-.7-.06-.08-.18-.19-.23-.25-.01-.02-.04-.02,0-.04.08-.05.47-.13.59-.15.63-.14,1.29-.2,1.94-.23Z"/><path class="cls-79" d="M12.76,7.58c.09-.12.15-.25.18-.38.02-.03.44-.11.36.04-.23.23-.4.48-.51.75.04.06.07.11.06.16-.25.25-.25.41,0,.49-.14.27-.04.31.22.38.04.02.04.08,0,.17.03.06.06.13.08.19l-.18.26c.02.05.02.1,0,.14-.18.1-.31.24-.41.41h-.05c-.06-.11-.13-.23-.21-.34v.03c-.05,0-.09.01-.13.04-.19-.03-.13.12-.1.24.05.21.25.7.36.89-.11.13-.3.18-.36.35-.16-.05-.12-.15-.18-.21-.03-.03-.08-.03-.1-.05-.04-.04-.02-.11-.05-.16-.04-.06-.22-.16-.25-.21-.03-.05.03-.15-.05-.13l-.49.72-.22-.04-.56-.45s.07-.19.08-.27c.04-.24-.11-.25-.19-.44.11.04.23.06.34.09.05.01.11,0,.17,0,.12.02.28.12.41.08-.15.25.3.29.46.27-.06-.03-.11-.1-.17-.14-.03-.02-.09-.02-.1-.02,0,0,.05-.1,0-.18,0-.01-.18-.14-.21-.16s-.11-.04-.12-.05c0,0,.02-.05.01-.09-.01-.05-.2-.21-.25-.24s-.22-.08-.22-.09c-.01-.02,0-.07-.01-.11-.05-.14-.53-.36-.64-.49-.07-.08-.13-.22-.22-.29.07,0,.19-.05.24-.1.02-.02.02-.05.02-.05v-.04c.3-.22.53-.48.7-.79l.04-.02.05-.05.62-.12.03.04s.03.03.04.04c.05.06.08.11.09.15.31.19.64.3.96.1.18,0,.32-.11.41-.31.01-.01.03-.01.05,0Z"/><path class="cls-79" d="M11.43,4.27c-.13.1-.16.09-.11.28s.13.1.27.12c.17.03.53.17.6.33.13.28.12.78-.09,1.01l-.07.02c-.59,0-1.18,0-1.77.02l-.07-.03c-.07.02-.21-.09-.22-.15-.02-.09,0-.18.08-.27.2-.27.34-.6.23-.93.03-.1,0-.19-.07-.28-.06-.09-.05-.15,0-.17h1.2s.03.04.03.04Z"/><path class="cls-70" d="M14.26,2.26v.05c-.14.17-.29.35-.39.55h-.05c-.03.05-.16,0-.15-.06v-.05c.14-.13-.07-.21-.19-.2.03.1.01.16-.05.17-.14.01-.27-.03-.37-.13-.02-.01-.03-.02-.05-.03-.09-.04-.27-.13-.36-.15-.05-.01-.09,0-.13.01-.05.05-.12.03-.13-.04.3-.2.62-.37.96-.53.33-.12.34-.46-.07-.34-.33.1-.64.26-.94.44-.15.09-.28.18-.32.35-.25.01-.54-.06-.76-.17-.19-.04-.39-.06-.59-.09.33-.3.68-.59,1.05-.86.08-.07.06-.1-.07-.08l-.04-.04c0-.07.18-.1.24-.1.21,0,.28.06.14.24.01.06.87.25,1.02.27-.2-.17-.16-.27,0-.44-.15-.07-.45-.3-.12-.29.06,0,.55.07.58.09.05.03.07.06.08.11l.03.31c.25.07.29.23.33.45.19.13.24.28.26.5.06.02.09.05.11.08Z"/><path class="cls-15" d="M9.79,2.24c.06,0,.09.04.11.12l.1.29c.14.07.13.22.11.36l1.02-.18c.08,0,.09.09.01.11-.33.06-.66.13-.99.21,0,0,.05.11.05.06.29-.05,1.34-.14,1.58,0,.22.13.18.5-.12.52-.03,0-.4.04-.34.09l.52-.08.03.04c-.14.21-.26.33-.46.48h-1.24s.12.22.13.26c.01.05-.02.11-.02.17,0,.08.05.15.04.22,0,.06-.05.28-.07.34-.07.23-.27.38-.3.63-.09-.02-.09-.1,0-.24.2-.29.37-.6.28-.96-.02,0-.02-.01,0-.02,0-.07-.03-.13-.07-.2-.03,0-.05-.05-.02-.07-.09-.2-.2-.38-.37-.52-.04.06-.2-.05-.18-.1.38-.43.39-.99.17-1.5v-.03Z"/><path class="cls-70" d="M11.45,1.11s.02.02-.02.04v.03c-.2.14-.39.3-.58.46h-.05c-.14.09-.25.2-.33.34-.65-.07-1.38-.08-2.05-.09-.02-.03.04-.08.07-.07.08-.08.16-.14.24-.17.06-.06.12-.1.17-.11.56-.5,1.26-.66,2-.76.24-.13.75-.12.5.26.04,0,.05.02.05.06Z"/><path class="cls-79" d="M11.88,3.79l-.74.11s.09-.06.14-.09c.02-.01.02-.05.05-.06.17-.08.58,0,.55-.29-.01-.09-.06-.19-.15-.22-.19-.07-.78-.05-1.01-.04-.18.01-.37.04-.55.06-.01-.07-.08-.08-.11-.13.34-.11.7-.14,1.05-.23.02,0,.07,0,.07-.03l-1.11.2c.02-.12.06-.22-.01-.33-.02-.03-.06-.03-.07-.06-.08-.13-.06-.27-.17-.44-.05,0-.12-.1-.07-.13.78.05,1.57.07,2.09.73.28.36.32.55.07.95Z"/><path class="cls-15" d="M12.01,6.67s.19.09.2.11c.12.27-.13.49-.39.49-.2,0-.7-.35-.69.06,0,.05.05.24.07.27l-.7.13-.02-.03c.08-.19.1-.39.1-.6l.03-.02s.05-.01.06.01c.21-.26.69-.71.85-.14.14-.15.3-.24.48-.28Z"/><path class="cls-15" d="M12.1,6.01c-.17.18-.38.24-.63.27-.04.04-.03.07-.03.1v.03c-.27.14-.52.31-.77.48,0,.07-.03.13-.06.16h-.03c-.02-.38-.13-.72-.4-.98v-.04c.64-.02,1.28-.07,1.92-.02Z"/><path class="cls-41" d="M9.46,3.79s.06.09.1.13c.28.11.48.32.58.61.18.52-.02.84-.31,1.26-.05.12-.06.14.07.16.92.61.79,1.87-.07,2.49-.04.12-.31.26-.44.28-.14.02-.44,0-.45-.17.47.17.86-.19,1.14-.52.44-.51.47-1.19.04-1.72-.15-.18-.35-.24-.55-.34.33-.34.58-.75.52-1.24-.04-.36-.44-.75-.81-.75.04-.07.13-.13.17-.2.02,0,.02.01,0,.02Z"/><path class="cls-6" d="M12.12,2.26c.26-.32.67-.53,1.06-.65.3-.04.2.05.01.14-.33.17-.66.35-.98.55.04,0,.05.01.06.05.05-.02.07-.01.07.02.02-.01.04-.01.04,0,.04.01.08.03.13.04.19,0,.37.06.54.17.12.04.25.09.37.13.08-.04.2,0,.24.09.05.02.1.06.15.07.09.02.03.1-.05.09-.28-.1-.57-.18-.86-.26-.04,0-.08.02-.12,0-.2-.04-.46-.1-.62-.21-.02.03-.05.02-.09-.02-.03.06-.1.02-.09-.04,0-.05-.11-.12-.15-.13-.05-.01-.09.05-.17.04-.08,0-.29-.11-.36-.16-.03-.02-.07-.02-.07-.08.25.05.51.12.76.17,0-.06.02-.05.04,0,.02-.02.04-.02.07-.02Z"/><path class="cls-79" d="M11.45,6.38c0,.07.02.25.1.28.11.04.3-.05.46,0-.19.1-.36.22-.51.37-.11-.65-.6-.14-.83.13l-.05-.09s-.02-.01,0-.02c0-.07-.02-.15.03-.2.23-.12.46-.34.68-.45.04-.02.07-.03.12-.03Z"/><path class="cls-57" d="M9.97,5.88c.06.05.15.1.22.15.21.18.33.42.39.69.02.11.01.23.05.33,0,0,0,.01,0,.02,0,.25,0,.41-.11.65-.18.41-.43.57-.74.85-.1.03-.22.13-.32.15-.14.02-.44,0-.52-.13-.01-.02,0-.06-.01-.06h.02c0,.05.14.12.17.13.32.07.5-.06.73-.24.87-.62.98-1.91.06-2.5l-.07-.09c.15-.23.27-.48.38-.73l.03-.02c.01-.14.02-.28.02-.41.06.14.05.31.02.46-.06.24-.24.39-.31.6-.03.08-.04.08.01.13Z"/><path class="cls-49" d="M11.53,7.89c-.06,0-.13-.04-.2-.09-.05-.05-.1-.07-.09-.15.15.15.52.19.73.17.46-.05.7-.51.69-.93-.04-.19-.13-.37-.25-.53.07-.11.13-.22.18-.34l.05-.02s.01-.02.02,0c.02,0,.03.01.03.03-.02.13-.06.2-.13.3.11.25.19.51.25.78.02.15-.3.68-.4.72-.09.03-.32.09-.42.1-.17.03-.31.02-.47-.04Z"/><path class="cls-23" d="M12.65,5.99c-.04.16-.11.22-.19.36.13.17.21.32.21.53-.08-.2-.16-.43-.39-.48.21-.24.33-.55.35-.86,0-.15-.1-.67-.18-.79-.11-.17-.4-.32-.6-.35.05-.06.1-.11.15-.17.05,0,.09.05.12.13.54.31.71,1.07.54,1.64Z"/><path class="cls-72" d="M9.68,2.11c.27.43.35,1.02.06,1.48-.06.09-.11.17-.14.25.43.26.72.73.63,1.26-.03.11-.09.22-.14.33-.03.06-.23.36-.23.38,0,.08.3.28.37.37.21.25.3.45.33.78.05.69-.19,1.07-.72,1.47.3-.32.63-.64.67-1.1.04-.38-.06-.74-.28-1.04-.12-.17-.27-.35-.5-.32.11-.29.43-.57.46-.88.04-.41-.08-.83-.45-1.06-.08-.05-.36-.1-.27-.24.43-.43.49-1.13.12-1.64-.01-.04.01-.06.05-.04.01,0,.03,0,.04,0Z"/><path class="cls-43" d="M9.73,2.11c-.01.07.04.1.07.13.1.31.2.62.15.95-.03.2-.18.43-.3.59.04.05.1.06.15.1.17.14.29.32.37.52,0,.02.02.05.02.07.03.06.07.13.07.2,0,0,0,.01,0,.02,0,.14.01.28-.02.41.05-.45-.11-.87-.5-1.13-.06-.04-.16-.04-.17-.13,0-.07.06-.07.08-.11.3-.48.35-.9.14-1.44-.03-.06-.1-.1-.09-.18.01,0,.03,0,.04,0Z"/><path class="cls-78" d="M12.32,3.94s-.01.07-.04.07c-.06.1-.1.2-.12.3.47.23.61.86.58,1.35.03.09,0,.25-.07.33h-.02c.11-.51.02-1.13-.37-1.49-.09-.08-.24-.14-.28-.27.15-.19.28-.37.37-.59.05.02.06.08.02.15l-.07.15Z"/><path class="cls-54" d="M9.64,2.11s0,.06.02.08c.19.35.27.81.12,1.18-.06.15-.16.37-.32.41v-.02c.2-.26.37-.68.35-1.01-.02-.24-.19-.5-.37-.66.06-.04.16,0,.2.01Z"/><path class="cls-5" d="M11.99,2.44s.06.04.09.04c.11.11.21.29.28.44.17.35.25.73-.04,1.02,0-.06.04-.12.05-.18,0-.05-.01-.09,0-.13.01-.09.05-.21.04-.29,0-.38-.33-.76-.65-.93,0-.04.04-.02.07-.01.05.01.13.02.17.03Z"/><path class="cls-50" d="M10.62,2.02s-.11-.04-.13-.04c.31-.31.68-.61,1.05-.85.03-.1.2,0,.11.09-.34.27-.68.54-1.02.81Z"/><path class="cls-34" d="M11.6,1.04c.17,0,.29-.02.14.15l-1.08.83s-.03,0-.04,0c.3-.33.7-.56,1.02-.86-.03-.04-.07-.03-.11-.03,0,.05-.08.07-.11.02,0-.01.01-.04.02-.04-.03-.07.12-.13.15-.07Z"/><path class="cls-33" d="M10.79,1.63v.05s-.31.3-.31.3c0,0-.01,0-.02,0l.03-.13.29-.22Z"/><path class="cls-14" d="M16.05,1.61c.68.47,1.31,1.04,2,1.52,1,.7,2.07,1.41,3.34,1.4l-.47.11c-.86.17-1.66-.06-2.49-.24v-.03c.21-.05.41-.1.58-.21.06-.05.07-.13.03-.22-.05-.1-.17-.09-.26-.07,0,.02,0,.02-.02,0-.27.12-.55.18-.84.23-.08.05-.17.09-.25.12-.28-.06-.55-.13-.83-.22-.1.03-.2,0-.26-.09,0-.04.04-.06.13-.07.14-.06.85-.37.48-.53-.23-.1-.9.24-1.06.43h-.03c-.08.01-.17,0-.25-.05-.21-.07-.46-.17-.62-.3.23-.18.46-.39.69-.61.23-.43-.41,0-.51.11v.05c-.14.09-.27.22-.35.37l-.04.02h-.11c-.25-.08-.49-.17-.72-.31-.04.05-.14,0-.13-.07v-.04c.05-.03.58-.73.52-.79-.06,0-.12,0-.17.02.03.06-.08.15-.13.11-.24,0-.14-.14-.19-.3-.06-.18-.18-.19-.22-.26s-.02-.19-.08-.29-.22-.13-.24-.15c-.05-.07.02-.36-.09-.41-.08-.01-.64-.12-.66-.09,0,0,0,.05.01.07.04.04.26.16.27.19-.03.09-.15.12-.15.22,0,.14.22.2.18.27,0,.01-.21-.03-.24-.04-.19-.04-.71-.15-.86-.23s.15-.19-.04-.25c-.08-.02-.27.03-.35.06-.04.01-.13.04-.15.07l-.15-.05c.11-.06.21-.2.06-.27-.18-.09-.24,0-.41.03-.55.12-1.11.16-1.6.45-.15.09-.28.22-.44.29.01-.05.06-.09.13-.13-.03-.03-.02-.04.02-.02.51-.35,1.16-.76,1.79-.68.11-.05.22-.09.34-.12.33.14.64.11,1,.04,1.21-.03,2.43.37,3.52.86.11.02.2.06.28.13h.06Z"/><path class="cls-17" d="M14.54.82l-.06.04c-.43-.09-.87-.19-1.3-.29-.67-.07-1.33-.11-2-.12-.27.05-.54.12-.8.2-.27.09-.53.2-.78.32-.06-.02-.05-.04,0-.08,1.11-.58,2.53-.7,3.75-.45.4.09.83.21,1.2.38Z"/><path class="cls-45" d="M14.11.87l1.33.41c.12.07.24.12.35.16.09.06.17.11.26.17-.05.1-.13-.01-.18-.03-.36-.14-.72-.31-1.08-.44-.7-.25-1.61-.48-2.35-.49-.26,0-.59.09-.85.09-.11,0-.37-.11-.41-.11-.1,0-.25.12-.35.12-.15,0-.27-.06-.43-.02-.42.1-1,.4-1.34.65,0-.02,0-.04.02-.05.49-.39,1.19-.66,1.79-.78.27-.06.39-.04.66.02.87-.02,1.76-.02,2.59.29Z"/><path class="cls-39" d="M15.04,1.04c.09,0,.3.15.39.2h-.07c-.42-.12-.84-.24-1.26-.37-.59-.15-1.18-.27-1.8-.29-.3,0-.63.06-.94.02-.09,0-.14-.07-.22-.07-.18,0-.49.09-.67.14-.5.14-1.04.38-1.43.71,0,0-.02.02-.02.02l-.31.24c-.08.06-.15.13-.24.17.11-.15.25-.28.41-.39-.01-.06.02-.08.07-.04.03-.02.05-.05.05-.08.32-.25.68-.4,1.06-.55.1-.04.2-.07.31-.09.14-.06.31-.11.46-.15.31-.08.49-.09.82-.02.5,0,.99.01,1.48.06.64.14,1.27.3,1.9.48Z"/><path class="cls-60" d="M14.54.82c.13,0,.38.16.5.22-.52-.04-1.23-.33-1.8-.43-.66-.11-1.26-.02-1.87-.09-.06,0-.1-.05-.17-.05-.17,0-.63.14-.82.2-.02,0-.02-.01,0-.02.22-.07.72-.24.92-.23.61.03,1.22,0,1.83.11.43.07,1.02.28,1.41.3Z"/><path class="cls-67" d="M8.98,1.28c.11-.03.04.06-.02.11-.02.02-.04.03-.07.04-.18.14-.36.3-.52.46-.05,0-.09,0-.14,0-.02,0-.07.01-.04-.02.24-.23.52-.4.8-.59Z"/><path class="cls-30" d="M10.38.65v.02c-.56.17-.95.39-1.42.72.02-.03.07-.09.02-.11.2-.14.39-.28.61-.39-.01.06.02.05.07.03.12-.04.27-.13.39-.17.11-.04.22-.06.33-.1Z"/><path class="cls-18" d="M15.44,1.24c.11.03.25.13.35.2-.05.09-.17-.05-.22-.07-.14-.06-.31-.12-.46-.18-.33-.12-.67-.19-1-.32.45.11.9.27,1.33.37Z"/><path class="cls-30" d="M8.9,1.43c-.14.13-.29.25-.41.39-.02.02-.07.03-.07.07-.01,0-.03,0-.04,0,.12-.13.27-.3.42-.4.04-.03.09-.04.11-.06Z"/><path class="cls-15" d="M26.77,3.33c-.14.25-.2.52-.31.78-.2.3-.39.62-.58.93-.43.7-.56.86-1.2,1.37-.1.08-.31.18-.37.3l-.03.02c-.39-.04-.52.02-.04.21.53.13,1.07.31,1.55.58.41.41.97.6,1.51.79,0-.02.01-.02.02,0-.64.38-1.73.68-2.47.61-1.18-.11-2.23-.47-3.36-.72-.74-.16-1.5.25-2.19.46-.33.14-.67.23-1.03.26-.3-.11-.07-.24.1-.33-.06.01-.36.06-.36-.03,0-.19.95-.61,1.16-.65l.65-.19c-.03-.12-.11-.12-.23-.08-.36.14-.73.21-1.11.21l-2.21.93c.06.13.11.26.16.39l.61-.38c.13-.08.29-.07.32.11.09-.04.2-.06.23.05.05,0,.09.02.1.07.06,0,.08,0,.13.05.02.03.1.22.04.24-.32.17-.63.39-.94.59-.13.08-.26.16-.39.24l-.44.31c-.34.25-.71.5-1.07.72-.11,0-.21-.01-.32-.07l-.81.68c-.06.05-.13.09-.2.11-.11-.1-.28-.25-.31-.39.02-.04.05-.08.09-.11.32-.18.63-.37.94-.57.38-.25.76-.51,1.04-.87.06-.21.24-.31.43-.41.01,0-.07-.04-.07-.04-.65.33-1.29.68-1.92,1.03l-.7.64c.05.09.12.18.2.27v.05s-.03.04-.05.02c-.2-.14-.61-.77-.72-.98s-.22-.46-.31-.68c.13.02.16.36.24.31,0,0,.07-.14.11-.19.06-.06.28-.19.3-.23.01-.03-.04-.06-.03-.11.02-.07.18-.26.19-.27,0-.04-.17-.16-.02-.29-.25-.07-.48-.13-.26-.41-.1,0-.23-.09-.22-.21,0-.06.22-.31.22-.33,0,0-.07-.06-.08-.12-.03-.17.42-.66.54-.81-.05,0-.31.03-.32.05,0,.01,0,.07-.01.11-.03.07-.13.17-.18.24-.02,0-.03-.02-.03-.03.1-.19.16-.3.12-.53-.04-.19-.12-.42-.2-.59-.04.02-.05-.01-.02-.04.03-.04.18-.04.23-.02.13.05.17.3.18.44.18-.12.42-.25.52.03.19-.17.36-.32.58-.45.09-.05.24-.11.32-.02.09,0,.08.2.05.26-.11.27-.7.38-.97.42-.12.01-.14.12-.05.33l-.04.04.04.04c.05-.03.07-.01.04.04.12.04.13.24.13.36.41-.35.65.18.43.51l-.36.44s.05.08.03.1c1.98-.97,4.11-1.58,6.23-2.15.13-.1.28-.17.44-.19-.06-.05-.09-.12-.09-.21l-2.47.27c-.04-.05-.05-.07.02-.09.64-.18,1.29-.37,1.93-.56.27-.07.6-.13.87-.04.02,0,.26-.23.25-.24,0,0-.08-.07-.09-.08-.88-.36.31-.77.7-.9.15-.04.33-.11.48-.15h.05c.16.34.16.68-.24.8.1.18.13.48-.1.52l-.52.05c-.03.08-.07.12-.16.14,0,.13-.1.17-.22.19.04.09.07.18.06.27,0,0,.1.04.11.05.37.11.68.14,1.06.17.2.02.3-.04.47-.16.15-.05.31-.08.48-.1.23-.27.47-.53.73-.76l.05-.05c.2-.1.41-.19.61-.29-.14.09-.29.14-.44.15-.04-.03-.02-.07.05-.12-.04-.07-.04-.11,0-.19.04-.1.44-.42.54-.49.16-.12.32-.24.5-.33l.11-.26c-.04-.15.46-.22.48-.21.03.03.04.03.01.08l-.33.21h.07s.42-.32.42-.32c.17-.02.28-.09.34-.22.15-.08.31-.17.47-.24,0-.05.13-.12.17-.09Z"/><path class="cls-79" d="M17.86,9.3s-.08-.23-.09-.24c-.02-.01-.06,0-.09,0s-.03-.05-.04-.06c-.02-.01-.06,0-.08,0-.01,0,0-.07-.04-.08-.07-.02-.17.05-.18.04-.03-.02.01-.18-.14-.17-.14,0-.78.49-.81.46,0-.04,0-.08,0-.11s-.1-.29-.11-.3c-.03-.04-.1,0-.1-.04l2.33-.98c.25.03.51-.03.75-.1.1-.03.46-.16.52-.14.03.01.16.14.11.17-.05.03-.38.11-.47.14-.48.15-.99.31-1.36.67.18.04.37-.03.54-.05-.13.12-.33.16-.44.3h.09s-.02.07-.02.07c.37-.03.73-.11,1.09-.22-.47.23-.98.41-1.44.65Z"/><path class="cls-32" d="M24.35,6.84c.43.04.87.22,1.26.4.61.29,1.22.63,1.74,1.06-.01,0-.04,0-.04,0h-.02c-.12-.02-.22-.07-.31-.13-.25-.11-.49-.23-.73-.37-.23-.26-.46-.37-.78-.51-.36-.15-.75-.29-1.13-.38-.04-.02-.04-.06,0-.08Z"/><path class="cls-31" d="M24.31,6.71s-.02.03-.02.04l-.02.04c-.23-.03-.19.02.12.13.51.13,1.06.31,1.52.56.11.06.17.14.24.23.27.17.56.32.85.45.1.05.2.09.31.13-.34-.07-.7-.23-1.01-.37s-.41-.32-.65-.46c-.28-.16-.93-.41-1.25-.47-.15-.03-.29-.05-.44-.15-.06-.04-.11-.07-.04-.14s.31,0,.4,0Z"/><path class="cls-1" d="M24.28,6.75c-.02.13.03.07.07.09,0,0,.01.05.02.06.02.01.09,0,.13.01.38.12,1.13.39,1.46.58.13.08.22.2.33.28.19.14.49.28.69.39-.09-.02-.21-.07-.29-.11-.05-.03-.09-.07-.13-.09-.14-.07-.38-.11-.48-.24-.14-.18-.12-.18-.35-.29-.45-.21-.9-.37-1.37-.49-.04-.01-.41-.12-.32-.21h.24Z"/><path class="cls-28" d="M10.21,13.12c-.17.71-.47,1.4-.5,2.14-.12-.05-.23-.11-.36-.15-.26-.08-1.01-.19-1.25-.11-.08,0-.03-.01-.01-.04.4-.57.52-1.13.42-1.83.56.03,1.14.04,1.7,0Z"/><path class="cls-51" d="M13.65,11.92s-.13.1-.15.09c0-.03-.01-.05-.03-.07-.51-.54-.98-.98-1.16-1.74-.01-.04-.04-.14,0-.18h.03c.29.74.74,1.34,1.32,1.9Z"/><path class="cls-79" d="M15.02,11.16c-.39.24-.8.47-1.2.7-.02.01-.07.03-.11.04-.03,0-.04,0-.02-.02l1.02-.85c.09.08.21.07.31.13Z"/><path class="cls-68" d="M12.3,9.85c.15.25.24.53.39.77.06.11.17.21.24.31.08.12.3.54.44.55,0-.02.01-.02.02,0,.09.14.2.27.31.39,0,0,.02.01.02.02-.01,0-.03.01-.04.02-.54-.5-1.02-1.04-1.27-1.75-.05-.16-.12-.24-.21-.24,0,0-.02-.02-.02-.02,0-.07.07-.08.13-.07Z"/><path class="cls-40" d="M13.67,11.92s-.02,0-.02,0c-.41-.37-.78-.77-1.05-1.25-.11-.2-.18-.47-.3-.65-.01-.02-.01-.05-.03-.06-.01,0-.06-.02-.08-.03l.09-.03c.17.27.27.59.44.87.09.14.25.36.35.5.19.23.43.41.6.65Z"/><path class="cls-14" d="M4.95,2.76c.17.24.32.49.46.75,1.01,1.77,1.75,3.72.74,5.68-.61.58-1.2,1.18-1.78,1.8-.14.14-.3.24-.47.32-.03.05-.06.07-.1.07-.71-.42-2.16-1.22-2.66-1.81.05-.05.08-.11.09-.19l.11-.17c-.01-.35.33-.63.58-.83.07-.03.1-.06.09-.1,0-.02,0-.08,0-.09-.03-.03-.26.02-.31.02-.12,0-.24,0-.36,0-.33,0-.48-.09-.75-.24-.15-.16-.23-.27-.28-.48.14-.37.27-.75.4-1.13.21-.39.48-.75.75-1.09.18-.1.31-.2.45-.35.2-.26.44-.48.71-.66.19-.19.43-.38.67-.54.5-.32,1.02-.65,1.51-.95.06-.05.11-.06.15-.04Z"/><path class="cls-20" d="M4.87,2.63c-.12.04-.25.1-.37.17-.67.39-1.26.78-1.9,1.22-.04.03-.07.05-.12.04-.47.34-.91.71-1.3,1.15-.03.03-.05,0-.05-.03.18-.24.35-.46.57-.68.25-.25.55-.51.83-.73.67-.52,1.42-.93,2.22-1.23.08-.02.1.04.14.08Z"/><path class="cls-27" d="M6.78,8c-.04.35-.09.38-.21.69-.07.17-.1.36-.16.53-.03.09-.41.8-.45.85-.02.03-.07.02-.1.04-.12.08-.22.41-.31.54-.08.12-.23.25-.32.37-.11.14-.19.31-.31.43-.09.09-.09.04-.19.08-.2.07-.16.15-.13.34-.01.01-.3-.16-.28-.17.17-.02.24-.17.35-.28.08-.09.18-.2.26-.27.28-.26.61-.62.82-.95.31-.49.63-1.12.77-1.67.01-.05.04-.3.05-.31,0,0,.06,0,.11-.03.06-.05.05-.14.11-.19Z"/><path class="cls-42" d="M4.87,2.65s.01.01.02.02l-.06.06c-.56.31-1.11.65-1.64,1.01-.06.02-.12.06-.17.1-.56.47-1.12.93-1.67,1.41-.43.59-.79,1.21-.98,1.92-.02.05-.05.1-.1.04,0-.3.09-.55.17-.83l.06-.06c.24-.41.52-.83.83-1.2.78-.76,1.67-1.44,2.61-2.01.28-.17.56-.33.86-.46.02,0,.05-.02.07,0Z"/><path class="cls-26" d="M4.87,2.63s0,.02,0,.02c-.04,0-.07.02-.11.04-.72.39-1.47.85-2.12,1.34-.35.26-.65.55-.98.83-.49.4-.68.83-1.04,1.34-.03.05-.09.26-.17.19.02-.05.02-.14.04-.2.01-.03.03-.08.04-.11l.2-.23c.42-.73,1.09-1.28,1.74-1.77.7-.46,1.35-.99,2.13-1.35.08-.04.18-.09.27-.09Z"/><path class="cls-75" d="M6.15,9.19c-.09.17-.2.36-.31.52-.21.19-.43.38-.67.56-.32.34-.64.67-1,.97l-.19.11s-.07.07-.11.07c-.02-.01-.05-.02-.09-.04.05-.15.18-.14.28-.21.22-.14.54-.52.72-.72.31-.33.65-.65.98-.96.12-.11.21-.26.37-.31Z"/><path class="cls-56" d="M4.93,2.72s.02.03.02.04c-.11,0-.18.1-.27.16-.49.31-1,.61-1.49.93-.19.12-.39.35-.58.44-.03.02-.04.02-.04,0,0-.03.02-.06.07-.09-.02-.03.01-.06.04-.04.67-.55,1.43-1.07,2.21-1.45l.04.02Z"/><path class="cls-53" d="M4.93,2.72c-.21.07-.44.22-.63.34-.4.25-.8.52-1.19.78-.14.1-.28.24-.43.32.12-.16.32-.31.5-.41.54-.4,1.1-.77,1.7-1.07.01.01.03.02.04.04Z"/><path class="cls-24" d="M4.12,11.59s-.02-.02-.01-.03c.03-.17.76-.83.94-.92.15-.18.31-.37.49-.52,0,0,.02,0,.04,0-.1.17-.23.33-.35.49-.19.24-.4.5-.61.72-.05.05-.31.33-.35.35-.06.03-.12-.06-.15-.08Z"/><path class="cls-8" d="M6.98,6.75c.06,0,.15.16.15.21.04.27-.02.76-.06,1.03-.05.37-.19.64-.27,1.01,0,.03.02.07,0,.12-.02.1-.15.53-.2.63-.08.17-.16.13-.24.22-.04.05-.1.17-.14.23-.02.03-.02.06-.06.05,0-.01-.01-.02,0-.03.08-.2.23-.41.38-.57l.13-.25s-.02-.02-.02-.02c0-.09.04-.27.06-.36.18-.6.34-1.17.33-1.8,0-.13-.01-.28-.07-.39,0-.02,0-.04,0-.07Z"/><path class="cls-37" d="M5.85,9.72c-.04.07-.09.13-.13.2-.23.22-.46.44-.69.67h-.03c-.33.31-.66.62-.97.93h-.05s-.07-.07-.09-.08c.03-.12.19-.16.28-.23.4-.3.62-.61.96-.94.19-.19.45-.35.64-.53.02-.02.05-.02.08-.02Z"/><path class="cls-63" d="M6.67,9.39c-.07.18-.17.32-.31.41-.03-.02-.03-.04,0-.08.16-.18.24-.38.27-.59.31-.75.43-1.51.35-2.31.04.01.05.05.06.08.09.28.05.66,0,.95-.06.43-.25.77-.29,1.19,0,.07-.06.26-.08.34Z"/><path class="cls-82" d="M5.72,9.91s-.03.04-.04.07c-.22.22-.43.44-.64.68h-.03c-.33.25-.66.55-.9.9h-.03s-.08-.02-.11-.03c0,0,0-.01,0-.02l1.74-1.59Z"/><path class="cls-52" d="M6.37,9.8c-.02.09-.21.48-.3.5-.05,0-.06-.01-.05-.06.22-.35.45-.73.61-1.11.07.02,0,.22,0,.27-.06.16-.22.23-.25.41Z"/><path class="cls-65" d="M5.58,10.11c-.1.11-.23.21-.34.33-.06.07-.2.27-.26.31-.04.03-.07,0-.11.02-.07.04-.46.45-.53.54-.08.08-.16.2-.22.29-.01,0-.03-.01-.04-.02,0-.04.02-.07.04-.1.25-.31.62-.58.88-.88l.02.04c.2-.23.4-.46.64-.65-.03.05-.03.07-.09.13Z"/><path class="cls-19" d="M6.17,10.24c-.05.08-.12.18-.24.15.03-.05.06-.1.09-.15.04.03.05.02.09,0,.13-.1.17-.31.26-.43.03-.03.1-.07.13-.12.06-.09.1-.21.17-.29-.07.26-.15.27-.29.46-.08.11-.14.27-.21.39Z"/><path class="cls-79" d="M15.72,3.79c.1-.03.26.04.31.13.49.27.35,1.14-.27,1.1-.16,0-.02.42.14.35.22-.1.39-.04.56.1s.19.2.12.42c-.13.42-.34.43-.73.37-.16,0-.18.11-.07.34l-.03.04c.03.18.34.2.49.19l.36-.06s.08-.09.11-.04l.2-.06.87-.09c-.01-.13-.06-.47-.18-.54-.13-.02-.26-.02-.4.01-.07,0-.04-.2-.01-.23.04-.04.66.04.77.05l.07.04c.02.1.04.18.13.22.08,0,.15-.03.22-.05l.04.03s.07-.07.1-.11h.03c.17-.29.09-.71,0-1.02-.09-.09-.17-.2-.25-.32-.05.04-.1-.02-.04-.07,1.22.26,2.06.42,3.31.11-.26.15-.56.23-.8.4-.26.18-.22.26.03.43.03.02.07.01.09.03.04.02.09.12.18.1l-.35.32c-.25-.12-.55-.04-.81.02-.7.14-1.35.45-2.04.58l2.57-.28c0,.05-.04.1-.02.16.02.07.19.13.03.15-.19.02-.27.08-.43.19-2.13.57-4.25,1.2-6.24,2.15-.02-.04-.08-.1-.07-.14,0-.04.32-.38.38-.47.03-.06.08-.16.08-.22,0-.03-.09-.26-.11-.28-.12-.14-.41.17-.44.14.05-.15,0-.33-.07-.46.08-.05.28-.07.38-.06l.05.04c.07-.02.13-.02.17,0,.82-.1,1.28-1.15.55-1.66l.07-.38c.04-.26.06-.47-.08-.71-.08,0-.05-.09-.02-.15.21-.35.14-.76-.04-1.11l.02-.07c.37.06.74.22,1.07.39Z"/><path class="cls-79" d="M26.59,3.42c-.07.12-.36.17-.44.25-.03.03-.02.08-.05.12-.05.06-.19.08-.26.11-.11.06-.39.32-.47.34-.05.02-.15,0-.2,0l.46-.29c-.05,0-.32.02-.35.03-.1.07-.18.4-.22.44-.03.02-.18.1-.24.14-.13.09-.27.2-.4.3-.08.07-.34.28-.38.36-.06.11.02.15.02.18,0,.02-.09.08-.1.12-.08.08-.19.14-.32.17l-.88.25c.3-.03.6-.13.88-.23h.1c0,.05-.03.07-.05.1-.21.24-.43.47-.64.71-.09.06-.27.03-.39.07-.22.07-.23.22-.53.21-.38-.01-.76-.06-1.13-.18-.03,0-.03-.08-.15-.02.05-.11-.02-.27-.07-.37.05,0,.16-.03.2-.06.05-.04.03-.12.05-.14,0-.01.08-.01.12-.05.03-.03.03-.08.03-.08.05-.04.57-.02.67-.09-.01-.07.05-.13.05-.18,0-.07-.11-.26-.09-.29.09-.04.24-.09.29-.18,0-.02.06-.17.06-.18.02-.11-.1-.29-.11-.4,0,0,.02,0,.02,0,.12-.04.25-.09.37-.13.03.03.07.05.12.05,1.03-.23,2.07-.44,3.13-.64.1-.04.19-.06.27-.05.05-.08.11-.15.18-.2l.44-.18h.03Z"/><path class="cls-15" d="M16.72,4.18s.08.04.13.05c.39.11.73.13,1.04.4.25.22.36.35.34.7h-.08c-.44-.13-.9-.26-1.33-.37-.03.06-.09.01-.07-.04-.06-.02-.07-.16,0-.16-.06,0-.04-.34-.03-.36,0,0,.02-.01.03-.01-.06,0-.12-.18-.07-.21,0-.06.02-.05.04,0Z"/><path class="cls-15" d="M16.94,5.07c.09-.02.17.12.21.2.06.11.08.22.08.34l.92-.12.03.04c-.07.18-.22.19-.17.39-.24,0-.47-.05-.71-.07-.14,0-.14,0-.14.15.02.02.39-.08.5.03.08.08.17.46.16.58l-1.11.11s0-.04.01-.05c.21-.14.25-.22.34-.47.13-.37.11-.77-.12-1.1v-.04Z"/><path class="cls-79" d="M18.23,5.34c0,.07-.02.13-.04.2l-1,.13c.04-.24-.07-.43-.24-.59-.04.01-.08-.02-.13-.09-.02,0-.02-.01,0-.02,0,0,.02-.03.07-.02.46.11.91.23,1.35.39Z"/><path d="M15,3.33s.05-.06.07,0c.05-.04.08-.02.07.04.02-.02.04-.02.04,0,.04,0,.05,0,.04.02.29.11.57.25.87.35.04-.04.05-.04.04.02.03-.02.06-.03.08-.02.06-.12.71-.41.77-.37.01.01.02.02.02.04.05.06-.02.13-.21.2l-.38.2v.06s.04-.01.05,0c.07,0,.1.02.11.04.09.03.17.06.26.09l.07.08c-.06.02-.05.02-.02.08l-.15.02s-.03,0-.04,0c-.04.04-.05.03-.04-.02-.08-.06-.15-.07-.19-.03-.16-.03-.3-.1-.43-.21-.1-.04-.2-.09-.31-.13-.3-.16-.63-.29-.97-.4-.11-.04-.21-.09-.32-.14-.07-.03-.27-.15-.26-.22.26.11.56.2.83.31Z"/><path class="cls-21" d="M18.25,4.38s-.09-.02-.09-.04c.18-.12.43-.15.59-.31-.19,0-.41.1-.58.19-.04.02-.08.08-.11.09-.06.02-.16-.03-.22-.04-.09-.09.13-.16.22-.17.25-.02.49-.08.71-.19.13-.06.35.04.28.19s-.63.29-.8.28Z"/><path class="cls-75" d="M19.03,3.94c.05.08.11.17,0,.25-.06.05-.25.13-.34.15s-.19.02-.27.06c-.05-.01-.12-.01-.17-.02.15-.03.78-.18.78-.36,0-.04-.07-.1-.11-.11-.08-.02-.48.15-.61.18-.15.03-.47,0-.48.18-.04,0-.07-.01-.11-.02,0-.09.17-.14.25-.16.27-.02.52-.11.77-.21,0,0,.01,0,.02,0,.09-.03.22-.03.26.07Z"/><path class="cls-52" d="M18.25,4.59s.03.05.04.07c.31.35.46.92.24,1.35-.05.07-.05.07-.13.11v-.06c.07-.18.12-.37.13-.57-.02-.41-.15-.74-.52-.94,0-.04.04-.02.07-.01.06.01.13.05.17.06Z"/><path class="cls-44" d="M18.4,6.12c-.11.05-.15.06-.26.02.24-.13.34-.4.39-.65,0,.22,0,.45-.13.63Z"/><path class="cls-75" d="M18.75,3.88s-.08.06-.11.07c-.05.02-.16.06-.21.07-.24.07-.53.04-.7.22-.03,0-.05-.02-.07-.02.07-.05.16-.11.24-.14.11-.03.22-.02.31-.04.17-.04.33-.15.54-.17Z"/><path class="cls-22" d="M24.09,3.92c.36-.1.74-.17,1.11-.28.61-.18,1.18-.47,1.8-.59.07,0,.02.02,0,.04-.03.03-.09.06-.12.09-.82.46-1.72.76-2.64.88-.1.04-.27-.06-.15-.14Z"/><path class="cls-61" d="M26.81,3.24s-.03.06-.04.09l-.17.09c-.11.06-.41.14-.48.21-.02.02-.12.19-.16.2-.01,0-.04-.02-.07-.01-.98.25-1.99.38-2.97.6-.14.03-.28.12-.43.09-.06-.01-.06-.04-.05-.09.25-.08.51-.16.76-.24l.04.02c.88-.11,1.77-.25,2.61-.51.3-.17.61-.33.94-.46h.02Z"/><path class="cls-73" d="M26.88,3.18s-.06.06-.07.07c-.11.04-.21.12-.32.17-.12.06-.29.09-.39.15-.15.09-.15.16-.37.22-.29.08-.62.12-.91.18-.5.11-1.07.24-1.58.27-.07,0-.04.01-.04-.06.3-.09.59-.18.89-.26-.04.15.22.12.31.11.23-.03.71-.17.96-.24.42-.11.78-.29,1.17-.46.11-.05.23-.11.35-.14Z"/><path class="cls-75" d="M2.01,8.3s.02.01.02.03c0,.07-.21.17-.27.23-.15.13-.34.35-.38.54,0,.04.02.07,0,.13-.02.06-.09.13-.12.19s0,.18-.13.17c-.04-.04-.05-.05-.09-.11.08-.08.13-.17.14-.28.05-.04.07-.09.07-.15.16-.25.36-.56.64-.68.05-.01.08,0,.11-.07Z"/><path class="cls-66" d="M1.68,8.41s.04.04.02.08c-.21.23-.39.44-.51.73,0,.1-.04.21-.16.19-.02-.03-.04-.03-.07-.11.08-.05.13-.13.12-.26.08-.22.29-.45.47-.59.05-.02.07-.03.13-.04Z"/><path class="cls-48" d="M1.9,8.37c-.24.21-.46.41-.6.7-.01.03,0,.07-.02.1,0,.01-.07.05-.08.07-.02.08-.02.25-.15.25-.01-.02-.01-.05-.02-.07.01-.05.12-.07.13-.09.01-.03,0-.09,0-.13.05-.23.33-.48.47-.68.02-.03.04-.06.05-.09.07-.02.15-.03.22-.04Z"/><path class="cls-58" d="M1.55,8.45c-.07.07-.12.17-.17.25-.08.1-.19.18-.24.31-.04.11,0,.34-.18.29-.03-.09-.03-.16-.02-.26h.05c.1-.21.2-.39.41-.52.07-.03.08-.04.15-.07Z"/><path class="cls-64" d="M1.4,8.52c-.07.1-.17.19-.24.29s-.09.25-.2.32c.02-.03-.02-.08-.02-.09,0-.27.25-.42.46-.52Z"/><path class="cls-79" d="M16.53,10.13c-.14.11-.28.23-.44.31.16-.12.26-.19.44-.31Z"/><path class="cls-38" d="M2.47,4.07l-.36.35c-.37.21-.68.53-.95.86-.17.21-.33.53-.5.71-.03.03-.09.07-.13.08.14-.32.38-.62.59-.89.02.03.1-.04.11-.05.03-.03.06-.07.1-.1.13-.13.27-.29.41-.43.3-.31.4-.31.73-.53Z"/><path class="cls-56" d="M2.62,4.29c-.08.1-.2.15-.29.24-.19.17-.41.51-.6.64-.07.05-.16.06-.24.13-.11.09-.63.86-.7,1-.17.35-.23.78-.41,1.14-.02.03-.03.06-.07.08-.01-.05-.01-.06-.02-.11.02-.11.05-.22.11-.33.11-.41.25-.74.47-1.1.01-.02.03-.02.05-.02l.2-.33c.03-.06.06-.08.1-.09.16-.24.37-.44.62-.61.14-.15.29-.3.45-.43.03-.09.19-.2.28-.22,0,0,.03,0,.04,0Z"/><path class="cls-80" d="M3.19,3.74c-.17.13-.35.26-.5.41-.01.01-.03.02-.04.04-.13.11-.27.21-.41.31.02,0,.02.01,0,.02l-.11.09s.01.05-.02.04c-.04.04-.09.08-.13.11l-.09.07v.04c-.44.29-.71.65-.96,1.1-.08.14-.2.3-.26.43-.14.32-.19.7-.37,1.01-.01-.07-.02-.11-.02-.2.04,0,.09-.1.1-.13.11-.27.16-.56.31-.82.13-.23.59-1,.77-1.12.45-.31.9-.77,1.36-1.13.12-.09.24-.24.38-.26Z"/><path class="cls-79" d="M12.49,11.88s.04-.02.05,0c.17.15.31.3.46.48.08.06.13.12.14.19.02.11.23.29.25.37,0,.04-.04.04-.06.07l-.08-.03c.22.22.44.44.65.66-.13.06-.68.66-.8.57-.02-.01-.12-.31-.15-.36,0-.02.2,0,.22-.05.02-.04.05-.17.04-.21,0-.09-.09-.17-.09-.27.04-.01.06,0,.08.03-.09-.16-.14-.2-.15-.12-.23-.24-.41-.52-.6-.78-.01-.04.22-.23-.05-.34-.03-.01-.09,0-.11-.01,0,0-.02-.1-.09-.12,0-.01.13-.11.15-.12.03,0,.05.04.09.06.02,0,.04,0,.05,0Z"/><path class="cls-12" d="M12.49,11.88l-.05-.13c.48.35.87.81,1.3,1.21.09.09.51.41.54.48.01.03.01.07-.03.05l-1.1-.96c-.22-.15-.45-.53-.65-.65Z"/><path class="cls-79" d="M9.88,9.48l-.12.39-.43-.44c.18.05.37.12.54.04Z"/><path class="cls-12" d="M13.91,13.6c-.33-.26-.8-.73-1.06-1.07-.01-.02-.06-.04-.02-.07.18.16.34.33.51.5.23.23.44.46.68.69-.03.03-.08-.04-.11-.05Z"/><path class="cls-12" d="M13.13,13.73s-.05-.03-.05-.04c-.32-.53-.62-1.07-.88-1.64l.94,1.68Z"/><path class="cls-12" d="M13.06,13.18c-.07-.1-.38-.58-.39-.66,0-.01,0-.04.01-.03.25.38.52.75.8,1.12,0,.05,0,.04-.03.01-.11-.11-.2-.25-.32-.35,0-.05-.05-.07-.07-.09Z"/><path class="cls-36" d="M12.76,7.58c-.05.07-.2.29-.26.32-.05.02-.11,0-.17.02-.08.02-.15.1-.25.12-.2.03-.58-.1-.73-.24.07.02.13.06.2.09.13.04.27.07.41.05.09-.01.4-.09.48-.12.12-.05.4-.55.4-.69-.04-.22-.11-.46-.19-.67l.02-.03c.13.2.23.58.24.82,0,.14-.1.21-.13.33Z"/><path class="cls-12" d="M14.48,2.24c-.19.21-.36.44-.52.68.06-.02.09,0,.09.04.04.02.09.05.13.07l.28.19c.38.17.78.29,1.16.48.04.02.12.05.11.1-.35-.13-.72-.25-1.07-.39-.05.03-.12.01-.2-.04.5.44.44,1.01-.04,1.45.36.23.37.66.17,1.01.33.2.42.53.36.9-.07.46-.54.71-.97.76-.14,0-.29.04-.44.02,0-.01-.03-.03-.04-.04-.04,0-.05-.02-.04-.04,0-.09-.11-.28-.05-.36.04-.06.28-.07.37-.09.14-.04.61-.18.67-.31.04-.08.04-.22,0-.29-.2-.14-.38-.12-.6-.06-.24.03-.43-.51-.15-.56.28.02.81-.35.43-.58-.26-.07-.64-.22-.44-.55.28-.03.47-.11.63-.36.14-.22.09-.31-.04-.51-.31-.5-.75-.82-1.33-.99l-.06-.06c.14-.05.87.26.92.22,0,0,0-.03,0-.04.06-.17.31-.48.44-.61.03-.03.09-.07.13-.11.09-.07.17.03.09.09Z"/><path class="cls-74" d="M13.13,1.91v-.03c.12-.08.24-.16.36-.25.08-.18-.59-.01-.64.06,0,.05-.1.11-.13.07-.21.11-.41.24-.58.39-.02.06-.05.1-.07.13-.01,0-.03,0-.04,0-.01-.17.15-.26.28-.34.25-.16.71-.39.99-.44.12-.08.38,0,.3.17-.03.06-.4.28-.43.27,0,0-.02-.01-.02-.02Z"/><path class="cls-14" d="M13.67,2.81c-.08-.03-.16-.06-.24-.09.05-.08,0-.16,0-.24.19.04.47.11.24.33Z"/><path class="cls-75" d="M12.38,2.37s-.03,0-.04,0c0-.02,0-.04.01-.04.23-.15.47-.3.71-.42.02-.01.04,0,.06,0,.09-.03.41-.17.43-.26.06-.21-.15-.18-.28-.16.14-.12.38-.01.32.18-.01.05-.36.24-.43.29-.23.14-.44.23-.68.34-.04.02-.07.04-.1.06Z"/><path class="cls-14" d="M13.06,2.59c-.18-.06-.36-.12-.54-.17-.02-.07.1-.06.13-.06.05,0,.27.13.34.17.03.02.06.03.08.07Z"/><path class="cls-57" d="M10.16,4.4l-.37-.52c.25.16.29.24.37.52Z"/><path class="cls-57" d="M10.25,4.66c-.05-.06-.05-.13-.07-.2.04.02.08.11.08.15,0,.03-.02.05-.02.05Z"/><path class="cls-6" d="M11.53,1.13s0,.05-.03.07c-.33.21-.56.43-.86.67-.02.02-.15.13-.16.11,0-.04.02-.05.04-.08.06-.08.19-.2.26-.27.12-.11.5-.43.63-.48.03-.01.08-.02.11-.02Z"/><path class="cls-45" d="M9.03,1.41s-.1.11-.13.13c-.05.04-.13.08-.17.11.08-.1.19-.19.31-.24Z"/><path class="cls-79" d="M12.91,2.7c.49.16.88.34,1.22.75.09.11.33.44.33.56,0,.23-.28.53-.5.59-.18.05-.36-.05-.24.27.09.24.63.13.58.48-.03.18-.18.3-.34.36-.25.08-.46,0-.31.38.1.25.25.12.44.1.14-.01.29.02.36.15-.14-.02-.2,0-.32.07-.22.11-.42.33-.61.48-.08-.37-.37-.14-.56,0,.05-.1-.03-.38-.09-.46-.05-.08-.19-.02-.26-.06-.1-.01-.05-.11.01-.17.24-.62.2-1.6-.42-1.98-.01-.02-.02-.04,0-.05-.03-.03.02-.11.07-.11.21-.35.32-.58.16-.99-.09-.19-.19-.37-.29-.55l.02-.03c.25.06.5.12.74.2Z"/><path class="cls-46" d="M12.84,1.7c.1-.05.61-.26.63-.07,0,.01,0,.02,0,.03-.38.23-.75.46-1.13.69h-.06s-.18,0-.13-.06c.36-.17.68-.45,1.07-.57.06-.02.12.03.1-.08-.06-.06-.53.16-.61.21-.22.11-.42.25-.59.43-.04-.05-.01-.12.09-.18.16-.12.33-.22.5-.32.04-.02.08-.05.13-.07Z"/><path class="cls-83" d="M13.13,1.91c-.08.05-.17.08-.25.13-.18.1-.37.2-.53.33-.02,0-.04-.02-.07-.02l1.15-.71s-.13-.08-.16-.07c-.06,0-.35.1-.43.13.11-.07.54-.24.64-.15.03.02.05.09.03.12-.03.04-.32.21-.39.25Z"/><path class="cls-35" d="M12.17,2.5c.13.28.39.58.39.91,0,.27-.15.46-.28.66-.02,0-.02-.02,0-.07.01-.02.03-.04.04-.07.08-.13.13-.2.15-.36.04-.43-.18-.75-.39-1.1.03,0,.06.01.09.02Z"/><path class="cls-37" d="M12.71,1.76c-.15.13-.34.2-.48.34-.05.04-.12.09-.11.16,0,0,0,.04,0,.04-.02.02-.06-.02-.07-.02,0-.04,0-.08.03-.11.07-.13.48-.34.63-.41Z"/><path class="cls-2" d="M12.62,6.38s.01.03.02.04c.08.15.09.3.12.45.03.11.09.13.07.28s-.26.64-.4.69c-.06.02-.11,0-.15.02-.37.12-.36.18-.76.02.3.06.58-.03.87-.1.14-.18.43-.53.39-.76,0-.04-.04-.08-.05-.12-.06-.23-.06-.27-.17-.49-.09-.17,0-.13.05-.24.03-.06.03-.13.04-.19.02-.11.05-.22.07-.33.03-.47-.11-1.08-.52-1.35-.07-.04-.08-.13,0-.13.01.08.11.09.17.14.47.37.5,1.38.28,1.89-.04.09-.11.06-.04.17Z"/><path class="cls-49" d="M12.28,4.07s-.05.05-.07.11c0,0-.02.01-.02.03,0,.06.13.11.18.15.28.26.43.93.37,1.3,0-.08,0-.15,0-.23-.03-.34-.18-.77-.45-.99-.14-.11-.25-.05-.12-.28.03-.05.08-.11.11-.16v.07Z"/><path class="cls-75" d="M16.57,3.92s-.08,0-.11-.04c.06-.02.8-.37.71-.47-.13-.15-.86.19-.98.35h-.06s-.03-.01-.04-.02c.03-.04.07-.09.11-.12.16-.1.62-.34.79-.36.26-.03.47.1.24.33-.11.11-.39.24-.53.29-.04.02-.09,0-.13.03Z"/><path class="cls-11" d="M15.59,2.79c.05-.05.26-.15.26-.03,0,.03-.1.14-.13.09-.21.15-.41.31-.61.48h-.05s-.05,0-.07,0c.04-.17.25-.34.39-.44.07-.07.13-.11.2-.11Z"/><path class="cls-75" d="M15.22,3.4s-.03-.02-.04-.02c.21-.19.42-.37.64-.56.13-.17.05-.18-.23-.02-.03.01-.17.09-.2.11.08-.1.48-.39.59-.32.08.05-.06.23-.1.27-.1.12-.25.19-.34.32l-.33.23Z"/><path class="cls-4" d="M14.39,2.15c.08-.08.09-.08.22-.07,0,.03,0,.06-.01.09-.02.06-.2.33-.25.4-.09.13-.22.25-.3.38-.03-.02-.05,0-.09-.04.18-.21.36-.44.52-.68-.01-.06,0-.09-.09-.09Z"/><path class="cls-75" d="M19.03,3.94c-.08-.08-.16-.07-.26-.07.03-.03.16-.03.2-.02.05.02.04.06.06.08Z"/><path class="cls-79" d="M13.37,11.48l-.26-.32.75-.69c.63-.37,1.29-.7,1.94-1.04l.21.06c-.12.07-.34.18-.43.28-.04.05-.06.14-.1.19-.32.42-.91.79-1.36,1.08-.24.15-.49.28-.73.44,0,0-.01,0-.02,0Z"/><path class="cls-12" d="M23.96,5.51c.33-.13.65-.29.96-.47.06-.04.19-.14.23-.16.05-.02.04.05.03.06-.44.32-.93.57-1.43.77-.38.15-.76.27-1.18.28,0,0,.01-.03.02-.03.11-.09.77-.23.95-.29.14-.05.28-.1.42-.16Z"/><path class="cls-12" d="M22.82,7.58s-.12-.06-.08-.09c.17.05.33.15.5.22.53.22,1.08.38,1.63.57l.02.03s-.06,0-.09,0c-.03.03-.06.02-.1.02-.39-.08-.75-.17-1.12-.33-.01,0-.03-.02-.04-.03s-.02-.03-.03-.04c-.03,0-.07-.02-.09-.04-.06.04-.15,0-.15-.07l-.06.02c-.16-.06-.29-.15-.4-.26Z"/><path class="cls-16" d="M23.43,7.89s.05.04.09.04c.4.17.86.33,1.29.39,0,.08,0,.06-.07.07-.46-.05-.9-.16-1.32-.34-.1-.04-.34-.2-.14-.23.05.02.1.04.15.07Z"/><path class="cls-7" d="M25.29,7.8c.14,0,.3.02.43.07.04.01-.03.13-.06.04,0,.02-.02.03-.04.03-.23,0-.41-.01-.64-.06-.26-.06-.59-.13-.8-.3-.04.07-.17-.02-.17-.09-.03-.02-.07-.07-.11-.1,0-.02.05-.01.07,0,.15.04.32.14.48.2.28.09.56.15.85.21Z"/><path class="cls-25" d="M25.66,7.91c.06.02.04.05-.02.07,0,0-.01,0-.02,0-.28.05-.54.01-.81-.04-.1-.02-.59-.19-.64-.25-.03-.04-.04-.08,0-.1.35.15.9.3,1.28.33.07,0,.14,0,.21,0Z"/><path class="cls-62" d="M23.28,7.82c-.06.06-.04.07.02.12.25.18.57.28.87.33.19.04.4.02.57.12-.15,0-.52-.06-.68-.09-.34-.06-.72-.23-1-.43-.13-.09-.15-.14-.23-.28.13.08.32.18.46.24Z"/><path class="cls-35" d="M24,7.49s.14.07.17.09c0,.03,0,.07.04.09.09.06.57.23.69.26.22.06.48.05.71.04-.39.09-.79.02-1.16-.11-.09-.09-.29-.05-.37-.1-.03-.02-.1-.21-.08-.26Z"/><path class="cls-79" d="M12.89,10.39l-.14.22s-.14-.24-.14-.25c0-.08.24.05.28.03Z"/><path class="cls-3" d="M25.64,7.97s.02-.06.02-.07c0,0,.05.02.04-.02-.14-.03-.28-.06-.41-.09.08-.05.45,0,.48.08.03.11-.06.09-.13.09Z"/><path class="cls-79" d="M15.07,9.3s-.07.06-.1.08c-.03.02-.32.19-.33.18s0-.08.04-.08l.4-.18Z"/><path class="cls-79" d="M16.48,9.46s-.4.3-.41.28c-.02-.02,0-.05.03-.07.12-.08.26-.16.39-.21Z"/><path class="cls-79" d="M18.12,7.76c.03-.06.1-.06.15-.09.04.04-.12.1-.15.09Z"/><path class="cls-79" d="M12.93,10.74c-.04.09-.1.06-.11-.02l.11.02Z"/><path class="cls-79" d="M13.5,7.45h-.07s.02-.04.02-.04c.02,0,.03.03.04.04Z"/><path class="cls-12" d="M8.9,13.42c0,.42.1.82.22,1.22-.25-.33-.26-.79-.28-1.18l.06-.04Z"/><path class="cls-12" d="M9.57,14.47s-.02-.05-.02-.07c.03-.28.11-.49.09-.79,0-.03-.08-.16.03-.14.09.02.04.55.02.63-.02.13-.08.25-.12.37Z"/><path class="cls-11" d="M8.77,13.79v.36c0,.06-.05.28-.08.34-.02.04-.04.06-.07.09,0-.16.05-.33.07-.49.01-.08,0-.15.02-.24,0-.04-.02-.06.04-.05Z"/><path class="cls-11" d="M9.27,14.47c.05-.28.07-.57.08-.85,0-.03-.02-.05.03-.06.03.25.01.6-.06.84,0,.03,0,.07-.05.07Z"/><path d="M3.78,5.73s.06.14-.02.15c.07.16-.13.39-.26.48-.25.16-.51.12-.75-.03-.05-.03-.19-.13-.16-.19-.06.03-.11-.04-.07-.09-.11-.18-.14-.47-.1-.68.04-.19.28-.48.47-.53.57-.15.93.36.89.88Z"/><path class="cls-71" d="M2.51,6.06s.05.07.07.09c-.02.05,0,.09.04.13v.05c-.3.2-.39.3.04.33.15.07.31.06.49-.01.16,0,.33.03.49.07l.1-.07c.23-.03.33-.13.32-.29.1-.05.13-.14.1-.26.16-.11.17-.16-.04-.12-.11-.04-.23-.06-.34-.04l-.02-.05s.02-.13.02-.15c.03,0,.07.06.08.06.02,0,.16-.2.31-.22.06,0,.26.01.32.03.08.02.23.15.25.23.05.2-.11.19-.12.26-.01.05.03.1,0,.14-.02.02-.08.03-.11.07-.04.04-.04.11-.07.15-.04.06-.13.13-.18.21-.04.05-.03.1-.09.15-.12.11-.29.07-.44.13s-.18.14-.36.12c-.05,0-.08-.05-.11-.06-.03,0-.1.02-.17.01-.09-.01-.21-.1-.29-.1-.06,0-.24.04-.25.04-.02,0-.04-.05-.07-.06-.11-.04-.33-.01-.29-.21.01-.05.06-.07.06-.11,0-.04-.02-.09-.02-.13,0-.16.18-.28.29-.38Z"/><path class="cls-84" d="M2.64,4.2s-.04.06-.07.09c-.1.05-.2.14-.28.22-.04.03-.06.03-.07,0,.1-.12.28-.22.41-.31Z"/><path class="cls-12" d="M16.63,4.16c0,.05-.02.05-.04,0-.02.02-.03.04-.05.02.05.14.1.29.09.45,0,.02-.02.04-.04.05.03.11,0,.25-.07.35.45.27.64.67.37,1.16l.02.06c-.09.21-.33.54-.58.53l-.03.04c-.14.02-.55,0-.56-.17-.03-.11-.18-.39.03-.42.26-.04.48.15.67-.16.04-.06.13-.29.12-.35,0-.14-.33-.36-.47-.36-.1,0-.21.1-.34.04-.07-.03-.16-.32-.11-.38.04-.05.22-.04.29-.06.45-.13.41-.8.09-1.04.09.04.31.15.37.16.07.01.19-.03.24.08Z"/><path class="cls-81" d="M14.65,3.4c.15.33.25.68.14,1.04-.04.13-.12.16-.09.29.16.33.09.73,0,1.08.36.28.42.51.32.96-.08.37-.5.66-.86.71-.06,0-.12,0-.17,0,.56-.15.99-.39.94-1.04-.02-.3-.14-.46-.39-.61.17-.23.22-.62.02-.85-.05-.06-.15-.1-.2-.17.23-.22.44-.52.41-.85-.02-.26-.3-.48-.44-.69.03-.02.28.11.33.13Z"/><path class="cls-35" d="M14.15,7.47c.1-.04.2-.06.3-.1.11-.06.41-.3.46-.41.08-.17.13-.6.08-.78-.03-.12-.32-.34-.32-.38.08-.37.09-.71.02-1.08.08.07.15.23.15.34,0,.07-.01.25-.03.32-.02.14-.07.28-.1.41.08.07.2.16.26.24.12.17.12.33.11.52-.02.28-.06.37-.25.56-.22.21-.38.33-.69.35Z"/><path class="cls-52" d="M16.94,5.07c.18.27.22.54.19.86-.02.18-.12.6-.27.71-.03.02-.12.07-.16.09-.03.02-.07.03-.11.04-.02,0-.02-.01,0-.02l-.03-.03c.21-.18.35-.33.44-.59.16-.44.07-.73-.21-1.08l.02-.05s.1.05.13.09Z"/><path class="cls-8" d="M18.29,4.66c.09.06.14.16.21.24.02.03.06.03.08.06.09.14.11.77.04.93-.03.06-.05.08-.08.12.08-.16.08-.34.07-.51-.02-.32-.16-.57-.31-.84Z"/><path class="cls-52" d="M16.33,6.77l.22-.05.04.03v.02c-.13.05-.32.11-.46.1-.05,0-.33-.06-.36-.08-.05-.05-.02-.11-.03-.15.11.15.41.13.59.13Z"/><path class="cls-12" d="M25.05,4.27s-.03.08-.06.11c-.14.13-.53.33-.71.42-.62.31-1.29.55-1.95.76-.01-.06.01-.04.04-.05.7-.41,1.63-.55,2.33-1.01l.36-.22Z"/><path class="cls-72" d="M16.59,4.16h.02c.1.22.13.46.09.73l.04.03s.04.04.07.04v.02c.08.18.23.3.27.5.1.44-.07.96-.45,1.21-.02.01-.04.05-.04.05-.09.04-.18.02-.26.02.28-.08.43-.35.57-.59.19-.36.17-.75-.14-1.03-.05-.1-.1-.19-.18-.25.03-.07.03-.15.01-.22.01-.2-.05-.39-.13-.57.05-.02.1.03.13.04Z"/><path class="cls-57" d="M16.63,4.16s.03.02.04.02c0,.05.07.17.07.21v.37s-.05.11,0,.16c-.01,0-.05,0-.06-.04-.04-.12.03-.41-.03-.56l-.06-.17s.03,0,.04,0Z"/><path class="cls-10" d="M16.13,3.77s.1-.1.15-.13c.16-.1.67-.35.84-.3.26.07-.09.3-.18.35-.11.06-.36.18-.48.19-.01,0-.03,0-.04,0v-.05s.6-.33.6-.33c.02-.01.01-.04,0-.08-.16-.02-.5.14-.63.23-.04.03-.14.14-.15.14-.02,0-.07-.02-.09-.02Z"/><path class="cls-37" d="M15.59,2.79c.04-.1.42-.25.32-.06-.05.11-.46.44-.58.54-.05.04-.11.09-.16.11-.01,0-.03,0-.04,0-.01-.01-.02-.03-.01-.04.19-.18.39-.34.6-.49.02-.01.05-.03.07-.04.03-.02.02-.06.02-.07-.02-.02-.18.03-.22.04Z"/><path class="cls-59" d="M16.42,3.88l-.13-.07s.09-.02.12-.04c.18-.09.37-.18.55-.28.04-.02.05,0,.04-.08.02,0,.06,0,.07.03.02.08-.57.35-.65.42Z"/><path class="cls-55" d="M15.72,2.85l-.59.52s-.05-.04-.07-.04c.13-.12.26-.24.41-.34.08-.06.17-.09.25-.13Z"/><path class="cls-56" d="M2.29,4.51c-.33.34-.43.47-.83.75-.1.07-.14.23-.24.3-.02,0-.03,0-.03,0,0-.07.16-.24.21-.3.24-.19.47-.38.69-.59,0-.01.01-.03.02-.04l.11-.09s0-.02,0-.02h.07Z"/><path class="cls-84" d="M2.1,4.66c-.27.36-.61.48-.86.83-.02.02,0,.06-.01.06-.03.04-.09.09-.12.13-.06.09-.11.2-.19.28.11-.2.34-.64.51-.78.14-.12.28-.2.45-.35l.09-.07s.07-.11.13-.11Z"/><path class="cls-84" d="M2.23,4.53s-.05.09-.11.09c.03-.04.05-.09.11-.09Z"/><path class="cls-53" d="M1.97,4.77s-.03.07-.09.07c.02-.02.03-.07.09-.07Z"/><path class="cls-69" d="M14.48,2.24s.02.03,0,.07c-.05.1-.34.47-.43.55-.03.02-.05.04-.09.05-.01-.01-.03,0-.01-.04.05-.12.34-.48.44-.58.03-.03.03-.06.09-.05Z"/><path class="cls-62" d="M23.52,7.93s-.08,0-.09-.04c.03.01.07.03.09.04Z"/><path class="cls-9" d="M3.75,5.88c.05,0,.11-.01.16,0,.06,0,.16.05.2.05.06,0,.11-.05.18,0,.11.09-.08.16-.1.18-.02.03.06.11-.02.2-.02.02-.06.03-.08.05-.01.02.02.12-.03.19s-.23.1-.3.13c-.04.01-.07.06-.1.07-.1.02-.31-.08-.43-.07s-.31.08-.42.08c-.07,0-.12-.05-.16-.06-.12-.02-.38,0-.32-.18.03-.09.25-.18.25-.23,0-.02-.14-.07,0-.14.04.04.24.21.29.22.42.15.8-.05.89-.48Z"/><path class="cls-11" d="M3.44,5.39s.01-.07.05-.04c0,0,.05.2.05.23,0,.07-.07.08-.1.14-.03-.14-.13-.13-.24-.06-.08.05-.1.14-.19.03.09,0,.06-.16.09-.18.05-.03.21.12.17-.15.06.04.09.08.17.04Z"/><path class="cls-76" d="M2.92,5.21c.07.05.04.29-.06.32-.21.07-.2-.28-.08-.32.03,0,.11-.01.13,0Z"/><path class="cls-47" d="M16.59,4.68c.08.05.01.19.02.21,0,0,.05.01.06.03.04.05.08.15.12.21.12.16.21.19.24.43.04.28-.02.39-.15.62.02-.12.08-.24.09-.36.03-.39-.23-.59-.52-.78.08-.1.12-.23.13-.36Z"/></g></svg>