<?xml version="1.0" encoding="UTF-8"?><svg id="Layer_2" xmlns="http://www.w3.org/2000/svg" viewBox="0 0 16.24 16.66"><defs><style>.cls-1{fill:#0f1c03;}.cls-2{fill:#1d1604;}.cls-3{fill:#092229;}.cls-4{fill:#07191e;}.cls-5{fill:#0a262f;}.cls-6{fill:#06171c;}.cls-7{fill:#0b1502;}.cls-8{fill:#06161b;}.cls-9{fill:#091b21;}.cls-10{fill:#0a1302;}.cls-11{fill:#040801;}.cls-12{fill:#161704;}.cls-13{fill:#0f1304;}.cls-14{fill:#161904;}.cls-15{fill:#121603;}.cls-16{fill:#101403;}.cls-17{fill:#0a1301;}.cls-18{fill:#081b21;}.cls-19{fill:#092027;}.cls-20{fill:#091202;}.cls-21{fill:#0c1302;}.cls-22{fill:#111803;}.cls-23{fill:#080701;}.cls-24{fill:#081a20;}.cls-25{fill:#0c0c02;}.cls-26{fill:#141b1e;}.cls-27{fill:#0f1b03;}.cls-28{fill:#091003;}.cls-29{fill:#171505;}.cls-30{fill:#0b2b35;}.cls-31{fill:#231604;}</style></defs><g id="Layer_1-2"><path d="M10.78,7.79c-.22.49-.38,1-.56,1.5,0,.06.07.17.11.22.35.51.62.4,1.15.49.95.15,1.51.9,2.29,1.34.49.28.98.39,1.51.55.06.06-.15.11-.18.12-1.13.16-1.95-.67-2.82-1.17-.67-.39-1.45-.17-2.01-.74l-.25-.45-1.25,2.33c-.06.75.17,1.45.84,1.84.16.09.37.14.53.22,1.17.59,1.85,1.18,2.29,2.43.04.12.09.22-.1.16-.13-.04-.19-.33-.25-.45-.31-.63-.68-1.12-1.3-1.48-1.11-.64-1.93-.44-2.37-1.92-.02-.07-.04-.27-.05-.28,0,0-.13,0-.15,0-.25.27-.77.99-1.13,1.06s-.67-.41-.81-.69c-.27-.54-.39-1.23-.4-1.82-.65.02-1.23-.4-1.59-.91-.48.26-1.09.49-1.64.53-.14.01-1.17,0-1.24-.02-.16-.06-.23-.08-.4-.13C.68,10.43,0,10.25,0,9.8c.02-.81,1.11-1.51,1.65-1.97,1.03-.87,1.98-1.66,2.9-2.65.44-.48.74-.93,1.28-1.34.25-.19.49-.39.74-.59.44-.34.96-.51,1.5-.6-.11-.25-.14-.5-.05-.76.06-.21.2-.33.36-.46.39-.33.77-.44,1.29-.47.38-.02.81-.01,1.18.1-.05-.3-.18-.69-.01-.97.09-.16.33-.04.38.06,0,.01.05.19.05.2v.61c.32-.28.67-.49,1.1-.33.08.03.25.12.22.22-.04.15-.82.09-1,.28-.02.02-.02.07-.04.1-.04.05-.09.04-.09.08l.82.46c.82.54.85,1.28.39,2.11-.24.43-.84.82-1.33.86.14.7.07,1.47-.25,2.11.04.04.75-.4.86-.45.38-.17.81-.31,1.19-.04.09.06.22.25.29.28.14.06.51-.15.66-.22.66-.35,1.28-.87,1.96-1.2.11-.05.35-.14.16.07-.33.35-1.06.86-1.47,1.14-.51.35-1.41,1.08-1.76.16-.31.15-.62.31-.94.45-.34.15-.74.24-1.03.47-.07.09-.13.18-.19.28Z"/><path class="cls-1" d="M5.01,6.31c.21-.23.43-.43.68-.6.17.03-.06.6-.14.66-.04.07-.04.11,0,.1-.02-.1.09-.3.2-.26-.04-.12.1-.23.23-.13l.08-.02c.14-.2.58-.64.53-.12-.09.17-.17.36-.24.54.07.09.1.2.1.32-.1.32-.21.53-.35.82h-.04c-.17-.13-.32-.05-.48.05-.56.5-1.15.96-1.76,1.38l-.5.46c-.18.16-.82.47-.65,0-.28.11-1.33.48-1.57.39-.21-.08-.19-.46.03-.56l.49-.33c-.02-.28-.03-.32.27-.34.39-.25.71-.58.96-1,.21-.11.43-.21.64-.3.31-.48.88-.78,1.39-1.04h.12Z"/><path class="cls-7" d="M5.61,4.42c.06-.04.12-.04.14.04.03.11-.22.39-.31.47-.1.07-.99.85-.83.98.01,0,.08,0,.1-.02.17-.22.38-.34.62-.36.1-.09.67-.49.78-.44.04.02.05.03.07.07.01.02-.19.43-.21.45-.39.16-.65.38-.94.71-.36.27-.82.44-1.16.71-.15.12-.17.3-.33.4s-.51.19-.61.27c-.08.06-.28.39-.36.49-.19.22-.55.65-.85.55-.06.09,0,.18,0,.27-.02.15-.7.37-.69.63,0,.03.08.19.09.2.12.07,1.04-.19,1.23-.25.08-.03.33-.15.39-.15.15,0,.01.09,0,.13-.09.2.11.15.23.11.37-.15.48-.35.74-.58.21-.18.48-.31.69-.47.3-.23,1.08-1.01,1.37-1.09.13-.03.28-.02.35.11-.22.46-.37.71-.69,1.1-.03.02-.07.02-.08,0-.04-.07.31-.62.4-.69-.55.21-1.04.61-1.47,1-.21.39-.61.6-1,.77.18,0,.13.13.08.25.32-.18.65-.35.98-.54l.42-.33c.09-.08.31-.19.27-.01-.52.51-1.17.88-1.88,1.06-.57.15-1.73.16-2.28-.07-.44-.18-.61-.57-.33-.99.55-.82,1.84-1.58,2.61-2.24.9-.77,1.61-1.71,2.47-2.52Z"/><path class="cls-19" d="M6.78,4.64c0-.15.15-.3.27-.38-.17-.35.11-.33.36-.25-.29-.26.11-.32.33-.34.03-.21.16-.43.4-.33.7.88,1.61,1.76,2.81,1.83l.08.07c.06.44-.06.8-.13,1.23-.6-.15-1.07.08-1.61.32l-.03-.07c.1-.24-.03-.43-.38-.56-.3-.52-.97-.62-1.52-.55-.1.1-.3.27-.31.03-.19-.02-.08-.35.02-.46.16-.19-.13-.34-.13-.12h-.07c-.02-.11-.06-.31-.09-.43Z"/><path class="cls-1" d="M7.97,8.58c.3.08.61.01.92-.21l.78-.46c.35-.19.5-.1.18.21,0,.08-.03.16-.07.23-.28.19-.32.26-.1.22.07-.1.51-.49.48-.16l-.21.63c-.06.25-.18.51-.32.72l-.04-.02c.12-.41-.06-.23-.22-.02-.09.2-.19.39-.31.57.08.03.06.1-.03.09l-.45.43c-.21.06-.41.18-.58.34-.12.09-.24.15-.38.06-.24.16-.49.34-.72.51,0,.26-.16.4-.27.08-.1-.29-.18-1.17.15-1.35.02-.09.05-.15.11-.17.15-.33.3-.67.46-1l.1-.07.05-.05c.16,0,.33-.1.41-.24-.2.13-.54.17-.31-.16.07-.1.32-.43.35-.22Z"/><path class="cls-10" d="M6.62,9.15c.11-.04.1.08.06.16-.29.33.09.17.19,0,.31-.24.14.33.07.47.1.24.12.32-.03.55-.02.06-.02.13-.05.19-.04.07-.18.14-.2.21-.07.23-.02.78.03,1.03,0,.04.03.21.07.21.11,0,.07-.15.09-.22.04-.12.22-.17.32-.24s.32-.27.42-.31c.08-.03.12.06.2.04.13-.03.43-.3.57-.38.06-.03.12-.02.17-.05.12-.06.32-.36.51-.39.01,0,.02.02.03.03.03.05-.37.68-.53.64l-.48.45c-.39.23-.75.48-1.1.76.35.05.26.36-.06.37l-.06.13c.06.12.06.2,0,.24-.21-.05-.3-.15-.38-.36-.33-.76-.45-2.3-.11-3.05.07-.16.18-.32.27-.47Z"/><path class="cls-27" d="M12.1,2c.06.04.09.04.16.09v.07c-.09.12-.04.29.16.51.05.1.12.41,0,.46l.03.07c.01.09-.81.25-.88.26-.2.03-1.73.16-1.83.08-.15-.12.05-.23.19-.25,0-.05,0-.07.05-.08-.15-.05-.24-.18-.11-.31.04-.04.61-.11.69-.11.14,0,.15-.05.04-.18,0-.1.55-.39.67-.43.25-.05.49-.12.72-.23l.11.04Z"/><path class="cls-22" d="M6.52,4.74c0,.24-.1.45-.31.63-.09.29-.29.58-.45.78v.07s-.13.16-.14.19c-.02.08.08.16-.1.13s.09-.35.13-.47c.02-.08.03-.23.03-.32-.07.09-.18.13-.27.2-.17.15-.22.22-.41.36l.35-.39c.08-.15.5-.31.56-.37.03-.03.06-.17.1-.24.01-.02.18-.2.05-.17-.08.02-.33.15-.4.19-.11.07-.23.22-.34.25-.09.03-.18.01-.24.04s-.3.31-.37.33c-.31.08-.1-.3,0-.42.28-.37.8-.62.99-1.06.03-.06-.06-.02-.08-.06.13-.12.22-.3.43-.32.38-.03.41.37.49.63Z"/><path class="cls-19" d="M7.15,6.12c.13.03.07.16.03.24-.03.25-.14.57-.23.81-.16.41-.33.78-.56,1.15v.06c.53-.66,1.09-1.15,1.83-1.56.04-.02.29-.1.31-.02.02.03.04.05.06.09l-.04.07c-1.02.61-1.94,1.21-2.48,2.29-.11.01-.51.75-.47.78.35-.02.28.49-.03.25-.01.19-.39.03-.51-.02-.16-.07-.36-.17-.35-.37.1-.08.19-.17.28-.25,1.1-.77,1.71-2.18,1.92-3.47.01,0,.21-.06.22-.06Z"/><path class="cls-17" d="M12.1,2c-.17.02-.33.12-.5.18-.09.03-.21.03-.31.07-.05.02-.64.33-.64.37,0,.02.09.06.09.13,0,.16-.35.11-.45.12-.03,0-.06.04-.1.05-.08.01-.41-.02-.31.16.05.1.25.06.14.17-.03.04-.08.03-.1.05-.62.24.09.33.38.27.16.02.44.06.53.17l-.04.07c-.36,0-.71.05-1.06.12.01.04-.02.05-.09.03-.11-.05-.21-.11-.31-.16.1-.53.38-1.13.8-1.48.47-.39,1.14-.74,1.76-.46.09.04.15.11.21.15Z"/><path class="cls-28" d="M5.01,9.18c-.04-.06-.1-.03-.14,0-.14.08-.32.27-.48.37-.26.17-.62.34-.9.48-.04.02-.06.07-.11.08-.23.08-.02-.22-.04-.25-.32,0-.59.25-.91.17.06-.11.13-.04.19-.06.43-.13,1.14-.4,1.43-.74.13-.15.13-.25.35-.41.35-.26.71-.59,1.1-.76.08-.03.25-.11.32-.12.18-.02-.07.16-.08.17-.09.12-.22.35-.3.49-.02.03-.08.11-.01.13-.14.17-.26.29-.41.44Z"/><path class="cls-18" d="M10.9,5.02s.06,0,.09.06c.01.05.03.11.03.16-.33-.04-.69-.09-1-.21-.61-.25-1.28-.85-1.71-1.35-.12-.14-.19-.42-.41-.25-.11.09-.07.25-.12.29-.08.06-.47,0-.41.19,0,.03.18.08.06.16-.1.07-.41-.2-.38.09,0,.05.07.09.06.13,0,.03-.11.07-.14.11-.07.08-.11.19-.2.25-.06-.2-.18-.45-.25-.66.15-.27.26-.37.58-.46l.45-.35c.16-.09.61-.21.7.02.63.95,1.52,1.58,2.66,1.84Z"/><path class="cls-2" d="M10.65,7.16c-.05.02-.13.01-.23-.03-.09.13-.16.19-.25.04-.26,0-.79.16-.99.34.05-.1.46-.1.52,0-.03-.08.03-.11.1-.09.25.07,0,.29-.18.29.13.13-.02.22-.16.25-.2.15-.41.29-.63.42l-.1-.02c-.15.07-.24,0-.35-.1-.15.08-.27.08-.34,0-.11.04-.17.06-.19-.08-.01-.1.41-.44.5-.51.53-.32,1.42-.9,2.03-.92.29,0,.3.17.27.41Z"/><path class="cls-14" d="M10.65,7.16c-.04.3-.39,1.16-.51,1.49-.05.13-.12.27-.18.4.05-.19.09-.38.14-.57.06-.27-.1-.06-.21-.02-.1.12-.16.24-.35.18-.24-.08.16-.25.2-.32.1-.15-.05-.14.18-.35.2-.18-.07-.07-.17-.01-.44.22-.82.53-1.32.69-.17.06-.32.11-.46-.06l.04-.07c.24-.09.47-.14.72-.15.29-.15.45-.29.7-.45.02-.02.24-.05.16-.14-.03-.03-.25.11-.31.05.05-.11.55-.21.57-.24s-.02-.08-.05-.09c-.05-.01-.08.03-.09.03h-.52s-.01-.06.02-.1c.17-.19.73-.23.97-.31.09,0,.08.08.08.09.06.04.09-.09.13-.11.08-.05.21.03.28.08Z"/><path class="cls-21" d="M9.14,1.33c.37-.13.66-.27.86.17.28.6-.04.57-.32.92-.26.32-.46.78-.54,1.18-.29-.28-.76-.65-.85-1.06-.02-.08.04-.02.06-.01.03-.06-.09-.33-.13-.41,0-.31.22-.18.19.08.15-.2.45-.27.42.06.25-.03.24.36,0,.36.09.14.19.12.31-.07.29-.36.84-1.05.03-1.15l-.03-.07Z"/><path class="cls-24" d="M7.06,5.65c.12.19.2-.13.39-.13.21,0,.74.04.92.12.02,0,.31.18.33.2.07.05.15.22.23.29.11.09.21.06.33.2.15.18.15.26.03.46l-.36.16c-.37-.62-1.2-1.16-1.94-1.07-.05-.03-.03-.24.06-.22Z"/><path class="cls-15" d="M9.14,1.33c.28.02.54.12.52.45,0,.07-.12.37-.16.43-.04.05-.1.06-.12.1-.09.13-.29.53-.47.47-.02,0-.11-.13-.18-.14.03-.15.21,0,.22-.19.01-.25-.18-.07-.22-.11,0-.09.12-.15.02-.22-.14-.11-.26.15-.38.19-.04,0,.03-.4-.11-.3-.04.03-.03.07-.03.11,0,.06,0,.13,0,.19-.05,0-.03-.07-.03-.11,0-.51.54-.72.95-.87Z"/><path class="cls-11" d="M9.27,10.5l-.25.47c-.06,0,0-.1-.11-.06-.08.03-.12.29-.33.2l-.54.57.02.05.17-.06c.07.05-.65.92-.79.96-.06.02-.1-.01-.13,0s-.08.06-.14.08-.16,0-.2.02c-.06.04-.02.26-.03.33-.05.02-.08-.03-.09-.03.03-.08-.06-.18-.06-.24,0-.04.06-.08.06-.15,0-.08-.05-.16-.03-.24.07.02.03.15.11.18.04.01.18-.02.2-.08.04-.19-.19-.11-.22-.19-.04-.14.46-.39.58-.46.08-.05.18-.17.26-.21.37-.18.35-.23.64-.49.09-.08.29-.19.35-.25s.26-.4.32-.49c.02-.03.02-.07.03-.09.03-.15.34-.53.38-.23l-.19.42Z"/><path class="cls-4" d="M8.6,6.91c.03.06.09.19.06.25-.02.04-.6.33-.7.39-1.16.72-2.02,1.46-2.13,2.92-.11.14-.36.23-.45,0-.2-.06-.46-.14-.62-.28-.07-.07-.21-.19-.1-.26.02-.01.05-.02.06-.03.08.03.06.13.1.18.11.14.51.27.68.26l.02-.19c.36.39.41-.12.02-.03,0-.04,0-.08.01-.13.03-.09.26-.54.32-.63s.13-.1.17-.15c.31-.4.4-.74.83-1.14.5-.46,1.14-.81,1.72-1.16Z"/><path class="cls-29" d="M8.35,7.67c-.04.07-.49.52-.44.57.24-.1.16-.02.23.03.05.03.17-.08.26-.06.07.01.17.22.33.16-.2.1-.09.04-.26.07s-.18.13-.5.15c-.01,0-.02-.04-.08,0-.04.02-.29.33-.3.37-.02.07.06.05.1.04.11-.02.2-.1.31-.12.04.21-.37.46-.54.38-.11.1-.2-.16-.23-.26-.12.02-.14-.09-.13-.18.02-.17.36-.55.52-.66.21-.2.48-.32.72-.47Z"/><path class="cls-5" d="M7.25,6.12c.12.03.12.11.11.22l-.07.27c.06.27,0,.49-.15.73.3-.25.62-.47.94-.66.13.05.23.04.29-.03l.07.03s.06.08.09.13c-.09,0-.2.04-.28.08-.78.38-1.25.89-1.8,1.54-.03.03-.03.07-.09.05-.1-.24.07-.33.16-.51.23-.43.33-.65.46-1.12.06-.23.13-.18.14-.46,0-.1.11-.17.03-.27.03,0,.06,0,.09,0Z"/><path class="cls-30" d="M8.45,6.69s-.15.12-.18.12c-.04,0-.07-.05-.12-.06-.21-.03-.72.55-.94.63l-.2.22c.01-.24.22-.44.25-.68.02-.12-.02-.22-.02-.31,0-.15.14-.33.02-.49.4,0,.94.26,1.2.57Z"/><path class="cls-8" d="M8.57,3.44c.55.8,1.45,1.17,2.33,1.5v.08c-.05.05-.08,0-.13,0-.72-.18-1.42-.49-1.94-1.02-.12-.12-.69-.88-.75-.89-.1-.02-.4.06-.5.12-.17.1-.31.29-.52.39-.08.04-.21.04-.3.11-.1.09-.07.26-.24.25-.02-.06-.09-.13-.09-.2.43-.55,1.13-.75,1.8-.8.03,0,.29.41.34.47Z"/><path class="cls-13" d="M7.63,8.14c-.14.13-.19.25-.28.39-.09.13-.21.17-.16.39l.13-.03c-.05.1.08.31.16.35-.17.36-.33.74-.57,1.07.02-.05.08-.21.08-.24,0-.07-.12-.19-.11-.31,0-.14.16-.3.12-.46-.1,0-.11.12-.19.17-.07.04-.19.05-.27.11-.16-.14.2-.29.08-.44.26-.42.56-.77,1.01-1.01Z"/><path class="cls-12" d="M6.46,6.82c-.08-.03-.05-.12-.08-.19-.01-.03-.06-.05-.07-.09-.04-.12.08-.21.13-.32.01-.03-.01-.07,0-.1.02-.05.21-.27.12-.32-.16-.1-.33.29-.45.34-.16.07-.2-.03-.23-.03-.02,0-.09.09-.11.12-.07-.04-.07-.04-.03-.11.1-.16.22-.31.31-.48.04-.08.05-.18.11-.27.07-.13.22-.24.27-.36.04-.09.03-.19.1-.26.23.83.2,1.27-.06,2.08Z"/><path class="cls-23" d="M12.51,3.57c-.12.28-.29.5-.58.64-.08.04-.41.17-.49.18-.11,0-.33-.13-.43-.15-.51-.12-.86-.03-1.37-.29.03-.02.06-.03.09-.03.16-.07.32-.07.5,0,.66,0,1.32-.06,1.96-.17l.09-.11c.1-.12.18-.15.23-.07Z"/><path class="cls-16" d="M12.42,3.13c.07-.02.21,0,.19.09-.01.08-.01.11-.03.19-.05.03-.12.05-.19.04.02.09-.02.15-.1.2-.03.02-.6.1-.67.11-.24.03-.47.05-.71.03l-.06-.07c-.22-.03-.47-.11-.68-.12-.15-.01-.5.08-.51-.15,0-.18.14-.16.28-.17-.06.04-.13.09-.19.14-.04.2.58.05.68.05.56-.03.88,0,1.44-.14.11-.03.54-.09.57-.2Z"/><path class="cls-9" d="M6.93,6.19c.02.05.05.1.05.16-.02.15-.08.33-.12.47-.11.36-.14.56-.34.95-.27.53-.27.75-.71,1.2-.14.14-.27.31-.4.45-.08.09-.27.25-.4.23.78-.73,1.46-1.84,1.76-2.86.03-.11.1-.58.17-.61Z"/><path class="cls-25" d="M12.57,3.41c-.02.07-.04.1-.06.16-.15,0-.19.15-.27.22-.1.09-.57.08-.75.1-.43.05-.81.14-1.26.09-.22-.02-.19-.1-.49-.06.31-.22.75-.12,1.1-.19.36.05.92-.03,1.28-.12.06-.02.2.03.2-.08,0-.09-.1-.11.09-.14.06,0,.11-.02.16.02Z"/><path class="cls-8" d="M11,5.08c-.06.01-.08-.05-.09-.06-.2-.14-.65-.25-.89-.36-.47-.21-1.15-.7-1.43-1.13-.02-.03-.01-.08-.02-.09.47.48.95.88,1.59,1.1.14.05.61.13.68.17.05.03.14.29.16.36Z"/><path class="cls-8" d="M5.83,10.47c0,.1,0,.21,0,.32-.34,0-.66-.15-.93-.35-.08-.06-.35-.28-.38-.34-.04-.08.09-.12.14-.16.04.22.33.33.51.42.08.04.19.04.24.07.04.03.05.1.1.13.06.03.23-.1.32-.08Z"/><path class="cls-31" d="M12.61,3.22c-.07-.04-.15-.01-.19-.09.02-.09,0-.3-.03-.39-.06-.19-.44-.47-.12-.65.37.29.41.69.35,1.13Z"/><path class="cls-20" d="M9.08,10.31c.15-.32.24-.86.66-.88.01.01-.08.31-.09.35-.09.26-.24.49-.38.72,0-.08.18-.42.13-.46-.09-.05-.28.2-.32.27Z"/><path class="cls-3" d="M11.22,1.55c-.34.04-.54.19-.85.31,0-.16,0-.32-.06-.47.13-.07.39-.03.55,0,.07.01.32.07.34.1.01.01.02.03.02.05Z"/><path class="cls-26" d="M6.87,5.08c.06-.11,0-.22.19-.17.18.04.15.12.09.28-.07.19-.23.23-.09.46l-.06.22s-.05.04-.06.03c0-.27-.02-.55-.06-.82Z"/><path class="cls-6" d="M10.31,1.4s-.11-.12-.13-.19c.11-.08,1.08.26,1.26.32-.02.06-.16.02-.22.03-.29-.11-.61-.1-.91-.16Z"/></g></svg>