<?xml version="1.0" encoding="UTF-8"?><svg id="Layer_2" xmlns="http://www.w3.org/2000/svg" viewBox="0 0 197.55 170.63"><defs><style>.cls-1{fill:#44984c;}.cls-2{fill:#65a46a;}.cls-3{fill:#74ab78;}.cls-4{fill:#1e6928;}.cls-5{fill:#308c38;}.cls-6{fill:#288131;}.cls-7{fill:#2a8332;}.cls-8{fill:#39803f;}.cls-9{fill:#5ba062;}.cls-10{fill:#22742c;}.cls-11{fill:#45944c;}.cls-12{fill:#792819;}.cls-13{fill:#1c6326;}.cls-14{fill:#2f8b37;}.cls-15{fill:#144c1e;}.cls-16{fill:#1e6c2a;}.cls-17{fill:#1c6327;}.cls-18{fill:#579f5e;}.cls-19{fill:#2a8634;}.cls-20{fill:#175723;}.cls-21{fill:#13471c;}.cls-22{fill:#23742c;}.cls-23{fill:#164d1f;}.cls-24{fill:#4f9c57;}.cls-25{fill:#298332;}.cls-26{fill:#389240;}.cls-27{fill:#338a3a;}.cls-28{fill:#37913e;}.cls-29{fill:#fff;}.cls-30{fill:#2a8433;}.cls-31{fill:#559e5c;}.cls-32{fill:#23752c;}.cls-33{fill:#206f2b;}.cls-34{fill:#195c24;}.cls-35{fill:#154d1f;}.cls-36{fill:#6f1e10;}.cls-37{fill:#1b6326;}.cls-38{fill:#1e6b29;}.cls-39{fill:#328f3b;}.cls-40{fill:#25792e;}.cls-41{fill:#175823;}.cls-42{fill:#4d9b54;}.cls-43{fill:#1e6b2a;}.cls-44{fill:#6da873;}.cls-45{fill:#35843c;}.cls-46{fill:#378d3e;}.cls-47{fill:#1d9536;}.cls-48{fill:#0f2d14;}.cls-49{fill:#3c9344;}.cls-50{fill:#13461c;}.cls-51{fill:#1b6226;}.cls-52{fill:#267a2f;}.cls-53{fill:#1f6c2a;}.cls-54{fill:#863626;}.cls-55{fill:#159034;}.cls-56{fill:#318f3b;}.cls-57{fill:#22732c;}.cls-58{fill:#1f6d2a;}.cls-59{fill:#32893a;}.cls-60{fill:#3e8f45;}.cls-61{fill:#277e30;}.cls-62{fill:#34903c;}.cls-63{fill:#46984e;}.cls-64{fill:#fcfcfb;}.cls-65{fill:#509a57;}.cls-66{fill:#287f31;}.cls-67{fill:#389140;}.cls-68{fill:#45984d;}.cls-69{fill:#6ea472;}.cls-70{fill:#154a1e;}.cls-71{fill:#34853b;}.cls-72{fill:#206e2a;}.cls-73{fill:#277d30;}.cls-74{fill:#185923;}.cls-75{fill:#2b8634;}.cls-76{fill:#2c8734;}.cls-77{fill:#6da772;}.cls-78{fill:#45964d;}.cls-79{fill:#267b2f;}.cls-80{fill:#549d5c;}.cls-81{fill:#8f4031;}.cls-82{fill:#399240;}.cls-83{fill:#5ca063;}.cls-84{fill:#5ea064;}.cls-85{fill:#3c9444;}.cls-86{fill:#2a8533;}.cls-87{fill:#070707;}.cls-88{fill:#1d6828;}.cls-89{fill:#34863b;}.cls-90{fill:#3b7f40;}.cls-91{fill:#206f2a;}.cls-92{fill:#2d8d36;}.cls-93{fill:#4e9b55;}.cls-94{fill:#195e25;}.cls-95{fill:#2d8b36;}.cls-96{fill:#2a8333;}.cls-97{fill:#328939;}.cls-98{fill:#68a56d;}.cls-99{fill:#175722;}.cls-100{fill:#3e9546;}.cls-101{fill:#24782d;}.cls-102{fill:#1a6025;}.cls-103{fill:#1b6126;}.cls-104{fill:#2c8634;}.cls-105{fill:#0f0f0e;}.cls-106{fill:#65a26b;}.cls-107{fill:#37823e;}.cls-108{fill:#288031;}.cls-109{fill:#569d5d;}.cls-110{fill:#318b38;}.cls-111{fill:#1e6929;}.cls-112{fill:#131512;}.cls-113{fill:#5ea164;}.cls-114{fill:#46984d;}.cls-115{fill:#4e9b56;}.cls-116{fill:#36843d;}.cls-117{fill:#298131;}.cls-118{fill:#1a5f25;}.cls-119{fill:#21722b;}</style></defs><g id="Layer_1-2"><path class="cls-87" d="M146.7,16.11c-.13.57-.18,1.16-.18,1.76-.45,2.98-1.7,5.78-3.48,8.2,7.51,5.56,11.51,17.3,6.75,25.83-2.04,3.65-6.5,6.72-10.25,8.43-.92.42-5.92,2.08-6.14,2.32-.28.29-.76,3.2-.8,3.78-.33,4.5.65,9.84,2.16,14.07,2.36,6.59,7,11.94,9.83,18.29,4.66-2.93,9.9-4.64,15.02-6.56,11.21-4.22,22.8-8.4,33.17.4,5.73,4.86,5.52,12.72,3.27,19.3-3.23,9.44-16.15,21.03-24.52,26.25-2.7,1.68-5.58,3.06-8.26,4.78-.47.42.38.38.52.43,1.4.15,2.69.5,3.88,1.06,2.1.44,4.21.92,6.31,1.36,1.97.41,5.79,1.12,7.7,1.07,2.28-.06,2.72-1.9,4.16-3.03,3.09-2.44,8.27-.94,10.24,2.24,1.08,1.74,2.04,4.88,1.06,6.77-1.62,3.13-6.35,3.34-9.26,2.14-3.21-1.33-3.49-2.89-7.52-2.97l-1.06.18c-2.94.07-6.69.9-9.77,1.25-.17.02-.66.08-.63.34,3.44.67,6.58,2.55,10.13,2.65,4.03.11,7.94-.68,11.9.96,5.36,2.23,6.1,10.55.24,12.76-4.19,1.58-7.39-1.13-10.81-2.89-6.42-3.3-20.16-6.43-27.4-6.61-5.22-.13-10.26,1.68-15.51,1.24l-5.2-.7c-.14,2.39-.9,6.76-3.84,7.19-2.16.32-4.05-3.1-3.92-4.98s2.69-5.02,1.32-6.26c-.5-.45-2.49.64-3.07.98-3.05,1.81-3.7,3.59-7.59,4.66-.34.15-.71.11-1.06,0-2.62-.75-2.5-4.51-.12-5.5,1.19-.49,2.3-.08,3.39-.66l2.72-4.51c-.1-.25-.33,0-.47.05-1.45.65-3.58,1.61-5.16,1.8-.28-.12-.6-.14-.88,0-1.11-.02-2.05-.12-2.38-1.4-.9-3.45,2.25-5.68,4.97-3.21,1.86-1.07,3.51-2.79,5.4-3.88,1.4-.81,3.11-1.44,4.71-1.73l-.97-2.82c-4.92,4.19-12.25,6.25-18.59,7.05l-2.29.18c-.14.17-.34.09-.53,0-7.18.16-14.06.54-21.21-.38-2.08-.27-4.16-.83-6.1-1.56-.23.23,2.62,5.45,2.9,5.65.48.36.91-.11,1.43-.18,2.5-.32,3.78,1.57,3.38,3.91-.28,1.64-2.52,2.78-4.08,2.58-3.74-.46-5.99-5.85-8.91-8.01-2.23-1.65-2.85.89-3.27,2.73-.53,2.3-.17,6.58-1.49,8.2-2.39,2.93-6.17-.48-5.02-3.43.49-1.25,2.07-1.97,2.37-2.74.42-1.08.67-4.04.72-5.28.11-3.14-1.62-.4-2.27.73-1.07,1.87-2.29,5.65-3.92,6.83-3.48,2.52-6.39-3.18-2.75-4.87.87-.4,1.46,0,1.53-1.11.02-.27.04-.31-.25-.25-9.06,4.4-18.95,7.2-28.8,9.27-3.34.7-8.43.93-11.32,1.9s-5.22,3.77-8.75,3.96-4.55-4.46-2.34-6.41c3.04-2.68,6.04-1.84,9.57-2.24,1.76-.2,3.91-1.22,5.5-1.9,2.23-.95,4.66-1.9,6.59-3.37-2.71.59-5.47,1.11-8.15,1.81-4.61,1.2-9.37,3.14-14.24,3.12-.28.17-.58.09-.88,0-1.7-.23-2.5-.6-3.38-2.17-1.01-1.8-1.06-3.24.29-4.88,2.66-3.23,8.62-1.23,11.38.98,1.79-.59,3.63-1.05,5.41-1.64,2.72-.9,5.41-2.02,8.1-3,1.46-.53,3-.9,4.45-1.45-2.02-1.92-4.47-3.32-6.6-5.11-6.91-5.82-15.8-18.03-15.26-27.41.39-6.7,5.18-15.13,11.81-17.27,9.86-3.18,20.31,3.22,26.52,10.49.19.14.13.27.35,0,.57-.71.92-2.59,1.29-3.47,3.67-8.72,8.39-15.53,8.51-25.52.02-1.33-1.19-6.38-2.05-7.31-.3-.33-2.11-1.13-2.66-1.39-1.69-.81-3.52-1.44-5.17-2.32-.89.04-1.42-.25-1.59-.88-1.12-.33-2.12-.98-3-1.94-.17-.02-.28-.14-.35-.35-5.33-5.76-5.85-10.08-3.35-17.55,2.02-6.03,7.58-11.06,12.52-14.8-1.78-1.01-3.13-3.29-4.08-5.08-2.63-4.94-2.81-12.63.24-17.45,3.5-5.55,9.92-7.67,15.79-4.53,4.83,2.58,7.96,7.68,7.8,13.23,4.29-2.03,8.03,1.36,11.94,2.07,3.74.68,8.9.61,12.56-.4,2.1-.58,3.83-1.64,5.77-2.34,3.34-1.19,5.38.16,8.59.15,2.66,0,6.7-1.37,9.08-.63.31.1.58.32.88.44-.37-1.73-.13-3.74.27-5.46,2.72-11.77,21.62-14.27,25.96-2.16,1.01,2.83.81,5.22.57,8.16Z"/><path class="cls-47" d="M106.7,147.96c-.63.08-1.07.15-1.76.18-.18.09-.41.18-.53,0,.6-.39,1.57-.09,2.29-.18Z"/><path class="cls-64" d="M115.16,162.77c-.07.02-.16.18-.44.2-.37.02-.44-.15-.62-.2h1.06Z"/><path class="cls-64" d="M5,157.13c-.24.47-.73.02-.88,0,.29,0,.59,0,.88,0Z"/><path class="cls-55" d="M114.45,153.96c-.26.03-.6,0-.88,0,.12-.28.77-.28.88,0Z"/><path class="cls-92" d="M145.65,54.01c-5.31,4.89-13.16,5.56-19.33,8.96-1.63.9-7.44,4.99-7.81,6.65-.24,1.07,1.49-.59,1.84-.81,3.63-2.29,7.37-4.48,11.55-5.63-2.65,7.39-1.75,15.25,1.67,22.22,3.63,7.42,11.36,15.35,10.09,24.18-.9,6.27-3.75,12.63-5.36,18.79-.73,2.78-1.13,5.77-1.9,8.5-1.6,5.66-5.34,12.41-5.74,18.24-.21,3.16.69,6.65-.72,9.68-1.26,2.72-3.71,2.31-4.01-.7s2.44-4.04,1.11-7.1c-1.09-2.51-4.45-.24-5.87.79-1.61,1.16-3.92,3.84-5.93,3.96s-2.25-2.65-.13-3.14c1.51-.35,2.49-.33,3.69-1.68s1.52-4.19,2.34-5.28c.5-.67,2.36-.93,2.65-1.89.16-.46,1.95-.97,2.5-1.01,1.45-.1,1.61.53.45,1.26.32.31.48.71.47,1.21l.47-1.24c-.62-1.21-.33-2.04.85-2.49-.36-.79-.41-1.52-.29-2.36-.98-2.67-1.73-5.66-2.04-8.53.41-.79.52-1.15-.01-1.99-.13.42-.35.65-.65.68-1.66-9.9-.45-23.89,5.21-32.42,1.02-1.53,3.55-3.75,3.08-5.71-.12-.49-1.38-.18-1.72.02-.45.26-1.27,1.87-1.63,1.62-1.52-2.44-3.17-5-5.11-7.14-1.67-1.84-3.67-3.4-5.47-5.1-.36-.17-.79-.19-1.05.17,1.89,2.5,3.76,5.02,5.63,7.54.91,1.22,1.77,2.34,2.65,3.66l.05.25c-1.19,1.31-2.13,2.87-2.83,4.67-1,1.06-1.83,2.22-2.48,3.5l-.21.04c-2.7,7.69-3.34,16.21-2.18,24.23.34,2.34,2.01,6.15,4.59,6.5l.24.3c.12.41.45,1,.27,1.4-.28.64-2.4,2.16-3.09,2.57-9.88,5.81-24.27,5.43-35.34,4.67-3.18-.22-5.82-.15-8.9-1.24-.12-1.71-.61-3.41-1.45-5.1-2.2-7.81-4.85-15.3-9.81-21.79-.72-1.45-1.43-2.83-2.14-4.13.59-3.7,3.01-8.56,4.1-12.38.63-2.2,1-4.46,1.63-6.66.19-.65,1.44-3.75,1.43-3.96-.01-.28-.45-.83-.79-.6-3.24,7.68-6.75,15.65-7.95,23.95-1.14-.88-2.69-3.98-4.31-3.71-1.34.23.41.81.62.96s1.64,1.79,1.92,2.13c5.66,6.88,7.74,14.49,10.76,22.65.18.59-.42.45-.67.06-2.82-7.33-.28,1.89.27,3.77l-.13.4c1.33,4.52,2.84,8.36,5.14,12.47.13.24.21.47.15.75-1.93-1.6-4.53-6.64-7.64-4.73-1.17.72-.98,1.62-1.22,2.66s-.66,2.28-.82,3.23c-.31,1.83.3,4.39-1.29,5.58-1.3.97-2.55.05-2.39-1.49.14-1.4,1.25-2.56,2.4-3.25.01-1.45,1.09-6.8.47-7.82-.42-.7-1.98-.64-2.65-.17s-2.11,2.96-2.53,3.82c-.79,1.59-1.58,5.22-3.82,5.15-.74-.02-1.7-.92-1.38-1.69.75-.97,1.99-1.64,2.68-2.64.8-1.16.87-2.49,1.36-3.75,1.12-2.92,3.6-5.38,3.78-8.56.22-3.88-3.84-7.07-6.08-9.78-3.07-3.7-6.67-8.13-8.19-12.69l-.04-.38c1.25-.67,1.82-1.81,1.71-3.42,1-2.55,2.27-4.99,3.81-7.33,1.94-4.07,4.04-8.02,6.3-11.86l.72-2.06c.45-2.59,1.09-5.11,1.95-7.57,1.43-4.2,2.17-10.59-1.14-14.03l.08-.25c-.16-.46.2-1.42-.57-1.81-.5-.25-1.48-.24-2.08-.39-3.99-1.02-8.54-2.21-12.16-4.15-.14-.42-.21-.92-.2-1.5l-.67-2.61c-.03-.7.5-.72,1.04-.52.19-.23.43-.42.73-.48.98.07,1.74.07,2.61-.18l.36-.16c.55.33.68-.12.39-1.34.03-.35.13-.6.52-.63,5.06-.22,10.11-.56,15.18-1.04,1.07-.19,1.99-.07,2.76.35.79.18,1.23.47,1.32.88.02-.14.06-.35.15-.35.73-.05,2.32.05,3.08.14.05,0,.08.1.11.22.39-.5,1.81-.39,2.31.14.57-.12,1.01-.05,1.3.21,5.42-.32,10.83-.42,16.24-.31,3.65-.07,7.36-.24,10.83-1.42,3.62-1.77,7.47-2.26,11.4-1.6,1.31-.36,2.52-.33,3.62.08l6.47-1.55.44.21c.19-.44.57-1.16,1.06-1.23.35-.4.87-.31,1.54.28,4.18,3.98,10.08,4.2,15.21,1.96l.52.23Z"/><path class="cls-92" d="M101.58,18.05c2.88-.84,3.7.16,6.43.35,1.88.13,4.43-.09,6.29-.4,1.37-.23,4.74-1.51,5.83-.84.13.08.74,2.37.92,2.82.65,1.59,1.73,3.07,3,4.23.46.42,2.27,1.92,2.79,1.75.08-.03.95-1.27.97-1.35.29-1.04-2.16-2.23-2.88-2.87-3.95-3.57-4.47-12.19-.35-15.85,3.43-3.05,8.11-4.46,12.56-2.88l2.33,1.11c-5.42-.25-9.39,5.93-9.16,10.84.19,4.08,3,9.36,6.57,11.4.37.21,1.93.49,1.11.87-1.3.59-3.05.66-4.42.33l.09.71.07.22c-1.5,1.2-2.62,2.63-3.38,4.3l-.39.24c.37.18.92.19,1.64.02.22,0,1.46.11,1.52.16.18.14.17.39.12.58,1.93.5-.12,1.68-1.15,2.08-3.14,2.53-5.54,6.71-5.04,10.83l-.27.43-.23.33c.25,1.13-3.24,2.71-4.13,2.64-4.8-.6-9.6-1.08-14.43-1.45-10.05-1.13-19.31,1.59-28.73,4.49-5.78,1.6-11.78,1.8-17.74,1.73-.14,0-.27-.06-.41-.11s-.28-.14-.42-.23c-1.22-.1-2.45-.14-3.68-.11-.24-.17-.2-.39,0-.6,5.89-4.04,6.83-12.31-1.66-13.52-1.59,0-2.66-.05-1.45-1.58-.25-.5-.26-.96-.02-1.37,1.12-1.43,2.21-2.82,3.26-4.17-.15-.59-.15-1.11.02-1.56,2.45.23,3.29-.07,5.35-1.44.74-.49,1.89-1.3,1.88-2.26-1.98.19-3.5,1.92-5.55,2.11-3.13.29-6.97-.65-8.9-3.26-.03-.47.07-.18.3-.12,3.38.81,5.21,1.11,8.28-.81,6.48-4.04,4.93-16.78-.77-20.98l-1.99-1.09c.89.04,1.62-.23,2.53-.16,6.86.53,12.52,7.2,10.68,14.08l-1.69,1.25c.35.19.62.42.81.69-.7,1.18-1.6,1.64-1.18,3.03.66,2.19,2.61-1.42,2.94-2.33.04-.18.14-.28.32-.3l2.86,1.17c3.8.31,7.56.94,11.29,1.88,2.93.41,6.35.1,9.09-.87,1.19.13,1.91-.21,2.16-1.01,2-.53,4-1.1,5.84-2.03.29-.23.34-.6.16-1.12Z"/><path class="cls-92" d="M151.46,98.61c4.67-1.88,9.71-4.12,14.41-5.77,8.24-2.89,15.84-3.95,23.78.63,5.32,3.06,5.91,12.07,4.11,17.23-4.13,11.87-19.89,23.31-30.56,29.2-4.2,2.32-8.58,4.03-12.81,6.22-5.9,3.07-11.49,6.93-17.97,8.73.21-.93.24-1.89.43-2.83.59-2.84,2.13-5.21,3.27-7.84.45-1.03.97-3.26,1.58-4.02.37-.46,1.44-.38,1.95-.56,4.27-1.48,12.46-9.93,15.86-13.4,3.11-3.16,6.09-6.38,8.7-9.98.53-.73,2.57-3.35,2.75-3.95.14-.47-.56-.25-.8-.1-5.55,7.55-12.89,13.71-19.99,19.75l-.43-.18c.44-.97.9-1.95,1.37-2.94.35-3.62,1.16-7.26,2.65-10.63,1.19-4.73,2.4-9.87,2.1-14.72-.53-1.09-.62-2.09-.27-2.99-.41-.82-.46-1.44-.15-1.85Z"/><path class="cls-92" d="M42.01,104.25c-.51,1.04-.46,2.38-.35,3.54.26,2.58.81,5.61,1.49,8.1.77,2.8,2.1,6.24,3.63,8.7,2.45,3.95,5.26,8.06,8.18,11.65.95.91,1.93,1.75,2.95,2.53l-.04.21c-6.4-1.7-15.29-8.86-20.85-12.9-2.63-1.92-5.28-3.9-7.86-5.89-.3-.23-1.37-1.6-1.22-.54,2,2.01,4.22,3.83,6.32,5.76.12.29.06.5-.24.51-1.98-1.02-1.95-.39.07,1.87.18.33.07.65-.2.89,2.22,2.7,4.59,5.16,7.44,7.38l2.99,2.87c1.33.56,2.23,1.4,2.71,2.54,3.6,1.95,7.4,3.55,11.41,4.8l.14.29c-.29.98-.55,1.96-.73,2.97-3.2.35-6.14.58-9.32-.06-2.35-.48-4.65-1.41-6.87-2.3-9.41-3.8-17.27-8.61-23.45-16.83-.24-2.8-.76-5.61-1.56-8.43-.93-4.19-1.52-8.68,1.2-12.31.8-2.87,2.98-4.49,5.56-5.79,3.49-1.76,5.04-1.39,8.77-.49,1.97-.29,3.54-1.73,1.52-3.39l.2-.44c2.76,1.32,5.66,2.95,8.11,4.76Z"/><path class="cls-92" d="M166.97,158.36c1.39.54,2.82.97,4.29,1.31l.21.32c1.73-.02,3.45.13,5.17.45,2.23-.4,4.7-.41,7.04-.32.43.1,5.33.4,5.3-.31-.01-.31-4.52-.6-5.19-.57-.73.03-1.5-.8-.6-1.06,2.03.01,2.95-.05,5.03.53,2.61.73,4.46,1.57,4.5,4.67.02,1.72-2.41,5.36-4.31,5.36-3.12,0-7.8-3.35-10.62-4.72-6.08-2.96-21.14-6.1-27.82-5.66-3.51.23-7.1,1.51-10.6,1.91-2.83.33-3.6-.68-6-.85-.36-.03-.61.11-.94.17l-.35-2.99c1.65-.56,3.38-1,5.02-1.59s4.48-2.07,5.9-2.29c2.47-.64,5.01-.44,7.61.62,1.29.14,2.51.46,3.65.97,4.3,1.19,8.53,2.54,12.7,4.05Z"/><path class="cls-105" d="M49.82,24.16c-.07-.06-1.09-1.22-1.19-1.36-1.18-1.54-1.83-3.22-1.86-5.19-.08-4.74.86-10.42,5.7-12.63,1.24-.56,1.86-.93,2.94-.06,2.81,2.28,4.89,9.17,4.58,12.69-.27,3-2.21,6.44-5.32,7.2-.94.23-4.11-.02-4.85-.64Z"/><path class="cls-105" d="M143.53,8.36l-.37.21c-2.82-1.21-4.16,4.16-2.21,5.42,2.56,1.64,2.84-.03,3.04-2.25l.42-.21c-.1,1.3.2,2.99-.18,4.23-.56.21-.62.32-.18.35-.18,1.92-.31,4.14-1.03,5.94-.15.37-1.09,2.13-1.32,2.3-.76.56-2.2.3-3.04.06-3.63-1.06-6.37-6-6.6-9.61-.28-4.41,3.5-10.77,8.6-9.66,1.55.34,2.26,1.92,2.85,3.23Z"/><path class="cls-14" d="M129.96,33.03c.85-.7,1.97-.82,3.37-.35,1.02-.55,2.02-.79,2.98-.73,1.45-.85,2.78-.71,3.87.56.03.28-.02.53-.27.65-3.99,2.07-8.59,4.84-8.77,9.88-.25,6.73,5.84,9.56,11.69,7.78,3.08-.94,5.07-3.09,6.29-5.73.18-.41.33-.44.58-.06-.07,3.15-1.74,6.86-4.05,8.99-1.57.38-2.9,1.1-4.54,1.36-3.54.57-6.89-.02-9.86-2.03-.95-.64-1.7-1.7-2.87-1.8l-.3-.25c.09-1.46-.49-2.67-1.38-3.71-.09-.1.01-.3.1-.44-.94-3.93,1.98-9.24,5.11-11.55.5-.37,1.58-.61,1.74-1.08.33-.94-.73.07-.86-.07l.17-1.06c-.91-.11-2.27.22-3.08-.18-.23-.11.08-.14.09-.18Z"/><path class="cls-92" d="M159.57,150.08l.09-.36,6.33-.48c-.04-.2-.01-.49.12-.63.25-.25,5.92-.68,6.54-.65,1.65.44,3.22.56,4.71.35,1.66.19,3.86.53,5.47.27,3.56-.56,3.96-4.92,8.55-3.63.59.16,2.45,1.16,2.8,1.61.71.91,1.59,4.36,1.19,5.41-.81,2.11-3.94,2.32-5.82,1.87-2.51-.61-4.57-3.15-7.35-3.4-5.23-.48-10.89,1.02-16.05,1.57-2.57.27-4.29-1.1-6.59-1.92Z"/><path class="cls-92" d="M45.71,153.08c-6.02,2.64-12.55,4.29-19,5.59-3.26.65-7.46.91-10.47,1.87-1.4.44-7.79,4.25-8.74,2.91-.24-.34-.41-1.75-.03-2.16,1.89-2.04,6.51-1.6,9.09-2.19,1.72-.39,4.12-1.35,5.71-2.14l.35.22c-.21.85.25.89,1.37.12,5.51-3.66,12.78-5.21,19.38-4.36.88-.13,1.66-.08,2.34.15Z"/><path class="cls-97" d="M147.41,34.27c.4.5.34.74.53,1.23l-.35.2-2.76-1.61c-.56-.24-2.84.12-3.44.34-3.47,1.23-9.09,4.76-7.99,9.09-.3,1.11-.13,1.75.49,1.91-.33,2.55,2.65,4.18,4.84,4.66,1.09.24,2.34.47,3.27-.27,1.48.25,2.46-.09,2.93-1.02.31.05.56-.12.74-.5,1.8-1.07,2.91-2.83,3.57-4.79l.46-.07c.03.52.01,1.06,0,1.59-.58-.02-.44.87-.8,1.25-.15.16-.38,0-.41.02-.11.11-.49,1.33-.81,1.73-4,5.08-14.28,5.2-16.43-1.73-1.36-4.36.37-7.85,3.74-10.61,1.59-1.3,3.73-1.96,5.19-3.18-.12-.92,1.99-1.14,2.77-1.15,2.08-.03,3.44,1.22,4.45,2.91Z"/><path class="cls-39" d="M33.91,99.49c.39,1.18,1.82,1.4.88,2.73-.57.82-1.68,1.51-2.71,1.44-1.26-.09-3.19-.82-4.6-.84-1.67-.02-5.6,2.05-6.95,3.11-1.6,1.26-1.56,2.22-2.35,3.82-.38.76-.92,1.4-1.27,2.25-1.98,4.87.97,12.02,1.65,17.2.03.26.25,1.28-.33,1.13-1.14-1.52-2.06-3.11-3-4.76.24-1.43.19-2.98-.16-4.64.05-.85-.11-1.41-.42-2.14-.3-5.03.87-9.4,4.72-12.8,3.09-2.73,7.3-5.7,11.51-5.77.98-.06.98-.43,0-1.11-.3-.34-.43-.65.04-.87,1.03.34,2.02.77,3,1.23Z"/><path class="cls-89" d="M147.94,35.5c.21.53.36,1.04.53,1.59.1.37.04.67-.37.54-.69-.83-1.96-2.03-3.09-2.14-.68-.07-4.67.85-5.38,1.12-2.51.96-6.22,3.44-4.04,6.35,2.02,8.23,9.05,6.59,12.86,1.12-.01-.78,0-2.51,1.08-1.88.04.39.16.96.18,1.23-.65.99-1.17,2.61-1.86,3.52-.41.54-1.38,1.13-1.93,1.6-.2.17-.3.54-.43.62-.14.08-.48-.15-.53-.09-.04.04.1.36-.11.54-.99.89-2,.39-2.76.54-.33.06-.56.44-.93.5-.31.05-1.88-.12-2.27-.18-.63-.1-2.94-1.01-3.51-1.42-.29-.21-1.69-1.93-1.8-2.26-.15-.5,0-.76.1-1.24-.17-.04-.65.05-.71,0-.13-.12.1-1.69.09-2.03-.02-.83-.26-1.35-.01-2.39.78-3.27,5.16-5.67,8.03-6.95.97-.43,1.22-.22,1.99-.32.69-.09.81-.59,1.93-.08l2.95,1.72Z"/><path class="cls-92" d="M29.5,150.08c-5.38,1.69-11.15,2.97-16.71,4-2.11.39-5.64,1.05-7.7.95-1.35-.07-2.71-1.7-2-3.08,1.19-2.29,4.52-1.39,6.31-.36.97.56,1.59,1.53,2.75,1.5,1.31-.03,5.06-1.45,6.57-1.91,1.17-.36,2.62-1.1,3.74-1.28,1.33-.47,2.9-.82,4.32-.88.47-.02,2.69.52,2.73,1.05Z"/><path class="cls-7" d="M34.26,125.4c3.75,3.44,7.42,6.94,11.46,10.05l-.52.16c-2.04-1.02-4.01-2.07-5.59-3.71-.21-.29-1.38-.97-1.55-.44-.19.58,4.55,4.01,5.53,4.7.45.45.81.87.78,1.55.9.3,1.49.76,2.04,1.53,1.49.36,2.57,1.5,3.32,2.76.33.48.83.7,1.51.66,2.25,1.31,4.65,2.57,7.22,3.1l.31.27c-.06.18-.13.36-.18.53-.64-.19-1.25-.47-1.89-.66-1.99-.59-3.67-1.24-5.64-2.11-1.04-.46-3.54-1.37-4.27-2.08-.22-.21-.18-.66-.52-1.07-.51-.61-1.84-1.1-2.26-1.53-1.91-1.97-4.19-3.96-6.3-5.77-1.49-1.27-1.89-1.82-3.01-3.34-.26-.36-1.15-1-1.14-1.33,0-.26.37-.42.28-.62-.27-.61-3.13-2.97-.68-2.96.39,0,.69.85,1.1.31Z"/><path class="cls-110" d="M57.17,31.62c.11.34.36,1.4.31,1.65-.03.17-.28.29-.37.47-.05.1.04.26,0,.31-.14.17-.79.36-.82.41-.07.1.2.44.16.5-.03.04-.83.33-.87.39-.07.1.2.44.16.5-.02.03-.32.06-.43.18-.34.39-1.32,1.53-1.28,2.01.02.21.26.37.23.66-.05.53-.61.72-.63,1.21,8.88-.35,10.91,7.85,4.66,13.39-.15.13-1.6,1-1.05,1.06,1.1.1,2.4-.23,3.44.18l-.59.36c-2.13-.1-4.24-.02-6.35.23l-.64-.24c-.53-.42.01-.77.53-.91.88.04,1.42-.28,1.65-.96,6.05-2.88,7.31-11.45-1.42-10.79-1,.7-1.79.78-2.37.25-1.02.55-2.75.68-1.58-.79l.37-.9c-.03-.39.07-.75.36-1.01,2.42-2.1,4.42-4.45,6.01-7.05-.22-.63-.17-1,.15-1.1.12.01.24-.01.35,0Z"/><path class="cls-45" d="M149.52,42.2c-1.15.24-.44,1.63-.87,2.39-.12.21-3.17,3.04-3.54,3.33-.18.14-3.16,1.16-3.43,1.17-4.06.18-5.15-2.72-6.34-5.83-.17-.45-.65-.85-.75-1.36-.18-.86.2-1.88.66-2.61,1.11-1.75,3.48-2.92,5.46-3.36.61-.13,3.99-.82,4.33-.8.54.03,2.04.86,2.46,1.25.08.07,1.02,1.6.97.7.56,1.86.86,3.15,1.06,5.11Z"/><path class="cls-39" d="M63.16,84.86c-.5,2.39-1.03,4.8-1.49,7.15-.64,3.25-2.63,5.57-4.18,8.42-1.04,1.93-1.89,3.97-2.9,5.91-1.12,2.16-3.31,5.18-3.87,7.41-.16.65-.09,1.74-.35,2.3-.2.44-1.24,1.13-1.67,1.41-.29-.87-.56-1.5-.7-2.47l.73-.89c2.73-4.94,5.36-9.91,7.88-14.91,2.14-2.22,2.91-4.39,3.85-7.35,1.02-3.22,2.01-6.49,2.58-9.79.68-3.96-.43-7.21-1.72-10.77l.25-.35c.06,0,.13-.01.18,0,.12-.18.19-.19.3-.08,2.9,3.05,2.66,10.34,1.11,14Z"/><path class="cls-33" d="M149.17,99.66c1.62,1.46,1.69,3.95,1.2,6.04-1.42,6.08-3.57,11.57-5.88,17.35-.41,1.13-2.26,6.39-1.64,7.15,2.94-1.86,1.45,2.9.51,4.01-.28.21-.55.47-.88.71l-.3-.29c.57-1.22.3-1.78-.81-1.66-.37.58-.64.64-.83.19,1.1-5.02,2.56-9.96,4.23-14.81l1.6-5.22c1.43-3.98,3.1-8.82,1.94-12.93l.16-.36c.27-.11.55-.11.7-.18Z"/><path class="cls-40" d="M149.52,99.49c.44.19,1,.83,1.21,1.26.45.96,1.03,3.96.41,4.91.22.58.17,1.04-.16,1.38.12,1.01-.05,2.01-.51,3.02l-1.79,4.81c-1.71,3.77-3.07,7.64-4.08,11.61.44-.64,1.19-.59,1.25.23l-.54,2.58c.1,1.46-.24,2.72-.73,4.04-.41.32-.83.58-1.23.88.17-.92,1.01-2.92.89-3.79-.15-1.11-1.01.44-1.58.07-.95-.63.87-5.76,1.22-6.77,2.03-5.89,5.25-12.37,6.21-18.49.17-1.12.31-1.93.06-3.12-.16-.8-.58-1.76-.98-2.46.1-.04.21-.12.35-.18Z"/><path class="cls-100" d="M57.7,71.28c-.06-.12-.13-.28-.09-.42.28-.87,1.79.54,2.07.94,1.39-.59,1.95.75,2.34,1.92,1.15,3.43,1.34,6.93.24,10.3l.3.27c-.94,4.01-2.15,8.06-3.7,11.91-1.02,1.12-1.92,2.35-2.7,3.69-1.84,3.85-3.8,7.65-5.88,11.38-.38.63-1.86,3.05-2.46,1.78-.04-1.05,0-1.83.18-2.82.4-.21.62.1.64.95.39-.3,1.83-2.33,2.1-2.83,1.59-2.91,3.12-5.84,4.49-8.88,1.95-2.83,3.09-5.28,4.22-8.49.41-1.18.82-2.35,1.17-3.55.57-1.94.64-2.96.25-4.94.43-2.75.72-5.16-.73-7.66-.66.41-1.18.16-1.56-.74-.13-.62-.62-2.26-.88-2.82Z"/><path class="cls-108" d="M150.05,99.14c1.3-.08,1.56.66,1.22,1.8,1.8,5.46-.24,11.08-2.56,16.16-.62,1.77-.96,3.62-1.01,5.55-.55,1.67-.91,3.32-1.09,4.94.73.48.73,1.26,0,2.36-.55.9-.94,1.79-1.16,2.67-.29.24-.59.47-.88.71-.52-.59.2-1.44.3-1.99.12-.69,0-1.53.09-2.11.05-.4.71-2.56.5-2.78-.43-.43-.76.88-1.23.7-.02-.31-.01-.62.04-.93.63-3.6,3.13-8.85,4.44-12.45.49-1.35,1.88-4.75,2.01-5.98.05-.49-.16-.78-.15-.99,0-.11.33-.08.35-.21.03-.21-.2-.99-.16-1.19.03-.14.31-.03.36-.36.12-.91-.19-3.21-.58-4.03-.24-.5-.96-.82-1.02-1.54.11-.05.29-.25.53-.35Z"/><path class="cls-86" d="M151.46,98.61c.04.48.49,1.54.49,1.88,0,.25-.34.49-.33,1.01,0,.58.4,1.38.49,2,.55,3.82-.66,8.16-1.28,12.02-.43,2.65-1.51,4.39-2.25,6.92-.82,2.82-.6,5.05-1.93,7.94-.24.53-.9.77-.48,1.54-.21.18-.4.45-.7.71-.34-.18-.14-.58-.04-.83.39-1.05,1.24-2.06,1.6-3.17.06-.35-.63-.64-.76-.94-.29-.64.41-2.39.6-3.09.51-1.9.67-2.4.7-4.39.04-2.31,2.07-5.71,2.78-7.99.5-1.59,1.22-4.58,1.31-6.11.02-.34-.21-.66-.2-.87,0-.11.34-.02.38-.36.11-1.1-.77-2.85-.9-3.73-.1-.68.51-1.15-.26-1.68-.39-.27-.71.29-.62-.33.46-.19.95-.34,1.41-.53Z"/><path class="cls-82" d="M61.58,70.93l1.23,3.63c.84,3.06,1.19,5.13.41,8.31-.95,3.91-2.34,9.42-3.95,13.16-.52,1.21-2.34,3.12-3.11,4.47-1.17,2.07-2.23,4.52-3.37,6.67s-2.31,4.59-3.58,6.82c-.18.31-.72,1.37-1.2,1-.08-.57-.15-1.36-.18-1.94.87.29,1.02-.5,1.33-.87,1.84-2.2,3.4-5.55,4.78-8.27,1.09-2.15,1.99-4.83,3.57-6.78.14-.17.46-.12.7-.4,1-1.19,2.42-6.73,2.97-8.49.28-.89,1.29-3.07,1.1-3.8-.04-.14-.34-.1-.35-.23-.13-1.01.42-1.68.6-2.51.47-2.17-.22-6.72-1.17-8.7-.16-.32-.44-.5-.47-.93-.43-.25-.87.19-1.3.07-.61-.16-1.12-1.84-1.89-.86-.1-.22-1.13-1.52-1.06-1.58,1.18.26,2.28.98,3.48,1.19.51.09,1-.02,1.46.04Z"/><path class="cls-24" d="M122.56,128.22l-.46-.42c-1.13-6.89-.85-14.72,1.64-21.28,1.34-2.19,2.68-4.36,4-6.53-.41-.25-.08-.76.28-.86.25.39,1.13,1.39,1.03,1.81-.12.48-1.48,2.44-1.83,3.13-3.56,7.06-4.95,16.28-4.67,24.15Z"/><path class="cls-104" d="M134.54,28.63c.17.38.02.88-.44,1.47,1.83-.23,3.65-.33,5.46-.31,1.64.78,2.78,1.09,4.43.06l.42.18c1.15,1.22,2.44,2.62,3,4.23-.52-.64-2.35-2.19-3.13-2.42-1.11-.33-3.21-.08-4.09.66-.82.03-1.2-.75-2.1-.8-.43-.02-1.4.54-1.73.59-.27.04-.52-.16-.8-.1-.65.15-1.61.77-2.18.83-.68.08-1.35-.34-1.93-.32-.47.01-.96.43-1.49.32.07-.39.07-.66.28-1.04.24-.42,1.31-1.82,1.66-2.22.28-.32,1.43-1.44,1.76-1.5s.71.32.88.35Z"/><path class="cls-30" d="M125.55,135.27c.44-1.84,1.12-1.04,1.37.31.14.73-.24.48-.3.7-.34,1.1.65,4.12.93,5.38.23,1.04.31,2.11.65,3.13l.53-.18c.1.42-.31.74-.3,1.11,0,.33.48,1.68.46,1.77-.1.58-1.14.78-1.19.83-.2.22.4,1.11.35,1.66-.02.25-.65,1.85-.81,1.85-.52-.3-.31-1.07-.53-1.41-.11-.16-.44-.11-.44-.26-.01-.61.97-.58.88-1.14-.53-.25-3.15.86-3.35.7-.02-.02.04-.25-.03-.32-.3-.26-4.91,2.29-5.79,2.52-.81.22-1.96.28-2.82.44-.63-.2-1.28-.37-1.95-.53-.36-.41.44-1.78,1.07-1.58.53.19.79.51,1.29.75.28.13.79.11.83.14,3.12-1.24,6.19-2.78,9.21-4.63.59-.17,1.16-.33,1.72-.48l.71.09c.05-1.41-.73-2.66-1.08-4.03-.51-1.99-1.05-4.77-1.39-6.81Z"/><path class="cls-1" d="M58.58,74.11c.32,0,.84.66.97.66.1,0,.52-.49.79-.3.12.08,1.02,2.42,1.1,2.71.52,1.96-.25,4.02-.22,5.83.01.64.36,1.32.35,1.92-.02,1.1-2.99,9.8-3.65,10.98-.39.7-1.21,1.48-1.66,2.22-1.92,3.23-3.17,6.91-5.05,10.11-.28.48-2.28,3.41-2.59,3.4-.51,0-.23-1.15-.62-1.41.1-.62.2-.74.35-1.23.21-.12.46-.03.75.25,2.24-2.93,4.06-6.15,5.46-9.67,2.87-4.39,4.82-9.39,5.95-14.44-.28-2.09-.45-4.2-.49-6.34-.3-.34-.66-.62-1.09-.83-.05-1.28-.09-2.62-.35-3.88Z"/><path class="cls-28" d="M30.91,98.25c-.1.91,1.18.89,1.05,1.83-.2.65-2.46.58-3.02.68-2.59.47-5.37,2.46-7.53,3.94s-3.05,2.54-4.57,4.59c-1.43,1.93-2.41,7.54-1.78,9.81.04.15.33.12.33.2-.08,1.94.32,3.41.39,5.3.01.42.09.98-.54.97-.8-1.42-1.46-2.44-2.02-4.06-.19-.56-.36-1.17-.45-1.76l.39-.15c1,2.16,1.28,2.25.84.26-.61-7.06,1.83-13.11,8.23-16.62,2.3-2.11,5.02-3.67,7.82-4.82-.15-.04-.15-.1,0-.18-.24-.15-.18-.27.18-.35.28.05.51.29.7.35Z"/><path class="cls-39" d="M121.32,108.3l.12.5c-1.86,7.47-1.59,15.36-.43,22.84.28,1.8.61,3.88,2.61,4.44l.34.41c.09.3.26.58.35.88-.55.06-.93-.02-1.42-.25-1.36-.66-2.78-3.11-3.26-4.49-.4-1.15-.67-2.8-.74-4.02-.47-7.77-.6-14.91,2.78-22.26.08.61-.04,1.25-.35,1.94Z"/><path class="cls-86" d="M183.19,158.19c-.39.96,1.15.65,1.66.72,1.25.17,2.82.1,3.95.46.38.12,1,.44.45.75-.09.05-1.5.54-1.58.55-.82.11-3.28-.19-4.4-.18s-2.94-.13-3.88,0c-2.43.34-3.11.06-5.47-.15-.65-.06-1.93.14-2.59-.02-.13-.03-.22-.44-.65-.62-1.14-.5-3.01-.12-3.71-1.32.05-.12.11-.11.18,0,3.09.59,6.21,1.09,9.34,1.51.43-.52,1.09-.61,1.96-.26l.84-.1c-1.78-.09-4.18-.53-5.83-1.2-.47-.19-1.21-.55-.66-1,3.43.87,6.92.86,10.4.88Z"/><path class="cls-42" d="M58.93,77.98c.27-.16.85-.05,1.07.09.15.09,0,.29.06.39.03.05.24-.01.29.3.21,1.24.09,2.7.17,3.86.18,2.5.45,2.68-.36,5.32-1.44,4.7-2.93,7.34-5.21,11.54-1.89,3.49-3.07,7.66-5.99,10.4l-.61-.88c.39-1.25.92-2.18,1.41-3.35.33-.63.66-.82.99-.57,1.08-1.06,1.88-2.41,2.38-4.05,3.41-4.9,5.12-10.17,6.87-15.82-.24-1.57-.59-3.1-1.07-4.59.03-.85.03-1.79,0-2.64Z"/><path class="cls-5" d="M50.12,55.77l.41.27c.05.86.2,1.7.45,2.51l-.15.39c-.6,1.02-1.85.41-2.55.52-.38.06-.52.45-.73.5-.18.04-.68-.23-.77-.14-.17.17,1.31,3.66.53,4.41-.32-.17-.57-.33-.88-.53l-.35-.44c-.35-1.3-.71-2.55-1.09-3.77l.2-.21-.21-1.88c-.9-1.47.64-4.47,1.99-2.58.95.05,1.93.24,2.94.59l.22.34Z"/><path class="cls-100" d="M127.84,98.96c-.22.43-.2.81.04,1.14-3.35,4.29-5.24,7.96-5.96,13.5-.86,6.58-.66,14.39,1.33,20.61.07.33.25.84.35,1.23-.42.66-1.17.04-1.57-.4-1.26-1.42-1.84-10.2-1.9-12.1-.16-4.91.06-13.34,2.76-17.49,1.6-1.8,2.88-3.84,3.84-6.14.24-.46.54-.75.92-.88.11.17.11.43.18.53Z"/><path class="cls-37" d="M144.76,118.35c1.51-5.81,3.02-11.54.89-17.44.96-.29,1.89-.68,2.81-1.07.51.54.5,1.3.53,2.01.28,6.31-2.28,10.82-4.23,16.49Z"/><path class="cls-85" d="M30.03,98.43c-.75.99-2.16,1.29-3.15,1.87-2.17,1.28-4.66,3.21-6.7,4.75-5.23,3.94-6.02,8.52-5.84,14.8.02.62.6,1.76-.26,1.77-.59,0-.77-1.09-1.01-1.56-.09-.19-.3-.28-.31-.3-.17-.4-.26-.81-.35-1.23.7-1.43,1.09-3.07,1.17-4.94.9-5.13,4.54-8.33,8.69-10.98l.83-.77c1.46-2.05,4.33-4.18,6.93-3.41Z"/><path class="cls-39" d="M101.58,18.05c.09.26.56.49.52.77-.1.66-3.46,1.82-4.21,2.09-.38.14-2.01.45-2.1.51-.1.07-.08.49-.24.64-.48.48-1.53.34-1.94.44-.35.09-1.19.57-1.49.6-.91.11-1.11-.04-2.27.23-4.09.93-7.31-.34-11.41-1.12-1.92-.37-3.35-.57-5.32-.64-.78-.03-2.37-1.16-3.26-1.23.1-.28.11-.5.18-.71l.33-.27c2.19.78,4.5,1.2,6.92,1.27,3.31,1.02,6.64,1.66,10,1.93,2.38-.46,4.76-.82,7.13-1.08l.04-.29c2.02-.68,4.04-1.38,6.06-2.09.37-.22.61-.57.71-1.04.09-.03.25.03.35,0Z"/><path class="cls-29" d="M143.53,8.36c.46,1.01.99,2,.88,3.17-.33.99-.04,3.09-1.4,3.45-.45.12-1.89-.43-2.29-.73-2.32-1.74-.48-7.65,2.81-5.89Z"/><path class="cls-26" d="M127.67,98.43c-.66.66-1.05,1.52-1.45,2.35-.46.94-1.29,2.62-1.89,3.52-.18.26-.95.82-1.24,1.27-3.4,5.13-2.84,19.24-1.92,25.19.14.9.66,3.57,1.15,4.16.26.31.89.52,1.3.53.09.32.25.7.35,1.06-3.3-.48-3.14-4.62-3.5-7.14-1.14-7.9-1-13.18.86-21.06.46-2.1,1.49-3.95,3.08-5.54.69-1.78,1.63-3.32,2.82-4.6l.27.09c.04.06.13.11.18.18Z"/><path class="cls-52" d="M58.76,146.02c-.37.06-.66-.03-1-.14-2.28-.72-4.44-2.03-6.63-2.91-.31-.12-.55.05-.93-.11-.9-.37-1.39-2.06-2.37-2.75-.49-.34-1.32-.42-1.62-.61-.22-.13-.6-.76-.86-.95s-1.26-.57-1.3-.63c-.06-.08-.01-.51-.12-.76-.46-1.1-2.35-1.94-3.31-2.7-1.25-.99-2.41-2.14-3.36-3.42.65.3.84-.06,1.19-.14.73-.16,2.45,1.78,3.12,2.26,1.16.84,2.8,1.7,4.15,2.28.71.31,1.63,1.28,2.29,1.76-.37.52-1.04.45-2.04-.24-1.9-1.24-1.97-1.1-.22.41,3.17,2.92,7.16,6.12,11.25,7.49.77.12,1.41.32,1.93.62-.06.18-.12.35-.18.53Z"/><path class="cls-25" d="M46.07,152.55c.09-.34.93-.19.88.18-.45.14-.74.25-1.23.35-2.72.56-4.5-.23-7.13-.04-4.36.32-7.97.93-11.89,2.96-.8.42-3.27,2.28-3.98,2.2-.62-.08-.44-.75-.45-1.24,2.08-1.03,4.27-2.54,6.34-3.7.93-.13.36.99-.34,1.19,2.47-.65,4.81-1.6,7.11-2.68,1.14.16,1.83-.02,2.91-.43,2.57.48,5.16.89,7.77,1.21Z"/><path class="cls-7" d="M42.19,104.25c-.08,2.07.18,4.08.78,6.03.14,3.96.8,6.94,2.52,10.63,1.33,2.85,3.17,5.67,4.94,8.32,2.41,3.61,4.75,7.08,8.25,9.67l-.1.24c-.25-.05-.46-.11-.7-.18l-1.08-.94c-3.68-2.19-5.29-6.05-7.62-9.57-.96-1.46-2.2-2.81-3.08-4.41-2.07-3.81-5.13-13.64-4.8-17.95.04-.52.14-1.7.71-1.85.04-.01.14-.01.18,0Z"/><path class="cls-63" d="M128.02,99.14l-.26.53.62.09c-.73.96-1.48,1.97-2.12,3-1.67,2.68-2.91,4.81-3.5,7.97-.75,3.95-1.12,9.65-.84,13.66.09,1.24.35,2.64.64,3.85.07,1.92.28,4.11.7,5.99-.7-.56-1.02-2.07-1.19-2.95-1.3-6.81-1.52-18.34,1.28-24.72.47-1.07.98-1.28,1.47-2.06.92-1.47,1.6-3.11,2.85-4.38l-.7-.17.88-.97c.04.06.13.11.18.18Z"/><path class="cls-78" d="M54.88,31.8c.93-.22,1.36.21,1.12,1.14s-3.28,4.2-4.14,4.94c-1.63.9-3,2.25-3.92,3.87l-.47.1c-.06.44-.27,1.06-.46,1.56-1.57,4.14-3.02,8.59-3.37,13.05.29,2.13.74,4.19,1.37,6.2-.47-.08-.86-.56-1.23-.88-1.7-2.73-1.47-6.18-.8-9.23.56-2.55,1.39-5.76,2.2-8.22.4-1.22.96-2.46,1.76-3.35.59-1.13,1.32-2.29,2.37-3.06,2.26-1.15,3.85-2.96,5.18-5.08l-.15-.67c-.27-.41-.16-.53.35-.35.05-.16.11-.15.18,0Z"/><path class="cls-3" d="M25.27,96.84c-.19.31-.6.49-1.25.53-2.13.95-3.93,2.48-5.39,4.58-1.88,1.43-3.54,3.04-4.96,4.83-.31.81-.74,1.43-1.27,1.87.35-2.46,1.63-5.06,3.1-7.04,2.55-3.43,5.44-4.91,9.77-4.77Z"/><path class="cls-4" d="M45.54,112.89c-.29.3-.46.62-.52.97.44,2.91,1.42,5.73,2.63,8.37.5-.12.71.34.35.71.24.61.53,1.19.88,1.76.85.82,1.51,2.06,1.94,3.17l1.38,2.45-.15.2c-.05.1-.11.1-.18,0-.32-.15-.58-.46-.77-.91-3.17-4.88-6.94-10.8-7.42-16.67-.02-2.52-.17-5-.45-7.44l.36-.19c.99.72,2.03,1.43,2.79,2.42-.44,1.69-.86,3.4-.86,5.16Z"/><path class="cls-85" d="M101.23,18.05c.13.21.28.66.15.86-.21.34-5.58,1.93-6.38,2.17-.39.13-.16.37-.11.67-.13.1-1.86.12-2.2.19-2.34.43-4.6,1.03-7.07.88-2.88-.18-5.79-1.43-8.68-1.9-1.31-.21-2.84-.14-4.17-.42-.79-.17-1.89-.71-2.75-.87.09-.26.11-.5.18-.71l.56-.15c1.96.55,3.96.91,6.01,1.06,3.18.86,6.39,1.56,9.63,2.08,2.57-.22,5.22-.56,7.75-1.18.14-.35.44-.27.74-.04,1.97-.6,3.79-1.29,5.46-2.05l.18-.24c.2-.07.43-.26.7-.35Z"/><path class="cls-53" d="M146.17,151.31c.49-.27,1.07-.3,1.62-.23,6.93.33,12.67,2.7,18.96,5.31-.36-.59-.41-1.05-.14-1.38.3.12.59.24.88.35.46.34,1.09.68,1.9.99l.04.24,2.14.98c.4.17,1.21.91.78,1.28-.77.66-8.57-2.16-9.79-2.62-5.45-2.44-10.82-4.54-16.92-4.75.15-.04.19-.15.53-.18Z"/><path class="cls-32" d="M48.01,137.21c1.05.31,2.86,2.21,4.05,2.64.28.63-.46.51-.92.21-.17-.23-1.92-1.27-1.84-.75.08.55,8,5.53,9.64,5.42l.17.23c-.06.18-.12.35-.18.53-1.74-.06-3.82-.97-5.41-1.73-1.33-.63-2-1.32-3.11-2.18-2.49-1.92-4.55-3.37-6.64-5.7-.45-.5-1.61-.69-1.15-1.49,1.37,1.02,2.91,2.07,4.49,2.74.32.14.68.02.88.08Z"/><path class="cls-115" d="M76.21,18.05l-.16.41-2.7.24c2.13.22,4.3.46,6.42,1.15,4.67,1.87,9.66,1.41,14.32.56.02,0-.41.11-.43-.08.6-.36,1.62-.22,2.29-.35.38-.07,1.05-.13.59.23l-1.65.48c-2.47.99-3.32.72-5.71,1.07-.62.09-.89.45-1.6.51-2.69.23-7.69-1.54-10.63-2.06-2.27-.4-4.59-.33-6.73-1.29.04-.12-.09-.21.11-.37,1.02-.82,3.47-.99,4.73-.86.52.05.79.26,1.15.35Z"/><path class="cls-51" d="M147.23,150.78c4.62-.32,9.24.76,13.56,2.31l3.71,1.04c.92.19,1.35.59,2.11.88l.45,1.23c.15.23.84.12.16.71-1.22-.44-2.43-1.03-3.65-1.46-1.7-.59-2.76-.95-4.34-1.69-2.7-1.27-10.14-2.75-13.07-2.49.25-.38.72-.38,1.06-.53Z"/><path class="cls-18" d="M58.93,80.63l.65.47.75,4.18c-1.42,3.1-2,7.14-3.48,10.11-.6,1.2-1.68,2.48-2.33,3.66-.9,1.64-1.6,3.36-2.38,5.02-.19.4-1.26,1.33-1.58,1.77l-.09-.7-.7.53c.17-.42.35-.82.53-1.23.77-1.13,1.44-2.31,2-3.56l.46-.14c.17-.15.29-.33.41-.53,2.8-4.63,4.46-9.57,5.94-14.68.04-.44,0-1.68-.53-1.19.15-1.24.3-2.45.35-3.7Z"/><path class="cls-84" d="M52.59,31.62c.31-.44.57-.07.46.43.67,1.03.33,2.12-1.04,3.25.29.44.08.87-.63,1.28-1.78,1.02-3.19,2.03-4.19,3.87l-.23-.02c-.22.82-.73,1.89-1.41,2.29-1.14,2.27-1.96,4.75-2.45,7.42-.65,1.69-1.03,3.48-1.13,5.36-.81,1.14-1.4-.73-1.46-1.46-.15.27-.33.36-.6.14-.03-.27-.16-.57-.18-.71.24-.36.39-.92.47-1.66.25-1.23.9-1.03,1.09.06-.18-.91-.02-1.54.46-1.89,1.18-4.36,3.15-8.05,5.44-11.83.22-.52.42-1.11-.06-1.42l-.06-.19c1.27-1.16,2.52-2.33,3.76-3.51.55-.44,1.05-1.15,1.76-1.41Z"/><path class="cls-61" d="M140.18,28.27c.87-.48,1.63-.21,2.47.18.81.61,1.07.85,1.76,1.59-.67.35-1.83.87-2.57.89-.67.01-2.01-.8-2.81-.9-.88-.11-4.89.72-5.37.36.11-.7.57-1.16.88-1.76,2.42.49,3.56-.27,5.64-.35Z"/><path class="cls-22" d="M43.6,105.31c-.06.51.15.99.18,1.49.17,2.79-.09,6.04.51,8.82.83,3.85,5.38,11.38,7.59,14.9,1.07,1.17,1.95,2.52,2.81,3.84v.39s-.29.03-.29.03c-3.43-4.18-6.3-9.02-8.9-13.82-2.13-3.96-2.5-8.14-2.58-12.52-.83-.72-.94-2.99-.39-3.83.44.26.65.41,1.06.71Z"/><path class="cls-106" d="M47.12,36.74c.22-.06.47-.01.7-.18.04.36-.02.68-.12,1.03-.48,1.72-2.47,4.42-3.33,6.19-1,2.07-1.48,4.31-2.36,6.4-.04.11-.32.1-.36.25-.2.9.36,2.51-.71,3.05,0-.77.09-1.58-.27-2.29-.5.44-.44,1.14-.56,1.74-.06.31.08.66-.41.55,0-.06,0-.12,0-.18l.31-2.84.4-.16c.54-1.76,1.13-3.52,1.79-5.26,1.44-2.41,2.89-4.79,4.36-7.12-.3-.21-.29-.49.02-.84,0-.06-.01-.13,0-.18.23-.24.41-.3.53-.18Z"/><path class="cls-60" d="M47.48,41.85c.71-.49.71.39.15.82l-.32,1.12.25.37c-.11.71-.25,1.41-.42,2.1.48.05.46.22,0,.35-.01,1.13-.59,2.67-1.23,3.7.3.45-.17,1.5-.7,1.59-1.32,3.07-1.27,6.06.07,9.17l.35,1.61-.25.32c-.13-.13-.22-.11-.35-.35-.27-.48-.94-2.42-1.11-3.03-1.12-4.06.05-7.64,1.13-11.49.72-2.56,1.08-3.93,2.45-6.28Z"/><path class="cls-66" d="M63.87,113.77c.9.09.72.81.93,1.27,2.16,4.64,5.38,8.11,7.41,12.86,1.76,4.09,2.75,8.51,4.08,12.67.41,1.29,1.54,2.85.97,4.23-.05-.02-.13.02-.18,0-.3-.2-.4-.54-.31-1.03-2.12-7.41-4.9-14.59-8.34-21.54-1.22-1.77-2.42-3.58-3.53-5.34-.45-.71-.96-1.76-1.04-2.59.01-.17-.03-.37,0-.53Z"/><path class="cls-91" d="M77.09,144.79c-.27-.11-.46-.19-.7-.35l-.23-.29c-2.17-8.07-5.1-16.61-9.29-23.86-.12-.05-.24-.17-.35-.35-.73-1.31-2.71-3.97-2.78-5.26-.02-.27.14-.36.14-.38l1.87,3.69c5.1,6.35,7.2,13.6,9.68,21.17.6,1.84,1.77,3.66,1.67,5.64Z"/><path class="cls-65" d="M46.95,40.97c0,.79-.54,1.08-.91,1.82-1.01,1.99-1.32,4.97-1.96,7.2-.9,3.16-1.61,4.98-1.16,8.5.13,1.04.86,2.18.87,3.28-2.46-2.12-3.12-3.73-3.7-6.87.45-.6.8-.2,1.05,1.22.84,2.79,1.07,2.96.71.49.15-2.08.43-4.5,1.24-6.43.53-2.63,1.35-5.11,2.46-7.44.39-.93.88-1.51,1.41-2.29.23.08.23.26,0,.53Z"/><path class="cls-44" d="M26.68,97.02c.06.29-.19.45-.73.49-1.29.06-2.2.23-3.24,1.05-.57.45-1.47,1.25-1.12,1.95-1.5,1.41-3.1,2.72-4.78,3.94-2.48,2.17-3.38,4.08-4.48,7h-.26c.08-1.06-.04-1.71.35-2.81,1.41-3.95,3.77-4.65,6.26-7.23,1.13-1.17,1.7-2.28,3.2-3.32,1.25-.86,2.02-.84,3.41-1.26.59.02.89.1,1.41.18Z"/><path class="cls-70" d="M164.5,154.13c-.59-.12-1.38-.09-1.98-.22-2.58-.54-4.98-1.69-7.67-2.2-2.48-.47-5.11-.55-7.62-.93,2.76-1.25,5.31-.67,8.18.01,3.08.73,6.29,1.84,9.09,3.34Z"/><path class="cls-79" d="M73.39,147.26c-1.07-3.07-2.11-6.16-3.11-9.27.38-1.78,1.99,1.02,1.94,1.87.49.44.82,1.08.99,1.94.2.44.23.76.35,1.06-.51,2.89,3.49,11.98,6.63,11.95,1-.39,2.07-.3,2.54.75-.11.15-.74.81-.88.88-.26.02-.48-.15-.66-.5-3.46.12-5.12-2.53-6.56-5.24-.21-.4-1.48-3.07-1.4-3.22.04-.07.09-.14.16-.2Z"/><path class="cls-79" d="M42.54,104.6c0,.95,0,2.13.22,3.05.12.51.5.43.5.74.09,4.96.14,8.19,2.6,12.73,1.72,3.18,3.97,6.85,5.95,9.91.83,1.29,1.7,2.76,2.89,3.72l.4.12c1.32,1.51,2.7,2.97,4.38,4.07l.15.39c-.42-.05-.65-.09-1.06-.18-.38-.51-1.04-.83-1.5-1.24-4.06-3.61-7.37-9.69-10.55-14.27-.75-1.08-3.52-8.14-3.64-9.44-.04-.4.28-.62.29-.87,0-.2-.48-2.72-.58-3.05-.46-1.52-.56-1.13-.58-2.76-.01-1.09-.33-2.2.16-3.26.23.06.29.31.35.35Z"/><path class="cls-19" d="M172.79,147.61c1.34.06,3.11.54,4.58.71.21.58-1.47.52-1.67.49-2.53-.37-3.22-.73-5.99-.49-.39.03-3.1.29-3.24.38-.02.01-.21.39-.21.42,0,.1.55,0,.35.44l-7.05.53c-.62-.22-1.35-.33-1.94-.53-.26-.27-.23-.41.12-.49,4.8-.81,9.62-1.34,14.46-1.58l.58.13Z"/><path class="cls-113" d="M76.21,18.05c1.48.36,2.5.81,3.88,1.41,3.06,1.09,6.32,1.46,9.78,1.12.98.17,1.18.15.61-.06.91-.29,2.2-.22,3.17-.18.2,0,.57-.12.53.17-1.14.19-2.48.59-3.61.71-2.65.27-4.91.36-7.56-.19-2.35-.49-4.68-1.28-7.11-1.7-.91-.16-2.61-.01-3.3-.57-.15-.13-.02-.23.08-.26,1.09-.41,2.44-.06,3.53-.44Z"/><path class="cls-113" d="M58.58,84.33c.23-.53.2-.62.88-.53-.22.69.07,1.32-.01,2.01-.12,1.06-.97,2.72-1.31,3.81-1.44,4.64-2.3,6.41-4.81,10.52-.15.25-.28.47-.56.58l-.12-.52c1.05-1.82,2.02-3.67,2.82-5.61.38-.92.8-2.25.82-3.21,1.01-2.39,1.39-5,2.29-7.05Z"/><path class="cls-10" d="M127.32,146.02c-.1.67-1.19.62-1.58.8-2.46,1.16-4.9,2.84-7.43,4.03-.21.1-1.72.65-1.82.64-.16,0-.09-.35-.1-.36.39-.38.78-1.07,1.15-1.41.32-.29.79-.39.97-.53.12.06.22.1.28.06,1.28-.79,2.52-1.66,3.74-2.55,1.06-.63,2.9-1.48,4.13-1.6.13-.01.23.1.31.21.13.21.4.35.35.71Z"/><path class="cls-40" d="M41.13,151.49c.04-.15.1-.15.18,0,1.52.44,3.09.72,4.68.84l.08.21c-2.54-.05-4.77-.49-7.18-.84-1.05-.15-1.34.39-2.08.48-.53.07-1-.19-1.36-.14-.32.05-2.14,1.11-2.74,1.32-.9.33-4.32,1.5-5.05,1.57-.07,0-.48-.1-.44-.19.21-.56,2.06-.77,1.41-1.5.16-.09.33-.24.53-.35l1.69-.59.24.24,2.3-.61c2.63-1.33,4.93-1.34,7.75-.44Z"/><path class="cls-68" d="M30.03,98.25c-.02.05.03.14,0,.18-1.84-.22-4.1.82-5.47,2.02-.87.77-1.47,1.84-2.38,2.55s-2.19,1.31-3.16,2.12c-2.76,2.31-4.31,4.91-5.15,8.42-.28,1.16-.35,3.67-.73,4.55-.17.39-.29.47-.72.42-.09-.41-.12-.65-.18-1.06.22-.74.39-1.51.55-2.28.94-4.36,1.64-7.1,5.27-10.06.07-.05.19-.03.34,0,.74-.48,1.44-1.01,2.11-1.59.17-.62,1.28-1.44,1.94-1.41l.7-.88c-.08-.15,0-.21.18-.18.32-.14.55-.39.7-.71-.3-.37.09-.76.53-.53,1.07-1.05,2.42-1.7,4.05-1.94.06-.15.12-.15.18,0,.57-.02.99.1,1.23.35Z"/><path class="cls-93" d="M29.85,97.9c-.27.11-.62.11-1.06,0-.06,0-.12-.01-.18,0-1.63.24-2.98.89-4.05,1.94-.27.21-.36.39-.53.53-.14.32-.38.57-.7.71-.06.06-.12.12-.18.18l-.7.88c-.63.55-1.28.93-1.94,1.41-.67.57-1.38,1.1-2.11,1.59-2.62,2.3-3.93,4.12-4.88,7.54-.39,1.38-.43,2.9-.77,4.17-.09.34-.18.49-.52.63-.06-.43-.13-.98-.18-1.41.77-4.09,1.98-8.24,5.38-11.01,2.25-1.56,4.28-3.3,6.09-5.22.04-1.58,1.84-1.92,3.15-1.92.01-.3.59-.51.7-.18.46-.14.93-.2,1.41-.18.36.11.79.14,1.06.35Z"/><path class="cls-21" d="M47.83,151.31c.08.18.05.49-.04.48-3.58-.44-7.94-1.57-11.44-2.64-.13-.04-.23-.16-.32-.31.58-1.12-.62-.97-1.41-.71l-1,.16c-1.42-.74-2.97-.98-4.66-.74l-.33-.31c.75-.44,3.17-1.71,3.92-1.55.38.08,2.1,1.29,2.65,1.58,4.33,2.27,7.81,3.24,12.63,4.02Z"/><path class="cls-2" d="M27.39,97.2c.07.25-.1.4-.51.46l-2.22.32c-.9.17-2.24.88-1.69,1.92-1.92,1.93-4.03,3.68-6.33,5.24-2.5,2.43-3.75,5.57-4.54,9l-.22.17c-.05-1,.11-2.01.18-2.82l1.8-4.11c1.47-3.02,5-4.49,7.11-6.64.68-.7.19-.41.11-.83-.1-.51,2.5-2.19,3.04-2.36.92-.28,1.82.05,2.57-.52.34.05.48.13.7.18Z"/><path class="cls-34" d="M66.86,120.29c.86.93,1.63,2.38,2.21,3.52,2.92,5.78,5.04,12.45,7.08,18.65.17.52.61,1.52.23,1.98-.06-.04-.24,0-.35-.09-.48-.42-1.49-4.45-1.77-5.37-2.13-6.1-4.47-12.13-7.23-17.98-.07-.12-.12-.24-.18-.35-.08-.16-.08-.28,0-.35Z"/><path class="cls-119" d="M75.32,146.73c-.11.16-.17.28-.18.45-.03.54,1.48,3.61,1.83,4.22,1.09,1.9,2,2.46,4.23,2.39.69.15,1.85.55,1.7,1.4-.06.15-.08.21-.18.35-.43-.01-1.05-.63-1.36-.67-.5-.06-.9.62-2.15.03-2.72-1.29-6.26-8.59-6.02-11.46.03-.35.02-.43.36-.6.56,1.33,1.12,2.59,1.76,3.88Z"/><path class="cls-23" d="M60.17,138.44c-3.72-2.33-6.72-6.87-9.17-10.61-.42-.65-2.91-4.75-2.72-5.12.06-.12.27-.13.44-.14,2.23,3.93,4.96,7.49,7.76,11.01,1.29,1.63,2.81,2.86,3.7,4.85Z"/><path class="cls-53" d="M52.06,139.86c.61.25,1.09.68,1.59.88,1.58,1.44,3.4,2.56,5.44,3.37l.2.34c-.06.18-.12.35-.18.53-2.09.05-3.86-1.25-5.53-2.32-1.15-.74-2.58-1.58-3.71-2.44-.42-.32-1.08-.59-.98-1.23,1.31-.53,1.85.66,2.85.97.26.08.31-.1.33-.09Z"/><path class="cls-30" d="M144.94,151.84c1.84-.08,3.63.12,5.35.58.59.55,1.45.8,2.56.74.8.04,1.36.32,1.69.83,4.32,1.15,8.54,2.54,12.67,4.17l-.07.2c-.06-.01-.12.01-.18,0-4.72-1.23-9.42-2.96-14.06-4.36-1.54-.47-4.27-.8-6.03-1.19-.99-.22-2.88-.24-3.88-.09.52-.54,1.29-.63,1.94-.88Z"/><path class="cls-40" d="M145.29,151.67c3.73-.11,7.58.69,11.12,2.01,4.37,1.89,8.79,3.75,13.43,4.92,1.04.27,2.01.36,3.04.16-.94-.95-2.08-1.66-3.44-2.14-.67-.25-1.06-.57-1.67-.89-.12-.06-.69-.21-.27-.35,1.7.67,3.52,1.49,5.29,1.94.15.83.84.58,1.41.79,1.4.51,2.84.84,4.31,1.06.51.08,1.2-.21,1.85.26.21.29-1.6.54-1.85.54-.66,0-1.73-.68-1.76.34-3.24-.53-6.44-1.13-9.6-1.94-.12-.32-.38-.38-.66-.48-3.94-1.43-8.06-2.61-12.08-3.57-.15-.04-.22-.41-.52-.58-.51-.28-2.6-.24-3.44-.6-.32-.14-.27-.55-.7-.72-1.22-.5-3.48-.13-4.81-.57.1-.04.2-.13.35-.18Z"/><path class="cls-75" d="M73.39,147.26c.34.59.35.84.62,1.41,1.3,2.77,2.74,6.27,6.19,6.86.98.16,1.25-.33,1.66.9-.73.41-1.79.48-2.6.22-.64-.21-2.77-2.4-3.22-3.04-2.75-3.87-3.96-8.65-5.29-13.22l.3.02c.77,2.31,1.55,4.59,2.35,6.86Z"/><path class="cls-111" d="M170.14,146.91l-.14.2-10.49.85c-1.33.23-2.61.52-3.82.88-.31-.09-.75-.08-1.06-.18-.07-.53,1.31-1.03,1.84-1.21,2.14-.45,4.3-.89,6.49-1.3.61-.16,1.31-.36,1.71-.84l5.46,1.59Z"/><path class="cls-77" d="M46.6,37.09c-.05.69.34.5.36.64.08.56-1.37,2.4-1.73,3.01-1.11,1.85-3,4.64-3.66,6.57-.17.49-.09,1.1-.31,1.63-.15.38-.68.89-.83,1.37-.38-1.64.47-3.82,1.11-5.44.73-1.85,1.67-3.6,2.95-5.14.57-.93,1.25-1.92,2.11-2.64Z"/><path class="cls-99" d="M159.04,145.14l.29.1c1.67-.5,3.49-.34,5.18.08.06,0,.12,0,.18,0,.27.33.05.4-.19.6-1.03.87-6.2,1.3-7.92,1.78l-1.94.97c-.3-.09-.58-.26-.88-.35-.04-.13-.08-.34,0-.38,1.07-.62,2.67-1.16,3.9-1.2-.47-.16-.72-.4-.74-.71.69-.32,1.42-.58,2.11-.88Z"/><path class="cls-46" d="M56.82,31.62c-.04,1.23,0,1.51-.73,2.53-1.71,2.39-4.02,4.32-5.79,6.64-.62,1.16-1.1,2.39-1.43,3.69l-.51.54c.03.08.05.17.04.25,0,.08-1.1.95-1.28.99-.08-.82-.15-1.62.18-2.47.66-2.58,2.57-4.67,4.88-6.14.69-.64,3.91-4.33,4.03-4.97.11-.54-.82-1.11-1.33-.88-.06.02-.13-.02-.18,0-.59.46-1.1-.34-.35-.53.82.06,1.66.27,2.47.35Z"/><path class="cls-109" d="M45.54,42.73c-1.12,2.67-1.75,5.74-2.65,8.54-.53,1.66-.63,3.36-.71,5.11-.02.49.2,2,.17,2.11-.03.13-.26.31-.43.27-.43-.09-1-2.08-1.14-2.58-.1-.34-.07-.95-.18-1.19-.08-.18-.36.07-.53-.11-.04-.22-.14-.41-.18-.71.34-.11.43-1.15.88-.71.09.09.08,2.95.97,1.76.4-.54.26-2.9.49-3.74.09-.34.55-.88.72-1.4.55-1.71.81-3.7,1.45-5.43.23-.63.57-1.6,1.14-1.94Z"/><path class="cls-98" d="M56.29,91.38c.62.55.11.92.04,1.37-.35,2.48-2.34,5.69-3.57,7.98-.69,1.27-1.34,2.78-2.47,3.7,1.92-4.38,4.13-8.64,5.99-13.04Z"/><path class="cls-10" d="M170.14,146.91c.45,0,1.04.06,1.41.35l-.24.22-9.37.9c-1.86.28-3.71.55-5.54.81-.27-.08-.54-.3-.7-.35.23-.42.73-.57,1.16-.7,3.16-.95,6.95-.74,10.21-.89.95-.04,2.14-.35,3.09-.35Z"/><path class="cls-24" d="M53.65,31.27c.3.26.54.56.7.88.37.09.57.22.48.77-.02.12-1.17,1.73-1.36,1.97-1.66,2.08-2.94,2.28-4.59,3.69-.66.56-1.19,1.83-1.93,2.39,0-.18,0-.35,0-.53.47-.69,1.16-1.85,1.76-2.39.88-.8,2.4-1.21,3.18-2.29l-.35-.52c.57-.57,1.89-1.75,1.56-2.62-.1-.27-.44-.25-.48-.31-.02-.03.12-.37.13-.57,0-.16-.15-.11-.15-.12.01-.12.2-.35.18-.53.29.16.55.17.88.18Z"/><path class="cls-74" d="M48.71,122.58c-.26.37-.03.83.14,1.18,2.03,4.17,5.43,8.6,8.49,12.08.83.95,1.76,1.91,2.82,2.6.1.23.11.3.18.53-1.36-.69-2.71-1.76-3.74-2.99-2.12-2.54-4.19-5.22-5.78-8.11-.68-1.04-1.28-2.12-1.94-3.17-.35-.57-.64-1.15-.88-1.76-.13-.25-.22-.4-.35-.71-.24-.46-1.1-2.26-.99-2.65.04-.15.17-.25.28-.34.73,1.03,1.14,2.26,1.76,3.35Z"/><path class="cls-96" d="M70.74,140.38c-.52-1.77-1.19-3.59-1.58-5.39-.08-.38-.44-1.5.08-1.66.9-.28,1.34,2.03,1.56,2.58,0,.02.45.59.46.24.69,1.85,1.5,3.71,1.94,5.64-.13-.29-.58-1.35-.69-1.47-.15-.18-.45-.06-.56-.22-.26-.39-.49-2.03-1.04-2.28-.21-.09-.24.07-.35.19l2.81,9.24s-.19-.07-.31-.3c-.96-1.87-1.03-4.77-2.34-6.57Z"/><path class="cls-3" d="M40.43,50.31l-.7,3c-.31-4.3.18-7.04,2.46-10.67.63-1,1.42-2.13,2.29-2.9-1.97,3.19-3.48,6.86-4.05,10.58Z"/><path class="cls-67" d="M45.19,52.07l.31.26c-.17,1.26-.44,2.5-.82,3.71.23,1.08.43,2.15.51,3.26.06.56.63,1.56.83,2.25s.41,1.43.4,2.15c-.35-.23-.75-.4-1.06-.71-.28-.59-.3-1.38-.47-1.94-.51-1.7-1.08-2.74-1.05-4.7.04-2.26.39-2.63,1.34-4.47.1.05.1.11,0,.18Z"/><path class="cls-38" d="M35.32,149.55l.31-.14,8.74,2.22.12.39c-1.07.11-2.16-.18-3.17-.53-.06,0-.12,0-.18,0-2.78-.87-5.13-.89-7.77.45l-2.28.61c-.65.12-1.23.49-1.94.35,2.02-1.14,4.24-2.07,6.17-3.35Z"/><path class="cls-31" d="M26.68,97.9c-.48.09-1,.12-1.46.22-.2.04-1.1.79-1.16.96-.68,1.98-3.35,3.6-5.03,4.93-3.57,2.83-5,4.75-6.2,9.22-.24.9-.11,2.09-.78,2.83-.03-.34.02-.71,0-1.06.53-3.59,1.84-7.71,4.93-9.87,1.09-1.11,2.33-2.15,3.74-3.13.98-.68,1.76-1.47,2.35-2.38-.67-1.49,2.43-1.9,3.49-1.9.04,0,.07.08.11.18Z"/><path class="cls-118" d="M53.65,140.74c1.97.81,4.04,1.54,6.17,1.76.05.71-.33,1.3-.53,1.94-1,.14-1.49-.63-2.24-1.03-1.27-.68-2.96-1.09-3.4-2.68Z"/><path class="cls-102" d="M75.32,146.73c.44.87.94,1.79,1.41,2.64.44,1.48,1.13,3,2.47,3.88.05.02.12-.01.18,0,1.81-.44,3.04-.03,3.7,1.23,0,.43-.06.4-.18.71-.78-1.56-2.79-.83-3.91-1.28-.49-.19-1.22-.86-1.55-1.28-.65-.82-2.62-4.53-2.65-5.47-.02-.57.01-.45.54-.44Z"/><path class="cls-35" d="M74.27,138.97l-7.23-17.98c3.08,5.63,5.4,11.82,7.23,17.98Z"/><path class="cls-73" d="M172.79,147.61c-1.37-.06-2.93.4-4.32.53-3.31.3-6.81.4-10.04,1.06-.3.06-.62.02-.8.35-.42-.14-.82-.23-1.23-.35,1.16-.42,2.41-.69,3.64-.86,3.3-.45,8.29-1.04,11.52-1.08.37,0,.94.11,1.23.35Z"/><path class="cls-56" d="M63.16,84.86c.65-3.09,1.36-6.07.58-9.3-.2-.81-1.32-4.42-1.99-4.62l.35-.35c.02.06.79.64.97.88.74.95,1.2,2.06,1.32,3.27.19,1.97.3,6.06-.26,7.84-.24.75-.74,1.52-.97,2.29Z"/><path class="cls-6" d="M31.26,149.55c-.58.19-1.18.35-1.76.53l-2.73-.7c-1.42.24-3,.32-4.32.53.74-.46,1.63-.88,2.47-1.06,1.11-.69,5.7-.9,6.44.21.08.13-.02.34-.1.5Z"/><path class="cls-57" d="M145.65,151.49c3.08.25,6.64.48,9.6,1.42,1.61.51,3.55,1.49,5.02,2.21,1.65.81,3.05,1.15,4.77,1.75,2.47.86,3.83,1.57,6.56,1.91.17.02.42.17.49-.15.23-1.13-2.11-1.29-2.64-2.02,1.58.59,1.87.55,3.26,1.58.69.51.98.66,1.85.8-.24.37-.42.2-.7.19-8.8-.21-16.77-6.22-25.47-7.33-.96-.12-2.11-.13-3.08-.18.09-.03.2-.13.35-.18Z"/><path class="cls-13" d="M45.54,112.89c0,2.48.85,4.09,1.41,6.35.22.89.25,1.93.7,3-.65-.83-1.28-2.17-1.67-3.17-.62-1.61-.95-3.33-1.29-4.9-.11-.5.13-1.42.84-1.27Z"/><path class="cls-39" d="M127.49,98.25c-1.33.94-1.74,2.77-2.5,4.11s-2.42,2.9-3.04,4.19c-.26.54-.21,1.27-.63,1.75.13-.56.22-1.34.35-1.94.17-.36.8-1.89.87-1.99.15-.23.78-.54,1.07-.92,1.07-1.4,1.47-3.36,2.55-4.67.26-.32.63-.65.97-.88.04.07.23.17.35.35Z"/><path class="cls-41" d="M47.83,151.31c.7.11,1.37.28,2.11.18l-1.76.7c-1.11.06-2.52-.26-3.65-.52-2.9-.66-5.95-1.44-8.8-2.24-.04-.01-.06-.11-.07-.24.08-.05.13-.33.35-.35,3.7,1.06,7.06,2.19,10.93,2.56.26.02.7.26.88-.09Z"/><path class="cls-91" d="M27.03,147.96c.96-.47,1.94-.41,2.98-.33s2.71.25,3.37,1.03c-.71.27-1.38.63-2.11.88-.34-.81-1.56-.82-2.38-.88-1.17-.09-2.83-.06-3.96.17.58-.38,1.44-.81,2.11-.88Z"/><path class="cls-83" d="M28.09,97.37c.03.19-.2.31-.7.35-.29.05-.5.14-.7.18-.86-.14-3.25.2-3.45,1.23-.04.2.2.33.21.45,0,.95-5.42,4.58-6.45,5.55-.21.15-.33.15-.35,0,1.75-1.73,4.01-3.04,5.46-4.68.15-.17.48-.24.51-.29.13-.22-.24-.7-.13-1.08.05-.18.76-.73.95-.83,1.32-.7,2.74-.28,3.97-1.06.28.06.44.11.7.18Z"/><path class="cls-43" d="M126.96,145.32c-.66.27-1.41.2-2.11.48-2.14.85-3.78,2.7-5.87,3.62-.34.15-.54.32-.48-.22,1.1-.88,2.29-2.04,3.58-2.68.59-.29,4.03-1.68,4.48-1.7s.3.34.4.5Z"/><path class="cls-13" d="M48.18,152.19c-.24.26-.58.25-.88.35-.97-.12-1.91-.3-2.82-.53l-9.16-2.47c.05-.04.18-.23.35-.35l12.51,3Z"/><path class="cls-94" d="M34.61,148.14c-.28.09-.83.38-1.23.53-2.02-.56-4.24-.94-6.34-.71.38-.38,1.06-.63,1.59-.71.71-.1,2.71-.11,3.42.01.88.16,1.59.92,2.57.87Z"/><path class="cls-58" d="M60.34,139.5c-.25.08-.53-.15-.7-.18-1.8-1.35-3.52-2.82-4.93-4.58-1.05-1.3-1.93-2.81-2.82-4.23h.18l.35.06c2.25,3.41,4.91,6.32,7.98,8.73l-.05.2Z"/><path class="cls-69" d="M90.48,20.52c.38.03,1.21-.18,1.41.17-3.53.21-8.08.58-11.39-.87-.29-.12-.39-.35-.42-.37,3.15,1.18,6.52.71,9.79.88.27.01.48.17.61.18Z"/><path class="cls-51" d="M140.53,133.16c.49.08.3-.45.8-.54.27-.05,1.33.17,1.47.39s-.27,1.57-.33,1.9c-.36.25-.7.47-1.06.71-.09-.34-.18-.7-.26-1.07-.37.24-.69.36-.97.37-.11-.64.23-1.2.35-1.76Z"/><path class="cls-51" d="M60.34,138.97c.03.12.45.38,0,.53-.55-.83-1.56-1.22-2.29-1.85-2.45-2.13-3.69-4.83-5.99-7.14l-1.23-2.64c1.79,2.76,4.18,6.04,6.34,8.55.83.96,2.23,1.69,3.17,2.56Z"/><path class="cls-95" d="M114.27,150.26c-.36.46-.74.81-.88,1.41.73.02,1.42-.07,1.76.71-.84.15-1.32.61-2.35-.03-.74-.46-.69-2.87,1.47-2.09Z"/><path class="cls-23" d="M156.93,146.02l.97.34c.52,1.17-.94.51-1.72.94l-2.42,1.01c-.27-.08-.98,0-1.06-.35,1.43-.6,2.82-1.3,4.23-1.94Z"/><path class="cls-9" d="M16.99,105.13c-3.03,2.88-3.98,5.88-4.93,9.87,0-.08-.16-.34-.18-.71.76-2.49,1.35-5.42,3-7.49.5-.63,1.2-1.12,1.76-1.67h.35Z"/><path class="cls-88" d="M164.5,145.32c-1.37-.11-3.55,0-4.93.09-.32.02-.61.32-.53-.27.69-.31,1.35-.72,2.03-1.06l3.44,1.23Z"/><path class="cls-20" d="M140.18,134.92c.8-1.39,1.93-.57,1.23.71-.26.17-1.55,1.26-1.76,1.06.15-.58.22-1.23.53-1.76Z"/><path class="cls-62" d="M68.98,17.7c-.24.91-.44,1.2-.88,1.94-2.46-.21-.51-1.92.88-1.94Z"/><path class="cls-80" d="M50.83,33.03c-.51,1.82-2.74,2.21-3.7,3.7-.17.05-.34.17-.53.18.03-.1,1.23-1.51,1.4-1.68.83-.81,1.95-1.49,2.83-2.2Z"/><path class="cls-11" d="M100.53,18.4c.52.36-.53.71-.71.79-1.5.63-3.35,1.15-4.93,1.5.5-.2.98-.55,1.59-.53.06-.29-.26-.15-.53-.17,1.6-.31,3.07-1.03,4.58-1.59Z"/><path class="cls-15" d="M83.08,154.49c-.48-.36-.86-.71-1.45-.93-.85-.32-1.45-.15-2.26-.3,1.44-.37,3.69-1.04,3.7,1.23Z"/><path class="cls-15" d="M79.2,153.25c-1.48-.47-2.41-2.39-2.47-3.88.74,1.35,1.39,2.76,2.47,3.88Z"/><path class="cls-58" d="M44.48,152.02c.92.13,2.06.05,2.82.53-.12.04-.23.14-.35.18-.15-.28-.6-.17-.88-.18-1.52-.54-3.4-.11-4.76-1.06,1.06.16,2.1.38,3.17.53Z"/><path class="cls-37" d="M142.65,28.45c-.85.1-1.62-.21-2.47-.18,1.45-1.17,1.42-.61,2.47.18Z"/><path class="cls-112" d="M144.24,15.76c-.06.21-.05.18-.18.35-.08.11-.61.52-.76.5-.13-.01-.91-.3-.82-.59.17-.54.57.14.79.09l.27-.71.7.35Z"/><path class="cls-49" d="M54.35,31.27c0,.42-.12.61.35.53-.12.06-.24.26-.35.35-.61-.15-.78.01-.7-.88.23,0,.47-.02.7,0Z"/><path class="cls-31" d="M28.8,97.55c-.43.3-.98.11-1.41.18l.7-.35c.24.06.41.09.7.18Z"/><path class="cls-114" d="M29.85,97.9c.11.01.25-.02.35,0,0,.15-.13.25-.18.35l-1.23-.35c.26-.04.78-.03,1.06,0Z"/><path class="cls-35" d="M66.86,120.29v.35c-.14-.26-.24-.51-.35-.71.2.05.25.24.35.35Z"/><path class="cls-87" d="M126.79,47.14c.05.22.42.32.53.49.6.97,1.38,2.84,1.06,3.92-.15.51-.48,1.17-1.06,1.23-.38-.03-.71-.07-.53-.53-.47.13-.5,0-.18-.35-.51,0-.61-.23-.18-.53-.46-.19-.45-.34,0-.53-.25-.13-.4-.37-.43-.72-1.04.47-2.11.81-3.23,1.04l-.22-.14c-.04.15-.1.15-.18,0-1.36.21-2.93.21-4.23,0-.84-.13-1.69-.07-2.53.02l-.12-.2c-1.79-.08-3.58.31-5.31.85-6.51,2.56-13.35,3.14-20.34,2.87l-3.26.16-.29.24c-1.38.04-2.75.13-4.12.29l-.21.24c-1.16.1-2.32.2-3.49.29l-.53.34c-2.14.11-4.25.17-6.34.19-.41.34-.94.28-1.59-.18-4.02-.18-9.23.61-13.31.88-1.6.11-3.24-.01-4.84.18.12.74.33,1.37-.02,2.1-.37.1-.78-.08-1.04-.34-.52-.52-.51-2.33-.7-3.17-.55-.13-1.27-1.77-.7-2.12.14-.54.98-.41.88.18.48.05.89.45,1.23,1.2.73-.35,1.26-.4,1.59-.14,2.52-.53,5.02-.33,7.58-.35,5.89-.06,10.36.1,16.19-1.17,6.93-1.52,13.41-4.37,20.56-4.99,8.3-.72,16.6.43,24.83,1.39.67.07,3.6-1.26,3.77-1.69s-.16-1.07.74-.93Z"/><path class="cls-87" d="M109.52,88.21c-.5.36-.86.42-1.06.18-.55-.04-.97-.16-1.23-.35-5.96-1.79-12.05-2.59-18.14-.76l-.89-.12c-.09.52-1.17.97-1.59.53-.37.7-1.71,1.3-2.47,1.06-.74.85-1.5,1.2-2.29,1.06-.16.54-.76,1.22-1.41.88-.18.09-.94.41-.88-.09.1-.85,2.39-2.04,3.17-2.47,6.11-3.41,13.15-5.05,20.13-3.91,1.47.24,6.03,1.25,7.02,2.14,1.08.97.98,1.51-.36,1.86Z"/><path class="cls-73" d="M126.61,51.89c.04.08.14.3.18.35-.19.44-.69.66-1.49.65-2.12-.24-4.05-.17-6.13.28-3.7.02-7.35.47-10.96,1.35-4.23,1.96-8.72,2.51-13.37,2.52-5.52-.12-11.03-.02-16.52.31-.37.06-.95.19-1.28.15-.55-.07-.46-.59-.91-.68-.62-.12-1.1.18-1.42.18h-3.35c-.08,0-1.31-.63-1.32-.88.54.02,1.05.11,1.59.18,3.77.05,7.55-.06,11.33-.2.36-.01.69,0,1,.2l4.9-.34c6.04.79,12.26-.16,18.11-1.91,5.52-2.37,11.24-2.63,17.12-2.29.93-.12,1.78-.08,2.53.13Z"/><path class="cls-75" d="M127.32,52.78l-6.96,1.67c-1.35-.77-2.57.04-3.88-.07-1.63-.14-2.55-.38-4.34-.26-1.61.1-2.92.18-4.5.74-.79.28-1.55.81-2.32,1.04-6.2,1.86-14.44,1.09-20.91,1.3-2.03.06-4.06.06-6.09.17,7.9-1.23,19.82.74,26.66-1.81,4.39-1.63,6.91-2.48,11.67-2.59,2.08-.05,2.79-.11,4.76-.5,1.76-.34,3.73.52,5.38-.21.08.11.49.25.53.53Z"/><path class="cls-117" d="M108.28,88.38h.18c.35-.07.67-.08,1.06-.18-1.55,1.49-3.39.97-5.36.86-3.56-.2-6.26-.29-9.89.02-4.47.39-8.88,1.01-13.23,2.1l-.6-.51c.32-.16.92-.63,1.41-.88l.27.34c7.86-1.53,16.32-2.6,24.41-1.6l1.76-.16Z"/><path class="cls-87" d="M80.03,30.43c2.22-.46,3.91,2.43,4.54,4.19.4,1.12,1,3.91-.97,3.63-2.43-.35-5.58-4.07-5.1-6.53.1-.53,1.04-1.18,1.53-1.28Z"/><path class="cls-76" d="M111.1,35.15c.4.21,1.61-.13,1.7.61.03.25-.37,1.44-.56,1.67-.78.95-5.59,2.28-6.91,2.43-.71.08-1.63-.12-2.07-.06-.32.05-.5.73-.96.63-.27-.76-.48-1.4.1-2.1.3-.37,1.91-.99,2.37-.89l.4-.18c1.64,1.56,4.48-.7,5.54-2.13l.4.02Z"/><path class="cls-87" d="M111.1,35.15c-.85,1.49-3.57,3.37-5.34,2.96-.46-.11-.75-.61-1.01-.67-1.16-3.22,2.63-5.91,5.54-5.45,1.97.31,1.53,1.89.8,3.16Z"/><path class="cls-29" d="M51.31,8.05c1.79-.33,2.52,1.71,2.32,3.2s-1.63,4.23-3.41,3.97c-3.72-.53-1.69-6.66,1.09-7.18Z"/><path class="cls-92" d="M130.31,49.6c.52.35,1.01.88,1.3,1.43.1.19.46.6.01.69s-1.67-1.53-1.32-2.11Z"/><path class="cls-97" d="M139.3,32.86l-1.41.53c-.28-.26,1.09-1.5,1.41-.53Z"/><path class="cls-92" d="M129.61,41.85c-.23.27-.16.96-.53,1.06-.03-.41-.11-1.09.53-1.06Z"/><path class="cls-59" d="M50.3,40.79c.01.36.05.71-.09,1.05-.05.12-.74.61-.17.71.31.06,1.76-.62,1.85-.53.07.07-.11.52.09.53.71.03,1.39-.61,1.95-.7,1.78-.29,4.14.3,5.45,1.58,2.65,2.58.28,6.92-2.12,8.81-.45.36-1.51.82-1.76,1.07-.18.18-.17.54-.31.66-.45.38-2.01.09-2.07.92-.44.09-1.39.57-1.64.51-.45-.11-.85-1.32-1.18-1.57l.13-.41c1.04-.11,2.07-.25,3.09-.42l.89-.99c1.99-.02,4.86-3.64,4.84-5.4-.02-1.94-2.42-3.52-4.17-2.55-2.22-.64-4.31.09-6.31,1.14l-.4-.17c.25-.9.48-2.05.9-2.89.29-.58.69-.88,1.04-1.34Z"/><path class="cls-107" d="M137.12,42.61c-.3-.36-1.35-.8-1.45-.93-.25-.31.49-2.57.89-3.02s2-1.49,2.56-1.67c1.86-.58,5.57-.64,7.49-.26,1.18.24,1.89,2.53,1.86,3.6-.06,2.37-.76,4.32-2.76,5.7-.37.26-2.7,1.4-3.09,1.5-.57.15-1.3-.13-1.95.09-.55-.52-1.25-.87-1.69-1.5-.62-.89-1.25-2.82-1.85-3.53Z"/><path class="cls-27" d="M45.19,52.07c.26-.72.95-.77,1.25-.15.59-.18,1.12.04,1.59.64.71.25,1.17.62,1.39,1.1.12.8.51,1.29.7,2.12-.91.11-1.79-.48-2.6-.67-.22-.05-.49.14-.65.11-.26-.06-.34-.62-.56-.67-.61-.12-1.44,1.09-1.46,1.66-.01.37.28.85.31,1.26.05.61-.04,1.25.02,1.83l-.71-3.26.71-3.97Z"/><path class="cls-49" d="M54.88,31.8c.35-.11.82-.38,1.24-.09.04.03.49.87.49.92.05.32-3.45,4.45-3.95,4.97-.71.73-2.09,1.59-2.79,2.33-.48.51-2.33,3.24-2.57,3.86l.09-1.23.44-.45-.35-.26c1.1-1.88,1.65-2.4,3.36-3.78.38-.31.87-.39,1.32-.8.8-.74,2.74-3.14,3.33-4.07.41-.65.33-1.39-.61-1.4Z"/><path class="cls-13" d="M48.89,124.7c-.32-.51-.94-1.01-.88-1.76.27.54.8,1.09.88,1.76Z"/><path class="cls-71" d="M48.36,45.02c1.27-.75,3.54-1.61,5.02-1.6.55,0,1.25.33,1.76.28.33-.03.85-.41,1.42-.36.36.03,1.81.85,2.11,1.14.76.73,1.11,1.92.8,2.93-.47,1.5-2.47,4.09-3.93,4.7-.34.14-.69.06-.97.18-.12.05-.76.94-.89,1-.93.41-2.44.17-3.39.53-.3-.22-.71-.1-.88-.18-.41-.18-1.1-.51-1.47-.73-.94-.56-.25-.79-1.63-.7-.07,0-.31-.74-1.13-.16v-.18c.26-.49.28-1.02.7-1.59.43-1.18.98-1.23,2.02-.65.87.95,1.89,1.48,3.06,1.59,1.32,1.05,3.94-.71,4.58-1.99.69.19,1.99-2.72,1.73-2.84-.88.18-1.7-.14-2.45-.95-.35-.17-1.59-.59-1.7-.28-1.23.3-2.37.73-3.43,1.3l-.54-.21c-.48.67-1.97,1.53-2.05.33.02-.05,0-.26,0-.35.19-.85.57-.84,1.23-1.23Z"/><path class="cls-116" d="M47.12,46.61c.79.75,1.72-.48,2.2-1.06l.35.7c.73-1.01,2.31-.87,3.14-1.27.34-.16.19-.64.73-.49.08.02.07.28.23.34.38.14.79.11,1.22.33s.91.88,1.46.98,1.21-.47,1.18.52c-.02.66-1.1,2.51-1.57,2.89-.05.04-.29-.12-.5.13-.13.15-.02.41-.33.72-.5.51-2.96,1.78-3.59,1.64-.31-.07-.51-.37-.79-.45-.42-.13-.81-.07-1.32-.27-1.24-.5-2.34-2.76-3.66-1.01.26-1.1.5-2.2.87-3.28.1-.28.35-.4.36-.42Z"/><path class="cls-58" d="M41.13,151.49c-.95-.15-1.74-.35-2.6-.48-2.17-.34-3.26.66-5.08,1.17-.76.21-1.61.23-2.36.37l5.04-1.94c.85.27,1.81.06,2.62.19.44.07.72.38,1.11.48.41.11.98-.13,1.28.21Z"/><path class="cls-114" d="M28.62,97.9c-.17.04-2.64.93-2.77,1-.11.06-1.11.8-1.28.94.68-1.33,2.68-1.69,4.05-1.94Z"/><path class="cls-114" d="M20.51,103.54l-1.34,1.2-.77.38c.81-.71,1.32-1,2.11-1.59Z"/><path class="cls-114" d="M22.45,102.13c-.02-.5.46-.63.7-.88,0,.48-.42.63-.7.88Z"/><path class="cls-114" d="M23.33,101.08c.26-.27.39-.43.7-.71-.02.42-.29.68-.7.71Z"/><path class="cls-16" d="M126.43,50.84c.01.17-.02.36,0,.53-.35.32-.81.45-1.4.38-5.98-.24-11.68-.24-17.32,1.98l-.32-.07c-.51.2-1.04.38-1.59.53-.2.25-.62.38-.88.18-.82.43-1.74.58-2.64.71-.2.31-.59.4-.88.18l-2.91.35c-.95.21-1.83.21-2.64,0-.38.22-.88.34-1.5.35-.03.16-.09.15-.18,0l-2.29.18c-.04.11-.1.11-.18,0-.9-.02-1.78-.14-2.64-.35-.06.28-.19.25-.35,0l-7.51.41c-1.01.13-1.92,0-2.72-.41,1.15-.3,2.51-.51,3.7-.53,4.06-.24,8.13-.31,12.21-.2,5.91.08,11.45-1.52,17.09-3.24l.48.09c.32,0,.61-.05.88-.18.11-.38.83-.51,1.06-.18l1.06-.18c-.03-.38.83-.45,1.06-.18,2.13,0,4.24-.05,6.34-.18.06,0,.13-.02.18,0,1.04-.03,2.16-.18,3.37-.46l.51.28Z"/><path class="cls-36" d="M101.58,50.48c.52-.01.96.2,1.49.18,1.75-.04,3.47.03,5.21-.18-.06.32-.36.3-.59.37-6.09,2.07-14.56,1.63-21.08,2.27l.42-.32c4.85-1.06,9.71-1.84,14.56-2.32Z"/><path class="cls-17" d="M118.15,51.01c-.66.14-1.37.2-2.11.18-.45.06-.61.06-1.06.18l-1.06.18c-.35.07-.71.1-1.06.18-.27.13-.56.19-.88.18-3.8.87-7.07,2.04-11,2.83-.48.1-.67.71-.9-.02-5.92,1.16-11.95.43-17.88.54,1.42-.37,2.94-.54,4.41-.53l3.06-.15c7.02.22,13.87-.23,20.39-2.83,1.77-.54,3.59-.98,5.45-.89.76-.07,1.97-.09,2.64.18Z"/><path class="cls-99" d="M115.51,50.84c-4.96.47-9.39,2.93-14.39,3.5s-9.49.41-14.52.38l3.25-.36c5.29.07,10.71.06,15.82-1.45,2.85-.85,5.24-2.05,8.35-2.24.5-.03.97.26,1.48.17Z"/><path class="cls-22" d="M78.5,55.77c3.55.18,6.72-.11,10.22,0-.05.11-.1.2-.16.2-1.52.17-3.07.25-4.59.32-4.26.44-8.05.52-12.34,0,.58-.53,1.51-.17,2.03-.21,1.56-.14,3.28-.4,4.85-.32Z"/><path class="cls-22" d="M126.43,51.37c.01.08.14.44.18.53-1.6.21-3.21.01-4.84,0-1.41,0-2.98-.08-4.42,0-6.55.31-12.38,3.49-18.86,4.22-4.01.45-6.68.16-10.56,0-1.23-.05-2.67.39-3.97.19.56-.06,1.23-.12,1.85-.18.94-.09,2.01-.14,2.91-.35.12,0,.24,0,.35,0,.86.21,1.74.33,2.64.35.06,0,.12,0,.18,0l2.29-.18c.06,0,.12,0,.18,0,2.36-.17,4.71-.4,7.05-.71.29-.06.59-.11.88-.18.9-.13,1.83-.28,2.64-.71.29-.07.59-.12.88-.18.55-.14,1.08-.32,1.59-.53,2.66-.8,5.57-1.91,8.37-2.11,3.53-.26,7.14.3,10.66-.18Z"/><path class="cls-54" d="M99.47,50.48c-3.79.78-7.62,1.47-11.47,2.07l-.51-.13c.48-.33,1.07-.63,1.76-.88,2.31-.66,3.62-.98,6.07-1.07,1.38-.05,2.77.05,4.15,0Z"/><path class="cls-12" d="M101.58,50.48c-2.23.05-5.11.82-7.32,1.4-2.58.16-5.16.59-7.66,1.24-.23.02-.47-.02-.7,0-.15-.05-.15-.11,0-.18.34-.4,1.07-.63,1.59-.53,1.56-.31,3.11-.64,4.69-.86,2.37-.33,4.93-.85,7.29-1.08.67-.07,1.43.05,2.11,0Z"/><path class="cls-38" d="M126.43,50.84c-1.14.14-2.31.46-3.46.53-.31.02-.33-.32-.42-.35,1.2-.69,2.75-.63,3.79-1.59.19.41.05.96.09,1.41Z"/><path class="cls-38" d="M118.15,51.01c1.17-.04,3.14-.15,4.23,0l-.78.36-5.56-.19c.77-.11,1.33-.15,2.11-.18Z"/><path class="cls-81" d="M89.25,51.54c-.36.4-1.2.67-1.76.88-.53.2-1.04.37-1.59.53-.25.14-.54.26-.88.35-.2,0-.9.13-.88-.17,1.71-.52,3.39-1.1,5.11-1.59Z"/><path class="cls-54" d="M85.9,52.95v.18c-.18.02-.46.16-.88.18.23-.27.58-.26.88-.35Z"/><path class="cls-50" d="M107.22,88.03l-.66.14c-5.91-1.11-11.8-.67-17.58-.21-.71-.01-1.77-.31-.79-.82,4.79-1.4,9.57-1.75,14.45-.62,1.53.35,3.14.87,4.58,1.5Z"/><path class="cls-101" d="M104.58,88.21c.03-.16.09-.15.18,0l1.23.18c.49-.32,1.64-.19,2.29,0-3.03.49-5.46-.21-8.55-.18-4.46.03-10.32.8-14.79,1.61-.81.15-2,.7-2.85.68-.49-.01-.39-.35-.24-.69.84-.43,1.46-.68,2.29-1.06.08.2.1.37.05.51,1.71-.55,3.47-.79,5.31-.72,4.97-.58,10.07-1.06,15.09-.32Z"/><path class="cls-103" d="M88.19,87.15c-.32.5-.16.29.24.38,1.94.43,3.76-.11,5.67-.2,4.47-.2,8.71.05,13.13.7.33.05.95.18,1.23.35-.06.01-.12,0-.18,0-.61-.15-1.33.15-1.86.15-.21,0-.36-.14-.43-.15l-1.23-.18c-.06,0-.12,0-.18,0-4.81-.68-9.68-.35-14.48.27-2.87.5-4.03.23-3.5-.8.59-.22.97-.35,1.59-.53Z"/><path class="cls-72" d="M86.6,87.68l.36.8c5.79-.49,11.84-1.53,17.62-.28-5.14-.33-8.05-.2-13.14.36-.55.06-.83.16-1.03.18-1.15.13-2.6.02-3.7.17-.82.11-1.9.71-2.83.7-.72,0-.02-.66.26-.89.85-.38,1.58-.74,2.47-1.06Z"/><path class="cls-48" d="M80.46,32.53c.1-.15.84-.24,1.08-.17.94.27,1.58,2.05,1.84,2.93.38,1.29.68,2.21-.96,1.14-.83-.54-2.55-2.94-1.96-3.9Z"/><path class="cls-48" d="M106.76,34.51c.98-.96,2.55-1.93,3.81-.83.32,1.03-2.96,3.24-3.82,3.39-1.96.34-.72-1.82.02-2.55Z"/><path class="cls-90" d="M143.5,38.28s-.02-.42.3-.3c.37.69,1.51.91,1.64,1.55.17.8-.12,1.34-.38,2.01-.09.24-.06.7-.15.81-.07.08-.42.05-.59.2-.47.41-1.51,1.01-1.63,1.12-.15.16.11.7-.79.61-1.03-.1-.61-.47-.75-.84-.21-.57-.42-1.34-.97-.88.38-1.13-.97-1.62-1.76-.88l.35-.88-.7.35c.05-.88-.45-.58-1.06-.71.1-.45.56-.72.77-1.05.09-.14,0-.45.2-.7.27-.33,2.08-.67,2.64-.72s1.41-.04,1.94.02c.33.04.71.43.94.3Z"/><path class="cls-8" d="M49.82,49.2c-.88-1.22,1.08-2.82,2.32-2.94,3.66-.38,3.95,2.95.62,3.8-.83.21-2.44-.15-2.95-.85Z"/><path class="cls-22" d="M101.41,55.24c-2.38.49-4.65.71-7.05.71.29-.12,1.27-.35,1.5-.35h2.64c.05,0,.3-.16.52-.18.79-.07,1.59-.15,2.38-.17Z"/><path class="cls-22" d="M94.18,55.95c-.37.23-1.07.36-1.51.37s-.72-.19-.79-.19c.57-.47,1.53-.19,2.29-.18Z"/><path class="cls-22" d="M91.71,56.13c-.87-.04-1.92.21-2.64-.35.81.03,1.92.17,2.64.35Z"/><path class="cls-22" d="M104.93,54.36c-.59.61-1.84.68-2.64.71.89-.19,1.75-.5,2.64-.71Z"/><path class="cls-22" d="M107.4,53.66c-.24.48-1.08.43-1.59.53.36-.43,1.05-.37,1.59-.53Z"/><path class="cls-38" d="M114.98,51.37c-.29.07-.61.32-1.06.18.29-.06.63-.33,1.06-.18Z"/><path class="cls-38" d="M112.86,51.72c-.15.29-.6.17-.88.18.32-.07.6-.11.88-.18Z"/><path class="cls-72" d="M105.99,88.38c-.39-.02-.99.14-1.23-.18.39.01.99-.14,1.23.18Z"/></g></svg>