<?xml version="1.0" encoding="UTF-8"?><svg id="Layer_2" xmlns="http://www.w3.org/2000/svg" viewBox="0 0 26.27 14.49"><defs><style>.cls-1{fill:#459544;}.cls-2{fill:#4cad4b;}.cls-3{fill:#0f8c0d;}.cls-4{fill:#54ad52;}.cls-5{fill:#2f802e;}.cls-6{fill:#5fa25e;}.cls-7{fill:#2c702a;}.cls-8{fill:#61a260;}.cls-9{fill:#0e850d;}.cls-10{fill:#10980e;}.cls-11{fill:#599f58;}.cls-12{fill:#34a832;}.cls-13{fill:#8b6627;}.cls-14{fill:#479646;}.cls-15{fill:#0f8e0d;}.cls-16{fill:#a77d36;}.cls-17{fill:#3c8f3a;}.cls-18{fill:#0f8d0d;}.cls-19{fill:#8e6928;}.cls-20{fill:#24a522;}.cls-21{fill:#5b9f5a;}.cls-22{fill:#4d944c;}.cls-23{fill:#0e830d;}.cls-24{fill:#ad8a4f;}.cls-25{fill:#2d7a2b;}.cls-26{fill:#204a1f;}.cls-27{fill:#7b5b23;}.cls-28{fill:#31a830;}.cls-29{fill:#7e5d24;}.cls-30{fill:#236222;}.cls-31{fill:#4aab49;}.cls-32{fill:#4aac48;}.cls-33{fill:#449442;}.cls-34{fill:#6ca96b;}.cls-35{fill:#5a9f58;}.cls-36{fill:#826025;}.cls-37{fill:#25a623;}.cls-38{fill:#26a624;}.cls-39{fill:#9d732c;}.cls-40{fill:#60a25f;}.cls-41{fill:#916b29;}.cls-42{fill:#67a566;}.cls-43{fill:#4f7b4e;}.cls-44{fill:#348b32;}.cls-45{fill:#2a6728;}.cls-46{fill:#68a567;}.cls-47{fill:#966e2a;}.cls-48{fill:#3a8f38;}.cls-49{fill:#2c782b;}.cls-50{fill:#66a564;}.cls-51{fill:#62a361;}.cls-52{fill:#a9813d;}.cls-53{fill:#27a626;}.cls-54{fill:#10a10e;}.cls-55{fill:#936c29;}.cls-56{fill:#52ae51;}.cls-57{fill:#549c53;}.cls-58{fill:#37a735;}.cls-59{fill:#2c712b;}.cls-60{fill:#328730;}.cls-61{fill:#10990e;}.cls-62{fill:#499647;}.cls-63{fill:#458444;}.cls-64{fill:#0d750c;}.cls-65{fill:#8f6a28;}.cls-66{fill:#286d26;}.cls-67{fill:#42ab40;}.cls-68{fill:#40aa3e;}.cls-69{fill:#2e772c;}.cls-70{fill:#67a666;}.cls-71{fill:#0e820d;}.cls-72{fill:#4f994d;}.cls-73{fill:#ab8545;}.cls-74{fill:#0f950e;}.cls-75{fill:#519b4f;}.cls-76{fill:#4c984b;}.cls-77{fill:#a5792e;}.cls-78{fill:#1da41b;}.cls-79{fill:#5ab059;}.cls-80{fill:#2c6e2a;}.cls-81{fill:#8b6727;}.cls-82{fill:#0d7a0c;}.cls-83{fill:#40923f;}.cls-84{fill:#3d903b;}.cls-85{fill:#31802f;}.cls-86{fill:#1e511d;}.cls-87{fill:#0f920d;}.cls-88{fill:#2a7429;}.cls-89{fill:#5ca05b;}.cls-90{fill:#3b8f39;}.cls-91{fill:#869685;}.cls-92{fill:#69a668;}.cls-93{fill:#5aaf59;}.cls-94{fill:#0e800d;}.cls-95{fill:#0e810d;}.cls-96{fill:#2a6828;}.cls-97{fill:#2d742b;}.cls-98{fill:#469544;}.cls-99{fill:#6aa669;}.cls-100{fill:#856226;}.cls-101{fill:#2f7b2d;}.cls-102{fill:#519a50;}.cls-103{fill:#31822f;}.cls-104{fill:#225d21;}.cls-105{fill:#323232;}.cls-106{fill:#549c52;}.cls-107{fill:#1aa318;}.cls-108{fill:#4b9749;}.cls-109{fill:#a87e38;}.cls-110{fill:#27a325;}.cls-111{fill:#6aa769;}.cls-112{fill:#0f970e;}</style></defs><g id="Layer_1-2"><path d="M14.27,0s.08.04.11.08c0,0,0,.01,0,.02.03.08.03.16,0,.25,0,.02,0,.04,0,.06l-.02.19s0,.06,0,.08l-.02.15s0,.03,0,.04l-.02.11s0,.04,0,.06c-.01.03-.02.07-.02.11,0,.01,0,.03,0,.04-.02.03-.02.07-.02.11-.01.1-.03.2-.04.3-.01.03-.02.07-.02.11,0,.01,0,.03,0,.04-.02.03-.02.07-.02.11,0,.02,0,.04,0,.06-.01.03-.02.07-.02.11,0,.02,0,.04,0,.06-.02.04-.02.08-.02.13,0,.07-.02.12-.02.19l-.02.13s0,.04,0,.06l-.02.11s0,.04,0,.06l-.02.27s0,.03,0,.04l-.02.27s0,.03,0,.04c-.02.1-.02.2-.02.3,0,.06,0,.12,0,.17.06.82.02,1.63-.03,2.45-.01.17-.01.32,0,.47,0,.02,0,.04,0,.06.01.08.02.15.02.23,0,.02,0,.15.05.13.06-.02.18-.23.22-.3l.13-.21s.03-.04.04-.06c.03-.07.07-.15.13-.21.04-.06.09-.15.13-.21.01-.04.03-.08.06-.11.68-1.3,1-2.6,2.05-3.73.18-.2.67-.67.8-.2.01.11,0,.22-.04.32,0,.01-.01.03-.02.04-.42.88-.86,1.74-1.32,2.6-.39.77-.78,1.55-.92,2.37,0,.05.01.24.05.18.02.02.05.02.08,0-.01-.06.09-.14.15-.11.15-.1.3-.21.44-.32.03-.04.08-.07.13-.08.06-.04.11-.09.17-.13.03-.01.06-.03.08-.06.05-.04.1-.07.15-.11.06-.05.12-.09.19-.13.11-.06.21-.11.32-.17l.15-.06s.03-.01.04-.02c.04,0,.08-.02.11-.04.07-.03.21-.05.23-.12.01-.03,0-.06,0-.09.02-.03.02-.07.02-.11,0-.02,0-.04,0-.06.02-.03.02-.07.02-.11,0-.05,0-.09.02-.15.17-.67.38-1.33.74-1.92.07-.13.14-.24.23-.36l.11-.13c.05-.05.07-.08.15-.11.05-.01.09,0,.13.02.1.37.14.76.24,1.13.04.16.07.33.21.44.1.07.21.06.32.04.11-.03.17-.09.25-.15.04-.02.06-.05.08-.08,0,0,.01-.01.02-.02.21-.29.4-.59.57-.91.01-.03.03-.06.04-.08l.08-.19s.01-.03.02-.04c.22-.55.41-1.1.57-1.67.08-.1.15-.07.19.04,0,.15-.03.3-.08.44,0,.04-.01.07-.02.11-.05.34-.1.7-.06,1.04,0,0,0,.01,0,.02.05.05.05.12.01.21v.08s0,.03,0,.04l.02.17s0,.03,0,.04c0,.04,0,.07.02.11.03.27.09.54.18.8.73-.56,1.58-.99,2.45-1.29.16-.05.43-.16.58-.19.04,0,.08,0,.11.02.02.03.01.07,0,.11,0,0-.01.01-.02.02l-.08.11s-.04.04-.06.06l-.13.11s-.04.04-.06.06l-.08.06s-.05.05-.08.08l-.08.06s-.04.04-.06.06l-.08.06s-.04.04-.06.06c-.12.1-.24.22-.34.34,0,0-.01.01-.02.02l-.08.11s-.01.01-.02.02l-.13.17c-.23.26-.41.57-.59.87-.03.03-.05.07-.06.11-.02.02-.03.05-.04.06l-.06.11c-.05.07-.05.11-.08.17-.03.02-.13.17-.12.19,0,0,.04.03.05.02.02,0,.06-.01.08-.02.35-.06.73-.08,1.08,0,.22.05.36.12.44.34,0,.01.02.05.02.06.05.15.04.3-.02.44-.02.04-.06.11-.08.15-.04.06-.09.1-.15.15-.19.14-.38.25-.59.34,0,.03-.03.03-.06.02-.02.01,0,.02.04.02.88-.04,1.85.04,2.58.59.03.03.08.08.11.11.01.03.04.06.06.08.27.4.28.58-.26.66s-1.19.02-1.73.04c-.37.02-.73.08-1.1.09-.32.01-.64-.03-.96-.02,0,.03.06.03.08.04.25.04.82.13,1.03.26.13.08.13.19.04.31-.12.18-.49.22-.7.23-.51.03-1.02-.03-1.53-.04l.33.08c1.38.19,2.76-.24,4.13,0,.31.06.93.18.92.59,0,.14-.09.5-.16.62-.11.19-.34.32-.43.49-.02.17-.06.33-.11.49,0,.02-.01.05-.02.06l-.11.21s-.05.06-.06.08c-.03.02-.05.05-.06.08,0,0-.01.01-.02.02l-.17.15s-.01.01-.02.02l-.17.13c-.09.06-.17.11-.25.17-1.23.69-2.78.53-4.12.3-.64-.13-1.28-.25-1.92-.35-.48-.07-.98-.11-1.44.06-.09.04-.17.09-.25.13-.24.11-.49.2-.74.27-.02,0-.04.01-.06.02-.72.18-1.46.35-2.23.23-.64-.1-1.27-.23-1.89-.4-.03,0-.06-.02-.08-.02-.74-.21-1.44-.03-2.16.18-.43.11-.87.15-1.31.09-.54-.1-1.07-.15-1.62-.17-.8.1-1.61.19-2.42.28-.03.02-.06.03-.08.04l-1.21.21c-.48.11-.95.09-1.39-.04-.15-.05-.28-.14-.38-.26-.12-.14-.15-.22-.12-.41.07-.4.53-.89.81-1.17.54-.54,1.22-.91,1.88-1.28l.32-.15s.06-.03.08-.04l.15-.06s.03-.01.04-.02c.54-.23,1.11-.36,1.69-.44,0,0,.01,0,.02,0l.4-.02s.06,0,.08,0c.07-.02.13-.02.17,0,.02-.01.02-.03,0-.04,0,.02,0,.02-.02,0-.06,0-.11,0-.17,0l-.17-.02c-.09,0-.16,0-.25-.02-.07-.02-.14-.02-.21,0-1.21,0-1.79.02-2.85.61-.35.19-1.18.85-1.5.89-.08,0-.13,0-.2-.02-.03-.01-.05-.03-.06-.06-.07-.2.16-.42.27-.55.03-.06.07-.11.13-.15.1-.11.21-.21.32-.32.08-.11.18-.2.27-.3.05-.05.07-.08.13-.13,0-.02-.03-.03-.06-.02-.31.06-.6.14-.87.3l-.63.38s-.04.03-.06.04c-.09.04-.18.1-.25.17-.15.11-.43.38-.57.42-.04.01-.07.02-.11,0-.11-.07.05-.3.11-.4l.04-.11s.01-.03.02-.04l.06-.15s.01-.03.02-.04l.04-.11s.01-.03.02-.04c.39-.78.9-1.52,1.52-2.14.02-.02.04-.04.06-.06l.08-.06s.07-.06.11-.09c.04-.03.26-.14.23-.18,0,0-.15-.06-.18-.08-.47-.26-1.08-.57-1.47-.93-.14-.11-.27-.24-.38-.38-.15-.16-.28-.32-.21-.55.03-.06.07-.11.13-.15.07-.04.14-.07.21-.08l.11-.02s.03,0,.04,0l.13-.02s.01,0,.02,0c.2-.04.41-.05.61-.02.03,0,.06,0,.08,0l.27.02s.06,0,.08,0l.19.02s.01,0,.02,0l.13.02s.01,0,.02,0c.15.05.19-.04.11-.27l-.11-.53c-.1-.4-.23-.78-.32-1.18l-.04-.21s-.01-.06-.02-.08l-.04-.21c-.02-.06-.03-.11-.04-.17l-.02-.11s-.01-.05-.02-.08c-.1-.49-.18-1-.15-1.5,0,0,0-.01,0-.02l.02-.23s0-.01,0-.02l.02-.11c.02-.14.03-.4.2-.17.25,1.08.64,2.11.98,3.15,0,.05.02.1.04.15.02.09.03.21.08.3.02,0,.03.01.03.03.14-.86.28-1.72.45-2.57.04-.2.09-.46.23-.61.03-.06.1-.09.17-.06,0,0,.01.02.02.02.05.04.08.09.11.15,0,.01.01.03.02.04.24.65.36,1.33.43,2.02.04-.05.08-.1.1-.18,0-.02.01-.03.02-.04l.06-.11c.1-.23.24-.37.4-.55.06-.08.13-.15.21-.21.07-.07.14-.14.21-.21.03-.05.08-.09.13-.13.04-.05.06-.07.11-.11.04-.05.09-.09.15-.13,0,0,.01-.01.02-.02l.15-.17s.03-.04.06-.06c.03-.01.06-.04.08-.06.06-.04.1-.08.17-.11.07-.02.13-.03.19,0,.03.02.07.06.08.08.02.08.02.17,0,.25-.1.35-.25.69-.34,1.04-.03.15-.02.16.11.11l.1-.05c.14-.14.23-.44.3-.63,0-.06.02-.12.04-.17.02-.08.03-.11.06-.19.02-.07.05-.15.08-.21.01-.04.03-.07.04-.11.05-.11.09-.22.13-.34.05-.13.09-.3.15-.42.03-.05.07-.07.13-.04.05.05.07.2.08.27.1.92.24,1.88.61,2.71.04.1.08.17.13.25.06.15.13.29.21.42.08.16.11.2.21.34.01.03.03.06.06.08.08.11.14.21.23.32.02,0,.03,0,.02.02.02.01.03,0,.02-.04-.02,0-.03,0-.02-.04,0-.01-.01-.03-.02-.04l-.13-.32c-.03-.07-.04-.09-.06-.17l-.04-.11s-.02-.05-.02-.06c-.02-.03-.04-.07-.04-.11-.02-.05-.03-.07-.04-.13-.03-.05-.03-.1-.04-.15-.04-.12-.06-.2-.08-.32l-.02-.11s-.01-.05-.02-.08c-.1-.32,0-.7.34-.32l.19.26c.08.11.15.21.23.32.01.03.03.06.06.08.03.04.04.06.08.11l.11.13s.01.01.02.02l.15.17s.03.03.04.04l.3.32s.04.04.06.06l.15.17s.01.01.02.02l.19.21s.03.03.04.04l.08.11s.03.03.04.04l.08.11s.01.01.02.02l.06.08s.01.01.02.02c.01.03.04.06.06.08.07.1.14.2.21.3.03.04.04.02.05-.04-.03-.83-.09-1.65-.2-2.48l-.04-.72c0-.09-.02-.17-.02-.25l-.02-.13s0-.01,0-.02c-.01-.05-.02-.1-.02-.15-.06-.31-.18-.81-.19-1.11,0-.12.04-.16.13-.06.12.36.2.76.32,1.12.14.42.36.82.55,1.22.01.05.03.1.06.15.03.07.05.11.08.17.06.16.14.32.23.47,0,.02.02.03.02.04l.06.11s.02.03.02.04l.08.15s.02.03.02.04l.21.39s.05.01.05-.03c0-.05,0-.1,0-.15-.01-.86.2-1.76.47-2.57.24-.73.57-1.49,1.07-2.08C13.94.17,14.11,0,14.27,0Z"/><path class="cls-77" d="M24.61,10.53s.08-.01.13,0c.21,0,.84.06,1.01.16.05.03.23.23.25.28.01.06-.08.41-.11.48-.07.15-.25.26-.35.39-.23.28-.13.64-.36.93-.82,1.04-2.61,1.01-3.81.89-1.05-.11-2.12-.41-3.17-.46-.74-.04-.9.14-1.51.39-.97.4-2.06.54-3.09.34-.95-.19-2.04-.59-3-.4-.44.09-.95.28-1.39.31-.72.05-1.32-.21-2.03-.23-.35-.01-.67.07-1.01.11-.37.04-.75.04-1.12.09-.49.06-.98.21-1.47.25v-.05c.31-.04.16-.12-.02-.2-.13,0-.27.01-.4.03-.06-.07-.15-.1-.26-.1l-.09-.06c-.1.07-.16-.35-.16-.39.03-.29.53-.81.74-1.01.4-.37.84-.73,1.25-1.06,0,.02,0,0,0-.02.26-.11.52-.23.8-.27l.2-.04c.03.12.1.12.22.13.44-.04.91-.08,1.37-.03.03.03.03.06,0,.1.23,0,.46,0,.69.06.23-.02.45,0,.68.04.95.02,1.95.07,2.86.27.31-.04.62-.02.94.07l.59.02c.75.09,1.55.16,2.27-.15.78-.38,1.58-.77,2.45-.93.56-.1,1.02-.01,1.56.13.95.23,1.87.35,2.85.33.71-.01,1.51-.06,2.18-.21.1-.07.2-.13.3-.18Z"/><path class="cls-54" d="M14.16,1.04c-.11.95-.34,1.91-.36,2.87-.02.7,0,1.41-.02,2.12,0,.31-.07.98.08,1.25.01.02.13.15.14.15.22.07.47-.4.56-.55.77-1.32,1.11-2.71,2.04-3.97.22-.3.46-.68.83-.78.07.05-.06.32-.09.39-.21.47-.53.93-.77,1.39-.34.64-.64,1.29-.98,1.92-.04.12-.11.15-.22.18-.41.76-.61,1.57-.48,2.44.01.09.16.04.21,0,.52-.4,1.12-.77,1.72-1.1.68-.38,1.36-.76,2.09-1.05.39-.08.82-.2,1.21-.07,0,.04-.04.11-.07.14-.2.23-1.13.54-1.46.72-.16.09-.29.2-.45.29-.45.28-.96.45-1.44.67h-.11c-.57.27-1.09.52-1.57.94-.16.14-.44.38-.5.59,0,.02-.03.11-.02.12.07.07.43,0,.52-.05,1.09-.52,2.27-.7,3.47-.73.05.02.02.05-.01.08-.51.33-1.32.36-1.9.61-.79.34-1.64,1.15-2.47,1.27-1.04.15-2.15-.16-3.18-.27-.19,0-.24-.03-.34-.18l-.29-.5c-.07-.14-.16-.22-.29-.25-.61-.72-1.45-1.1-2.38-.81-.08.01-.39.05-.29-.06.27-.18.66-.37.91-.56.31-.25-.07-.37-.28-.44-.56-.18-1.22-.14-1.79-.05l-1.16.25c.59-.58,1.35-1.16,2.16-1.4.1-.03.69-.18.73-.16.05.02.2.22.27.09.04-.07-.13-.18-.18-.22-.61-.47-2.07-1-2.83-1.24-.16-.07,0-.12.1-.11.42.09.84.13,1.27.16.47.12.94.29,1.35.53.42.45.93.82,1.46,1.12.08.09.17.17.26.23.51.14.47-.03.38-.44-.02,0-.02-.01,0-.02-.13-.38-.28-.75-.47-1.1l-.14-.37c-.11-.11-.11-.3.04-.11.5.43.92,1.05,1.36,1.54.03.04.17.14.18.15.03.06-.01.61.1.65.1.04.12-.05.13-.14.08-.6.05-1.35,0-1.96-.02-.27-.08-.54-.08-.81h.05c.04.09.08.17.13.25.07.12.15.24.23.36.17.27.54.83.77,1,.06.04.08.04.11,0,.07.13.28.54.42.57.12.02.12-.11.1-.2-.06-.17-.32-.46-.36-.66-.06-.32-.03-.68,0-1,0-.06.05-.09.12-.1l.09-.18c.1-.5.24-1,.42-1.5,0-.08.04-.17.08-.23v-.02c.12-.21.21-.44.25-.69.05-.13.2-.45.28-.56.1-.14.23-.31.35-.42Z"/><path class="cls-44" d="M3.86,2.52l.37,1.76c.18-.16.26-.39.39-.58.38-.57.73-.88,1.21-1.35.15-.15.27-.35.49-.43-.06.35-.22.67-.33.99-.07.23-.2.6.18.57.03.03.02.04-.02.02-.09.1.05.2.16.18.45-.09.91-.93.94-1.36.06.28.1.56.18.83.17.62.53,1.39.86,1.94.03.03.01.04-.02.02-1.14-.67-2.2-1.12-3.5-.51-.12.06-.69.34-.42.49.95.18,1.84.52,2.72.9l.02.03c-.78.18-1.49.47-2.07,1.06-.37.37-.57.62-.53,1.16.03.32.45.36.7.29.47-.13.94-.2,1.42-.21.16,0,.33.02.22.22-.33.22-.68.47-.83.86h-.03c-.06.45.41.56.75.44.85-.04,1.69-.08,2.49.29.09.04.37.18.4.27,0,.01-.01.04-.03.05-.66,0-1.32.04-1.98.04-1.06-.34-2.56-.37-3.63,0h-.03c-.05-.11-.14-.12-.25-.11-.38.13-.76.26-1.14.38,0,0,0-.04.03-.06.13-.13.65-.52.17-.51-.77.03-1.69.51-2.27.99-.03.03-.04.02-.02-.02.4-.86.95-1.69,1.6-2.39.05-.05.42-.41.45-.42.1-.03.32.18.36.14.04-.03,0-.11-.03-.15-.11-.13-.74-.39-.94-.5-.46-.24-.95-.51-1.3-.9-.09-.1-.33-.38-.3-.51.04-.15.45-.19.58-.19.2-.04.4.07.57.17.34.19.68.47.95.74,0-.01.02,0,.02.02.1.12.22-.13.23-.22.04-.27-.13-.97-.2-1.26-.2-.87-.51-1.71-.62-2.6.2.55.42,1.1.64,1.65.04.09.21.49.3.56l.08.04c.04.1.14.25.15.04.06.02.09-.06.12-.14.33-.88.61-1.77.72-2.69l.02-.02Z"/><path class="cls-44" d="M19.76,5.16c.07.03.15.02.23-.05.1-.1.21-.14.32-.15.11-.08.21-.16.31-.25.27-.24.5-.45.61-.82l.06-.03c.05.38.2.74.32,1.11-.11.09-.53.43-.55.55,0,.04,0,.07.03.09.45-.49.99-.89,1.57-1.19.28-.15.58-.27.87-.39v.06c-.38.48-.75.96-1.1,1.45-.15.26-.55.99-.43,1.27.04.11.19.05.16.01.35-.16,1.05-.21,1.42-.14.28.05.42.26.34.55s-.8.62-1.05.74c-.05.02-.3.1-.31.12-.01.02,0,.04.02.05.07.05.35,0,.45-.01.43,0,.86.04,1.29.11.63.1,1.36.29,1.71.87,0,.05-.33.09-.39.1-.47.03-.98,0-1.46.02-.32.02-.65.07-.97.09-.51.02-1.06-.04-1.57.02-.14.02-.44.05-.5.19,0,.03,0,.06.02.08,0,0,.01.01.02.02l-.03.05c-.53.05-.96-.1-1.37-.44-.27-.11-.46-.28-.53-.58-.07-.3-.16-.58-.32-.84-.05-.08-.04-.16.04-.22l.26-.13c.38-.3.77-.59,1.16-.88.03-.04.04-.1.03-.16.11-.21.1-.3-.03-.26l-.06-.1c-.23-.2-.43-.19-.73-.17-.54.04-1.08.21-1.6.34-.01-.03,0-.04.02-.02l.02-.04c.12-.8.43-1.61.87-2.32,0-.02.03-.03.05-.03.06.28.17,1.04.36,1.22.1.1.3.13.44.12Z"/><path class="cls-29" d="M18.85,9.96c.37.03,1,.29,1.39.39s.87.21,1.28.24c.97.08,1.92-.09,2.89-.08.02,0,.02.01,0,.02,0,.02-.01.02-.02,0-.02.06-.06.06-.08,0-1.65.43-3.47.38-5.08-.21-.76-.17-1.64-.22-2.39-.02-.46.25-.94.43-1.43.6-.4.27-.78.41-1.27.42-.4,0-.85-.04-1.24-.08-.12-.01-.2-.03-.32-.07-.99-.03-2.02-.09-3.03-.2-.53-.01-1.05-.08-1.56-.2-.02-.03-.03-.06-.03-.1-.02,0-.02-.01,0-.02.02,0,.04,0,.06,0,.27-.02.56-.04.84,0,.05.06.11.1.19.1-.06-.04-.08-.1,0-.13h.02c.18-.02.35-.02.53,0,.05.01.09.03.15.04.03.01.07.02.11.02,0,0,.02.02.04.02l.23.02s.06,0,.08,0c0,.04.01.04.02.02.36.05.72.09,1.08.08h.02c.06.01.12.03.19.04l.27.04s.01,0,.02,0c.27.05.53.1.8.13.23.11.46.12.72.13.75.03,1.4-.03,2.09-.4l1-.47c.57-.31,1.11-.35,1.75-.31.24-.06.47-.07.69-.04Z"/><path class="cls-39" d="M18.62,10.34l.05-.02c.55.1,1.09.24,1.62.43.27.04.54.07.8.1l.02-.02c1.04.08,2.15.01,3.19-.19l.09-.11s.01,0,.02,0c.06-.02.13-.02.19,0,0,.1-.1.09-.15.12-.21.14-.27.14-.52.18-.56.08-1.32.11-1.9.13-.94.03-1.86-.14-2.77-.33-.42-.09-.76-.21-1.21-.17-.9.07-1.9.54-2.7.93s-1.76.21-2.59.17c-.27-.01-.37-.01-.64-.08s-.37-.03-.61,0c-.12.01-.39-.08-.52-.1-.7-.11-1.38-.15-2.09-.17-.15,0-.33.01-.48-.03-.03,0-.04-.05-.11-.06-.11-.01-.27.04-.38.04-.1,0-.22-.04-.32-.05-.13-.01-.31,0-.42,0-.12-.02.02-.05.01-.11-.28-.01-.56,0-.84,0-.18,0-.2.02-.36.04-.09.01-.29.02-.36-.04-.06-.05-.03-.1-.03-.11,0,0-.16.02-.19.02.21-.05.46-.14.67-.17.14-.02.33-.01.47-.02.02.03.03.05,0,.07.05.08.89.08,1.02.08.02.03.02.06,0,.08.25.01.5.05.76.13.97.01,1.96.1,2.93.23.39,0,.75.03,1.12.15l.31-.02c.31.02.61.06.92.12l.04-.02c.45.05.9,0,1.32-.18.51-.24,1.03-.47,1.55-.66.4-.14.8-.27,1.22-.34.27-.04.58-.09.84-.02Z"/><path class="cls-24" d="M3.55,11.74s.08-.03.07.03c-.32.36-.65.72-.98,1.07-.24.11-.4.46-.37.71.03.21.08.26.28.33.08.06.25.2.2.29.03,0,.02.02-.02.04-.4.08-.75.03-1.11-.17-.31-.18-.24-.32-.08-.6.38-.7,1.34-1.32,2.01-1.7Z"/><path class="cls-100" d="M24.31,10.53c.04.08-.14.13-.21.14-.9.18-1.91.2-2.83.17-.04,0-.08-.01-.11-.04-.62-.03-1.19-.2-1.78-.38-1.48-.45-3.09.11-4.38.85-.6.26-1.14.19-1.76.07-.01,0-.02-.01-.03-.03l-.21-.02s-.03.02-.04,0l-.19-.02s-.03.02-.04,0c-.19-.07-.44-.07-.63,0-.15-.01-.3-.04-.44-.07-.84-.05-1.68-.11-2.52-.19h-.56c-.15-.08-.3-.11-.47-.11-.06-.02-.11-.05-.17-.08-.35-.04-.71-.08-1.07-.12-.02.04-.07.02-.11,0,0,.04-.02.04-.04,0,.02-.04.08-.02.12-.02.26,0,.53,0,.79,0,.11-.01.23-.03.34,0,.02,0,.04,0,.06,0l-.02.08c.07,0,.15,0,.22.02.18.04.37.05.55.09.19.04.16.05.36.06.94.03,1.89.16,2.84.19.18,0,.42,0,.59.02.08,0,.18.07.25.08.23.04.55.03.8.05.7.04,1.08.05,1.69-.35.15-.1.49-.18.68-.25.27-.11.45-.2.7-.34.41-.22.83-.19,1.27-.19.29,0,.54,0,.84.05.62.09,1.18.36,1.78.48.94.19,2.08.13,3.03-.02.24-.04.45-.11.69-.12Z"/><path class="cls-27" d="M18.85,9.96c-.2-.02-.43.06-.63.08-.27.03-.61-.02-.89,0-.25.02-.48.13-.71.22-.9.36-1.76.97-2.76.97-.26,0-.82,0-1.05-.06-.08-.02-.14-.08-.2-.1-.12-.04-.27-.01-.39-.03-.15-.02-.28-.1-.42-.12.33,0,.64.09.96.13.51.06,1.04.06,1.54-.02.68-.12,1.32-.59,1.96-.85.81-.33,1.73-.52,2.58-.22Z"/><path class="cls-64" d="M9.36,6.56s-.08-.02-.11-.04c-.65-.6-1.32-1.17-2.16-1.47-.59-.21-1.24-.22-1.86-.2-.14.06-.28.09-.42.1l-.02.02c-.06-.02-.15-.01-.21-.04l.16-.1c1.37-.68,3.05-.03,4.04,1.01l.58.72Z"/><path class="cls-96" d="M7.42,6.13c.08.04.2.09.27.14.02.01.04,0,.03.05-.36.03-.76.11-1.09.25-.48.2-1.68,1.01-1.91,1.47-.02.04-.04.09-.04.14-.1-.01-.06-.27-.04-.35.1-.48.69-.92,1.1-1.14.52-.28,1.13-.59,1.69-.56Z"/><path class="cls-96" d="M4.73,8.27c.25.01.48-.1.71-.16.63-.16,1.32-.3,1.96-.24.29.03.57.12.86.17,0,.03-.03.03-.05.05-.33.21-.73.39-1.07.6-.25.15-.48.33-.72.5v-.06c.14-.3.59-.63.89-.75.6-.09.36-.42-.11-.31l-.4.1c-.47,0-.91.05-1.37.17-.18.03-.36.06-.53,0-.08.03-.3.01-.17-.06Z"/><path class="cls-30" d="M18.79,9.2s-.02.05-.04.04c-.04.09-.05.13.06.17.33.09.68.16,1.03.21.39.13.8.22,1.21.28.26.11.44.17.74.16.28,0,.6-.01.86-.11.07.01.09,0,.08-.03.04.01.22.05.23.06-.02.12-.17.14-.27.16-.71.14-1.47-.02-2.17-.12-.6-.09-1.15-.22-1.74-.4-.13-.04-.53-.17-.62-.23,0,0-.03-.02-.02-.03.24-.07.5-.16.68-.34.02.04.01.1-.02.17Z"/><path class="cls-5" d="M20.34,6.07s.04.06.05.06c.02.01.06-.02.09-.02,0,0,.08.07.08.08,0,.06-.06.2-.08.26,0,.03.01.05,0,.08-.03.15-.13.16-.22.23-.3.25-.67.47-.95.7-.02.02-.02.04-.04.05-.09.06-.27.1-.31.19-.03.07.15.34.19.42.07.16.1.33.15.49s.09.29.22.42c.08.08.22.12.31.18.19.12.37.27.58.35.2.08.59.12.8.08l.4.04s.04.1.04.16c.24.05.48.03.71,0,.1.03.14.02.11,0,.05.01.09.03.13.04.01.04-.02.06-.08.08-.31.04-.63.04-.95.02-.01-.12-.19-.15-.3-.17-.32-.02-.63-.06-.93-.12-.32-.15-.64-.3-.95-.47-.13-.06-.22-.23-.17-.36-.03-.38-.21-.78-.37-1.12-.02-.14.22-.31.33-.38.17-.09.32-.19.48-.29v-.03c.21-.12.41-.24.59-.39.07-.06.12-.12.11-.21,0-.05.02-.09.04-.15,0-.09-.01-.13-.04-.21Z"/><path class="cls-96" d="M6.3,9.6c.15.01.28-.06.43-.09.55-.12,1.31-.18,1.86-.07.46.1,1.26.49,1.35.99,0,.05,0,.03-.02.02-.06-.01-.16-.05-.21-.05.03-.14-.17-.29-.3-.34l-.3-.11-.02-.05c-.61-.36-1.38-.29-2.07-.2-.13,0-.64.02-.7-.06,0-.01-.02-.02-.02-.04Z"/><path class="cls-64" d="M10.46,10.53c-.1-.02-.2-.02-.3-.02-.02-.4-.29-.67-.6-.89-.72-.51-1.42-.49-2.27-.4-.23.02-.46.07-.69.11l.4-.3c.19-.02.38-.03.58-.04.51-.07,1.06-.12,1.5.19.55.22,1.04.63,1.26,1.19.05.06.09.11.11.17Z"/><path class="cls-74" d="M15.39,6.28c-.34.51-.47,1.19-.44,1.79-.04.09,0,.19.08.15.04-.02.11-.04.15-.06.08-.05.09,0,.08.08l.2-.17c.95-.57,1.91-1.15,2.92-1.6-.03-.03-.02-.04.02-.02.11-.04.21-.08.32-.13.07-.02.14-.03.21-.04-.39.18-.77.37-1.15.57-.78.42-1.62.88-2.34,1.38-.11.08-.47.46-.57.2-.14-.86.08-1.72.49-2.47.1-.07.2-.04.25-.15-.05.15-.13.33-.21.47Z"/><path class="cls-73" d="M4.1,11.44c.16-.02,0,.15-.06.21-.41.32-1.49,1.23-1.53,1.81,0,.11.18.48.3.53.33.09.15.21-.07.19,0-.02-.15-.2-.17-.22-.08-.07-.22-.08-.28-.18-.05-.09-.09-.32-.06-.42.01-.04.16-.38.18-.4.04-.05.18-.12.24-.18.32-.31.58-.67.91-.99.03-.03.06-.05-.01-.04.19-.11.35-.2.55-.3Z"/><path class="cls-103" d="M7.16,6.03c-.71.17-1.41.44-1.99.91-.03.05-.09.14-.15.15-.04.03-.08.06-.11.11v.03c-.27.29-.49.6-.39,1.02.07.26.67.22.87.16.37-.1.7-.18,1.09-.18.12,0,.72,0,.77.05.05.03-.02.09-.06.11.01.04-.05.08-.08.04-.33.19-.63.42-.9.68-.29.32-.13.73.31.71l.02.02c-.28.13-.67-.12-.59-.44.09-.26.41-.6.64-.77.09-.07.25-.08.21-.24-.04,0-.08-.02-.12-.02-.31-.02-.65,0-.96.07-.36.07-.94.34-1.23-.02-.07-.09-.05-.15-.05-.23,0-.27.01-.51.19-.73.22-.29.54-.6.84-.81.4-.28,1.02-.5,1.49-.6.04,0,.08,0,.09-.05.03.02.07.03.11.04Z"/><path class="cls-64" d="M18.58,8.84c-.21.03-.43.04-.64.05-.88.06-1.78.16-2.58.56h-.05s-.2.08-.2.08c-.03-.02-.05-.05-.06-.1.57-.27.96-.43,1.59-.58.46-.11,1.59-.39,1.95-.01Z"/><path class="cls-10" d="M7.78,5.52c.2.07.34.19.45.36.22.22.46.43.71.63.02-.03.08,0,.06.04.12.07.25.13.38.16.11,0,.27.05.18.18l.15.07c.07-.04.14-.07.23-.07-.02-.11,0-.24.05-.33.07.11.19.48,0,.52-.03,0-.26-.01-.3-.02-.2-.05-.32-.26-.48-.35-.29-.17-.38-.25-.63-.44-.14-.1-.4-.25-.51-.37-.13-.15-.14-.2-.34-.3-.25-.13-.97-.41-1.22-.45s-.55-.03-.82-.07c-.12-.02-.23-.07-.34-.08-.07,0-.32-.02-.18.06-.07-.02-.14-.04-.21-.06.05-.07.21-.11.31-.11.45.04.9.08,1.35.12.28.06.9.3,1.14.45,0,0,.01.02.01.04Z"/><path class="cls-30" d="M19.7,6.85c0,.07-.05.13-.16.17-.34.18-.7.37-1.02.58-.1.07-.38.24-.42.36-.05.12.13.26.22.31.14.06.26.13.37.23.2-.07.37.41.16.45.04-.42-.51-.49-.82-.55-.03-.09-.33-.58-.3-.63.41-.14.75-.42,1.15-.6.27-.12.55-.2.82-.31Z"/><path class="cls-59" d="M7.42,6.13c-.02.06-.04.03-.08.03-.53-.02-.97.26-1.42.49-.26.13-.52.22-.74.43-.11.1-.45.5-.5.63-.03.08-.05.42-.01.49.01.03.05.05.06.08,0,0-.01.04.01.04.05.01.12-.02.17-.02.04,0,.08.04.13.04.32.03.83-.14,1.17-.18.19-.02.45,0,.64-.04.25-.05.52-.2.78-.06.18.1.08.26-.08.3-.2.05-.16-.01-.36.11-.44.27-.48.3-.77.72-.05.07-.13.13-.17.19-.05.06-.13.01-.15-.06-.06-.19.84-.8,1.02-.89.03-.01.04-.03.08-.04l.06-.06c.56-.15-.06-.1-.23-.07-.54-.05-1.06,0-1.58.15-.18.05-.85.1-.92-.13-.01-.03-.01-.06.02-.08-.06-.37.11-.63.34-.89-.02-.03.01-.07.04-.04.37-.46.9-.72,1.43-.94.29-.12.63-.24.94-.23.03.01.07.02.11.04Z"/><path class="cls-66" d="M20.34,6.43c0,.09-.04.16-.13.23-.34.25-.7.47-1.09.65-.2.15-.4.28-.61.41.02.1,0,.17-.07.22,0,.09-.02.14-.08.16.07,0,.14.05.19.14.2.01.33.09.38.25.14.08.19.49.01.55-.04.07-.09.13-.15.16-.02-.08,0-.1.02-.17.02-.04.03-.06.04-.08.02-.04.07-.11.06-.14,0-.05-.08-.23-.11-.26-.05-.06-.09-.01-.13-.02-.03,0-.11-.09-.16-.12-.16-.09-.42-.17-.47-.38-.02-.09.02-.14.08-.2.2-.21.88-.56,1.13-.71.15-.08.33-.14.43-.28.18-.08.45-.21.57-.37.05-.06.07-.13.11-.2,0,.07-.01.09-.04.15Z"/><path class="cls-87" d="M16.72,8.04c-.35.16-.7.33-1.04.51-.24.14-.44.34-.63.54l-.21.16c-.05.06-.15.12-.19.17-.05.23.06.29.33.17.08-.05.16-.07.22-.07.49-.24.98-.4,1.54-.5.24-.04,1.8-.22,1.86-.15.02.02.01.03-.01.05-.05.06-.04.04-.08.06.04-.06.02-.04-.03-.04-.45-.02-1.2.1-1.65.17-.7.11-1.07.3-1.7.54-.21.08-.4.15-.63.07-.02-.2.14-.38.27-.52.53-.55,1.07-.85,1.76-1.14.07-.03.09-.1.21-.04Z"/><path class="cls-52" d="M4.27,11.36c.08-.05.17-.05.09.06-.37.33-.74.67-1.12,1-.19.18-.6.67-.6.94,0,.08.08.32.17.33.06,0,.1.02.12.08.07.05.14.11.23.04.17-.07.45.19.23.26l-.2.04c-.16.04-.32.08-.47.11,0-.02.02-.04.02-.04.03-.02.26-.01.21-.08,0-.01-.19-.06-.25-.12-.05-.05-.23-.4-.23-.46-.02-.26.26-.61.41-.8.27-.34.61-.66.95-.94.11-.09.21-.11.29-.24.02-.04,0-.05-.02-.07.05-.02.11-.07.17-.08Z"/><path class="cls-69" d="M7.12,8.42c-.28.23-.6.4-.86.68-.06.07-.13.14-.12.24l.11.04s-.02.03-.02.04c-.08.33.2.37.45.3.41,0,.82-.03,1.23-.09.4,0,.83.07,1.18.28.18.06.45.15.57.29.02.02.18.26.04.22-.02,0-.04,0-.06,0-.53-.52-1.24-.58-1.96-.61-.38-.01-.76,0-1.13.03-.2.02-.39-.05-.48-.23s-.01-.36.1-.5c.19-.23.68-.56.95-.69Z"/><path class="cls-47" d="M6.72,10.7s.03,0,.04,0c.34.08.69.13,1.05.15v.05c.14.02.27.04.41.05l.26.1h.74s.07,0,.08.03c.09-.01.24,0,.31.04,0-.01,0-.02,0-.02.11,0,.23,0,.33.02.11,0,.25,0,.37.04,0-.03.03-.03.04,0l.76.08s.03-.04.04,0c.06,0,.11.02.14.04,0-.01,0-.02,0-.02.09,0,.35-.02.42,0,0,0,0,.01.01.02,0-.01,0-.02,0-.02.08-.01.24.04.32.06.06,0,.22.03.28.06,0,0,0,.01.01.03l.09.02c.16-.03.31-.04.46-.02.01-.04.03-.04.04,0,.05.02.1.01.15,0,.04-.05.09-.02.08.04.02,0,.03-.02.04,0,.06.02.11.03.17.04,0-.06.02-.05.04,0,.09,0,.16.02.21.06-.3-.02-.6-.09-.88-.1-.19,0-.34.04-.54-.02-.39-.11-.58-.07-.96-.12-.78-.09-1.55-.18-2.33-.22-.2-.01-.54.02-.71,0-.1-.01-.21-.08-.32-.1-.06,0-.34.01-.36,0l.06-.11s-.28.02-.33.02c-.12,0-.58-.03-.66-.06-.08-.04-.07-.06-.03-.13.03,0,.07-.02.13-.02Z"/><path class="cls-49" d="M18.92,7.51l.02.02c-.06.06-.1.12-.1.2.16.35.33.72.37,1.11,0,.06-.01.12-.08.13.01.06-.03.11-.09.12,0,.08-.06.15-.17.21.52-.02.95.09,1.38.36l.07.02c.3.02.64.03.93.08.04,0,.31.08.32.1.01.02-.01.07.01.09.07.05.47.01.57,0,.13,0,.33.04.43-.07.02,0,.04.01.06.02v.05c-.11.09-1.05.14-1.15.09-.04-.02-.05-.03-.05-.07-.46-.07-.91-.16-1.36-.28l-.2-.09-.91-.15c-.19-.02-.27-.08-.22-.17.06-.07.12-.15.18-.23.17-.07.13-.3.09-.45-.1-.22-.17-.45-.22-.68-.22-.23-.18-.28.07-.43.01,0,.03,0,.04.01Z"/><path class="cls-94" d="M4.79,4.97l-.03-.04c.08-.03.17-.01.25-.03.1-.02.22-.1.32-.1.91-.02,1.56.03,2.37.48.65.36,1.1.81,1.65,1.28.02.02.03.03.04.04-.16.02-.34-.06-.45-.19-.49-.66-1.29-1.09-2.05-1.35-.16-.06-.3-.08-.47-.1-.4-.05-.85-.06-1.23-.07-.03.03-.19.1-.24.1-.02,0-.13-.03-.11-.04,0,0,.06.03.03.04-.03,0-.06-.01-.08-.02Z"/><path class="cls-70" d="M3.08,4.88c.06-.25.15-.5.21-.76.14-.65.16-1.33.31-1.97,0-.04.06-.26.07-.27.05-.05.06.13.06.15.02.83-.16,1.64-.44,2.43-.03.07-.16.46-.18.47-.02,0-.03-.02-.03-.04Z"/><path class="cls-10" d="M10.95,10.59c-.09.01-.17,0-.25-.02-.06-.02-.11-.05-.15-.11-.24-.5-.66-.88-1.07-1.25h-.05c-.37-.27-.81-.39-1.26-.37-.32.06-.61.09-.93.08-.02,0-.03-.02-.03-.03.05-.03.1-.07.15-.11-.01.06.03.04.07.04.27,0,.53-.11.78-.11.11,0,.32.02.44.03.37.02.89.38,1.16.64.06.06.14.19.21.23.04.03.09.01.13.04.17.1.39.57.5.75.01.02.1.13.11.14.06.05.13,0,.18.04Z"/><path class="cls-66" d="M18.75,9.28c0,.06,0,.08.06.1l1.09.18c.3.18.64.21.98.27.21.04.41.07.62.11l-.02.06c.2.05.39,0,.58,0s.42.04.58-.1c.03.01.06.01.08.02l.03.04c-.39.1-.89.17-1.3.12-.16-.02-.21-.07-.33-.11-.32-.11-.72-.1-1.06-.23-.31-.12-.57-.12-.89-.19-.09-.02-.43-.11-.47-.18-.03-.05.03-.1.05-.13.02,0,.02.02,0,.04Z"/><path class="cls-95" d="M9.87,9.62c.29.2.5.5.65.82.04.04.06.08.07.11-.05.01-.09-.02-.13-.02-.17-.09-.21-.33-.31-.48-.12-.19-.35-.42-.53-.55-.23-.16-.47-.22-.71-.37-.42-.26-1.3-.1-1.78-.07-.03,0-.1.01-.12-.02.02-.02.04-.03.06-.04.18-.05.36-.07.56-.06.85-.23,1.65.03,2.23.69Z"/><path class="cls-64" d="M18.31,6.43l-.03.04-.44.19c-.73.41-1.45.81-2.18,1.2h-.04c1.04-.73,1.41-1.09,2.69-1.43Z"/><path class="cls-64" d="M9.11,4.59c.05.26.14.52.27.77.08.23.2.57.23.8,0,.03,0,.05-.02.08-.19-.34-.35-.7-.5-1.06-.13-.32-.31-.72-.38-1.06,0-.02-.03-.09.01-.09.09.2.24.38.38.55Z"/><path class="cls-93" d="M12.07,5.35s.02.09-.03.07c-.1-.03-.86-1.36-.94-1.55-.03-.08-.06-.17-.07-.25-.02-.09-.02-.16-.02-.25-.01-.06,0-.09.02-.11.3.72.67,1.4,1.04,2.09Z"/><path class="cls-92" d="M18.85,3.59c.08-.07.07.13.04.19-.49.73-.8,1.59-.95,2.45l-.04.03s-.04,0-.02-.02c.02-.12,0-.27.03-.39.09-.53.58-1.88.95-2.26Z"/><path class="cls-103" d="M6.55,9.83c.49-.11,1.66-.09,2.16.03.3.07.52.2.77.37.04.03.19.07.15.17-.01,0-.04.02-.06.02,0-.06-.07-.1-.12-.13-.87-.54-1.77-.47-2.75-.46-.09,0-.24.06-.34.06s-.32-.1-.38-.19c-.01-.02-.07-.18-.08-.2,0-.06.03-.08.04-.11.02.33.27.51.59.44Z"/><path class="cls-45" d="M1.52,6.24c.28.02.57.09.85.04.03.24.1.49.08.73,0,.03-.02.03-.02.03-.21-.2-.43-.38-.67-.55-.06-.11-.13-.17-.22-.2l-.02-.05Z"/><path class="cls-80" d="M6.23,9.41c0,.07,0,.15.06.19.24.07.48.06.72.05.54-.08,1.28-.11,1.8.06.09.03.19.13.27.18-.29-.1-.9-.3-1.19-.24-.42.09-.78.08-1.21.09-.06,0-.11.04-.18.03-.26-.01-.38-.1-.27-.37Z"/><path class="cls-6" d="M1.73,1.65h.02c.09.36.19.73.29,1.1l.03.02s.01.07.02.11c.1.51.3,1.04.49,1.52,0,.02.01.04.02.06,0,.07-.02.14-.09.09-.25-.58-.49-1.2-.7-1.78l-.03-.21-.02-.02s-.02-.04-.02-.06c-.01-.07-.04-.13-.02-.21h.05s.16.56.16.56c-.05-.31-.12-.62-.21-.92-.02-.1-.02-.18.02-.25Z"/><path class="cls-48" d="M23.63,4c-.31.45-.62.89-.94,1.32-.35.41-.64.93-.69,1.45.01,0,.02.02.02.04.08.1.05.06.13.02.06,0,.05.02.01.04-.17.11-.23-.05-.22-.2.01-.18.21-.68.29-.85.32-.68.87-1.16,1.3-1.78.04-.01.07-.03.11-.04Z"/><path class="cls-9" d="M15.03,8.23s-.03.07-.09.03-.05-.49-.04-.57c.02-.23.18-1.02.31-1.19.05-.07.12-.12.18-.21-.14.41-.29.82-.32,1.26,0,.12.02.34,0,.44-.02.07-.24.18-.04.25Z"/><path class="cls-111" d="M24.25,3.76s.06,0,.04.02c-.24.21-.52.42-.73.66-.3.34-.51.75-.79,1.1-.04-.03-.04-.08.02-.16.32-.47.64-.94.95-1.42l.04-.03c.16-.06.31-.11.47-.17Z"/><path class="cls-3" d="M5.2,4.88c.1-.06.23,0,.33,0,.74.03,1.15,0,1.83.32.52.24,1,.53,1.43.94.13.12.19.3.35.39.05.03.19.03.26.06.02.02.03.03.04.04,0,.01-.02.03-.03.03-.11,0-.38-.1-.46-.17-.26-.29-.54-.56-.83-.81-.46-.28-.99-.49-1.5-.65-.47-.05-.95-.09-1.42-.12v-.02Z"/><path class="cls-109" d="M4.65,11.19c.09-.02-.03.09-.04.1-.54.47-1.54,1.18-1.86,1.82-.11.22-.02.19,0,.38,0,.1-.07.14.06.18.02,0,.02.01,0,.02,0,0-.04,0-.06-.01-.07-.04-.15-.24-.15-.32,0-.14.3-.59.4-.72.3-.36.69-.64,1.04-.95.11-.1.2-.22.32-.32.02-.05-.08-.01-.08-.01.11-.08.26-.12.38-.17Z"/><path class="cls-23" d="M18.54,6.37s.01.01.01.02c0,.02-.13.06-.16.06,0,0-.01.02-.02.02-.93.45-1.84.94-2.74,1.48-.09.05-.18.09-.28.08.07-.08.19-.13.27-.19.23-.08.44-.22.66-.34.52-.28,1.01-.62,1.55-.86.16-.07.32-.14.47-.22.08-.02.15-.04.23-.06Z"/><path class="cls-79" d="M13.89.59c.09-.03.06.08.04.14.05.05.05.08.04.14-.03.13-.35.69-.44.82,0,0-.02.01-.04.02-.03.02-.04.05-.04.08.02.02,0,.03-.02.02-.11.08-.13-.07-.05-.14.02-.15.07-.3.15-.45.1-.25.21-.42.36-.63Z"/><path class="cls-3" d="M18.37,6.47c-.92.5-2.03,1.04-2.88,1.63-.05.03-.22.2-.26.21-.11.02.06-.15-.05-.15.05-.03.09-.09.17-.13.87-.38,1.53-.84,2.35-1.28.2-.11.46-.22.68-.28Z"/><path class="cls-15" d="M9.19,4.69c.19.41.44.96.65,1.43.02.04.03.08.04.13s.02.09.03.13c.06.13.1.38-.07.45-.04.02-.08,0-.07-.05.03-.07.01-.14,0-.21-.17-.6-.36-1.21-.62-1.79-.02-.04-.05-.15,0-.14,0,.01.03.02.04.04Z"/><path class="cls-15" d="M9.47,9.22c.16.11.3.25.4.4-.17-.11-.27-.26-.45-.37-.37-.23-.63-.32-1.07-.37-.24-.03-.52.06-.76.08-.11.01-.23,0-.34,0-.06,0-.13.06-.18.02.04-.03.08-.06.13-.08h.43c.65-.16,1.31-.13,1.83.32Z"/><path class="cls-95" d="M18.58,8.84s.05.02.04.05c0,.02-.04.02-.04.03.02-.07-.1-.04-.14-.04-.9.06-1.8.11-2.65.41-.2.07-.38.19-.59.22,0-.04.04-.06.11-.06.75-.43,1.78-.54,2.63-.59.21-.01.43-.02.64-.02Z"/><path class="cls-34" d="M1.9,11.42c.05-.06.31-.35.35-.34.03.01.04.03.04.06.02,0,.04-.02.05-.01.01,0,.14.14.15.16-.27.18-.52.4-.84.49,0-.14.15-.27.24-.36Z"/><path class="cls-12" d="M13.7,1.52c-.2.38-.33.79-.44,1.18-.2.5-.35,1.01-.47,1.54-.02.07-.08.31-.18.21-.02-.02,0-.19,0-.23,0-.12.02-.25.06-.36.02,0,.03,0,.04.02l-.02.21.09-.38c.19-.59.4-1.17.61-1.75l.25-.45s0-.08.04-.08c.03-.08.07-.13.13-.17,0,0,.01,0,.02,0v.02c-.04.08-.09.16-.15.23Z"/><path class="cls-8" d="M23.78,3.93c-.25.48-.64.89-.92,1.36-.06.11-.08.15-.1.25,0,.08-.32.48-.38.6-.1.18-.16.39-.29.54-.02,0-.03.01-.03,0-.03-.03.18-.6.26-.67.17-.2.32-.42.45-.65l.03-.08c.31-.45.62-.9.92-1.34.02,0,.04-.01.06-.02Z"/><path class="cls-57" d="M1.77,2.56s.1.37.14.47c.18.49.4.97.61,1.44.01.02.02.05.02.08l.06-.08c.08.24.13.5.21.74.02.11-.04.04-.08-.02-.36-.73-.66-1.48-.89-2.26-.04-.03-.06-.08-.06-.15,0-.03,0-.06,0-.08-.02-.04-.02-.08,0-.13Z"/><path class="cls-40" d="M2.28,11.02c.06-.06.13-.12.2-.17.22-.05.43-.11.65-.18.36-.08.15.15-.04.22l-.11.09c-.1.1-.3.19-.42.27-.13,0-.07-.15.03-.2l.19-.12c-.17.07-.34.13-.52.17l-.04-.03s.04-.05.06-.06Z"/><path class="cls-27" d="M9.04,10.64c-.03.15.13.08.2.09.04,0,.09.03.13.04.25.03.66.03.88.09.09.02.11.07,0,.08-.07,0-.13-.02-.19-.02-.39-.01-.72-.06-1.09-.12-.1-.01-.12-.12-.2-.14-.17-.03-.55,0-.75,0,.02-.04.08-.02.12-.02.3,0,.6,0,.9,0Z"/><path class="cls-89" d="M3.76,2.09c.09.67-.12,1.41-.31,2.06-.05.16-.37,1.13-.43,1.14-.02,0-.02-.03-.02-.05.02-.13.06-.25.08-.36.03.03.04-.02.05-.04.12-.31.25-.6.32-.93.12-.49.23-1.08.24-1.58,0-.09.04-.21.04-.31,0,.02.01.03.02.06Z"/><path class="cls-84" d="M3.86,2.52c0,.1-.01.18-.03.28-.16.86-.36,1.72-.71,2.52-.03.03-.09.15-.12.06,0,0,0-.01,0-.02.39-.84.66-1.83.79-2.78,0-.11,0-.21.01-.3.04.07.06.18.06.25Z"/><path class="cls-17" d="M21.29,3.87c-.07.19-.19.44-.33.59-.07.07-.58.54-.64.55-.04,0-.06-.02-.11,0-.04.01-.08.07-.12.09-.06.04-.3.21-.32.07.21-.02.31-.18.47-.23.32-.22.59-.48.81-.77.04-.17.14-.33.23-.45,0,.04.01.12.02.17Z"/><path class="cls-42" d="M21.24,3.24c0,.08,0,.16,0,.23.02.05.02.09,0,.13-.14.24-.29.48-.44.72-.05.08-.23.27-.19.1.23-.38.41-.82.59-1.23.02-.03.03-.02.04.04Z"/><path class="cls-108" d="M3.8,2.26c.01.1.03.22.02.33-.18.93-.35,1.84-.76,2.71-.01.03-.01.07-.06.06,0-.04,0-.06,0-.11.02.05.04-.04.05-.05.3-.82.63-1.68.71-2.57.02-.17,0-.36,0-.54.01.05.04.12.04.17Z"/><path class="cls-32" d="M13.12,2.2s.04.08.01.14c.03-.06.07-.12.14-.14h.02c-.16.52-.33,1.02-.49,1.53-.09.04-.09,0-.08-.08l.03-.15c.02-.17.07-.33.11-.49.07-.27.16-.54.25-.8Z"/><path class="cls-18" d="M5.2,4.88c.17-.02.54.05.73.06.28.02.72-.01.97.13.28.16.54.22.84.36.48.23.78.51,1.12.92.15.19.35.27.59.29.03.02.04.05.06.06l-.02.03c-.17-.02-.34-.08-.49-.18-.03-.02-.04-.02-.06-.04-.22-.18-.44-.37-.65-.57-.14-.18-.28-.36-.51-.43-.24-.16-.6-.28-.87-.37-.46-.16-.88-.14-1.36-.18-.09,0-.18-.04-.27-.04-.12,0-.2.05-.31.09-.03,0-.06-.01-.08-.02l-.03-.04c.13.04.24-.05.35-.06Z"/><path class="cls-67" d="M13.65,1.52c-.26.46-.35.79-.51,1.28-.08.27-.2.53-.28.8-.02.08-.12.55-.14.56,0,0-.06,0-.06,0-.01-.01.02-.26.02-.3.02-.12.03-.26.08-.38,0,.06-.02.13-.02.18,0,.04,0,.03.04.03l.49-1.5s-.02,0-.02,0c.1-.21.24-.48.37-.67,0,0,.01,0,.03,0Z"/><path class="cls-16" d="M2.81,13.66c.08.02.23.03.3.06.03.01.02.05.07.06.09.02.32-.06.41-.03.05.02.22.12.22.18,0,.05-.17.08-.23.1-.12.03-.25.06-.38.06.04-.01.21-.05.23-.07.07-.07-.13-.23-.17-.23-.05,0-.08.1-.22.05-.02,0-.1-.06-.12-.08-.04-.04.01-.05-.09-.11v-.02Z"/><path class="cls-7" d="M1.52,6.24c.18.02.2.16.31.25.15.14.37.28.53.41.04.04.09.08.07.14,0,.04,0,.09,0,.13,0,0-.02-.01-.02-.02-.32-.39-.8-.65-1.24-.88-.01,0,0-.03,0-.05.13,0,.23.01.36.02Z"/><path class="cls-60" d="M21.58,9.68c.3,0,.58.07.87.15.11.08-.06.05-.09.05-.13,0-.3.03-.42.03-.04,0-.34-.03-.35-.04-.03-.04.04-.18-.13-.17,0-.04.1-.02.13-.02Z"/><path class="cls-1" d="M22.75,5.33l-.04.08c-.31.35-.55.73-.65,1.19.02.02.01.09-.02.08l-.02.08c-.04-.09.02-.24.05-.34.19-.66.58-1.09.98-1.62.2-.27.4-.54.6-.81.01,0,.03-.02.04-.02h.01c-.31.46-.62.9-.92,1.35h-.02Z"/><path class="cls-61" d="M9.42,4.97s-.05-.04-.07-.06c-.04.06.04.09.07.14.05.11.08.28.14.39.16.36.41.71.44,1.12-.01,0-.03,0-.03,0-.03-.04-.05-.12-.06-.17-.15-.32-.29-.65-.43-.97-.09-.21-.19-.42-.28-.63-.01-.02-.06-.07,0-.09.08.09.18.17.23.27Z"/><path class="cls-85" d="M1.16,6.22c.07.06.18.09.26.13.16.08.91.58.98.72.02.03,0,.07.01.08-.04,0-.07-.03-.1-.05-.34-.26-.99-.85-1.42-.85.07-.04.19-.02.27-.02Z"/><path class="cls-46" d="M1.73,1.54s.01.07,0,.11c0,.33.14.65.21.97.02.1.02.24.05.37,0,.03.04.07.04.07,0,.05-.05.02-.07-.02-.07-.14-.21-.61-.25-.78-.03-.13-.04-.4-.04-.54,0-.09.04-.19.02-.28.04,0,.03.08.04.11Z"/><path class="cls-33" d="M18.96,3.83c-.42.73-.8,1.5-.87,2.35-.02.04-.05.03-.06.03-.01-.25.06-.51.13-.75.14-.5.36-1,.63-1.44-.01-.01-.02-.02-.02-.03.03-.06.1-.2.14-.26,0,0,.01,0,.03,0,0,.04.01.07.02.11Z"/><path class="cls-76" d="M21.27,3.7c0,.11-.1.19-.13.28-.04.14-.04.18-.14.32-.14.19-.57.55-.76.62.07-.09.15-.17.21-.25.13-.11.26-.24.37-.38l.43-.7s0-.08,0-.13c.04.06.01.16.02.23Z"/><path class="cls-106" d="M7.23,2.2c-.11.46-.3,1.06-.74,1.3-.19.11-.45.14-.17-.08.11-.05.22-.12.3-.21l.03-.02c.23-.28.41-.71.56-1.08-.06-.02-.06-.13,0-.15.04.05.02.16.02.23Z"/><path class="cls-71" d="M9.15,4.65s.02.15.03.19c.14.35.3.7.43,1.05.07.2.12.46.15.68-.05-.11-.12-.23-.17-.34-.1-.26-.13-.51-.21-.78-.07-.25-.24-.53-.29-.77,0-.03-.03-.08,0-.1.02.02.03.04.04.06Z"/><path class="cls-107" d="M11.1,4s.04.07.04.11c.15.52.46.97.78,1.41.11.15.24.33.38.45.02.02.06.04.09.03,0,.01.01.03.02.04.01.06-.04.05-.07.04-.13-.03-.59-.67-.68-.82s-.49-.73-.53-.85c-.04-.11-.03-.3-.04-.42,0-.02.01-.02.02,0,.02,0,.02.01,0,.02Z"/><path class="cls-112" d="M10,6.56s0,.01,0,.02c0,.11-.02.23,0,.34-.04.06-.11.03-.16.05-.04.01-.06.06-.11.05-.04,0-.2-.08-.2-.11.15-.17-.06-.13-.2-.18-.11-.04-.21-.11-.31-.17.17.05.33.16.51.15.03.02.1.1.12.1.06.02.09-.01.13-.02.02,0,.04.03.07,0,.01,0,.11-.16.11-.17.01-.05-.07-.17-.04-.24.03.06.04.12.08.17Z"/><path class="cls-99" d="M7.2,1.97s0,.1,0,.15l-.21.5c-.11.26-.17.34-.19.22.06-.15.09-.35.14-.5.07-.22.17-.44.24-.66.04,0,.02.05.02.07,0,.07,0,.15,0,.22Z"/><path class="cls-17" d="M7.25,2.3c.02.47-.36,1.03-.74,1.3-.11.08-.2.15-.33.08-.06-.03-.13-.15-.09-.19,0,0,.05,0,.06,0l.04.02c0,.15.15.07.24.03.49-.25.66-.81.8-1.3.03.01.02.04.02.06Z"/><path class="cls-97" d="M7.31,6.09l-.49.09c-.69.23-1.38.54-1.88,1.07,0-.02-.01-.03,0-.04.07-.1.18-.22.28-.28.53-.48,1.28-.78,1.99-.89.03.01.07.03.11.04Z"/><path class="cls-50" d="M2.21,11.08c.07-.04.17-.04.24-.06.03-.01.08-.04.14-.06.1-.03.18-.1.28-.07.01.05-.03.05-.05.06-.06.04-.26.15-.29.2-.03.04.01.06.02.1-.02.01-.04.03-.06.04-.1-.03-.11-.03-.16-.13l-.16.11s.11-.12.05-.17c-.1.11-.22.21-.33.32.06-.1.22-.28.32-.34Z"/><path class="cls-21" d="M18.85,3.59s.02-.04.03-.04h.03c0,.05.01.12.02.17-.01.11-.1.2-.15.3-.41.66-.68,1.43-.79,2.21,0,.01-.08.05-.1.03.06-.09.05-.21.07-.32.14-.63.37-1.25.68-1.81.08-.14.23-.29.24-.46,0-.04.02-.09-.04-.07Z"/><path class="cls-62" d="M7.23,2.24c-.03.38-.31.98-.61,1.21-.12.09-.48.33-.46.03,0,0,.01-.02.02-.02.05-.02.11-.02.15-.04l-.08.13c.07.06.4-.18.47-.24.16-.15.29-.45.37-.65.06-.15.1-.31.16-.46,0,.01,0,.03,0,.04Z"/><path class="cls-83" d="M1.83,2.92s.01.06.02.08c.18.53.38,1.1.59,1.62.07.16.14.32.23.48.04.08.08.14.15.19,0,.01.01.03.02.04-.17,0-.22-.25-.27-.35-.3-.58-.54-1.27-.74-1.89-.04-.11-.05-.2-.06-.32.02.05.04.1.06.15Z"/><path class="cls-35" d="M3.53,10.68c-.18.09-.36.21-.55.3.03-.03.05-.09.09-.11.01-.01.32-.17.2-.18-.18-.02-.33.09-.49.14-.09.02-.22.02-.3.06-.04.02-.12.1-.19.14.04-.08.13-.13.19-.19.08-.04.19-.08.27-.08.19-.05.37-.11.56-.17.12-.05.35-.06.22.11Z"/><path class="cls-2" d="M11.03,3.62c.08.41.72,1.39,1,1.74.03.04.04.06.04,0,.06.11.11.21.17.32.02.06.02.08-.02.06-.25-.29-.46-.63-.66-.97-.15-.26-.3-.53-.42-.79-.03-.01-.05-.05-.06-.11l-.02-.06c0-.06-.04-.12-.02-.19Z"/><path class="cls-38" d="M11.18,4.17s.07.09.06.15c.03.1.07.2.13.3.04-.01.05,0,.02.04l.04.08s.05.02.07.04c.24.43.53.82.86,1.17,0,.01.01.03.02.04.01.09-.07.02-.09,0-.25-.2-.9-1.17-1.04-1.48-.06-.13-.08-.27-.12-.4,0-.02.01-.02.02,0,.04,0,.06.04.02.06Z"/><path class="cls-107" d="M14.16,1.04c-.09.1-.15.22-.23.33-.15.21-.13.14-.22.39-.03.09-.13.19-.16.3-.05.14-.05.27-.11.42-.03.06-.09.22-.16.23.08-.41.22-.83.44-1.18.03-.09.1-.18.16-.26.08-.1.19-.22.28-.29,0,.02,0,.04,0,.06Z"/><path class="cls-56" d="M13.7,1.44s-.03.06-.04.08l-.3.49-.08.18c-.04.06-.08.13-.11.19-.03.05-.01.15-.09.17,0-.12.02-.25.05-.36,0,0,0-.01,0-.02.02-.02.04-.02.07-.01l.18-.34h.05s.02-.02.02-.03c0-.03.02-.06.04-.08.16-.27.34-.51.41-.79,0-.04.04-.05.04-.11,0-.04-.04-.03-.05-.05-.01-.06.05-.13,0-.18.01-.02.02-.04.04-.06.15-.19.3.04.23.21-.16.23-.31.46-.46.69Z"/><path class="cls-68" d="M11.14,3.98c.34.59.61,1.17,1.06,1.7.03.03.05.06.04,0,.04.07.06.14.08.19.03.07-.01.06-.05,0-.44-.51-.79-1.11-1.09-1.7,0-.02-.01-.04-.02-.06-.02,0-.03-.04-.02-.06-.03-.04-.03-.06,0-.06Z"/><path class="cls-35" d="M20.44,4.67c.05-.07.12-.18.17-.25,0,.07.01.04.04.01.26-.24.33-.59.59-.84-.01.16-.12.24-.2.38-.2.36-.23.39-.53.67-.02.02-.06.07-.07.02Z"/><path class="cls-31" d="M14.18.76c-.08.19-.2.36-.36.51-.03.05-.1.13-.13.17.03-.2.51-.65.45-.82-.03-.09-.14-.18-.22-.09.04-.05.07-.12.12-.17.05-.06.12-.12.18-.17,0,.19-.03.38-.04.57Z"/><path class="cls-28" d="M11.18,4.17c.05-.01.04.03.06.06.34.63.57,1.04,1.02,1.6,0,.01.05.08.06.04.01.03.03.06.04.08,0,.04-.08-.03-.08-.03-.3-.31-.62-.8-.85-1.17l-.04-.08s-.01-.03-.02-.04c-.05-.09-.1-.19-.13-.3-.02-.05-.04-.1-.06-.15Z"/><path class="cls-85" d="M7.2,6.05c-.29.06-.57.14-.84.25-.38.14-.84.37-1.14.64-.02.02-.04.02-.04,0,.41-.37,1.01-.66,1.54-.81.15-.04.3-.06.44-.1.02,0,.03.02.04.02Z"/><path class="cls-4" d="M13.42,1.82c-.04.08-.17.39-.23.41l-.06-.05c.08-.32.26-.66.4-.95-.03.07-.12.28-.12.33,0,.05.02.08.01.12,0,.05-.13.12,0,.14Z"/><path class="cls-15" d="M10.69,10.57s-.07,0-.11-.02c-.12-.05-.14-.21-.2-.31-.13-.22-.34-.43-.52-.62-.13-.14-.26-.28-.4-.4.24.14.43.37.62.57.04.04.08.06.12.09.18.19.28.52.49.69Z"/><path class="cls-14" d="M1.83,2.92c.3.7.53,1.62.91,2.26.01.02.08.12.07.03.01.03.02.07.02.08,0,.04-.06-.02-.06-.03-.3-.38-.74-1.71-.91-2.22-.01-.04-.02-.08-.02-.12Z"/><path class="cls-57" d="M2.57,4.4s-.05-.07-.07-.11c-.17-.45-.32-.84-.43-1.31,0-.03-.03-.08,0-.1.15.51.33,1.02.49,1.52Z"/><path class="cls-78" d="M13.19,2.96c-.1.29-.2.6-.27.9-.04.15-.13.75-.22.81-.05.03-.11,0-.14.06,0-.08.01-.17.02-.25.02,0,.04-.01.05,0,.03.04.04.03.08-.04.04-.06.06-.13.08-.2.08-.45.21-.88.4-1.29Z"/><path class="cls-110" d="M13.27,2.73c-.03.08-.06.15-.08.23-.1.23-.2.46-.26.7s-.09.57-.18.78c-.02.04-.06.11-.1.13-.08.03-.03-.06-.07-.08,0-.08.01-.19.04-.25,0,.36.1.2.16-.02.15-.58.25-.94.48-1.5.01-.02.02-.01.02.02Z"/><path class="cls-90" d="M3.97,10.47s-.07.03-.11.04c-.07-.07-.22-.06-.33-.04-.32.08-.64.19-.95.31-.04.01-.05,0-.03-.04.17-.05.33-.13.5-.19.14-.05.29-.07.41-.12.07-.02.17-.1.22-.11.11-.02.28,0,.28.15Z"/><path class="cls-94" d="M15.05,9.43c.05-.01.05.05.07.06,0,0,.14-.07.19-.04-.04.02-.07.05-.11.06-.05.03-.12.08-.19.1-.06.02-.28.08-.33.07-.08-.02-.08-.21-.04-.27-.05.28.27.08.4.02Z"/><path class="cls-11" d="M22.77,5.37c-.1.16-.19.39-.31.55-.06.08-.16.14-.21.24-.06.11-.11.31-.16.44,0,.02-.04.08,0,.09-.02.03-.03.06-.06.08-.02-.02-.02-.04,0-.08,0-.03,0-.04.02-.08.11-.47.37-.89.7-1.23,0-.02.01-.02.02,0Z"/><path class="cls-102" d="M18.03,6.22s-.01.02-.02.02c-.05.02-.09.05-.15.04-.01-.04.02-.04.02-.04,0,.02,0,.02.02.02.03,0,.07-.01.08-.04.07-.58.25-1.13.49-1.66.08-.18.18-.4.31-.54-.37.68-.69,1.41-.76,2.2Z"/><path class="cls-51" d="M6.61,3.21c.07-.1.15-.27.19-.38l.03.04c.13-.25.22-.53.37-.76-.03.22-.36.92-.52,1.08-.02.02-.06.07-.07.02Z"/><path class="cls-36" d="M11.01,10.81l.19.02s.01,0,.02,0l.08.02c-.21.06-.43.02-.65,0-.14-.01-.29-.01-.42-.06-.04-.01-.07.02-.03-.04.27.01.53.05.8.06Z"/><path class="cls-82" d="M15.68,8.54c-.14.11-.28.2-.39.34-.04.05-.05.11-.1.16-.07.07-.27.14-.36.2.29-.3.47-.5.85-.7Z"/><path class="cls-75" d="M22.77,5.37h-.02s-.02-.01,0-.04l.93-1.35s.03-.02.04-.02c0,.04-.02.06-.04.09-.3.44-.63.87-.91,1.32Z"/><path class="cls-72" d="M3.74,10.57c-.06.03-.15.07-.21.11,0-.04,0-.08-.03-.11-.06-.05-.47.11-.56.14-.06.02-.14.02-.19.03.12-.08.9-.35.99-.28.06.05.07.07,0,.11Z"/><path class="cls-22" d="M2.07,2.77c-.05.01-.04-.03-.06-.06-.12-.31-.19-.64-.24-.96,0-.04,0-.07-.04-.1,0-.04,0-.07,0-.11.13.4.22.82.34,1.23Z"/><path class="cls-98" d="M3.86,10.51s-.08.04-.13.06c.03-.04,0-.07-.04-.08-.22-.06-.73.18-.96.25-.09.02-.18.08-.27.08.03-.03.06-.06.08-.08,0,.04.05.01.08,0,.16-.05.33-.13.5-.18.18-.06.51-.17.68-.14.05.01.06.04.05.08Z"/><path class="cls-37" d="M14.16.97c-.13.18-.34.36-.44.55,0,.01-.01.01-.02,0,.04-.07.1-.19.15-.25.1-.14.2-.28.31-.42h.03s-.02.08-.02.12Z"/><path class="cls-58" d="M14.18.85c-.08.17-.23.28-.34.42h-.02c.12-.17.25-.33.36-.51,0,.03,0,.06,0,.08Z"/><path class="cls-27" d="M9.59,10.64c-.18,0-.35,0-.53,0,.02-.04.08-.02.12-.02.13,0,.29-.01.41.02Z"/><path class="cls-27" d="M7.97,10.66v.02c-.11,0-.23,0-.34,0,.09-.04.23-.02.34-.02Z"/><path class="cls-65" d="M24.73,10.53s-.08,0-.13,0c-.06,0-.13,0-.19,0v-.02c.1,0,.23-.02.32.02Z"/><path class="cls-3" d="M18.71,6.32c-.09.06-.21.12-.32.13.06-.03.12-.04.15-.08.06-.01.11-.03.17-.04Z"/><path class="cls-63" d="M11.03,3.26s-.02.07-.02.11l-.02-.21s.03.07.04.11Z"/><path class="cls-27" d="M10.12,10.74c-.09,0-.14,0-.23-.02.07,0,.18-.02.23.02Z"/><path class="cls-43" d="M24.25,3.76s.08-.06.13-.06c.01.06-.05.06-.08.08l-.04-.02Z"/><path class="cls-91" d="M23.23,7.95l.04.02s-.1.04-.15.02v-.02s.07-.02.11-.02Z"/><path class="cls-27" d="M11.2,10.83c-.06,0-.15.02-.19-.02.06,0,.15-.02.19.02Z"/><path class="cls-53" d="M11.07,3.87s.04.08.02.11h-.02c0-.06-.01-.11-.02-.17.03.01.02.04.02.06Z"/><path class="cls-105" d="M6.91,10.47s.13,0,.13.01c-.04.01-.09.03-.13.03v-.04Z"/><path class="cls-26" d="M21.24,3.24l-.04-.04s0-.09.04-.08c0,.04,0,.08,0,.13Z"/><path class="cls-27" d="M11.79,10.93c-.08-.01-.2,0-.27-.04.08.01.2,0,.27.04Z"/><path class="cls-14" d="M1.77,2.56s0,.08,0,.13c-.03-.01-.02-.04-.02-.06-.01-.03-.02-.06,0-.08,0,0,.02.01.02.02Z"/><path class="cls-83" d="M1.75,2.54s0,.06,0,.08c-.04-.03-.02-.1-.02-.15,0,0,.02.03.02.06Z"/><path class="cls-108" d="M22.03,6.77v.04s-.01-.02-.02-.04c-.01-.04.02-.06.02-.08v.08Z"/><path class="cls-104" d="M.48,11.17s-.03.06-.06.06c-.01-.04.03-.06.04-.08l.02.02Z"/><path class="cls-86" d="M8.28,5.08s.05.06.04.06c-.04.02-.05-.03-.06-.04l.02-.02Z"/><path class="cls-27" d="M9.85,10.7s-.09.01-.11-.02c.04,0,.06,0,.11.02Z"/><path class="cls-5" d="M21.16,9.62s-.04-.03-.04-.06c0-.02.02-.02.02-.03l.02.08Z"/><path class="cls-27" d="M11.33,10.85h-.02l-.08-.02c.05,0,.07.02.11.02Z"/><path class="cls-20" d="M13.27,2.71s0,.01,0,.02l-.02-.02c.06-.15.03-.15.04-.28.01-.16.31-.74.4-.9h.02c-.07.12-.25.52-.27.65-.05.25-.09.31-.17.53Z"/><path class="cls-65" d="M24.39,10.53c.05.04-.07.14-.08.15-.46.12-.92.12-1.39.15-.41.03-.82.08-1.23.07-.14,0-.47,0-.6-.05-.05,0-.07-.02-.06-.04.04-.01.08-.01.13,0,.88.04,2,.05,2.86-.15.09-.02.23-.06.29-.12.03,0,.06,0,.08,0Z"/><path class="cls-27" d="M11.39,10.93c-.03.15-.12.09-.2.09-.04,0-.07.02-.12.02-.03,0-.21-.05-.21-.07,0-.04.28-.01.31-.05l.22.02Z"/><path class="cls-55" d="M18.58,10.3s.02-.04.04,0c.06,0,.05.03,0,.04-.85-.1-1.8.31-2.58.62-.26.1-.51.21-.76.32-.59.27-.96.32-1.63.28-.05-.03-.15-.06-.21-.06l.03-.03c.38.06.77.07,1.14-.03h.03s.11,0,.11,0c.2-.08.4-.19.6-.31h.04s.06,0,.08-.03c.02-.04.05-.06.08-.07.96-.4,1.97-.79,3.02-.73Z"/><path class="cls-41" d="M20.06,10.64s.07.03.11.04c.02-.03.07,0,.08.02.13.04.27.07.42.08.01-.03.07-.03.08,0l.21.02s.04-.02.06,0c.02.01.04.04.06.04-.13-.01-.27,0-.39-.02-.69-.06-1.39-.4-2.08-.49v-.04l.02-.03c.48.06.97.2,1.42.36Z"/><path class="cls-81" d="M21.16,10.81s-.08,0-.13,0c-.02,0-.04,0-.06,0l-.21-.02s-.06,0-.08,0c-.15-.02-.29-.05-.42-.08-.04,0-.06-.01-.08-.02-.04,0-.08-.02-.11-.04-.36-.12-1.08-.32-1.44-.34-.01,0-.03,0-.04,0-1.09-.06-2.16.35-3.15.79-.62.44-1.43.54-2.16.32-.28-.08-.55-.09-.81-.02-.1.01-.26.01-.31-.07.02-.06.14-.08.2-.09.11-.02.28,0,.37.05.01,0,.03,0,.04,0l.19.02s.03,0,.04,0l.21.02c.27,0,.46.07.71.1.31.04.93-.1,1.2-.25.97-.57,2.23-1,3.39-.93.67.04,1.31.35,1.96.47.23.04.47.04.69.1Z"/><path class="cls-13" d="M12.72,11.27c-.15-.01-.21-.05-.37-.01-.06.01-.11.06-.2.06-.01.03-.06.02-.08,0-.1,0-.23-.02-.32-.06-.5-.02-1.02-.07-1.52-.13,0,.02-.01.02-.02,0l-.21-.02s-.03.02-.04,0l-.17-.02s-.03.03-.04,0c-.42-.03-.84-.04-1.26-.03-.19-.08-.36-.13-.58-.12,0-.07-.07-.08-.12-.09-.31-.01-.61-.05-.91-.11-.02,0-.02-.01-.01-.03.28,0,.4,0,.66.07.12.03.38,0,.49.04.04.01.03.07.09.08.1.02.28,0,.38.03.04.01.06.07.11.07.23.03.5,0,.74,0,.49.03.97.11,1.46.15.29.02.58,0,.86.03.1.01.26.08.34.08.07,0,.18-.07.29-.07.08,0,.27.02.35.04.04,0,.08,0,.09.05Z"/><path class="cls-19" d="M6.87,10.7c.1.07.28.04.41.05.05,0,.14.04.21.05.11.01.31,0,.42.02.05.01,0,.07.01.08.12,0,.28,0,.39.02.05,0,.1.08.17.1.09.02.34-.02.46-.01.16,0,.32.01.49.02.09,0,.22.02.31.04-.12.03-.25.02-.39,0h-.05c-.28,0-.64.02-.9-.01-.09-.01-.16-.07-.24-.09-.11-.03-.28,0-.4-.03l.04-.06c-.21-.03-.43-.02-.64-.05-.06,0-.11-.04-.16-.05-.07-.02-.2,0-.24-.07.04,0,.07,0,.11,0Z"/><path class="cls-13" d="M13.21,11.31c-.07,0-.16.02-.21-.02.07,0,.16-.02.21.02Z"/><path class="cls-13" d="M12.96,11.29c-.06,0-.15.02-.19-.02.05,0,.15-.02.19.02Z"/><path class="cls-88" d="M20.34,6.43c.09.04,0,.16-.04.2-.09.1-.52.35-.66.43-.24.14-.46.29-.68.45h-.04s-.18.12-.18.12c-.11.13.07.18.11.28.02.06.01.13.04.2.07.21.22.5.2.72,0,.03-.04.19-.05.2-.02.02-.07,0-.09.02s-.01.06-.03.08c-.04.05-.12.11-.17.16,0-.01,0-.03,0-.04.01-.02.03-.03.04-.04.03-.04.06-.09.09-.13.07-.09.13-.06.14-.2,0-.05-.03-.27-.05-.3-.01-.02-.06-.03-.07-.05-.03-.04-.07-.14-.11-.17-.07-.05-.25-.02-.32-.11-.02-.02-.02-.07-.04-.09-.02-.02-.13.03-.13-.09.13,0,.07-.06.09-.13.01-.04.07-.06.08-.09.01-.04-.03-.09,0-.14.05-.08.26-.15.35-.21.08-.05.13-.11.22-.17.38-.24,1.08-.48,1.3-.89Z"/><path class="cls-25" d="M19.64,7.06c-.13.17-.73.42-.77.61-.03.12.09.24.14.35.1.25.19.54.23.81,0,.05-.01.1,0,.14,0,.01.07.14.08.15.04.04.32.17.4.22.17.1.27.15.45.23.04.02.11.09.17.11-.18-.01-.49-.22-.69-.27-.23-.06-.51-.06-.75-.06-.17-.07.09-.15.12-.2.02-.03-.02-.06,0-.09s.07-.02.09-.04c.01-.02,0-.06.02-.08,0-.01.04-.02.06-.04.11-.17-.12-.61-.18-.79-.03-.08-.04-.18-.08-.26-.04-.09-.13-.11-.06-.23,0-.01.09-.12.09-.13.18-.2.49-.31.72-.44Z"/><path class="cls-101" d="M5.22,6.94c-.1.09-.19.22-.27.32-.01.01-.03.02-.04.04-.23.26-.4.52-.34.89.02.07,0,.13.1.16.1.04.43.05.55.05.29-.01.56-.13.85-.17.31-.04.64-.02.95-.02.1,0,.47-.1.53,0,.06.1-.25.14-.33.17l.04-.08c-.29,0-.62-.06-.9-.04-.4.03-.78.18-1.16.23-.07,0-.23.02-.29.01-.1-.01-.37-.11-.39-.22-.03-.13,0-.4.03-.53.06-.2.26-.39.39-.55.03-.04.06-.08.11-.11.05-.06.09-.09.15-.15h.04Z"/><path class="cls-85" d="M5.03,7.08s-.06.08-.11.11c.02-.03.03-.11.11-.11Z"/><path class="cls-112" d="M8.94,6.51c-.21-.15-.58-.42-.74-.6-.04-.04-.13-.21-.17-.24-.08-.05-.16-.1-.25-.15.04,0,.08.01.11.03.27.12.35.3.54.49.16.17.37.29.51.48Z"/><path class="cls-97" d="M4.9,7.3c-.07.15-.2.24-.26.4-.06.17-.06.31-.07.49-.09-.41.1-.61.34-.89Z"/><path class="cls-41" d="M18.58,10.3c-1.06-.04-2.15.39-3.11.8-.02.03-.05.04-.08.04-.22.1-.4.24-.63.3l-.11.02c-.16.04-.38.08-.54.09-.22,0-.44-.04-.67-.04-.01,0-.03,0-.04,0-.05,0-.08-.02-.11-.04-.03-.02-.07-.02-.11,0-.03,0-.06-.04-.08-.04-.05.01-.1.02-.15,0-.01,0-.03,0-.04,0-.01,0-.02,0-.02-.02-.07-.04-.16-.04-.25,0-.08.03-.19.05-.27.02-.15,0-.17-.05-.3-.08-.02,0-.02-.01,0-.02.02,0,.06,0,.08,0,.12.04.22.07.34.03.18-.06.21-.05.41-.03.36.03.66.17,1.02.19.25,0,.82-.06,1.04-.16.14-.06.32-.22.47-.29.93-.43,2-.78,3.03-.77.04,0,.09-.01.12.02Z"/><path class="cls-19" d="M11.75,11.25c-.19.04-.4.03-.59,0-.01,0-.03,0-.04,0l-.76-.08s-.03,0-.04,0c-.04,0-.07-.02-.08-.04.38.01.78.06,1.15.09.12,0,.26,0,.37.03Z"/><path class="cls-55" d="M11.75,11.25c.14,0,.21.05.32.06v.02c-.07-.02-.25-.04-.33-.04h-.44s-.12-.03-.14-.04c.2,0,.4,0,.59,0Z"/><path class="cls-55" d="M9.74,11.08s.03,0,.04,0l.17.02s.03,0,.04,0l.21.02s.01,0,.02,0l.08.04c-.11,0-.28-.04-.37-.04h-.34c-.08,0-.23-.04-.31-.04.02-.04.08-.02.11-.02.12.01.21.02.33.02Z"/><path class="cls-55" d="M11.12,11.25c-.18-.01-.36-.02-.54-.04-.07,0-.16-.02-.22-.04.25.02.52.01.76.08Z"/><path class="cls-55" d="M12.89,11.4s.01.02.02.02c-.09,0-.2,0-.3,0-.09,0-.18.07-.25,0,.1,0,.18-.02.27-.02.09-.04.18-.04.25,0Z"/><path class="cls-55" d="M13.29,11.46s.08,0,.11.04c-.05,0-.15.03-.17-.04.01-.02.04-.01.06,0Z"/><path class="cls-55" d="M13.1,11.42s-.12.03-.15,0c.04,0,.08-.01.15,0Z"/><path class="cls-55" d="M13.29,11.46s-.04,0-.06,0c-.01,0-.03,0-.04,0,.01-.03.09-.03.11,0Z"/><path class="cls-4" d="M13.44,1.8s0-.07.04-.08c-.01.02-.02.05-.04.08Z"/><path class="cls-108" d="M22.75,5.37c-.11.21-.2.29-.34.46-.18.23-.26.5-.36.77.09-.49.34-.92.7-1.27,0,.01,0,.03,0,.04Z"/><path class="cls-28" d="M11.14,3.98v.06s-.03-.01-.04-.04c0,0,0-.01,0-.02,0-.04-.02-.07-.02-.11.03.03.04.07.06.11Z"/><path class="cls-53" d="M11.14,4.04s.01.04.02.06h-.02s-.03-.05-.04-.11c.01.01.03.03.04.04Z"/><path class="cls-53" d="M11.37,4.61c-.06-.08-.11-.19-.13-.3.04.1.08.2.13.3Z"/><path class="cls-53" d="M11.43,4.74s-.05-.04-.04-.08c0,0,.06.03.04.08Z"/><path class="cls-55" d="M14.75,11.44l-.11.02s.08-.01.11-.02Z"/><path class="cls-55" d="M15.47,11.1s-.05.05-.08.04c.03-.01.05-.03.08-.04Z"/><path class="cls-65" d="M20.97,10.81c-.07,0-.16.02-.21-.02.07,0,.16-.02.21.02Z"/><path class="cls-65" d="M20.67,10.78c-.11,0-.22-.02-.33-.04-.04,0-.08,0-.09-.04.14.03.29.04.42.08Z"/><path class="cls-65" d="M20.17,10.68s-.09.02-.11-.04c.04.01.08,0,.11.04Z"/><path class="cls-19" d="M10.21,11.12c-.07,0-.16.02-.21-.02.07,0,.16-.02.21.02Z"/><path class="cls-19" d="M9.95,11.1c-.05,0-.13.02-.17-.02.05,0,.13-.02.17.02Z"/><path class="cls-55" d="M12.89,11.4c-.09-.03-.17,0-.25,0,.07-.03.22-.08.25,0Z"/></g></svg>