<?xml version="1.0" encoding="UTF-8"?><svg id="Layer_2" xmlns="http://www.w3.org/2000/svg" viewBox="0 0 101.74 112.79"><defs><style>.cls-1{fill:#d8b868;}.cls-2{fill:#d39721;}.cls-3{fill:#d8b660;}.cls-4{fill:#d7b355;}.cls-5{fill:#d6ab3d;}.cls-6{fill:#d2941b;}.cls-7{fill:#fcfcfc;}.cls-8{fill:#d6ad41;}.cls-9{fill:#d6ad45;}.cls-10{fill:#d59c2b;}.cls-11{fill:#dec481;}.cls-12{fill:#d49925;}.cls-13{fill:#c38915;}.cls-14{fill:#d5af4d;}.cls-15{fill:#d7b45b;}.cls-16{fill:#cf9013;}.cls-17{fill:#d7b14f;}.cls-18{fill:#d7b459;}.cls-19{fill:#d2951c;}.cls-20{fill:#d1941a;}.cls-21{fill:#d2951d;}.cls-22{fill:#d69f33;}.cls-23{fill:#d6a33c;}.cls-24{fill:#d7b04b;}.cls-25{fill:#d2951e;}.cls-26{fill:#d6ad42;}.cls-27{fill:#d6aa39;}.cls-28{fill:#e0c88a;}.cls-29{fill:#cf9e3a;}.cls-30{fill:#ac8930;}.cls-31{fill:#d09219;}.cls-32{fill:#d39720;}.cls-33{fill:#c98c14;}.cls-34{fill:#dabc6f;}.cls-35{fill:#d1941b;}.cls-36{fill:#c88d18;}.cls-37{fill:#d7b252;}.cls-38{fill:#d39822;}.cls-39{fill:#d7a136;}.cls-40{fill:#d8b55e;}.cls-41{fill:#d7b55f;}.cls-42{fill:#d39823;}.cls-43{fill:#d6a23c;}.cls-44{fill:#d6ad43;}.cls-45{fill:#010100;}.cls-46{fill:#d8a43d;}.cls-47{fill:#d09013;}.cls-48{fill:#d19f3b;}.cls-49{fill:#d19828;}.cls-50{fill:#d59c2c;}.cls-51{fill:#dcbf77;}.cls-52{fill:#d39c2f;}.cls-53{fill:#d7af4a;}.cls-54{fill:#d6a034;}.cls-55{fill:#d5aa3a;}.cls-56{fill:#d7b358;}.cls-57{fill:#d69f32;}.cls-58{fill:#c09933;}.cls-59{fill:#d49926;}.cls-60{fill:#d1a83c;}.cls-61{fill:#d8b65f;}</style></defs><g id="honeyJar_1_Image"><path d="M54.49.3c.24,0,.48,0,.72,0,11.41.3,22.95.57,34.13-.11,4.59-.47,11.69,2.56,7.85,7.79-.1.17-.31.43-.48.72l-1.2,2.4c-.16.31-.32.67-.48.96-.9,1.25-1.72,2.58-2.16,4.08-.06.54-.02.32,0,.72.25,2.21.73,4.37,1.44,6.47.18.71.19.93.48,1.68.25.62.41,1.26.48,1.92.08.2.18.34.24.48,1.93,4.1,3.02,8.12,3.36,12.71.07.33.17.65.24.96,1.44,5.22,2.19,10.57,2.26,16.04v11.42c.46,6.29.68,12.33-2.02,18.1-.25.59-.53,1.53-.72,1.92-.3.24-.42.59-.48.96-.57,1.14-1.34,2.19-1.92,3.36l-.96,1.44c-.2.36-.32.68-.48.96-.99,2.24-2.27,4.32-3.84,6.23-.58.71-.9,1.15-1.44,1.92-.38.35-.74.73-.96,1.2-.08.08-.16.16-.24.24-.4.7-.98,1.28-1.68,1.68-.08.08-.16.16-.24.24l-1.92,1.44c-.08.08-.16.16-.24.24-2.5,2.15-4.78,3.07-8.02,3.4-1.84.19-4.12.28-5.98.34-.22,0-.44-.02-.64-.14-.08,0-.16,0-.24,0l-1.82.25c-13.75.13-27.37.14-40.88.04-1.23,0-2.35-.26-3.35-.77-.17-.08-.31-.14-.48-.24-.6-.35-1.16-.75-1.68-1.2-.59-.36-.87-.51-1.44-.96-.47-.64-1.03-1.2-1.68-1.68-.96-.73-1.32-1.1-2.16-1.92-.45-.18-.77-.51-.96-.96-.17-.16-.32-.31-.48-.48-.86-.57-1.59-1.3-2.16-2.16-.52-.53-.56-.64-.96-1.2-.32-.25-.57-.58-.72-.96-2.16-2.64-3.53-4.58-5.04-7.67l-.72-1.92c-.39-.82-.44-1.13-.72-1.92-.28-.34-.41-.77-.48-1.2-.47-1.3-.81-2.52-1.2-3.84C.94,77.41-.04,71.56.24,65.45s.81-12.33,1.47-18.38c.05-.45.22-.83.24-.96.01-4.72.95-9.33,1.92-13.91.08-.26.17-.48.24-.72l.96-3.6c.08-.23.11-.42.24-.72l.48-1.68c.08-.19.14-.45.24-.72.41-1.93,1.05-3.77,1.92-5.52.08-.19.18-.33.24-.48l1.68-3.84c.07-.15.2-.37.24-.48.29-.94-.06-1.72-.72-2.4-.05-.13-.16-.29-.24-.48C3.15,1.46,14.94.84,22.31.47c10.62-.25,21.34-.3,32.18-.17Z"/><path class="cls-7" d="M54.49.3c-7.25-.1-14.53.12-21.7.25-6.03.11-19.13-.87-23.76,3.11-2.6,2.23-.93,5.38.12,7.91-1.65-2.08-2.76-5.6-.73-7.81C11.68.21,20.19.47,24.63.31,34.11-.02,43.67-.06,53.17.06c.41,0,1.07-.15,1.32.24Z"/><path class="cls-7" d="M69.36,112.05c-.84.44-2.05.45-2.98.49-9,.31-17.91-.23-26.88.23-2.36.12-4.34-.34-6.52-.39s-7.35.58-9.3-.36c-.23-.11-.34-.43-.38-.45,1.48.35,3.2.62,4.71.7.99.05,2.23-.02,3.33.03,5.73.24,11.49-.24,17.25-.26,6.98-.02,13.74.37,20.76,0Z"/><path class="cls-7" d="M97.18,7.98c1.05-1.8,1.43-2.95.2-4.88-2.71-4.24-13.25-2.41-17.58-2.31-8.3.19-16.39-.38-24.6-.49.24-.37.94-.28,1.33-.25,8.97.65,18.41.54,27.34.25,3.83-.12,9.78-1.03,12.95,1.68,1.77,1.52,2.4,4.43.37,5.99Z"/><path class="cls-7" d="M99.34,86.63c.24-1.59,1.24-3.23,1.61-4.74,1.1-4.48.38-8.84.29-13.35-.11-5.75.18-12.07-.23-17.75-.24-3.31-1.77-6.4-1.92-9.71.46,2.03,1.04,4.05,1.46,6.09,1.35,6.51.79,14.37.92,21.14.16,7.9,1.1,10.75-2.15,18.33Z"/><path class="cls-7" d="M84.23,108.45c-2.31,2.14-4.96,3.6-8.28,3.6h-4.32c-.38,0-1.53.69-2.04,0,2.65-.14,7.41-.25,9.75-.92,1.87-.54,3.27-1.69,4.88-2.67Z"/><path class="cls-7" d="M2.43,83.27C.85,77.87-.22,71.56.04,65.89c.08-1.79.62-3.78.73-5.51.25-4.12.01-8,.49-12.22.04-.39.15-.83.46-1.1-.64,5.45-.83,10.97-1.2,16.43-.25,3.73-.19,7.28.27,11,.36,2.96,1.19,5.85,1.65,8.78Z"/><path class="cls-7" d="M1.95,46.11c.11-1.58-.17-3.35.02-4.9.3-2.49,1.2-6.63,1.9-9.01-.22,2.47-.84,4.89-1.17,7.34-.29,2.16-.5,4.46-.75,6.56Z"/><path class="cls-7" d="M98.86,40.11c-.52-2.3-.7-4.69-1.31-6.96-.53-1.96-1.7-3.79-2.05-5.75.67,1.56,1.88,3.66,2.34,5.22.65,2.24.75,5.16,1.02,7.49Z"/><path class="cls-7" d="M90.94,101.5c1.29-2.07,2.66-4.09,3.84-6.23-.5,2.48-2.31,4.35-3.84,6.23Z"/><path class="cls-7" d="M6.03,24.76c.29-1.71.78-4.2,1.92-5.52-.74,1.79-1.21,3.69-1.92,5.52Z"/><path class="cls-7" d="M14.43,104.14c-.86-.27-1.87-1.3-2.16-2.16.71.72,1.45,1.43,2.16,2.16Z"/><path class="cls-7" d="M8.19,18.77c.24-1.41,1.09-2.6,1.68-3.84-.1,1.38-1.19,2.69-1.68,3.84Z"/><path class="cls-7" d="M95.5,11.09c0-1.07.79-1.7,1.2-2.4-.21.6-.48,1.46-.77,1.99-.15.26-.41.38-.42.4Z"/><path class="cls-7" d="M10.11,14.45c.19-.92-.39-1.6-.72-2.4,1.05.64,1.11,1.35.72,2.4Z"/><path class="cls-7" d="M19.7,109.17c-.63-.49-1.24-.99-1.68-1.68.54.41,1.61.7,1.68,1.68Z"/><path class="cls-7" d="M86.39,106.77c-.56.55-1.11,1.27-1.92,1.44.56-.55.99-1.31,1.92-1.44Z"/><path class="cls-7" d="M86.63,106.54c.55-.54,1.14-1.13,1.68-1.68-.14.71-.95,1.53-1.68,1.68Z"/><path class="cls-7" d="M92.86,16.13c.19-1.6,1.06-2.87,2.16-4.08-.73,1.35-1.49,2.7-2.16,4.08Z"/><path class="cls-7" d="M22.82,111.33c-.55-.31-1.37-.32-1.68-1.2.52.32,1.32.55,1.68,1.2Z"/><path class="cls-7" d="M5.55,92.15s-.3-.13-.42-.41c-.18-.45-.24-1.02-.3-1.51.27.57.82,1.11.72,1.92Z"/><path class="cls-7" d="M94.3,23.32c-1.01-1.85-1.31-4.38-1.44-6.47.54,2.14.89,4.33,1.44,6.47Z"/><path class="cls-7" d="M95.26,26.92c-.25-.64-.45-1.23-.48-1.92.21.55.76,1,.48,1.92Z"/><path class="cls-7" d="M95.26,94.31c.27-.48.33-1.15.96-1.44-.25.5-.21,1.18-.96,1.44Z"/><path class="cls-7" d="M5.31,27.16c-.15-.72.27-1.16.48-1.68.15.72-.26,1.16-.48,1.68Z"/><path class="cls-7" d="M88.55,104.62c.03-.57.5-.94.96-1.2-.43.61-.38.61-.96,1.2Z"/><path class="cls-7" d="M4.11,31.48l.59-3.13c.01-.21.33-.37.37-.47.06,1.27-.6,2.42-.96,3.6Z"/><path class="cls-7" d="M15.87,105.58c-.57-.03-.93-.4-.96-.96.33.32.64.64.96.96Z"/><path class="cls-7" d="M11.31,100.78c-.43-.17-.67-.5-.72-.96.33.4.43.56.72.96Z"/><path class="cls-7" d="M4.11,88.31c-.41-.26-.49-.75-.48-1.2.13.35.31.72.48,1.2Z"/><path class="cls-7" d="M98.14,89.51c-.04-.42.04-.83.48-.96-.16.33-.32.64-.48.96Z"/><path class="cls-1" d="M70.56,22.61c1.39.41,2.85.78,4.29.96,2.79.34,5.94.42,8.71.39l.82.44c.6,5.8,1.72,11.45,3.71,17.08.94,3.48.81,6.95.55,10.41l.56,7.99c.07.76-.86,2.51-1.38,1.81-.18-.34-.26-.74-.24-1.2-.28-1.24-.45-2.58-1.6-3.32-1.79-1.15-4.03.12-5.83-1.13-1.12-.78-1.73-4.16-1.7-5.51.07-3.49,3.26-8.96-3.2-8.24-2.54.28-4.69,1.3-7.7,1.41-2.53.09-6.28-.7-8.44.2-1.24.51-1.91,1.77-2.47,2.92-.35.45-.6.29-.94-.1-.87-3.17-2.91-6.07-5.75-7.75-1.6-.06-3.21-.52-4.81-1.39-1.92-.49-6.13,1.37-7.15,2.99-1.88,2.95-2.6,7.81-3.05,11.23-1.15,2.9-1.86,5.82-2.12,8.78.53.81.78,1.63.76,2.45l-2.58-.14c-.9-.21-1.49-.33-2.02-1.22-1.4-2.33-1.79-9.34-1.59-12.1s1.2-4.82.49-7.78v-.67c1.47-1.56-.4-4.84-2.23-5.22-.76-.16-4.33-.11-5.09.05-2.51.55-5.41,3.74-6.83,5.85-.14.57-.34,1.12-.62,1.66-1.56,1.79-2.91,3.7-4.08,5.74-.21.98-.87,3.47-2.02,2.43-.54-1.1-1.21-2.44-1.55-3.6-.98-3.3.06-9,.67-12.51.51-2.91,1.3-5.14,2.08-7.87l.29-.27c3.02.53,5.22-1.02,7.04-3.34,1-.63,2.19-1.01,3.59-1.14,1.34-.98,2.74-1.77,4.2-2.35l5.43.31c12.06-.31,24.38-.54,36.23-.18l2.26.5c1.1.59,2.21,1.07,3.33,1.44Z"/><path class="cls-46" d="M5.31,61.93c2.38,1.16,4.56.87,7.04.26l2.05-.08c1.73-.91,2.85-.83,3.35.24,1.79-.53,2.43,1.33,2.64,2.78,1.35,4.85,4.94,6.19,9.5,6.31,1.61.1,2.21.61,1.81,1.51l.39.45c-.58,6.03-1.83,12.15-3.82,17.93l-.66.32-1.03,2.51c-.59,1.61-1.41,2.99-3.29,2.52-.45.4-.85.8-1.2,1.2-.22,1.58.43,3.61,2.18,3.88,4.3.68,6.04-1.37,8.18-4.75.52-.44.82-.18,1.23.28,2.18,3.2,4.92,4.65,8.2,4.36,2.39,1.76,4.86,2.73,7.79,1.62.67,1.19,1.1,2.58,1.28,4.16.37.63.58,1.21.64,1.72-.7.17-1.42.25-2.16.24-5.89.7-12.18.2-18.1,0-2.77-.1-5.32.56-7.79-.84-8.63-4.89-16.53-17.46-18.85-26.95-1.84-7.51-1.52-13.11-1.07-20.63.64-.38,1.67.21,1.68.96Z"/><path class="cls-46" d="M83.03,76.8c3.93,2.12,1.75,5.7-.04,8.56-.79,1.72-1.13,3.37-1.5,5.22-.81,2.04-1.82,4-3.02,5.88.51.39.39.57-.24.48-.61,1.7-1.5,3.3-2.65,4.81-.98,1.67-1.59,3.62-.8,5.48.8.93.58,1.33-.63,1.46-2.96.25-5.59.62-8.64.72,1.01-2.45,2.13-4.55,4.26-6.39,2.63-1.69,4.88-3.68,6.75-5.96,1.19-2.28.58-4.02-1.41-5.39l-.33.02c-.64-1.04-1.47-.32-2.21.36l-.58-.14c-1.08.73-2.74,1.63-3.25-.09-.17-1.44-.48-3.05-.94-4.44-1.26-3.76-3.08-4.66-7.03-5.13-3.55-.42-8.55-.14-12.17.11-3.37,1.39-4.25-.19-2.66-4.75.54-2.21-.21-4.48-2.25-5.6l-.22.18c-1.35-.4-2.56-.3-3.62.3-2.61,3.22-2.76,7.09-2.75,11.05l-.12.22c-.49.86-1.92,2.42-2.4.72-.77.07-1.42-1.88-.72-2.28-.19-.05-.46-.13-.48-.28-.07-.58-.11-4.73,0-5.13l.48-.35c-.11-.04-.22-.09-.32-.16-.22-.15-.03-3.44.56-3.56l.14-.4c2.78-.37,6.58-2.02,7.75-4.65l2.22-2.79c1.19-3.6,2.78-4.55,4.77-2.85,3.09,1.08,6.24.81,8.72-1.36,1.37-.34,2.47-1,3.3-1.97,1.3-2.76,9.65-11.45,8.6-3.13.38,4.58,1.87,8.24,6.44,9.75l.93.8c1.66,3.51,3.69,6.81,6.07,9.92v.77Z"/><path class="cls-47" d="M46.57,44.19c2.41,1.77.64,6.23,2.44,8.95,1.4,2.13,5.58,3.69,7.5,1.58,1.32-1.44,3-7.48,4.03-7.96,1.13-.53,2.33.05,3.41.07,4.35.09,7.98,0,12.12-1.45-.85,3.81-1.04,7.46.47,11.16,1.16,2.84,4.93,3.44,7.65,3.26.56,1.46.13,3.09.3,4.62.1.93.71,3.6,1,4.52,1.59,5.17,9.03,5.06,13.37,4.5-.19,1.16.2,2.6.15,3.68-.35,7.66-9.03,23.01-14.91,27.97-1.93,1.63-3.82,3.17-6.35,3.36-.21-.07-.21-.15,0-.24.07-.21.15-.21.24,0,.08-.2.16-.2.24,0,.83-3.58,2.28-7.11,3.88-10.54.09-.19.23-.35.39-.51s.34-.31.53-.45c1.94-2.91,3.14-5.98,3.6-9.2,1.29-3.78,1.85-7.56,1.68-11.33-2.16-2.05-3.89-3.79-4.8-6.76l-.96-1.49-.24-.3c-.37-3.15-2.4-5.44-6.11-6.88-1.63-.36-2.46-1.59-2.49-3.67l-.47-3.83c-.28-1.78-1.41-3.41-3.39-3.3-6.03-.82-10.14,4.34-13.04,8.97-.9.34-3.32.32-4.23-.1-1.71.19-3.17-.75-4.37-2.83-1.74-2.19-5.61-2.12-5.11,1.36-.2.99-.84,2.44-1.55,2.91.09-2.29.8-4.56.96-6.84.13-2-.42-7.14.47-8.58.12-.19.73-.52.97-.65.84-.29,1.83-.42,2.64,0Z"/><path class="cls-1" d="M90.23,14.69l-.52.18c-1.27-1.55-2.66-2.54-4.68-2.58l-5.38.29c-1.74.12-3.44-.11-5.08-.68-5.15-.33-10.4-.44-15.77-.33-7.34.38-14.64.4-21.91.07l-3.26.26c-1.71.65-3.39.94-5.05.87-.14-.19-.23-.47-.07-.6,2.16-1.8,10.32-2.5,13.27-2.47,1.22.01,2.06.13,3.24.43,1.87-.58,3.77-.95,5.7-1.1,1.03-1.24,2.21-2.35,3.55-3.32.87-.7,1.67-1.84-.03-1.56l-.48-.48c-.2.68-1.27.73-1.44,0-.36.37-.51.22-.24-.24,9.23.04,18.52.03,27.71-.23,3.6-.1,11.99-1.41,14.86.71.47.34,1,.86.8,1.5l-5.24,9.29Z"/><path class="cls-27" d="M88.79,14.45c.45.07.93.31,1.44.72-.25,1.3-.16,2.33.06,3.66.96,5.85,3.89,11.38,5.11,16.95,1.64,7.43,3,15.3,3.24,22.9.09,2.78.35,7.76,0,10.33-.15,1.12-1.5,1.44-2.53,1.55-2.05.23-4.86,0-6.6-1.2l2.36-5.18c.6-5.98.97-12.16,1.03-18.22l-.51-2.73.23-.24c-.94-2.24-1.48-4.63-1.63-7.18l-1.73-5.29c-.75-.82-1.09-1.97-1.01-3.46.12-1.99-.16-3.85-.85-5.56l.18-.33c-1.01-1.02-2.13-1.9-3.36-2.64-2.55-.26-5.12-.4-7.71-.42-4.81-1.16-9.58-1.78-14.52-1.54-.97,0-1.48-.31-1.51-.92.35-.12.7-.23,1.05-.3s.7-.14,1.05-.15c8.11-.14,16.19-.14,24.09.54,1.11.15,1.65-.17,1.62-.94l.48-.35Z"/><path class="cls-47" d="M67.44,95.26c.01,1.2-2.72,2.78-3.11,1.13.08-2.76-.54-8.65-4.06-8.99-6.42-.62-5.84,9.07,1.14,8.44,2.14-.88,1.6,1.76.74,2.86l-5.32,2.29c-4.68,2.64-1.57,9.95,3.52,6.21,2.67-1.97,3.38-4.14,3.72-7.34l.28-.36c3-1.03,5.55-2.63,7.64-4.8.58-.66,1.06-.79,1.46-.39.25.17.38.38.16.57,2.18,1.43.62,3.09-1.06,4.02-4.03,2.03-6.64,3.58-7.48,8.27-.71,1.32-2.07,2.07-4.1,2.24-2.4.01-4.86-.24-7.2-.24-.97-2.13-1.51-4.27-1.64-6.41.64-1.5,1.22-2.98,1.74-4.45-.58-2-1.18-3.98-1.78-5.92l-.29-.53c1.77-4-3.98-5.59-5.92-2.31-2.21,3.73-.4,8.45,4.12,8.81l.4.5c.31.35.17.48-.24.24.54,1.9-2.44,2.6-3.7,1.9-1.02-1.2-2.97-3.14-4.37-1.75l-.56-.15c-.36-.71-.52-1.58-.48-2.64-2.04-7.31-.63-15.13.9-22.3l.54-.25.52.46c.09,2.56-.12,5.09-.63,7.62-.16,2.29.14,4.91,3.08,3.45,2.26,0,4.53.07,6.79.23,2.73-1.97,11.24-.61,13.1,1.64.73,2.16,1.35,4.39,1.84,6.67.37.48.45.9.24,1.27Z"/><path class="cls-28" d="M37.69,3.42c4.48-.22,8.99-.11,13.44.08.07,2.36-1.8,3.23-5.59,2.6-4.88,1.42-10.01,1.93-15.38,1.54l-3.35.35c-2.88,2.22-6.05,3.89-9.51,5.02-.21.09-.45.17-.72.24-.11.74-1.98.71-2.16,0-.81.6-1.29.6-1.44,0-.51-3.15-5.43-6.62-.24-8.75,5.71-2.35,18.29-1.12,24.94-1.08Z"/><path class="cls-47" d="M3.63,58.34c.1-1.67.41-3.33.24-5.03.4.02.28.67.51,1.05,3.19,5.24,9.02,3.02,12.32-.8,1.53-1.77,6.04-10.8,6.84-11.15.26-.11,1.1-.23,1.19-.13s.26,2.41.26,2.76c-.03,1.32-.64,2.91-.74,4.31-.27,3.72.16,9.79,1.68,13.21,2.39,5.36,10.76,4.57,14.16.59.66,1.13-1.19,2.81-2.11,3.54-1.66,1.32-3.88,2.12-5.92,2.51-1.02-.78-2.11-1.44-3.24-1.97-2.01.41-4.61-2.11-4.93-4.1-.7-1.3-1.51-2.73-2.41-3.9-1.73-2.25-3.04-2.1-5.6-1.27-2.1,1.02-3.87,1.71-6.23,1.34-2.01-.81-3.92-1.17-6.02-.94Z"/><path class="cls-50" d="M70.08,50.42c.21.07.21.15,0,.24.46.14.59.53.72.96.47.13.46.34,0,.48.16.7.24,1.42.24,2.16.69,0,1.11,1.61.48,1.92.29,2.27,1.02,4.55,3.11,5.77,2.53.77,4.34,2.17,5.45,4.2.16,4.31,2.91,7.67,5.74,10.65,1.59,2.45.36,6.2-.53,8.77-1.18,2.83-2.25,5.69-3.19,8.57-1.68,1.99-2.28,3.62-2.92,6.13s-1.07,5.39-1.44,7.95v.24c-.08,0-.16,0-.24,0h-.24c-1.43-5.12.74-10.61,3.58-14.9,1-2.06,1.56-4.01,2.15-6.22l1.83-4.16c.63-1.46,1.43-4.18.33-5.52-4.18-2.82-6.33-7.69-7.73-12.34l-.84-.7c-5.59-2.02-6.25-4.9-6.52-10.5.22-7.6-7.47,1.06-8.95,3.58-2.82,3.79-6.98,4.95-11.36,4.13-1.22-.83-2.38-1.74-3.47-2.73-1.07-.69-1.61.19-1.61,2.64-.75,1.85-1.85,3.55-3.28,5.09-1.5,3.18-3.28,5.26-7.04,5.45.37-.08.14.03-.26.21-.71.09-1.43.09-2.16,0-.23-.6-.79-.92-1.71-.97-5.21-.56-8.16-1.4-9.91-6.63.06-2.84-1.44-3.45-3.88-4.06-3.42,1.36-7.56,2.79-11.13,1.1-.57-.31-1.1-.67-1.68-.96.02-.32-.02-.64,0-.96l.22-.25c2.06,1.67,4.17,2.36,6.74,1.42l5.72-1.84c2.09-.67,4.23,1.16,5.2,2.83-.29,4.82,2.31,6.5,6.68,7.01,2.49,1.71,5,2.28,7.53,1.72,2.01-1.38,3.71-3.17,5.1-5.38-.03-.6.37-1.24,1.2-1.92-.12-.09-.21-.18-.19-.24.22-1.07,1.47-5.24,2.05-5.93,1.75-2.04,4.68.18,6.16,1.49,2.94.95,6.77,1.5,8.44-1.71,2.36-3.8,6.76-9,11.6-6.79Z"/><path class="cls-24" d="M84.71,19.25l.23-.16c1.03.47,1.89,1.24,2.65,2.07,1.3,2.1.7,3.65.99,5.85.15,1.13.48,2.37.69,3.51l1.79,5.54c.22,1.96.5,3.87.85,5.73,1.27,3.21,1.3,6.62.81,9.98l-.59,10.89c-.34,2.19-1.19,4.23-2.57,6.11l-.53.12c-.71-1-.46-1.42-.72-2.4.37-1.03.88-1.75,1.62-2.6.32-1.09.65-2.18,1-3.26,0-4.06.2-8.08.62-12.07-1.19-4.25-2.06-8.58-2.63-12.97-.98-3.62-1.44-7.32-1.39-11.1-.58-5.24-5.1-4.73-8.72-2.81-1.95-.45-3.89-.54-5.84-.27-.07.11-.14.22-.23.3-.52.45-4.56-.85-5.31-1.18-6.31-.35-12.62-.46-18.93-.32-.14.39-.34.39-.48,0-.21-.07-.21-.15,0-.24.08-.19.18-.39.37-.45.58-.18,4.46-.77,5.06-.77,4.9.31,9.8.37,14.7.16,1.25,0,2.25.4,3.31.97l5.71-.46c2.61-.7,5.12-.76,7.54-.17Z"/><path class="cls-27" d="M24.98,38.91c.23-.46.59-.27.48.24-2.72-.19-4.15.46-5.56,2.71-2.27,3.63-4.47,10.45-8.73,12.13-1.55.61-2.49.37-3.45-.93,2.92-1.53,4.41-4.05,5.97-6.85l2.86-5.73c1.42-2.76,5.95-2.88,8.44-1.56Z"/><path class="cls-40" d="M48.01,20.21c.16,0,.32,0,.48,0,1.62.09,3.25.1,4.88.04l.04.2c3.54-.37,7.91-.45,11.51,0,1.07-.25,3.29-.1,4.11,1.01l2.28.37c2.54-.3,4.93-.35,7.4.54.21.07.21.15,0,.24l-.6.47c-2.37.29-5.3.35-7.55-.47-2.26-.32-4.85-1.7-6.59-1.93-1.57-.21-4.04.02-5.76,0-10.83-.13-21.39.58-32.16.5-.72,0-1.34-.31-2.14-.26-2.12.15-3.08,1.94-4.92,2.53-.88.28-2.29.2-3.11.73-.42.27-.72,1.01-1.2,1.43-2.32,2.05-3.23,2.69-6.48,2.03.08-.28.17-.5.24-.72l.26-.3c3.38.09,5.43-2.07,7.45-4.44,1.92-1.91,4.66-2.7,7.35-2.56,3.4.54,6.52.39,9.87-.1,4.84.22,9.72.44,14.65.68Z"/><path class="cls-37" d="M72.95,21.41c1.94-1.03,4.1.13,6.11-.25.47-.09.78-.5,1.27-.65,2.04-.61,3.6-1.36,5.57.07.19.14,1.52,1.59,1.58,1.78.63,2.04.33,5.56.62,7.78.25,1.98,1.29,4.38,1.4,6.3.2,3.59,1.06,5.41,1.5,8.77.15,1.13.97,2.16,1.02,3.18.07,1.25-.54,2.81-.61,4.08-.18,3.1.24,9.01-1.13,11.8-.26.53-.74.74-1.01,1.15-.32.47-.32,1.69-.96,1.08-.18-.67-.37-1.19-.48-1.92l.21-.65c-.14-1.11,1.21-2.46,2.19-2.71.64-6.97.91-14.65-1.72-21.34-1.06-5.4-1.66-10.86-1.79-16.39-.38-1.1-2.5-2.5-3.64-1.83-1.17.87-2.41,1.78-3.89.95-.14.46-.34.46-.48,0v-.24c-1.8-.5-3.72-1-5.59-.68l-.17-.28Z"/><path class="cls-27" d="M13.71,15.17c.22-.28.55-.28.99,0,4.49-.05,8.94.06,13.34.35.84-.06,1.58-.41,2.22-1.06.07-.21.15-.21.24,0,.68.18.69.52,0,.72,1.04,1.32-1.47,1.54-2.54,1.48-1.56-.15-3.1-.15-4.63,0-1.62.89-3.31,1.68-5.07,2.35-.1.58-1.41,1.18-1.92.96-2.5,1.61-4.87,3.37-7.12,5.28h-.32c.47-1.44.71-2.97,1.26-4.39.69-1.82,2.54-4.63,2.82-6.41.28-.5.52-.26.72.72Z"/><path class="cls-61" d="M56.64,46.82c-.25.52-.41,1.25-.72,1.92-1.26,1.34-1.27-1.32-1.2-2.34-.62-3.23-2.98-7.06-6.67-6.46-4.13-3.57-8.74-.72-10.28,3.87-1.94,6.26-3.45,12.83-3.67,19.32-.94.19-2.23-.03-3.12-.24h2.4c-.11-.85-.82-1.35-1.04-2.2-.42-1.61,1.28-6.31,1.88-8.11.71-2.15.43-3.61.95-5.76.32-1.31,1.85-5.48,2.48-6.64.71-1.32,4.95-3.11,6.4-3.14s3.39,1.11,4.91,1.53c.36.1.71-.18,1.19-.02.36.12,4.27,4.28,4.58,4.79.56.91.73,3.08,1.91,3.48Z"/><path class="cls-18" d="M90.23,61.21c-.7,1.42-1.34,1.32-1.62,1.74-.24.38,0,1.37-.78,1.62-.2-1.35-.35-2.67-.24-4.08.11.47.17.64.24,1.2.12.02.23.04.32.09,1.55.85.9-7.41.69-7.77.45-7.11-.55-13.53-3.01-20.11-.83-2.42-.92-4.7-.64-7.14.24-3.04-1.15-3.05-3.69-2.64-1.23,0-1.76-.34-1.59-1.03.64-.32,1.4-.42,2.28-.32,1.76-1.61,4.42-1.08,4.64,1.5.13,6.88.83,13.82,3.11,20.38.86,5.43.82,11.22.28,16.56Z"/><path class="cls-4" d="M47.77,19.97c.04-.21.13-.2.24,0v.24c-3.86.02-7.81.15-11.64,0-1.05-.04-2.35-.51-3.35-.51-1.18,0-2.34.63-3.35.75-3.29.38-6.43-1.13-10.13.19-2.99,1.06-3.59,2.76-5.7,4.61-1.61,1.42-3.25,1.89-5.41,1.67.08-.25.17-.48.24-.72.07-.21.15-.21.24,0,3.12-1.51,5.68-3.09,7.64-6.01,2.17-.94,4.39-1.77,6.67-2.47,1.46.22,2.89.65,4.28,1.28,6.87-.32,13.53-.48,20.27.97Z"/><path class="cls-11" d="M52.09,3.42c.02.11.13.23.24.24.67.08.67.34.53.94-.6,2.46-6.41,2.89-8.52,2.86-5.54.97-11.19,1.65-16.68,2.08-1.36.2-2.74.61-3.73,1.59l-.61-.04c-.39.28-.68.67-.87,1.18-1.12.87-3.77.82-5.13.74,1.84-1.13,4.1-1.97,5.93-3.07.98-.59,2.45-2.24,3.56-2.44,4.15-.76,9.8-.11,14.14-.49,2.05-.18,3.19-1.43,5.29-1.44s4.32,1.1,4.67-2.15c-4.39-.02-8.8.03-13.19,0,.25-.4.91-.24,1.32-.24,4.37-.05,8.75.23,13.08.24Z"/><path class="cls-4" d="M55.92,48.74c-.16.34-.36.69-.48.96-.77.76-1.36-.58-1.53-1.39-.15-2.74-.57-5.89-3.45-6.99-1.79-.19-3.21-.84-4.63-1.93-7.31-3.32-9.87,13.05-10.42,17.52.13,2.09-.14,4-.83,5.73.14.19-.01.22-.24.24-.06.02-.14.22-.24.24-.55-1.16-.18-2.03-.22-3-.18-4.18.92-4.46,1.6-7.97.88-4.5.7-6.06,2.74-10.45.98-2.11,4.46-4.22,6.78-3.76.18.04,1.96.89,2.5,1.1.22.08.4.48.67.54.72.19,1.44-.63,2.83.27,1.59,1.03,3.87,4.53,4.18,6.37.1.61-.41,3.11.73,2.5Z"/><path class="cls-53" d="M55.44,49.7c-.17.38-.33.65-.48.96-1.12.55-1.76-1.45-1.99-2.38.06-2.86-.88-4.61-2.8-5.27l-.73-.75c-1.01-.55-1.97-1.19-2.88-1.92-.93-.67-2.5-1.01-3.59-.62-4.59,1.66-7.35,15.17-6.76,19.59-.09,1-.52,3.56-1.65,3.34.31-1.97.17-4.17.5-6.09.84-4.81,1.79-11.38,4.57-15.33,1.13-1.6,3.07-2.8,5.1-2.55,1.05.13,2.18,1.22,3.01,1.56,1.58.64,3.02.17,4.42,1.58s1.73,2.56,2.03,4.44c.17,1.07-.28,2.96,1.23,3.45Z"/><path class="cls-27" d="M35.3,62.65c.74-1.71,1.15-3.35.81-5.26.28-3.04,1.2-10.12,2.81-12.49.08-.12.26-.19.45-.24-.29,2.84.19,5.66,0,8.51-.12,1.73-.67,5.78-1.39,7.24-.65,1.31-1.36,1.73-2.68,2.24Z"/><path class="cls-35" d="M63.84,109.41c-.9.01-1.89,0-2.88,0,.76-1.17,2.23-.54,3.12-1.56,1.02-1.16,1.35-4.13,2.23-5.32,1.26-1.71,4.29-2.79,6-3.95,3.83-2.6.67-3.11.65-3.67,0-.04.36-.42.48-.6-.47-.7.93-2.22,1.68-1.92,1.88,2.56,1.93,4.1-.67,6.21l-4.73,3c-1.94,1.11-2.61,2.76-3.21,4.74-.51,1.66-1.39,2.69-2.66,3.08Z"/><path class="cls-20" d="M52.57,58.81c-.12,1.33-2.41.36-3.12-.29-3.35-5.03-5.3-3.06-6.82,1.84-.1,1.43-.55,2.68-1.33,3.72.07.46-.68,1.4-1.2,1.2-1.42,1.63-5.84,5.14-8.05,4.52-.77-.21-3.22-1.86-3.22-2.61,1.26-.37,2.63,1.63,3.25,1.69.21.02,3.59-1.11,4-1.28,2.4-1.01,3.06-2.39,4.03-4.49.45-.98.97-1.92,1.44-2.88.29-.6,1-1.59,1.11-2.15.15-.76-.32-1.21-.02-2.15.62-1.95,2.57-2.46,4.26-1.41,1.36.84,2.92,3.36,4.1,4.05.54.31.99.26,1.57.23Z"/><path class="cls-55" d="M54.96,50.66c-.6,1.26-.26,2.77-2.57,1.49-1.52-.84-1.01-3.89-1.33-5.62-.21-1.16-.66-2.23-1.14-3.3-.25-.32-.41-.64-.48-.96.51.27,1.43.35,1.9.62,2.84,1.6.91,6.04,3.62,7.78Z"/><path class="cls-24" d="M26.9,39.87c-.51-.26-.88-.53-1.44-.72-.1-.03-.24-.17-.48-.24-3.06-1.51-7.5-1.06-9.09,2.31-1.31,3.3-2.72,6.14-4.8,9.11-.79,1.13-2.15,2.02-3.37,2.49-.13-.19-.16-.36-.24-.48.15-.38.44-.77.86-1.17l1.75-3.16c1.8-1.94,2.82-3.93,3.86-6.22.79-2.04,2.53-3.4,4.32-4.59.11-.08.34.12.47.28,1.08-.86,2.3-1.02,3.65-.79,1.06.18,5.42,1.76,4.51,3.19Z"/><path class="cls-8" d="M24.98,38.91c-.16-.05-2.38-.5-2.51-.51-.7-.01-4.07.61-4.58.97-.83.6-3.21,5.93-4,7.27-1.57,2.67-3.11,5.35-6.19,6.41-.04-.05.04-.19,0-.24.77-.85,2.29-1.33,2.88-2.27.78-1.23,1.54-2.6,2.35-3.88,1.68-2.66,1.57-5.46,4.23-7.76,1.83-1.58,5.97-1.65,7.8,0Z"/><path class="cls-10" d="M31.22,70.33c1.59.98,3.91.48,5.31-.64,1.42-1.31,2.72-2.71,3.93-4.22l.36.06c-1.09,1.69-3.35,5.46-5.39,5.76-3.77.56-4.44-1.03-7.51-1.86-1.4-.38-3.09-.19-4.25-1.03s-2.22-3.28-2.49-4.7c-.13-.65.14-1.38-.15-2.01-.12-.27-2.27-1.81-2.62-1.94-2.94-1.13-8.81,3.41-12.05,1.74l-2.72-1.48c0-.08,0-.16,0-.24l.24-.48.39-.05c1.23.9,2.45,1.78,4.04,1.63,2.95-.47,5.81-1.27,8.59-2.39,1.92-.71,5.06,2.3,5.48,3.89-.05,2.05-.05,4.22,2.26,4.94,2.41.53,4.82,1.35,6.59,3.01Z"/><path class="cls-40" d="M13.71,41.79c1.75-2.57,1.38-2.58,3.96-4.56.52-.4,1.04-1.25,1.62-1.5s5.7-.46,6.43-.31c1.96.41,3.48,3.11,3.1,5.04-.17.87-1,.55-.95,1.32-.03-.13-.18-.53-.24-.72-.31-1.91-1.72-4.6-4.03-3.88-1.6-.91-3.37-.83-4.84.28-1.81.6-3.98,2.57-4.8,4.32-.07.17-.15.17-.24,0Z"/><path class="cls-26" d="M92.62,42.99c1.2,2.93.16,11.44,0,14.98-.22,4.61.61,5.83-1.95,10.04-.23.38-.68,1.41-1.15,1.36-.25-.18-.3-.23-.48-.48.29-1.28,1.73-2.71,2.09-3.78,1.16-3.36,1.02-9.88,1.27-13.6.07-1.01.45-2.04.49-3.11.08-2.28-.82-4.35-.97-6.61.29.21.53.6.72,1.2Z"/><path class="cls-41" d="M58.8,11.57c3.79,0,7.61.07,11.4,0,2.98-.05,3.16,0,6,.46s5.74-.22,8.63-.22c.75,0,2.1.25,2.77.58l2.62,2.29c-.02.15.03.33,0,.48-1.11.49-1.06-.33-1.44-.72-.61.34-1.26-.36-.96-.96l-2.77-.37c-2.07.2-4.1.16-6.1-.11-.71.17-1.44.15-2.16,0-1.32-.37-2.66-.64-4.02-.76-4.04.05-8.16,0-12.35-.13l-1.62-.31c-.21-.07-.21-.15,0-.24Z"/><path class="cls-59" d="M53.53,109.17s-.26.25-.58.25c-1.17.01-2.34-.03-3.5-.01.68-.08,1.42-.17,2.16-.24.13-.19.21-.43.24-.72-.49-2.05-.91-4.12-1.27-6.21-2.6.62-4.62,1.06-7.23-.22-.42-.2-1.15-.62-.86-1.01l.27-.25c1.88.7,8.95,2.43,7.65-1.43-.21.11-.28.02-.24-.24.1-.06.16-.2.24-.24-.2-.68.05-.81.48-.24.07.09.65.71.69.68.29-.28.09-4.98-.07-5.76l.34-.43c-.07-.14.16-.47.27-.48.3-.03,1.49,5.27,1.57,5.86-1.8,3.6-2.23,6.9.01,10.33l-.17.36Z"/><path class="cls-59" d="M75.11,92.15c3.66,1.05,1.7,5.79-.75,7.37-2.28,1.5-4.39,3.19-6.31,5.06-.83,1.77-1.84,3.38-3.02,4.84-.19.24-.46.14-.72,0-.16,0-.32,0-.48,0,2.64-1.32,2.13-4.32,3.47-6.25s4.02-3.01,5.87-4.2c1.67-1.08,3.32-1.73,2.88-4.05-.23-1.22-1.21-.8-.95-2.53-.21-.06-.2-.14,0-.24Z"/><path class="cls-39" d="M76.79,108.45c-.51.08-1.07.16-1.68.24-.32.02-.64-.03-.96,0,1.34-.49.5-.53.19-1.27-1.62-3.88,1.98-7.41,3.88-10.48l.51.23c-.87,2.51-1.84,4.98-2.89,7.4l.05.51c.84.84,1.43,2.32.9,3.37Z"/><path class="cls-21" d="M52.09,92.39c.72-.14.43.35.51.79.24,1.21.59,1.48.86,2.27s.85,2.17.89,2.9c.08,1.44-1.06,2.2-1.47,3.35-1.01,2.82.47,4.35,1.27,6.76.19.58.02.43-.38.72-.08,0-.16,0-.24,0-.24-.58-.92-1.09-1.13-1.62-.16-.41-.72-3.27-.78-3.8-.18-1.8,1.19-3.61,1.6-5.29l-1.13-5.6-.24.24c-.07.21-.15.21-.24,0-.46-.52-.17-.94.48-.72Z"/><path class="cls-26" d="M46.57,40.35l-.19.17c-2.45-.95-4.62.16-6.05,2.23-.31.54-.7,1.34-.96,1.92-1.51,3.35-2.51,7.7-2.88,11.39-.22,2.21.52,4.79-1.2,6.59-.29.11-.51.39-.96.24.05-.02.15-.17.24-.24.05-.04.34.11.5-.14.11-.17.85-2.61.88-2.92.11-.92-.22-1.48-.19-2.32.07-2.39,1.37-8.22,2.1-10.63.53-1.76,2.93-6.49,4.69-7.06,1.23-.4,3.18-.4,4.01.77Z"/><path class="cls-15" d="M7.47,52.34c-.14-.23-.26-.27-.48-.72.39.57.97-.55,1.05-.74.3-.68.28-1.34.53-1.87,1.07-2.34,3.57-4.91,5.14-7.21h.24c-.44.95-.32,1.91-.61,2.63-.34.85-2.21,2.91-2.86,3.86-.9,1.32-1.26,3.17-3.01,4.06Z"/><path class="cls-37" d="M27.62,41.07c-.03-.09-.58-.97-.72-1.2-1.12-1.88-1.01-1.2-2.71-1.97-2.52-1.15-2.58-1.37-5.45-.43.63-1.13,2.54-1.4,3.71-1.19.37.07.64.44.98.47.49.05.81-.32,1.55-.14,1.51.38,3.27,2.87,2.64,4.45Z"/><path class="cls-44" d="M16.35,19.97l.11.34c-2,2.53-4.52,4.5-7.54,5.9h-.24c.09-.29.12-.6.24-.96.64-.69,1.3-1.57,2.04-2.16,1.46-1.16,3.74-2.35,5.4-3.12Z"/><path class="cls-60" d="M46.57,40.35c1.38.49,1.9,1.39,2.88,1.92.29.27.34.64.48.96-2.69-3.23-6.69-3.82-9.59-.48.11-.2.09-.4.34-.73.16-.2,2.31-2.05,2.47-2.1.96-.28,2.49.1,3.43.43Z"/><path class="cls-30" d="M14.43,13.25c-.03.77-.27,1.41-.72,1.92-.23-.15-.4-.6-.72-.72.04-.27.04-.93,0-1.2h1.44Z"/><path class="cls-58" d="M46.57,44.19h-2.64c.63-.34.6-.54,1.57-.5.92.03.66.2,1.07.5Z"/><path class="cls-50" d="M76.79,108.45c.14-.46.34-.46.48,0,.08,0,.16,0,.24,0-.57.47-1.63.19-2.4.24.33-.42,1.15-.23,1.68-.24Z"/><path class="cls-32" d="M28.82,67.21c.76.48,2.96,2.43,3.65,2.36.63-.06,3.78-1.45,4.43-1.83,1.12-.65,1.98-1.95,3.19-2.45.22.59-.86,1.86-1.44,1.92-3.51,3.65-6.53,4.2-10.57,1.1l-3.17-1.23c-1.59-.66-2.75-2.2-1.68-3.83,0-.64-3.72-4.62-4.43-4.91-.44-.18-1.72.09-2.22.23-2.06,1.05-4.12,1.53-6.17,1.45-2.27.95-4.33.95-6.18-.87l-.36.16c-.01.2,0,.42-.24.48.03-.48-.03-.96,0-1.44.36-.76,2.02-.55,2.75-.48,1.67.16,3.58,1.31,5.04,1.21s3.88-1.52,5.34-1.88c2.95-.73,4.16.14,5.68,2.6,1.4,2.29,2.05,5.05,4.49,6.55.57.35,1.24.45,1.89.87Z"/><path class="cls-35" d="M65.04,109.41c.2-.22.31-.29.48,0-.35.31-.89.45-1.2,0,.24,0,.48,0,.72,0Z"/><path class="cls-3" d="M78.71,22.61c.16,0,.32,0,.48,0,.33.13.57.29.72.48.34.2.63.6,1.11.65.93.09,2.42-.44,3.52-.12,1.92.56.79,5.52.91,6.99.31,3.99,2.81,8.47,3.28,12.32.54,4.46.6,9.59.59,14.09,0,1.07.41,2.43.19,3.59-.17.9-1.57,1.21-1.44,2.28-.46,0-.2-.87-.24-1.2.53.15.75-.62.84-.95.74-2.76-.54-6.45-.51-9.28.02-2.04.71-3.47.37-5.93-.73-5.24-2.99-10.69-3.98-15.92-.33-1.73-.05-3.25-.53-4.94-.82-.61-1.79-.13-2.52-.17-.37-.02-.77-.21-1.22-.23-3.39-.14-6.66.24-9.72-1.67,3.02.43,5.42-.06,8.16,0Z"/><path class="cls-40" d="M50.89,20.93c.18.14-1,.92-1.2.72-.43-.42.76-.8,1.2-.72Z"/><path d="M34.1,72.48c.21.04.2.13,0,.24.12,1.65-.24,2.43-.24,3.72v5.76c0,.23.58,1.89.72,2.28.25.3.54.6.88.89.56-.57,1.15-1.11,1.76-1.61-.18-.12-.18-.35,0-.48.07-.21.15-.21.24,0,.2-1.38.6-2.66,1.2-3.84-.18-2.15.22-4.31,1.2-6.47-.31.05-.31-.11,0-.48.54-.43,1.85-.87,2.16-.24.18.04.26.12.24.24.57.37,1.03,1.06.24,1.44l-1.41,7.11c-.35,3.4-.75,6.85-.51,10.28.18,2.67,1.46,5.26.96,7.8.15.46-.13.52-.48.24-.32.19-.95.05-1.2-.24-.24.12-.33,0-.24-.24-1.72-3.35-1.99-7.13-1.96-10.84-1.94,1.47-4.29.66-5.4-1.38-.83,3.41-1.98,6.68-3.44,9.82.38,1.01-1.34,3.74-2.3,4.09-.1.04-.22.02-.34-.01-3.71,1.4-4.95-4.86-.9-3.53l2.34-5.34c1.57-3.56,2.75-10.1,3.53-14.09.27-1.4.23-3.34.54-4.61.02-.23.1-.39.24-.48.55-.68,1.59-.61,2.16,0Z"/><path class="cls-38" d="M26.18,100.78c2.24-1.04,2.66-1.81,3.17-4.22l1.94-2.81c.99-3.31,3.4-5.51,5.29-1.45.44,2.49,1.09,5.52,3.28,7.04.34-.06.92.02,1.2.24.19-.18.43-.25.7-.25l2.83,1.07c1.69.66,5.36,1.76,5.57-.88l.25-.18c.75.67.91,1.45-.02,2.02-2.35,1.41-5.49.39-7.89-.34-2.09.1-3.91-.44-5.47-1.63l-3.09-4.96-1.07-.17c-.18,1.11-.72,2.09-1.61,2.94-1.23,3.63-3.7,4.82-7.47,4.3-1.32-.12-1.91-2.35-1.68-3.6.36-.95.51-.81,1.2-1.2l.08.28c-1.69,2.25.35,4.03,2.8,3.8Z"/><path class="cls-54" d="M5.31,61.93c.75-.12,1.39.38,2.06.46,2.29.27,5.67-.96,8.02-1.53.35-.09.74-.52,1.07-.52.11,0,1.88.58,2.11.68,2.88,1.26,1.54,2.48,2.45,4.74.2.5,1.64,2.62,2.03,3.01,2.02,2.05,5.67,1.67,8.21,2.59.71.26,1.09.36.67,1.12-.02.02-.23.45-.24.48.07-.71.1-.62-.51-.8-1.83-.51-4.32-.34-6.21-1-.91-.32-2.88-1.61-3.3-2.45-.53-1.07-1.05-2.13-1.59-3.21-.33-.66-.28-1.42-.75-2.12-.83-1.21-1.31-.36-1.79-.6-.33-.16-.39-.82-.64-.87-.48-.1-1.74.56-2.42.67s-1.4-.01-2.08.08c-3.28.45-3.95,1-7.09-.74Z"/><path class="cls-57" d="M51.85,108.45c.02.17.32.44.24.72-.16.01-.32-.01-.48,0-1.34-1.56-1.2-3.79-2.04-5.51-1.54.83-3.33.74-4.92.11-.81-.32-2.26-1.67-2.82-1.76s-1.18.24-1.85.21c-3.14-.11-4.95-3.12-6.97-5.04-1.49,1.15-2.44,3.64-4.26,4.37-.63.25-4.34.52-4.99.31-1.47-.46-2.15-2.69-1.67-3.97-.08,1.17.57,3.06,1.68,3.6,3.64.45,6.21-.51,7.41-4.19.84-1.43,1.61-2.08,2.98-.72,2.36,2.6,4.08,4.42,7.8,4.48,2.53,2.16,5.61,2.15,8.64,1.11.32,2.12.73,4.21,1.24,6.27Z"/><path class="cls-33" d="M26.18,100.54c.21.07.21.15,0,.24-1.09.07-2.23.19-2.99-.73-.83-1.01-.91-2.44.11-3.35.57-.32,1.7-.63,1.86-.78.18-.17,2.26-3.8,2.46-4.26-.07.87-1.77,5.98-2.28,5.99-.15,0-1.9-1.55-2.28.37-.4,2.05,1.36,2.8,3.12,2.51Z"/><path d="M73.43,94.31c-1.24.48-1.96,1.81-3.04,2.6-.96.7-2.57,1.5-3.66,2.09-.52.28-1.89.61-2.17.95-.31.35-.37,2.46-.59,3.24-.86,3.03-6.03,7.86-8.76,4.43-2.12-2.67-1.33-5.29,1.36-7.03,1.14-.74,4.93-1.88,5.36-2.32.28-.28.63-2.11.48-2.28-2.49,1.31-6.19-.65-6.89-3.3s.43-5.18,3.28-5.7c5.32-.97,6.11,5.93,6.01,9.72,1.23-.04,1.87-1,2.64-1.44,0-.66.55-.98,1.68-.96-.18-.32.06-.48.72-.48-.15-.38.09-.62.72-.72.11-.5.59-.9,1.44-1.2.74-.61,1.76-1.74,2.78-.98.31.23.3.7.33.74.28.22.28.38,0,.48,0,.08.01.16,0,.24-.55.58-1.24,1.26-1.68,1.92Z"/><path class="cls-54" d="M77.27,108.45c-.16,0-.32,0-.48,0-.2-.71-.31-1.47-.59-2.16-.2-.47-.69-.79-.8-1.13-.53-1.74,3.24-5.95,2.83-8.22.08-.12.13-.31.24-.48,1.22-1.9,2.24-3.88,3.04-5.96.42-2.85,1.34-5.27,2.94-7.68,1.25-2.81,1.23-4.4-1.42-6.02-1.35-1.69-2.92-3.98-4.08-5.87-.76-1.23-1.74-3.83-2.5-4.69s-3.04-1.39-4.22-2.5c-1.93-1.83-2.99-5.57-3.11-8.16-.05-.97.76-3.07-.84-3.14-.67-.03-3.38,2.09-3.97,2.65-1.33,1.29-2.58,3.9-3.95,4.92-1,.74-1.9.65-2.74,1.1-.38.2-.61.69-.99.93-2.22,1.38-5.41,1.32-7.84.43-.74-.27-1.37-1.22-2.16-.84-.66.32-1.51,2.68-2.03,3.51-.63,1.02-1.54,1.89-2.23,2.81-.33.44-.31,1.03-.72,1.44-.76.76-4.07,2.37-5.17,2.75-.75.26-1.66.2-2.4.6,0-.08,0-.16,0-.24,0-.14-.06-.35.02-.45.09-.11,2.14-.23,2.75-.49,2.4-1.02,2.81-3.05,4.13-4.99,1.12-1.64,2.81-3.03,3.26-5.15.21-.96-.08-3.63,1.82-2.94,1.46.53,2.85,2.95,4.75,3.19.58.07,1.04-.21,1.61-.21,1.54,0,1.98.27,3.68-.4,5.51-2.18,6.94-9.25,11.99-10.31,2.9-.61,2.22,1.95,2.48,3.62.28,1.76.38,2.85.53,4.55.28,3.32,3.71,4.04,5.85,5.38,1.7,1.06,1.32,2.53,1.94,4.06.66,1.62,2.35,4.82,3.41,6.18,1,1.28,3.31,2.54,3.58,4.09.5,2.81-1.35,5.58-2.26,8.02-.8,2.14-1.68,5.77-2.71,7.6-1.55,2.72-2.2,3.46-3.16,6.68-.72,2.41-.2,5.07-.49,7.54Z"/><path class="cls-54" d="M43.69,72c.74.19.74.06,1.33.71,2.58,2.84.61,5.4.57,8.52-.03,2.1,2,.66,3.01.64.53-.01,1.2.25,1.94.22,4.29-.18,12.17-1.22,15.68,1.57,1.82,1.44,2.26,4.52,2.83,6.76.36,1.41-.3,2.26,1.61,1.96.47-.08.85-.42,1.33-.46-.47.39-.97.82-1.44,1.2-1.17.79-2.19.18-2.57-1.07l-1.33-4.5c-.88-3.14-3.32-4.23-6.42-4.5-5.17-.45-9.99.08-15,.87-2.06.32-1.52-1.69-1.03-2.99,1.28-2.25,1.67-4.5,1.17-6.75-.35-.18-1.47-1.26-1.2-1.68-.38-.08-.54-.24-.48-.48Z"/><path class="cls-57" d="M65.52,109.41c-.16,0-.32,0-.48,0,.71-1.23,1.53-2.42,2.21-3.67.25-.47.17-1.12.5-1.54,2.03-2.55,5.2-3.72,7.49-5.82,1.95-1.79,2.3-4.73-.12-6.23,0-.16,0-.32,0-.48.32.29,1.81.61,2.11,1.61,1.63,5.5-6.9,8.91-9.67,12.53-.78,1.02-1.21,2.87-2.03,3.6Z"/><path class="cls-39" d="M78.47,96.46c-.18-1.07.8-1.67,1.25-2.47,1.6-2.91,1.53-3.89,2.17-6.94.47-2.24,1.34-2.54,2.3-4.18.62-1.07,1.14-2.78.72-3.99-.09-.26-1.18-.94-1.54-1.35-.24-.29-.27-.63-.34-.73,1.7.81,2.34.63,2.37,2.78.05,2.65-1.89,5.37-2.78,7.72-.44,1.16-.61,2.98-1.09,4.18-.67,1.67-2.09,3.42-3.05,4.98Z"/><path class="cls-22" d="M39.85,72.96c-1.23,3.38-2.11,6.82-2.64,10.31-.01.16.03.34,0,.48-.07.2-.15.19-.24,0,.05-4.03-.69-8.55,2.88-11.27-.04.05.02.33,0,.48Z"/><path class="cls-13" d="M37.21,83.75c-.11.58-1.13,1.93-1.67,2.06-.7.17-.85-1.01-.97-1.34.46,1.19,1.41-.58,2.4-.72h.24Z"/><path class="cls-10" d="M43.69,72c.15.17.34.31.48.48-.62.28-1.34.2-2.16-.24-.53-.05-1.7-.3-2.16.24,1.33-1.01,2.16-.9,3.84-.48Z"/><path class="cls-42" d="M71.28,50.42c.18-.31.5-.07.7.19.89,2.93,1.57,5.93,2.02,8.98,1.22.81,2.52,1.52,3.9,2.12,2.9,1.77,4.25,2.9,4.65,6.44.39.18.93.83.48,1.2.17,1.42.68,2.79,1.62,3.88,2.65,2.57,3.26,4.09,2.82,7.8-.47,3.92-1.69,8.08-3.23,11.74-2.43,5-4.77,10.06-6.01,15.42-.04.03-.16-.02-.24,0,.05-2.9.73-6.75,1.6-9.6.44-1.45.92-2.65,2.1-3.67,1.49-3.78,2.92-7.61,4.28-11.5,1.27-4.76.71-6.39-2.79-9.63-1.66-2.19-2.14-3.79-2.51-6.47-1.13-3.23-3.1-4.19-6.07-5.43-2.07-1.22-2.8-3.49-3.08-5.75-.23-.76-.34-1.11-.48-1.92,0-.73-.08-1.45-.24-2.16,0-.16.02-.32,0-.48-.15-.44-.26-.78-.72-.96v-.24c.22-.22.62-.22,1.2,0Z"/><path class="cls-32" d="M69.84,49.94c.68-.06,1.16.1,1.44.48-.32-.08-.86.08-1.2,0-.79-.18-1.38-.55-2.25-.47-1.99.19-5.13,2.41-6.38,3.95-.9,1.11-3.58,5.39-4.74,5.81-2.07.75-5.21.3-7.18-.62-1.05-.49-1.45-1.45-2.76-1.8-3.7-.99-3.27,2.73-4.02,5.01-.18.55-.5.85-.73,1.3-.24.39-.48.55-.72.48.56-1.36.61-3.26,1.08-4.56.18-.49.64-.97.89-1.51.67-1.49.29-2.37,2.37-2.91,2.21-.57,3.69,3.22,5.02,3.82.91.41,1.33-.04,1.92-.11,1.35-.18,2.66-.29,4.03-.29,2.81-4.82,6.94-9.86,13.24-8.58Z"/><path class="cls-2" d="M83.03,96.7c-1.08,2.69-2.38,5.41-3.43,7.97-.27.67-.98,3.25-1.37,3.54-.05-.49,0-.96.11-1.45.31-1.39.88-3.58,1.32-4.92,1.55-4.77,4.76-8.97,6.12-14.02.7-2.58,1.88-7.4,1.54-9.93-.44-3.34-4.92-4.78-4.3-8.53l.54.15c.84,2.06,1.62,3.96,3.47,5.34,1.61,1.84,1.45,4.45,1.06,6.73-.88,5.12-2.36,10.64-5.07,15.12Z"/><path class="cls-6" d="M82.55,67.93c1.91.96,2.17,3.91,3.25,5.27.77.98,2.59,1.69,3.11,3.14.19.53-.13.84-.1,1.28.32,4.44-1.16,6.01-1.9,9.92-.09.48.2.89.14,1.32-.36,2.56-2.14,4.75-3.29,7.02-.19.37-.28.68-.73.83.47-1.16.94-2.35,1.41-3.51,1.53-3.75,3.83-11.59,3.36-15.53-.31-2.57-2.66-3.62-3.67-5.68-.35-.71-.73-1.79-1.1-2.62-.2-.45-.37-.61-.48-1.2-.11-.08-.11-.16,0-.24Z"/><path class="cls-19" d="M69.84,49.94c4.33-.62,3.87,4.25,4.34,7.06.06.35.51,2.42.58,2.54.24.41,1.36.57,1.78.86.95.65,3.29,2.19,4.03,2.81,1.72,1.46,1.64,2.78,1.99,4.72.01.08-.01.16,0,.24-.85-.46-.31-1.54-.61-2.39-.06-.18-1.27-1.82-1.42-1.94-.4-.31-2.09-1.41-2.6-1.72-1.09-.65-3.91-1.35-4.36-2.36l-.66-4.14c-.8-.9-.82-5-1.62-5.21-.4-.21-1.01-.39-1.44-.48Z"/><path class="cls-50" d="M71.52,56.18c.66,2.2,1.28,4.42,3.43,5.57,2.4,1.28,3.84,1.5,5.52,4.08,1.3,1.98.78,3.83,1.66,5.76,1.32,2.89,4.64,4.08,4.72,7.53.1,3.86-2.18,9.05-3.59,12.66-.4,1.03-.48,2.29-1.05,3.26-.48.8-1.22.99-1.67,1.93-.87,1.81-1.2,4.35-1.64,6.27-.38,1.64-1,3.28-.9,4.98h-.24c-.25-1.08.26-2.74.45-3.99.43-2.78.87-6.5,2.5-8.89,1.03-1.5.84-.85,1.46-2.78,1.05-3.28,2.99-6.68,3.73-9.89.18-.77.54-2.85.49-3.58-.16-2.19-2.15-3.25-3.36-4.8-.98-1.26-2.66-4.07-3.06-5.57-.67-2.49.35-3.05-2.24-4.96-1.16-.86-2.31-.89-3.42-1.62-2.15-1.42-2.8-3.45-2.8-5.95Z"/><path class="cls-34" d="M53.77,3.66c.86.05,1.96-.36,1.94.84-.01,1.08-2.56,2.56-3.38,3.36-.64.61-.5,1.41-1.67,1.68-.75.17-1.41,0-2.03.14-1.13.23-2.75.96-3.86.94-.63,0-1.11-.43-1.67-.44-2.78-.07-12.88.6-14.52,2.6.12.11.04.19-.24.24-.2.1-.44.18-.72.24-1.02.21-2.09.18-3.12,0-2.57.69-5.35.72-7.92,0,.12-.31.46-.23.72-.24,1.07-.04,4-.46,4.81-1.08.33-.25-.03-1.24,1.19-.84.57.02,1.19-.02,1.87-.11,6.26-1.9,12.79-2.9,19.36-2.56,3.81-.29,6.01-1.7,9.1-3.71-.24-.48-.19-.83.14-1.06Z"/><path class="cls-51" d="M53.77,3.66c.18.71.87,1.03-.01,1.55-1.78.62-3.18,2.14-4.86,2.81-3.77,1.51-7.02.61-10.83.92-2.28.19-7.16,1-9.37,1.55-1.54.38-3.08,1.11-4.79,1.1-.43,0-.47-.46-.59-.5,2.04-2.45,6.08-2.1,8.97-2.43,3.91-.44,7.71-.97,11.57-1.62,2.45-.41,4.79.11,7.02-1.13.8-.45,1.95-1.17,1.47-2.25.47.05.97-.03,1.44,0Z"/><path class="cls-3" d="M58.8,11.57v.24c-.33.22-.69.46-1.1.5-5.94.71-11.83.48-17.74.2-3.09-.17-6.1.31-9.01,1.15-.85-.27-1.76-.51-2.62-.66.07-.09.17-.15.24-.24,1.79-.24,3.68-1.22,5.43-1.41,4.68-.51,10.02.21,14.85.22,3.26,0,6.62-.01,9.95-.01Z"/><path class="cls-45" d="M78.95,13.25c2.91-.2,5.87-.12,8.88.24.36.28.64.64.96.96,0,.88-.06,1.58-1.07,1.69-3.03.35-6.32-.42-9.36-.5-5.95-.16-11.93.14-17.88,0-.75.55-.93-.98-.72-1.68-.06-.41.89-.61,1.36-.7,5.94-.51,11.88-.52,17.83-.02Z"/><path class="cls-5" d="M59.76,13.97c-.05.66.1,1.36.72,1.68,2.05,1.04,5.55.12,7.78.49,1.64.27,3.35.48,4.99.76,1.02.17,2.3.98,3.43,1.12,2.75.34,4.76-.6,7.54.5-1.05.13-2.17.13-3.36,0-.2.47-.79.5-.96,0l-4.29.11c-6.59-.72-13.18-1.09-19.83-.61-3.37.09-6.38.08-9.47-.96-3.58.05-7.16-.08-10.73-.41-.69-.21-1.32-.82-.54-1.25-.8-.15-.49-.56,0-.96-.31-.33-.18-.46.24-.24l1,1.31c6.19.66,12.7.54,18.86-.25.6-.33,1.1-.36,1.49-.1.83.08,1.65.05,2.48-.07-.18-.63-.17-1.31.64-1.13Z"/><path class="cls-26" d="M92.62,42.99c-.11-.28-.54-.86-.72-1.2-1.48-2.84-.78-2.62-1.21-5.36-.29-1.84-1.06-3.9-1.43-5.91l1.86,4.49c1.14,2.64.42,5.33,1.49,7.98Z"/><path class="cls-8" d="M84.23,18.53c1.44.57,2.56,1.35,3.36,2.64-.85-.62-1.87-1.59-2.88-1.92-1.13-.43-2.39-.55-3.79-.37l-.05-.34c.19,0,.52-.2.83-.19.76.01,1.68.37,2.53.19Z"/><path d="M52.09,92.39s-.45.69-.48.72c.16.44-.04.79-.48.48.06.63-.41,1.02-1.42,1.17-2.78.3-.68,1,.88,1.36l.3.58c.82.09.78,1.68,0,1.92-.24-.04-.35.16-.48.24-4.22-.08-6.75-3.69-5.69-7.72.64-2.41,2.15-4.11,4.83-3.77s3.76,2.54,2.54,5.01Z"/><path class="cls-25" d="M69.12,94.31c-.81.57-.97.55-1.68.96-1.75-1.67-.88-6.48-2.41-7.78-1.92-1.64-7.42-2.38-9.95-2.31-1.2.04-1.89.96-2.88,1-1.92.08-4.33-.43-6.48-.27-.88.07-2.02.78-2.65.27-1.09-.88-1.15-3.39-1.03-4.67.29-3.15.73-4.25.45-7.58-.04-.49-.2-.95-.24-1.44,2.5-.08,3.41,1.8,2.7,4.02l-1.48,4.01c-.44,1.36-1.03,3.67.46,4.45,5.56-.9,11.87-1.92,17.5-.71,2.28.49,4.24,1.51,4.87,3.85l1.25,4.55c.4.87.81,1.16,1.57,1.66Z"/><path class="cls-6" d="M41.53,99.1c.4-.26.62-.85.82-.88.12-.02,2.14.38,2.35.47.85.33,1.93,2.26,2.71,2.34.34.04,1.9-.48,2.17-.71.66-.56.05-1.15.1-1.21.05-.06.39.05.48,0,.07.09.16.16.24.24.45,1.72-1.11,2.09-2.51,2.17-2.01.12-4.96-1.22-6.84-1.93-.21-.07-.21-.15,0-.24.03,0,.43-.21.48-.24Z"/><path class="cls-45" d="M16.59,13.25c2.63,0,5.28-.03,7.92,0,1.25.14,2.5.17,3.77.1.78,0,2.03.22,1.99,1.1-.19,2.5-4.62,1.22-6.35,1.19-2.81-.06-6.48.34-9.14.02-.54-.07-.67-.23-1.07-.49-.08-.87-.1-1.46.72-1.92h2.16Z"/><path class="cls-59" d="M40.81,65.53c-.56.7-4.1,4.57-4.63,4.84-1.09.57-4.29,1.32-4.97-.05l.28-.16c2.63.51,5.02-.48,7.15-2.95.47-.52.92-1.33,1.44-1.92.3-.33.85-.87,1.2-1.2.19-.18.51-.31.72-.48-.41.78-.64,1.22-1.2,1.92Z"/><path class="cls-50" d="M71.04,54.26c-.15-.84-.19-1.26-.24-2.16.5.49.15,1.48.24,2.16Z"/><path class="cls-50" d="M70.8,51.62l-.72-.96c.77,0,.65.4.72.96Z"/><path class="cls-9" d="M35.06,15.41c-1.85.95-1.55,1.81.61,1.23,4.34.39,8.63,1.05,12.88,1.98,3.39-.71,6.46-.8,9.95-.31l7.77-.4c1.84,0,3.72.17,5.42.88l8.22-.26c.32,0,.64-.01.96,0,1.04.76,3.04-.42,3.84.72-2.55-.84-5.06.26-7.49.57-.93.12-5.44.65-5.95.52-.58-.16-1.08-.68-1.81-.83-1.92-.39-4.77.02-6.69,0-3.04-.05-7.53-.61-10.33-.26-1.62.2-2.26.69-4.43.73-.08,0-.16,0-.24,0-6.67-1.45-13.17-1.38-19.83-1.27-1.24-.99-2.54-1.41-3.92-1.26-1.77.72-3.55,1.28-5.38,1.8-.18.05-.28.02-.37-.22.55-.95,1.75-.96,2.57-1.39.74-.4,1.47-1.25,2.4-1.43,1.46-.3,6.18.35,6.96-.36.1-.09.27-.5.3-.65l.47-.27c1.19.36,2.41.1,3.65-.78l.44.32v.96Z"/><path class="cls-4" d="M72.95,21.41c1.93.13,4.08-.19,5.76.96-1.3.06-3.59-.73-4.69-.69-.63.02-1.45.68-2.36.66-.36,0-2.47-.36-2.85-.47-.14-.04-.8-.99-1.31-1.13-.2-.06-2.37-.29-2.59-.29h-11.51c-.09,0-.4-.26-.72-.26-1.22,0-2.94.73-4.2.02,6.37-.03,13.75-.78,19.97.3,1.69.29,2.47.76,4.49.9Z"/><path class="cls-4" d="M90.23,61.21c-.2-1.45.18-3.06.19-4.44,0-.38-.22-.77-.21-1.2.02-5.3-.02-9.51-1.6-14.69-1.47-4.82-1.74-9.87-2.2-14.84-.1-1.1.56-2.5-.76-3.3-2.05-1.24-2.56.41-3.48.51-.55.06-1.56-.38-2.25-.17-.2-.12-.64-.02-.72-.48.49.01.83.24,1.39.09.99-.27,2.02-1.77,3.29-1.74.96.02,2.95,1.26,3.18,2.3.16.7.26,2.9.3,3.78.12,2.82.18,5.11.58,7.93.2,1.38.56,4.73,1.03,5.8,1.32,3,2.17,5.86,1.97,9.29-.15,2.6-.06,5.03-.23,7.68-.06.9.14,2.06,0,2.88-.09.51-.44.53-.48.59Z"/><path class="cls-24" d="M47.77,19.97c-2.74-.01-5.11-.59-7.79-.73-4.08-.21-8.23.29-12.23.26-1.86-.02-2.75-1.54-4.65-1.29-1.02.14-5.34,1.6-6.25,2.14-.53.31-1.46,2.07-2.08,2.71-1.5,1.55-3.72,2.8-5.85,3.14.36-1.26,2.1-1.59,3.1-2.29,1.44-1.01,3.34-2.54,4.33-3.94.63-.3,1.25-.7,1.92-.96.75-.29,1.86-.38,2.59-.64,2.39-.86,2.94-2.26,5.86-.98.44.19.78.79,1.28.84,2.31.23,5.73-.09,8.12-.18,3.94.41,7.83.88,11.65,1.93Z"/><path class="cls-17" d="M52.57,13.25c.21.07.21.15,0,.24l-.76.5c-5.14-.14-10.27-.07-15.38.2-.48.26-.86.26-1.13.02-.09.04-.16.2-.24.24-1.4.66-3.09,1.79-4.56.72.03-.16.02-.55,0-.72-.21-.07-.2-.15,0-.24,1.88-1.08,3.83-1.38,6.19-1.48,4.83-.2,10.19-.09,15.04.07l.84.45Z"/><path class="cls-9" d="M27.62,13.25c.87-.25,3.55-.18,2.88.96.02.06-.01.16,0,.24h-.24c-1.3-1.91-3.95-.35-5.76-1.2,1.03.01,2.09-.04,3.12,0Z"/><path class="cls-12" d="M38.65,67.21c-2.18,2.41-3.86,4.04-7.44,3.12-1.27-.33-2.2-1.16-3.31-1.6-2.09-.83-4.79-.55-5.74-3.14-.49-1.33-.03-2.95-.43-3.89-.08-.19-2.81-2.55-3.1-2.66-1.8-.71-4.46.84-6.32,1.39-3.45,1.01-5.66,1.84-8.45-1.13.02-.28-.13-.81.12-.96.66.96,2.69,1.93,3.81,1.9.82-.02,1.83-.67,2.67-.72.67-.03,1.21.28,1.85.21,1.75-.19,4.31-2.23,6.53-1.88.74.12,4.85,4.57,4.84,5.4,0,.25-.34.61-.39.98-.31,2.29,3.2,2.79,4.8,3.57,1.21.59,3.55,2.57,4.64,2.51,2.38-.13,4.01-1.99,5.91-3.1Z"/><path class="cls-56" d="M58.8,11.81c3.25-.03,6.49,0,9.7,0,2.78,0,5.91-.48,8.29,1.21-5.31-.27-10.61-.17-15.89.31l-.92.32c-.95,1-2.6.74-3.63-.13-1.23-.28-2.49-.37-3.78-.26-5.85.28-13.73-.49-19.08.23-.88.12-1.62,1.2-2.98.73-.41-1.15-1.95-.92-2.88-.96.12-.31.46-.23.72-.24,1.44-.07,2.22.49,3.66-.05,4.82-1.83,13.48-.32,19.01-.66,2.6-.16,5.19-.47,7.79-.49Z"/><path class="cls-14" d="M76.79,13.01c.72,0,1.44,0,2.16,0,.21.07.21.15,0,.24-5.03-.11-12.88-.57-17.64,0-.52.06-1.22.35-1.55.73-.53.59-.08,1.02,0,1.68-.84-.21-3.1.52-3.12-.48l-.3-.16c-.31-1.14-1.44-1.5-3.37-1.06l-.41-.46v-.24c.8-.04,2.41-.27,2.99-.23,1.05.07,2.06,1.2,4.09.6,4.69-1.39,12.05-.64,17.15-.61Z"/><path class="cls-56" d="M87.83,13.49c-2.6-.06-5.21.08-7.81.01-.45-.01-.89-.25-1.06-.25v-.24c2.06-.01,4.07-.17,6.13-.25l2.75.73Z"/><path class="cls-50" d="M42.49,101.02c.07.04.18.43.49.58,1.65.82,3.78,1.09,5.61.83.68-.1,1.87-.91,2.31-.6.4,2.19.67,4.4.95,6.61-1.12-.56-.97-5.56-1.43-5.89-.8-.22-1.46.47-2.31.6-1.94.27-3.14-.08-4.82-.89-.47-.23-.8-.75-1.26-.9-.99-.31-2.39-.05-3.61-.47-2.04-.7-4.4-4.44-5.68-4.64-.86-.13-2.38,4.68-4.81,5.19-.97.2-3.35.44-4.14.05,1.91-.09,4.17-.01,5.64-1.44.89-.87.81-1.91,1.36-2.95.31-.58,1.13-1.28,1.27-1.6.47-1.06-.32-2.29,2.16-1.43l3.25,5.14c1.61,1.46,3.43.91,5.02,1.81Z"/><path class="cls-52" d="M51.85,93.11c-.11,1.91.57,4.23.24,6.11-.18,1.02-1.06.45-1.32-.12-.12-.26.1-.35.13-.48.2-.97-.07-1.85,0-1.92.11-.9.07-1.82-.08-2.7l.32-.41s.44-.43.48-.48h.24Z"/><path class="cls-16" d="M28.82,96.46l3.36-11.27c.85,3,3.71,4.35,6,1.68-.19,4.07.29,8.1,1.44,11.99-.1.06-.19.1-.24.08-1.29-.72-2.71-5.04-2.79-6.6-2.16-4.41-4.34-1.5-5.51,1.77-.48.79-1.42,2.24-2.26,2.36Z"/><path class="cls-12" d="M44.17,72.48c.39.47.92,1.14,1.2,1.68.51,2.23.13,4.44-1.13,6.64-.52,1.41-1.16,3.65,1.1,3.09,3.4-.48,6.83-.94,10.26-1.15,3.72.04,9.9.3,10.99,4.62.47,2.08,1.17,4.02,2.09,5.81.58.15.96.36,1.15.66-.31.24-.49.32-.72.48-1.1.58-1.8-1.33-2.08-2.11-1.14-3.15-.21-5.58-4.03-7.01-4.73-1.77-10.28-.81-15.13-.48-.76.05-1.88.16-2.62.27-.67.1-1.23.84-1.96.25-2.36-2.61,2.35-9.37,1.46-11.29-.38-.82-1.8-1.12-2.52-1.44-.09-.04-.17-.16-.24-.24.73.06,1.44.16,2.16.24Z"/><path class="cls-31" d="M39.61,98.86c.08.07.16.2.24.24.2.07.2.15,0,.24-.54-.19-1.61-.66-1.93-1.13s-1.11-3.68-1.37-4.56c-.14-.47.04-1-.18-1.5-.08-.19-1.24-1.29-1.47-1.41-2.4-1.27-2.71,1.99-3.35,3.3-.48.99-1.48,1.94-1.94,3.09-.27.68-.18,1.46-.54,2.1-.63,1.1-1.72,1.47-2.89,1.55v-.24c1.23-1.14,1.8-2.67,2.64-4.08.9-1.51,1.84-2.33,2.6-3.52s.66-2.63,2.43-3.09c3.04-.8,2.86,3.59,3.59,5.3.25.59.94,1.41,1.31,2.05.39.67.17,1.04.87,1.65Z"/><path class="cls-49" d="M38.65,79.44c-.58,1.21-.98,2.49-1.2,3.84h-.24c.21-2.65.24-4.56,1.12-7.15.35-1.03,1.01-2.18,1.52-3.16-.3,2.21-.7,4.3-1.2,6.47Z"/><path class="cls-36" d="M37.45,83.27c-.1-1.68-.17-2.71,1.2-3.84-.28,1.21-.29,2.81-1.2,3.84Z"/><path class="cls-16" d="M41.05,99.34v.24c-.18-.07-.68-.06-1.2-.24v-.24c.26.12.92.27,1.2.24Z"/><path class="cls-10" d="M70.56,93.11c-.2.16-.36.45-.72.72-2.36-.15-2.15-2.25-2.7-3.89-.36-1.07-.81-2.83-1.38-3.66-2.16-3.14-6.86-2.55-10.17-3.22l-11.13,1.36c-1.72.05-1.06-2.64-.71-3.61.83-2.31,2.23-3.82,1.63-6.65.25.48.47.68.49,1.33.02.55-.17,2.54-.27,3.09-.18.97-2.03,4.25-1.19,4.83.51.36,4.22-.52,5.18-.61,3.93-.36,9.29-.71,13.07.11,1.21.26,3,1.55,3.6,2.63.77,1.39,1.78,7.2,2.8,7.52.46.14,1.03.02,1.51.05Z"/><path class="cls-43" d="M61.92,101.02c.34,1.75-3.1,6.2-4.8,5.16-.26-.16-.69-1.37-.69-1.69.02-1.68,4.06-3.22,5.49-3.47Z"/><path class="cls-23" d="M59.45,89.31c1.77-.42,2.23,2.37,1.94,3.63-.56,2.46-4.45-.06-3.28-2.31.14-.26,1.09-1.26,1.34-1.32Z"/><path class="cls-8" d="M35.06,15.41s.02.4.24.59c1.06.9,9.22.36,11.16.6,1.24.15,2.41.84,4.07.92,4.16.2,8.31-.14,12.46-.2,5.32-.08,9.61.75,14.64.95.72.03,1.65.24,2.28.26-2.73.74-5.48.55-8.29.73-4.06-1.67-9.08-.42-13.42-.47-1.57-.02-4.04-.59-5.48-.42-2.19.25-2.57,1.11-5.25.58-3.91-.77-7.52-1.65-11.6-1.84-.68-.03-2.14.73-2.46-.43-.29-1.05,1.11-1.62,1.65-1.27Z"/><path class="cls-45" d="M56.64,15.17c-1.24.77-3.2.89-4.67.97-3.97.22-11.33.43-15.13,0-1.19-.14-1.73-.7-1.55-1.92.4-.2.48-.42,1.07-.49,4.59-.55,11.3-.06,16.2-.23,1.58-.05,4.54-.61,4.08,1.68Z"/><path class="cls-48" d="M51.13,93.59c.34.28.34,2.99.24,3.12-.04.05-.43-.05-.48,0-1.28-.39-3.16-.5-3.36-2.16,1.09.05,2.73-.28,3.6-.96Z"/><path class="cls-29" d="M49.62,91.6c-.54.54-1.84.61-2.57.54-.23-3.34,4.71-2.7,2.57-.54Z"/></g></svg>