<?xml version="1.0" encoding="UTF-8"?><svg id="Layer_2" xmlns="http://www.w3.org/2000/svg" viewBox="0 0 163.67 186.24"><defs><style>.cls-1{fill:#cab6c1;}.cls-2{fill:#848383;}.cls-3{fill:#bfacb7;}.cls-4{fill:#e8d7de;}.cls-5{fill:#898888;}.cls-6{fill:#a9a3a7;}.cls-7{fill:#9c9a9b;}.cls-8{fill:#9d999a;}.cls-9{fill:#b1a9ae;}.cls-10{fill:#f2e5eb;}.cls-11{fill:#cebac4;}.cls-12{fill:#818080;}.cls-13{fill:#d3d0d1;}.cls-14{fill:#b6b3b4;}.cls-15{fill:#b0aeaf;}.cls-16{fill:#767575;}.cls-17{fill:#a7a5a6;}.cls-18{fill:#dcd9da;}.cls-19{fill:#9d9b9c;}.cls-20{fill:#a5a2a4;}.cls-21{fill:#aeabad;}.cls-22{fill:#101010;}.cls-23{fill:#afa3ab;}.cls-24{fill:#b2afb1;}.cls-25{fill:#929192;}.cls-26{fill:#bab7b8;}.cls-27{fill:#aca9ab;}.cls-28{fill:#f1e4e9;}.cls-29{fill:#1b1b1a;}.cls-30{fill:#ccc9ca;}.cls-31{fill:#e0cbd4;}.cls-32{fill:#dcc7d1;}.cls-33{fill:#a7a4a6;}.cls-34{fill:#a6a4a5;}.cls-35{fill:#bfbcbd;}.cls-36{fill:#0a0a0a;}.cls-37{fill:#d5bfc9;}.cls-38{fill:#d4bfc9;}.cls-39{fill:#8c8a8a;}.cls-40{fill:#807f7e;}.cls-41{fill:#a9a6a8;}.cls-42{fill:#b0aaae;}.cls-43{fill:#c8c5c6;}.cls-44{fill:#918f90;}.cls-45{fill:#d1cdcf;}.cls-46{fill:#aaa8a9;}.cls-47{fill:#b5b1b2;}.cls-48{fill:#070707;}.cls-49{fill:#a29fa1;}.cls-50{fill:#8a8989;}.cls-51{fill:#d6d3d4;}.cls-52{fill:#979696;}.cls-53{fill:#a2a0a1;}.cls-54{fill:#b1afb1;}.cls-55{fill:#908e8e;}.cls-56{fill:#8d8b8c;}.cls-57{fill:#a5a3a4;}.cls-58{fill:#b1acaf;}.cls-59{fill:#b0a5ac;}.cls-60{fill:#888787;}.cls-61{fill:#8f8e8e;}.cls-62{fill:#080808;}.cls-63{fill:#969495;}.cls-64{fill:#c9b5c0;}.cls-65{fill:#9c999a;}.cls-66{fill:#aaa7a9;}.cls-67{fill:#d0cccd;}.cls-68{fill:#d8c3cc;}.cls-69{fill:#cfcccd;}.cls-70{fill:#a09d9f;}.cls-71{fill:#9f9d9e;}</style></defs><g id="Layer_1-2"><path class="cls-48" d="M47.01,88.41c-15.15,6.46-36.99-1.74-43.82-16.79-4.56-10.04-3.83-33.11-.29-43.57C7.87,13.33,26.33,3.79,40.92,10.38c8.3,3.75,21.38,19.4,21.38,28.61v6.53c2.3-.41,4.27-1.54,6.56-2.21,9.06-2.65,17.63-2.63,26.26,1.46.49-9.22,4.36-17.29,9.17-24.96,9.07-14.47,26.26-25.61,43.3-16.51,7.24,3.86,10.71,10.84,13.35,18.35,7.09,20.16.44,49.26-20.07,59-8.41,4-17.26,4.48-26.36,2.92,0,2.49-.99,4.81-1.87,7.08.74.11,1.5.24,2.24.38.52.1,1.14.32,1.49.37,9.3,1.29,17.07,1.48,25.61,6.28.4.22,4.06,2.51,3.48,3.04-5.27-1.3-10-4.08-15.29-5.41-3.11-.78-7.51-1.63-10.68-2-1.59-.19-6.45-.71-7.71-.34-.71.21-2.31,2.42-2.5,3.28h11.37c1.06,0,4.79.78,5.95,1.13.91.28,1.55.85,2.44,1.11l-2.78.8c-.54.3-.89.02-1.32-.05-.05-.17-.2-.34-.37-.37l-.19-.37c-.52-.22-.52.37-.56.37-2.74.06-5.85-1.49-7.65-1.49h-8.39c.33.78,1.92,4.77,2.24,5.04.63.55,5.73,1.61,7.16,2.16,2.56.98,4.95,2.39,7.01,4.18-.7.23-1.91-.46-2.6-.76-3.55-1.53-6.97-3.55-10.82-4.28-.39.43,2.81,9.77,3.17,11.19,2.69,10.46,7.04,27.6,3.44,37.77-2.62,7.41-8.33,14.67-14.08,19.87,5.39.45,10.25,8.75,2.24,9.14.93,1.71-.15,4.14-2.07,4.45-4.94.78-10.96-2.71-13.81-6.63-5.07,1.3-10.38,1.32-15.53.59-1.99-.28-7.91-2.26-9.05-2.14s-3.61,3.03-4.78,3.81c-1.69,1.12-7.87,3.77-9.77,3.68-1.68-.08-4.3-1.85-3.54-3.75-5.41.49-4.81-4.88-2.07-7.85l4.67-2.78c-5.74-4.13-10.67-8.65-13.33-15.39-5.59-14.17,1.34-28.65,6.99-41.5-.23-.23-2.34,1.24-2.69,1.51-3.37,2.54-6.4,6.32-9.31,9.43-.26.28-.58,1.11-1.05.44,1.95-5.14,6.47-8.87,10.73-12.11,1.29-.98,3.56-1.81,4.72-3.03.49-.51,3.46-5.71,3.2-5.93-1.54-.12-2.91.64-4.38,1.02-12.3,3.17-14.38,8.69-22.28,17.63-.35.39-1.13,1.39-1.69,1.3,4.17-13.17,17.74-21.47,30.96-23.31l-.37-1.49c1.99.22,2.71-1.06,3.73-2.43-7.75-.17-15.98,1.57-23.21,4.39-2.26.88-5.67,3.07-7.59,3.6-.7.19-.55-.18-.52-.71,7.92-6.06,16.94-7.19,26.48-8.59,1.86-.27,3.73-.53,5.59-.75.12-.5-.52-.43-.74-.74-1.79-2.49-3.78-4.81-5.59-7.3-.47-.3-.83.41-1.13.58-.37.21-.94.67-1.12.75ZM98.84,41.41c-.13.87-.27,1.66-.37,2.61,0,.09-.38.43-.41.92-.1,2,.94,1.63,1.9,2.44,1.99,1.68,3.79,3.69,4.1-.37.09-1.1-.06-2.25,0-3.36.57-2.81,1.01-5.57,1.95-8.31,6.79-19.57,26.17-31.15,46.53-24.53-4.82-4.34-11.38-8.54-18.08-8.6-20.77-.19-32.86,21.14-35.62,39.2ZM60.8,44.77c-.14-7.19-5.59-19.12-10.25-24.63-11.59-13.69-30.74-12.43-41,1.89-.37.52-2.68,4.18-2.45,4.45l3.98-2.92c10.7-6.49,19.87-6.03,30.44.38,9.24,5.6,12.39,11.75,15.92,21.56.25.69.25,2.27,1.29,2.25,1.64-.02,2.09-1.72,2.06-3ZM135.77,11.56c-2.48.29-4.35.65-6.71,1.49-13.49,4.82-22.2,19.2-22.38,33.2-.8,1.92-.4,4.42,0,6.34.78,3.77,3.62,7.02,5.13,10.72.64,1.56,1.48,3.92,1.93,5.53,1.03,3.69-.16,5.36,3.63,7.94,3.72,2.53,10.34,4.71,14.67,4.17.86-.11,1.11-.2,1.86-.37,10.64-2.5,18.45-10,22.81-19.89s5.5-27.42,2.17-37.18c-.63-1.84-1.14-2.52-1.86-4.1-.12-.26-.04-.88-.28-1.38-.32-.64-2.02-4.1-2.23-4.22-6.18-1.98-12.25-3.01-18.74-2.24ZM11.95,26.86c-.47.38-1.1.6-1.49,1.12-.27.36-.25.51-.37.75-.64,0-1.62,1.1-2,1.54-4.67,5.36-5.54,6.88-5.83,14.13-.62.39-.37,1.42-.38,2.05-.05,4.2-.13,8.36.38,12.5-.16,3.94.73,7.29,2.24,10.82,4.06,9.51,13.6,16,23.5,18.28.5.12.78.27,1.49.37,1.11.17,1.63.54,3.14.34,3.53-.47,13.06-6.87,13.29-10.61.13-2.06-.54-4.98-.41-7.47.41-7.97,4.81-16.05,11.16-20.73-.11-.77-.47-1.48-.7-2.2-.11-.33-.29-.54-.37-.75-1.99-5.23-3.91-10.28-7.64-14.55-9.28-10.64-24.19-15.16-35.99-5.59ZM76.84,44.39c-3.06.08-5.66.67-8.58,1.49-3.42.96-4.24,1.47-7.09,3.36-1.91,1.27-2.08,1.44-3.73,2.98-8.63,8.06-12.66,17.27-8.58,29.1.9,2.6,1.03,3.25,2.61,5.6,1.32,1.95,5.36,6.79,7.32,7.79,1.13.58,2.78,1,2.38-.7.1-.16.62.39.74.38.53.38.94,1.96,1.2,2.15.17.12,3.6.82,4.02.83.12,0,.26.02.37,0l2.61,1.13c.06.29-.35.3-.38.36-1.53.03-3.19-.66-4.67-.75-.77-.05-.67.3-.56.93.05.26,4.34.31,5.22.56.54.16,1.62.53,1.12,1.12-.08.1-.65-.08-.74,0-1.27-.89-3-.76-4.48-.74.95,2.22,2.87.04,4.48,1.12-1.02.46-1.53.31-2.61.56.38.34.68.86,1.14,1.09.91.47,3.28,1.38,4.21,1.31,3.04-.23,2.75-1.34,4.34-3.33,1.18,5.76,4.41,2.5,7.46,1.31,5.68-2.22,12.93-.63,17.54-3.36.48-.28.94.07.73-.93l-7.83,1.12c-.17-.98.16-.66.81-.85,2.05-.61,4.53-.62,6.65-1.02l-3.35-.37-.56-.75c3.28-.37,7.85,1.45,9.13-2.61-4.37-.14-8.6,1.37-12.68,2.61-1.57.48-3.16,1.22-4.85,1.12l2.24-1.49c.41-.04.75-.22,1.12-.37.59-.24,1.28-.53,1.86-.75,1.72-.64,3.77-1.29,5.6-1.5l-.38-.74c.5,0,1,0,1.49,0,1.67-.01,6.75-.31,7.95-1.09.34-.22.82-1.34.63-1.52-.56.26-1.31-.36-1.49-.38.54-.3,1.78-.19,2.16-.45.27-.19.32-1.03.45-1.41,1.74-5.23,1.19-14.64-.46-19.88-2.94-9.37-12.9-22.83-23.79-22.65-.12,0-.25,0-.37,0-.6.25-1.55-.38-1.86-.37-2.78.07-5.85-1.05-8.58,0ZM116.75,82.07c1.52.18,3.82.06,5.41,0,.45-.02,1.39.28,1.3-.37-2.29-.55-5.03-1.49-7.08-2.62-.27-.15-.84-1.12-1.49-1.12.1,2.13-.77,3.8,1.86,4.1ZM45.89,82.44c-.36.42-.61.98-1.11,1.31l-5.6,4.65c3.11-.39,5.61-.76,8.2-2.61,1.62-1.15-.42-2.76-.38-4.48-.27-.21-.91.88-1.11,1.12ZM56.79,99.52c.17.07,3.53-.21,3.27-1.22-.85-1.17-3.55-1.41-4.1,0-.09.24.76,1.18.83,1.21ZM106.68,99.98c-1.27-.27-2.53.53-3.73.75-.54.69,4.56,1.32,5.22,1.11.41-.34-.84-1.33-1.12-1.49-.11-.07-.22-.34-.37-.37ZM64.9,100.73c-1.6-.58-3.38-.24-5.03,0-.65.1-.63-.19-.56.74l5.59-.74ZM54.46,103.34c-.51.12-1.25-.2-1.86.18-.18.12-2.15,3.44-2.23,3.75-.43,1.58,2.63-.8,2.98-.94.32-.13.74-.23,1.12-.37,3.94-1.53,8.07-2.64,12.31-2.99-.59-1.45-2.24-1.18-3.56-1.13-2.87.1-5.96.86-8.75,1.51ZM86.16,103.34c-.49.17-1.7.37-1.8.45-.2.16-.01.6-.07.67-2.76,3.66-5.38,5.56-10.34,4.18-2.79-.77-3.72-4.91-6.62-4.94-2.05-.02-7.81,1.65-9.89,2.44-1.95.74-3.21,1.94-4.86,2.79-.1.05-.8.05-1.49.37s-2.24.94-2.63,1.39c-.63.72-2.56,4.23-3.16,5.32-3.93,7.16-8.74,18.74-9.13,26.87-.08,1.65.12,3.24.37,4.85,2.5,15.83,13.59,23.15,28.27,26.75,17.78,4.37,30.38,3.28,42.98-10.89,12.54-14.1,9.82-26.74,5.86-43.93-1.24-5.4-3.36-10.59-4.37-16.06-.4-.75-4.98-1.35-5.97-1.39,0-.58-1.93-.42-2.44-.39-3.76.24-11.66.44-14.72,1.51ZM81.32,105.2c-.65-.05-1.26.07-1.96-.08-.64-.14-1.62-.96-1.97-.93-.29.02-.87.86-1.41,1.1-1.37.6-4.13.72-1.38,1.79,3.03,1.17,5.37.93,7.46-1.68.01-.34-.49-.16-.74-.18ZM48.5,173.1c-2.27,1.09-4.75,3.07-4.28,6.03s6.17-.77,6.51-.43c1.19,1.2-3.69,2.42-2.26,4.31,1.65,2.19,6-.48,7.87-1.51s3.28-2.06,4.84-3.55c.19-.18.66-.25.93-.37.45-.02.01-.43-.19-.55-1.96-1.12-5.1-1.75-7.33-2.74-3.2-1.43-2.3-3-6.09-1.18ZM101.08,174.22c-1.18.58-2.28,1.09-3.36,1.87-1.23.55-5.82,1.98-5.53,3.5.08.43.56.46.68.6.28.34.37.46.75.75,1.8,1.35,7.88,4.55,9.91,3.02,2.44-1.85-4.02-3.52-3.57-5.62,2.66-.32,4.98,2.18,7.67.77,1.12-1.59-1.98-3.96-3.23-4.67-.51-.29-1.34-.14-1.46-.21-.09-.06.34-1.35-1.48-.55-.24.1-.31.51-.38.55Z"/><path class="cls-22" d="M124.58,98.86c.17.04.32.2.37.37-.44-.08-1.11.24-1.12-.37.24.03.53-.05.75,0Z"/><path class="cls-24" d="M103.32,102.22c.99.04,5.57.64,5.97,1.39,1.01,5.47,3.12,10.65,4.37,16.06,3.96,17.19,6.68,29.83-5.86,43.93-12.59,14.17-25.19,15.26-42.98,10.89-14.68-3.61-25.77-10.92-28.27-26.75,1.18.21.63-.59.75-1.28,1.71-9.37,4.9-17.05,8.94-25.58,2.68-3.05,3.7-6.95,5.59-10.45.23-.42.85-.75.75-1.49,1.64-.85,2.91-2.05,4.86-2.79,2.08-.8,7.84-2.47,9.89-2.44,2.9.03,3.83,4.17,6.62,4.94,4.95,1.37,7.57-.53,10.34-4.18.63.55,1.15.19,1.78.13,3.03-.28,5.99-.65,9.04-.87,2.92-.21,5.49.27,8.2-1.49ZM61.55,120.87c.12-1.72.75-3.31.76-4.65,0-.77.22-1.09-.76-.94-.62,2.8-1.48,5.58-1.82,8.44-.75,6.27,2.01,12.18.13,18.41-2.2,7.28-10.21,4.5-12.02-1.02-.15-.45-.02-1.51-.09-1.58-.21-.22-1.75-.04-2.24.37-3.69,3.19,2.87,8.05,5.22,9.7.65.46.58,1.23,2.07,1.47,5.21.84,8.97-3.27,11.13-7.48,1.56-3.04.36-2.77.21-5.39-.23-3.95-.19-5.82-1.1-9.87-.39-1.74-.66-3.63-1.49-5.22-.03-.71-.05-1.53,0-2.24ZM104.07,147.73c.57-1.19,2.85-6.19.86-6.66-2.22-.52-1.87,1.24-2.33,2.39-1.07,2.67-4.39,8.45-7.98,6.16-.24-.15-1.4-2.57-1.54-3.02-2.27-7.14,1.6-11,2.05-17.32.21-2.91-.37-5.57-.76-8.41-.64,0-.81-.21-.72.53.57,4.64,1.36,7.44-1.15,11.79-1.73,3-2.41,3.65-2.98,7.46-1.39,1.53-1.56,6.89-1.04,8.69.06.19,2.12,3.07,2.34,3.26.35.29,3.18,1.79,3.65,1.94,2.07.66,4.09.17,5.84-1.04,1.49-1.02,4.02-3.75,3.75-5.76Z"/><path class="cls-68" d="M129.05,13.06c.32,1.02.8.52,1.4.51,2.71-.06,8.53-.11,10.91.79.81.31,1.49,1.1,2.33,1.39,6.78,2.4,8.65,2.13,13.95,7.31.1.1,1.19,1.1,1.24.44,3.33,9.76,1.99,27.73-2.17,37.18s-12.17,17.39-22.81,19.89c-2.31-.93-4.65-2.39-6.89-3.36-3.2-1.39-6.67-1.69-9.13-4.67-2.31-2.79-2.75-8.22-4-11.66-.97-2.68-2.41-3.98-4.06-6.02-.49-.61-2.99-3.39-3.06-3.65-.31-1.05-.09-3.67-.08-4.96.17-14.01,8.89-28.38,22.38-33.2Z"/><path class="cls-68" d="M55.58,47l-7.02,8.46c-1.22,2.1-2.45,4.23-3.43,6.46-2.18,5-1.62,8.13-2.27,13.21-.33,2.57-4.91,7.55-7.08,8.95-1.34.87-2.65.88-3.78,1.42-1.49.71-2.57,1.91-4.03,2.53-9.9-2.28-19.44-8.77-23.5-18.28.62-.39.37-1.42.38-2.05.21-16.89.21-23.7,6.89-39.37.17-.39.96-1.25.19-1.49,11.81-9.57,26.72-5.05,35.99,5.59,3.73,4.27,5.65,9.32,7.64,14.55Z"/><path class="cls-24" d="M111.9,87.29l-.74-2.24-.37,3.35c.39-5.64-5.76-6.74-10.07-5.97,1.41-1.72-.14-2.79-1.86-3.35.29-.6,1.42-4.68,1.49-5.41.26-2.41-.37-6.96-3.05-7.78-9.45-2.89-10.66,11.53-5.16,15.05-.5,1,.9,1.49,1.68,1.49h5.41l-3.7,1.7c-2.14,1.14-4.82,4.99-4.52,7.45.09.71.59.48.73.84.27.69.98,2.36.78,3.07l-2.24,1.49c1.68.1,3.27-.64,4.85-1.12h2.98s-.74.74-.74.74h1.86s3.35.37,3.35.37c-2.12.4-4.6.41-6.65,1.02-.65.19-.97-.13-.81.85l7.83-1.12c.21.99-.25.64-.73.93-4.61,2.73-11.85,1.14-17.54,3.36-3.05,1.19-6.29,4.45-7.46-1.31-1.59,1.99-1.3,3.1-4.34,3.33-.93.07-3.3-.83-4.21-1.31-.46-.24-.76-.76-1.14-1.09,1.08-.25,1.59-.1,2.61-.56.06-.02-.06-.33,0-.37.1-.08.66.09.74,0,.5-.59-.57-.96-1.12-1.12.04-.23-.07-.58,0-.75.03-.07.44-.08.38-.36l-2.61-1.13c.99-.14,1.64-1.42,2.05-2.24,1.04-2.06,1.06-3.08,1.31-5.22.57,1.86,2.58,3.49,4.48,3.73.88,2.68,4.33.51,5.59-.75,6.51-6.49-3.33-11.31-8.57-7.09-.73-1.11,1.52-4.34,1.11-4.85-.52-.64-.83.47-.97.69-1.18,1.89-1.36,4.23-1.64,6.39-2.94-.97-1.57-5.37-4.48-5.97l-.18.74c-.35-1.28-3.04-1.74-3.18-1.87-.79-.74.95-.62.74-1.11l-1.49-.56c1.6-.45,1.55-1.99,1.86-2.43.91-1.24,2.06-2.14,2.81-3.72,2.32-4.84,2.41-14.07-5.3-10.52-5,2.3-4.81,9.18-2.73,13.49-.08.01-.86.53-1.49.75-1.41.48-.46.79-.77,1.08-.21.19-1.11-.08-1.59.05-.29.08-.24.55-.46.62-1.65.55-3.93.44-4.65,2.73-.49.29-.27,1.55-1.12,0-4.09-11.83-.05-21.04,8.58-29.1l1.12.19c-1.22,4.83,3.51-1.46,4.87-2.22,6.35-3.51,17.59-4.67,24.77-4.69l-.56-.75c10.88-.18,20.84,13.28,23.79,22.65,1.64,5.23,2.2,14.65.46,19.88ZM76.47,75.36c-.99-.21-.64.25-.93.73-.51.87-1.12,2-1.31,2.99.81.23,1.12-.82,1.41-1.37.39-.73.74-1.51.82-2.35Z"/><path class="cls-24" d="M98.84,41.41c2.77-18.06,14.85-39.39,35.62-39.2,6.7.06,13.26,4.26,18.08,8.6-20.36-6.63-39.74,4.95-46.53,24.53-.95,2.73-1.38,5.49-1.95,8.31-.2.97-.51,1.91-.56,2.98-1.59-1.57-3.7-3.12-4.66-5.22Z"/><path class="cls-24" d="M60.8,44.77c-1.24.06-2.21,1.58-3.36.75-3.53-9.81-6.68-15.96-15.92-21.56-10.57-6.41-19.74-6.87-30.44-.38l-3.98,2.92c-.23-.27,2.08-3.93,2.45-4.45,10.26-14.33,29.42-15.58,41-1.89,4.66,5.51,10.11,17.44,10.25,24.63Z"/><path class="cls-9" d="M49.99,81.33c3.05-1.79,4.99-2.35,8.5-1.24.11.04,1.92.8,2.03.85.45.24.45.96.83,1.01.28.04.75-.37.95-.26.1.06-.86.86,1.23,1.57,1.8.61,3.06,1.44,4.36,3.19,1.51,2.04,2.01,5.41,1.02,7.73-.21.48-2.43,2.19-1.77,3.18-.41-.01-3.85-.71-4.02-.83-.26-.19-.68-1.77-1.2-2.15,3.67-.48,1.49-5.62-.4-7.24-1.5-1.29-2.26-.79-2.88-1.06-.07-.03-.11-.73-.78-.86-.63-.13-1.31.22-2.02.2-2.17-.07-2.74-1.09-4.35,1.52-1.58-2.34-1.71-3-2.61-5.6.85,1.55.63.29,1.12,0Z"/><path class="cls-54" d="M48.5,173.1c4.01,2.26,8.09,4.1,12.68,4.85-1.56,1.49-2.91,2.48-4.84,3.55s-6.21,3.7-7.87,1.51c-1.43-1.89,3.45-3.11,2.26-4.31-.34-.34-6.06,3.28-6.51.43s2.01-4.94,4.28-6.03Z"/><path class="cls-3" d="M55.96,47.75c.23.71.6,1.43.7,2.2-6.36,4.68-10.75,12.76-11.16,20.73-.13,2.49.54,5.41.41,7.47-.24,3.74-9.77,10.13-13.29,10.61-1.51.2-2.03-.17-3.14-.34,3.33-.19,6.18-2.79,8.58-4.85.13-.11.24-.26.37-.37,1.07-.93,2.91-2.21,3.89-3.38,2.59-3.1,1.39-5.3,1.71-8.74.14-1.48.75-4.68,1.12-6.16.67-2.68,1.87-5.1,3.06-7.58l7.76-9.58Z"/><path class="cls-59" d="M51.48,86.92c1.61-2.6,2.18-1.59,4.35-1.52.72.02,1.4-.32,2.02-.2.68.14.72.83.78.86.63.28,1.39-.22,2.88,1.06,1.89,1.63,4.07,6.77.4,7.24-.12.02-.64-.53-.74-.38.4,1.7-1.25,1.28-2.38.7-1.96-1-6-5.83-7.32-7.79Z"/><path class="cls-54" d="M102.95,174.22c.11.07.94-.08,1.46.21,1.26.71,4.35,3.08,3.23,4.67-2.69,1.4-5.01-1.09-7.67-.77-.45,2.1,6.01,3.78,3.57,5.62-2.03,1.54-8.11-1.66-9.91-3.02-.2-.9.46-.77.98-1.05,1.51-.81,2.21-1.44,3.49-2.31,1.64-1.1,3.42-1.95,4.85-3.36Z"/><path class="cls-3" d="M132.04,80.95c-4.33.55-10.95-1.63-14.67-4.17-3.79-2.58-2.6-4.25-3.63-7.94-.45-1.61-1.29-3.97-1.93-5.53-1.51-3.7-4.35-6.95-5.13-10.72,1.99,2.45,4.96,5.74,6.11,8.62.86,2.14,1.2,4.95,1.9,7.06.34,1.03,1.51,4.41,2.05,5.03.41.47,4.16,2.79,4.97,3.24,1.34.73,3.24,1.94,4.26,2.46,1.62.83,4.5.75,6.07,1.95Z"/><path class="cls-10" d="M10.08,28.72c-4.77,8.93-5.54,18.55-7.09,28.35-.63,0-.71-1.24-.74-1.67-.26-3.26-.13-7.69,0-11.01.29-7.25,1.15-8.77,5.83-14.13.39-.44,1.36-1.54,2-1.54Z"/><path class="cls-9" d="M93.62,95.13c-1.71-2.47-2.32-4.43-.74-7.19,1.17-2.06,5.19-4.32,7.55-4.62,4.66-.57,8.05.69,8.48,5.84-.54.09-1.57,1.04-1.67,1.06-.22.05-1.32-.39-1.68-.32-.75-1.05.37-2.96-.63-3.76-.49-.39-3.81-1.02-4.43-1.05-.16,0-.1.59-.43.68-3.63,1.01-4.33,1.92-5.47,5.15-.02.07-.56.08-.61.31-.41,1.9,1.05,1.24,1.29,1.62l.2,1.51c-.59.22-1.28.5-1.86.75Z"/><path class="cls-28" d="M135.77,11.56c6.49-.77,12.56.26,18.74,2.24.21.11,1.92,3.58,2.23,4.22.25.5.16,1.11.28,1.38l-5.71-2.68c-5.47-1.76-10.75-4.55-16.67-4.41l1.12-.74Z"/><path class="cls-58" d="M57.45,76.85c-1.5,2.27,3.36.98,4.48.75.81-.17,1.44-.6,2.24-.75-.32.43-.26,1.98-1.86,2.43l1.49.56c.21.49-1.54.37-.74,1.11.14.13,2.83.59,3.18,1.87l.18-.74c2.91.59,1.54,5,4.48,5.97-.08.6.07,1.26,0,1.87-.25,2.14-.27,3.16-1.31,5.22-.41.82-1.06,2.1-2.05,2.24-.12.02-.25,0-.37,0-.67-.99,1.56-2.69,1.77-3.18.99-2.31.49-5.69-1.02-7.73-1.3-1.75-2.56-2.58-4.36-3.19-2.09-.71-1.13-1.52-1.23-1.57-.2-.11-.67.3-.95.26-.38-.06-.38-.78-.83-1.01-.11-.06-1.91-.82-2.03-.85-3.51-1.11-5.44-.56-8.5,1.24.72-2.29,3-2.18,4.65-2.73.21-.07.16-.54.46-.62.48-.13,1.38.14,1.59-.05.31-.29-.65-.6.77-1.08Z"/><path class="cls-18" d="M40.67,130.94c-1.26,3.24-2.03,6.76-3.19,10.05-.22.62-.35,2.12-1.28,1.89.39-8.13,5.2-19.71,9.13-26.87.6-1.09,2.53-4.6,3.16-5.32.39-.45,1.96-1.08,2.63-1.39-3.46,7.2-8.42,13.82-10.44,21.64Z"/><path class="cls-59" d="M95.49,94.38l-.2-1.51c-.24-.38-1.7.28-1.29-1.62.05-.24.58-.25.61-.31,1.14-3.23,1.84-4.14,5.47-5.15.33-.09.26-.69.43-.68.62.02,3.94.66,4.43,1.05,1,.8-.12,2.7.63,3.76-1.26.24-2.54,1.27-3.36,2.24-.5,0-1,0-1.49,0l.38.74c-1.83.21-3.88.86-5.6,1.5ZM98.22,88.51c-1.62,5.03,7.7,1.63,4.17-.86-.89-.63-3.87-.06-4.17.86Z"/><path class="cls-37" d="M106.68,46.26c-.02,1.29-.23,3.91.08,4.96.08.26,2.57,3.04,3.06,3.65,1.64,2.03,3.08,3.34,4.06,6.02,1.25,3.44,1.69,8.87,4,11.66,2.46,2.97,5.93,3.28,9.13,4.67,2.24.97,4.58,2.43,6.89,3.36-.75.18-1.01.26-1.86.37-1.57-1.2-4.45-1.12-6.07-1.95-1.01-.52-2.92-1.72-4.26-2.46-.81-.44-4.56-2.77-4.97-3.24-.55-.63-1.72-4.01-2.05-5.03-.69-2.11-1.04-4.91-1.9-7.06-1.15-2.88-4.12-6.18-6.11-8.62-.4-1.92-.8-4.43,0-6.34Z"/><path class="cls-58" d="M98.84,79.09c1.73.56,3.28,1.63,1.86,3.35,4.32-.77,10.46.33,10.07,5.97l.37-3.35.74,2.24c-.13.38-.18,1.23-.45,1.41-.38.26-1.62.15-2.16.45-.12,0-.26-.02-.37,0-.44-5.15-3.82-6.41-8.48-5.84-2.36.29-6.38,2.55-7.55,4.62-1.57,2.77-.97,4.72.74,7.19-.37.15-.71.33-1.12.37.2-.7-.5-2.38-.78-3.07-.14-.36-.64-.13-.73-.84-.3-2.46,2.38-6.31,4.52-7.45l3.7-1.7h-5.41c-.78,0-2.18-.5-1.68-1.49.05.03.69.35.75.37,1.11.39,6.76.74,7.46,0,.85-.92-2.08-.99-2.24-1.49.14-.13.72-.7.75-.75Z"/><path class="cls-32" d="M135.77,11.56l-1.12.74c5.92-.15,11.2,2.65,16.67,4.41l5.71,2.68c.72,1.58,1.24,2.26,1.86,4.1-.05.66-1.14-.34-1.24-.44-5.29-5.18-7.16-4.92-13.95-7.31-.85-.3-1.52-1.09-2.33-1.39-2.38-.9-8.2-.85-10.91-.79-.6.01-1.08.52-1.4-.51,2.36-.84,4.24-1.2,6.71-1.49Z"/><path class="cls-31" d="M4.49,69.76c-1.51-3.53-2.4-6.87-2.24-10.82.21,1.73.54,4.14,1.01,5.91.18.67-.11.96.85.8-.09-6.88.08-13.8,1.23-20.59,1.05-6.2,2.84-10.6,5.41-16.22.3-.65.93-.96-.3-.86.39-.52,1.02-.74,1.49-1.12.77.24-.03,1.1-.19,1.49-6.68,15.66-6.68,22.48-6.89,39.37,0,.63.24,1.66-.38,2.05Z"/><path class="cls-4" d="M10.46,27.98c1.24-.1.6.21.3.86-2.58,5.62-4.37,10.02-5.41,16.22-1.15,6.8-1.32,13.71-1.23,20.59-.96.16-.68-.14-.85-.8-.47-1.77-.8-4.18-1.01-5.91-.51-4.14-.43-8.31-.38-12.5,0-.63-.24-1.66.38-2.05-.13,3.32-.26,7.75,0,11.01.03.43.12,1.67.74,1.67,1.55-9.8,2.32-19.42,7.09-28.35.13-.24.1-.38.37-.75Z"/><path class="cls-35" d="M46.26,120.87c-4.04,8.54-7.23,16.21-8.94,25.58-.13.69.43,1.49-.75,1.28-.25-1.61-.45-3.2-.37-4.85.93.23,1.06-1.27,1.28-1.89,1.16-3.29,1.93-6.81,3.19-10.05s3.16-7,4.9-10.21c.28-.52.43-1.12,1.06-1.36-.19.41-.18,1.08-.37,1.49Z"/><path class="cls-20" d="M48.5,173.1c3.78-1.82,2.89-.25,6.09,1.18,2.23,1,5.37,1.62,7.33,2.74.2.12.64.52.19.55-.27.12-.73.19-.93.37-4.59-.75-8.67-2.59-12.68-4.85Z"/><path class="cls-15" d="M54.46,103.34c2.79-.65,5.87-1.41,8.75-1.51,1.32-.05,2.97-.32,3.56,1.13-4.24.35-8.37,1.46-12.31,2.99.09-1.01,2.12-3.56,0-2.61Z"/><path class="cls-38" d="M44.77,64.91c-.53,2.35-1.12,4.49-1.44,6.95-.21,1.56.14,3.02-.23,4.62-.66,2.87-3.51,4.21-4.67,6.71-.13.12-.24.26-.37.37-2.79,1.68-6.14,2.72-8.58,4.85-.71-.11-.99-.26-1.49-.37,1.46-.62,2.54-1.82,4.03-2.53,1.12-.53,2.43-.55,3.78-1.42,2.17-1.4,6.75-6.38,7.08-8.95.65-5.09.09-8.21,2.27-13.21-.12.92-.18,2.11-.37,2.98Z"/><path class="cls-42" d="M95.12,95.87c4.08-1.24,8.31-2.75,12.68-2.61-1.28,4.05-5.86,2.24-9.13,2.61l.56.75h-1.86s.74-.74.74-.74h-2.98Z"/><path class="cls-43" d="M87.28,44.77c-6.41.11-13.58,1.06-19.75,3.19-2.11.73-4.15,1.85-6.18,2.78l-.18-1.49c2.85-1.89,3.67-2.39,7.09-3.36l-4.1,1.87.56.73c4.55-1.83,9.84-3.28,14.73-3.72,1.85-.17,4.23-.33,5.97-.37.31,0,1.27.62,1.86.37Z"/><path class="cls-21" d="M47.38,85.8c-2.6,1.84-5.09,2.22-8.2,2.61l5.6-4.65c.5-.33.75-.89,1.11-1.31.8.89,1.45,2.16,1.49,3.36Z"/><path class="cls-13" d="M52.6,108.93c.1.74-.52,1.08-.75,1.49-.61.24-.87.71-1.19,1.23-1.35,2.22-2.9,5.34-4.03,7.72-.64.24-.78.84-1.06,1.36-1.74,3.21-3.58,6.81-4.9,10.21,2.02-7.81,6.99-14.43,10.44-21.64.69-.32,1.39-.32,1.49-.37Z"/><path class="cls-11" d="M55.96,47.75l-7.76,9.58c-1.19,2.47-2.39,4.9-3.06,7.58h-.37c.2-.87.25-2.06.37-2.98.97-2.23,2.21-4.36,3.43-6.46l7.02-8.46c.08.21.27.42.37.75Z"/><path class="cls-14" d="M87.66,44.77l.56.75c-7.19.02-18.42,1.18-24.77,4.69-1.36.75-6.09,7.05-4.87,2.22l-1.12-.19c1.65-1.54,1.82-1.72,3.73-2.98l.18,1.49c2.03-.93,4.06-2.05,6.18-2.78,6.17-2.13,13.34-3.08,19.75-3.19.12,0,.25,0,.37,0Z"/><path class="cls-45" d="M76.84,44.39c.8-.02,2.12-.25,2.61.37-4.89.44-10.18,1.9-14.73,3.72l-.56-.73,4.1-1.87c2.91-.82,5.51-1.41,8.58-1.49Z"/><path class="cls-6" d="M109.29,89.16c.19.01.94.64,1.49.38.19.18-.29,1.3-.63,1.52-1.2.78-6.28,1.08-7.95,1.09.82-.97,2.09-2,3.36-2.24.36-.07,1.46.37,1.68.32.11-.03,1.14-.98,1.67-1.06.11-.02.26,0,.37,0Z"/><path class="cls-50" d="M103.32,102.22c-3.03-.11-5.31.82-8.2,1.12-1.74.18-4.41.37-6.15.4-.97.01-1.88-.1-2.8-.4,3.06-1.07,10.96-1.27,14.72-1.51.51-.03,2.45-.19,2.44.39Z"/><path class="cls-7" d="M98.84,41.41c.96,2.1,3.07,3.65,4.66,5.22.05-1.08.36-2.01.56-2.98-.06,1.11.09,2.25,0,3.36-.14.1-.24.27-.37.37-1.55-1.5-5.32-.86-5.22-3.36.1-.96.24-1.74.37-2.61Z"/><path class="cls-34" d="M116.37,79.09c2.06,1.13,4.8,2.07,7.08,2.62.09.65-.85.35-1.3.37-1.59.06-3.89.18-5.41,0-.01-.96-1.26-2.31-.37-2.98Z"/><path class="cls-46" d="M81.32,105.2c.26.02.76-.15.74.18-2.08,2.61-4.43,2.85-7.46,1.68l6.71-1.87Z"/><path class="cls-51" d="M54.46,103.34c-.28.12-1.04,2.44-1.12,2.98-.34.14-3.41,2.53-2.98.94.08-.31,2.05-3.63,2.23-3.75.61-.38,1.35-.06,1.86-.18Z"/><path class="cls-63" d="M81.32,105.2l-6.71,1.87c-2.75-1.06.01-1.19,1.38-1.79.54-.23,1.12-1.07,1.41-1.1.34-.03,1.32.79,1.97.93.69.15,1.31.03,1.96.08Z"/><path class="cls-25" d="M103.69,47.38c-.61.47-.82,0-1.05.12-.1.05-.07.64-.27.65-.59.03-1.55-1.01-2.42-.77-.96-.81-2-.44-1.9-2.44.02-.5.4-.83.41-.92-.09,2.5,3.67,1.85,5.22,3.36Z"/><path class="cls-19" d="M95.12,103.34v.37c-3.05.22-6.01.59-9.04.87-.62.06-1.15.43-1.78-.13.05-.07-.14-.51.07-.67.1-.08,1.31-.28,1.8-.45.92.29,1.82.41,2.8.4,1.74-.03,4.42-.22,6.15-.4Z"/><path class="cls-65" d="M106.68,99.98l.37.37c.27.16,1.52,1.15,1.12,1.49-.65.2-5.76-.42-5.22-1.11,1.19-.22,2.46-1.02,3.73-.75Z"/><path class="cls-47" d="M56.79,99.52c-.07-.03-.92-.97-.83-1.21.55-1.41,3.24-1.18,4.1,0,.26,1.01-3.1,1.29-3.27,1.22Z"/><path class="cls-12" d="M60.8,44.77c.03,1.28-.43,2.98-2.06,3-1.04.01-1.05-1.57-1.29-2.25,1.14.84,2.12-.69,3.36-.75Z"/><path class="cls-2" d="M97.73,176.08c-1.15.82-2.37,1.95-3.36,2.98-.46.25-1.06.77-1.49,1.12-.12-.14-.6-.17-.68-.6-.29-1.52,4.3-2.95,5.53-3.5Z"/><path class="cls-71" d="M101.08,174.22c.07-.04.15-.45.38-.55,1.83-.8,1.39.5,1.48.55-1.43,1.41-3.21,2.26-4.85,3.36h-.75c1.16-.79,2.79-2.27,3.73-3.36Z"/><path class="cls-61" d="M101.08,174.22c-.94,1.09-2.57,2.57-3.73,3.36-.83.57-2.15,1.04-2.98,1.49.98-1.03,2.21-2.16,3.36-2.98,1.07-.77,2.18-1.28,3.36-1.87Z"/><path class="cls-16" d="M116.37,79.09c-.89.67.36,2.02.37,2.98-2.63-.3-1.76-1.97-1.86-4.1.65,0,1.22.97,1.49,1.12Z"/><path class="cls-8" d="M69.75,98.86c-.07.17.04.52,0,.75-.89-.26-5.18-.3-5.22-.56-.11-.63-.22-.98.56-.93,1.48.09,3.13.78,4.67.75Z"/><path class="cls-30" d="M85.42,44.39c-1.74.04-4.12.21-5.97.37-.49-.63-1.81-.39-2.61-.37,2.73-1.05,5.8.07,8.58,0Z"/><path class="cls-60" d="M104.07,47c-.31,4.07-2.11,2.05-4.1.37.86-.25,1.82.8,2.42.77.19-.01.17-.59.27-.65.22-.13.44.35,1.05-.12.13-.1.23-.27.37-.37Z"/><path class="cls-33" d="M97.35,177.57h.75c-1.29.86-1.99,1.49-3.49,2.31-.52.28-1.18.15-.98,1.05-.38-.28-.46-.41-.75-.75.43-.35,1.03-.87,1.49-1.12.84-.45,2.15-.92,2.98-1.49Z"/><path class="cls-27" d="M64.9,100.73l-5.59.74c-.07-.93-.09-.64.56-.74,1.65-.24,3.43-.58,5.03,0Z"/><path class="cls-40" d="M47.38,85.8c-.04-1.2-.69-2.47-1.49-3.36.21-.24.84-1.32,1.11-1.12-.04,1.72,2,3.32.38,4.48Z"/><path class="cls-63" d="M70.13,100.72c-.06.05.06.35,0,.37-1.6-1.08-3.53,1.1-4.48-1.12,1.47-.02,3.2-.15,4.48.74Z"/><path class="cls-69" d="M54.46,103.34c2.12-.95.09,1.61,0,2.61-.38.15-.8.24-1.12.37.07-.55.84-2.86,1.12-2.98Z"/><path class="cls-39" d="M107.05,100.35l-.37-.37c.15.03.26.31.37.37Z"/><path class="cls-62" d="M45.51,139.89c.48-.42,2.02-.59,2.24-.37.07.07-.06,1.13.09,1.58,1.81,5.52,9.82,8.3,12.02,1.02,1.89-6.23-.88-12.14-.13-18.41.34-2.86,1.2-5.64,1.82-8.44.98-.15.76.17.76.94,0,1.34-.64,2.94-.76,4.65-1.6,5.71,1.48,11.11,1.49,16.79-.86,5.02-1.24,8-5.59,11.19-.37,0-.75,0-1.12,0-5.81.03-8.29-2.02-10.82-7.09-.01-.62,0-1.24,0-1.87Z"/><path class="cls-62" d="M92.5,133.18c2.5-4.35,1.72-7.14,1.15-11.79-.09-.74.08-.53.72-.53.39,2.84.97,5.5.76,8.41-.45,6.33-4.32,10.18-2.05,17.32.14.46,1.3,2.87,1.54,3.02,3.58,2.29,6.9-3.49,7.98-6.16.46-1.15.11-2.91,2.33-2.39,1.99.47-.29,5.47-.86,6.66-.19.4-1.13,1.7-1.49,2.24-1.13.83-2.19,1.84-3.36,2.61-2.18-.29-4.24,1.02-5.97-.75-2.57-2.62-3.2-9.21-2.61-12.68.68-1.95,1.36-3.96,1.86-5.97Z"/><path class="cls-66" d="M89.52,141.76c-.48,5.33-.6,6.72,3.36,10.45.43.4,1.05,1.18,1.49,1.49,2.54,1.82,6.06-.43,7.67-2.6.36-.49.39-.91.53-1.13.36-.54,1.3-1.84,1.49-2.24.26,2-2.26,4.73-3.75,5.76-1.75,1.2-3.77,1.69-5.84,1.04-.48-.15-3.31-1.65-3.65-1.94-.22-.19-2.28-3.06-2.34-3.26-.52-1.79-.35-7.16,1.04-8.69-.05.35.03.76,0,1.12Z"/><path class="cls-17" d="M50.73,149.59h.37c1.97,1.73,3.57,1.26,5.59,0,6.45-1.79,7.26-8.2,7.11-14-.04-1.52-.43-3.88-.77-5.4,0-.25,0-.5,0-.75v-1.12c.91,4.04.88,5.92,1.1,9.87.15,2.62,1.34,2.35-.21,5.39-2.16,4.21-5.92,8.32-11.13,7.48-1.5-.24-1.42-1.01-2.07-1.47Z"/><path class="cls-55" d="M61.55,123.11c.1,2.19.26,4.43,1.49,6.34,0,.25,0,.5,0,.75,0,2.68.43,4.93,0,7.46-.01-5.68-3.1-11.07-1.49-16.79-.05.71-.03,1.52,0,2.24Z"/><path class="cls-19" d="M45.51,141.76c.07,3.43,2.58,5.68,5.59,7.09v.75h-.37c-2.35-1.65-8.91-6.5-5.22-9.7,0,.62-.01,1.24,0,1.87Z"/><path class="cls-26" d="M46.26,120.87c.19-.41.18-1.08.37-1.49,1.13-2.38,2.68-5.5,4.03-7.72.32-.52.58-.99,1.19-1.23-1.89,3.5-2.91,7.4-5.59,10.45Z"/><path class="cls-41" d="M90.64,139.15c-.04.11-.44.34-.57.73-.21.59.33,1.49-.55,1.88.03-.36-.05-.77,0-1.12.57-3.81,1.26-4.46,2.98-7.46-.5,2.01-1.18,4.02-1.86,5.97Z"/><path class="cls-71" d="M103.32,102.22c-2.72,1.76-5.28,1.28-8.2,1.49v-.37c2.9-.3,5.17-1.23,8.2-1.12Z"/><path class="cls-19" d="M63.04,128.33v1.12c-1.23-1.92-1.39-4.16-1.49-6.34.83,1.6,1.1,3.48,1.49,5.22Z"/><path class="cls-48" d="M98.84,79.09s-.61.61-.75.75c-1.38,1.33-3.37,1.7-5.22,1.49-.05-.02-.69-.34-.75-.37-5.5-3.52-4.29-17.93,5.16-15.05,2.68.82,3.3,5.36,3.05,7.78-.08.73-1.21,4.81-1.49,5.41ZM93.91,78.25c1.13-1.15.99-5.96.27-7.35-.54-1.04-2.39-.94-2.78-.1-.96,2.08-.28,10.28,2.51,7.46Z"/><path class="cls-48" d="M64.16,76.85c-.8.14-1.43.58-2.24.75-.44-.26-2.82-1.52-2.98-1.49-2.08-4.32-2.27-11.19,2.73-13.49,7.71-3.55,7.62,5.68,5.3,10.52-.75,1.57-1.9,2.47-2.81,3.72ZM60.69,66.45c-2.87.84-1.7,8.94.26,8.51,2.46-.53,3.3-9.55-.26-8.51Z"/><path class="cls-36" d="M70.87,88.04c.28-2.16.46-4.51,1.64-6.39.14-.23.45-1.34.97-.69.41.51-1.84,3.74-1.11,4.85,5.24-4.23,15.08.6,8.57,7.09-1.79.62-3.68.99-5.59.75s-3.9-1.87-4.48-3.73c.07-.6-.08-1.27,0-1.87ZM74.6,85.8c-1.77.84-2.79,2.14-2.16,4.23.14.47.6.51.67.62,1.45,2.08,5.23,2.6,7.28,1.13,4.32-3.11-.17-8.64-5.79-5.98Z"/><path class="cls-53" d="M61.92,77.59c-1.12.23-5.97,1.52-4.48-.75.63-.22,1.41-.73,1.49-.75.16-.02,2.54,1.23,2.98,1.49Z"/><path class="cls-57" d="M80.94,92.89c-1.26,1.26-4.71,3.43-5.59.75,1.91.24,3.8-.12,5.59-.75Z"/><path class="cls-29" d="M76.47,75.36c-.08.84-.44,1.62-.82,2.35-.29.56-.6,1.6-1.41,1.37.19-.99.8-2.12,1.31-2.99.28-.49-.06-.94.93-.73Z"/><path class="cls-1" d="M38.43,83.19c1.16-2.5,4.01-3.84,4.67-6.71.37-1.6.02-3.06.23-4.62.33-2.46.91-4.6,1.44-6.95h.37c-.37,1.48-.98,4.68-1.12,6.16-.31,3.43.88,5.64-1.71,8.74-.98,1.17-2.82,2.45-3.89,3.38Z"/><path class="cls-64" d="M38.05,83.56c-2.4,2.06-5.25,4.66-8.58,4.85,2.44-2.13,5.79-3.17,8.58-4.85Z"/><path class="cls-23" d="M98.22,88.51c.3-.92,3.28-1.48,4.17-.86,3.53,2.49-5.79,5.88-4.17.86Z"/><path class="cls-70" d="M98.1,79.83c.16.49,3.09.57,2.24,1.49-.69.75-6.35.4-7.46,0,1.85.21,3.84-.16,5.22-1.49Z"/><path class="cls-19" d="M56.7,149.59c.25-.16.48-.55.75-.75,4.35-3.19,4.74-6.17,5.59-11.19.43-2.53,0-4.78,0-7.46.34,1.52.73,3.88.77,5.4.15,5.8-.66,12.21-7.11,14Z"/><path class="cls-5" d="M45.51,141.76c2.52,5.07,5,7.12,10.82,7.09-1.83,1.63-3.38.86-5.22,0-3.02-1.41-5.52-3.65-5.59-7.09Z"/><path class="cls-44" d="M56.33,148.85c.37,0,.75,0,1.12,0-.27.2-.5.59-.75.75-2.02,1.26-3.62,1.73-5.59,0v-.75c1.84.86,3.39,1.63,5.22,0Z"/><path class="cls-52" d="M93.25,151.83l-.37.37c-3.96-3.73-3.83-5.11-3.36-10.45.88-.4.34-1.29.55-1.88.13-.39.53-.61.57-.73-.59,3.48.04,10.06,2.61,12.68Z"/><path class="cls-49" d="M94.37,153.7c2.36.22,3.08.04,4.85-1.12,1.17-.77,2.23-1.78,3.36-2.61-.14.22-.17.64-.53,1.13-1.61,2.17-5.14,4.42-7.67,2.6Z"/><path class="cls-56" d="M99.22,152.58c-1.77,1.16-2.49,1.34-4.85,1.12-.44-.31-1.06-1.09-1.49-1.49l.37-.37c1.73,1.76,3.79.46,5.97.75Z"/><path class="cls-24" d="M73.11,90.65l.73-1.3.76-3.55c5.62-2.66,10.11,2.87,5.79,5.98-2.05,1.47-5.83.96-7.28-1.13Z"/><path class="cls-67" d="M74.6,85.8l-.76,3.55-.73,1.3c-.08-.11-.53-.14-.67-.62-.63-2.1.4-3.4,2.16-4.23Z"/></g></svg>