<?xml version="1.0" encoding="UTF-8"?><svg id="Layer_2" xmlns="http://www.w3.org/2000/svg" viewBox="0 0 124.64 201.65"><defs><style>.cls-1{fill:#fb8a51;}.cls-2{fill:#f7f5f5;}.cls-3{fill:#f79663;}.cls-4{fill:#f1ebec;}.cls-5{fill:#f9661c;}.cls-6{fill:#f96e25;}.cls-7{fill:#f98347;}.cls-8{fill:#f77632;}.cls-9{fill:#141312;}.cls-10{fill:#f9915b;}.cls-11{fill:#1a1919;}.cls-12{fill:#f98f59;}.cls-13{fill:#fb8b52;}.cls-14{fill:#070707;}.cls-15{fill:#f2edee;}.cls-16{fill:#f88143;}.cls-17{fill:#f8681e;}.cls-18{fill:#f96e27;}.cls-19{fill:#f9905a;}.cls-20{fill:#f9864c;}.cls-21{fill:#f9671c;}.cls-22{fill:#f77f41;}.cls-23{fill:#f77c3c;}</style></defs><g id="Layer_1-2"><path class="cls-14" d="M23.3,63.29c-1.28-10.2-2.86-17.67-.6-27.96C26.95,15.97,37.97,3.38,58.22.28c10.13-1.55,21.12,3.69,28.9,9.65,12.01,9.2,15.98,24.7,14.15,39.33-1.02,5.53,0,0-1.02,5.53-.47,3.45-1.39,7.34-1.5,10.8-.15,4.52,4.09,15.05,5.92,19.67,2.43,6.15,6.24,12.83,8.08,19.1l.68,1.6c2.34,8.47,6.41,16.51,8.7,25.22.67,1.69,1.1,3.47,1.27,5.28.34,1.54,2.06,6.41.73,7.32s-3.09-.16-4.18-.91c-1.84-1.84-3.33-4.01-4.78-6.15-.11.36-.33.59-.64.7.65,5.47,1.41,11.14.79,16.7-1.11,9.95-6.73,18.85-14.19,25.29,2.49,2.65,4.55,5.15,5.09,8.92s-3.44,3.11-6.11,3.95c-.52.39-.56.69-.57,1.31.27,1.44.39,3.26-1.27,3.85-2.79,1-3.8-2.23-6.19-1.45-1.11.36-1.95,1.34-3.14,1.59-2.5.53-3.85-1.01-5.51-.73-2.79.47-5.12,4.81-7.6,4.79-1.19,0-2.07-4.73-2.1-5.75-.07-2.11.73-4.17,1.39-6.13-7.27,1.02-14.47.62-21.5-1.44-1.32-.39-2.48-1.16-3.83-1.29l.97,4.03c.03.14-.8,2.47-.96,2.73-2.7,4.47-5.06.6-7.54.7-2.08.08-3.22,1.95-5.67,1.14s-4.63-5.13-5.71-5.38c-1.62-.37-2.02,1.83-3.21,2.56-.91.55-3.22.72-3.84-.33-.27-.46-.68-2.25-.74-2.85-.45-.3-.53-.8.08-.9l-.24-.24c.19-1.15.03-2.09-.49-2.82-1.66-.35-2,.13-3.03-1.62-.22-.44-.32-.9-.33-1.39-.22-3.79,1.57-4.16,4.07-6.27.86-.73,1.57-1.07,2.61-1.42.04-.01-.76.37-.66-.23-11.05-8.26-12.99-19.59-11.56-32.54,1-9,2.87-17.89,4.34-26.82-.47.69-1.1,1.31-1.58,1.99-1.61,2.32-3.89,5.94-5.18,8.43-2.08,4.03-2.98,8.75-5.31,12.62-1.54,1.26-2.64-.55-3.38-1.88-2.99-5.37-2.99-14.17-1.48-20.04,1.94-7.52,9.96-17.06,14.64-23.47,3.1-4.25,8.95-10.52,9.14-15.95.07-1.85-.21-3.71-.37-5.55.3,3.13.34.15-1.06-7.42-.04-.24-.16-.61-.04-.83Z"/><path class="cls-11" d="M114.53,137.41c-.05-.39-.05-1.1-.08-1.59s-.3-.44.44-.55l5.06,7.59c-2.01-1.39-2.94-2.73-4.41-4.6-.29-.37-.46-.8-1.01-.86Z"/><path class="cls-2" d="M92.31,52.29c-.56.57-1.43.94-2.6,1.1-6.39,1.14-21.13,18.9-5.06,10,2.36-1.1,4.6-2.41,6.72-3.95l.66.25c-.1,1.86.07,3.83-.19,5.68-.54,3.94-2.45,7.75-3.59,11.52,1.87,2.79,4.75,3.95,6.06,7.1,2.72,6.51,3.86,15.64,5.77,22.68s4.14,13.16,7.35,19.52c.5.08.89.45,1.15,1.09l2.4,5.11c2.99,12.41,2.06,26.62-5.8,37.06-14.93,19.8-39.13,22.09-60.64,12.09-17.27-8.02-29.44-12.32-28.5-34.26,1.04-24.31,5.96-47.15,15.94-69.32.65-3.14-1.16-7.74-1.91-11,.38-1.12,1.2-.35,1.65.44,3.84,2.36,11.35-.98,11.74-5.71.26-.88.98-1.15,2.17-.82,3.18,1.11,11.98,5.48,14.65,5.27,4.56-.36,5.39-4.62,8.39-6.67.83-.57,4.38-1.43,3.02-2.68-.8-.73-2.7-.68-3.91-1.74-8.41-7.31-1.93-24.09,7.26-27.91,2.61-1.08,7.03-.79,8.98,1.39,4.36,4.87,7.82,17.3,8.3,23.76Z"/><path class="cls-2" d="M29.32,63.9c-1.65-7.87-1.58-15.24.48-23.03,1.25-4.74,5.03-13.69,10.65-14.27,1.66-.17,4.1,1.79,4.95,3.13,3.23,5.09,6.66,19.29,3.71,24.86-1.52,2.86-3.54,3.12-6.3,4.31-.07.63-.44.56-.96.36-4.17-2.51-9.51.66-11.73,4.48l-.8.16Z"/><path class="cls-5" d="M30.92,178.07c2.4,1.24,5.04,2.51,7.52,3.77,1.08.55,7.3,3.17,7.58,3.48.56.61,1.89,4.27,1.92,5.2.14,3.95-4.05,1.36-5.96,1.38-1.67.02-3.04,1.26-4.24,1.17-2.11-.17-3.89-5.9-7.39-5.15-.14-.14-.26-.28-.35-.44-.21-.4.38-8.55.58-8.95.08-.16.21-.31.34-.44Z"/><path class="cls-5" d="M94.99,184.4c.29.05.48.22.54.51-.86,2.61-1.52,5.45-1.41,8.18l-.45.45c-2.21-.42-2.17.27-3.78.88-3.18,1.21-5.17-1.28-8.74.56-2.23,1.15-5.52,5.86-4.9-.4.12-1.25,1.03-4.49,2.29-4.99.46-.19,1.11-.01,1.66-.14,5.43-1.32,9.91-2.19,14.81-5.04Z"/><path class="cls-15" d="M42.8,58.9c.09.14-.22.83.11,1.15.13.12,2.18.63,2.71.82-2.07.08-1.53,1.5-2.05,2.66-1.83,4.05-8.09,6.54-12.1,4.39-.51-.27-.54-1.25-1.42-.97-.24-1.02-.52-2.03-.73-3.05,1.63-2.46,3.13-4.36,6.01-5.38,2.35-.84,4.46-1.23,6.57.14.26.17.88.2.91.24Z"/><path class="cls-4" d="M92.31,52.29c.2,2.66-.14,4.87-.28,7.41l-5.54,3.59c-2.91.87-5.21,3.21-8.46,3.24-1.87.01-1.18-2.19-.58-3.33,1.94-3.65,5.76-7.15,9.39-9.11,1.52-.82,3.77-1.85,5.47-1.8Z"/><path class="cls-21" d="M48.27,59.64c1.36-.96,3.11-1.32,5.26-1.07l4.07-1.03c.51-.06.96-.02,1.36.12,1.08,2.25,1.33,3.91.49,6.35-1.17.29-9.44-3.71-11.17-4.37Z"/><path class="cls-13" d="M102.12,184.75c-.27,1.42-.47,2.94-.6,4.57l-.76.75c-1.94.7-3.36.33-3.42,2.88-.58.72-1.07.41-.69-.42l-.2-.58c.88-3.12,1.32-6.24,1.33-9.38.27-.21.79-1.19,1.22-1.05.99,1.13,2.2,2.04,3.12,3.24Z"/><path class="cls-1" d="M27.82,176.17c1.07,2.07.93,4.86.03,7,1.1,2.26.68,4.27-.01,6.51-.08.06-.12.28-.21.34-.34,0-.67-.03-.68-.35.33-2.11.05-4.08-.85-5.91.09-1.54.05-1.71-.11-.51.87,2.37.71,4.31-.03,6.65l-.62.38c-.26-2.07.73-3.93-.08-5.96-.12-.29-.56-.49-.62-.63-1.39-.73-.75-2.07.27-2.87-.4-.81-.61-1.59-.64-2.33.98-.82,2.09-2.26,3.55-2.32Z"/><path class="cls-17" d="M66.84,58.71c-.78.94-4.25,5.68-5.52,5.14.63-2.26.75-3.94-.29-6.1.06-.21.16-.5.34-.52.32-.04,4.69.7,5.16.85l.31.63Z"/><path class="cls-20" d="M58.47,56.9l-.27.58c-3.57.31-7.16.94-10.56,2.02-.34-.12-.91.08-.96-.35l9.04-4.54c1.15.3,2.05,1.33,2.75,2.29Z"/><path class="cls-12" d="M66.84,58.71l-5.81-.95c-.16-.34-.21-.6-.46-.97-.19-.27-2.44-2.29-1.32-2.12,2.59,1.02,5.81,1.33,8.19,2.87.71.46-.33.85-.6,1.18Z"/><path class="cls-6" d="M96.52,183.45l.36.16c-.16,2.5-.72,4.98-1.34,7.39-.17,1.34-.36,3.05,1.52,2.34l.48.44c-.08,2.26-2.76-.03-3.88-.24-.22-.56-.22-1.05-.17-1.64.13-1.3.53-3.64.78-4.97.17-.88.75-1.61.71-2.52.48-.28,1.07-.64,1.53-.96Z"/><path class="cls-10" d="M25.33,190.28c.04-.92.79-2.95.75-3.92-.06-1.91-2.03-4.4.98-4.72.24.7-.53,1-.47,1.74.07.89.87,1.85,1.03,2.97s-.46,2.48-.01,3.67c-.65.46-1.25.99-2.09,1.09-.03-.26-.21-.6-.2-.83Z"/><path class="cls-23" d="M97.29,182.97c.18.07.33.15.35.25.47,2.5-.43,5.57-1.17,7.94l.18,1.36c.21.21.37.39.69.42,0,.25.21.59.2.83-1.68.6-2.53.33-2.7-1.53l1.69-8.8c.26-.18.57-.34.77-.48Z"/><path class="cls-8" d="M58.47,56.9c.23.32.29.38.48.77.33,1.03-.17.34-.58.36-2,.1-3.11.82-4.75,1.11-1.55.28-3.64-.45-5.35.51-.14-.05-.39-.06-.62-.14,1.94-1.42,4.39-1.56,6.67-2.19l4.16-.42Z"/><path class="cls-18" d="M30.92,178.07c.34,3.33-.37,6.57-.57,9.83-.5.11-.67.31-1.04.54l-.41-.11c.41-2.1.3-3.86-.13-5.98.68-1.37.8-3,.69-4.5l.43-.41c.43.22.75.49,1.03.63Z"/><path class="cls-22" d="M24.26,178.49c.6.58,1.21,1.6,1.18,2.45-.02.47-1.63.89-.81,2.75-.51-.34-1.37-.3-1.82-.53-.26-.13-.35-.53-.53-.67-.65-.45-.72-1.12-.19-2.01.7-.94,1.34-1.3,2.17-1.99Z"/><path class="cls-8" d="M29.88,177.44c.49,1.53-.48,3.52-.54,4.76-.05.9.29,2.17.27,3.24s-.53,1.97-.31,3.01c-.23.14-.64.57-.98.82-.24-.05-.28-.15-.25-.34.48-2.57.65-3.65-.25-6.2.83-1.59.99-3.4.48-5.42l.54-.51c.4.21.76.5,1.03.63Z"/><path class="cls-16" d="M28.85,176.8c.09,1.62.41,3.24-.06,4.83-.11.36-.63.55-.64.83-.03.82.65,2.16.71,3.22.05.99-.54,2.5-.54,3.58-.15.11-.3.27-.49.41-.21-1.25.6-2.7.48-3.87-.1-1-.82-1.68-.87-2.64-.04-.74.58-1.04.69-1.72.24-1.54-.71-3.64-.31-5.28.49-.02.75.48,1.03.63Z"/><path class="cls-3" d="M102.12,184.75c2.43,3.15,2.31,4-1.36,5.32.25-1.01.45-2.05.57-3.08.1-.86-.58-2.22.79-2.24Z"/><path class="cls-7" d="M97.78,182.56c1.1,3.28-.44,6.76-1.13,9.96-1.37-1.4-.3-1.74-.03-3.21.38-2.01.92-4.32.67-6.34.13-.09.32-.28.49-.41Z"/><path class="cls-9" d="M110.98,132.39c-1.54-1.65-2.51-4.15-3.54-6.2.74-.28.83-.11,1.29.4,1.49,1.66,1.78,3.83,2.25,5.79Z"/><path class="cls-19" d="M22.29,182.49c-.24-.19-1-.17-1.04-.74.12-.54.54-.86.85-1.27l.19,2.01Z"/><path class="cls-14" d="M76.72,39.05c4.58-2.02,4.85,8.1.84,8.56-3.49.4-3.35-7.45-.84-8.56Z"/><path class="cls-14" d="M41.25,49.19c-2.33,3.32-4.77-.93-5.06-3.45-.31-2.67.76-5.27,3.72-5.5,3.74-.29,2.79,6.88,1.33,8.96Z"/></g></svg>