<?xml version="1.0" encoding="UTF-8"?><svg id="Layer_2" xmlns="http://www.w3.org/2000/svg" viewBox="0 0 126.46 175.44"><defs><style>.cls-1{fill:#eeebeb;}.cls-2{fill:#f7f5f5;}.cls-3{fill:#e3e1e1;}.cls-4{fill:#d5d3d3;}.cls-5{fill:#fff;}.cls-6{fill:#f1ebec;}.cls-7{fill:#d5d2d3;}.cls-8{fill:#e2dfdf;}.cls-9{fill:#eceaea;}.cls-10{fill:#dddbdb;}.cls-11{fill:#eae7e7;}.cls-12{fill:#c0bfbf;}.cls-13{fill:#edebeb;}.cls-14{fill:#f1eeee;}.cls-15{fill:#070707;}.cls-16{fill:#efedec;}.cls-17{fill:#e7e5e5;}.cls-18{fill:#eae7e8;}.cls-19{fill:#f3eff0;}</style></defs><g id="Layer_1-2"><path class="cls-15" d="M17.35,51.58C13.23,46.03.75,34.1.06,27.9c-.38-3.36,1.13-5.7,3.2-8.12C10.75,11.04,24.85,1.01,36.61.14c29.24-2.16,49.04,20.48,60.14,44.8,1.23,2.69.43,2.29,2.67,4.56,14.22,14.42,22.85,27.23,26.41,47.78,1.16,6.69,1.81,20.92-8.08,20.49-18.65-.82-29.16-21.49-37.12-35.77l-2.79-7.15c-.02,12.22,4.23,23.91,9.68,34.64,1.69,3.32,3.53,6.37,5.82,9.3.15.42.42.77.78,1.03.42.54.47.72,1.03,1.29l1.03,1.29c.09.08.17.18.26.26l.78,1.03c1.54,1.69,3.53,3.54,4.9,5.31.57.73,1.83,3.15,2.15,3.41.55.45,3.93,1.16,4.98,1.62,6.13,2.68,8.58,9.36,5.6,15.44-2.15,4.39-7.04,5.72-11.59,6.01-.68.04-1.3-.42-1.9-.13-.36.18-.57.89-.89,1.19-7.05,6.34-14.45,10.3-23.66,12.78-5.08,1.37-8.83.62-13.96.65l-1.29.26c-1.98.04-3.97-.02-5.94,0l-1.81.26c-9.7.11-17.59,3.97-27.4,4.39l-4.91.55c-.65,0-1.27-.19-1.81-.55-5.27-.32-3.64-5.17-1.85-8.45,1.94-3.56,4.13-4.89,6.76-7.58.67-.48.93-.74.78-.78-.4-.72-1.27-1.48-1.76-2.25-3.92-6.11-4.79-17.17-3.89-24.21.48-3.73,1.89-6.95,2.8-10.51-3.42,2.94-7.48,7.05-10.56,1.13-3.33-6.39-1.46-17.73-.21-24.71,1.71-9.58,4.97-18.67,7.08-28.07.9-3.99,1.96-8.15,1.37-12.2-.57-.82-1.03-1.76-1.37-2.8-.75-.88-1.24-1.84-1.48-2.89Z"/><path class="cls-2" d="M45.26,50.03l.4-.64c3.75-1.7,7.03-2.43,11.07-2.28,3.48-2.91,8.94-5.4,13.56-5.39,1.87,0,2.68.1,2.73,2.12,1.22.67,5.43,2.32,4.28-.47.36-.92,4.78-1.53,5.76-1.31,1.15.57,2.34.98,3.57,1.24,9.33,5.18,15.87,12.96,21.77,21.79,6.69,10,15.87,30.38,14.09,42.38-.15,1.01-.85,4.67-1.87,4.85-2.06.38-9.02-1.42-11.16-2.28-10.64-4.3-20.17-16.97-25.72-26.76-3.48-6.13-5.07-12.83-7.43-19.41l-.8-.15c.15,3.06,1.28,5.47,1.03,8.66-.85,10.92.03,17.61,4.35,27.71,3.71,8.67,8.51,18.68,14.05,26.27,1.78,2.44,3.92,4.57,5.61,7.07-.78.99-2.01,1.58-2.95,2.67-3.14,3.65-4.69,12.55-1.17,16.17,1.96,2.01,3.83,1.28.92,4-4.22,3.95-18.26,9.11-24.03,9.57-9.02.71-18.01-.22-27.07,1.88-2.81.65-5.45,1.86-8.22,2.64-5.53,1.56-12.22,2.33-17.96,2.72-.82.06-.19-1.66-.05-2.13,1.38-4.72,4.44-7.78,7.42-11.32l.57-.06c1.68,2.45,3.53,2.92,3.25-.72-.79-2.34-1.54-4.97-.93-7.43l.9.1c3.16,4.52,1.9-.57-.08-1.87-2.15-3.31-2.9-15.8-2.32-19.88.18-1.27.64-3.72,1.72-4.25,1.16-2.42,2.41-4.81,3.67-7.19,2.35-2.83,2.3,2.85,2.27,4.34.28.92,1.93,3.26,3.06,2.79,3.68-1.54,3.06-12.17,2.24-15.35.16-1.8,1.33-7.14,3.49-3.99,1.02-1.59,2.97-4.48,5.01-4.63.5-.04.89.14,1.3.4.39-.91,4.79-3.4,5.43-3.18.65.44,1,1.23,1.04,2.36l2.26-4.95c1.32-2.32,2.9-4,5.14-5.41.84-5.21,2.84-9.7,5.1-14.51.84-2.32,1.76-5.27-.94-6.44-.8-2.41-1.04-5-.71-7.77l-.4-3.24c.18-1.64.13-6.55-2.31-4.31.37.24.28.41-.26.52-.62.75-.97,1.33-1.08,2.62-.97,10.32-3,19.46-8.45,28.58-1.34,2.25-9.5,13.88-11.31,13.91-2.95.05-3.98-9.96-4.12-11.77-.94-11.39.52-22.33,3.05-33.38.11-1.81.52-3.43,1.23-4.87Z"/><path class="cls-2" d="M85.58,31.42l-.36.45c-2.06-.32-4.09-.51-6.15-.2-2.03-.42-4.08-.69-6.14-.79l-.53-.49c-2.16.54-4.38.93-6.66,1.18-6.1-4.18-14-3.7-20.94-2.22l-2.54.27c-2.7-.2-5.38-.35-8.04-.44-.6-2.99-3.5-6.47-6.8-6.14-1.02.13-1.53-.09-1.54-.65l-.47-.47c.82-4.27-2-7.05-6.1-4.81s-3.48,5.88-1.71,9.42l-.25.51c0,.84-1.58,2.07-2.33,2.59-2.05,5.39,4.74,6.35,8.41,5.63l.88.86c1.02-.26,1.64.17,1.09,1.16l-2.81,3.62c-.17,3.01.53,5.89,3.19,7.75l.52,1.3c2.85.49,5.68,1.12,8.48,1.88l7.99-1.46.67.46c.17.41.23.83.19,1.26-3.65,14.23-6.77,29.41-3.37,43.99l-.18,1.28c-.08.64-.75,1.11-2.01,1.41-1.09,1.58-2.85,2.72-2.13-.12-.03-.92.24-2.31-.53-2.96-.71-.61-2.32-.58-2.95.13-.41.46-2.01,6.72-2.53,8.07-.76,2.01-1.83,4.2-2.78,6.14-1.51,1.49-2.33,3.49-3.1,5.43-1.35,1.93-3.08,4.05-4.91,5.56-2,1.65-3.58,2.83-5.14-.03-2.64-4.84-2.24-8.61-1.54-13.89,1.93-14.72,7.08-27.5,9.97-41.73,1.54-7.61,2.56-9.78-2.52-16.2-4.89-6.18-11.61-11.63-15.71-18.67-1.34-2.29-2.37-4.1-.68-6.53,2.44-3.49,10.11-9.81,13.73-12.38C37.34-2.71,59.81,1.5,75.89,19.27l9.69,12.15Z"/><path class="cls-19" d="M25.88,22.37c.87.61,1.72-.13,2.65.04.32.06,2.75,1.17,3.03,1.39.16.12,2.44,2.94,2.54,3.14.3.55.32,1.28.31,1.9,2.1-.55,4.08.13,6.08.25,4.64.28,9.54-1.83,14.49-1.31,4.08.43,7.46.72,10.86,3.3,2.19-.38,4.37-.55,6.57-.7.77.42.13.93-.55,1.13-2.15.24-4.27.74-6.36,1.52l-.84-.32c.1.75-2.38,1.3-2.99,1.22l-2.07-.94c-1.51.21-2.7-.15-3.56-1.08-.82,1.37-1.85,1.35-3.04.42-3.03.47-6.11,1.03-9.22,1.67-1.46-.56-1.89.07-1.86,1.5-.57.53-1.44.76-2.59.69-.25,1-1.18,1.42-2.79,1.28-2.74,1.21-5.53,2.06-8.38,2.57-1.12.09-2.82,3.07-2.92,3.98-.08.72,2.93,4.06,4.01,3.53,1.37.49,2.78.94,4.2,1.18,2.05-.61,4.15-1.13,6.3-1.54.2-1.03.94-1.31,2.23-.85,2.43-.7,2.95-1.02,1.56-.96-.64-.78-.1-1.08.88-1.62l1.93-1.58c-2.7-2.68,2.49-4.31,4.68-3.72.59,1.81,2.39.92,3.29-.26.82.27,1.42.04,1.81-.69.81-.14,1.25-.61,1.34-1.42,1.81-4.18,4.24-1.21,1.28,1.59-.12.67-.39,1.08-.81,1.24-.97,1.69-1.36,2.98,1.2,2.4.66.58,1.41.5,2.26-.22,1.24.82,1.53.88,2.78-.04,1.58-.45,11.15-2.07,12.03-1.49.33.21.5.47.49.85-.45.98.36,1.2,2.41.65.93-.31,1.8-.42,2.61-.34,1.62.89,3.29,1.69,4.91,2.59-1.15.59-2.56-.6-3.77-.75-.63-.08-4.8.51-5.01.76-.37.43,1.45,2.3-1.94,2.06-.75-.05-2.69-.7-3.23-1.16-.77-.66.62-1.8-1.43-1.95-4.11-.31-9,1.74-12.61,3.93-.6.37-1.05,1.19-1.71,1.39-1.16.36-2.99.01-4.27.12-2.66.23-4.81,1.7-7.37,2.32l-.34-.08c-.08-2.63-.38-2.4-.9.7l-.57.16c-1.94.11-3.94.77-5.84,1.01-1.32.17-.78,0-2.16.43-1.26.4-4.83-1.05-6.14-1.39-.8-.2-2.74-.11-3.32-.55-.41-.32-.37-1.04-.61-1.39-.28-.41-1.28-.87-1.78-1.65-.21-.33-1.56-3.37-1.56-3.56-.01-.33.26-.72.24-1.06-.03-.72-.35-1.16-.16-1.93.23-.89,3.48-3.77,2.99-4.4-1.23,1.07-1.76-1-2.46-.99-.2,0-.47.61-.81.68s-1.17-.47-1.78-.48c-.55-.01-1.07.31-1.53.27-.23-.02-2.87-1.34-3.12-1.54-1.23-1.03-2.11-3.78-.38-4.66l.51.28c-.86,7.09,11.75,4.62,15.04,2.55,1.6-1.01,2.68-2.23.78-3.43-.08-3.29-2.15-5.08-5.41-5.12l-.33-.48c-.73-.15-.45-1.11.26-1.03Z"/><path class="cls-14" d="M66.2,54.43c.98-2.64,1.33-.59,2.78.42,0,.73-.09,1.6-.06,2.31.05,1.5.3,3.14.35,4.68.07,2.02-.55,6.24.96,7.83.36.38.95.27,1.27.8.21.35.42,1.49.42,1.93,0,3.81-3.45,8.96-4.66,12.68-.45,1.38-.83,4.95-1.35,5.89-.42.76-1.82,1.19-2.41,1.72-.42.38-2.22,2.82-2.56,3.38-.54.89-2.14,5.17-2.5,5.38-1.59.92-.61-2.41-1.6-2.25-.33.05-3.29,1.63-3.77,1.93s-1.01,1.14-1.32,1.27-.77-.36-1.18-.39c-1.95-.14-4.46,3.58-5.29,5.16-.59-.27-.34-1.78-1.39-1.52-.79.2-1.65,3.95-1.59,4.76.27,3.32,1.08,5,.62,8.75-.24,1.95-1.57,7.59-4.44,6.9-.2-.05-2.41-2.73-2.49-3.26-.2-1.26.11-2.79-.29-4.11-.1-.32-.18-.77-.63-.66s-3.3,6.89-4.53,7.5l-.23-1.28c.96-6.18,2.71-11.98,4.91-17.69,1.06-2.25,1.14-4.37.24-6.36.05-.47.2-1.18.52-1.55,0,.3-.22,1.55.38,1.29.34-.14.81-1.11,1.33-1.51.83-.63,1.64-.51,2.42-1.07l.6.18c.95,3.18,3.75,6.89,6.99,3.65l.69.04c.82-.67,1.81-1.01,2.97-1.01.28-1.22.6-2.35,1.97-1.81l1.95-1.58c.94-.02,1.81-.2,2.61-.54,1.19-2.08,2.61-3.66,4.76-4.81,2.97-6.07,5.21-12.79,6.77-19.49-.6-.3-.98-.74-1.12-1.32-.25-4.56-.4-9.12-.44-13.68.13-1.72-.33-2.49-1.38-2.32l-.26-.24Z"/><path class="cls-5" d="M103.09,134.88c4.97-1.04,10.55,4.23,10.68,9.13.19,7.2-10.56,11.89-15.78,6.46-2.74-2.84-.88-10.83,1.81-13.46.55-.54,2.6-1.99,3.29-2.13Z"/><path class="cls-16" d="M85.58,31.42c.96.5,1.51,1.68,2.07,2.59l-.66.36c-.96-.76-9.11-1.36-9.33.02-.04.25,2.71,3.97,3.45,3.37,1.92-1.94,5.81-.35,6.41,2.13.16.65.13,1.47-.64,1.36-.85-.35-4.21-1.76-4.81-1.8-.7-.04-1.69.43-.98,1.04.08.07.43.13.61.23-.72.71-4.45,1.25-5.26,1.04-.58-.15-.2-1.44-.29-1.57-.4-.62-1.92-.03-2.57-.01-1.4.04-1.52-.18-3.14.27-1.32.37-2.23.24-3.8.6-.72.16-1.76.35-2.33.5-.44.11-.74.66-1.39.73-1.05.12-1.33-.74-1.52-.74-.17,0-.76.84-1.54.74-.39-.05-.64-.48-1.03-.5-.37-.02-.74.32-1.25.2-1.43-.34-1.15-2.8.33-3.07l.55.12c.78-1.57,3.2-2.52,2.19.34,2.44-.84,4.28-1.49,5.23-4.08,2.2-1.55,1.16-1.91-.75-1.01-1.01,0-1.49-1.15-.49-1.57,1.63-.38,3.42-1.03,5.11-1.48.72-.19,2.53.1,2.64-.85,3.29-.22,4.57.69,7.12.79.66.03,1.24-.29,1.77-.25s4.05.36,4.29.49Z"/><path class="cls-13" d="M30.53,125.52c-.32,1.32-1.09,2.95-1.2,4.3-.35,4,.09,16.6,2.32,19.66.16.22.62.28.92.75.17.27,1.33,3.16,1.32,3.33-.06.67-1.53.07-1.9-.17-.8-.51-.72-1.33-1.45-1.77.08,1.45.15,2.98.38,4.4.14.85.73,1.95.84,2.77.1.78-.37,1.76.06,2.63-2.38,1.33-3.05-.06-4.38-1.79.1-.11.42-.62.52-.78l.65-.13c.66,1.1,1.26.98.5-.18-.79-4.45-1.27-8.89-1.46-13.3l-.54-.7c-1.15-5.15-1.03-10.64-.62-15.94.37-4.71,1.36-8.37,4.04-12.33,1.87-5.12,3.51-10.31,4.92-15.58.02-.16-.02-.35,0-.52.5.21,1.02,1.11,1.15,1.57.61,2.14-2.84,10.02-3.61,12.64-1.05,3.62-1.55,7.44-2.45,11.12Z"/><path class="cls-3" d="M35.44,100.7c-.63,4.26-2.5,10.63-4,14.74-.72,1.96-2.22,3.83-2.98,5.8-1.79,4.67-1.41,7.94-1.56,12.66-.05,1.59-.1.76-.24,1.35-.22.89.53,7.5.78,8.74.11.57.62.72.7,1.07.07.28-.11,1.35-.03,1.94.53,3.7.82,7.5,1.49,11.42.08.49.75.61.18,1.36-.8,1.05-1.17-.57-1.83-.92,1.13-1.91-.02-2.43-1.03-4.14-.45-2.37-.68-4.85-.69-7.42l-1.82-11.91c-.96-6.01-.18-12.12,1.48-17.9,3.28-5.53,7.87-10.4,9.56-16.8Z"/><path class="cls-18" d="M87.65,34c.63,1.02,1.25,2.28,1.81,3.36l-.32.58c.08,1.08-.11,2.87-.97,3.82-.41-.18-.87-.34-1.29-.52.97-2.35-2.26-4.13-4.21-3.83-.77.12-1.2,1.21-2.25.88-.6-.19-3.32-3.35-3.28-3.91.08-1.08,3.32-1.42,4.18-1.43,1.99-.03,4.43.53,6.34,1.05Z"/><path class="cls-4" d="M26.91,154.73c-1.03-1.73-1.16-1.94-1.81-3.88-1.8-9.13-2.65-18.98-1.03-28.18.49-2.16.67-3.25,1.81-5.17-.07,2.94-.94,5.79-1.26,8.69-.92,8.26,2.37,17.22,2.41,25.65l-.11,2.88Z"/><path class="cls-12" d="M25.1,150.85c-2.68-7.99-2.89-19.98-1.03-28.18.16,1.61-.44,3.21-.53,4.77-.34,5.92.56,12.67,1.05,18.62.13,1.58.64,3.17.51,4.79Z"/><path class="cls-10" d="M89.46,37.36c.38.74,3.1,6.19,2.84,6.46-1.41-.59-2.73-1.46-4.13-2.07-.29-.83.48-2.18.51-2.72.05-1.01-.95-1.44.79-1.67Z"/><path class="cls-11" d="M27.17,110.01c-1.01,2.06-1.77,3.53-3.1,5.43.2-1.95,1.17-4.63,3.1-5.43Z"/><path class="cls-15" d="M43.45,50.81c.13-.47.68-2.97.8-3.07,1.22-1,1.08,1.49,1.01,2.3-.45,4.99-2.05,10.59-2.8,15.68-1.4,9.45-2.02,18.07-.23,27.54.41,2.17.78,4.98,2.63,6.35.43.03,1.59-1.25,1.93-1.62,7.79-8.52,13.6-17.9,15.95-29.28.84-4.06.96-9.04,1.95-12.78.23-.88.44-.88,1.23-.97.24-.34.41-.42.52,0,.93.73,1.06,3.43.26,4.14l-.26,1.55c.49.15.49.37,0,.52l-.62,5.67c-.81,6.98-2.51,14-6.87,19.67-2.07,3.65-4.48,7.09-7.24,10.34l.13.65c-.75,1.31-2.13,3.12-3.49,3.74-3.89,4.13-7.1.12-8.27-3.88-4.11-14.06-.4-32.72,3.36-46.53Z"/><path class="cls-1" d="M66.2,54.43c2.67-1.56,1.71,3.66,1.79,5.03.04.75.47,1.43.54,2.32.24,2.81-.41,4.02.24,7.26.11.55-.11,1.2.06,1.75.2.68,1.35.51,1.01,1.59-1.03,4.78-2.69,9.61-4.48,14.16-.36.92-2.03,5.19-2.53,5.48-1.04.59-1.94,1.09-2.84,2.07-.64.7-1.43,2.27-1.81,2.59-.8.66-2.26.41-3.16.72-.54.19-1.2,1.01-1.74,1.32-.18.1-.56-.1-.77.03-.51.32-.63,1.79-.82,1.91-.23.14-2.75.27-3.32.55.97-1.03,2.25-3.08,3.36-4.39l1.94-2.39.38.06q.52.11,0,0c-.06-.23-.08-.43,0-.56,2.79-4.24,5.76-8.6,9.42-11.99,2.04-2.3,2.9-5.46,3.52-8.4-.75-.45-.64-1.14-.33-1.87l-.59-.39c.75-5.2,1.07-10.37.96-15.52l-.59-.82c-.13-.03-.37-.02-.52,0-.01-.22.21-.38.26-.52Z"/><path class="cls-15" d="M25.88,22.37c-.01.1-.2.77-.26,1.03.79.2.25,1.74-.52,1.55.69,1.32-1.55,3.32-2.81,3.79s-3.97.36-4.17-1.21c-.61.46-1.02.22-.78-.52-1.07-1.2-1.74-4.72-1.53-6.31.29-2.18,2.95-4.43,5.08-4.74,4.63-.67,5.43,2.45,4.97,6.4Z"/><path class="cls-9" d="M25.62,23.41c1.92-.34,5.04,1.07,5.74,2.92.3.8.18,1.92.52,2.59.26.52,1.34.82,1.19,1.57-.03.14-1.69,2.03-1.93,2.2-2.41,1.69-9.01,2.74-11.79,2.3-.62-.1-2.53-.69-2.95-1.05-.38-.33-.39-1.14-1.05-1.26.2-1.08-.41-1.93-.33-3.05.07-.98,1.51-2.04,2.33-2.59.03.03.61.4.78.52l.15.55c-5.18,5.73,2.04,5.1,5.84,4.25,4.33-.97,5.8-2.92.17-3.11-1.91-.98.47-2.05,1.61-2.33l-.79-1.94c.14-.33.44-1.22.52-1.55Z"/><path class="cls-6" d="M57.93,38.92c-.2-1.66,1.81-2.93,1.82-3.75,0-.42-.53-.84-.78-.64-.1.07-1.06,1.81-1.18,2.07-.13.3-.05.9-.15,1-.09.09-.79-.03-1.29.39s-.44,1.15-.49,1.19c-.27.25-.85-.68-1.39-.51-.31.1-.39.72-.86.97-.43.23-2.04.48-2.42.2-.27-.2-.11-.85-.4-.94-1.47-.42-6.17.98-4.37,2.61.58.53,1.74-.03,1.42,1.55-.5.15-.73-.57-1.13-.5-.26.05-2.56,2.47-3.52,2.31h1.81c.08.56-.09.83-.52,1.15-.2.15-2.24.81-2.48.83-.45.04-1.01-.29-1.5-.2-.29.05,0,.78-.58,1.01-1.37.55-3.84.84-5.36,1.1-.39.07-.71.45-1.07.49-.73.08-3.59-.95-4.46-1.21-.27-.08-.61.13-.84.04-.34-.13-2.38-2.04-2.69-2.45-.18-.24-.9-1.44-.87-1.61.03-.19.34-.4.4-.64.41-1.75.23-.87.96-1.89.32-.45.46-1.06.9-1.42.93-.77,2.61-.61,3.7-.95,1.82-.58,4.09-1.71,6.07-2.2.57-.14,1.27.06,1.72-.09.5-.17.22-.86.73-1.09.61-.28,2.19-.09,2.27-.17.11-.11-.29-2.01,1.22-2.27.5-.09.97.26,1.48.21,1.94-.2,4-1.08,5.77-1.23,1.26-.11.63.17,1.81-.3,1.87-.75,1.88.7,3.02.51.74-.12.63-1.03,1.28-1.05.9-.03,1.16,1.03,1.35,1.05.71.1,1.41-.29,2.68.1.61.19,1.35.81,1.71.85.3.03,2.4-.59,2.94-.72-.27,2.11,1.11.48,1.91.51.55.02,1.09.52,1.44.91-.35.58-1.17.84-1.55,1.29-.55.63-1.05,2.02-1.56,2.57-.35.37-4.13,2.05-4.47,1.97-.78-.17.24-1.69.1-1.82-.74-.71-1.56,1.52-1.68,1.55-.57.18-.85-.29-.91-.78Z"/><path class="cls-8" d="M66.46,54.94c.79.15.94.36,1.05,1.15.3,2.27-.11,6.61-.27,9.06-.13,1.97-.48,3.99-.78,5.94,1.51.12.35.85.51,1.77.04.2.54.07.56.55.03.88-1.02,4.11-1.41,5.09-1.77,4.44-3.24,4.18-5.85,7.33-2.15,2.59-4.06,6-6.21,8.65-.69.85-1.71,1.6-2.33,2.33,2.21-3.53,4.71-7.01,7.24-10.34,2.11-2.99,3.91-6.15,5.38-9.47.82-5.25,1.53-10.54,2.11-15.86,0-.17,0-.34,0-.52l.26-1.55c.02-1.34.18-2.9-.26-4.14Z"/><path class="cls-7" d="M58.96,86.48c3.47-5.61,5.21-11.84,6.39-18.3.43-2.34.58-4.72,1.11-7.03-.03,4.95-.99,9.94-1.38,14.83-.25,3.17-4.21,8-6.11,10.51Z"/><path class="cls-7" d="M66.46,60.63c0-.49-.18-1.27.26-1.55,0,.49.18,1.27-.26,1.55Z"/><path class="cls-14" d="M54.05,94.5c.09-.16,2.22-2.01,2.59-2.45.35-.42.33-1.24,1.03-1.43.04,1.48-.82,3.25-1.59,4.48-.21.35-2.61,3.54-3.06,3.01-.17-1.07.52-1.9.96-2.8.13-.28.03-.74.08-.82Z"/><path class="cls-17" d="M25.1,24.96c1.03.31,1.39,1.11,1.31,2.16-.22.49-2.56.81-2.34,1.33.28.65,1.05.07,1.6.18.24.05.54.37.86.45.94.26,1.89,0,1.92,1.2.05,2.01-4.86,2.73-6.36,2.91-.84.11-3.79.32-4.42.09-3.11-1.13-1.39-4.25.44-5.75,3.06,2.1,5.65.53,6.98-2.59Z"/><path class="cls-16" d="M61.8,36.85h-.38c-1.42-1.03.53-1.64.38,0Z"/></g></svg>