<?xml version="1.0" encoding="UTF-8"?><svg id="Layer_2" xmlns="http://www.w3.org/2000/svg" viewBox="0 0 224.3 167.58"><defs><style>.cls-1{fill:#acbdc7;}.cls-2{fill:#b2c3cc;}.cls-3{fill:#fafafa;}.cls-4{fill:#f3f5f5;}.cls-5{fill:#9eb1be;}.cls-6{fill:#dfe5e6;}.cls-7{fill:#dbe2e3;}.cls-8{fill:#9bafbc;}.cls-9{fill:#d8e0e2;}.cls-10{fill:#b3c3cc;}.cls-11{fill:#f5f6f6;}.cls-12{fill:#fdfcfc;}.cls-13{fill:#c7d3d8;}.cls-14{fill:#b7c6cf;}.cls-15{fill:#e3e6e7;}.cls-16{fill:#beccd2;}.cls-17{fill:#fff;}.cls-18{fill:#a3b5c2;}.cls-19{fill:#cfd6db;}.cls-20{fill:#d8dfe1;}.cls-21{fill:#d7dee1;}.cls-22{fill:#d5dee0;}.cls-23{fill:#eeeff1;}.cls-24{fill:#a8bac6;}.cls-25{fill:#e1e6e7;}.cls-26{fill:#bccad1;}.cls-27{fill:#a5b7c3;}.cls-28{fill:#b3c2cb;}.cls-29{fill:#b2c2cb;}.cls-30{fill:#f9f9f8;}.cls-31{fill:#9bafbd;}.cls-32{fill:#f6f8f7;}.cls-33{fill:#d2dbde;}.cls-34{fill:#d6dee0;}.cls-35{fill:#fefdfd;}.cls-36{fill:#a8bac5;}.cls-37{fill:#bcc7cf;}.cls-38{fill:#afc0ca;}.cls-39{fill:#c2ced4;}.cls-40{fill:#e7e5e9;}.cls-41{fill:#dde3e5;}.cls-42{fill:#afbec8;}.cls-43{fill:#e9eced;}.cls-44{fill:#b0c1ca;}.cls-45{fill:#a7bac5;}.cls-46{fill:#d9dde1;}.cls-47{fill:#c4d1d6;}.cls-48{fill:#070707;}.cls-49{fill:#f8faf9;}.cls-50{fill:#c2cfd4;}.cls-51{fill:#d3dcde;}.cls-52{fill:#e6dfe5;}.cls-53{fill:#becbd2;}.cls-54{fill:#f4f5f6;}.cls-55{fill:#e6e0e6;}.cls-56{fill:#c5d1d6;}.cls-57{fill:#c7d3d7;}.cls-58{fill:#cfd8dc;}.cls-59{fill:#eff0f1;}.cls-60{fill:#eff1f2;}.cls-61{fill:#fafcfc;}</style></defs><g id="Layer_1-2"><path class="cls-48" d="M220.22,138.28c-.31.57-.71.98-1.21,1.21-1.55,1.53-3.19,2.68-5.03,3.82-.7.4-1.44.75-2.21,1.01-2.71.8-4.58,1.17-7.44.8-.31-.14-.65-.21-1.01-.2-1.28-.25-2.43-.71-3.62-1.21-.21.18-.14.52.2,1.01,2.85,4,6.36,13.69.87,16.86-3.51,2.03-10.46,3.14-14.55,4.06-.78.58-1.66.79-2.62.6l-.4.51c-2.8.73-5.58,1.15-8.45.5l-.33.25c-1.33-.02-2.67-.32-3.89-.86-8.27-1.89-13.72-3.82-14.28-13.38-.29-4.94,2.22-9.93,2.79-14.91.95-8.34-3.61-14.58-12.15-15.17-14.73-1.01-30.8,3.33-45.57,4.63-.82.63-1.88.51-2.82.2-.73.03-1.53.1-2.21-.2.52,6.19-.07,17.34-4.62,22.04-1.99,2.05-8.32,4.12-11.16,4.33-2.27.17-4.5-.19-6.75-.41-1.02-.02-1.96-.22-2.82-.6-3.19-.65-9.22-2.44-9.66-6.34-.75-6.65,4.15-12.42,7.45-17.61-2.57.29-5.15.9-7.74,1.01-2.17.09-5.27-.04-7.46-.2-3.13-.24-6.43-1.52-9.55-2.02-3.71,8.94-12.47,15.13-20.99,19.15-4.16,1.96-7.01,2.73-11.71,2.39-12.72-.91-15.01-14.3-5.07-21.18,6.86-4.75,14.76-3.37,19.66-11.42-.07-.7.47-1.21,1.01-1.61-1.59-3.33-3.38-6.7-3.99-10.4-1.24-7.48,1.22-13.2,2.35-20.32,1.36-8.54,1.71-15.31-.07-23.82-1.79-8.6-3.84-15.83-3.53-24.86.49-14.46,4.24-25.5,18.18-31.52,14.18-6.12,27.68-6.75,40.07,3.66,9.18,7.72,9.46,24.1,12.19,34.89.89,3.51,3.28,4.65,6.58,5.49,4.82,1.23,10.24,1.44,15.17,2.33,12.47,2.26,23.93,9.67,34.23,16.68,8.96,6.09,18.14,12.59,26.88,19,5.57,4.08,11.1,8.3,15.81,13.36,1.46,1.57.61,1.42,2.82,2.21,7.81,2.8,14.78,6,21.57,10.83,6.59,4.68,10.75,10.15,8.61,18.76-.8,3.23-2.13,4.13-3.52,6.64Z"/><path class="cls-43" d="M64.48,2.65c8.88,1.92,17.87,10.16,19.92,19.12.38,2.09.98,4.04,1.81,5.84,1.37,5.3,2.46,11.36,4.02,16.5-.19.43-.56.5-1.11.23-2.09-1.68-3.56.07-2.77,2.16.55,1.43,5.72,5,7.04,5.87,9.54,6.26,20.11,12.9,31.82,12.25,6.42.64,12.39,4.31,17.86,7.72,15.4,11.35,31.87,21.72,48.75,30.72,1.1.84,2.28,1.45,3.52,1.83.39-.17.77-.3,1.12-.4,7.21,3.1,22.02,10.24,24.9,17.86,1.41,3.74,1.38,8.29-.35,11.93-.26.2-.63.32-1.12.34-2.58,2.25-6.85,2.65-10.2,2.73-2.03.04-4.63-.2-6.39-1.06l-1.01-.2c-.05.18-.12.17-.2,0-2.56-.64-5.27-2.15-6.61-4.44-3.78-3.69-7.46-7.41-11.04-11.16-.81-.34-1.43-.84-1.87-1.51-.94-.89-1.48-2.07-2.72-2.61-.15-.03-.13.19-.1.3.32,1,2.3,3.58,3.02,4.73,1.2,3,2.93,5.77,4.63,8.45,3.22,4.83,5.04,7.64,9.15,11.88.7.73.61.81,1.17,1.65,1.28,1.91,2.19,3.27,2.96,5.48,1.25,3.59,2.88,9.35-1.34,11.55s-10.82,3.24-15.37,4.25c-1.09-.54-2.22-1.08-3.39-1.6-4.37-.96-8.54-1.94-11.9-5.04-.55.32-1.02-.01-.8-.6-1.98-1.77-3.26-3.93-2.93-6.72-.32-2.84-.8-5.65-1.45-8.44l-.33-6.7c-.3-3.22-1.89-7.42-4.55-9.33-7.35-9.78-26.85-4.82-37.42-3.62-4.14.82-8.3,1.56-12.47,2.21-2.24.46-4.73.91-7.04,1.21l-.32-.53c1.24-3.26,2.25-6.58,3.02-9.95.36-3-1.51-3.07-3.7-1.99.35.21.21.48-.4.8-2.04.76-4.31,3.13-5.34,5.03-2.6,4.81-1.22,9.52-1.5,14.6-.16,2.93-1.3,10.01-3.23,12.17-.69,1.14-1.75,2.04-2.82,2.82-1,.59-1.69.96-2.82,1.41-.45.08-1.59-1.19-1.81-1.59-.61-1.17-.76-2.47-.82-3.77-.13,0-.33-.03-.6-.07-.06.04-.41-.03-.59.11-1.72,1.39-2.76,4.83-1.42,6.73-2.12.15-4.15-.15-6.24-.4-.36-.16-.62-.46-.8-.88-1.9-1.41-2.57-3.71-1.22-5.77-.37-.21-.39-.25-.4-.6-.33-.24-.13-.6-.87-.17-1.42.82-2.72,4.59-2.35,6.21-1.52-.45-4.42-1.77-4.63-3.52-.43-3.65,1.68-8.29,3.54-11.36,1.29-2.13,3.46-4.44,3.86-7.01.18-1.18-.16-8.9-.76-9.51-.13-.13-.44-.11-.39.28.33,2.62.51,5.11.39,7.77-4.43.13-8.92.37-13.38.2-14.84-.57-27.97-5.68-30.69-21.93l.18-.78c2.13-2.88,2.94-6.59,3.63-10.08,1.4-7.09,2.77-14.29,3.67-21.34.32-2.53.65-5.33.12-7.81-1.65-1.52-2.27-2.82-2.61-5.03-2.61-5.97-3.1-13.42-3.38-20.03-.19-4.6-.27-12.54,1.38-16.79,1.76-4.53,9.56-10.79,13.65-13.49,5.7-3.77,11.26-5.03,18.01-5.98,1.55-.27,3-.64,4.37-1.1Z"/><path class="cls-43" d="M39.33,128.82c-3.93,6.43-15.13,14.97-22.33,17.11-.3-.19-.49-.56-.58-1.11-1.61,1.08-3.36,1.65-5.25,1.71-.53-.04-1.45-.28-2.01-.4-.21-1.51-.31-3.06-.32-4.63.54-1.25,1.19-2.46,1.93-3.62.04-.23.38-.6.2-1.01-2.64-.45-5.21,3.89-5.25,6.14-.01.65.28,1.25.22,1.91-4.93-3.2-4.37-7.89-1-12.07,1.26-1.06,2.47-2.13,3.62-3.22,4.6-2.97,11.94-4.45,15.49-8.56,1.23-1.42,2.02-3.16,3.02-4.72l.39.31c.11,1.73,1.54,3.51,2.8,4.65,2.88,2.62,5.74,4.8,8.89,7.05l.19.46Z"/><path class="cls-23" d="M90.24,44.1c.18.6.31,1.03.6,1.61l-.16.47c-1.92.22-.5,2.56.76,2.72l6.59,4.56c3.91,2.58,8.21,4.81,12.9,5.43,14.67.34,27.18,8.99,38.86,17.21.21.01.41.04.56.15,2.01,1.38,4.26,2.96,5.87,4.68l3.71,2.59c8.24,5.12,16.6,10.23,25.06,15.32.24-.16.41-.1.61.03,2.3,1.43,4.61,2.79,7.03,3.99,1.64.37,2.33.97,3.82,1.61-.43.74-.77.93-1.61.71-1.28-.34-4.29-2.59-5.7-3.36-9.47-5.19-18.99-10.55-28.09-16.38-10.08-6.46-19.67-15.42-31.1-19.41-4.28-1.49-6.04-.91-10.26-1.21-8.64-.6-22.75-9.12-29.67-14.4-.7-.53-3.14-2.39-3.54-2.9-.8-1.01-.89-2.07-.44-3.27.87-2.33,2.53-.01,4.17-.15Z"/><path class="cls-59" d="M64.48,2.65c-.28,1.17-1.92.87-2.7,1.02-3.97.79-8.77,1.47-12.55,2.75-6.17,2.09-15.14,9.51-19.16,14.65-2.57,3.29-2.54,9.66-2.61,13.69-.15,7.88.33,14.26,2.15,21.98.41,1.73.47,1.47,1.1,2.92.51,1.17.38,2.54,1.19,3.64.47.64,1.12.7,1.48,1.54.87,2.06-.17,9.02-.53,11.55-.88,6.15-2.15,13.18-3.49,19.24-.7,3.14-1.64,7.15-3.93,9.46-.17-1.04-.14-2.18-.2-3.22,2.73-9.8,4.58-20.42,5.63-30.62.43-4.15.1-8.16-2.06-11.84-2.29-6.02-2.71-12.66-2.83-19.15-.08-4.7-.22-16.04,2.16-19.79,1.53-2.41,5.49-5.5,7.82-7.31,5.66-4.39,11.7-8.22,18.98-8.97,2.46-.41,4.83-.98,7.11-1.73.8.1,1.53,0,2.41.2Z"/><path class="cls-4" d="M62.07,2.45c0,.6-1.58.97-2.04,1.08-3.09.75-6.58.97-9.63,1.84-6.89,1.96-16.62,9.11-21.32,14.5-2.72,3.11-2.53,10.99-2.61,15.09-.09,4.41-.17,10.39.4,14.25.35,2.37,1.02,6.98,1.81,9.08.24.64,1.14,1.78,1.35,2.47.42,1.41.74,2.84,1.17,4.27.86,2.91-.13,7.51-.51,10.57-.91,7.46-2.24,16.44-4.33,23.64-.24.81-.51,2.03-1.11,2.62-.36-5.95,1.56-11.37,2.21-17.21.99-8.85.89-14.96-1-23.64.38-.98,1.09.33,1.16,1.01.38,3.52,2.25,4.29,1.08-.23-3.91-11.3-4.35-23.34-2.95-35.21.31-2.64.75-5.98,2.69-7.89,6.74-6.61,16-13.85,25.54-14.95.44-.1,2.33-.52,1.67-.83l-.03-.45c1.23-.33,2.66-.45,3.93-.41.85.03,1.68.31,2.5.41Z"/><path class="cls-49" d="M55.63,2.45c.12.02,1.05.5.8.8-.03.04-.75.39-.87.44-1.54.64-3.93.73-5.66,1.19-7.29,1.94-15.51,8.97-21.04,13.97-1.41,1.27-1.79,2.68-2.15,4.49-2.13,10.5-1.76,26.29,1.79,36.33.4,1.14,1.27,4.27.84,5.33-.15.37-.43.42-.77.26-1.22-.58-1.06-2.27-1.42-3.43-.1-.31-.22-.92-.69-.81-2.12-9.73-3.93-17.06-2.82-27.27,1.81-16.57,7.36-23.85,23.03-29.28,1.97-.68,7.07-2.34,8.96-2.01Z"/><path class="cls-61" d="M155.63,75.5c1.52,1.23,3.02,2.68,4.33,4.24.49,1.12-1.05.93-1.69.47l-18.05-11.67c-8.84-5.82-18.68-10.39-28.54-13.58-.96-.49-2.97-1.58-2.93-2.61,1.94.34,3.94.49,5.87.87,11.55,2.28,22.26,9.1,31.82,15.67,2.47,1.7,7.27,4.63,9.19,6.6Z"/><path class="cls-32" d="M108.75,52.35c1.08,1.1,3,2.32,4.45,2.9,1.01.4,2.18.53,3.15.87,14.43,5,27.45,14.45,40.22,22.56.93.59,2.19,1.59,3.28,1.55-1.01-1.27-2.2-2.36-3.32-3.52-.33-.34-.58-.87-.9-1.21.35.03.6.25.87.44,11.2,7.78,22.63,15.62,32.93,24.51.26.83-.66.45-1.08.15-7.72-5.29-15.79-10.33-24.04-14.99-7.14-4.35-13.77-9.11-20.48-14.06-10.47-7.69-22.46-12.51-34.31-16.6-.92-.41-2.83-1.93-1.79-2.79.33.06.67.14,1.01.2Z"/><path class="cls-54" d="M107.74,52.15c0,2.22,3.38,2.99,5.13,3.63,6.45,2.37,11.66,4.35,17.81,7.54,10.96,5.68,19.27,12.79,29.39,19.31,5.55,3.58,11.47,6.59,17.07,10.1,3.63,2.28,7.18,5.12,10.82,7.29.28.16,1.2.82,1.47.44.05.05.33.05.5.19.9.77,1.66,1.59,2.72,2.22-2.87-.65-5.07-2.52-7.65-4.02l-.65-.51c-9.5-5.45-18.87-11.25-28.13-17.4-2.22-1.45-4.35-3.19-6.44-4.83-6.39-4.69-12.98-8.87-20.09-12.4-8.09-4.02-15.59-6.28-24.41-7.77-3.09-.84-9.35-2.96-11.37-5.58-.35-.45-1.01-1.35-.27-1.61,3.68,2.19,9.86,2.69,14.08,3.42Z"/><path class="cls-60" d="M93.66,48.73c.04,1.59,2.43,2.92,3.69,3.66,7.32,4.26,15.88,4,23.61,6.97,9.65,3.71,20.77,10.4,28.84,16.74-3.97-2.46-7.71-5.32-11.76-7.65-5.64-3.24-12.62-6.77-18.98-8.18-3.64-.81-7.21-.52-10.95-1.53-6.44-1.74-11.57-5.86-16.87-9.49-.27-.19-.71-.17-.99-.42-.26-.22-1-1.63-.96-1.98.08-.81.93-.93,1.56-1.13.58,1.12,1.74,2.38,2.82,3.02Z"/><path class="cls-22" d="M160.66,142.71c.57-.14,1.01.95,1.13,1.45.51,4.39,1.68,8.95,4.59,12.42,3.41,4.05,7.15,5.65,12.34,6.44.89.22,1.77.48,2.57.89.42.22,1.28.69,1.09,1.14-.43.1-.9.28-1.41.4-2.25-1.08-4.66-1.73-7.16-2.12-3.97-.8-7.03-3.14-10.15-5.54-2.15-1.23-4.03-2.77-5.63-4.61.02-3.76,1.79-6.88,2.62-10.46Z"/><path class="cls-25" d="M158.65,126.21c.47-.1.66.07,1.02.29,1.19.75,2.89,4.45,3.35,5.9,1.17,3.63.31,7.79,1.21,11.47.67,2.76,1.29,5.7,1.17,8.6-.08,1.99,1.65,3.25,2.51,4.93-.91.37-2.08-1.44-2.56-2.23-1.04-1.68-1.29-3.04-1.49-4.95-2.15-3.52-2.3-8.47-1.98-12.51l-.2-1.44c.07-3.33-1.01-7.38-3.02-10.06Z"/><path class="cls-57" d="M180.98,165.45c-.06.01-.14.19-.2.2-.31-.12-1.62-.23-1.01,0-.95.12-1.6.18-2.62.2-.11-.28-.04-.43.18-.55-5.91-1.28-12.78-4.07-17.69-7.69-.69-.51-1.12-.99-1.4-1.83-.13-.95-.21-1.64-.2-2.62.44-.05.68-.01,1.01.3.6.55,1.15,1.5,1.91,2.12,1,.81,2.26,1.37,3.3,2.13,3.35,2.45,4.46,3.69,8.71,4.98,2.7.82,6.02.74,8.01,2.76Z"/><path class="cls-58" d="M184.2,120.77c4.03,4.02,7.85,8.17,11.46,12.46,3.77,3.51,11.51,4.31,16.45,4.07l.79.37,4.5-1.41c.9-.31,1.63-.3,2.21.01-.94,1.3-1.45,1.91-2.62,3.02l-.45.22c-3.74-.31-7.53-.5-11.36-.58-1.39-.18-2.32-.32-3.24-1.38-2.52-.11-5.19-2.23-6.89-4.03-2.65-3.14-5.47-6.11-8.44-8.92l-.27.02-1.34-1.83c-.48-.79-1.17-1.48-1.41-2.41.49-.27.67-.16.6.4Z"/><path class="cls-7" d="M202.11,136.07c.07,0,.13,0,.2,0l1.01.2c1.47.07,2.88.48,4.33.6,2.72.23,5.5-.24,8.05-.69,1.02-.18,1.65-.38,2.61-.91.89-.49,1.43-1.61,2.71-1.01-.4.84-.9,1.31-1.41,2.01-.78.21-1.71.26-2.46.46-.85.22-3.7,1.38-4.29,1.34-.3-.02-.48-.35-.78-.37s-.76.22-1.22.2c-4.9-.19-12.33-1.45-15.89-5.05-1.13-1.14-2.41-3.11-3.62-4.43-2.36-2.56-5.35-4.67-7.15-7.64.7,0,1.15.44,1.6.94,3.28,3.59,6.69,7.21,10.14,10.51-.08.73,1.86,1.89,2.54,2.3,1.2.71,2.21,1.26,3.62,1.55Z"/><path class="cls-6" d="M161.66,136.27c.98,1.28.33,3.18.41,4.73s.7,5.9,1.14,7.31c.24.77.72,1.05.97,1.65.37.88.2,1.76.39,2.63.09.41.87,2.36,1.08,2.75.55,1.01,1.38,1.47,2.25,2.07.26.18.4.37.8.6,1.11,1.01,2.4,1.78,3.71,2.5l.37.52c2.77.73,5.55,1.47,8.32,2.2,1.13.33,1.69.87,1.68,1.62-.08.02-.22.16-.4.2-.45-.68-1.36-1.13-2.11-1.42-2.97-1.11-6.71-1.27-9.42-2.66-3.47-1.78-7.37-7.51-8.5-11.22-.5-1.61-.48-3.79-.96-5.48-.16-.56-.53-1.04-.75-1.57.42-1.81.97-4.63,1.01-6.44Z"/><path class="cls-10" d="M201.7,138.68c2.72,1.17,5.39,1.5,8,1.01,1.2-.08,1.99-.07,2.26,1.17,1.16.17,1.64.52,1.41,1.05-4.63,2.4-9.65,2.84-14.29,0-.1-.62,1.53-.12,2.01.2l.33-.34c2.37,1.15,4.38,1.17,6.95.76,3.98-.64.92-1.1-1.03-.87-.95-.7-2.15-1.12-3.59-1.27l-.24-.5c-1.54-.26-2.95-.79-4.23-1.61-.33.44-.48.33-.4-.2-2.45-1.56-4.77-3.47-6.76-5.69-1.03-1.16-2.38-2.71-2.7-4.17.07-.42.26-.23.53.03l3.96,4.61c2.17,2.58,4.84,4.33,7.78,5.82Z"/><path class="cls-38" d="M189.43,128.22c1.97,2.61,3.92,5.31,6.43,7.55.95.85,2.18,1.34,3.03,2.31-.5.24-1.08.08-1.74-.47l-4-3.26c1.46,2.34,3.35,4.28,5.67,5.83l.4.84c1.34.06,1.97.42,1.88,1.09-.61-.14-1.63-.54-2.01-.2-3.5-2.15-6.94-6.83-9.14-10.28-1.37-2.15-2.72-4.49-3.74-6.83.14-.01.26-.01.32.05.43.4,2.89,2.82,2.94,3.02.03.11,0,.23-.04.35Z"/><path class="cls-25" d="M101.71,126.01c-.32.04-.68-.04-1.01,0l-.37-.37c.02-2.13.78-9.17,2.7-10.14,1.09.34.71-1.3.36-1.88-.85.08-1.97.15-2.69-.08.79-1.05,3.08-1.32,3.79-.07.92,1.62-.55,5.69-1.12,7.48-.54,1.69-1.44,3.33-1.67,5.07Z"/><path class="cls-9" d="M100.7,113.53c.76-.41,1.23-.2,1.91-.2.28,0,.77-.25.88-.18.63.45.86,1.97.41,2.68s-.49-.32-.88.12c-1.87,2.16-2.04,7.3-2.32,10.06-.24.03-.58.16-1.01.2l-.46-.31c-.54-3.61-.56-7.16,2.22-9.83.31-.54.49-1.13.65-1.73,0-.13.01-.27,0-.4-.18-.13-1.5.29-1.81.4.15-.24.24-.59.4-.8Z"/><path class="cls-26" d="M158.24,155.79c.8.78,1.36,1.39,2.34,1.98,3.36,2.02,8.36,4.79,12.11,6,1.41.45,4.06.72,5.27,1.37.09.05.25.25.2.3l-1.01.4c-1.69.03-3.66.21-5.23-.4.22-.18.46-.29.74-.32l-9.79-4.52c-1.17-.63-2.27-1.34-3.29-2.13-.3.34-.49.31-.73-.08-.34-.97-.47-1.6-.6-2.62Z"/><path class="cls-57" d="M186.61,124.6c1.38.95,2.67,2.28,3.83,3.52,1.53,1.63,2.97,3.73,4.62,5.24.6.55,4.06,3.16,4.65,3.4.73.3,1.58.18,2.24.37.72.21.84.96,1.5,1.11,3.3.75,7.65.35,11.03.65.82.07,1.6.62,2.51.4-.13.13-.24.26-.4.4-1.57.6-3.39.67-5.03.32-.78-.48-1.93-.36-2.81-.13l-.21-.18c-.95.03-1.89-.04-2.82-.2-.04.38-.23.34-.4,0l-1.41-.4c-.4.24-1.23-.12-1.61-.4-3.36-1.04-6.21-3.32-8.53-5.98-2.28-2.72-4.68-5.32-7.18-7.78l.02-.32Z"/><path class="cls-29" d="M158.85,158.41c.4.16.41-.41.51-.41.52,0,1.86,1.26,2.44,1.59,3.17,1.79,6.69,3.02,9.95,4.74.69.36,1.69.48,2.19,1.33-.66-.05-1.35-.11-2.01-.2-1.85-.25-3.9-.71-5.63-1.41l.24-.41c-2.17-1.16-4.46-2.41-6.64-3.68l-.85-1.15c-.05-.12-.14-.23-.2-.4Z"/><path class="cls-36" d="M27.06,116.35c.59-.74,1.29,1.11,1.61,1.61,1.54,2.23,3.33,4.17,5.39,5.82l5.43,3.73.25.71c-.14.27-.28.4-.4.6-3.32-2.37-6.86-4.53-9.66-7.54-1.24-1.32-2.77-3.01-2.61-4.94Z"/><path class="cls-41" d="M202.11,136.07c-.44-.06-1.65-.2-1.99-.31-.5-.16-4.23-2.48-4.47-2.8-.3-.41.18-.71-.16-1.22-.27-.4-.77-.4-1.01-.61-3.58-3.17-6.54-7.31-10.28-10.34-.18-.15-.42-.25-.6-.4-.47-.39-.89-.76-1.01-1.41.91.86.93.61,1.75.96.88.37,3.75,4.02,4.68,4.99,2.78,2.9,6.38,6.79,9.46,9.25,1.18.94,2.36,1.17,3.62,1.91Z"/><path class="cls-24" d="M159.05,158.81c.42.16.65.7,1,.88,1.84.92,3.65,1.9,5.5,2.98.62.36,3.52,1.58.74,1.37-3.78-.29-5.76-1.72-7.24-5.23Z"/><path class="cls-25" d="M168.71,158c1.37.79,4.67,2.67,6,3.16,2.3.86,5.93,1.17,7.93,2.31.46.26,1.07.72,1.36,1.17-.39.09-.81.11-1.21.2-1.49-1.74-4.21-1.87-6.28-2.47-1.2-.34-2.83-.65-3.85-.99-.27-.09-.28-.46-.48-.58-1.32-.78-2.56-1.5-3.48-2.81Z"/><path class="cls-53" d="M202.31,138.68c.51.1.99.29,1.61.4l1.41.4c.13,0,.27,0,.4,0,.93.16,1.87.22,2.82.2,2.72-.58,2.54.05,4.76.13.97.04,2.28-.35,3.29-.13-1.22,1.08-1.77,1.46-3.22,2.21-.36-.71-1.18-.23-1.72-.79-.38-.4-.24-.96-.3-1.01-.06-.06-1.51-.21-1.7-.21-.52,0-1,.31-1.47.35-1.98.17-4.66-.86-6.48-1.56.09-.18.29-.18.6,0Z"/><path class="cls-5" d="M98.69,126.21c-.8.08-1.62.26-2.41.4-.21-2.52.43-4.83,1.84-6.91.32-.47.86-.92,1.17-1.34l.2.56c-.69,2.17-1.16,4.49-.56,6.73l-.25.56Z"/><path class="cls-13" d="M99.69,126.21c-.33.03-.68-.03-1.01,0-.87-2.52-.29-5.4.6-7.85.97-1.32,2.02-2.57,2.82-4.02.13,2.55-1.2,2.42-2.02,4.12-1,2.07-.77,5.51-.4,7.75Z"/><path class="cls-31" d="M39.73,128.22c-2.33-1.88-5.44-3.55-7.55-5.63-1.35-1.32-2.5-3.09-3.51-4.64,1.67,1.5,2.86,3.52,4.64,4.91.9.7,2.45,1.58,3.47,2.16.56.32,3.31,1.53,3.47,1.78.24.37-.34,1.07-.52,1.41Z"/><path class="cls-6" d="M81.38,144.92c.24-.16.48-.94,1-.8-.05,1.29.1,3.1.66,4.27.31.65,1.28,1.19,1.56,1.97-.61.24-1.19.4-1.81.6-.39.03-.56-.27-.52-.87l-1.49-2.71v-.84c.06-.11.06-.3.19-.5.3-.46,1.25-.76.41-1.11Z"/><path class="cls-2" d="M10.36,137.68l.1.26c-1.64,1.67-2.48,3.55-2.53,5.64.66,1.08.73,1.87.22,2.36-.28-.09-1.64-.67-1.73-.8-.29-1.73,2.2-7.35,3.94-7.45Z"/><path class="cls-35" d="M121.22,122.59c-4.01,1.31-8.3,1.65-12.47,2.21,4.54-.94,7.77-1.68,12.47-2.21Z"/><path class="cls-56" d="M70.72,144.12c.21.15.39-.32.4.6-1.24,1.92-.81,4.22,1.04,5.59.29.3.29.56-.03.85-.42-.07-.79-.12-1.21-.2-1.48-.82-2.04-3.18-1.61-4.83.39-.81.69-1.44,1.41-2.01Z"/><path class="cls-47" d="M10.76,137.88l-.4.89c-.83.98-1.55,2.03-1.61,3.34.3,1.11.39,2.8,0,3.81-.17-.05-.45.05-.6,0,.55-.92-.55-1.37-.62-2.32-.18-2.67,1.62-3.92,2.83-5.93.1,0,.2,0,.3,0l.1.2Z"/><path class="cls-57" d="M80.78,146.53l1.87,3.43.15,1c-.43.14-.68.27-1.21.4-.15-.41-.42-.75-.83-1.02-.42-.82-.55-1.76-.38-2.81.13-.44.17-.59.4-1.01Z"/><path class="cls-11" d="M17,145.93c-1.82.54-3.94.76-5.83.6.84-.28,1.76-.4,2.59-.73,1.37-.54,3.4-2.88,3.24.12Z"/><path class="cls-51" d="M187.42,129.83c-.41-.61-1.1-1.25-1.5-1.82-1.39-2.02-2.65-4.18-3.13-6.63,1.69,2.74,3.32,5.5,4.63,8.45Z"/><path class="cls-21" d="M73.13,151.36c-.4-.05-.69-.15-1.01-.2-.12-.78-1.04-1.12-1.38-1.74-.7-1.25-1.17-3.86.38-4.7.01,1.14-.61,1.65-.31,3.03.39,1.84,2.12,1.94,2.32,3.61Z"/><path class="cls-9" d="M9.15,146.13c-.18-.04-.32-.18-.4-.2-.11-.98.14-2.2.02-3.13-.06-.47-.55.01-.33-1.1.29-1.47,1.53-2.6,2.33-3.81-.27,1.56-.34.95-1.05,2.06-1.08,1.67-.34,4.26-.55,6.19Z"/><path class="cls-27" d="M80.38,147.54c.25.72.23,1.69.56,2.36.36.71,1.26.53.65,1.47-.47.12-.95.26-1.41.4-.45-1.43-.21-2.85.2-4.23Z"/><path class="cls-8" d="M70.12,150.96c-.74-.16-1.48-.42-2.21-.61.24-1.05.64-2.02,1.01-3.02.25.43.43.96.54,1.61.48.76.7,1.43.67,2.02Z"/><path class="cls-17" d="M86.21,27.6c-.96-.25-1.15-1.88-1.35-2.78-.22-.98-.24-2.11-.46-3.06.92,1.84,1.3,3.87,1.81,5.84Z"/><path class="cls-1" d="M70.92,150.96c-.24-.05-.57.05-.8,0-.66-1.16-1.36-2.18-1.21-3.62.16-.42.14-.67.4-1.21-.02,1.89.56,3.31,1.61,4.83Z"/><path class="cls-30" d="M4.93,132.85c1.21-1.5,1.99-2.17,3.62-3.22.4.1-.32.64-.4.71-1.04.86-2.03,1.89-3.22,2.51Z"/><path class="cls-16" d="M186.61,124.6c1.25,1.56,2.35,2.34,3.63,3.72,2.7,2.91,5.31,6.5,8.65,8.65,1.06.68,2.42.99,3.41,1.72-.18-.04-.41.02-.6,0-5.36-2.07-8.03-5.59-11.54-9.89-.22-.27-.29-.57-.73-.57-.94-1.25-2.25-2.2-3.22-3.42-.6-.76-.75-1.26-1.21-2.01.66.46,1.11,1.19,1.61,1.81Z"/><path class="cls-22" d="M180.78,165.65c-.29.06-.69-.04-1.01,0-1.12-.07.5-.5,1.01,0Z"/><path class="cls-40" d="M76.96,54.16l-.28-.11c-.07-.84-.11-1.68-.12-2.51l-.5-.2c-.06-1.16-1.88-1.75-1.65-.23l-.47.24c-1.07-.83-2.14-1.71-2.78-2.95s-.65-2.53-1.24-3.8c.35-1.75.69-3.3,1.53-4.9.33-.63,1.45-1.24.88-2.03l.13-.26c1.37.08,2.73.07,4.09-.01-.02-.22.19-.29.41-.34v-.6c.06-1.02,2.24-.5,2.86-.35,1.29.31,3.68,1.9,4.48,2.97.17.22.66,1.51.66,1.74,0,.34-.66,1.21-.75,1.79-.27,1.85.05,4-.16,5.87-.47,1.09-3.65,3.32-4.83,3.44-.64.07-1.54-.55-1.82.38-.21.71,0,.98-.44,1.87Z"/><path class="cls-48" d="M42.75,58.19c0-.61-.71-2.06.31-2.22.85-.14,1.33.68,2.03.99,3.15,1.42,4.77.86,7.32-1.28,1.65-1.39,3.49-4.3,5.76-4.52.49-.05,1.05.24,1.08.19.04-.05.08-.98.2-1.21h-2.92c-.06,0-.98-.42-1.1-.51-.9-.68-.85-2.08.1-2.71,1.3-.87,5.87-1.53,7.44-1.4,4.45.35-.62,2.95-1,3.82-.22.49-.11,1.43-.3,2.01,1.71-.16,3.24.41,4.69,1.25,1.19.69,1.93,1.79,3.46,1.79s3.68-1.56,4.12-3.04c.27-.88-.07-1.53.83-1.5,1.5.04,1.4.67,1.79,1.7.24.42.22,1.28-.4,1.21-.02,1.24-1.42,2.46-2.42,3.13-.11.07-.27-.02-.4-.11-1.22.78-3.24,1.75-4.43.8-1.7-.77-3.29-1.77-4.76-2.98-1.9-1.02-5.79-1.27-7.31.57-.19.38-.53.78-1.01,1.21.19.34-.45.95-.8.8-.11.29-.31.51-.6.6-.12.55-.85,1.22-1.41,1.21-2.82,2.83-7.22,3.64-10.06.4-.19.2-.25.13-.2-.2Z"/><path class="cls-40" d="M40.74,42.09c-.69.31-1.18.36-.87.95.21.42,2.49,1.68,3.17,2.68.72,1.06.47,2.34,1.32,3.21.52.17-.11,1.39-.3,1.31-.17-.07-.01-.72.1.1-.39.11-1.4,2.92-1.93,3.6-1.01,1.29-4.58,3.03-6.21,3.04-1.34.01-4.24-1.11-4.98-2.27-.94-1.48-1.36-4.34-.91-6.03.26-.96.99-1.72,1.26-2.57.09-.28-.11-.58.04-.95.22-.54.92-.89,1.26-1.27.06-.18.12-.17.2,0,.33.28.2.63-.39,1.04.98.52,1.41.39,2.38-.1,1.91-1.34,3.86-2.26,5.86-2.76Z"/><path class="cls-48" d="M60.86,35.65c-.15-.07-.46.1-.7-.2-1.2-1.46.38-9.04,1.5-10.77,2.87-4.41,6.56-1.04,8.54,2.13,1.58,2.53,2.9,5.42,2.53,8.43,1.38.11,3.11.3,4.22,1.21.92.74.04.55,0,.6-.66.61-2.14.59-2.82,0-3.85-.34-7.68-.8-11.47-1.41-.45.28-1.05.28-1.81,0Z"/><path class="cls-48" d="M45.57,38.87c.69.72-.75,1.65-1.41,1.21-2.86,1.17-5.73,2.28-8.63,3.33l-.42-.11c-.24.76-1.63,1.15-2.21.6h-.2c.05-.06.06-.4.28-.61.53-.52,1.37-.98,1.93-1.5-.36-.18-.46-.2-.56-.64-.79-3.82.54-8.97,3.07-11.94,3.06-3.59,6.93-2.74,8.02,1.85.44,1.83.59,6.03.13,7.82Z"/><path class="cls-48" d="M44.36,48.93c.97-1.53,8.59-6.05,10.51-6.7,3.73-1.25,8.18-.77,12.03-.34.15.61-.3.32-.4.4-1.25.42-2.83.57-4.02,0-5.01.44-9.4,2.1-13.48,5.03l-.12.38c-1.29,1-2.66,1.88-4.1,2.64-.15.05-.44-.05-.6,0l-.4-.09c.26-.41.34-.91.6-1.32Z"/><path class="cls-50" d="M76.15,52.76c1.75,1.32-1.7,3.6-2.93,4.26-2.61,1.4-3.8,1.27-6.49.09l-4.07-2.08c-2.25-.95-4.61-.59-6.43,1.09-2.74,2.75-8.18,7.62-12.31,5.37-1.03-.56-1.6-1.24-1.37-2.49-.03-.45.2-.76.2-.8.12.02.15.16.2.2.6.75,1.42,1.33,2.46,1.76-.35.82.29.84,1.01.8,2.31-.13,4.92-1.41,6.59-2.96.47-.43.95-.79,1.41-1.21.3-.11.48-.31.6-.6.24-.19.39-.51.8-.8,1.9-2.2,5.35-2.31,7.83-1.09,2.95,1.91,6.39,3.99,9.68,1.49.84-.69,2.32-2.08,2.82-3.02Z"/><path class="cls-20" d="M76.96,54.16c-.74,1.45-4.3,3.85-5.93,4.03-5.04.55-7.17-4.1-11.82-3.37-2.11.33-4.04,2.85-5.69,4.17-2.36,1.88-5.44,3.72-8.6,3.18-1.36-.23-3.07-1.67-2.36-3.17.02.41.13,1.2.4,1.52.62.75,2.55,1.25,3.49,1.22,4.38-.13,6.69-3.44,9.61-5.84,6.31-5.2,10.69,3.98,16.15,1.46.39-.18,3.68-2.58,3.89-2.84.46-.56.03-1.12.06-1.75.16-.3.16-.88.4-1.21.01.03.32.09.4.5.12.63-.07,1.46,0,2.12Z"/><path class="cls-46" d="M45.57,38.87c.49-.11,1.56.47,1.2,1-.13.19-3.66,1.52-4.21,1.72-.6.22-1.04.16-1.82.5-.37,0-.71.1-1.05.25-1.73.78-4.36,3.2-6.11,3.37-.6.06-1.03-.69-1.69-.2-.12-.77.7-1.01,1-1.61.75-.12,1.51-.35,2.21-.6.29.08.58.07.87-.02l8.18-3.2c.68-.47,1.19-.36,1.41-1.21Z"/><path class="cls-48" d="M41.34,22.57c-.79.3-6.84,2.27-7.18,2.1-.42-.21-.09-.63.14-.9,1.4-1.14,3.93-2.49,5.77-2.6,1.01-.06,2.08.35,1.28,1.39Z"/><path class="cls-48" d="M65.29,20.36c-.51-.14-1.07.27-1.02-.91.05-1.09,1.07-.95,1.93-.91.63.03,5.74,1.17,5.93,1.42.08.11-.39.41-.4.6l-.36.38c-2.01-.37-4.04-.57-6.08-.58Z"/><path class="cls-19" d="M62.67,35.65c3.76.61,7.58,1.08,11.47,1.41.93-.04,1.88.03,2.82,0-.14.19.36.64-.72.78-.91.12-2.92-.08-3.91-.18-3.25-.32-8.61-.77-11.47-2.01.6.01,1.21-.02,1.81,0Z"/><path class="cls-14" d="M66.49,42.29c-.09.07-.15.31-.32.38-1.02.4-3.38.29-4.71.43-2.99.53-5.93,1.43-8.62,2.86l-.44-.04c-.18.09-.32.09-.4,0,.28-.81,1.62-1.36,2.45-1.7,2.6-1.04,5.22-1.61,8.01-1.93,1.34-.03,2.69.02,4.02,0Z"/><path class="cls-28" d="M71.73,20.56c-.03.43.72,1.03-.7,1.02s-4.26-.82-5.74-1.22c1.92-.86,4.38.12,6.44.2Z"/><path class="cls-34" d="M61.46,43.1c-2,.53-4.02,1-5.94,1.81-2.88,1.21-5.54,3.08-8.35,4.43-.06-.25.01-.43.2-.57,1.53-1.17,3.23-2.18,5.03-2.85,2.8-1.42,5.92-2.48,9.05-2.82Z"/><path class="cls-33" d="M41.34,22.57c-.29.38-.32.36-.75.56-.84.38-5.92,1.93-6.6,1.87-1.5-.13-.13-.87.3-1.22,0,.5-.16.7.49.59.83-.14,1.84-.85,2.73-1.1,1.37-.38,2.55-.15,3.82-.7Z"/><path class="cls-39" d="M52.01,45.91h.4c-1.75.88-3.76,2.16-5.23,3.42-.91.43-1.46.69-2.41,1.01,1.4-1,2.72-2.16,4.23-3.02l2.59-1.59c.17-.03.31.04.43.18Z"/><path class="cls-41" d="M203.31,136.27c-.32-.02-.83.13-1.01-.2.32.03.83-.14,1.01.2Z"/><path class="cls-60" d="M185,98.84c-6.02-3.52-12.14-6.95-18.09-10.58-3.68-2.24-7.35-4.6-10.68-7.33,8.94,5.84,18.39,10.98,27.39,16.78.49.31,1.09.62,1.38,1.13Z"/><path class="cls-45" d="M201.1,142.11c-.45-.74-1.67-.43-2.13-.78-.23-.18-.31-.74-.57-1.04-.44-.52-1.46-.95-1.97-1.4-1.67-1.47-2.84-2.87-3.89-4.8-.26-.48-1.11-.68-.39-1.22,1.05.98,2.12,1.9,3.22,2.82,1.37,1.15,1.75,1.59,3.52,2.41.13.06.24.13.4.2,1.27.82,2.68,1.35,4.23,1.61,1.17.4,2.58.54,3.57.95.25.1.23.42.39.46.42.09,4.28-.54,3.02.95-.71.84-6.03,1.14-6.98.75-1.02-.42-1.08-.6-2.42-.9Z"/><path class="cls-38" d="M203.52,139.89c-1.52-.23-3.15-.32-4.23-1.61,1.33.55,2.88,1.15,4.23,1.61Z"/><path class="cls-16" d="M208.55,139.69c-.99.21-1.86.34-2.82-.2.9.04,2.05-.2,2.82.2Z"/><path class="cls-16" d="M205.33,139.49c-.49-.04-1.04,0-1.41-.4.46.09,1.04-.04,1.41.4Z"/><path class="cls-52" d="M80.72,40.54c.78.92,1.03,3.89.85,5.06-.2,1.29-1.89,2.54-3.12,2.71-5.59.76-6.54-6.62-2.14-8.38,1.21-.49,3.53-.44,4.42.61Z"/><path class="cls-31" d="M68.91,56.58l-.26.2c-1.07-.27-2.06-.77-3.03-1.29-2.49-1.88-5.61-2.72-8.49-1.2l-.29-.12c.89-2.03,3.85-1.83,5.68-1.56,2.77.41,3.99,2.86,6.39,3.97Z"/><path class="cls-44" d="M68.91,56.58c1.9.35,2.72-.03,4.43-.8-2.86,2.35-4.85,1.4-7.89-.06-.77-.37-1.61-1.16-2.37-1.45-2.58-.97-5.05-.44-7.24,1.11.06-.57.58-.9,1.01-1.21,1.45-1.04,3.37-1.07,5.08-.75,2.44.44,4.34,2.68,6.99,3.17Z"/><path class="cls-44" d="M53.01,57.99c-.52.48-.77.99-1.47,1.45-1.41.93-5.84,3.05-6.98,1.17l.6-.1c-.53-.96-2.25-.91-2.21-2.11,2.1,1.74,5.16,2.22,7.65,1.11.87-.39,1.52-1.18,2.42-1.51Z"/><path class="cls-44" d="M54.42,56.78c.2-.18.31-.37.6-.6,0,.4-.19.6-.6.6Z"/><path class="cls-55" d="M39.46,52.28c-1.27,1.26-3.77,1.59-5.17.38-1.98-1.71-.55-5.11,1.68-5.98,3.93-1.55,6.38,2.72,3.49,5.6Z"/><path class="cls-17" d="M67.7,26.19c.48.39.85,1.02,1.17,1.55.49.81,3.79,7.14,3.46,7.51-3.53-.48-7.1-.65-10.66-.61l2.35-.57c3.22-1.7,3.18-5.35,2.48-8.49.27-.54.93.2,1.21.6Z"/><path class="cls-42" d="M74.14,37.06c-3.48.16-7.06-.39-10.57-1-.35-.06-.76.09-.9-.41,3.77.11,7.81.61,11.47,1.41Z"/><path class="cls-3" d="M63.43,27.45c.57.59-.09,2.75-.65,2.79-2.32.18-.58-4.07.65-2.79Z"/><path class="cls-15" d="M67.7,26.19c-.27-.22-.85-.5-1.21-.6-.03-.15-.34-.46-.4-.71-.21-.92,1.72.87,1.6,1.31Z"/><path class="cls-17" d="M44.55,38.66c-3.1.62-6.15,1.56-9.04,2.83-.15-1.1,1.36-.93,2.12-1.2,3.24-1.13,4.41-6.76,3.09-9.55-.17-.36-.97-.93-.78-1.13.24-.24,1.59-.42,2.01-.31,2.93.75,2.68,7.03,2.6,9.36Z"/><path class="cls-12" d="M36.77,32.29c1.43-1.17,2.29.56,1.12,2.22-1.5,2.12-2.71-.92-1.12-2.22Z"/><path class="cls-37" d="M44.16,40.08c-1.75,1.2-5.49,2.55-7.65,3.31-.41.14-1.2.54-1.4-.09,3-1.06,5.89-2.6,9.05-3.22Z"/><path class="cls-18" d="M62.47,42.29c-2.39.64-4.83,1.13-7.15,2.01-1.2.45-2.19,1.07-3.31,1.62-.91.44-2.2.94-3.02,1.41,4.3-3.76,7.8-4.91,13.48-5.03Z"/></g></svg>