<?xml version="1.0" encoding="UTF-8"?><svg id="Layer_2" xmlns="http://www.w3.org/2000/svg" xmlns:xlink="http://www.w3.org/1999/xlink" viewBox="0 0 779.26 752.7"><defs><style>.cls-1{filter:url(#drop-shadow-2);}.cls-2,.cls-3,.cls-4{fill:#fff;}.cls-5{fill:#cde8fe;}.cls-6{filter:url(#drop-shadow-1);}.cls-7{stroke-width:7px;}.cls-7,.cls-8,.cls-3{stroke:#000;}.cls-7,.cls-8,.cls-3,.cls-4{stroke-miterlimit:10;}.cls-7,.cls-8,.cls-9{fill:#7f5bff;}.cls-8,.cls-3,.cls-4{stroke-width:8px;}.cls-3{stroke-linecap:round;}.cls-10{filter:url(#drop-shadow-3);}.cls-4{stroke:#fff;}</style><filter id="drop-shadow-1" x="-3.37" y="-3.65" width="792" height="766" filterUnits="userSpaceOnUse"><feOffset dx="3" dy="3"/><feGaussianBlur result="blur" stdDeviation="2"/><feFlood flood-color="#000" flood-opacity=".75"/><feComposite in2="blur" operator="in"/><feComposite in="SourceGraphic"/></filter><filter id="drop-shadow-2" x="273.63" y="171.35" width="132" height="193" filterUnits="userSpaceOnUse"><feOffset dx="7" dy="7"/><feGaussianBlur result="blur-2" stdDeviation="5"/><feFlood flood-color="#000" flood-opacity=".33"/><feComposite in2="blur-2" operator="in"/><feComposite in="SourceGraphic"/></filter><filter id="drop-shadow-3" x="146.63" y="171.35" width="132" height="194" filterUnits="userSpaceOnUse"><feOffset dx="7" dy="7"/><feGaussianBlur result="blur-3" stdDeviation="5"/><feFlood flood-color="#000" flood-opacity=".33"/><feComposite in2="blur-3" operator="in"/><feComposite in="SourceGraphic"/></filter></defs><g id="Layer_1-2"><g class="cls-6"><path class="cls-4" d="M673.53,748.7c-22.26,0-43.48-8.36-59.77-23.55l-177.48-165.49c-2.58-2.41-5-4.95-7.26-7.62-3.47.7-7.02,1.06-10.61,1.06h0c-13.55,0-26.46-5.09-36.38-14.33l-3.93-3.66c-6.1-5.69-10.64-12.62-13.47-20.16-31.58,13.11-65.68,19.95-100.16,19.95h-.01c-66.13,0-129.21-24.85-177.6-69.97C35.96,417.47,6.6,353.04,4.16,283.5,1.73,213.97,26.52,147.64,73.98,96.75l9.23-9.9c25.08-26.89,54.82-47.77,88.39-62.06,32.42-13.8,66.8-20.79,102.19-20.79,66.13,0,129.2,24.85,177.6,69.97,41.54,38.74,68.78,88.69,78.76,144.46,7.76,43.37,4.24,88.56-9.81,130.1,7.6,2.35,14.63,6.4,20.58,11.95l3.93,3.66c12.65,11.79,18.5,28.71,16.61,45.18,2.96,2.14,5.79,4.47,8.49,6.98l177.48,165.49c35.36,32.97,37.3,88.55,4.33,123.91l-14.09,15.11c-16.52,17.72-39.9,27.88-64.13,27.88ZM497.57,434.42c-8.45,2.29-16.12,6.89-22.28,13.5l-14.09,15.11c-6.19,6.64-10.2,14.69-11.9,23.15l48.27-51.77Z"/><path class="cls-8" d="M556.28,430.94l177.48,165.49c27.33,25.49,28.83,68.3,3.35,95.64l-14.09,15.11c-25.49,27.33-68.3,28.83-95.64,3.35l-177.48-165.49c-27.33-25.49-28.83-68.3-3.35-95.64l14.09-15.11c25.49-27.33,68.3-28.83,95.64-3.35ZM437.72,88.6h0C340.57-1.98,188.39,3.34,97.81,100.49l-9.23,9.9C-2,207.53,3.32,359.72,100.47,450.3h0c97.15,90.58,249.33,85.26,339.91-11.89l9.23-9.9c90.58-97.15,85.26-249.33-11.89-339.91ZM531.18,378.77l-3.93-3.66c-13.47-12.56-34.58-11.82-47.14,1.65l-90.05,96.58c-12.56,13.47-11.82,34.58,1.65,47.14l3.93,3.66c13.47,12.56,34.58,11.82,47.14-1.65l90.05-96.58c12.56-13.47,11.82-34.58-1.65-47.14ZM414.75,114.04h0c-82-76.46-210.45-71.96-286.91,10.04l-11.55,12.39c-76.46,82-71.96,210.45,10.04,286.91h0c82,76.46,210.45,71.96,286.91-10.04l11.55-12.39c76.46-82,71.96-210.45-10.04-286.91ZM383.45,294.96v-68.48c0-25.94-21.03-46.97-46.97-46.97h-7.1c-25.94,0-46.97,21.03-46.97,46.97v68.48c0,25.94,21.03,46.97,46.97,46.97h7.1c25.94,0,46.97-21.03,46.97-46.97ZM377.45,291.13v-60.71c0-25.58-18.57-41.48-41.48-41.48h-6.13c-22.91,0-41.48,18.57-41.48,41.48v60.71c0,22.91,18.57,41.48,41.48,41.48h6.13c22.91,0,41.48-18.57,41.48-41.48ZM368.31,284.25v-48.97c0-18.5-15-33.49-33.49-33.49h-4.98c-18.5,0-33.49,15-33.49,33.49v48.97c0,18.5,15,33.49,33.49,33.49h4.98c18.5,0,33.49-15,33.49-33.49ZM332.9,248.27v-27.09c0-10.53-8.53-19.06-19.06-19.06h-3.32c-10.53,0-19.06,8.53-19.06,19.06v27.09c0,10.53,8.53,19.06,19.06,19.06h3.32c10.53,0,19.06-8.53,19.06-19.06ZM255.77,295.5v-68.48c0-25.94-21.03-46.97-46.97-46.97h-7.1c-25.94,0-46.97,21.03-46.97,46.97v68.48c0,25.94,21.03,46.97,46.97,46.97h7.1c25.94,0,46.97-21.03,46.97-46.97ZM249.76,290.45v-60.71c0-22.91-18.57-41.48-41.48-41.48h-6.13c-22.91,0-41.48,18.57-41.48,41.48v60.71c0,22.91,18.57,41.48,41.48,41.48h6.13c22.91,0,41.48-18.57,41.48-41.48ZM240.62,284.57v-48.97c0-18.5-15-33.49-33.49-33.49h-4.98c-18.5,0-33.49,15-33.49,33.49v48.97c0,18.5,15,33.49,33.49,33.49h4.98c18.5,0,33.49-15,33.49-33.49ZM205.21,248.59v-27.09c0-10.53-8.53-19.06-19.06-19.06h-3.32c-10.53,0-19.06,8.53-19.06,19.06v27.09c0,10.53,8.53,19.06,19.06,19.06h3.32c10.53,0,19.06-8.53,19.06-19.06ZM282.69,407.54c31.77,10.39,57.73-5.56,64.47-28.16"/></g><path class="cls-9" d="M673.51,724.7c-16.16,0-31.58-6.07-43.4-17.1l-177.48-165.49c-25.68-23.94-27.09-64.31-3.15-89.99l14.09-15.11c12-12.87,28.98-20.25,46.58-20.25,16.16,0,31.58,6.07,43.4,17.1l177.48,165.49c25.68,23.94,27.09,64.31,3.15,89.99l-14.09,15.11c-12,12.87-28.98,20.25-46.58,20.25Z"/><path d="M510.15,412.76v8s0,0,0,0c15.14,0,29.59,5.69,40.67,16.03l177.48,165.49c24.06,22.44,25.39,60.27,2.95,84.33l-14.09,15.11c-11.25,12.06-27.16,18.98-43.66,18.98-15.15,0-29.59-5.69-40.68-16.03l-177.48-165.49c-24.06-22.44-25.39-60.27-2.95-84.33l14.09-15.11c11.41-12.24,26.91-18.98,43.66-18.98v-8M510.14,412.76c-18.11,0-36.18,7.23-49.51,21.52l-14.09,15.11c-25.49,27.33-23.99,70.15,3.35,95.64l177.48,165.49c13.04,12.16,29.6,18.18,46.13,18.18,18.11,0,36.18-7.23,49.51-21.52l14.09-15.11c25.49-27.33,23.99-70.15-3.35-95.64l-177.48-165.49c-13.04-12.16-29.6-18.18-46.13-18.18h0Z"/><path class="cls-9" d="M264.43,510.9c-60.04,0-117.29-22.56-161.23-63.53-46.2-43.08-72.86-101.57-75.07-164.71-2.21-63.13,20.3-123.35,63.38-169.55l9.23-9.9c22.77-24.42,49.77-43.38,80.24-56.34,29.44-12.53,60.66-18.88,92.79-18.88,60.04,0,117.29,22.56,161.23,63.53,46.2,43.08,72.86,101.57,75.07,164.71,2.21,63.13-20.3,123.35-63.38,169.55l-9.23,9.9c-22.77,24.42-49.77,43.38-80.24,56.34-29.44,12.53-60.66,18.88-92.79,18.88Z"/><path d="M273.77,32c59.01,0,115.3,22.18,158.49,62.45,22.96,21.41,41.04,46.67,53.73,75.08,12.26,27.44,19.02,56.66,20.07,86.85,1.06,30.18-3.64,59.8-13.95,88.04-10.68,29.23-26.95,55.69-48.35,78.65l-9.23,9.9c-22.39,24.01-48.92,42.64-78.88,55.39-28.94,12.31-59.63,18.56-91.22,18.56-59.02,0-115.31-22.18-158.5-62.45-22.96-21.41-41.04-46.67-53.73-75.08-12.26-27.44-19.02-56.66-20.07-86.85-1.06-30.18,3.64-59.8,13.95-88.04,10.68-29.23,26.95-55.69,48.35-78.65l9.23-9.9c22.39-24.01,48.92-42.64,78.88-55.39,28.94-12.31,59.63-18.56,91.23-18.56h0M273.76,24c-64.37,0-128.59,25.69-175.95,76.49l-9.23,9.9C-2,207.53,3.32,359.72,100.47,450.3h0c46.35,43.22,105.22,64.6,163.96,64.6,64.37,0,128.59-25.69,175.95-76.49l9.23-9.9c90.58-97.15,85.26-249.33-11.89-339.91h0c-46.35-43.22-105.22-64.6-163.96-64.6h0Z"/><path class="cls-9" d="M418.38,529.09c-7.45,0-14.56-2.8-20.01-7.88l-3.93-3.66c-11.84-11.04-12.49-29.65-1.45-41.48l90.05-96.58c5.61-6.02,13.24-9.33,21.47-9.33,7.45,0,14.56,2.8,20.01,7.88l3.93,3.66c5.73,5.35,9.04,12.61,9.32,20.44.27,7.84-2.52,15.31-7.87,21.04l-90.05,96.58c-5.61,6.02-13.24,9.33-21.47,9.33Z"/><path d="M504.51,366.15v8c6.43,0,12.57,2.42,17.28,6.81l3.93,3.66c10.22,9.53,10.79,25.61,1.25,35.83l-90.05,96.58c-4.85,5.2-11.44,8.06-18.55,8.06-6.43,0-12.57-2.42-17.28-6.81l-3.93-3.66c-10.22-9.53-10.79-25.61-1.25-35.83l90.05-96.58c4.85-5.2,11.44-8.06,18.55-8.06v-8M504.51,366.15c-8.93,0-17.83,3.56-24.4,10.61l-90.05,96.58c-12.56,13.47-11.82,34.58,1.65,47.14l3.93,3.66c6.43,5.99,14.59,8.96,22.74,8.96,8.93,0,17.83-3.56,24.4-10.61l90.05-96.58c12.56-13.47,11.82-34.58-1.65-47.14l-3.93-3.66c-6.43-5.99-14.59-8.96-22.74-8.96h0Z"/><path class="cls-2" d="M264.72,473.9c-50.52,0-98.7-18.98-135.66-53.45-80.25-74.83-84.67-201-9.84-281.26l11.55-12.39c19.16-20.55,41.87-36.5,67.51-47.41,24.77-10.54,51.04-15.88,78.08-15.88,50.52,0,98.7,18.98,135.67,53.45,80.25,74.83,84.67,201,9.84,281.26l-11.55,12.38c-19.16,20.55-41.87,36.5-67.51,47.41-24.77,10.54-51.04,15.88-78.08,15.88Z"/><path d="M276.37,67.51c49.5,0,96.7,18.6,132.93,52.38,19.26,17.95,34.42,39.14,45.06,62.97,10.29,23.02,15.95,47.52,16.83,72.84.89,25.31-3.05,50.16-11.7,73.84-8.96,24.51-22.6,46.7-40.56,65.96l-11.55,12.39c-18.78,20.14-41.03,35.77-66.15,46.45-24.27,10.33-50.02,15.56-76.51,15.56-49.5,0-96.71-18.6-132.94-52.38-19.26-17.95-34.42-39.14-45.06-62.97-10.29-23.02-15.95-47.52-16.83-72.84-.89-25.31,3.05-50.16,11.7-73.84,8.96-24.51,22.6-46.7,40.56-65.96l11.55-12.39c18.77-20.14,41.03-35.77,66.15-46.45,24.27-10.33,50.02-15.56,76.52-15.57h0M276.36,59.51c-54.34,0-108.54,21.69-148.52,64.56l-11.55,12.39c-76.46,82-71.96,210.45,10.04,286.91h0c39.12,36.48,88.81,54.53,138.39,54.53,54.34,0,108.54-21.69,148.52-64.56l11.55-12.39c76.46-82,71.96-210.45-10.04-286.91h0c-39.12-36.48-88.81-54.53-138.39-54.53h0Z"/><rect class="cls-1" x="282.41" y="179.51" width="101.05" height="162.42" rx="46.97" ry="46.97"/><path class="cls-5" d="M335.97,332.61h-6.13c-22.91,0-41.48-18.57-41.48-41.48v-60.71c0-22.91,18.57-41.48,41.48-41.48h6.13c22.91,0,41.48,15.91,41.48,41.48v60.71c0,22.91-18.57,41.48-41.48,41.48Z"/><rect class="cls-7" x="296.35" y="201.79" width="71.96" height="115.95" rx="33.49" ry="33.49"/><rect class="cls-5" x="291.45" y="202.12" width="41.45" height="65.22" rx="19.06" ry="19.06"/><rect class="cls-10" x="154.72" y="180.05" width="101.05" height="162.42" rx="46.97" ry="46.97"/><rect class="cls-5" x="160.66" y="188.25" width="89.1" height="143.68" rx="41.48" ry="41.48"/><rect class="cls-7" x="168.66" y="202.12" width="71.96" height="115.95" rx="33.49" ry="33.49"/><rect class="cls-5" x="163.76" y="202.44" width="41.45" height="65.22" rx="19.06" ry="19.06"/><path class="cls-3" d="M282.69,407.54c31.77,10.39,57.73-5.56,64.47-28.16"/></g></svg>