<svg xmlns="http://www.w3.org/2000/svg" x="0px" y="0px" width="50" height="50" viewBox="0,0,256,256">
<g fill="#000000" fill-rule="nonzero" stroke="none" stroke-width="1" stroke-linecap="butt" stroke-linejoin="miter" stroke-miterlimit="10" stroke-dasharray="" stroke-dashoffset="0" font-family="none" font-weight="none" font-size="none" text-anchor="none" style="mix-blend-mode: normal"><g transform="translate(5.33333,261.33333) rotate(-90) scale(10.66667,10.66667)"><path d="M15.5,4c-0.27614,0 -0.5,0.22386 -0.5,0.5v4.5h-11c-1.105,0 -2,0.895 -2,2v1v1c0,1.105 0.895,2 2,2h11v4.5c0,0.27614 0.22386,0.5 0.5,0.5c0.1326,-0.00002 0.25976,-0.05271 0.35352,-0.14648c0.01021,-0.00999 0.01998,-0.02042 0.0293,-0.03125l6.81055,-7.10156l0.00391,-0.00391c0.01067,-0.01083 0.02109,-0.0219 0.03125,-0.0332c0.17405,-0.1851 0.27112,-0.42951 0.27148,-0.68359c-0.00036,-0.25408 -0.09743,-0.49849 -0.27148,-0.68359l-0.01172,-0.01367c-0.00516,-0.00461 -0.01037,-0.00917 -0.01562,-0.01367l-6.8418,-7.13672c-0.00065,-0.00065 -0.0013,-0.0013 -0.00195,-0.00195c-0.09406,-0.09617 -0.2229,-0.15038 -0.35742,-0.15039z"></path></g></g>
</svg>