<?xml version="1.0" encoding="UTF-8"?>
<svg xmlns="http://www.w3.org/2000/svg" version="1.1" viewBox="0 0 287 812">
  <defs>
    <style>
      .cls-1 {
        fill: #d8d9d3;
      }

      .cls-2 {
        fill: #fe9ecd;
      }

      .cls-3 {
        fill: #876635;
      }

      .cls-4 {
        fill: #c8c5bd;
      }

      .cls-5 {
        fill: #fdf8c3;
      }

      .cls-6 {
        fill: #feadd6;
      }

      .cls-7 {
        fill: #dfbc8d;
      }

      .cls-8 {
        fill: #fd9dcd;
      }

      .cls-9 {
        fill: #c9b9a6;
      }

      .cls-10 {
        fill: #fddfb5;
      }

      .cls-11 {
        fill: #4a3c27;
      }

      .cls-12 {
        fill: #feb3d9;
      }

      .cls-13 {
        fill: #e7c697;
      }

      .cls-14 {
        fill: #c6c4c1;
      }

      .cls-15 {
        fill: #e2be8d;
      }

      .cls-16 {
        fill: #fdaad3;
      }

      .cls-17 {
        fill: #fea4d1;
      }

      .cls-18 {
        fill: #200d03;
      }

      .cls-19 {
        fill: #d6b07c;
      }

      .cls-20 {
        fill: #dbb784;
      }

      .cls-21 {
        fill: #dab582;
      }

      .cls-22 {
        fill: #d4b07e;
      }

      .cls-23 {
        fill: #806337;
      }

      .cls-24 {
        fill: #4d4433;
      }

      .cls-25 {
        fill: #debb88;
      }

      .cls-26 {
        fill: #fbe7ca;
      }

      .cls-27 {
        fill: #5c4a32;
      }

      .cls-28 {
        fill: #4c381b;
      }

      .cls-29 {
        fill: #fd9fce;
      }

      .cls-30 {
        fill: #fdc2e0;
      }

      .cls-31 {
        fill: #795d32;
      }

      .cls-32 {
        fill: #dfbc8a;
      }

      .cls-33 {
        fill: #eecea0;
      }

      .cls-34 {
        fill: #deba87;
      }

      .cls-35 {
        fill: #f4ddc1;
      }

      .cls-36 {
        fill: #664e2d;
      }

      .cls-37 {
        fill: #fda3d0;
      }

      .cls-38 {
        fill: #efcea1;
      }

      .cls-39 {
        fill: #504532;
      }

      .cls-40 {
        fill: #927542;
      }

      .cls-41 {
        fill: #e0be8d;
      }

      .cls-42 {
        fill: #d5b07d;
      }

      .cls-43 {
        fill: #ddb986;
      }

      .cls-44 {
        fill: #fdb7da;
      }

      .cls-45 {
        fill: #dfbd8b;
      }

      .cls-46 {
        fill: #e1ccad;
      }

      .cls-47 {
        fill: #fec5e2;
      }

      .cls-48 {
        fill: #0f0b08;
      }

      .cls-49 {
        fill: #050302;
      }

      .cls-50 {
        fill: #fefce8;
      }

      .cls-51 {
        fill: #584628;
      }

      .cls-52 {
        fill: #f5dab1;
      }

      .cls-53 {
        fill: #e0cdb1;
      }

      .cls-54 {
        fill: #090502;
      }

      .cls-55 {
        fill: #fec5e1;
      }

      .cls-56 {
        fill: #e7c696;
      }

      .cls-57 {
        fill: #beb8b0;
      }

      .cls-58 {
        fill: #d9d4cd;
      }

      .cls-59 {
        fill: #fcc8e2;
      }

      .cls-60 {
        fill: #010000;
      }

      .cls-61 {
        fill: #fcdeb5;
      }

      .cls-62 {
        fill: #33230e;
      }

      .cls-63 {
        fill: #fec3e0;
      }

      .cls-64 {
        fill: #170c03;
      }

      .cls-65 {
        fill: #fec9e4;
      }

      .cls-66 {
        fill: #977743;
      }

      .cls-67 {
        fill: #040302;
      }

      .cls-68 {
        fill: #655338;
      }

      .cls-69 {
        fill: #fe9ccc;
      }

      .cls-70 {
        fill: #e3c292;
      }

      .cls-71 {
        fill: #fea5d1;
      }

      .cls-72 {
        fill: #fef8be;
      }

      .cls-73 {
        fill: #dfbc8b;
      }

      .cls-74 {
        fill: #5b4a32;
      }

      .cls-75 {
        fill: #fddfb6;
      }

      .cls-76 {
        fill: #c8baa4;
      }

      .cls-77 {
        fill: #ddd5c8;
      }

      .cls-78 {
        fill: #e2be8c;
      }

      .cls-79 {
        fill: #785b30;
      }

      .cls-80 {
        fill: #7a7269;
      }

      .cls-81 {
        fill: #967742;
      }

      .cls-82 {
        fill: #cbc8c4;
      }

      .cls-83 {
        fill: #fca6d1;
      }

      .cls-84 {
        fill: #fec6e2;
      }

      .cls-85 {
        fill: #fdc8e3;
      }

      .cls-86 {
        fill: #fdc8b5;
      }
    </style>
  </defs>
  <!-- Generator: Adobe Illustrator 28.7.1, SVG Export Plug-In . SVG Version: 1.2.0 Build 142)  -->
  <g>
    <g id="Layer_1">
      <g id="Layer_1-2" data-name="Layer_1">
        <g id="Layer_2">
          <g id="Layer_2-2">
            <g id="Layer_1-2">
              <path class="cls-60" d="M67.7,314.2c-5.7,1.5-10.1-.2-13.7-4.5-7.1-8.5-10.7-18-11.8-28.7-.7-6.2.7-12.2,2.1-18.2,1.5-6.5,1.7-13.1,3-19.6,1.4-6.9,2.3-13.8,4.1-20.6,2.9-11.5,8.1-22.2,12.9-33,1.6-3.5,4.4-6.3,6.9-9.3,1.2-1.4,3.3-1.9,5-2.4,3.1-.8,6-2.2,9.3-2.1.5,0-.4,1.4-.7,0,2.1,1.9-11.5,1.9,4.8-1.3.9.3,0-.7.6-.6,2.6-.7,5.2-.5,7.7,0,3.7.5,4.7,0,5.7-3.4.4-1.3,1-2.5,2.2-3.2.2,0,.5-.2.7-.2,1.8.7,1.8-.8,2.1-1.7.3-1,.3-2.1.7-3.1,1.2-2.5,3.3-3.2,6-2.1,1,.5,2.1,1.4,3.4.6.2,0,.4-.2.7-.2,1.7-1,3.3-.5,4.8.6,1.3,1,3,1.6,4.2,2.7.4.5.7.9,1.4.3.8-2.5,1.1-4.9.8-7.5-.2-2.1-.3-4.2,0-6.2.5-3.9-.6-7.5-2.1-10.9-.4-.8-.7-1.7-.9-2.6,0-.2-.2-.5-.2-.8,0-.8-.2-1.5.7-1.9,3.2,2.3,6.3,4.5,10,6.1,1.1.5,2.2,1,3.4,1.4.7.2,1.5.4,2.1.7,7.1,1.8,14.2,2.6,21.4.9.6-.2,1.2-.4,1.8-.7,2.5-.9,4.6-2.5,6.5-4.4s1.3-1.6,2.5-1.8c.4.2.7.7,1-.2.2-.7.9-1.3,1.7-.9s.3,1.2,0,1.9c-1.5,2.6-3.4,4.9-5,7.7-.8-1.2-.4-2.2-.6-2.8-.3,1.6.3,3.2,1.1,4.7,1.2,2.2,1.3,4.5,1.1,6.9,1.4,2.9.7,5.9.6,8.9,0,.5-.3.9-.2,1.3.2.7,0,1.6.8,1.8.8.3,1.2-.6,1.7-1.1,1-1.4,2.4-2.5,4-3.4.8-.4,1.7-.8,2.6-.6,1.8.7,3.4.6,4.8-.8s1.5.4,1.6.3c.7-.8,1.4-.6,2.2-.3,2.5,1.1,3.4,3,3.7,5.5,0,.7,0,1.4.7,1.9,1.2.8,1.8,2,2.6,3,2.4,3,6.2,3.1,9.5,4.5.5.2.9.3,1.3.6.3.3.6.5.9.7-.3-.2-.6-.3-.8-.6-.3-.4-.4-1.1,0-1.2,1.8-.2,3.1-1.5,4.8-1.3.7,3.4,4.3,2.9,6.7,4.1l.2.2c10.8,1.7,15.2,9.3,18.5,17.7,2,4.8,4.4,9.4,6.2,14.3,2,5.6,3.6,11.2,4.9,16.9,2.8,11.6,3.7,23.4,5.6,35.2.7,4.9,2.7,9.6,2.8,14.7,0,13-3.4,24.8-12.2,35.2-3.8,4.5-7.9,5.5-14.1,3.2-1.8-.7-3.5-1.3-5.3-2-1.1,0-2.1-.5-3.1-.8-.4,0-.7-.4-1.1-.6-.5-.3-.8-.6-1.3-.8-.4-.3-.7-.4-1.2-.6-7.7-2.4-13.2-7.3-17.8-13.3-.4-.5-.8-1-.9-1.6-.6-2.8-3.6-4.2-4.8-6.7-1,2.3-.8,4.5-.6,6.7.4,2.4,0,4.6.2,6.9.3,5,1.7,9.7,3.8,14.3.3.7.6,1.3.6,2,.7,3.4,2.7,6.2,4.6,9,.9,1.4,2.4,2.5,3,4.2.6,2.4,2.3,4.2,3.4,6.4.5.9,1,1.9,1,3,4.2,10.5,10.6,20,16.3,29.8,1.9,3.3,3.1,6.8,4.8,10.1,3.2,5.9,5.3,12,8.1,18,3.7,8,7.6,16,10.5,24.4,2.2,6.5,6.2,12.5,7,19.4.8,7.1,6,11.7,10.4,16.8,3.4,3.8,7.1,7.4,9.8,11.6,2.5,3.9,4.1,8.1,3.8,12.7-.4,7.7-8.1,15.7-16.4,16.6-2.3.3-4.8.7-7.2.7s-6.2-.8-8.6-2.9c-.8-.8-2-1.1-3.2-1-1,0-2.2.3-3.2,0-2.2-.6-3,.5-3.8,2.2-1.5,3.5-4.5,5.9-7.6,8-3,1.9-4.5,4.4-5.4,7.6-2.7,10.2-3.9,20.6-6.9,30.7-1.8,5.9-2.5,12.1-4.4,17.9-2.2,7.1-3.4,14.4-4.7,21.7-.9,5.5-2.1,11-.9,16.8.6,2.5,2.1,4.2,3.6,5.9,4.3,5.1,7.1,10.9,9.6,16.8,3.9,9,4.7,18.1,4.9,27.7.2,9.4-1.2,18.6-3.6,27.7-2.9,10.9-4.2,22.3-8,32.9-2.5,7-3,14.3-5.3,21.3-.3.8.4,1.2.8,1.8,6.2,6.8,9.5,14.8,10.7,23.5.7,5.9.3,11.7-.6,17.6-.9,6.5-1.7,13-5.3,18.9-3.5,5.9-8.2,10.3-16.2,10-4.1,0-8.3,0-12.2-1.4-4.8-1.7-8.5-4.7-11.8-8.1-6.1-6.2-7.5-13.6-6.5-21.6.6-4.6.8-9.3,1.1-13.8.4-7.4,1.9-14.6,6.2-20.9,2.6-3.6,2.6-6.5.8-10.3-2.3-4.7-2.7-9.9-4-14.9-2.7-10.8-4.1-21.7-7.2-32.4-2.1-7.4-5.8-14.3-8-21.5-1.1-3.6-2.2-7.3-3.3-10.9-.5-1.7-1.1-3.4-2.3-5.3-.7,5-1.5,9.5-2.1,14.1-1.4,9.8-2.1,19.8-5.3,29.3-4,12-5.7,24.3-8,36.5-.7,3.6-1.5,7.1-2,10.7-.2,1.1,0,2,.8,2.9,6.1,7.5,9.3,15.9,9.9,25.2.5,7.6-.2,15.1-1.4,22.6-.9,5.6-3.3,10.8-7.6,15.1s-4.8,3.8-7.8,4.2c-5.7.7-11.4,1.1-16.9-.9-4.3-1.6-7.8-4.2-11.1-7.3-6.2-5.8-7.9-12.9-7.6-20.8.3-6.4.2-12.8.7-19.2.6-5.9,1.6-11.6,5.2-16.6,1.3-1.9,2.1-3.8.8-6.3-2.4-5.2-3.4-10.9-5.2-16.2-3.1-9.2-6.1-18.3-9.2-27.5-3.7-10.9-5.9-22.2-5-33.7.5-7,.6-14.1,1.8-21,1-5.3,3-10.4,4.5-15.6,2.5-8.9,6.4-17.2,9.9-25.8,1-2.5,1.4-5.3.7-8.2-1.4-6.4-2.7-12.9-4.7-19.3-3-9.6-5.8-19.4-9.9-28.8-3-6.8-6.4-13.4-10.4-19.6-2.6-4.1-6.1-7.6-9.7-10.9-.5-.5-1-.5-1.6-.5-2.6,0-5.3,0-7.7-1.2-.6-.3-1-.2-1.5.3-1.9,1.7-4.2,2.7-6.5,3.7-3.1,1.3-6.3,1-9.3,0-5.5-1.8-11-3.8-15.1-8-2.1-2.2-4.3-4.3-5.9-6.9-2.4-3.9-1.2-8-.7-12,.5-3.6,2.2-6.9,3.6-10.3,2.3-5.8,2.5-11.7,2.6-17.7.2-8.1.3-16.2.8-24.4.4-6.2,3.1-12,5-17.9,3.6-10.8,9.3-20.6,15-30.4,5.6-9.6,13.3-17.7,21.6-25.4,3.2-2.9,5.7-6.1,7.1-10.3,1.3-4,3.7-7.6,5.7-11.5.5-.9,1-1.1,1.7-.4v.4-.7c.6-3,1.4-6.1,3.8-8,4.2-3.4,3.8-7.9,4.8-12.2.5-2.2,1.1-4.3.8-6.4-.2.8.3,1.8-.4,2.8-1.2-.7-.9-1.7-1-2.6,0-.8.2-1.7-.7-2-.8-.3-1.6.2-2.2.7-.7.5-1.2,1-2.1,1.2-1.7,0-3.1,1-4.6,1.7-4.3,1.4-8.4,3-12.5,4.7h-.7.5Z"/>
              <path class="cls-36" d="M98.3,81.1c1.6-5.4,4-10.5,7-15.2,2.8-4.5,5.4-9.5,10-12.6,4.4-3,8.8-6.2,13.8-8.5,2.7-1.2,5.6-2.1,8.3-3.1,5-2,9.9-.9,14.7.3s1.6.2,2.3,0c2.6-.9,4.9-2.4,8-1.4.9.3,2.1-.5,3.3-.8,3.2-1.1,6.2-.8,9.1.9,3.1,1.6,5.3,4.1,8.1,5.9,1.4,1,3.2,1.6,3.6,3.6.2.7,1.4,1.2,2.2,1.7,6.6,4,12.4,8.8,15.6,15.7.6,1.1,1.9.5,2.2,1.7,1,2.9,2.8,5.6,3.6,8.6.3.9.5,1.9,1.5,2.6,0-2.3-.8-4.2-1.5-6.5,1.3,1.7,1.6,3.4,2,4.9,1.8,8,3.2,16.1,2.8,24.4-.2,4,.4,8.1,1.6,12.1.2.8.3,1.5,0,2.5-.4-1.3-.7-2.5-.9-3.6h-.7c1.5,7.8,2,15.9,3.3,23.7-.8,0-.5.4-.5.8,0,.8,0,1.6-.2,2.5-.3.5-.6.9-1.2,1.1-.3-.2-.5-.3-.3-.7-.4,0-.2.4,0,.6,0,.5,0,.9-.5,1.2-2.9,1.2-3.2,1.3-3.7-1.6-.5-2.3-2.8-3.5-3.1-5.9,0-.9-.4-1.9-.3-2.9.6-4.2-.2-8.3-3-11.9-1.6-1.9-1.5-4-.7-6.1.3-.5.6-1.1,1.2-.4.6.7.6,1.4.5,2.2-.2.3.4,0,0,0s0,0,0-.2.2-.6.4-.6c2.8.5,2.1-1.3,2.1-2.7.2-5.1-.2-10-2.5-14.7-.4-.8-1-2,.8-2.5,1-.3,1.1-5.3.2-6-3-2.6-5.3-5.8-8.1-8.5-3-2.9-2.8-3.3.2-5.9,2.2-1.8,2.5-4.1.4-5.9-2.8-2.4-5-5.2-7.6-7.7-.5.5,0,1.5-.9,1.5s-.9-.8-1.2-1.2c-.7-1-1.3-2.2-2.1-3.1.7.9,1.2,1.9,1.8,2.8.2.4.6.8,0,1.2s-1.1.2-1.6-.2c-.5-.4-.7-.8-.9-1.3-1.5-2.3-3.2-4.3-4.8-6.5-2.7-3.4-6.2-5.4-10.1-5.9.7.3,2.1.4,3.4.8.5.2.8.6.8,1,0,.6-.7.4-1.2.6-1.8.8-3.5,1-5.4,0-.7-.4-1.8,0-2.7-.2h2c2,.2,3.2,1.4,2.6,3.2-.7,2.6.7,4.5,2.3,6.2,2.6,2.5,5.1,5.1,7.6,7.6s1.7,1.7,1.5,3c0,.8.4,1.3.7,1.9,1.8,3.6,4.3,7,4.3,11.2s0,.4,0,.5c2.9,2,1.6,4.8,1.6,7.3s1.1,4.5.6,6.9c-.5,1.2-1.1,2-2.6,1.7-1.4-1.9-1.2-4.1-1.3-6.2,0-2.3-.2-4.6-.5-5.9.7,2.6,0,6.3.8,9.9,0,.5,0,1-.6,1.1-.7.2-.9-.6-1.1-.9-.5-1.5-.8-3-.7-4.5,0-1.1,0-2.2-.6-3.1,1.2,1.4.4,3,.6,4.4.2,1.8.7,3.5,1.1,5.2.2.8.6,2-.5,2.3s-1.5-.8-1.7-1.6c-.7-3.6-3.4-6.7-2.9-10.7,0-.2-.2-.4-.4-.6-.3,0-.7-.3-.9-.3-1.6.2-3,.2-2.1-2,.2-.5-.6-.8-.8-1.1,1.3-.7.2-1.6.3-2.4,0-.2,0-.3.3-.4,2.9-1.6,3.4-3.3,2.1-6.2-1.1-2.6-3.8-4.2-4.8-7-.5-1.3-1.1-2.5-1.6-3.9,0-.6-.2-1.1.3-1.7-.6.4-.2,1.3-.8,1.7-.9-.8-1.8-.5-2.7,0-.9-.6-1.7-1.5-2.7-1.9-.7-.3-1.2-.9-.8-1.4.9-1.1,0-1.8-.7-2-2.4-.5-4.7-2-7.4-.9-.5.2-.9.3-1.5.3-3.4-.2-6.8-.6-10.3-1-3-1-3.2-.9-3.4,2.2,0,.7-.2,1.4-.7,1.7-1.5.8-2.4,2-3.4,3.1-.8.8-1.7.7-1.8-.7,0-.8-.4-1.4-.7-2.2-.8-1.8-1.9-2.2-3.4-.7s-3.6,2.5-5.3,3.9c-.4.4-1,.8-1.5.5-.7-.5-.2-1.2.2-1.6,2.1-2.3,3.7-4.9,5.7-7.4.9-1.2,2.2-2.3,2.5-3.9.3-1.5,2.2-1.4,3.1-2.5-3,1.1-5.8,2.6-8.4,4.4-.6.4-1.1.9-1.9,1.1-1,.2-2.1.4-1.7-1.2,0-.4.4-.8,0-1.1-2.7-2.4.3-3.1,1.4-4.4.2-.2.6-.4.4-.4-2.2,1.4-4.7,3.3-6.7,5.7.3-.2,0,0,0,0,.7-.5,1.3-1.3,2.1-.7.7.6-.2,1.2-.7,1.8-.9.9-1.8,2.1-3,2.7-3.3,1.7-4.5,4.6-5.9,7.6-3.1,6.1-5.8,12.3-7.7,18.8-1.4,4.6-2.2,9.3-2.1,14.1,0,.6.3,1.3-.7,1.5-.7,0-1-.5-1.1-1-.2-1.3-1.4-2.5-.7-4-.7.3-.6.9-.6,1.4,0,2.6-.7,5.2-1.2,7.7-.7,2.9,0,6.1.2,9.2,0,.9.9,1.3,1.6,2,1.1,1.1,2.2,2.3,1.2,4.1-.7,1.1.8,2.3.7,3.5,0,.3.6,0,.2,0s0,0-.2-.2c0-.5-.2-1,.4-1.2.7-.3,1,.4,1.2.8.7,1.2,1.5,2.4,2.4,3.5.5-.6.4-1.2.5-1.8,0-.7-.3-1.6.7-1.7.9,0,1.5.6,1.7,1.4.4,1.8,1,3.6,1.1,5.5v1.6c.3-2.5-.7-5-1.1-7.5-.2-1.1-1.2-2.8.3-3.2s3,.9,3.4,2.5c.6,1.5,1.1,3.1,1.1,4.7,0,4.2.2,8.5-.6,12.7-.5,2.6-2.5,3.9-4.5,5.2-.9.6-1.8.3-2.1-.8-.6-1.4-.8-2.8-.2-4.2.8-1.5.9-3.1.7-4.7-.3-2.3.7-4.4,0-6.5-1,4.4-.8,9.2-1.4,13.8-.4,3.2.7,4.9,3.1,6.7,1.5,1.1,1.2,4.4-.2,5.7-.7.6-1.4.2-2.1,0-4.1-1.4-5.9-4.5-6.8-8.2-.9-3.8-.7-7.7-.3-11.5.3-2.3.4-4.4-.9-6.7-1.3,4.2-1.5,8.2-1.5,12.3s0,4.9-1.1,7.3c-.6,1.1-1.1,1.4-2.6.3,1.6,2.6,1.3,5.1,1.2,7.6-.2,3.5.5,7,.3,10.4,0,1.3-.3,2.6-1.6,3.5-.7.5-1.4,1.3-2.1,0-.4.8-.8,1.5-2.1,1-2.2-4.2-3.7-8.5-4.3-13,0-1.4,1.2-2.5.7-4.1h-.2c.3-1.2.3-2.3,0-3.4-.7-7.3,2.5-13.9,4.4-20.7.3-1.1,1.4-1.8,1.7-2.9,1.8-4.9.7-9.9.8-14.9.3-4.7,0-9.4,1.4-14,.3-1,.6-2.1,1.3-3,.8-.9.7-2,.4-3,0-.2,0-.3-.2-.5,0-3.2.7-6.2,1.9-9.3.4-1.1.7-2.2.5-3.4h0v-.2l.4-.4Z"/>
              <path class="cls-28" d="M205.1,114.6c-1.1,3.4.7,5.9,2.5,8.7,1.9,2.9,1.8,6.3,1.5,9.6-.2,2,.7,3.4,2.1,5.2.9,1.1.9,2.8,1.4,4.3,0,.4,0,.8.2,1.2,1-.4,1.8-.9,2.9-.8,1,1.1.7,2.5,1,3.6,0,.6.5,0,.2.2v-.2c0-1.6-.8-3-.6-4.6l1-.9c1.3,0,1.2,1.1,1.3,1.9.6,3,1.4,6.1,1.1,9.3.4,2.2.7,4.3,1,6.4,0,2.4,1.5,4.5,1.2,7,.2-2.5-1.2-4.6-1.2-7,3.1,3.5,2.7,7.6,2.4,11.6,0,1.1-.3,2.3-.4,3.4,0,.6.2,1.3-.9,1.3,0-.8,0-1.8-1.4-1,0,0-.3.2-.5.2-1,0-1.8,1.7-2.8.7s0-2.2.3-3c.3-.4-.2-.3-.2-.2,0,1.5-1.3.9-2.1,1.1-1,.9-2,2-3.7,1.6-.9-.2-.4.8-.7,1.1h0c-2.8-.7-5.8-1.1-8.4-2.4-1.8-.8-3.3-2.4-4.4-4.1-.3-.6-.5-1.1-1.1-1.4-.7-.7-.7-1.5-.7-2.4,0-2.5-1.4-4.2-3.9-5-.8,0-1.7.5-2.7,1.8-.5-.8.6-1.2.4-1.9-.4-.4-.8,0-1,.3-1.1,1.5-2.3,2-4.1.9-1.1-.7-2.2-.2-3.2.5-1.2.8-2.4,1.8-3.4,2.9-.7.8-1.6,2.5-2.7,1.9-1-.5-1.2-2.2-1-3.5.6-3,.9-6.1-.3-9.2-.2-.3-.3-.8,0-.8,1.1-.6,1.3.6,1.9,1,.4-.6,0-1.9,1.2-1.8,1,0,1,1.1,1.2,1.8.2.8.2,1.5,0,2.3-.5,1.5.4,2.3,1.9,2.4,1.4.2,1.9-.4,1.4-1.8-.2-.5.6-.7,1-.8-1.1-.6-3-.2-3.1-1.9,0-1.2.7-2.4.5-3.5-.2.5.3,1.3-.8,1.4-.7,0-.9-.6-1.2-1-1-1.6-1.4-3.3,0-4.9.3-.3.6-.6.6-1,.8-5.9,5-10.1,8.1-14.9.2-.2.4-.2.6-.3.8-1.7-.2-3.4.2-5,.2-.9-.2-2,1.1-2.8,1.3,2.1.4,4.5,1.5,6.7,0-1.4-.2-2.6-.3-3.9,0-1,0-2.1,1.3-2.5,1,.2,1,.9,1.1,1.6.9,5.3.8,10.5-1.4,15.5-.8,1.8-.7,3.3.7,4.9,1.6,2,2.3,4.4,3.6,6.5.5.8,0,1.4-.5,2.1-1.8,2.2.2,6.4,3.2,7,1.1.2,1.3-.6,1.3-1.2,0-1.7-.7-3.2-2.1-4.2-.9-.7-1.4-1.2-1.4-2.5s-1.4-2.7-2.1-4.2c-.3-.8-.8-1.3-1-2.1-.4-1.4.2-1.9,1.7-1.6.7.4.9,1.1,1.1,1.8.3,1.4,1.4,2.1,3.2,2.5-.7-1.4.2-3.1-2.1-3.7-.9-.3-.9-1.4-.9-2.3,0-3.2,0-6.4.7-9.6.7-3,0-6.1-.7-9.2-.4-1.5-.7-3,0-4.5.8-1.6,1.3-1.6,2.7-.2,0,.3.2.6,0,.8-.7,1.5-1.4,2.9-.7,4.6,1.3,3,2.1,6.3,5,8.6,1.1.8,2,.8,2.9,0,1.2-1,1-2.2-.7-3-1.3-.7-2.9-1.1-2.7-3,0,0,.3-.2.5-.2.8-.4,2.1.7,2.8-.8.6-1.4-.6-2.1-1.3-3-1.2-1.5-2.6-2.9-2.8-4.8,0-.9-.6-2.3,1.5-1.7,0,0,.2,0,0-.3-.5-1.4-.2-2.9-.3-4.3,0-.6,0-1.4.9-1.4s1.1.6,1.4,1.1c.4.9-.2,2,0,3h0v-.2l.2.2Z"/>
              <path class="cls-28" d="M67.7,314.2c.4-.4,4.5-1.9,4.8-2.5,1.4-2.1,4.3-.7,5.8-2.3.4-.4,1-.5,1.7-.4,1.6-.5,3.2-.9,4.6-1.9,1.3-.3,2-1.5,3.3-2,2.1-.7,2.6-.5,2.8,1.7v3.7c.8-1.6.2-3,.8-4.6.5,6.6-.7,12.6-2.7,18.4-.2.6-.6,1.1-1,1.5-.9.8-.9-.8-.9-.6,0,1.7-2.1,2.4-2.5,3.8,0,0-2.8,7.4-2.9,7.5h-.6c-.3-.9.8-1.6.7-2.6-.7,0-.7.8-1.3,1-.2-.2-.5-.6-.7-.6-.7,0-.6,1.6-1.6.8-.7-.6,0-1.3.4-1.9.4-.8.4-1.6.3-2.5-.8.7-.4,1.8-1.7,2.5,1.6-3.6-.7-5.6-2.9-7.8-2.5-2.7-3.6-6.1-4.9-9.4-.3-.7,0-1.8-1.3-1.9h-.2Z"/>
              <path class="cls-51" d="M224.8,310.5c.3,0,.5.3.7.4,1.4.8,2.2,2,1.9,3.6-.2.9.3,2,.3,2.9-.3,4.2-1.3,8.2-2.9,12.2,0-1.1.2-2.3.4-3.6-.7,1.5-.7,3.1-2.6,3.8-.7.2-.7,1.2-.9,2.2-.6,2.7-1.8,5.4-2.9,8-.4.8-1,.6-1.3-.2-.6-1.4-1.3-.6-2-.2-2.2-1.5-2.5-4.2-4-6.1-.6-.8-.9-1.8-1.5-2.6-2.6-3.5-5.3-7-7.1-10.9-.3-.7-1.2-1.2-.5-2.1,2,1.1,2.4,3.2,3.5,4.9.5.8.8,1.5,1.3,2.3-.7-1.2-1.5-2.4-1.8-3.8-.2-.8-.2-1.7.7-2,1-.4,1.5.5,1.9,1.1.3.6.6.8,1.5.9,1.8.3,2.8,1.9,3.5,3.3s2.2,2.9,3.7,4c.9.7,1.7.6,2.1-.5.6-1.1,1.4-2.1,2-3.2.2-.4.4-1,.9-.8s.6.8.5,1.2c0,.7-.3,1.3-.6,2,.7-1.8.7-3.9,1.4-5.7-.3.7-.2,1.4-.8,2-1.3-.7-1.4-2-1.7-3.1-.7-2.6-1.1-5.3-1.7-7.9-.3-1.4-.5-3.2,2.2-2.7.7,0,1-.8,1.7-.8s.7,0,.9.5c-.4,1.1.7.6,1.1.9h-.2.3Z"/>
              <path class="cls-57" d="M209.7,330.9c2.5,1.7,2.8,4.6,4.4,6.8.5.6.7,1.3,1.2,2-.2.2-.5.4-.7.7-1.7-3.1-4-5.9-4.9-9.3h0v-.2Z"/>
              <path class="cls-50" d="M183.8,357.3c-9.5.8-18.9,1.5-28.5,1.6-6.1,0-12,.5-18.2.4-9.1,0-18.1-1.6-27-3-9-1.4-17.8-4.1-26.5-6.8-1.2-.4-2.3-.8-3.9-.6,1.1-3.3,2.6-6.2,4.4-9.2,3.3-5.4,6.8-10.6,9.7-16.1,1.6-3,2-6.5,2.1-9.9.2-4,0-8,.5-12,.2-1.8.9-3.2,2.1-4.5,1.8-2.1,3.4-4.3,5-6.5,3,.5,7.3-1.7,8.2-4.5,1.6-4.8,4.4-9.1,7.3-13.1,1.9-2.5,3.1-5.5,5.4-7.7.6-.5.7-1.2.7-1.9,0-3.7,1.2-7.4,0-11-1.4-4.4.9-7.8,3.7-10.9,1-1.1,2.1-2.2,2.6-3.6.3-.8.9-1.7,1.9-1.7,2.9,0,5.4-1.1,8.3-1.2,3.6,0,7.1.7,10.5,1.4.8.2,1.8.6,2.7.3,4.1-1,8.3-1.8,12-3.7,2.1-1,4-.9,5.9,0,3.6,2,5.8,4.7,5.7,8.9,0,3.6-.4,7.3.7,10.9.5,1.3-.2,2.6-1.3,3.6-1,.8-1.8,1.9-2,3.1-.7,4.6-.6,9.1,1.5,13.6,1.5,3.1,4.5,4.8,6.4,7.5,1.8,2.5,3.4,5.2,5.5,7.6,1.5,1.6.7,4.3,1,6.5.3,1.3.2,2.7.6,4.2.4,1.8.2,3.4-.8,5.1-1.1,2.1-1.1,4.5,0,6.7s1,2.8,0,4.2c-.7,1.1-.7,2.1,0,3.2.8,1.1,1,2.5.2,3.7-1.7,2.3-1.5,4.7-.8,7.2,1.1,3.9.6,7.6-.3,11.4-.2.9-.6,1.9-.7,2.9-.2,2.5-.8,4.5-3.6,5.8-2.1.9-2.7,4.8-1.6,6.8.3.6.7,1,.3,1.7h.2v-.4Z"/>
              <path class="cls-10" d="M159.8,584.8c0,7.1.5,14.2-.7,21.2-2,10.9-6.4,21.3-8.2,32.3-1.1,6.7-2.5,13.3-2.4,20.2,0,5-.8,9.9-2.1,14.8-.9,3.8-1,7.7-2.3,11.5-2.9,8-4.6,16.3-7,24.4-.5.4,0,1.3-.7,1.5-1.9-.2-3.1-1.4-4.4-2.5-1.3-1.2-2.8-2-4.5-2.4-3.4-.8-6.7-1.7-9.8-3.3-1.8-.9-3.3-.8-4.5.9-1.3,1.7-2.2,1.7-3.5,0-2.3-3-4-6.4-5.4-9.9-4.8-11.8-6.2-24.2-5.6-36.6.2-3.7,1.8-7.3,2.1-10.9.4-5.2,1.3-10.3,2.2-15.3.4-2.1-.7-3.1-2.6-4-1.5-.7-3.5-.6-4.1-2.5,1.9-6.7,4.1-13.2,7-19.5,1.7-3.7,3.4-7.4,4.2-11.3.7-3.3.6-6.6,0-10-2.1-10.9-5.3-21.4-8.6-31.9-2.5-8.1-6.7-15.5-10.7-23-.5-.8-.8-1.6-1.3-2.5,0-2,1.5-1.4,2.4-1,2.1.8,4.5,1.2,6.7,1.6,2.1.4,4,0,6.1-.8,6.8-2.6,13.8-4.2,21.3-4,1.4,0,2.7.2,3.6,1.2,2.2,2.5,5.3,3.7,8.2,5.1,2.3,1.1,4.5,2.4,6.8,3.3,2.1.9,3.4,2.4,4.3,4.2,2.1,4.2,2.4,9,3.5,13.4,1.7,6.7,1.9,13.6,4.1,20.2.7,2,1.1,4.1,2.2,5.9.4.7.8,1.5,1.7,1.6,2.1.3,2.2,1.6,2.1,3.2,0,1.7-.2,3.4,0,5.1h0v-.3h-.1Z"/>
              <path class="cls-61" d="M160.4,638.1c-3-3.2-2.5-6.8-1.2-10.4.2-.6.4-1.1.7-1.7.3,0,0,0,.2,0,2.4-.3,5-.7,6.5-2.8,2-2.8,3-6,3.5-9.3.7-4.8.9-9.6.7-14.5-.6-9.5.7-19.2.4-28.7v-2.5c-.4-2.6-1.9-4.1-4.6-4.4-1.3-.2-2.4-.4-3.1-1.6-.4-7.8-3.6-15.3-3.6-23.1v-.9c-.2-1.8.7-2.9,2.5-3.2.9-.2,1.8-.6,2.3-1.2,3.9-4.5,9.1-7.8,13-12.5,1.7-2,4.4-2.1,6.9-1.7,4.7.7,9.2,2.2,13.9,2.5.6,0,1.1.2,1.8.2,4.8-.5,8.8,1.3,12.5,3.8,1.7,1.1,3.1.8,4.4-.5.8-.8,1.6-1.6,2.7-2.1.5-.2,1.3-.8,1.4.4-1.9,9.6-3.9,19.3-6.2,28.9-2,8.1-4.7,16.1-5.8,24.5,0,.6-.4,1.1-.6,1.8-.4,1.1,0,2.3-.3,3.3v1.8c.5,3.2.3,6.4-.4,9.6-1,5.1,0,9.7,3.1,14,.8,1.2,1.8,2.4,2.3,3.8,1.5,2.5,3,4.9,4.5,7.5.4.8.7,1.5,1,2.3.2.8-.4,1.2-1.1,1.2-1.7,0-2.1,1.2-2.4,2.5-1.4,4.2-.2,8.1.6,12.2.7,3.8,1.2,7.6,1.2,11.5s.2,3.4.9,5c.9,1.9.7,4,.4,5.9-.6,3.4-1.5,6.6-3,9.8-1.4,2.8-2.2,5.7.6,8.4,1,1,.7,2.5,0,3.8-2.6,4.9-3.1,10.2-4,15.5-.2,1.1-.7,2.1-1.4,2.9-1.7,2.5-3.6,4.8-5.1,7.4-1,1.9-2.8,2.8-5.1,2.8h-4.5c-3.1,0-3.9-.6-4.4-3.3-.9-5.4-1.7-10.9-2.1-16.3-.5-6.2-.5-12.6-2.5-18.6-1.3-3.8-3.6-7.3-6.2-10.6-1.4-1.8-2.8-3.5-3.8-5.5-2.5-4.9-6.5-8.6-11.3-11.5-1.3-.8-2.3-2-3.7-2.7-1.3-.8-1.3-2.1-1.5-3.3h0v-.4Z"/>
              <path class="cls-10" d="M47.8,274.7c.2-3.6,1.4-7,2-10.4,1.1-6.2,2.3-12.5,2.9-18.8.8-9.9,4-19.4,6.5-28.9.7-3,1.7-5.9,2.6-8.9,1-3.6,2.5-7,4.5-10.2,2.4-3.9,4.6-7.8,7.3-11.6,1.5-2,3.5-3,6.1-3.7,4.5-1,8.9-2.2,13.6-2.6.3.3.5.7.4,1-1.4,4.5,1,8.4,2.3,12.5.2.6.6,1.1,1,1.5,3.9,3.3,3.8,7.5,3,11.7-.2,1.1-.7,2.2-1,3.3-.6,2.1-.8,4.2.3,6.3.3.5.5.9,0,1.5-1.8.4-2.5-.2-3.1-1.9-.9-3.1-2.2-6-3.5-9.1-.3-.6-.6-1.5-1.4-1.3-.9.2-1,1-1,1.9s.5,1.3.8,1.9c2.1,3.6,3.2,7.6,3.8,11.6.2,1.2-.2,2.4-1,3.5-5.2,6.6-8.9,14-12.3,21.5-1.7,3.8-2.6,7.9-3.8,11.8-.2.4-.6.8-.9.5-1.9-1.5-3.1,0-4.2.9-3.2,2.6-4.7,9-2.4,12.4,1.1,1.6,1.5,3.7,3.3,4.8,1.5.9,3.1,1.8,4.8.6,1.6-1.2,2.1-2.9,1.8-4.8,0-.5-.6-.9-.6-1.5s.2-.9.4-1.3c2.7-16,8.4-31.1,18.7-44.3,1.6-2.1,3.4-4,5.2-5.9,6.7-7.1,7.2-15,3.4-23.4-2-4.6-4.4-9.1-5.1-14.1-.2-1.4-1.3-3.4.7-4.2,1.9-.8,2.6,1.3,3.4,2.5,2.1,3.3,3.6,6.9,5.3,10.4.2.5.5.9.8,1.4s1,.6,1.6.4c.8-.4.3-.8,0-1.3-2.2-4.7-4.3-9.4-6.8-14.1-1.3-2.5-.3-4.3.7-6.3.6-1,2.6-.7,3.4.8.8,1.6,1.6,3.2,2.2,4.9,1.2,2.5,2.3,5.1,3.5,7.6.3.6.6,1.3,1.4,1,.9-.3.7-1.1.4-1.8-1.8-4.2-3.6-8.3-5.4-12.4-1-2.3-1.3-4.6-.5-6.9.6-1.5,1.3-2.2,3.1-.8,1.3,1,1.9,2.3,2.4,3.7,1.9,4.7,3.6,9.3,5.5,14.2,1.4-.9.7-1.8.5-2.7-1.3-4.2-2.5-8.4-3.9-12.6-.3-.8,0-1.3.8-1.6,1.3-.6,2.2.2,2.7.9,1.4,2,2.5,4.2,3.4,6.4,2,5.1,1.5,10.5,3,15.6.3.9-.3,2.7,1.7,2.6,1.5,0,2.4-1.3,2.7-2.6.5-2.5,1.4-4.6,3.8-6.1,1-.7,2.1-1,3.2-.3,1.1.7,1.3,1.7,1.1,2.8-.4,2.5-1.5,4.9-2.8,7.1-1.8,3-2.6,6.2-2.2,9.5.5,4.8-1.5,8.7-5.2,11.9-4.9,4.3-7.2,10.2-8.7,16.1-2.6,10-4.9,20.1-8.9,29.7-3.8,9.1-7.8,17.9-13.1,26.3-7.2,11.5-17.9,18.8-31,23.1-2.1.8-4.2,1.9-6.7,1.3.4-3.3-1.2-6.1-2.9-8.9-4-6.5-7.4-13.3-9.6-20.6-.6-1.8-1.5-3.2-3.4-3.9h-.3l-.3.4Z"/>
              <path class="cls-10" d="M211.2,180.5c3.4.3,6.7,1,10,1.9,1.2.3,2.3.7,3.5.9,2.2.4,4,1.7,5.2,3.6,5.9,8.8,10.2,18.1,13.1,28.1,2.4,8.5,5.2,17,6.2,25.7,1.2,9.9,3,19.7,4.7,29.5,1.3,7.5.7,14.5-1.4,21.7-1.5.8-3.3.3-4.6,1.4-1.6,1.4-2.9,2.7-3.2,4.8-.2,1.3-.7,2.5-1.7,3.6-2.6,3.2-4.6,3.6-8.3,1.5-2.4-1.3-5.1-2.2-7.6-3.4-2.6-1.3-5-2.6-7.5-4.2-3-1.9-6.3-3.3-10-4-.6,0-1.1-.2-1.6-.6-4-4.1-6.6-9-9.2-13.9-3.6-6.9-5.1-14.4-7.4-21.7-2.9-9.8-7.3-19.2-10.4-28.9-2.1-6.5-5.9-12.1-10.1-17.4-1.8-2.3-2.8-4.8-2.7-7.6.2-5-1.4-9.5-3.7-14-.7-1.3-.9-2.7-1.3-4.2-.2-1,.2-2,1.2-2.6s2-.3,3,.4c2.2,1.4,3.3,3.4,3.6,5.8.2.9.5,1.6,1.1,2.3.6.5,1,1,2,.8.8-.3.8-1,1-1.7,1.5-5.3,1-10.9,2.9-16.1.8-2.4,1.9-4.6,3.3-6.7.6-.8,1.5-1.5,2.7-1,1.3.6.8,1.4.6,2.4-1,4.2-2.1,8.2-3.6,12.2-.3.8-.6,1.6.6,2.5,1.5-3.9,2.8-7.6,4.3-11.3.9-2.4,1.1-5,3.6-6.7,1.3-.9,2-.6,2.5.6,1.1,2.4.8,4.8,0,7.2-1.6,4.2-3.4,8.2-5.2,12.3-.3.7-.8,1.7.2,2,.9.4,1.3-.8,1.6-1.4,1.7-3.8,3.4-7.6,4.9-11.3.5-1.1,1.2-2,2.7-2s1.3,1.3,1.8,2.2c.9,1.6.7,3.2-.2,4.8-2.1,4.3-4.2,8.7-6.2,13-.3.7-1.3,1.7,0,2.2,1.2.5,1.7-.7,2.1-1.5,1.9-4.1,3.4-8.2,6.1-11.9.6-.8,1.1-1.7,2.3-1.3,1.4.4.8,1.5.7,2.4-.3,5.6-2.9,10.6-5,15.7-1.6,3.8-2.6,7.6-2.2,11.7.4,4,1.9,7.8,4.7,10.9,3.7,4.2,7.4,8.3,10.2,13.1-2.1,3.3-.7,6.7,0,9.8.9,3.4,2.5,6.7,3.8,10,1.7,4.5,2.4,9.3,3.6,13.9.4,1.5.7,3,1.6,4.3.8,1.2,1.7,2.4,3.5,2.1,1.1-.2,1.3.8,1.9,1.1,2.5.4,3.4-.2,3.5-2.5.2-2.5-.5-5.1-1.1-7.6-2.3-9.7-5.2-19.2-10.4-27.9-1.4-2.5-2.8-4.9-4.2-7.3,0-2.3.3-4.4.9-6.6.8-2.8,1.6-5.7,2.4-8.5.4-1.2.6-2.5-1.7-1.7-.7.2-1.7.5-1.1-.8.5-1.3,1.8-3.2,0-3.9s-1.9,1.6-2.3,2.7c-1.2,2.8-2.1,5.8-3.1,8.6-.4.5-.6,1.2-1.5.9-1.2.2-2-.6-2.4-1.4v-.7c2.6-1.9,2.3-4.5,2.2-7.2v-4c-.3-3.2.9-5.8,3.6-7.6,1.6-1.1,2.4-2.7,2.4-4.6s1-3.7,1-5.7,0-3.6-1.5-5c-.5-.5-.9-1.1-.4-1.9h0v-.2h0Z"/>
              <path class="cls-65" d="M128.4,471.5c0-15-.4-30.1,1-45.1,1-10.9,1.5-21.9,1.5-32.8s.5-4.7.7-7.1c.5-1.5-.2-3.1.4-4.6v-3.2c.4-1.6,1.7-1,2.5-.8,2.1.6,3,2.1,3.1,4.1.2,2.5-.4,4.7-1.1,7.1-1.3,4-1,7.9,0,11.9.7,2.5,5,3.9,7.5,2.8,2.8-1.2,4-2.8,4.1-5.9,0-4.2,6-6.7,10-4,1.8,3.5,2,7.4,2.4,11,.7,4.9,2,9.6,2.6,14.5.7,6.1,2,12.2,2.3,18.3.6,9.8,1.1,19.7,1.3,29.5v1.6c.3,2.3,0,4.5-.7,6.5-2.1,6.6-4.6,13-8.7,18.9-1.1,1.6-1.4,3.4-1.5,5.3,0,3.2-1.2,4.2-4.7,4.3-3.6,0-6.2-1.6-8.2-4.1-6.7-7.9-12.1-16.4-13.4-26.7,0-.7-.2-1.4-.8-1.9h0l-.3.2v.2Z"/>
              <path class="cls-28" d="M118.8,160.4c-.4.8-.3-.3.2.2-.8,1.4-1.9,1-3.1.4-3.9-2.1-6.5-.7-6.6,3.6,0,1.3-.7,2.2-1.7,3-1.5,1.4-.4-.9-1.1-.6-.7-.2-1.3-.2.2-.7-.4.2-.5.6-.7.8-1,1.3-2,2.7-2.2,4.5-.3,2.3-3.2,3.7-5.3,2.8-1.3-.6-2.7-.7-3.7-.2-1.7.8-3.2-1.2-4.6,0h0v-1c1.1,0,1.4-1.7,3-.9.2,0,1.5-.9,1.6-2.1.3-2,0-3.9,0-5.9-.2-3.1,0-6.3,0-9.5s.5-1.8-.9-2.5c-1.1-.6,1.3-1.5-.2-2.6,1.5,0,1.1,1.7,2.1,1.4.8-.2.3-1.1.6-1.6,2.1-3.6.7-7.6,1.1-11.3.4-2.9,1.1-5.9,1.7-8.8,1.8,2.4,2.3,4.9,2,7.7-.7,5.4-1.1,10.7,1.6,15.9.9,1.8,2.8,3.3,6.3,4.4.5-.6-.8-1-.2-1.3,1.3-.7,1.8-2.1,1.4-2.7-.7-1.3-2.1-2.5-3.4-3.1-1.7-.8-1.9-1.5-1-2.8.4-.7.7-1.5.7-2.2-.7-4.5.3-9.1.8-13.5,0-.8.3-1.5,1-2.2,0,1.7,1.5,3.1.6,5s0,1.7,0,2.5c0,2.1.5,4.2-.9,6.2-.8,1.2.2,2.5.3,3.9,0,1,1,.3,1.7,0,3.6-1.8,4.3-5.1,4.3-8.3s.4-8.1-.7-12.2c-.6-2-2.1-2.5-3.4-4.1,0,4.4,1.9,8.3.8,12.4-.4-3.3-.4-6.7-2.8-9.4.2,1.7.2,3.2-1.4,4.5-.8-1.9-2.6-3.3-3.2-5.6-.8,1.2.7,2.1-.3,3.5-.8-2.2-1.6-4.1-2.3-5.9,2.9-1.5.3-3-.6-3.4-1.7-.7-2-1.8-1.8-2.9.4-3.9-1.4-7.7.8-11.5.7-1.1.4-2.7.3-4.2,0-1.7.7-2.9,2.7-4-1.7,2.6-.4,4.5.5,6.5-.7-7.3,1.8-14,4-20.8,2.1-6.4,5.5-12.4,8.6-18.4.3-.7.7-1.3,1.4-1.6,2.7-.9,4-3.3,6.7-5.3-2.1.3-2.5,1.8-4.2,2.2,2.4-4.3,6.1-6.8,10.3-8.7-1,2-3.4,2.6-4.6,4.7,2.1.6,2.4,1.8.9,3.6,4.5-2,8.1-5.5,13-6.4.5,1,0,1.3-.5,1.5-4.1,2.5-5.8,6.6-8.5,10-1.2,1.6-2.9,2.8-4.2,5.2,2.3-1.7,4.5-2.8,6-4.4,1.2-1.3,2.8-1.2,4.1-2,.5-.3,1.2,0,1,.6-1.1,1.9,2.6,3,.4,5.1,1.3-.4,2-.9,2.1-1.9,0-.8.3-1.4,1.5-1.2,1.4.2,1-1.3,1.7-1.9-2.1-1.6.2-2.7.8-3.4s2.1.3,3,.8c.4.8,0,1.3-.5,1.9-1.9,2.7-3.9,5.1-4.6,8.7-.6,2.7-1.5,5.8-2.8,8.5-.7.9-1.3,1.9-1.6,3,0,.2-.2.4-.3.6-1.4,2.1-1.7,4.9-4.7,5.9-.4.2-1.4,0-1.2.4,1,2.5-1.1,1.9-2.3,2.1-.3.8.4,1.2.5,1.8,0,2.4-1,4.6-1.4,6.9-.3.8-.7,1.8-1,2.6-1.9,3.1-3.4,6.4-6,9.2-1.7,1.7-.7,3.7.2,5.4,1.6,3.4,3.9,6.4,5.1,10,.8,2.5,2,4.8,2.2,7.5-.9.5-.4,1.2-.5,1.9-.8-.4-1.5-1.4-2-3,0-.3-.4,0,0,0,.7,2.4,1.2,4.8,2.5,6.8.3-1.2-2.5-2.3-.6-3.9,1,2.5,2,5,3.1,7.5.7,1.5.5,3,.4,4.4-.3,4.3.7,8.6,0,12.8-.2,1.3,0,2.9-1.5,3.9-.7-.6.3,0,0-.6,0,.7-.5.2-1.7-.2-1.4-.9-3.2-1.5-4.4-2.8-1.3-1.4-3,0-4.4-.5"/>
              <path class="cls-47" d="M73.7,489.2c.5-9.2,1.2-18.3,2.3-27.4,1.2-10.5,4.1-20.6,6.8-30.7,3.3-12.5,7-24.8,10.4-37.2.4-1.3.7-2.7.9-4.1,2.2,0,4.3,1,6,2,3.1,1.7,6.4,2.9,9.6,4.7.7.4,1.3.7,1.8,1.1,0,4.6-1.1,9.2-1.5,13.8-.5,5.5-.9,10.9-2.1,16.2-1.6,7.6-1.5,15.5-2.1,23.2-.8,8.6-1.4,17.2-2.6,25.8-.2,1.4,0,2.7-.2,4.2-1.3.3-1.8-.5-2-1.6-3.8,5.9-7.1,11.8-8.9,18.3-.2.5-.3,1-.6,1.5-.6,1.1-1.5,2-2.9,1.9-1.3,0-2.1-.9-2.4-2-.2-.4-.3-.8-.4-1.1-.3-1.3-1-2.1-2.5-2-2.4,0-4.1-1-5.5-2.6-1.2-1.5-2.6-2.7-4.1-4h0Z"/>
              <path class="cls-65" d="M196.8,453.5c-1-4.6-2.2-9.3-3-14-1.7-10.5-5.6-20.5-8.3-30.8-.9-3.7-2.4-7.2-2.8-10.9,4.3-1.5,6.8-5.1,10.1-7.6,2.4-1.9,5.3-2.8,8.3-3.5,1.7-.4,3-.8,3.4-2.5,0-.5.5-1,1.3-.8,2.1,2.5,3,5.8,4.4,8.6,3.7,7.6,7,15.6,9.5,23.7,1,3.2,2.1,6.4,3.4,9.5,1.7,4,2.1,8.2,3.1,12.4-1.1,4.7.2,9.8-2.7,14.3-1.1,1.8-.7,4-.5,5.9.3,2.4.2,4.6,0,6.9-.2,3.4-.3,6.8.3,10.2.6,3.3-.5,6.6-.5,9.9s-.7,2.1-1.9,2.1-1.7-1-2-2.1c-.8-3.3-.4-6.6-.8-9.9-.7-4.5-1-9.1-1.7-13.6-.4-2.7-1-3-3.8-2.2-1.1.4-2.4.6-3.4,0-3.2-1.5-7.1-2.2-9.3-5.1-.8-1.1-2.1-.6-3.2-.8h0v.3h0Z"/>
              <path class="cls-15" d="M161.8,640.9c3,1.4,5.7,3.4,8.2,5.4,3.1,2.5,5.7,5.3,7.5,8.9,2,4,5.2,7.3,7.6,11.1,2.2,3.6,3,7.4,3.8,11.3.8,4,.8,7.9,1.2,11.9.4,4.3.7,8.7,1.3,12.9.2,1.3.3,2.6.6,3.9.5,1.8,1.3,3.3,3.9,2.8h2c4.1.6,6.9-.8,8.2-4.6.2-.6.7-1,1.1-1.5,3.6-3.7,4.7-8.3,5.1-13.1.3-2.7,1.3-5.2,2.5-7.7.9-2,1.9-3.7-.7-5.8-1.7-1.4-1.2-3.9-.3-5.9,2.1-4.7,4.8-9.7,3.7-14.8-.7-4.1-1-8.2-1.5-12.3-.6-4.8-1.5-9.5-2.2-14.3-.4-2.3.8-4.3,1.2-6.6,0-.8.9-1.4,2-1,.8.3,1.4,0,1.8-.7,3.8,5.6,5.2,11.8,6.1,18.1.8,6.6,1.2,13.3,1,20.1,0,4.7-1.1,9.2-2.5,13.6-2.1,7.1-3.1,14.3-4.6,21.4-1.6,7.6-3.9,14.9-5.7,22.5-.9,3.9-1.3,7.9-2.7,11.7-.8,2.1-2.4,3.5-4.8,3.4-3.9,0-7.9.2-11.9-.3-5-.6-7.7-3-8.8-7.8-.3-1.4-.3-2.9-.9-4.2-2.1-5.5-2.6-11.2-3.6-17-1.1-6.3-2.9-12.5-4.4-18.7-1.4-5.9-3.9-11.4-5.5-17.2-1.9-5.2-3.7-10.5-5.6-15.8-1.1-2.5-1.7-5.1-2.9-7.6-.3-.7-.7-1.4-.2-2.2h0Z"/>
              <path class="cls-5" d="M183.8,357.3c0-.8-.7-1.1-1.1-1.7-.5-.6-1.1-1.3-.7-1.9,1.1-2.1.7-5.2,4-6,2.2-.6,1.7-2.3,2.1-3.8.8-4,2.2-7.9,1.9-12-.3-2.6-1.4-5.1-1-7.7,0-.8,0-1.5.8-2.3,1.3-1.2,1.3-2.8,0-4.2-1.2-1.2-1.1-2.2,0-3.3,1-1,.8-2.4.2-3.4-1.5-2.3-1.6-6.1.2-8.3,1.3-1.6.3-3.1.2-4.6-.2-2.7-.7-5.5-.8-8.2,0-1.1,0-2.1-1.4-2.7-.6-.3-1-.8-1.2-1.4-1.2-2.7-3.7-4.7-5-7.5,0-.2-.3-.5-.5-.6-4.6-2-5.2-6.1-6-10-.7-3.3-.8-6.7.7-10,.2-.5.4-1.1.8-1.3,2.7-1.3,2.2-3.3,1.6-5.6-.8-3.1-.5-6.3-.3-9.4.3-3.6-3.5-7.5-6.8-8.5-2.7-.8-4.5,1-6.6,1.8-3.2,1-6.4,1.8-9.7,2.6-2.2.6-4.4-.8-6.6-1.2-3.8-.6-7.4,0-11.2.3-3.6.4-4.5,2-6.2,4.2-1.6,2-3.2,3.9-4.5,6-1.7,2.7-.4,5.6,0,8.3.7,3.4,0,6.8-.8,9.9-.6,2.4-3,4.3-4.4,6.6-3.4,5.1-7,9.9-8.9,15.9-.7,2.5-4.2,3.5-6.6,4.9-1,.6-1.4-.8-2.1-1.2,1.8-4.3,4.8-8.1,6.7-12.5,3.2-7.5,6.7-14.6,9.1-22.4,2.4-7.6,4.8-15.1,6.3-22.9.5-2.4,1.5-4.5,2.3-6.8.2-.5.3-.8,1.2-.7,10.9,2.5,22,1.8,33,.8,3.4-.3,6.6-1.6,10.1-1,.8.2,1.7,1.3,2.5,0,1.6-.3,2.2.6,2.6,1.8,3.1,9.8,7.5,19.3,10.3,29.2,2.8,9.9,4,13.2,5.5,19.8,1.4,6.3,1.1,12.9.7,19.4-.4,6.2,0,12.3,2,18.3.7,2,1.3,4.1,1.9,6.1.5,5.1,1.1,10.2,0,15.1-1.1,4.7-2.2,9.4-3.5,14.2-.3.9-.7,1.8-1.5,2.4-1.2,1-1.8,2.4-2,3.9-2.2,1-4.7,1-7,1.8h-.2v-.2Z"/>
              <path class="cls-75" d="M126.9,99.8c.2-2.5.9-4.9,1.6-7.4.2-.2.4-.3.6-.3h3.1c1.9.5,1.6,1.9,1.1,3-.6,1.2,0,1.6,1.1,2.1,2.9,1.2,5.7.5,8.5-.4.7-.2,1-.8.6-1.4-.3-.4-.5-.8-.5-1.3,0-1.6.7-2.1,2.2-1.4.5.2.7.7,1.5.5-.2-1-1.1-1.4-1.9-1.9-2.8-1.7-6-2.4-9.2-1.8-.6,0-1.1.3-1.7-.2-.4-1.6.7-2.5,1.7-3.6,2-.8,3.9-.3,5.9,0,1.6.2,3.2.3,4.8.2.8,0,2,0,2.1-.9,0-1-1.1-1.1-2-1.3-1.4-.3-2.8,0-4.2-.2-1.3,0-2.7.2-3.9-.3-.7-.4-.9-.9-.3-1.5,2-.7,4-1.1,6.1-.4.8.3,1.7,0,2.3-.5,2.1-1.8,4.8-2.8,7.2-4.2,1.4-.8,2.1-1.8,2.6-3.2,1-3.5,3-4.4,7.9-4.2,3,0,4.6,1.5,5.1,4.7.4,1.8,1.1,3.2,3,4,1.3,1.4,2.1,3.1,3.1,4.7.4.6,1.1,1.4-.3,1.8-3.8-.9-7.7-.5-11.6-.6-.7,0-1.7,0-1.8.9,0,1.1,1,.9,1.9,1,.7,0,1.4,0,2-.2,2.7-1,5.5-.8,8.3,0,.7.2,1.9.7,2.2-.7.7-.8,1.2-.7,1.7.2.3.8,1.6,1.8-.4,2.3-.8,2.5-3,2.1-4.8,1.7-3.2-.5-5.9,0-8.5,1.7-.8.5-1.6,1-1.7,2.1.4.3.6.2.7,0,.7-.3,1.3-1.3,2.1-.8s.9,1.6.7,2.4c-.7,2.2.4,2.8,2.4,3,.4,0,.7.2,1,.6.5,1.6-1,2.3-2,3.2s-2.3,2.4-2.5,4.2c-.3,3,.3,4.6,3.4,5.7,3.7,1.2,4.8,4.3,6.6,6.9.7.8.2,1.8-.2,2.6-.8,2.4-2.8,4.2-4.2,6.2-2,2.9-3.6,5.9-4.8,9.3-.7,1.8.4,3.8.3,5.8,0,.6.3,1.2-.2,1.8-2.1,1.5-4.8,1.2-7.2,1.2-5.1,0-10.4,0-15.4-2.1,1.7-2.2,2-4.9,3.4-7.3,1.3-2.1,1.3-4.1.7-6.2-.6-2-1.6-3.7-2.2-5.7-1.2-3.4-3.3-5.8-7.3-6.6-2.4-.5-3.8-2.5-4.8-4.3-1.3-2.4-2.4-4.7-3.8-7-.2-.3-.6-.8-.4-1,1.3-2-.6-3.2-1.3-4.6h-.3v-.3Z"/>
              <path class="cls-12" d="M46.2,485c.4,1.2,0,2.5.7,3.7.3,1.4-.5,1.2-1.3.7-1-.8-1.4-1.9-1.9-2.9-2.8-5.8-4.4-11.6-3.3-18,.4-2.2-2.4-5.4-4.7-6-1.2-.4-2.1,0-2.8.9-.7.8-1.1,2-2.6,1.8.4-10.4.5-20.9,1-31.2.4-5.9,2-11.4,4.1-17,2.3-6,4.7-12.1,7.7-17.9,3.4-6.6,7.1-13,11.2-19.2,3.9-5.9,9.2-11,14.5-16.1,1-1,2.1-.6,3.2,0,1.6.8,3,1.5,4.7,2.5-2.1,2.7-4.7,5.1-6.5,7.9-4,6.1-6.4,12.7-7.8,19.7-1.1,5.4-2.7,10.6-4.5,15.9-1.7,5.1-2.7,10.4-4,15.7-2.9,11.6-4.2,23.5-6.2,35.3-.5,2.9-.6,5.9-.8,9-.4.8,0,1.9-.4,2.7h0c-.7,2.2,0,4.4-.5,6.6v2.9c.5,1.1,0,2.3.3,3.4h0v-.4Z"/>
              <path class="cls-63" d="M176.7,399.6c2.2,5.5,3.4,11.1,4.9,16.8,1.7,6.2,4.4,12.3,5.2,18.6,1.5,10.9,5.2,21.4,7.6,32.2,2.1,9.8,4.8,19.6,7.1,29.4.3.9.3,2,.5,2.9.5,3.2,0,3.6-3.6,4-1.6.6-2.7,0-3.5-1.3-.7-.9-1-1.9-1.3-3-.7-2.6-1-2.8-3.7-2.1-2.5.8-4.7.4-6.2-1.6-2.3-2.9-4.8-5.8-4.7-9.9,0-3.6-1.8-7.1-2.9-10.5-.6-1.8-1.3-3.6-1.3-5.4s-.8-4.3-2.4-6.1c-.5-5.9-.4-11.7-.7-17.6-.4-7.3-1.5-14.5-2.2-21.8-.6-5.6-2.2-10.9-3.1-16.3-.5-3.2-.6-6.4-1.2-9.5-.4-1.8,1-1.8,1.9-1.2,3,1.7,6.3,1.9,9.6,2.5h0Z"/>
              <path class="cls-55" d="M60.7,422.8c.3-4.1,1.9-7.9,3-11.9,1.5-5.8,3.2-11.4,4.5-17.2,2.1-9.2,6.1-17.4,12.8-24.4,1.5-1.6,3.1-.6,4.3,0,2.1.8,4.1,1.5,6.2,2.1,1.1.3,1.8.5,1.2,2-3.2,7.6-4,15.6-6.1,23.4-1.5,5.9-3.4,11.7-5.1,17.6-2.6,8.9-5.3,17.7-7.6,26.6-2.9,10.7-4.1,21.5-5.1,32.5-.5.9-1.4,1-2.3.9-1.8-.2-2.8.7-3.6,2-.7,1-1.3,2.2-2.3,3-1.4,1.2-2.6,1.1-3.4-.5-1.2-2.5-2.1-5.3-1.8-8.1.4-2.8.7-5.7,2-8.4,1.2-2.6,1.4-5.6,1.9-8.4.6-3.4.6-7,2.1-10.2.2-.4.3-.8.2-1.1,0-5.9,1.3-11.5,1.3-17.4s-.8-2-2.1-2.5h-.1Z"/>
              <path class="cls-2" d="M196.8,453.5c1.6-1.1,3-1.5,3.8.7.3.6.8.9,1.3,1.3,2.1,1.6,4.9,2.1,7.3,3.4,1.2.7,3.1.6,4.3-.8,1.1-1.3,1.9-.6,2.7.5,1.4,1.8,1.2,3.9,1.4,5.8.6,5.9,1.8,11.5,1.7,17.5,0,1.2.4,2.5.6,3.7,0,.7,0,1.3,1,1.3s1.5-.7,1.4-1.4c-.3-3.6,1-7.2.4-10.9-.7-3.8-.7-7.6,0-11.5.5-2.5-.4-4.7-.5-7.1,0-3,1.2-5.5,2.3-8,.4-.8,1-1.5.7-2.4-1-2.7-.3-5.3,1-7.7,2,6.5,4,12.9,4.9,19.6.6,3.8,1.7,7.6,2.5,11.2,1.3,6.2,2.4,12.6,3.5,18.9.4,2.4.6,4.7.9,7.1.2,1.1-.3,2.2-1.1,2.9-4.4,4.3-9.3,8-15.1,10.7-5,2.3-11,1.3-12.5-5-2.1-9.3-5-18.2-6.9-27.6-.9-5-3.2-9.7-4.1-14.7-.5-2.5-1.1-4.9-1.8-7.5h.3Z"/>
              <path class="cls-84" d="M215.4,366.4c.3,0,.6,0,.7-.2,5.1-1.7,5-1.7,8,2.7,2.6,4,4.3,8.3,6,12.6,2.6,6.8,5.8,13.5,8.8,20.1,4.8,10.9,9,21.9,13.6,32.8,1.8,4.2,3.3,8.5,4.2,12.9,1.1,4.9,4.8,8.6,8.1,12.3,5.1,5.7,10.7,10.9,14.3,17.7.8,1.6,1.3,3.2.9,5.1-2.2,10.3-10.8,13.1-20.1,12-1.8-.2-2.8-1.1-2.5-3.4.9-6.3-.3-12.6-2.1-18.7-1.4-4.8-3.2-9.5-4.8-14.3-1.8-5.7-2.1-11.7-3.5-17.5-1.1-4.4-2.2-9-4-13.2s-2.7-8.9-4.4-13.2c-3.4-8.7-6.7-17.5-10.5-26.1-2.7-6.1-5.9-12-9.6-17.7s-2.3-2.4-3.2-4.2h0v.3Z"/>
              <path class="cls-10" d="M155.1,221.9c-2,.9-4.1.4-6.2.4-1.3-.6-1.5-1.8-1.8-2.9-.3-1.2-.4-2.5-.4-3.7,0-3-.7-5.8-3.7-7.6-.9-.6-1.8-1.4-2.2-2.5.3-1.5,1.6-1.1,2.5-1,2.6.2,4.6,1.6,6.2,3.5,2.2,2.6,2.7,2.6,4.9,0,1.9-2.4,4.3-3.9,7.2-4.7.9-.3,2.1-.5,2.1-1.6s-.7-1.6-1.5-2.3c-2-1.6-4.1-1.3-6-.2-2.6,1.5-5.2,2.2-8.3,1.4-2.4-.6-4.7.5-7,.8-.7-5.5,1.8-10.2,4.2-14.9.8-1.5,1.2-2.9.8-4.8-1.2-5.1-6.1-6.8-10.3-3.5-1,.8-2.1,1.7-3,2.6-.5-3.2-.7-6.3-1.6-9.3-.3-.9,0-1.3.8-1.8,2.4-1.2,3.7-3.1,3.6-5.9,0-3.1.3-6.3.4-9.4,1.2-.7,1.9.2,2.4.9,1.2,1.5,2.8,2.5,4.6,3,5.8,2,11.7,2.5,17.8,1.1,2.6-.6,4.2-2.4,5.6-4.3.3-.5.5-1,.8-1.4.6-.8,1.3-1.7,2.4-1.2,1,.4.5,1.3.5,2.1s.2,2.2-.2,3.2c.7,2.2.4,4.4.4,6.7s1.1,4.8,3.6,6.1c.7.4,1,.7.8,1.4-.9,3.1-1.2,6.2-1.6,9.6-1.2-1-2.1-2.1-3.4-2.9-3.9-2.9-8.6-1.1-9.6,3.4-.5,2,0,3.6.7,5.3,2.2,4.7,4.8,9.3,4.4,14.7,0,.7.4,1.3.6,2,.2.5.2.9,0,1.4-.3.4-.7.5-1,.5-5.1.3-9,3.2-10.3,7.7-.6,2.1-.4,4.3-.8,6.4-.3,1,.9,1.1,1.3,1.8h.3Z"/>
              <path class="cls-30" d="M109,483.6c-.2-9.1.7-18,1.7-27,.8-7.6,1.6-15.2,2.3-22.7.9-9.1,2.3-18.1,3.3-27.3.7-5.6,1.6-11.1,1.7-16.8,0-3.6.9-7.2,1.5-10.8.3-1.7.8-2.4,3.1-2.4s3.4.9,3.3,3.1c-.2,2.8-.4,5.7-.6,8.6-.3,5.2-.8,10.3-.8,15.5,0,10.4-1.8,20.7-1.8,31s-.4,17.9-.7,26.9c-.2,5.1.3,10.2.4,15.3.6,4.5-.2,9.1,0,13.6,0,2.4-2.1,3-3.9,1.4-1.3-1.1-2.1-1-2.9.3,0,.2-.3.4-.5.6-1,.9-2.1,2.4-3.7,1.6s-.9-2.3-.7-3.5c.2-1.4,0-2.9.2-4.4,0-1.4-.4-2.4-1.8-2.9h0Z"/>
              <path class="cls-85" d="M163.8,372.1c-9.2,0-18.4.2-27.6,0-7.8-.2-15.8-.4-23.6-1.4-8.8-1.1-17.5-3.2-25.5-6.9-2.7-1.2-5.6-2.4-8.3-3.7-.9-.5-3,0-2.1-2.3,1-2.7,2.1-3.7,4.3-3.2,2.7.6,5.3,1.3,7.9,2.1,13,3.6,25.9,7.3,39.5,7.6,10.8.4,21.7.5,32.5,0,8.9-.4,17.8-1.3,26.7-2.6s17.5-3.2,25.4-7.4c.9-.5,1.5-.2,1.9.3.8,1.1,1.4,2.5,2.1,3.7.4.8,0,1.2-.7,1.6-11.9,6.1-24.5,10.5-38.2,11.9-4.8.5-9.4.8-14.1.3h-.2Z"/>
              <path class="cls-69" d="M128.4,471.5c1.4.2,1.4,1.3,1.6,2.3,1.5,10.6,7.2,19.4,14.5,27.2,1.9,2.1,4.5,2.8,7.4,2.5,2.1-.2,3.3-1,3-3.1-.3-2.7.7-5,2.2-7.4,3.7-5.5,6-11.6,7.9-17.7.7-2,.7-4.2,1.3-6.1.7,1.4.4,2.9.6,4.3.8,9.3,2,18.8,2,28.2s.2,3,.5,4.6c.6,3.2-1.1,5.3-3.8,6.9-7.9,4.7-16.5,7-25.9,6.1-3.3-.3-5-2.1-6.3-5.9-3.3-9.9-4.2-20.2-4.7-30.5-.2-3.8-.2-7.6-.3-11.3h0v-.2h0Z"/>
              <path class="cls-56" d="M96.1,624.1c1.5.8,3.1,1.4,4.7,2.1,1.9.7,3.3,1.8,2.8,3.8-1.2,6-1.5,12.2-2.7,18.2-1.1,5.5-2.1,10.9-1.7,16.5.5,9.3,1.7,18.5,5.2,27.4,1.6,4,3.4,7.6,5.8,11.1.8,1.3,1.7,1.7,2.5,0,.7-1.6,2.1-2.5,3.9-1.7,3.8,1.8,7.9,3.1,12,4.1,2.5.6,3.6,2.8,5.8,3.9.7.4,1.4.8,2.1,1.2.4.3.3.7,0,1v1.3c-.7,1-1.5.8-2.3.4-1.7-.8-3.5-.8-5.3-.6-1.9.3-3.4.9-3.6,2.9-.3,1.5-1.4,2.1-2.9,2.1s-3.6.3-5.2,1.2c-1.3.8-2.6.4-3.6-.5-3.4-2.7-6.3-5.9-7.7-10-.8-2.7-1.9-5.5-3.2-8-.7-1.2-1.4-2.2-3.1-1.5-2.1-3.2-3.2-6.9-4.4-10.4-1.3-4-2.5-7.9-2.9-12.1-2.4-10.8-2.1-21.6-1.4-32.5.4-6.6,2.2-13.3,5.2-19.5h0v-.5h0Z"/>
              <path class="cls-44" d="M247,490.8c-1.2-.5-2.9.5-3.5-2.2-1.4-5.8-2-11.7-3.3-17.5-1.7-7.4-2.8-14.8-4.7-22.1-2.1-7.9-5-15.6-7-23.5-2.1-8.6-5.1-17-8.3-25.2-2.6-6.7-5.7-13.2-9.1-19.6-1.5-2.8-3.5-5.4-5.7-7.8-.8-.9-1.3-1.8.6-2.1.6,0,1.2-.3,1.6-.6,2.1-2,3.1-.8,4.3.9,5.9,8,10.4,16.7,13.9,25.9,2.6,6.8,6,13.4,8.1,20.5,3.3,10.1,6.2,20.3,8.6,30.6,1.4,6,2.2,12.3,4.7,18.1,2.1,5,2.9,10.2,4.1,15.3.6,2.4.5,4.9.7,7.4,0,1.1-.5,1.7-1.8,1.8-1,0-2,0-3.2.2h0Z"/>
              <path class="cls-32" d="M159.8,584.8c-.8-1.9-.3-3.8-.4-5.7,0-1.1-.3-1.8-1.7-1.7-1.1,0-1.7-.5-2.1-1.3-3-5.8-4.4-11.9-5.2-18.2-.5-3.3-.8-6.6-1.8-9.7-1-3.8-1.1-7.7-2.8-11.3-1-2.2-2.1-4.1-4.8-5.2-3.8-1.6-7.4-3.8-11.3-5.4-.5-.2-.9-.5-1.1-.8-3.2-4.5-8-3.6-12.3-2.9-5.3.8-10.6,2-15.7,4.2-3.7,1.6-7.6.2-11.3-1-.9-.3-2.1-1.4-2.8.3-1.5-2.8-3-5.7-4.7-8.8,5.4,1.5,10.6,1.5,15.8,1.4,1.8,0,3.5.3,5.4,0,2.2-.2,3.9-.9,5.5-2.4.9-.9,2-1.6,3.5-.8.7.3,1.5.2,2.2.2,4.3,0,8.6.5,12.9.6,1,0,1.6.3,2.1,1.2,3,5.9,7.8,8.3,14.8,7.5,2.8-.4,5.8,0,8.6-.8.7-.2.8.3.8.8,0,1.2.5,2.5.4,3.7-.5,6.3,0,12.6,1.1,18.7.7,4.2,2.4,8.1,3.4,12.3,1.9,8.4,1.5,16.9,1.4,25.4h0v-.3Z"/>
              <path class="cls-43" d="M221.2,523.5c-1.9-.4-2.4,1.2-3.4,2.1-2.4,2.1-2.9,2.1-5.7.4-3.2-1.9-6.4-3.6-10.6-3.4-3.9,0-7.8-.8-11.7-1.5-3.2-.7-6.3-1.9-9.7-.7-.7.2-1.4.4-1.8.8-3.6,5-9.4,8.1-13.2,13-.7.8-1.8,1.4-2.5,1.2-2.7-.6-2.6,1-2.7,2.6-.2-4.8-.4-9.5-.6-14.3,0-.8.3-.9,1-1.2,5.3-1.6,9.9-4.3,13.4-8.4.7-.8,1.4-1.8,1.4-2.8,0-2.1.9-2.2,2.9-2,4.5.4,8.9.6,13.4.7,2.2,0,4.5,0,6.7-.4,3.8-.6,7.4,0,10.4,2.3,1.8,1.3,3.9,1.8,6.1,1.6,2.8-.3,5.5.8,8.3.6.8,0,.7.5.7.9-.9,2.8-1,5.9-2.3,8.7h0v-.2h0Z"/>
              <path class="cls-69" d="M30.3,465c1-.6,1.8-1.3,2.2-2.4.7-1.5,1.9-1.5,3.3-1,3.5,1.2,5.4,4.7,5,8.2-.4,4.6-.4,9.2,2.3,13.4,1,1.6,1,3.8,2.2,5.3.3.4.7,1.6,1.3,0,1.3,3.5,1.6,7.2,2.7,10.7,1.4,4.7-3,6.6-7.4,5.3-4.9-1.5-9.6-3.7-13.9-6.5-3.9-2.5-6.2-7.3-4.5-12.7,1.4-4.4,3-8.8,5.1-12.8,1.2-2.4.3-5.1,1.4-7.5h.3Z"/>
              <path class="cls-52" d="M184.3,776c-1.5-.9-3-1.9-4.6-2.7-.6-.3-.7-.6-.6-1.1.5-6,.7-12.2,1.8-18.1.3-1.3.9-2.3,2.4-2.5,2.1-.4,4.2-1.1,6.2-1.2,6.7-.3,13.4-.9,20.1-.2.4.2,1,.2,1.1.8,1.9,7.4,1,14.1-4.8,19.8-1.6,1.5-3.3,2.4-5.8,2.1s-5.1,0-7.6.9c-1.5.6-3.1.8-4.6.2-1.8-.6-3.2-.7-3.1,1.7,0,.4-.4.7-.8.5h0l.3-.2Z"/>
              <path class="cls-52" d="M109,776.9c-1.9-.5-3.2-1.9-4.8-2.8-.7-.4-.8-.9-.8-1.7.2-5.8.2-11.5.4-17.4,0-2,.9-3.3,3.4-3.9,8.5-1.7,17.1-1.6,25.6-1.1,1.5.8.6,1.7-.2,2.5-1.2,1.3-1.1,2.5-.3,4,2.9,5,1.1,10.9-4.1,13.7-1.8.9-3.4,2.3-5,3.3-2.3,1.5-4.7,2.2-7.4.8-1.7-.9-3.5-.3-5.3,0-.8,0-.9.7-.8,1.4,0,.5.5,1.3-.7,1.3h0Z"/>
              <path class="cls-37" d="M73.7,489.2c2,0,2.9,1.4,3.8,2.6,1.7,2.2,3.5,3.9,6.7,3.4,1.4-.2,1.8.6,2.1,1.7.4,1.4.3,3.5,2.4,3.6,2.3,0,2.3-2.1,2.9-3.7,1.2-3.4,2.1-7.1,4.1-10.1,1.6-2.5,3.1-5.2,4.8-7.7.3-.5.7-.8,1.7-.8-.4,1-.9,2.3.8,2.7,0,3.4,0,6.8-.2,10.2-.4,6.1-.5,12.3.9,18.3.7,3.2.4,3.5-3.1,3.8-9.2.8-17.9-.4-25.6-5.8-1.1-.8-2.1-1.8-3-2.7s-1-1.1-.6-2.1c1.5-3.2,1.8-6.7,1.7-10.2,0-1,.4-2.1.6-3.2h0Z"/>
              <path class="cls-17" d="M60.7,422.8c2.2-.5,3.1.3,2.8,2.4-.6,5.5-1.2,10.9-1.3,16.3,0,2.3-1.3,3.9-1.7,5.9-.9,5.4-1,10.9-3.1,16-1.9,4.7-2.1,9.5-.3,14.3.3.8.4,1.7,1.4,1.8.9,0,1.4-.8,1.9-1.3s.9-1.3,1.3-2c1.1-1.8,2.1-3.6,4.9-2.5.7.2,1.3,0,1.9-.5-.5,6.4-.2,12.9-1.4,19.4-.4,1.7,0,3.5-.4,5.3-.4,2.1-1.5,3-3.7,3.3-6.4.8-9.5-2.7-10.1-7.6-1-9-.5-18,0-27,.5-8.2,2.1-16.1,3.3-24.3.7-4.5,2.3-9,3.1-13.5.4-2.1.8-4.1,1.3-6.1h.1Z"/>
              <path class="cls-28" d="M222.7,309.1c-.7.8-.8,2-2.5,1.2-1-.5-.9.6-.9,1.1.2,1.8.9,3.6,1.2,5.4.4,2.2.7,4.2,1.5,6.3.6-.8.3-1.8,1.3-2.5,0,2.9-.8,5.6-1.7,8.5-1.5-1.7.7-3.2-.2-4.9,0,1.6-1,2.5-1.6,3.4-2,3.1-1.8,3-4.8.7-2.4-2-3.2-5.1-5.8-6.7-.7.4.3.8-.2,1.3-.9-.5-1.3-1.4-1.7-2.4s-.4-.9-.9-.9c-.8,0-.6.8-.6,1.3,0,2.1,1.9,3.6,2.1,5.6-2.4-2.5-4-5.6-5.7-8.5-1.4-4-3.5-7.7-4.1-12-.7-5.8-.7-11.4-.9-17.2,0-.9.6-1.5,1.2-1.8.8-.4.9.6,1.2,1,.8,1.2,1.6,2.5,2.4,3.7.2-.5.3-.9.6-1.5.8,4.2,2.9,7.5,6.2,10.1,1.7,1.3,3.1,2.9,4.8,4.3,2.7,2.2,6,3.2,9.1,4.6h0l-.2-.2h.2Z"/>
              <path class="cls-78" d="M99.4,698.5c1-1.2,1.8-1.5,2.8,0,1.8,2.7,2.8,5.8,3.7,8.8,1.3,4.3,4.3,7.6,7.7,10.5.8.7,1.8,1.2,2.9.5,1.7-1.2,3.6-1.4,5.7-1.3,1.4,0,2.2-.3,2.2-1.8s1.1-2.5,2.7-2.8c2.5-.6,5-1,7.4.5.7.5,1.2.3,1.9,0,.2,2.5-.8,5-1.2,7.6-.4,2.7-1,5.4-.8,8.2,0,2.5-1,3.7-3.6,3.2-6.3-.9-12.7-.3-19,0-1.1,0-1.4,0-1.9-1.1-3.4-8.5-6.3-17.2-8.6-26-.3-1-.8-2-1.3-2.9-.4-1-1-2.1-.7-3.2h0v-.2Z"/>
              <path class="cls-71" d="M157.9,394c-2-.2-3.9-.8-5.9-.3-2.2.8-3.7,2.8-3.5,5.5,0,2.2-.4,3.8-3,4.2-.5,0-.9.4-1.3.7-1.5,1.4-2.9,1.6-4.5,0,0,0-.3-.3-.4-.3-5-.3-3.8-4.2-4.4-6.9-.8-4.2.7-8,1.7-12s.3-2.5.2-3.7c-.3-2.5-2.5-3.6-4.9-2.7-.7-1.2-.5-1.8,1.2-1.7,5.4.4,10.8.6,16.3.3,2.4,0,4,.6,4.7,2.9,1.4,4.5,3.2,9,3.7,13.7h0v.3h0Z"/>
              <path class="cls-85" d="M121,786.6c0,1.2,0,2.1-1,2.6s-1.3,1.3-.7,2.2c.7.9,1.8.6,2.6,0,.4-.2.7-.5.9-.8.6-.8.9-1.4,1.8-.2.5.7,1.4.8,2.2.8s2,.2,2.1-.9c.3-1-.4-1.7-1.4-1.8-1.9-.2-1.5-1.8-2.1-2.5,6.2-2.3,12.8-3.2,17.9-8.5-.7,5.2-.9,9.8-3.4,14-5.2,9.3-14.2,10.8-23.6,6.5-7.1-3.2-11.7-8.5-12.8-16-.2-.8-.4-1.8,0-2.9,3.4,2.3,6.7,4.2,10.7,4.9.4,0,.9.4,1.1.8,1.1,2.3,3,2.6,5.3,1.8h.4Z"/>
              <path class="cls-7" d="M163.4,562c.8.5,1.6.9,2.7.9,3.6,0,5.7,2.2,5.8,5.6.4,10.1-.8,20.2-.4,30.3.3,5.3.4,10.5-.7,15.6-.9,4.1-1.5,8.5-6,11.2-1.8,1.1-3.3.4-4.9.4.7-6.1,3-12,4.2-17.9,1.7-8.8,1.5-17.7,1.1-26.5-.2-4.5-1.1-9-1.1-13.5s-.4-4-.7-5.9h0v-.2Z"/>
              <path class="cls-85" d="M178.9,777.9c3.8,2.8,7.6,5.3,12.2,6.1.5,0,.9.4,1.3.8,1.8,2.3,2.1,2.4,5.2,1.9.2.9,0,1.9-.9,2.5-1,.6-1.5,1.4-.7,2.3.8.8,1.9.5,2.7,0,.7-.5,1.1-1.1,1.8-1.7.9,1.2,2.1,1.8,3.7,1.7.8,0,1.5-.3,1.6-1.1,0-.8-.3-1.4-.9-1.4-2.1,0-2.1-1.6-2.6-2.7,5.4-2.2,11.6-2.7,16.1-6.8-.7,7-2.1,13.5-8.5,18.1-5.3,3.9-11.3,3.4-16.7,1.1-8.7-3.6-14.7-10.8-14.3-20.7h0Z"/>
              <path class="cls-83" d="M205.8,383.3c-.7.5-.9,1.2-1,2-.2,1.1-1,1.6-2.2,1.7-5.5.5-9.7,3.1-13.2,7-1.7,1.9-3.6,3.6-6.5,3.7-3.1-6.5-5.5-13.2-9-19.9,6.2-.3,11.8-1.1,17.5-2.4.9-.2,2-.5,2.9-.7,4.8-1.2,4.8-1.3,7.6,2.4,1.5,2,3.4,3.8,4.2,6.2h-.3Z"/>
              <path class="cls-21" d="M109,776.9c0-2.5,1.8-3.7,4.8-3.7s1.5,0,2,.2c3.2,2.5,5.8.7,8.2-1,1.7-1.2,3.3-2.3,5.1-3.2s3.4-2.3,3.5-4.4c.2-2.9,1-5.9-1.2-8.7-1-1.2-.7-2.6.6-3.7.7-.6,1.7-1.1.8-2.3.9.2,2,.4,2.9.5,5.8.6,6.9,4.4,7.6,8.8.6,3.9.6,7.6.6,11.5s.2,1.2-.4,1.5c-3.6,2-6.4,5.1-10.4,6.5-1.4.5-2.2.6-3.4-.5-1.8-1.6-3.9-1.1-6.8,1.1-.4.3-.6,1-1.2.2-1.2-1.5-3.4-1.2-4.3-.5-2.1,1.6-3.5.2-5.2-.4s-2.1-1.1-3.2-1.8h0l.2-.2h-.2Z"/>
              <path class="cls-20" d="M184.3,776c.4-.3.6-.6.5-.9-.3-2.3.6-3,2.9-2.1,2.1.8,3.6.6,5.7-.2,2.3-.8,4.9-1.3,7.5-.8,1.2.3,2.2,0,3.3-.6,2.2-1.4,3.9-3.4,5-5.6,1.4-2.9,2.5-6,2.2-9.3-.3-2.2-.9-4.3-1.5-6.5,3-.3,5.4,1.2,7.9,2.3,1.5.7,1.3,2.3,1.5,3.5,1,5.2,1.1,10.4.6,15.6,0,.7-.2,1.2-.7,1.6-2.5,2-5,4.1-8,5.5-1.7.8-3.2,1.3-4.8-.4-1.4-1.4-3.4-.9-5,0s-1.5,1.2-2.1,1.9c-2-1.7-3.6-1.8-6-.2-.6.4-.8.2-1.3,0-2.7-.9-5.3-2.1-7.6-3.8h0Z"/>
              <path class="cls-86" d="M165.3,143.4c-1-4.4-.9-8.4,1.6-12.8,1.9-3.2,4.7-5.9,6.2-9.2.8-1.7.8-2.9-.3-5-1.7-3-4.1-4.4-7.2-5.8-2.5-1-2.6-6.6-.4-9,1.2-1.2,3-2.1,3.4-3.9,1.3-1,3.1-.9,4.6-1.5,2.4-.8,2.6-1.1,1.9-3.3-.5-1.2-.3-2,1.3-1.9.9,0,2,0,2.8.6.7,1,.3,2.4.8,3.5,0,.6.3,1.1.4,1.7.2.7.3,1.3.6,2,.6,1.5,1,3,1.5,4.6.4,1.3.6,2.6.9,4,.7,2,.9,4.2,2.8,5.7.5.8.2,1.6-.4,2.3-.2.2-.4.3-.7.2-2.4-2.9-5.5-2.5-7.1.9-.4.8-.7,1.7-.9,2.6-1.3,4.5-3.2,8.9-6.3,12.6-1.5,1.8-2.4,4.1-3.8,5.9-1.3,1.6,0,3.5-.3,5.2-.4.4-.8.6-1.5.5h0Z"/>
              <path class="cls-38" d="M126.9,99.8c.8.7,1.7,1.2,2.5,1.9.2.2.5.7.5.8-2.8,2.4.6,3.9,1,5.8.4,1.4,1.4,2.7,2.1,4.2,1.2,2.1,2.7,4,5.6,4.4,2.6.5,4.7,2,5.6,4.4,1.3,3.5,3.6,6.8,3.7,10.7,0,1.3-.2,2.5-1.1,3.7-.5.6-.8,1.4-.9,2.1-.2,2.1-1.1,3.8-3,5-.7-.2-1.3-.4-2-.7-.6-.2-.8-.7-1.1-1.2-2-4.7-4.1-9.3-5.7-14.3-1.3-4-3.5-7.6-6.6-10.7-6.2-6.2-5-5.3-2.2-12,.3-.6.5-1.1.7-1.7.4-.8.3-1.7,1-2.3h-.1Z"/>
              <path class="cls-72" d="M190.8,355.5c-1-.9-1-1.9,0-2.7,3.6-2.9,3.2-7.3,4.4-10.9.7-1.9.3-4.2,1.8-5.9.4-.4.3-1.2.3-1.8-.2-2.9.7-5.9,0-9-.4-1.7,0-3.5.5-5.3,3.6,8.7,9.5,16.3,13.6,24.8,1.4,2.9,1.5,3-1.3,4.8-4.4,2.8-9.4,3.9-14.5,5.1-1.6.4-3.2.6-4.8.9h0Z"/>
              <path class="cls-34" d="M169.9,157.9v-3.2c0-.6.4-1.4-.4-1.7-.9-.3-1.5.7-1.8,1.2-.6.9-.9,1.9-1.7,2.8-2.4,3.1-6,3.7-9.6,4-5.6.4-11-.6-16.1-2.9-.9-.5-1.7-1.2-2.2-2.1-.5-.8-1-1.4-2.1-1.5-.3-1.4-.7-2.8-.7-4.3-.3-2.3.7-3,3-2.5,10.2,2.3,20.3,2.5,30.6.8,1.2-.2,1.7,0,1.7,1.2,0,2.6,0,5.4-.5,8h0l-.2.2Z"/>
              <path class="cls-6" d="M111.5,397.7c-3.5-1.3-7.2-2.7-10.3-4.7-2.1-1.4-4.9-1.5-7-3.1.7-5.1,2.6-9.9,3.9-14.9.3-1.2,1.1-.8,2-.7,4.8.8,9.7.8,14.2,2.4-1,7-2.2,14-2.7,21h0Z"/>
              <path class="cls-8" d="M109,483.6c1.9-.7,2.6,0,2.5,1.7-.2,2.3.3,4.6-.5,6.9-.2.6-.4,1.4.5,1.9.7.4,1.4,0,2-.6.3-.3.7-.5.8-.8,1.5-2.5,3-3.8,5.2-.5.7.9,1.5.4,1.9-.5.4-.8.6-1.6.6-2.5-.3-4.1.6-8.1.6-12.3.7.8.3,1.8.3,2.7,0,9.6.9,19.3,3.8,28.5.7,2-.3,2.5-2.1,2.6-4.1.4-8-.8-12.1-.9-1,0-1.6-.8-2.1-1.9-2.8-6.2-1.6-12.7-1.6-19.2s0-3.5.2-5.3h0v.2Z"/>
              <path class="cls-29" d="M172.4,463.7c1.9.6,2.9,2,2.9,3.7,0,4.8,2.3,9.1,3.4,13.6.4,1.5,1.3,3,1,4.4-.6,4.2,2.1,6.8,4.3,9.7,1.5,2.1,3.5,2.5,6.1,1.4s2.9-.9,3.8,1.6c.5,1.4.4,3,1.8,4.2.8.8,1.6,1.3,2.7,1.2-4.3,1.1-8.7,1.1-13,.8-3.1-.3-6.1-.5-9-1.2-1.1-.3-1.5-.7-1.5-1.7.4-6.5-1-13-1-19.5s-1.6-12.2-1.4-18.3h-.1Z"/>
              <path class="cls-13" d="M211.2,180.5c1.6,2.3,3.1,4.4,2.5,7.4-.5,2.5-1.1,4.7-1.3,7.3,0,1.1-1.1,2.4-2.3,3.1-2.4,1.5-3.6,3.7-3.4,6.5v5.6c.3,2.8-.2,5.3-3,6.9-5.9-6.1-5.8-13-2.9-20.3,2.1-5.4,5.2-10.5,5.4-16.4,0-.8.4-1.1,1.2-.9,1.3.2,2.6.4,3.8,1h0v-.2Z"/>
              <path class="cls-23" d="M187.2,130c-.9,2.1-2.5,3.8-3.5,5.7-1.7,2.9-4.3,5.5-4.1,9.1v.8c-3.2,1.8-1.3,3.9-.4,5.9.2,0,.4,0,.5-.2.6-.8-.3-2.5.7-2.4,1.8.3-.3,1.4,0,2.2.4.8.5,1.7-.3,2.5-.5.7,0,1,.9,1.1,1.1.2,2.2.6,3.4.9-.6,1-1.9,0-2.4,1,0,.8,1.3.3,1.5,1-1.5.9-2.7,2.4-4.8.9-1-.7-1.4-1.5-1.1-2.5.5-1.7.6-1.7,0-3.8-1,.2-.6.9-.6,1.5s.7,1.1,0,1.3c-.8.3-.9-.7-1.3-1.1-.3-.4,0-1.8-1.1-.6,1.3-3.8-2.1-6.8-2-10.5,0-.8-.3-1.9.7-2.8,0,1.3-.6,2.5,0,3.7,1.2-3.2,4-5.5,5.3-8.9-1.6.6-1.7,1.7-2.2,2.6-.6-.3,0-1.2-.7-1.4,0-1.6,1.1-2.2,2.2-2.9,1.2,0,1.7-.8,2.1-1.6,1-1.4,2.2-2.1,3.7-2.1.4-.9.7-1.8,1-2.7,0,0,0-.3,0,0,0,0,0,.5-.6.8-2.8,1-1.4-1.1-1.8-2,.7-2.5,1.2-5.1,2-7.6.3-1.1.6-2.3,1.7-3h0c.9-.9,1-2,.7-3.2-.3-.9-.9-1.9-.3-2.8.5-.3.9,0,1.3,0,1,.7.7,1.6.7,2,0,0,0-.8.2-1.3.4-1,.2-2.3,1.2-3.1,1.5.6,3,3.4,2.5,4.5-.2.5-.6.9-1,.8-1.9-.8-1.4.8-2.1,1.6,1.6,0,2.1-2,3.6-1.5.9.3,1.1,1,1.2,1.8-.4,2.8-.8,5.6-2.6,8-1.7,1.3-.4,2.9-.4,4.3s0,2.3-.6,3.7c-1.5-2.7-1.5-5.4-1.8-7.9-.3,2.8-.5,5.6.4,8.4-1.1,0-.9-.8-1.5-1-.4-.9-1.2-1.6-1.5-2.6-.2,1.2,1.3,1.7,1.4,2.7h0l-.3.6h.1Z"/>
              <path class="cls-22" d="M208.1,291c4.7-.3,8.5,1.9,12,4.2,3.8,2.4,7.7,4.3,11.8,6.1.9.4,1.8.8,2.6,1.2,4.2,2.5,8.8.6,9.3-4.1.4-3.2,2.5-5,5.1-6.6,1.2-.8,2.2.2,3.4,0-1.2,5.2-3.4,10-7.1,14.1-2.7,2.9-6.2,3.6-10.5,2.5-5.1-1.2-9.5-3.8-14-5.9-5.2-2.5-9.9-6.3-12.7-11.6h0Z"/>
              <path class="cls-19" d="M125.9,102c.2,1.2-.5,2.3-.9,3.3-2.1,4.5-1.9,5.5,1.9,8.9,2.1,1.9,3.6,4.2,5.2,6.4,3.4,5.1,3.9,11.1,6.8,16.3.8,1.6,1.4,3.3,2.1,4.9-4.9-1.7-9.5-4-13-7.7-1.6-2.4-1.9-5-3-7.6-1.2-2.9-2.6-5.9-4.5-8.5-2.3-3.4-2.2-6.6,1.1-9.4,2.1-1.8,2.2-4.7,4.3-6.7h0Z"/>
              <path class="cls-70" d="M99.1,217.6c-2.2-3-1.8-6.1-.6-9.3,1.2-3,1.5-6.1.6-9.3-.4-1.3-1-2.5-2.3-3.4-2-1.3-2.1-3.6-2.9-5.5-.6-1.3-.7-2.8-1.2-4.2-.9-2.2,0-4.2.5-6.2.4,0,.7-.3,1.1-.4,3.1-.6,4-1.1,4.3,2.5.5,5.2,3.5,9.4,5.2,14.3,1.4,4.1,2.7,8.2,1.8,12.6-.8,3.9-3.1,6.8-6.4,9.1h0v-.2Z"/>
              <path class="cls-26" d="M155.1,221.9c-1.9,0-3.1-.2-1.8-2.4.4-.7,0-1.7.2-2.5.2-4.5,2.4-8,6.3-10.6,1.8-1.2,3.9-1.5,6.1-.8.5.2.2.7.5.9.5,3,2.6,5.1,4.6,7.2,1.8,1.9,3.8,3.6,3.5,6.4-6.4-.6-12.8,1.8-19.4,1.8h0Z"/>
              <path class="cls-45" d="M224.9,273.3c-.4-.2-.8-.7-1.2-.7-1.1,0-2.3.7-3.3-.3-1.1-1.3-2.3-2.6-2.6-4.3-.8-4.5-2.4-8.9-3.2-13.4-.5-2.9-2.1-5.7-3.3-8.4-1.8-3.7-2.3-7.6-2.7-11.6,0-1.2.7-2,1.8-2.5,4.8,6.4,7.6,13.8,10,21.2,2.1,6.5,3.4,13.3,4.5,20h0Z"/>
              <path class="cls-73" d="M177.8,133.7c-.8.9-1.6,1.9-2.4,2.8-2.6,2.5-4.8,5.4-8.5,6.4-1.7-2.5-.9-4.5.7-6.9,3.8-5.6,8.2-10.9,9.5-17.7.2-1.2.9-2.5,1.7-3.6,1-1.5,3-1.7,4.7-1.8,1.8,0,2,1.6,2.6,2.6-1,3.6-2.1,7.1-3,10.7-1,2.8-2.1,5.7-5,7.4h-.3Z"/>
              <path class="cls-42" d="M47.8,274.7c2.1-.3,3,.6,3.5,2.4,1.9,6.3,4.5,12.4,7.7,18.1,1.8,3.1,3.7,6.1,5,9.4.5,1.3.7,2.4-.5,3.3-3.8,0-6.2-2.3-8.1-5-5.8-8.7-8.5-18.1-7.8-28.3h.2Z"/>
              <path class="cls-16" d="M176.7,399.6c-2.8.6-5.4.3-8-1-.8-.5-2.2-2.6-3.4-.2-1.2-5.9-3.1-11.7-4.9-17.5-.4-1.3,0-1.6,1.3-1.8h.5c3.7-.4,6.3,1,7.8,4.2,2.5,5.3,4.8,10.8,6.7,16.2h0Z"/>
              <path class="cls-59" d="M215.4,746.1c-10.5-3.1-20.8-2.6-31.1-.5.3-2.3,2.8-6.8,4.4-7.9,2.2-1.6,4.9-.9,7.5-.8,4.1,0,8.2.8,12.3.7.6,0,1.1,0,1.5.6,1.7,2.5,4.1,4.7,5.5,8h0Z"/>
              <path class="cls-26" d="M140.9,205.6c1.8,1.1,3.3,2.6,4.8,4,1.9,1.5,1.5,4,1.7,6,.2,2.3.3,4.6,1.5,6.7-4.2.6-8.2-.6-12.3-.7-.3,0-.7-.2-.9-.2-5.9-.8-5.5-1.3-2.7-5.9.9-1.5,2.5-2.6,3.9-3.9,2-1.6,3.3-3.6,3.7-6,0-.2.3-.2.4,0h0Z"/>
              <path class="cls-59" d="M138.6,746.1c-10.6-3.2-21-2.6-31.8-.5,1.3-3.8,3.4-6.5,6.4-8.1,1.6-.8,3.9-.4,5.9-.4,3.6,0,7.3.2,10.9.2s2.2.5,3,1.3c2,2.2,4.1,4.2,5.6,7.4h0Z"/>
              <path class="cls-35" d="M140.9,205.6h-.4l.5-4.2c2.3-1.8,5.1-1.7,7.8-1.2,2.6.6,4.6,0,6.7-1.3,3-1.9,5.6-1.5,8,.7,1.7,1.5,1.3,3.7-.8,4.2-3.7.8-6.3,2.7-8.5,5.6-2,2.5-2.7,2.5-4.8,0-1.6-2.1-3.4-3.6-6.1-4-.8,0-1.9-.4-2.6.4h0l.2-.2Z"/>
              <path class="cls-41" d="M79.7,270.5c1.3,2,1.1,4.7-.7,6.3-2.1,2-5.1,1.2-7.4-1.4-1.2-1.5-2.1-3.4-2.8-5.2-1.8-4.5.5-10.9,5.6-13.6.7-.3,1.2-.6,1.7.3.3.7.7.9,1.5.6-.7,3.3-1.5,6.6-2.2,9.9-.3,1.3-.6,2.7.3,4.1,1.8,1.3,2.7-.4,4-.9h0Z"/>
              <path class="cls-73" d="M213.3,210.2c.2.9.7.6,1.2.4.7-.3,1.2-1.2,2.1-.5.7.7.6,1.5.3,2.4-.8,2.7-1.4,5.7-2.4,8.4-.8,2.4-.5,4.9-1.8,7.1-3.1-2.4-3.9-5.3-2.8-8.9.9-3,1.4-6.2,3.4-8.9h0Z"/>
              <path class="cls-27" d="M170.4,666.4c4,8,6,16.7,8.1,25.3,2.2,9.2,3.8,18.4,5.3,27.7-.3-.3-.7-.5-.7-.8-1.5-4.5-3.5-9-3.6-13.8,0-6.3-2.1-12.3-3.5-18.3-1.4-6.2-4.5-12.1-5.4-18.4v-1.6h-.2Z"/>
              <path class="cls-80" d="M213.3,611.2c-5.8-5.8-7.6-12.5-5.7-20.1.6-2.4-.2-4.9.7-7.3,2,2,.7,4.4.7,6.6s-.4,3.3-.7,5c-.5,3.3.2,6.3,2.1,9.3,1.3,2,2.7,4.1,2.8,6.6h0Z"/>
              <path class="cls-74" d="M99.4,698.5c0,1.1.8,2.1.7,3.2-4.3-8.1-8.3-16.2-7.8-25.6,1.4,4.8,2.5,9.7,4.4,14.3,1,2.6,2,5.4,2.9,8h-.2Z"/>
              <path class="cls-11" d="M161.8,640.9c.7,3.3,2.7,6.3,3,9.7-1.1-1.2-1.9-2.6-2.1-4.2-.2-1.3-.9-2.6-1.7-3.8-.9-1.4-1.6-2.8-.6-4.5,1,.8.7,2,1.4,2.8h0Z"/>
              <path class="cls-68" d="M79.7,270.5c-1.3,2.6-2,2.8-4,.9,1.7-.2,2.6-1.6,3.9-2.4v1.4h0Z"/>
              <path class="cls-53" d="M205.1,781.4c0,1-.8,1.4-1.8,1.4s-1.5,0-1.5-.8.8-1.7,1.9-1.9c.9-.2,1.2.6,1.4,1.3h0Z"/>
              <path class="cls-46" d="M128.2,781.5c0,1-.9,1.4-1.9,1.4s-1.5,0-1.4-.9c0-1,.8-1.7,2-1.8.9,0,1.2.7,1.3,1.4h0Z"/>
              <path class="cls-9" d="M119.1,781.2c1,.8,1.6,1.4.9,2.5-.2.4-1,.7-1.2.4-.6-.8-.3-1.9.3-2.8h0Z"/>
              <path class="cls-76" d="M195.7,780.8c1.3,1.6,2.1,2.7-.3,3.4-.4-1.1,0-2,.3-3.4Z"/>
              <path class="cls-50" d="M174.8,225.2c.4.6.3,1.4-.4,1.5-1.1.2-1.5-.8-2.1-1.5.8,0,1.7-.4,2.5,0h0Z"/>
              <path class="cls-69" d="M45.8,478.7c0-2.2-.7-4.5.5-6.6,0,2.3,0,4.4-.5,6.6Z"/>
              <path class="cls-71" d="M132,381.9c0,1.5.4,3.1-.4,4.6,0-1.5-.4-3.1.4-4.6Z"/>
              <path class="cls-82" d="M223.6,309.6c.4.3.7.6,1.1.9h0"/>
              <path class="cls-80" d="M208.3,582c-.2-1.1-.4-2.3.3-3.3.2,1.1.2,2.3-.3,3.3Z"/>
              <path class="cls-69" d="M46.2,485c-.7-1-.3-2.3-.3-3.4.5,1.1.4,2.3.3,3.4Z"/>
              <path class="cls-69" d="M46.3,472c0-.9-.4-1.9.4-2.7,0,.9,0,1.9-.4,2.7Z"/>
              <path class="cls-78" d="M136.5,711.6v-1c0-.5,0-1,.5-1.3,0,.8.2,1.7-.5,2.4h0Z"/>
              <path class="cls-13" d="M206.2,218.6c.5-.3,1-.7,1.5-.9,0,.9-.5,1.4-1.5.9Z"/>
              <path class="cls-25" d="M166.3,206.5c-.2-.3-.3-.6-.5-.9,0-.5,0-1,.2-1.5.7.8.4,1.6.3,2.4h0Z"/>
              <path class="cls-28" d="M191.3,122.5c.3-2.8,2-5.4,2.1-8.3.6-.3,1.4.2,1.8-.5.7-.8,1.6-1,2.3,0,.2-.4-.3-.6-.2-.8-1.1-5.9-1.7-12-3-18.1-.8,0-1,1.6-2.1.9-.7-.4-.4,0-.4.3,0,1.4.5,2.7.2,4.2-1.1.8-1.2-.4-1.7-.8-.4-3.8-.7-7.6-.6-11.4,0-.5,0-1.2-.4-1.2-2.5,0-1.6-1.5-1.4-2.6.2-1.2-.7-2.2-1-3.2-1-2.5-2.8-4.8-3.4-7.4-1.3-4.9-5.3-7.6-8.8-10.9-1.6-1.5-2.4-3.3-3.6-4.9-.3-.4-.2-.8,0-1.3,1.1-3.2.5-4.2-3.2-4.2h-1.5s-.2-.2-.4-.6c3.5,0,7,1.7,10.3-.5,0-.9-1.5-.6-2.3-.8-.9-.4-1.8-.6-2.6-1,4.3.7,8.4,1.2,11.2,5.1,2.1,2.8,4.4,5.4,6.2,8.4.3.5.5.8,1.3.6-.3-1.9-2.2-3.1-2.1-5.2,1.2,1.8,2.4,3.6,3.6,5.4.8-.8,0-1.7,0-2.5,2.6,1.6,4.1,4.2,6.2,6.2.7.7,1.3,1.3,2.1,1.9,2.3,1.6,2.5,3.9,2.2,6.2,0,.6-.4,1.1-1,1-.9-.2-1.5-.3-1,.9.2.5-.2.8-.8.8-1.9,0-2,.3-.7,1.7,2.3,2.6,4.8,5.3,7.3,7.8s1.3,1.8,2.4,2.5c1.3.8,1.5,2.6.7,3.8-1,1.4-.4,2.5,0,3.9-.8.2-1.1-.9-2.3-.8,3.4,6.7,3.9,13.5,2.9,21-.9-.6-1.5-.9-2.1-1.2-.5.4-.4.7-.3.9.2.5.4,1,0,1.5h-.7c-.6-.4-.5-.8-.3-1.5.3-.8-.2-1.6-.4-2.5h-.4c-.9-.5-1-1.1-.7-1.9.4-.8,0-1.5-1.1-2,0,2.5,0,4.8.4,7.2-.8-.2-.7-1.6-1.6-1.1-.8.4,0,1,0,1.6.3,2.4,2.1,3.7,3.6,5.4.7.8.6,3.7-.3,4-1,.4-2-.9-3.2-.6-2-2.2-2.1-4.2-.5-5.3-1.5,0-2.1-.8-2-3-.7-.2-.9.8-1.6.5-.8.2-.8-.8-1.4-1-1.2,1.5-1.2,3-.8,4.8.7,4,1.7,7.8.5,12-.7,2.5-.2,5.5-.2,8.3s.4,1.6,1.6.9c.4-.2,1.1-.4,1,0-.5,1.7.6,3.2.5,4.8,0,.4-.6.8-.8.5-1.1-1.3-3.8-1.1-3.6-3.5.4-.8.5-1.4-.6-1.8-1,0-1.5.2-1.1,1.3.5,1.4,1.5,2.4,2.1,3.7.4.9,1.3,1.9.9,3-.3.8.4,1,.9,1.4,2.2,1.3,3.2,3.7,2.7,6-.3,1.3-.8,1.2-1.9.8-2.9-1.1-4.9-3.9-4.9-6.6s0-.7.3-.8c2.6-1,1.3-2.4.5-3.9-1.2-2.2-2-4.5-3.9-6.2-.9-.8-.2-1.6,0-2.4,1.5-3.9,2.8-7.7,2.4-12-.2-2.1-.2-4.2-1-6.3h0v-.2l-.3-.4h0Z"/>
              <path class="cls-20" d="M138,81.7c-.6.4-.4.7,0,.9-.3.9-.9.8-1.6.5-.3-.4-.3-.8,0-1h0c.6-1,1-2.1,1.5-3.2,1.2-2.8,1.6-5.9,3-8.8.7-1.4.5-3.5,1.6-5,1.3-1.8,3.1-3.2,3.9-5.3,4.3-.3,8.5,1.8,12.8.2,1.8-.7,6.9,1.3,8,2.7,0,0,.4.3.3.3-2.7,2.6,1.7,1.6,1.8,2.8,0,.4.5.8.7,1.2,0,.8-.6.8-1.1.6-.7-.3-1.2-.5-1.9,0-1.9.5-3.6,0-5.4-.4-3.4-.8-6.7-.3-9.8,1.4-2.1,1.2-4.4,2.2-6.2,3.8-.4.4-1,.8-1.6.7-2.5-.2-2.9,1.4-3.5,3-.7,1.9-.9,4-2.7,5.4h0l.3.3h-.1Z"/>
              <path class="cls-3" d="M167.3,67.3c.2-.9.7-1.1,1.3-.3.4.6.7,1.1,1.3.2,0-.2.3-.4.4-.6.2-.5-.3-1.4.7-1.4s.7.8.9,1.3c0,.3.3.5.5.8.4,0,.7-.4,1,0,1.4,4.2,4.6,7.4,6.7,11.1,1.9,3.1.8,5.7-2.8,6.6-.5,0-.7-1-1.3-.2-.8.4-1.1,0-1.1-.8-.5-2.3-2.4-3.9-3.2-6-2.8-3.1-3.8-6.8-4.4-10.7h0Z"/>
              <path class="cls-49" d="M179.3,91.9h-2.4c-.4,0-1.1-.5-1.1.4s-.5,1.1.5,1.6c1.5.7,1.4.8.2,1.7-2.1,1.8-4.8,2.1-7.6,2.4-.8-.3-1.8-.2-2.6-.4-2-.6-1.8-.4-1.2-2.2.3-.9-.2-2.1-.3-3.1-.8,0-1.1.7-1.6,1-.6.5-1,1.2-1.8.5-.7-.7-.6-1.3,0-2.1,2.1-2.5,6.9-4.1,10.7-3.3,1.9.4,3.6.5,4.8-1.1,3.4.2,1.3,1.5.5,2.5,1.1.7,2.4-1.1,3.3.3.9,1.5.2,2-1.4,1.8h0Z"/>
              <path class="cls-66" d="M179.3,91.9c1.1-.2,1.5-.8,1.4-1.8,1.1.3,1.2.3,1.1,1.9-.2,4.2,2.9,7.3,3.4,11.1.6-1.6-.3-3-.6-4.5-.4-1.5-.7-3,0-4.5.3-.7.2-1.2-.5-1.7-2.8-1.9-.2-2,1.2-2.7,0,3.6,0,6.8,1.3,10-.9-4.2.4-8.7-1.1-12.9,3,4.5.8,9.8,2.8,14.4.2,2.1.5,4.2,1.5,6-.3,1.1-.6,2.2-.9,3.2-1.1-.2-.7-1.4-1.7-1.8.7.5.6.8,0,1.3-.4-.2-.7-.3-1-.5-1.1.2-.9-.8-1.3-1.3-.6-1-.4-2.3-1-3.1-.2-.4-.3-.2-.3,0,.5.4.7.9.7,1.6-.2.6-.7.8-1.2,1.1-.7-1.3-.9-2.7-1-4.2.7-1.4,0-2.8-.4-4.2-.2-.6-.6-.7-1.1-.4-.6-.6-.5-1.2-.6-1.9,0-.4.3-.7.4-1,0-.2.2-.5,0-.6-.3,0-.5.4-.7.3-.7-1.1-.5-2.4-.7-3.6h0l.3-.3h0Z"/>
              <path class="cls-40" d="M189.8,107.2c-1.8-1.2-2.3-3.8-1.5-6,.8-.5,2-.7,2-1.9.5.3,1,.7,1.5.9.4.7.5,1.5.7,2.2.4,1.5,0,2.2-1.8,1.4-.4.4-.4.5.3,1.1.8,1.6,1.8,3.1,2.4,4.7.6,1.5,2.1,2.7,1.9,4.5-.7,1.9-1.3,0-2,0-.8-2.7-1.8-.4-2.6,0-.7.3-.7,1.7-1.8,1s-.3-1.5,0-2.2c.4-.8.8-1.5,1.2-2.2,1.2,0-.4,1.8,1.1,1.4,1-.4.5-1.3,0-2-.6-1-.6-2.3-1.7-3h.3Z"/>
              <path class="cls-81" d="M101.9,130.5c-1.3-1.9-2.1-3.9-2.2-6.1,1.3,1.9,2.1,4,2.2,6.1Z"/>
              <path class="cls-81" d="M112.7,128.9c-.7-1.3-1-2.2-.9-3.7,1,1.1,1.3,2.1.9,3.7Z"/>
              <path class="cls-77" d="M88.1,151.7h0"/>
              <path class="cls-66" d="M173.4,67.3c-.4,0-.7.6-1,0,0-.8,0-1.4.8-2.1,0,.8,0,1.5.2,2.1h0Z"/>
              <path class="cls-81" d="M104.4,128.8c0,.4,0,.6-.4.5-.2,0-.3-.3-.4-.5,0,0,.2-.2.2-.3.2,0,.4.3.5.4h.1Z"/>
              <path class="cls-28" d="M198.3,119.3c1-.4.9-1.3,1.2-2.3,2,1.3.6,3,.8,4.5.8,0,.7-.9,1.3-1,.4.7.2.8-.3,2.2-.6,1.6.6,2.9.9,4.4.8,1,1.6,2.2,3.2,2.4,1,0,1.6.8,2.1,1.5-1.2.5.5,2.2-1.7,2.6-2.2.5-2.2.9-4.3-.8-2.9-2.6-3.5-6.1-4.8-9.4-.6-1.6.8-2.7,1.5-4h.1Z"/>
              <path class="cls-67" d="M129,92.4h-.4c-.7-.5-1.8-.9-1.1-1.9.8-1.2,2.1,0,3.3,0,.2-1-1.8-1.4-.9-2.5.7-.8,1.5.2,2.2.2s1.6,0,2.1.8c4.3-1.2,8.1-.3,11.7,1.9.7.4,1.1.8,1.5,1.4.5.7.8,1.2,0,1.8-.7.5-1.2,0-1.7-.5-.6-.5-.9-1.1-2-1.1.2.9-1.2,2,.7,2.7,1,.4.2,1.2-.4,1.6-2.6,1.9-8.9,1.9-11.8,0-.8-.6-.8-.8,0-1.5,1.3-.9,1.4-2.2-.3-3-1,.2-2.1.2-3,0h0Z"/>
              <path class="cls-64" d="M127.5,135.9c-.7,1.1.3,2,.7,3,.3.9.9,1.7.8,2.9-2-1.9-3.5-6.2-3.8-10.1,1.2,1.2.7,3.2,2.3,4.3h0v-.2h0Z"/>
              <path class="cls-33" d="M134,89c-.7,0-1.5-.3-2.1-.8,2.4-1.5,2.9-4.2,4.5-6.1v.9c.5,1.1-.6,1.9-1,2.8-.5,1-1,2.1-1.5,3.1h.1Z"/>
              <path class="cls-18" d="M121.9,67.8c1.1-2.2,2.9-3.8,5-5.2-1.5,1.9-3.1,3.7-4.6,5.6-.2,0-.4-.2-.6-.4h.2Z"/>
              <path class="cls-33" d="M137.9,78.9c0,1.2-.6,2.4-1.5,3.2,0-1.2.6-2.4,1.5-3.2Z"/>
              <path class="cls-23" d="M99.4,105c1.1.8,1.3,1.4.9,2.8-.4-1.1-.6-1.8-.9-2.8Z"/>
              <path class="cls-33" d="M167.3,67.3c1.5,3.6,2.9,7.1,4.4,10.7-2.1-.3-3.1-1.7-3.4-3.5-.5-3.3-1.7-4.8-4.1-4.9-5.6-.3-6.9.5-7.9,4.4-.3,1.2-1,2-2.2,2.6-2.6,1.5-5.5,2.5-7.7,4.5-.8.8-1.9,1.1-3.1.4-1.8-1.1-3.5.4-5.3,0,.7-1.9,1.3-3.8,2.1-5.7.7-1.6.5-4.2,3.8-3.3.9.2,1.8-.9,2.6-1.5,3.7-2.5,7.5-4.9,12.2-4.9s5.6,1.4,8.6,1h0v.2Z"/>
              <path class="cls-31" d="M135.5,85.9c-.4-1.1.9-1.8,1-2.8.6,0,1.1,0,1.6-.4,3.1,0,6.2-.4,9.3.3,1.2.3,2.1.8,2,2-.2,1.1-1.3,1.3-2.5,1.4-3.8.2-7.6-.9-11.3-.5h-.1Z"/>
              <path class="cls-79" d="M174.8,84c.3.4.6.8,1.1.8.9.7,1.5,1.3-.3,1.5-.8,0-1.7,0-2.4-.3-2.6-.5-5.1-.9-7.7,0-1,.5-2.4.2-3.6.2s-1.5-.8-1.6-1.5c0-.7.3-1.6,1-1.6,4.4,0,8.8-.8,13.1.5.2,0,.4.2.7.4h-.3Z"/>
              <path class="cls-54" d="M155.5,129.5h-1.4c-.6,0-1.3,0-1.3-.8s.7-.7,1.2-.7c3.4,0,6-2,8.6-3.7.7-.4,1.3-.8,1.5-1.7,0-.4.6-.8,1.1-.5.7.5,1.6,1,1.7,1.9,0,.6-.7.5-1,.8-1.9,1-3.5,2.2-5.4,3.1-1.6.8-3.2,1.7-4.9,1.5h-.1Z"/>
              <path class="cls-48" d="M150.9,107.5c.3-.9-.6-2.8.8-2.8s.9,1.8.9,2.7c0,2.7,1.6,3.6,4.1,3.8.7,0,1.7-.2,1.6.9,0,1-1.1,1-1.9,1-3.5,0-5.6-2-5.6-5.7h0Z"/>
              <path class="cls-81" d="M129,92.4h3c-1,.5-2.1.7-3,0Z"/>
              <path class="cls-73" d="M184.2,106.8c.2-.9-.8-1.9,0-2.8.7,1.9,1.5,3.7,2.3,5.6,0,1.7,1.4,3.2.5,5-.3.5-.3,1-1,1,.2-.8.3-1.6.5-2.5-1.6-1.9-2.4-4-2.1-6.3h-.2Z"/>
              <path class="cls-23" d="M180.8,98.9c0-.5,0-1,.5-1.2.6-.2,1,.3,1,.8,0,1.7,2.4,3.4,0,5.1l-1.5-4.5h0v-.2Z"/>
              <path class="cls-23" d="M184.2,106.8c.7,2.1,1.4,4.2,2.1,6.3-1.5.2-1.5-.9-1.9-1.7-.5-1.2-.7-2.5-1.1-3.7,0-.5.2-.8.8-.9h0Z"/>
              <path class="cls-23" d="M179.9,95.6c.7-.5,0-1.5,1-2.3.2,1.4,1.3,2.7-.7,3.7-.4-.4-.5-.9-.4-1.4h0Z"/>
              <path class="cls-62" d="M177.8,133.7c2-2.3,3.4-4.8,5-7.4,0,.7.2,1.2.2,1.9.3-.2.5-.3.7-.5.6.9.4,1.8,0,2.7-.3.4-.6.7-1,1.1-.7-.4.6-1.2-.4-1.4-.6,0-.8.4-1.1.8-.7,1.1-1.4,2.3-2.5,3.1-.7.5-.8.3-.9-.3h0Z"/>
              <path class="cls-40" d="M187.2,130c-1.5-.9-3-1.9-1.2-3.9.5,1.3.8,2.6,1.3,3.9h-.1Z"/>
              <path class="cls-73" d="M187.3,110v-1.6c1.3.3.9,1.5,1.5,2.1-.3.7,0,1.3-.8,2-.4-.8,0-1.8-.7-2.5h0Z"/>
              <path class="cls-40" d="M183.7,130.4v-2.7c.8-.4.4-1.2,1-2.2,0,2,.2,3.6-1,4.9h0Z"/>
              <path class="cls-40" d="M175.6,147.5c.4.8.7,1.6,1.2,2.6-1.7-.6-1.4-1.7-1.8-2.5.2,0,.4,0,.6-.2h0Z"/>
              <path class="cls-23" d="M195.3,114.2c-.7-1.8-2.8-3-2.2-5.2-2.2-.3-.9-2.9-2.7-3.7-.4-.8-.4-1.5,0-2.3.6,0,1,1.1,1.7.7s0-1.1-.4-1.5c-.6-.7,0-1.3.2-1.9-.7-1.8-.4-3.7-.6-5.5,2.4,1.5,1.8-1.5,3.4-1.7,1.5,6.6,2.4,13.4,3.2,20.2.3.6.4.9-.5.9-.7-1.3-1.3-.7-2,0h0Z"/>
              <path class="cls-23" d="M193.4,89.8c-1.8-2.4-1-5.3-2.1-7.7,3.1,2.7,3.9,6.2,2.1,7.7Z"/>
              <path class="cls-40" d="M197.3,114.1c.4-.2.5-.6.5-.9.7.6.8,1.4,0,1.9-.4.3-.6-.6-.7-.9h.2Z"/>
              <path class="cls-23" d="M202.4,124.1c.5.6.8,1,.7,1.8-.6-.6-.9-.9-.7-1.8Z"/>
              <path class="cls-23" d="M198.5,110.8c-.3-1-.4-1.6,0-2.3.4.8.3,1.3,0,2.3Z"/>
              <path class="cls-24" d="M167.4,90.9c1.6-1.4,3.3-.8,5-.4.7.8,1.2,1.8.4,2.8-1.8-2.5-2-2.5-4.8-.5-.7-.5-.5-1.3-.6-2h0Z"/>
              <path class="cls-1" d="M167.4,90.9c1.1.4.2,1.3.6,2-.2.6.3,1.2-.4,1.7-1-1.2-1-2.5-.2-3.7h0Z"/>
              <path class="cls-14" d="M172.8,93.3c.3-.9-.3-1.9-.4-2.8,2.1,1,.5,2.6,1,3.9h-.7v-1.1h0Z"/>
              <path class="cls-23" d="M186.9,105.4c-.2.3-.3.6-.5.6-.5,0-.5-.3-.6-.6,0-.3,0-.7.4-.6.2,0,.4.4.6.7h.1Z"/>
              <path class="cls-66" d="M190.3,103.1v2.3c-.7-.8-.9-1.5,0-2.3Z"/>
              <path class="cls-40" d="M201.3,129.7c-2.6-2.5-2.7-5.8-2.3-9.1,0,3.2,1.5,6,2.3,9.1Z"/>
              <path class="cls-39" d="M135.5,90.9c2-1,3.8-1.3,5.5.6-.5.8,1,1.8-.6,2.3-1.1-2.1-2.6-2.3-4.6-.9-.7-.5,0-1.3-.5-1.8h0l.2-.2Z"/>
              <path class="cls-4" d="M140.4,93.7c.7-.7-.4-1.7.6-2.3,1,.8.4,1.8.5,2.7,0,.5-.2,1-.8.8s-.2-.8-.3-1.2h0Z"/>
              <path class="cls-58" d="M135.5,90.9c.9.5.2,1.2.5,1.8-.2.5-.4.8-.7,1.9-.2-1.6-.6-2.7.3-3.7h-.1Z"/>
              <path class="cls-86" d="M143.2,142.9h0c-.8,0-1.6-.5-1.6-1.2,0-1.4.8-2.8-.3-4.2-1.5-1.8-2.4-4-4.1-5.7-3.4-3.6-5.3-7.7-6.7-12.1-.3-.8-.6-1.7-1-2.5-1.8-3.2-4.9-3.6-7.6-.8-.3,0-.6,0-.7-.2-.7-.7-.8-1.4-.4-2.2,1.9-1.4,2.1-3.5,2.9-5.3h0c.4-1.2.7-2.5,1-3.8.5-1.5,1-2.9,1.6-4.3.3-.6.4-1.2.6-1.9.2-.6.3-1,.5-1.6.5-.9,0-2.1.7-3,0-.2.3-.3.5-.4.8-.5,1.8-.4,2.7-.4,1.7,0,1.9.7,1.4,1.8-.8,2.1-.7,2.4,2,3.1,1.5.5,3.1.4,4.4,1.1.3.2.5.4.6.7.7,1.5,2.3,2.2,3.5,3.3,2.3,2.3,2.3,7.6-.4,8.6-3.3,1.2-5.8,2.5-7.6,5.5-1.2,1.9-1.1,3-.3,4.7,1.7,3.2,4.6,5.7,6.6,8.8,2.7,4.2,2.8,7.9,1.7,12.2h0l.2-.2h-.2Z"/>
            </g>
          </g>
        </g>
      </g>
    </g>
  </g>
</svg>